<svg width="112" height="27" viewBox="0 0 112 27" fill="none" xmlns="http://www.w3.org/2000/svg">
<g filter="url(#filter0_d_32_327)">
<path d="M21.8141 11.8L22.1141 11.28H26.2341L26.3741 11.8H21.8141ZM31.7141 17.76C31.7675 17.76 31.7941 17.8 31.7941 17.88C31.7941 17.96 31.7675 18 31.7141 18C31.3141 18 30.9008 17.9867 30.4741 17.96C30.0608 17.9333 29.6608 17.92 29.2741 17.92C28.8341 17.92 28.4475 17.9333 28.1141 17.96C27.7941 17.9867 27.4341 18 27.0341 18C26.9808 18 26.9541 17.96 26.9541 17.88C26.9541 17.8 26.9808 17.76 27.0341 17.76C27.6341 17.76 27.9941 17.6533 28.1141 17.44C28.2341 17.2267 28.1341 16.8067 27.8141 16.18L23.6341 7.68L24.4541 6.34L20.4941 15.26C20.1475 16.0733 20.1341 16.6933 20.4541 17.12C20.7875 17.5467 21.3475 17.76 22.1341 17.76C22.2008 17.76 22.2341 17.8 22.2341 17.88C22.2341 17.96 22.2008 18 22.1341 18C21.7341 18 21.3675 17.9867 21.0341 17.96C20.7008 17.9333 20.2808 17.92 19.7741 17.92C19.2675 17.92 18.8608 17.9333 18.5541 17.96C18.2608 17.9867 17.8941 18 17.4541 18C17.4008 18 17.3741 17.96 17.3741 17.88C17.3741 17.8 17.4008 17.76 17.4541 17.76C17.8141 17.76 18.1208 17.6867 18.3741 17.54C18.6408 17.3933 18.9008 17.1267 19.1541 16.74C19.4075 16.34 19.6875 15.7867 19.9941 15.08L24.2941 5.38C24.3208 5.34 24.3808 5.32 24.4741 5.32C24.5675 5.32 24.6208 5.34 24.6341 5.38L29.5341 15.26C29.8408 15.9 30.1141 16.4067 30.3541 16.78C30.5941 17.14 30.8208 17.3933 31.0341 17.54C31.2475 17.6867 31.4741 17.76 31.7141 17.76ZM35.0329 16.58L34.6529 16.22L43.4529 6.84L43.8129 7.18L35.0329 16.58ZM32.3529 18C32.3262 18 32.3129 17.96 32.3129 17.88C32.3129 17.8 32.3262 17.76 32.3529 17.76C32.8196 17.76 33.1662 17.7267 33.3929 17.66C33.6196 17.5933 33.7729 17.46 33.8529 17.26C33.9462 17.06 33.9929 16.7667 33.9929 16.38V7.12C33.9929 6.73333 33.9529 6.44667 33.8729 6.26C33.7929 6.06 33.6396 5.92667 33.4129 5.86C33.1862 5.78 32.8396 5.74 32.3729 5.74C32.3462 5.74 32.3329 5.7 32.3329 5.62C32.3329 5.54 32.3462 5.5 32.3729 5.5C32.7196 5.5 33.1062 5.51333 33.5329 5.54C33.9596 5.55333 34.4062 5.56 34.8729 5.56C35.4462 5.56 35.9529 5.55333 36.3929 5.54C36.8329 5.51333 37.2262 5.5 37.5729 5.5C37.5996 5.5 37.6129 5.54 37.6129 5.62C37.6129 5.7 37.5996 5.74 37.5729 5.74C37.1062 5.74 36.7462 5.78 36.4929 5.86C36.2529 5.94 36.0929 6.08 36.0129 6.28C35.9329 6.48 35.8929 6.77333 35.8929 7.16V16.38C35.8929 16.7667 35.9329 17.06 36.0129 17.26C36.0929 17.46 36.2529 17.5933 36.4929 17.66C36.7462 17.7267 37.1062 17.76 37.5729 17.76C37.5996 17.76 37.6129 17.8 37.6129 17.88C37.6129 17.96 37.5996 18 37.5729 18C37.2129 18 36.8129 17.9933 36.3729 17.98C35.9462 17.9667 35.4462 17.96 34.8729 17.96C34.4062 17.96 33.9529 17.9667 33.5129 17.98C33.0729 17.9933 32.6862 18 32.3529 18ZM40.8329 18C40.7929 18 40.7729 17.96 40.7729 17.88C40.7729 17.8 40.7929 17.76 40.8329 17.76C41.3262 17.76 41.6929 17.7267 41.9329 17.66C42.1729 17.5933 42.3329 17.46 42.4129 17.26C42.4929 17.06 42.5329 16.7667 42.5329 16.38V7.16C42.5329 6.77333 42.4929 6.48 42.4129 6.28C42.3329 6.08 42.1729 5.94 41.9329 5.86C41.6929 5.78 41.3262 5.74 40.8329 5.74C40.7929 5.74 40.7729 5.7 40.7729 5.62C40.7729 5.54 40.7929 5.5 40.8329 5.5C41.1662 5.5 41.5462 5.51333 41.9729 5.54C42.4129 5.55333 42.9196 5.56 43.4929 5.56C43.9596 5.56 44.4196 5.55333 44.8729 5.54C45.3262 5.51333 45.7196 5.5 46.0529 5.5C46.0929 5.5 46.1129 5.54 46.1129 5.62C46.1129 5.7 46.0929 5.74 46.0529 5.74C45.5996 5.74 45.2529 5.78 45.0129 5.86C44.7862 5.92667 44.6329 6.06 44.5529 6.26C44.4729 6.44667 44.4329 6.73333 44.4329 7.12V16.38C44.4329 16.7667 44.4729 17.06 44.5529 17.26C44.6329 17.46 44.7862 17.5933 45.0129 17.66C45.2529 17.7267 45.5996 17.76 46.0529 17.76C46.0929 17.76 46.1129 17.8 46.1129 17.88C46.1129 17.96 46.0929 18 46.0529 18C45.7196 18 45.3262 17.9933 44.8729 17.98C44.4196 17.9667 43.9596 17.96 43.4929 17.96C42.9196 17.96 42.4129 17.9667 41.9729 17.98C41.5462 17.9933 41.1662 18 40.8329 18ZM39.2129 4.3C39.5996 4.3 39.8796 4.17333 40.0529 3.92C40.2262 3.66667 40.3596 3.38667 40.4529 3.08C40.5462 2.81333 40.6529 2.57333 40.7729 2.36C40.8929 2.13333 41.0996 2.02 41.3929 2.02C41.6329 2.02 41.8196 2.09333 41.9529 2.24C42.0862 2.37333 42.1529 2.54667 42.1529 2.76C42.1529 3.09333 42.0129 3.4 41.7329 3.68C41.4529 3.96 41.0929 4.18667 40.6529 4.36C40.2129 4.52 39.7396 4.6 39.2329 4.6C38.7396 4.6 38.2662 4.51333 37.8129 4.34C37.3729 4.16667 37.0129 3.94 36.7329 3.66C36.4662 3.38 36.3329 3.08 36.3329 2.76C36.3329 2.53333 36.3996 2.35333 36.5329 2.22C36.6662 2.08667 36.8596 2.02 37.1129 2.02C37.4329 2.02 37.6462 2.13333 37.7529 2.36C37.8729 2.57333 37.9662 2.82 38.0329 3.1C38.1262 3.39333 38.2462 3.66667 38.3929 3.92C38.5529 4.17333 38.8262 4.3 39.2129 4.3ZM47.4529 18C47.4129 18 47.3929 17.96 47.3929 17.88C47.3929 17.8 47.4129 17.76 47.4529 17.76C47.9196 17.76 48.2662 17.7267 48.4929 17.66C48.7196 17.5933 48.8729 17.46 48.9529 17.26C49.0329 17.06 49.0729 16.7667 49.0729 16.38V7.12C49.0729 6.73333 49.0329 6.44667 48.9529 6.26C48.8862 6.06 48.7462 5.92667 48.5329 5.86C48.3196 5.78 47.9929 5.74 47.5529 5.74C47.5129 5.74 47.4929 5.7 47.4929 5.62C47.4929 5.54 47.5129 5.5 47.5529 5.5H56.1729C56.3062 5.5 56.3729 5.56 56.3729 5.68L56.4129 8.78C56.4129 8.82 56.3729 8.84667 56.2929 8.86C56.2262 8.86 56.1862 8.84 56.1729 8.8C56.0129 7.86667 55.6862 7.17333 55.1929 6.72C54.6996 6.25333 54.0462 6.02 53.2329 6.02H52.2929C51.7996 6.02 51.4529 6.10667 51.2529 6.28C51.0662 6.45333 50.9729 6.74 50.9729 7.14V16.3C50.9729 16.7 51.0262 17.0067 51.1329 17.22C51.2396 17.42 51.4529 17.56 51.7729 17.64C52.0929 17.72 52.5729 17.76 53.2129 17.76C53.2396 17.76 53.2529 17.8 53.2529 17.88C53.2529 17.96 53.2396 18 53.2129 18C52.7596 18 52.2729 17.9933 51.7529 17.98C51.2329 17.9667 50.6396 17.96 49.9729 17.96C49.5062 17.96 49.0529 17.9667 48.6129 17.98C48.1729 17.9933 47.7862 18 47.4529 18ZM61.4821 18.24C60.9888 18.24 60.5821 18.1333 60.2621 17.92C59.9554 17.6933 59.8021 17.4 59.8021 17.04C59.8021 16.8 59.8821 16.58 60.0421 16.38C60.2154 16.18 60.4621 16.08 60.7821 16.08C61.0754 16.08 61.2888 16.1533 61.4221 16.3C61.5554 16.4333 61.6554 16.5933 61.7221 16.78C61.7888 16.9533 61.8554 17.1133 61.9221 17.26C61.9888 17.3933 62.1021 17.46 62.2621 17.46C62.3954 17.46 62.5221 17.3933 62.6421 17.26C62.7754 17.1267 62.9221 16.88 63.0821 16.52L67.0421 7.44C67.2688 6.92 67.2754 6.50667 67.0621 6.2C66.8488 5.89333 66.4154 5.74 65.7621 5.74C65.7354 5.74 65.7221 5.7 65.7221 5.62C65.7221 5.54 65.7354 5.5 65.7621 5.5C66.1088 5.5 66.4354 5.51333 66.7421 5.54C67.0488 5.55333 67.4554 5.56 67.9621 5.56C68.2288 5.56 68.4421 5.56 68.6021 5.56C68.7621 5.54667 68.9154 5.53333 69.0621 5.52C69.2221 5.50667 69.4221 5.5 69.6621 5.5C69.7021 5.5 69.7221 5.54 69.7221 5.62C69.7221 5.7 69.7021 5.74 69.6621 5.74C69.3021 5.74 68.9288 5.9 68.5421 6.22C68.1554 6.52667 67.8421 6.94667 67.6021 7.48L63.6021 16.54C63.3488 17.14 63.0621 17.5733 62.7421 17.84C62.4221 18.1067 62.0021 18.24 61.4821 18.24ZM63.6421 15.76L59.1221 7.16C58.8688 6.65333 58.6288 6.29333 58.4021 6.08C58.1754 5.85333 57.8554 5.74 57.4421 5.74C57.4154 5.74 57.4021 5.7 57.4021 5.62C57.4021 5.54 57.4154 5.5 57.4421 5.5C57.6554 5.5 57.8354 5.50667 57.9821 5.52C58.1421 5.53333 58.3288 5.54667 58.5421 5.56C58.7688 5.56 59.0888 5.56 59.5021 5.56C60.0354 5.56 60.4688 5.56 60.8021 5.56C61.1488 5.54667 61.4288 5.53333 61.6421 5.52C61.8688 5.50667 62.0754 5.5 62.2621 5.5C62.2888 5.5 62.3021 5.54 62.3021 5.62C62.3021 5.7 62.2888 5.74 62.2621 5.74C61.7421 5.74 61.3688 5.83333 61.1421 6.02C60.9154 6.19333 60.9221 6.50667 61.1621 6.96L64.6221 13.72L63.6421 15.76ZM70.8445 18.24C70.5111 18.24 70.2378 18.1667 70.0245 18.02C69.8111 17.8733 69.7045 17.64 69.7045 17.32C69.7045 17 69.8045 16.7867 70.0045 16.68C70.2045 16.56 70.4245 16.5 70.6645 16.5C70.7311 16.5 70.7978 16.5 70.8645 16.5C70.9445 16.5 71.0178 16.5 71.0845 16.5C71.5511 16.5 71.9711 16.3133 72.3445 15.94C72.7178 15.5667 73.0378 15.0733 73.3045 14.46C73.5845 13.8333 73.8178 13.1333 74.0045 12.36C74.1911 11.5867 74.3311 10.7933 74.4245 9.98C74.5178 9.15333 74.5645 8.35333 74.5645 7.58C74.5645 7.16667 74.5111 6.82667 74.4045 6.56C74.2978 6.28 74.1045 6.07333 73.8245 5.94C73.5445 5.80667 73.1311 5.74 72.5845 5.74C72.5445 5.74 72.5245 5.7 72.5245 5.62C72.5245 5.54 72.5445 5.5 72.5845 5.5C72.6645 5.5 72.8978 5.5 73.2845 5.5C73.6711 5.5 74.1511 5.5 74.7245 5.5C75.3111 5.5 75.9378 5.5 76.6045 5.5C77.2845 5.5 77.9578 5.5 78.6245 5.5C79.3045 5.5 79.9311 5.5 80.5045 5.5C81.0778 5.5 81.5445 5.5 81.9045 5.5C82.2645 5.5 82.4711 5.5 82.5245 5.5C82.5511 5.5 82.5645 5.54 82.5645 5.62C82.5645 5.7 82.5511 5.74 82.5245 5.74C82.0711 5.74 81.7245 5.78 81.4845 5.86C81.2445 5.92667 81.0845 6.06 81.0045 6.26C80.9378 6.44667 80.9045 6.73333 80.9045 7.12V16.38C80.9045 16.7667 80.9378 17.06 81.0045 17.26C81.0845 17.46 81.2445 17.5933 81.4845 17.66C81.7245 17.7267 82.0711 17.76 82.5245 17.76C82.5511 17.76 82.5645 17.8 82.5645 17.88C82.5645 17.96 82.5511 18 82.5245 18C82.1911 18 81.8045 17.9933 81.3645 17.98C80.9378 17.9667 80.4911 17.96 80.0245 17.96C79.5178 17.96 79.0378 17.9667 78.5845 17.98C78.1445 17.9933 77.7445 18 77.3845 18C77.3445 18 77.3245 17.96 77.3245 17.88C77.3245 17.8 77.3445 17.76 77.3845 17.76C77.8511 17.76 78.1978 17.7267 78.4245 17.66C78.6511 17.5933 78.7978 17.46 78.8645 17.26C78.9445 17.06 78.9845 16.7667 78.9845 16.38V7.3C78.9845 6.88667 78.9645 6.59333 78.9245 6.42C78.8978 6.24667 78.7978 6.14667 78.6245 6.12C78.4645 6.08 78.1845 6.06 77.7845 6.06H76.5645C76.2178 6.06 75.9311 6.09333 75.7045 6.16C75.4911 6.22667 75.3378 6.36667 75.2445 6.58C75.1511 6.78 75.1045 7.11333 75.1045 7.58C75.1045 8.11333 75.0778 8.74667 75.0245 9.48C74.9845 10.2133 74.9045 10.98 74.7845 11.78C74.6645 12.58 74.5045 13.36 74.3045 14.12C74.1045 14.88 73.8378 15.5733 73.5045 16.2C73.1845 16.8267 72.8045 17.3267 72.3645 17.7C71.9378 18.06 71.4311 18.24 70.8445 18.24ZM89.4377 18.08C89.2111 18.08 88.9244 18.0667 88.5777 18.04C88.2444 18.0267 87.8911 18.0133 87.5177 18C87.1444 17.9733 86.7777 17.96 86.4177 17.96C86.0311 17.96 85.6177 17.9667 85.1777 17.98C84.7377 17.9933 84.3511 18 84.0177 18C83.9777 18 83.9577 17.96 83.9577 17.88C83.9577 17.8 83.9777 17.76 84.0177 17.76C84.4444 17.7467 84.7644 17.7133 84.9777 17.66C85.2044 17.6067 85.3577 17.4867 85.4377 17.3C85.5177 17.1 85.5577 16.7933 85.5577 16.38V7.12C85.5577 6.70667 85.5177 6.40667 85.4377 6.22C85.3711 6.03333 85.2244 5.91333 84.9977 5.86C84.7844 5.79333 84.4644 5.75333 84.0377 5.74C84.0111 5.74 83.9977 5.7 83.9977 5.62C83.9977 5.54 84.0111 5.5 84.0377 5.5C84.3844 5.5 84.7511 5.51333 85.1377 5.54C85.5244 5.55333 85.9777 5.56 86.4977 5.56C87.0177 5.56 87.5044 5.55333 87.9577 5.54C88.4111 5.51333 88.8111 5.5 89.1577 5.5C89.1844 5.5 89.1977 5.54 89.1977 5.62C89.1977 5.7 89.1844 5.74 89.1577 5.74C88.7044 5.75333 88.3511 5.79333 88.0977 5.86C87.8577 5.92667 87.6911 6.05333 87.5977 6.24C87.5177 6.42667 87.4777 6.73333 87.4777 7.16V16.38C87.4777 16.6333 87.5111 16.8533 87.5777 17.04C87.6577 17.2267 87.8111 17.3733 88.0377 17.48C88.2644 17.5733 88.6111 17.62 89.0777 17.62C90.0644 17.62 90.7577 17.3733 91.1577 16.88C91.5711 16.3733 91.7777 15.6133 91.7777 14.6C91.7777 13.8667 91.6777 13.2667 91.4777 12.8C91.2911 12.3333 90.9844 11.9933 90.5577 11.78C90.1444 11.5533 89.6044 11.44 88.9377 11.44C88.6044 11.44 88.2444 11.4667 87.8577 11.52C87.4711 11.5733 87.0711 11.6467 86.6577 11.74L86.5777 11.3C87.0577 11.18 87.5577 11.0933 88.0777 11.04C88.5977 10.9733 89.0911 10.94 89.5577 10.94C90.4377 10.94 91.1911 11.06 91.8177 11.3C92.4577 11.5267 92.9444 11.88 93.2777 12.36C93.6244 12.84 93.7977 13.46 93.7977 14.22C93.7977 14.9933 93.6111 15.6733 93.2377 16.26C92.8644 16.8333 92.3511 17.28 91.6977 17.6C91.0444 17.92 90.2911 18.08 89.4377 18.08Z" fill="white"/>
</g>
<defs>
<filter id="filter0_d_32_327" x="13.3741" y="2.02002" width="84.4236" height="24.22" filterUnits="userSpaceOnUse" color-interpolation-filters="sRGB">
<feFlood flood-opacity="0" result="BackgroundImageFix"/>
<feColorMatrix in="SourceAlpha" type="matrix" values="0 0 0 0 0 0 0 0 0 0 0 0 0 0 0 0 0 0 127 0" result="hardAlpha"/>
<feOffset dy="4"/>
<feGaussianBlur stdDeviation="2"/>
<feComposite in2="hardAlpha" operator="out"/>
<feColorMatrix type="matrix" values="0 0 0 0 0 0 0 0 0 0 0 0 0 0 0 0 0 0 0.25 0"/>
<feBlend mode="normal" in2="BackgroundImageFix" result="effect1_dropShadow_32_327"/>
<feBlend mode="normal" in="SourceGraphic" in2="effect1_dropShadow_32_327" result="shape"/>
</filter>
</defs>
</svg>
