<svg width="133" height="35" viewBox="0 0 133 35" fill="none" xmlns="http://www.w3.org/2000/svg">
<path d="M0 5C0 2.23858 2.23858 0 5 0H128C130.761 0 133 2.23858 133 5V30C133 32.7614 130.761 35 128 35H5C2.23857 35 0 32.7614 0 30V5Z" fill="#D9D9D9"/>
<path d="M30.4838 10.824C30.9744 10.824 31.4811 10.872 32.0038 10.968C32.5371 11.064 32.9638 11.2027 33.2838 11.384C33.3798 11.4373 33.4384 11.4853 33.4598 11.528C33.4918 11.5707 33.5131 11.6507 33.5238 11.768L33.6998 13.56C33.6998 13.5813 33.6731 13.6027 33.6198 13.624C33.5664 13.6347 33.5344 13.6187 33.5238 13.576C33.2784 12.712 32.8304 12.0987 32.1798 11.736C31.5291 11.3627 30.7558 11.176 29.8598 11.176C29.0384 11.176 28.3238 11.3573 27.7158 11.72C27.1184 12.072 26.6544 12.5733 26.3238 13.224C25.9931 13.864 25.8278 14.616 25.8278 15.48C25.8278 16.2373 25.9451 16.952 26.1798 17.624C26.4144 18.2853 26.7398 18.8667 27.1558 19.368C27.5824 19.8693 28.0678 20.264 28.6118 20.552C29.1664 20.8293 29.7531 20.968 30.3718 20.968C31.1184 20.968 31.7744 20.7653 32.3398 20.36C32.9158 19.944 33.3584 19.288 33.6678 18.392C33.6784 18.3493 33.7104 18.3387 33.7638 18.36C33.8278 18.3707 33.8598 18.3867 33.8598 18.408L33.6358 20.216C33.6144 20.344 33.5878 20.4293 33.5558 20.472C33.5344 20.504 33.4758 20.5413 33.3798 20.584C32.8678 20.7973 32.3611 20.952 31.8598 21.048C31.3584 21.144 30.8518 21.192 30.3398 21.192C29.3264 21.192 28.4571 21.0373 27.7318 20.728C27.0064 20.408 26.4144 19.992 25.9557 19.48C25.4971 18.9573 25.1611 18.3867 24.9478 17.768C24.7344 17.1387 24.6278 16.52 24.6278 15.912C24.6278 15.144 24.7878 14.4507 25.1078 13.832C25.4278 13.2133 25.8651 12.68 26.4198 12.232C26.9744 11.784 27.5984 11.4373 28.2918 11.192C28.9958 10.9467 29.7264 10.824 30.4838 10.824ZM39.3469 15.528L39.5229 15.352C40.1522 15.352 40.7015 15.4693 41.1709 15.704C41.6509 15.9387 42.0189 16.2587 42.2749 16.664C42.5415 17.0693 42.6749 17.5333 42.6749 18.056C42.6749 18.6213 42.5362 19.1333 42.2589 19.592C41.9815 20.0507 41.5975 20.4133 41.1069 20.68C40.6269 20.936 40.0882 21.064 39.4909 21.064C39.1495 21.064 38.7602 21.048 38.3229 21.016C37.8962 20.984 37.5015 20.968 37.1389 20.968C36.7869 20.968 36.4455 20.9733 36.1149 20.984C35.7949 20.9947 35.5015 21 35.2349 21C35.2135 21 35.2029 20.968 35.2029 20.904C35.2029 20.84 35.2135 20.808 35.2349 20.808C35.6189 20.808 35.9122 20.7813 36.1149 20.728C36.3175 20.6747 36.4562 20.568 36.5309 20.408C36.6055 20.248 36.6429 20.0133 36.6429 19.704V12.296C36.6429 11.9867 36.6055 11.7573 36.5309 11.608C36.4669 11.448 36.3335 11.3413 36.1309 11.288C35.9389 11.224 35.6509 11.192 35.2669 11.192C35.2349 11.192 35.2189 11.16 35.2189 11.096C35.2189 11.032 35.2349 11 35.2669 11C35.5229 11 35.8109 11.0107 36.1309 11.032C36.4509 11.0427 36.7869 11.048 37.1389 11.048C37.4162 11.048 37.7362 11.032 38.0989 11C38.4615 10.968 38.7709 10.952 39.0269 10.952C39.6562 10.952 40.1682 11.048 40.5629 11.24C40.9575 11.4213 41.2455 11.672 41.4269 11.992C41.6189 12.312 41.7149 12.6693 41.7149 13.064C41.7149 13.672 41.4909 14.1893 41.0429 14.616C40.6055 15.0427 40.0402 15.3467 39.3469 15.528ZM38.6749 11.192C38.4295 11.192 38.2322 11.2133 38.0829 11.256C37.9335 11.2987 37.8269 11.4 37.7629 11.56C37.6989 11.7093 37.6669 11.9653 37.6669 12.328V15.464L37.1549 15.336C37.4962 15.3573 37.7789 15.3733 38.0029 15.384C38.2269 15.384 38.3549 15.384 38.3869 15.384C39.2082 15.384 39.7949 15.176 40.1469 14.76C40.4989 14.3333 40.6749 13.8107 40.6749 13.192C40.6749 12.8187 40.6055 12.4827 40.4669 12.184C40.3389 11.8747 40.1309 11.6347 39.8429 11.464C39.5549 11.2827 39.1655 11.192 38.6749 11.192ZM39.2509 20.776C40.0509 20.776 40.6322 20.5733 40.9949 20.168C41.3682 19.752 41.5549 19.1813 41.5549 18.456C41.5549 17.656 41.3202 17 40.8509 16.488C40.3815 15.976 39.7255 15.72 38.8829 15.72C38.6162 15.7093 38.3389 15.7093 38.0509 15.72C37.7735 15.7307 37.4909 15.7573 37.2029 15.8L37.6669 15.624V19.704C37.6669 19.96 37.7042 20.168 37.7789 20.328C37.8535 20.488 38.0029 20.6053 38.2269 20.68C38.4615 20.744 38.8029 20.776 39.2509 20.776ZM52.3968 20.808C52.4181 20.808 52.4288 20.84 52.4288 20.904C52.4288 20.968 52.4181 21 52.3968 21C52.1301 21 51.8314 20.9947 51.5008 20.984C51.1808 20.9733 50.8448 20.968 50.4928 20.968C50.1194 20.968 49.7728 20.9733 49.4528 20.984C49.1434 20.9947 48.8554 21 48.5888 21C48.5674 21 48.5568 20.968 48.5568 20.904C48.5568 20.84 48.5674 20.808 48.5888 20.808C48.9941 20.808 49.2928 20.7813 49.4848 20.728C49.6768 20.6747 49.8048 20.568 49.8688 20.408C49.9328 20.248 49.9648 20.0133 49.9648 19.704V15.736L50.2528 15.816C49.9541 15.816 49.6874 15.8427 49.4528 15.896C49.2181 15.9493 48.9888 16.0613 48.7648 16.232C48.5514 16.392 48.3221 16.6373 48.0768 16.968C47.8314 17.2987 47.5434 17.7467 47.2128 18.312C46.8074 19.0267 46.4768 19.5707 46.2208 19.944C45.9754 20.3173 45.7781 20.5787 45.6288 20.728C45.4901 20.8773 45.3728 20.9627 45.2768 20.984C45.1914 20.9947 45.1008 21 45.0048 21H43.3567C43.3247 21 43.3087 20.968 43.3087 20.904C43.3087 20.84 43.3247 20.808 43.3567 20.808C43.7621 20.7973 44.1141 20.6907 44.4128 20.488C44.7114 20.2747 45.0048 19.96 45.2928 19.544C45.5914 19.128 45.9168 18.6107 46.2688 17.992C46.5888 17.4267 46.8874 16.9893 47.1648 16.68C47.4421 16.36 47.7354 16.1307 48.0448 15.992C48.3648 15.8533 48.7168 15.768 49.1008 15.736L49.2128 15.848C48.0608 15.8373 47.1914 15.6133 46.6048 15.176C46.0181 14.7387 45.7248 14.152 45.7248 13.416C45.7248 12.9253 45.8474 12.4987 46.0928 12.136C46.3488 11.7627 46.6954 11.4747 47.1328 11.272C47.5808 11.0587 48.0821 10.952 48.6368 10.952C48.8608 10.952 49.1594 10.968 49.5328 11C49.9061 11.032 50.2261 11.048 50.4928 11.048C50.8448 11.048 51.1808 11.0427 51.5008 11.032C51.8208 11.0107 52.1141 11 52.3808 11C52.4021 11 52.4128 11.032 52.4128 11.096C52.4128 11.16 52.4021 11.192 52.3808 11.192C51.9861 11.192 51.6874 11.224 51.4848 11.288C51.2928 11.3413 51.1594 11.448 51.0848 11.608C51.0208 11.7573 50.9888 11.9867 50.9888 12.296V19.704C50.9888 20.0133 51.0208 20.248 51.0848 20.408C51.1594 20.568 51.2981 20.6747 51.5008 20.728C51.7034 20.7813 52.0021 20.808 52.3968 20.808ZM46.7968 13.016C46.7968 13.7627 47.0101 14.3813 47.4368 14.872C47.8741 15.352 48.5194 15.592 49.3728 15.592C49.5114 15.592 49.6714 15.5867 49.8528 15.576C50.0341 15.5547 50.1781 15.528 50.2848 15.496L49.9648 15.608V12.328C49.9648 12.0187 49.8954 11.7787 49.7568 11.608C49.6288 11.4373 49.4581 11.32 49.2448 11.256C49.0421 11.192 48.8341 11.16 48.6208 11.16C47.4048 11.16 46.7968 11.7787 46.7968 13.016ZM56.9048 20.936C57.4168 20.936 57.8221 20.8187 58.1208 20.584C58.4301 20.3387 58.6541 20.024 58.7928 19.64C58.9421 19.256 59.0168 18.8507 59.0168 18.424C59.0168 17.5493 58.7661 16.8933 58.2648 16.456C57.7741 16.0187 57.0808 15.8 56.1848 15.8C56.1421 15.8 56.1208 15.768 56.1208 15.704C56.1208 15.64 56.1421 15.608 56.1848 15.608C57.0488 15.608 57.6834 15.4 58.0888 14.984C58.4941 14.568 58.6968 14.0187 58.6968 13.336C58.6968 12.632 58.5154 12.072 58.1528 11.656C57.8008 11.24 57.3368 11.032 56.7608 11.032C56.4088 11.032 56.0728 11.1227 55.7528 11.304C55.4328 11.4747 55.1501 11.7413 54.9048 12.104C54.6594 12.456 54.4621 12.9093 54.3128 13.464C54.3021 13.496 54.2701 13.5067 54.2168 13.496C54.1634 13.4853 54.1368 13.464 54.1368 13.432L54.3608 11.624C54.3821 11.496 54.4034 11.4107 54.4248 11.368C54.4461 11.3253 54.5048 11.288 54.6008 11.256C55.0381 11.1067 55.4541 11 55.8488 10.936C56.2541 10.8613 56.6274 10.824 56.9688 10.824C57.5981 10.824 58.1208 10.9253 58.5368 11.128C58.9528 11.3307 59.2621 11.5973 59.4648 11.928C59.6674 12.2587 59.7688 12.616 59.7688 13C59.7688 13.3733 59.6834 13.72 59.5128 14.04C59.3528 14.36 59.1394 14.6427 58.8728 14.888C58.6168 15.1333 58.3341 15.3307 58.0248 15.48C57.7261 15.6293 57.4434 15.7147 57.1768 15.736L57.4008 15.608C57.9448 15.608 58.4248 15.7147 58.8408 15.928C59.2674 16.1307 59.5981 16.424 59.8328 16.808C60.0781 17.1813 60.2008 17.624 60.2008 18.136C60.2008 18.7333 60.0354 19.2613 59.7048 19.72C59.3848 20.1787 58.9528 20.5413 58.4088 20.808C57.8648 21.064 57.2514 21.192 56.5688 21.192C56.1634 21.192 55.7421 21.1387 55.3048 21.032C54.8781 20.936 54.5421 20.7867 54.2968 20.584C54.2008 20.5307 54.1421 20.4827 54.1208 20.44C54.0994 20.3973 54.0834 20.3227 54.0728 20.216L53.8808 18.44C53.8808 18.408 53.9074 18.3867 53.9608 18.376C54.0248 18.3653 54.0621 18.376 54.0728 18.408C54.1794 19.0373 54.3874 19.5387 54.6968 19.912C55.0061 20.2747 55.3581 20.536 55.7528 20.696C56.1474 20.856 56.5314 20.936 56.9048 20.936ZM64.408 15.704L64.648 15.368H67.944L68.056 15.704H64.408ZM72.184 20.808C72.2267 20.808 72.248 20.84 72.248 20.904C72.248 20.968 72.2267 21 72.184 21C71.8747 21 71.56 20.9893 71.24 20.968C70.92 20.9467 70.6107 20.936 70.312 20.936C69.9813 20.936 69.6933 20.9467 69.448 20.968C69.2027 20.9893 68.9307 21 68.632 21C68.5893 21 68.568 20.968 68.568 20.904C68.568 20.84 68.5893 20.808 68.632 20.808C69.1973 20.808 69.5493 20.728 69.688 20.568C69.8267 20.3973 69.7893 20.0827 69.576 19.624L66.024 12.12L66.424 11.624L63.32 18.968C63.0533 19.6187 63.0373 20.088 63.272 20.376C63.5067 20.664 63.9707 20.808 64.664 20.808C64.7173 20.808 64.744 20.84 64.744 20.904C64.744 20.968 64.7173 21 64.664 21C64.344 21 64.0507 20.9893 63.784 20.968C63.5173 20.9467 63.1813 20.936 62.776 20.936C62.392 20.936 62.0827 20.9467 61.848 20.968C61.624 20.9893 61.3467 21 61.016 21C60.9733 21 60.952 20.968 60.952 20.904C60.952 20.84 60.9733 20.808 61.016 20.808C61.304 20.808 61.5547 20.7547 61.768 20.648C61.9813 20.5307 62.1787 20.3333 62.36 20.056C62.552 19.768 62.76 19.3573 62.984 18.824L66.36 10.856C66.3813 10.824 66.4187 10.808 66.472 10.808C66.5253 10.808 66.5573 10.824 66.568 10.856L70.344 18.808C70.5893 19.3307 70.808 19.7413 71 20.04C71.192 20.328 71.3787 20.5307 71.56 20.648C71.752 20.7547 71.96 20.808 72.184 20.808ZM74.1174 11.288C73.456 11.288 72.9547 11.4587 72.6134 11.8C72.2827 12.1413 72.0427 12.7227 71.8934 13.544C71.8934 13.5653 71.8614 13.576 71.7974 13.576C71.744 13.576 71.7174 13.5653 71.7174 13.544C71.7387 13.4053 71.76 13.2133 71.7814 12.968C71.8027 12.712 71.824 12.44 71.8454 12.152C71.8774 11.864 71.8987 11.5867 71.9094 11.32C71.9307 11.0427 71.9414 10.8187 71.9414 10.648C71.9414 10.5947 71.968 10.568 72.0214 10.568C72.0854 10.568 72.1174 10.5947 72.1174 10.648C72.1174 10.7547 72.1707 10.8347 72.2774 10.888C72.384 10.9307 72.5014 10.9627 72.6294 10.984C72.768 10.9947 72.8854 11 72.9814 11C73.8987 11.032 74.9707 11.048 76.1974 11.048C76.9547 11.048 77.552 11.0427 77.9894 11.032C78.4374 11.0107 78.8694 11 79.2854 11C79.648 11 79.9254 10.9787 80.1174 10.936C80.32 10.8827 80.448 10.7707 80.5014 10.6C80.512 10.5573 80.544 10.536 80.5974 10.536C80.6507 10.536 80.6774 10.5573 80.6774 10.6C80.6667 10.76 80.6507 10.9787 80.6294 11.256C80.608 11.5333 80.592 11.8213 80.5814 12.12C80.5707 12.4187 80.56 12.696 80.5494 12.952C80.5387 13.208 80.5334 13.4053 80.5334 13.544C80.5334 13.5653 80.5014 13.576 80.4374 13.576C80.3734 13.576 80.3414 13.5653 80.3414 13.544C80.3094 12.712 80.1387 12.1307 79.8294 11.8C79.52 11.4587 79.008 11.288 78.2934 11.288C77.8454 11.288 77.5094 11.3093 77.2854 11.352C77.0614 11.3947 76.912 11.4907 76.8374 11.64C76.7734 11.7787 76.7414 12.008 76.7414 12.328V19.704C76.7414 20.0133 76.7787 20.248 76.8534 20.408C76.928 20.568 77.072 20.6747 77.2854 20.728C77.5094 20.7813 77.8454 20.808 78.2934 20.808C78.3254 20.808 78.3414 20.84 78.3414 20.904C78.3414 20.968 78.3254 21 78.2934 21C78.016 21 77.7014 20.9947 77.3494 20.984C76.9974 20.9733 76.6134 20.968 76.1974 20.968C75.8027 20.968 75.4294 20.9733 75.0774 20.984C74.7254 20.9947 74.4054 21 74.1174 21C74.096 21 74.0854 20.968 74.0854 20.904C74.0854 20.84 74.096 20.808 74.1174 20.808C74.5547 20.808 74.8854 20.7813 75.1094 20.728C75.344 20.6747 75.4987 20.568 75.5734 20.408C75.648 20.248 75.6854 20.0133 75.6854 19.704V12.296C75.6854 11.976 75.648 11.7467 75.5734 11.608C75.4987 11.4587 75.3494 11.368 75.1254 11.336C74.9014 11.304 74.5654 11.288 74.1174 11.288ZM86.146 21.064C85.9647 21.064 85.7353 21.0533 85.458 21.032C85.1913 21.0213 84.914 21.0107 84.626 21C84.338 20.9787 84.0713 20.968 83.826 20.968C83.4847 20.968 83.1487 20.9733 82.818 20.984C82.498 20.9947 82.2047 21 81.938 21C81.9167 21 81.906 20.968 81.906 20.904C81.906 20.84 81.9167 20.808 81.938 20.808C82.3327 20.808 82.626 20.7813 82.818 20.728C83.0207 20.6747 83.1593 20.5733 83.234 20.424C83.3087 20.264 83.346 20.024 83.346 19.704V12.296C83.346 11.976 83.3087 11.7413 83.234 11.592C83.17 11.4427 83.042 11.3413 82.85 11.288C82.658 11.224 82.3647 11.192 81.97 11.192C81.938 11.192 81.922 11.16 81.922 11.096C81.922 11.032 81.938 11 81.97 11C82.226 11 82.5087 11.0107 82.818 11.032C83.1273 11.0427 83.4633 11.048 83.826 11.048C84.21 11.048 84.5673 11.0427 84.898 11.032C85.2287 11.0107 85.5167 11 85.762 11C85.794 11 85.81 11.032 85.81 11.096C85.81 11.16 85.794 11.192 85.762 11.192C85.3673 11.192 85.0687 11.224 84.866 11.288C84.674 11.352 84.5407 11.464 84.466 11.624C84.402 11.7733 84.37 12.008 84.37 12.328V19.704C84.37 19.928 84.402 20.12 84.466 20.28C84.5407 20.44 84.6793 20.5627 84.882 20.648C85.0953 20.7333 85.41 20.776 85.826 20.776C86.7007 20.776 87.3247 20.5787 87.698 20.184C88.0713 19.7787 88.258 19.1707 88.258 18.36C88.258 17.688 88.1567 17.1547 87.954 16.76C87.7513 16.3653 87.4633 16.088 87.09 15.928C86.7167 15.7573 86.274 15.672 85.762 15.672C85.4633 15.672 85.1593 15.6987 84.85 15.752C84.5407 15.7947 84.2367 15.8587 83.938 15.944L83.906 15.624C84.2687 15.5387 84.6367 15.4747 85.01 15.432C85.3833 15.3787 85.7673 15.352 86.162 15.352C86.7807 15.352 87.33 15.4373 87.81 15.608C88.3007 15.768 88.6847 16.04 88.962 16.424C89.2393 16.7973 89.378 17.3147 89.378 17.976C89.378 18.584 89.2393 19.1227 88.962 19.592C88.6953 20.0507 88.3167 20.4133 87.826 20.68C87.346 20.936 86.786 21.064 86.146 21.064ZM96.5931 10.824C97.0838 10.824 97.5905 10.872 98.1131 10.968C98.6465 11.064 99.0731 11.2027 99.3931 11.384C99.4891 11.4373 99.5478 11.4853 99.5691 11.528C99.6011 11.5707 99.6225 11.6507 99.6331 11.768L99.8091 13.56C99.8091 13.5813 99.7825 13.6027 99.7291 13.624C99.6758 13.6347 99.6438 13.6187 99.6331 13.576C99.3878 12.712 98.9398 12.0987 98.2891 11.736C97.6385 11.3627 96.8651 11.176 95.9691 11.176C95.1478 11.176 94.4331 11.3573 93.8251 11.72C93.2278 12.072 92.7638 12.5733 92.4331 13.224C92.1025 13.864 91.9371 14.616 91.9371 15.48C91.9371 16.2373 92.0545 16.952 92.2891 17.624C92.5238 18.2853 92.8491 18.8667 93.2651 19.368C93.6918 19.8693 94.1771 20.264 94.7211 20.552C95.2758 20.8293 95.8625 20.968 96.4811 20.968C97.2278 20.968 97.8838 20.7653 98.4491 20.36C99.0251 19.944 99.4678 19.288 99.7771 18.392C99.7878 18.3493 99.8198 18.3387 99.8731 18.36C99.9371 18.3707 99.9691 18.3867 99.9691 18.408L99.7451 20.216C99.7238 20.344 99.6971 20.4293 99.6651 20.472C99.6438 20.504 99.5851 20.5413 99.4891 20.584C98.9771 20.7973 98.4705 20.952 97.9691 21.048C97.4678 21.144 96.9611 21.192 96.4491 21.192C95.4358 21.192 94.5665 21.0373 93.8411 20.728C93.1158 20.408 92.5238 19.992 92.0651 19.48C91.6065 18.9573 91.2705 18.3867 91.0571 17.768C90.8438 17.1387 90.7371 16.52 90.7371 15.912C90.7371 15.144 90.8971 14.4507 91.2171 13.832C91.5371 13.2133 91.9745 12.68 92.5291 12.232C93.0838 11.784 93.7078 11.4373 94.4011 11.192C95.1051 10.9467 95.8358 10.824 96.5931 10.824ZM109.584 20.808C109.606 20.808 109.616 20.84 109.616 20.904C109.616 20.968 109.606 21 109.584 21C109.318 21 109.019 20.9947 108.688 20.984C108.368 20.9733 108.032 20.968 107.68 20.968C107.307 20.968 106.96 20.9733 106.64 20.984C106.331 20.9947 106.043 21 105.776 21C105.755 21 105.744 20.968 105.744 20.904C105.744 20.84 105.755 20.808 105.776 20.808C106.182 20.808 106.48 20.7813 106.672 20.728C106.864 20.6747 106.992 20.568 107.056 20.408C107.12 20.248 107.152 20.0133 107.152 19.704V15.736L107.44 15.816C107.142 15.816 106.875 15.8427 106.64 15.896C106.406 15.9493 106.176 16.0613 105.952 16.232C105.739 16.392 105.51 16.6373 105.264 16.968C105.019 17.2987 104.731 17.7467 104.4 18.312C103.995 19.0267 103.664 19.5707 103.408 19.944C103.163 20.3173 102.966 20.5787 102.816 20.728C102.678 20.8773 102.56 20.9627 102.464 20.984C102.379 20.9947 102.288 21 102.192 21H100.544C100.512 21 100.496 20.968 100.496 20.904C100.496 20.84 100.512 20.808 100.544 20.808C100.95 20.7973 101.302 20.6907 101.6 20.488C101.899 20.2747 102.192 19.96 102.48 19.544C102.779 19.128 103.104 18.6107 103.456 17.992C103.776 17.4267 104.075 16.9893 104.352 16.68C104.63 16.36 104.923 16.1307 105.232 15.992C105.552 15.8533 105.904 15.768 106.288 15.736L106.4 15.848C105.248 15.8373 104.379 15.6133 103.792 15.176C103.206 14.7387 102.912 14.152 102.912 13.416C102.912 12.9253 103.035 12.4987 103.28 12.136C103.536 11.7627 103.883 11.4747 104.32 11.272C104.768 11.0587 105.27 10.952 105.824 10.952C106.048 10.952 106.347 10.968 106.72 11C107.094 11.032 107.414 11.048 107.68 11.048C108.032 11.048 108.368 11.0427 108.688 11.032C109.008 11.0107 109.302 11 109.568 11C109.59 11 109.6 11.032 109.6 11.096C109.6 11.16 109.59 11.192 109.568 11.192C109.174 11.192 108.875 11.224 108.672 11.288C108.48 11.3413 108.347 11.448 108.272 11.608C108.208 11.7573 108.176 11.9867 108.176 12.296V19.704C108.176 20.0133 108.208 20.248 108.272 20.408C108.347 20.568 108.486 20.6747 108.688 20.728C108.891 20.7813 109.19 20.808 109.584 20.808ZM103.984 13.016C103.984 13.7627 104.198 14.3813 104.624 14.872C105.062 15.352 105.707 15.592 106.56 15.592C106.699 15.592 106.859 15.5867 107.04 15.576C107.222 15.5547 107.366 15.528 107.472 15.496L107.152 15.608V12.328C107.152 12.0187 107.083 11.7787 106.944 11.608C106.816 11.4373 106.646 11.32 106.432 11.256C106.23 11.192 106.022 11.16 105.808 11.16C104.592 11.16 103.984 11.7787 103.984 13.016Z" fill="#282828"/>
</svg>
