<svg width="133" height="35" viewBox="0 0 133 35" fill="none" xmlns="http://www.w3.org/2000/svg">
<path d="M0 5C0 2.23858 2.23858 0 5 0H128C130.761 0 133 2.23858 133 5V30C133 32.7614 130.761 35 128 35H5C2.23857 35 0 32.7614 0 30V5Z" fill="#D9D9D9"/>
<g filter="url(#filter0_d_134_3)">
<path d="M30.4838 13.824C30.9744 13.824 31.4811 13.872 32.0038 13.968C32.5371 14.064 32.9638 14.2027 33.2838 14.384C33.3798 14.4373 33.4384 14.4853 33.4598 14.528C33.4918 14.5707 33.5131 14.6507 33.5238 14.768L33.6998 16.56C33.6998 16.5813 33.6731 16.6027 33.6198 16.624C33.5664 16.6347 33.5344 16.6187 33.5238 16.576C33.2784 15.712 32.8304 15.0987 32.1798 14.736C31.5291 14.3627 30.7558 14.176 29.8598 14.176C29.0384 14.176 28.3238 14.3573 27.7158 14.72C27.1184 15.072 26.6544 15.5733 26.3238 16.224C25.9931 16.864 25.8278 17.616 25.8278 18.48C25.8278 19.2373 25.9451 19.952 26.1798 20.624C26.4144 21.2853 26.7398 21.8667 27.1558 22.368C27.5824 22.8693 28.0678 23.264 28.6118 23.552C29.1664 23.8293 29.7531 23.968 30.3718 23.968C31.1184 23.968 31.7744 23.7653 32.3398 23.36C32.9158 22.944 33.3584 22.288 33.6678 21.392C33.6784 21.3493 33.7104 21.3387 33.7638 21.36C33.8278 21.3707 33.8598 21.3867 33.8598 21.408L33.6358 23.216C33.6144 23.344 33.5878 23.4293 33.5558 23.472C33.5344 23.504 33.4758 23.5413 33.3798 23.584C32.8678 23.7973 32.3611 23.952 31.8598 24.048C31.3584 24.144 30.8518 24.192 30.3398 24.192C29.3264 24.192 28.4571 24.0373 27.7318 23.728C27.0064 23.408 26.4144 22.992 25.9557 22.48C25.4971 21.9573 25.1611 21.3867 24.9478 20.768C24.7344 20.1387 24.6278 19.52 24.6278 18.912C24.6278 18.144 24.7878 17.4507 25.1078 16.832C25.4278 16.2133 25.8651 15.68 26.4198 15.232C26.9744 14.784 27.5984 14.4373 28.2918 14.192C28.9958 13.9467 29.7264 13.824 30.4838 13.824ZM39.3469 18.528L39.5229 18.352C40.1522 18.352 40.7015 18.4693 41.1709 18.704C41.6509 18.9387 42.0189 19.2587 42.2749 19.664C42.5415 20.0693 42.6749 20.5333 42.6749 21.056C42.6749 21.6213 42.5362 22.1333 42.2589 22.592C41.9815 23.0507 41.5975 23.4133 41.1069 23.68C40.6269 23.936 40.0882 24.064 39.4909 24.064C39.1495 24.064 38.7602 24.048 38.3229 24.016C37.8962 23.984 37.5015 23.968 37.1389 23.968C36.7869 23.968 36.4455 23.9733 36.1149 23.984C35.7949 23.9947 35.5015 24 35.2349 24C35.2135 24 35.2029 23.968 35.2029 23.904C35.2029 23.84 35.2135 23.808 35.2349 23.808C35.6189 23.808 35.9122 23.7813 36.1149 23.728C36.3175 23.6747 36.4562 23.568 36.5309 23.408C36.6055 23.248 36.6429 23.0133 36.6429 22.704V15.296C36.6429 14.9867 36.6055 14.7573 36.5309 14.608C36.4669 14.448 36.3335 14.3413 36.1309 14.288C35.9389 14.224 35.6509 14.192 35.2669 14.192C35.2349 14.192 35.2189 14.16 35.2189 14.096C35.2189 14.032 35.2349 14 35.2669 14C35.5229 14 35.8109 14.0107 36.1309 14.032C36.4509 14.0427 36.7869 14.048 37.1389 14.048C37.4162 14.048 37.7362 14.032 38.0989 14C38.4615 13.968 38.7709 13.952 39.0269 13.952C39.6562 13.952 40.1682 14.048 40.5629 14.24C40.9575 14.4213 41.2455 14.672 41.4269 14.992C41.6189 15.312 41.7149 15.6693 41.7149 16.064C41.7149 16.672 41.4909 17.1893 41.0429 17.616C40.6055 18.0427 40.0402 18.3467 39.3469 18.528ZM38.6749 14.192C38.4295 14.192 38.2322 14.2133 38.0829 14.256C37.9335 14.2987 37.8269 14.4 37.7629 14.56C37.6989 14.7093 37.6669 14.9653 37.6669 15.328V18.464L37.1549 18.336C37.4962 18.3573 37.7789 18.3733 38.0029 18.384C38.2269 18.384 38.3549 18.384 38.3869 18.384C39.2082 18.384 39.7949 18.176 40.1469 17.76C40.4989 17.3333 40.6749 16.8107 40.6749 16.192C40.6749 15.8187 40.6055 15.4827 40.4669 15.184C40.3389 14.8747 40.1309 14.6347 39.8429 14.464C39.5549 14.2827 39.1655 14.192 38.6749 14.192ZM39.2509 23.776C40.0509 23.776 40.6322 23.5733 40.9949 23.168C41.3682 22.752 41.5549 22.1813 41.5549 21.456C41.5549 20.656 41.3202 20 40.8509 19.488C40.3815 18.976 39.7255 18.72 38.8829 18.72C38.6162 18.7093 38.3389 18.7093 38.0509 18.72C37.7735 18.7307 37.4909 18.7573 37.2029 18.8L37.6669 18.624V22.704C37.6669 22.96 37.7042 23.168 37.7789 23.328C37.8535 23.488 38.0029 23.6053 38.2269 23.68C38.4615 23.744 38.8029 23.776 39.2509 23.776ZM52.3968 23.808C52.4181 23.808 52.4288 23.84 52.4288 23.904C52.4288 23.968 52.4181 24 52.3968 24C52.1301 24 51.8314 23.9947 51.5008 23.984C51.1808 23.9733 50.8448 23.968 50.4928 23.968C50.1194 23.968 49.7728 23.9733 49.4528 23.984C49.1434 23.9947 48.8554 24 48.5888 24C48.5674 24 48.5568 23.968 48.5568 23.904C48.5568 23.84 48.5674 23.808 48.5888 23.808C48.9941 23.808 49.2928 23.7813 49.4848 23.728C49.6768 23.6747 49.8048 23.568 49.8688 23.408C49.9328 23.248 49.9648 23.0133 49.9648 22.704V18.736L50.2528 18.816C49.9541 18.816 49.6874 18.8427 49.4528 18.896C49.2181 18.9493 48.9888 19.0613 48.7648 19.232C48.5514 19.392 48.3221 19.6373 48.0768 19.968C47.8314 20.2987 47.5434 20.7467 47.2128 21.312C46.8074 22.0267 46.4768 22.5707 46.2208 22.944C45.9754 23.3173 45.7781 23.5787 45.6288 23.728C45.4901 23.8773 45.3728 23.9627 45.2768 23.984C45.1914 23.9947 45.1008 24 45.0048 24H43.3567C43.3247 24 43.3087 23.968 43.3087 23.904C43.3087 23.84 43.3247 23.808 43.3567 23.808C43.7621 23.7973 44.1141 23.6907 44.4128 23.488C44.7114 23.2747 45.0048 22.96 45.2928 22.544C45.5914 22.128 45.9168 21.6107 46.2688 20.992C46.5888 20.4267 46.8874 19.9893 47.1648 19.68C47.4421 19.36 47.7354 19.1307 48.0448 18.992C48.3648 18.8533 48.7168 18.768 49.1008 18.736L49.2128 18.848C48.0608 18.8373 47.1914 18.6133 46.6048 18.176C46.0181 17.7387 45.7248 17.152 45.7248 16.416C45.7248 15.9253 45.8474 15.4987 46.0928 15.136C46.3488 14.7627 46.6954 14.4747 47.1328 14.272C47.5808 14.0587 48.0821 13.952 48.6368 13.952C48.8608 13.952 49.1594 13.968 49.5328 14C49.9061 14.032 50.2261 14.048 50.4928 14.048C50.8448 14.048 51.1808 14.0427 51.5008 14.032C51.8208 14.0107 52.1141 14 52.3808 14C52.4021 14 52.4128 14.032 52.4128 14.096C52.4128 14.16 52.4021 14.192 52.3808 14.192C51.9861 14.192 51.6874 14.224 51.4848 14.288C51.2928 14.3413 51.1594 14.448 51.0848 14.608C51.0208 14.7573 50.9888 14.9867 50.9888 15.296V22.704C50.9888 23.0133 51.0208 23.248 51.0848 23.408C51.1594 23.568 51.2981 23.6747 51.5008 23.728C51.7034 23.7813 52.0021 23.808 52.3968 23.808ZM46.7968 16.016C46.7968 16.7627 47.0101 17.3813 47.4368 17.872C47.8741 18.352 48.5194 18.592 49.3728 18.592C49.5114 18.592 49.6714 18.5867 49.8528 18.576C50.0341 18.5547 50.1781 18.528 50.2848 18.496L49.9648 18.608V15.328C49.9648 15.0187 49.8954 14.7787 49.7568 14.608C49.6288 14.4373 49.4581 14.32 49.2448 14.256C49.0421 14.192 48.8341 14.16 48.6208 14.16C47.4048 14.16 46.7968 14.7787 46.7968 16.016ZM56.9048 23.936C57.4168 23.936 57.8221 23.8187 58.1208 23.584C58.4301 23.3387 58.6541 23.024 58.7928 22.64C58.9421 22.256 59.0168 21.8507 59.0168 21.424C59.0168 20.5493 58.7661 19.8933 58.2648 19.456C57.7741 19.0187 57.0808 18.8 56.1848 18.8C56.1421 18.8 56.1208 18.768 56.1208 18.704C56.1208 18.64 56.1421 18.608 56.1848 18.608C57.0488 18.608 57.6834 18.4 58.0888 17.984C58.4941 17.568 58.6968 17.0187 58.6968 16.336C58.6968 15.632 58.5154 15.072 58.1528 14.656C57.8008 14.24 57.3368 14.032 56.7608 14.032C56.4088 14.032 56.0728 14.1227 55.7528 14.304C55.4328 14.4747 55.1501 14.7413 54.9048 15.104C54.6594 15.456 54.4621 15.9093 54.3128 16.464C54.3021 16.496 54.2701 16.5067 54.2168 16.496C54.1634 16.4853 54.1368 16.464 54.1368 16.432L54.3608 14.624C54.3821 14.496 54.4034 14.4107 54.4248 14.368C54.4461 14.3253 54.5048 14.288 54.6008 14.256C55.0381 14.1067 55.4541 14 55.8488 13.936C56.2541 13.8613 56.6274 13.824 56.9688 13.824C57.5981 13.824 58.1208 13.9253 58.5368 14.128C58.9528 14.3307 59.2621 14.5973 59.4648 14.928C59.6674 15.2587 59.7688 15.616 59.7688 16C59.7688 16.3733 59.6834 16.72 59.5128 17.04C59.3528 17.36 59.1394 17.6427 58.8728 17.888C58.6168 18.1333 58.3341 18.3307 58.0248 18.48C57.7261 18.6293 57.4434 18.7147 57.1768 18.736L57.4008 18.608C57.9448 18.608 58.4248 18.7147 58.8408 18.928C59.2674 19.1307 59.5981 19.424 59.8328 19.808C60.0781 20.1813 60.2008 20.624 60.2008 21.136C60.2008 21.7333 60.0354 22.2613 59.7048 22.72C59.3848 23.1787 58.9528 23.5413 58.4088 23.808C57.8648 24.064 57.2514 24.192 56.5688 24.192C56.1634 24.192 55.7421 24.1387 55.3048 24.032C54.8781 23.936 54.5421 23.7867 54.2968 23.584C54.2008 23.5307 54.1421 23.4827 54.1208 23.44C54.0994 23.3973 54.0834 23.3227 54.0728 23.216L53.8808 21.44C53.8808 21.408 53.9074 21.3867 53.9608 21.376C54.0248 21.3653 54.0621 21.376 54.0728 21.408C54.1794 22.0373 54.3874 22.5387 54.6968 22.912C55.0061 23.2747 55.3581 23.536 55.7528 23.696C56.1474 23.856 56.5314 23.936 56.9048 23.936ZM64.408 18.704L64.648 18.368H67.944L68.056 18.704H64.408ZM72.184 23.808C72.2267 23.808 72.248 23.84 72.248 23.904C72.248 23.968 72.2267 24 72.184 24C71.8747 24 71.56 23.9893 71.24 23.968C70.92 23.9467 70.6107 23.936 70.312 23.936C69.9813 23.936 69.6933 23.9467 69.448 23.968C69.2027 23.9893 68.9307 24 68.632 24C68.5893 24 68.568 23.968 68.568 23.904C68.568 23.84 68.5893 23.808 68.632 23.808C69.1973 23.808 69.5493 23.728 69.688 23.568C69.8267 23.3973 69.7893 23.0827 69.576 22.624L66.024 15.12L66.424 14.624L63.32 21.968C63.0533 22.6187 63.0373 23.088 63.272 23.376C63.5067 23.664 63.9707 23.808 64.664 23.808C64.7173 23.808 64.744 23.84 64.744 23.904C64.744 23.968 64.7173 24 64.664 24C64.344 24 64.0507 23.9893 63.784 23.968C63.5173 23.9467 63.1813 23.936 62.776 23.936C62.392 23.936 62.0827 23.9467 61.848 23.968C61.624 23.9893 61.3467 24 61.016 24C60.9733 24 60.952 23.968 60.952 23.904C60.952 23.84 60.9733 23.808 61.016 23.808C61.304 23.808 61.5547 23.7547 61.768 23.648C61.9813 23.5307 62.1787 23.3333 62.36 23.056C62.552 22.768 62.76 22.3573 62.984 21.824L66.36 13.856C66.3813 13.824 66.4187 13.808 66.472 13.808C66.5253 13.808 66.5573 13.824 66.568 13.856L70.344 21.808C70.5893 22.3307 70.808 22.7413 71 23.04C71.192 23.328 71.3787 23.5307 71.56 23.648C71.752 23.7547 71.96 23.808 72.184 23.808ZM74.1174 14.288C73.456 14.288 72.9547 14.4587 72.6134 14.8C72.2827 15.1413 72.0427 15.7227 71.8934 16.544C71.8934 16.5653 71.8614 16.576 71.7974 16.576C71.744 16.576 71.7174 16.5653 71.7174 16.544C71.7387 16.4053 71.76 16.2133 71.7814 15.968C71.8027 15.712 71.824 15.44 71.8454 15.152C71.8774 14.864 71.8987 14.5867 71.9094 14.32C71.9307 14.0427 71.9414 13.8187 71.9414 13.648C71.9414 13.5947 71.968 13.568 72.0214 13.568C72.0854 13.568 72.1174 13.5947 72.1174 13.648C72.1174 13.7547 72.1707 13.8347 72.2774 13.888C72.384 13.9307 72.5014 13.9627 72.6294 13.984C72.768 13.9947 72.8854 14 72.9814 14C73.8987 14.032 74.9707 14.048 76.1974 14.048C76.9547 14.048 77.552 14.0427 77.9894 14.032C78.4374 14.0107 78.8694 14 79.2854 14C79.648 14 79.9254 13.9787 80.1174 13.936C80.32 13.8827 80.448 13.7707 80.5014 13.6C80.512 13.5573 80.544 13.536 80.5974 13.536C80.6507 13.536 80.6774 13.5573 80.6774 13.6C80.6667 13.76 80.6507 13.9787 80.6294 14.256C80.608 14.5333 80.592 14.8213 80.5814 15.12C80.5707 15.4187 80.56 15.696 80.5494 15.952C80.5387 16.208 80.5334 16.4053 80.5334 16.544C80.5334 16.5653 80.5014 16.576 80.4374 16.576C80.3734 16.576 80.3414 16.5653 80.3414 16.544C80.3094 15.712 80.1387 15.1307 79.8294 14.8C79.52 14.4587 79.008 14.288 78.2934 14.288C77.8454 14.288 77.5094 14.3093 77.2854 14.352C77.0614 14.3947 76.912 14.4907 76.8374 14.64C76.7734 14.7787 76.7414 15.008 76.7414 15.328V22.704C76.7414 23.0133 76.7787 23.248 76.8534 23.408C76.928 23.568 77.072 23.6747 77.2854 23.728C77.5094 23.7813 77.8454 23.808 78.2934 23.808C78.3254 23.808 78.3414 23.84 78.3414 23.904C78.3414 23.968 78.3254 24 78.2934 24C78.016 24 77.7014 23.9947 77.3494 23.984C76.9974 23.9733 76.6134 23.968 76.1974 23.968C75.8027 23.968 75.4294 23.9733 75.0774 23.984C74.7254 23.9947 74.4054 24 74.1174 24C74.096 24 74.0854 23.968 74.0854 23.904C74.0854 23.84 74.096 23.808 74.1174 23.808C74.5547 23.808 74.8854 23.7813 75.1094 23.728C75.344 23.6747 75.4987 23.568 75.5734 23.408C75.648 23.248 75.6854 23.0133 75.6854 22.704V15.296C75.6854 14.976 75.648 14.7467 75.5734 14.608C75.4987 14.4587 75.3494 14.368 75.1254 14.336C74.9014 14.304 74.5654 14.288 74.1174 14.288ZM86.146 24.064C85.9647 24.064 85.7353 24.0533 85.458 24.032C85.1913 24.0213 84.914 24.0107 84.626 24C84.338 23.9787 84.0713 23.968 83.826 23.968C83.4847 23.968 83.1487 23.9733 82.818 23.984C82.498 23.9947 82.2047 24 81.938 24C81.9167 24 81.906 23.968 81.906 23.904C81.906 23.84 81.9167 23.808 81.938 23.808C82.3327 23.808 82.626 23.7813 82.818 23.728C83.0207 23.6747 83.1593 23.5733 83.234 23.424C83.3087 23.264 83.346 23.024 83.346 22.704V15.296C83.346 14.976 83.3087 14.7413 83.234 14.592C83.17 14.4427 83.042 14.3413 82.85 14.288C82.658 14.224 82.3647 14.192 81.97 14.192C81.938 14.192 81.922 14.16 81.922 14.096C81.922 14.032 81.938 14 81.97 14C82.226 14 82.5087 14.0107 82.818 14.032C83.1273 14.0427 83.4633 14.048 83.826 14.048C84.21 14.048 84.5673 14.0427 84.898 14.032C85.2287 14.0107 85.5167 14 85.762 14C85.794 14 85.81 14.032 85.81 14.096C85.81 14.16 85.794 14.192 85.762 14.192C85.3673 14.192 85.0687 14.224 84.866 14.288C84.674 14.352 84.5407 14.464 84.466 14.624C84.402 14.7733 84.37 15.008 84.37 15.328V22.704C84.37 22.928 84.402 23.12 84.466 23.28C84.5407 23.44 84.6793 23.5627 84.882 23.648C85.0953 23.7333 85.41 23.776 85.826 23.776C86.7007 23.776 87.3247 23.5787 87.698 23.184C88.0713 22.7787 88.258 22.1707 88.258 21.36C88.258 20.688 88.1567 20.1547 87.954 19.76C87.7513 19.3653 87.4633 19.088 87.09 18.928C86.7167 18.7573 86.274 18.672 85.762 18.672C85.4633 18.672 85.1593 18.6987 84.85 18.752C84.5407 18.7947 84.2367 18.8587 83.938 18.944L83.906 18.624C84.2687 18.5387 84.6367 18.4747 85.01 18.432C85.3833 18.3787 85.7673 18.352 86.162 18.352C86.7807 18.352 87.33 18.4373 87.81 18.608C88.3007 18.768 88.6847 19.04 88.962 19.424C89.2393 19.7973 89.378 20.3147 89.378 20.976C89.378 21.584 89.2393 22.1227 88.962 22.592C88.6953 23.0507 88.3167 23.4133 87.826 23.68C87.346 23.936 86.786 24.064 86.146 24.064ZM96.5931 13.824C97.0838 13.824 97.5905 13.872 98.1131 13.968C98.6465 14.064 99.0731 14.2027 99.3931 14.384C99.4891 14.4373 99.5478 14.4853 99.5691 14.528C99.6011 14.5707 99.6225 14.6507 99.6331 14.768L99.8091 16.56C99.8091 16.5813 99.7825 16.6027 99.7291 16.624C99.6758 16.6347 99.6438 16.6187 99.6331 16.576C99.3878 15.712 98.9398 15.0987 98.2891 14.736C97.6385 14.3627 96.8651 14.176 95.9691 14.176C95.1478 14.176 94.4331 14.3573 93.8251 14.72C93.2278 15.072 92.7638 15.5733 92.4331 16.224C92.1025 16.864 91.9371 17.616 91.9371 18.48C91.9371 19.2373 92.0545 19.952 92.2891 20.624C92.5238 21.2853 92.8491 21.8667 93.2651 22.368C93.6918 22.8693 94.1771 23.264 94.7211 23.552C95.2758 23.8293 95.8625 23.968 96.4811 23.968C97.2278 23.968 97.8838 23.7653 98.4491 23.36C99.0251 22.944 99.4678 22.288 99.7771 21.392C99.7878 21.3493 99.8198 21.3387 99.8731 21.36C99.9371 21.3707 99.9691 21.3867 99.9691 21.408L99.7451 23.216C99.7238 23.344 99.6971 23.4293 99.6651 23.472C99.6438 23.504 99.5851 23.5413 99.4891 23.584C98.9771 23.7973 98.4705 23.952 97.9691 24.048C97.4678 24.144 96.9611 24.192 96.4491 24.192C95.4358 24.192 94.5665 24.0373 93.8411 23.728C93.1158 23.408 92.5238 22.992 92.0651 22.48C91.6065 21.9573 91.2705 21.3867 91.0571 20.768C90.8438 20.1387 90.7371 19.52 90.7371 18.912C90.7371 18.144 90.8971 17.4507 91.2171 16.832C91.5371 16.2133 91.9745 15.68 92.5291 15.232C93.0838 14.784 93.7078 14.4373 94.4011 14.192C95.1051 13.9467 95.8358 13.824 96.5931 13.824ZM109.584 23.808C109.606 23.808 109.616 23.84 109.616 23.904C109.616 23.968 109.606 24 109.584 24C109.318 24 109.019 23.9947 108.688 23.984C108.368 23.9733 108.032 23.968 107.68 23.968C107.307 23.968 106.96 23.9733 106.64 23.984C106.331 23.9947 106.043 24 105.776 24C105.755 24 105.744 23.968 105.744 23.904C105.744 23.84 105.755 23.808 105.776 23.808C106.182 23.808 106.48 23.7813 106.672 23.728C106.864 23.6747 106.992 23.568 107.056 23.408C107.12 23.248 107.152 23.0133 107.152 22.704V18.736L107.44 18.816C107.142 18.816 106.875 18.8427 106.64 18.896C106.406 18.9493 106.176 19.0613 105.952 19.232C105.739 19.392 105.51 19.6373 105.264 19.968C105.019 20.2987 104.731 20.7467 104.4 21.312C103.995 22.0267 103.664 22.5707 103.408 22.944C103.163 23.3173 102.966 23.5787 102.816 23.728C102.678 23.8773 102.56 23.9627 102.464 23.984C102.379 23.9947 102.288 24 102.192 24H100.544C100.512 24 100.496 23.968 100.496 23.904C100.496 23.84 100.512 23.808 100.544 23.808C100.95 23.7973 101.302 23.6907 101.6 23.488C101.899 23.2747 102.192 22.96 102.48 22.544C102.779 22.128 103.104 21.6107 103.456 20.992C103.776 20.4267 104.075 19.9893 104.352 19.68C104.63 19.36 104.923 19.1307 105.232 18.992C105.552 18.8533 105.904 18.768 106.288 18.736L106.4 18.848C105.248 18.8373 104.379 18.6133 103.792 18.176C103.206 17.7387 102.912 17.152 102.912 16.416C102.912 15.9253 103.035 15.4987 103.28 15.136C103.536 14.7627 103.883 14.4747 104.32 14.272C104.768 14.0587 105.27 13.952 105.824 13.952C106.048 13.952 106.347 13.968 106.72 14C107.094 14.032 107.414 14.048 107.68 14.048C108.032 14.048 108.368 14.0427 108.688 14.032C109.008 14.0107 109.302 14 109.568 14C109.59 14 109.6 14.032 109.6 14.096C109.6 14.16 109.59 14.192 109.568 14.192C109.174 14.192 108.875 14.224 108.672 14.288C108.48 14.3413 108.347 14.448 108.272 14.608C108.208 14.7573 108.176 14.9867 108.176 15.296V22.704C108.176 23.0133 108.208 23.248 108.272 23.408C108.347 23.568 108.486 23.6747 108.688 23.728C108.891 23.7813 109.19 23.808 109.584 23.808ZM103.984 16.016C103.984 16.7627 104.198 17.3813 104.624 17.872C105.062 18.352 105.707 18.592 106.56 18.592C106.699 18.592 106.859 18.5867 107.04 18.576C107.222 18.5547 107.366 18.528 107.472 18.496L107.152 18.608V15.328C107.152 15.0187 107.083 14.7787 106.944 14.608C106.816 14.4373 106.646 14.32 106.432 14.256C106.23 14.192 106.022 14.16 105.808 14.16C104.592 14.16 103.984 14.7787 103.984 16.016Z" fill="#282828"/>
</g>
<defs>
<filter id="filter0_d_134_3" x="20.6277" y="13.5359" width="92.9885" height="18.656" filterUnits="userSpaceOnUse" color-interpolation-filters="sRGB">
<feFlood flood-opacity="0" result="BackgroundImageFix"/>
<feColorMatrix in="SourceAlpha" type="matrix" values="0 0 0 0 0 0 0 0 0 0 0 0 0 0 0 0 0 0 127 0" result="hardAlpha"/>
<feOffset dy="4"/>
<feGaussianBlur stdDeviation="2"/>
<feComposite in2="hardAlpha" operator="out"/>
<feColorMatrix type="matrix" values="0 0 0 0 0 0 0 0 0 0 0 0 0 0 0 0 0 0 0.25 0"/>
<feBlend mode="normal" in2="BackgroundImageFix" result="effect1_dropShadow_134_3"/>
<feBlend mode="normal" in="SourceGraphic" in2="effect1_dropShadow_134_3" result="shape"/>
</filter>
</defs>
</svg>
