<svg width="50" height="48" viewBox="0 0 50 48" fill="none" xmlns="http://www.w3.org/2000/svg">
<path d="M0.518 12.734C1.106 12.2487 1.59133 11.8287 1.974 11.474C2.366 11.11 2.67867 10.7927 2.912 10.522C3.14533 10.242 3.31333 9.98533 3.416 9.752C3.51867 9.51867 3.57 9.28067 3.57 9.038C3.57 8.674 3.46267 8.37067 3.248 8.128C3.04267 7.88533 2.76267 7.764 2.408 7.764C2.03467 7.764 1.722 7.918 1.47 8.226C1.218 8.534 1.00333 8.968 0.826 9.528C0.816667 9.54667 0.784 9.55133 0.728 9.542C0.672 9.53267 0.648667 9.51867 0.658 9.5L1.232 7.288C1.24133 7.26 1.274 7.25533 1.33 7.274C1.386 7.28333 1.40467 7.29733 1.386 7.316C1.34867 7.47467 1.35333 7.57733 1.4 7.624C1.456 7.67067 1.51667 7.694 1.582 7.694C1.73133 7.694 1.92267 7.64733 2.156 7.554C2.38933 7.46067 2.688 7.414 3.052 7.414C3.54667 7.414 3.92933 7.54467 4.2 7.806C4.48 8.058 4.62 8.38467 4.62 8.786C4.62 9.066 4.55 9.33667 4.41 9.598C4.27 9.85933 4.06933 10.1207 3.808 10.382C3.556 10.634 3.25267 10.9 2.898 11.18C2.55267 11.46 2.17467 11.7587 1.764 12.076C1.72667 12.104 1.71733 12.1273 1.736 12.146C1.75467 12.1647 1.78267 12.174 1.82 12.174C2.436 12.174 2.94467 12.1693 3.346 12.16C3.74733 12.1507 4.06467 12.1227 4.298 12.076C4.54067 12.02 4.718 11.936 4.83 11.824C4.95133 11.7027 5.03533 11.5393 5.082 11.334C5.09133 11.306 5.11933 11.2967 5.166 11.306C5.222 11.3153 5.25 11.3293 5.25 11.348L5.012 12.846C5.012 12.8833 4.998 12.9207 4.97 12.958C4.95133 12.986 4.92333 13 4.886 13C4.22333 13 3.51867 13 2.772 13C2.02533 13 1.30667 13 0.616 13C0.569333 13 0.532 12.9673 0.504 12.902C0.476 12.8273 0.480667 12.7713 0.518 12.734ZM13.3381 13.084C13.3007 13.1027 13.2587 13.112 13.2121 13.112C13.0721 13.112 12.9367 13.0093 12.8061 12.804C12.6847 12.5893 12.6241 12.286 12.6241 11.894V9.43C12.6241 9.01933 12.5867 8.69267 12.5121 8.45C12.4467 8.20733 12.3487 8.03467 12.2181 7.932C12.0967 7.82 11.9521 7.764 11.7841 7.764C11.5787 7.764 11.4061 7.81533 11.2661 7.918C11.1261 8.02067 11.0187 8.16067 10.9441 8.338C10.8787 8.506 10.8321 8.69267 10.8041 8.898C10.7854 9.07533 10.7294 9.22467 10.6361 9.346C10.5521 9.458 10.4027 9.514 10.1881 9.514C10.0201 9.514 9.8894 9.472 9.79606 9.388C9.70273 9.304 9.65606 9.18733 9.65606 9.038C9.65606 8.86067 9.74473 8.68333 9.92206 8.506C10.0994 8.31933 10.3234 8.14667 10.5941 7.988C10.8647 7.82933 11.1447 7.70333 11.4341 7.61C11.7327 7.51667 12.0081 7.47 12.2601 7.47C12.6334 7.47 12.9461 7.596 13.1981 7.848C13.4501 8.09067 13.5761 8.478 13.5761 9.01V11.488C13.5761 11.796 13.6181 12.0247 13.7021 12.174C13.7861 12.3233 13.9214 12.398 14.1081 12.398C14.2667 12.398 14.4721 12.3467 14.7241 12.244C14.7614 12.2253 14.7894 12.244 14.8081 12.3C14.8361 12.3467 14.8267 12.3793 14.7801 12.398L13.3381 13.084ZM10.5241 13.098C10.2254 13.098 9.99673 13.0187 9.83806 12.86C9.6794 12.7013 9.60006 12.5007 9.60006 12.258C9.60006 11.9687 9.71206 11.7493 9.93606 11.6C10.1601 11.4507 10.5194 11.292 11.0141 11.124L12.7641 10.522L12.8061 10.69L11.3781 11.236C11.1541 11.32 10.9954 11.4133 10.9021 11.516C10.8087 11.6187 10.7621 11.7493 10.7621 11.908C10.7621 12.104 10.8181 12.258 10.9301 12.37C11.0421 12.482 11.1867 12.538 11.3641 12.538C11.4574 12.538 11.5554 12.524 11.6581 12.496C11.7607 12.468 11.8681 12.4307 11.9801 12.384L13.0441 11.824L13.0581 12.02L11.8541 12.678C11.5834 12.818 11.3407 12.9253 11.1261 13C10.9207 13.0653 10.7201 13.098 10.5241 13.098ZM16.585 7.61C16.8276 7.61 17.0796 7.60533 17.341 7.596C17.6116 7.57733 17.873 7.568 18.125 7.568C18.7036 7.568 19.147 7.65667 19.455 7.834C19.763 8.01133 19.917 8.27733 19.917 8.632C19.917 9.136 19.511 9.64 18.699 10.144L18.517 10.06C18.629 9.92933 18.713 9.78 18.769 9.612C18.8343 9.43467 18.867 9.22467 18.867 8.982C18.867 8.55267 18.7736 8.24933 18.587 8.072C18.4096 7.88533 18.139 7.792 17.775 7.792C17.4856 7.792 17.2896 7.85267 17.187 7.974C17.0936 8.086 17.047 8.34733 17.047 8.758V11.866C17.047 12.1833 17.1123 12.4167 17.243 12.566C17.383 12.706 17.663 12.776 18.083 12.776C18.5496 12.776 18.8903 12.678 19.105 12.482C19.3196 12.2767 19.427 11.9827 19.427 11.6C19.427 11.1987 19.3103 10.872 19.077 10.62C18.853 10.368 18.4703 10.242 17.929 10.242H16.641L16.627 10.004H18.419C19.8096 10.004 20.505 10.4333 20.505 11.292C20.505 11.796 20.2996 12.2113 19.889 12.538C19.4783 12.8647 18.9603 13.028 18.335 13.028C18.111 13.028 17.8263 13.0187 17.481 13C17.145 12.9813 16.8463 12.972 16.585 12.972C16.3423 12.972 16.1043 12.9767 15.871 12.986C15.6376 12.9953 15.4276 13 15.241 13C15.213 13 15.199 12.972 15.199 12.916C15.199 12.86 15.213 12.832 15.241 12.832C15.605 12.832 15.8383 12.7713 15.941 12.65C16.0436 12.5287 16.095 12.2673 16.095 11.866V8.73C16.095 8.31933 16.0436 8.058 15.941 7.946C15.8383 7.82467 15.6096 7.764 15.255 7.764C15.227 7.764 15.213 7.736 15.213 7.68C15.213 7.624 15.227 7.596 15.255 7.596C15.4323 7.596 15.6376 7.60067 15.871 7.61C16.1043 7.61 16.3423 7.61 16.585 7.61ZM25.676 7.596C25.732 7.596 25.7647 7.60533 25.774 7.624C25.7833 7.63333 25.788 7.666 25.788 7.722C25.7787 8.002 25.7647 8.31 25.746 8.646C25.7273 8.97267 25.718 9.22933 25.718 9.416C25.718 9.43467 25.69 9.444 25.634 9.444C25.5873 9.444 25.5593 9.43467 25.55 9.416C25.466 8.828 25.3073 8.41267 25.074 8.17C24.8407 7.92733 24.514 7.806 24.094 7.806C23.7393 7.806 23.5107 7.876 23.408 8.016C23.3053 8.14667 23.254 8.394 23.254 8.758V11.866C23.254 12.2673 23.3007 12.5287 23.394 12.65C23.4967 12.7713 23.73 12.832 24.094 12.832C24.1127 12.832 24.122 12.86 24.122 12.916C24.122 12.972 24.1127 13 24.094 13C23.9073 13 23.702 12.9953 23.478 12.986C23.254 12.9767 23.0253 12.972 22.792 12.972C22.5493 12.972 22.3113 12.9767 22.078 12.986C21.8447 12.9953 21.6347 13 21.448 13C21.42 13 21.406 12.972 21.406 12.916C21.406 12.86 21.42 12.832 21.448 12.832C21.812 12.832 22.0453 12.7713 22.148 12.65C22.2507 12.5287 22.302 12.2673 22.302 11.866V8.73C22.302 8.31933 22.2507 8.058 22.148 7.946C22.0453 7.82467 21.8167 7.764 21.462 7.764C21.434 7.764 21.42 7.736 21.42 7.68C21.42 7.624 21.434 7.596 21.462 7.596H25.676ZM32.2987 7.596C32.3267 7.596 32.3407 7.624 32.3407 7.68C32.3407 7.736 32.3267 7.764 32.2987 7.764C32.0373 7.764 31.8133 7.862 31.6267 8.058C31.4493 8.254 31.286 8.55733 31.1367 8.968L29.4707 13.392C29.1347 14.288 28.8127 14.9927 28.5047 15.506C28.1967 16.0287 27.8793 16.3973 27.5527 16.612C27.226 16.8267 26.8667 16.934 26.4747 16.934C26.26 16.934 26.0827 16.8827 25.9427 16.78C25.7933 16.6867 25.7187 16.542 25.7187 16.346C25.7187 16.178 25.77 16.052 25.8727 15.968C25.9753 15.8933 26.092 15.856 26.2227 15.856C26.4 15.856 26.5353 15.884 26.6287 15.94C26.722 15.996 26.8153 16.052 26.9087 16.108C27.002 16.164 27.1233 16.192 27.2727 16.192C27.4967 16.192 27.7113 16.0893 27.9167 15.884C28.122 15.6787 28.3413 15.3287 28.5747 14.834C28.808 14.3487 29.0787 13.6813 29.3867 12.832L29.3727 13.35L27.1047 8.758C26.8993 8.34733 26.736 8.08133 26.6147 7.96C26.5027 7.82933 26.3627 7.764 26.1947 7.764C26.1667 7.764 26.1527 7.736 26.1527 7.68C26.1527 7.624 26.1667 7.596 26.1947 7.596C26.3533 7.596 26.5213 7.60067 26.6987 7.61C26.876 7.61933 27.044 7.624 27.2027 7.624C27.52 7.624 27.7953 7.61933 28.0287 7.61C28.2713 7.60067 28.4907 7.596 28.6867 7.596C28.7053 7.596 28.7147 7.624 28.7147 7.68C28.7147 7.736 28.7053 7.764 28.6867 7.764C28.3787 7.764 28.1547 7.80133 28.0147 7.876C27.884 7.95067 27.87 8.09533 27.9727 8.31L29.8627 12.16L29.4707 12.818L30.8007 8.996C30.95 8.56667 30.95 8.254 30.8007 8.058C30.6607 7.862 30.362 7.764 29.9047 7.764C29.886 7.764 29.8767 7.736 29.8767 7.68C29.8767 7.624 29.886 7.596 29.9047 7.596C30.1287 7.596 30.3387 7.60067 30.5347 7.61C30.74 7.61933 31.0013 7.624 31.3187 7.624C31.524 7.624 31.692 7.61933 31.8227 7.61C31.9627 7.60067 32.1213 7.596 32.2987 7.596ZM35.5136 13.168C34.8696 13.168 34.3423 13.0327 33.9316 12.762C33.5303 12.482 33.2316 12.132 33.0356 11.712C32.849 11.2827 32.7556 10.8487 32.7556 10.41C32.7556 9.94333 32.849 9.528 33.0356 9.164C33.2223 8.8 33.465 8.492 33.7636 8.24C34.0716 7.988 34.4123 7.79667 34.7856 7.666C35.159 7.53533 35.5276 7.47 35.8916 7.47C36.153 7.47 36.4096 7.50733 36.6616 7.582C36.923 7.65667 37.1376 7.764 37.3056 7.904C37.4736 8.03467 37.5576 8.19333 37.5576 8.38C37.5576 8.51067 37.5063 8.632 37.4036 8.744C37.3103 8.84667 37.1703 8.898 36.9836 8.898C36.8063 8.898 36.6616 8.84667 36.5496 8.744C36.4376 8.64133 36.349 8.51067 36.2836 8.352C36.1996 8.16533 36.097 8.02067 35.9756 7.918C35.8543 7.806 35.663 7.75 35.4016 7.75C34.907 7.75 34.5196 7.95533 34.2396 8.366C33.969 8.77667 33.8336 9.31333 33.8336 9.976C33.8336 10.4427 33.913 10.8813 34.0716 11.292C34.2303 11.6933 34.4776 12.0153 34.8136 12.258C35.1496 12.5007 35.5883 12.622 36.1296 12.622C36.391 12.622 36.6336 12.5893 36.8576 12.524C37.091 12.4493 37.315 12.3373 37.5296 12.188C37.5576 12.1693 37.5856 12.1787 37.6136 12.216C37.651 12.2533 37.6556 12.2813 37.6276 12.3C37.3103 12.5893 36.9836 12.8087 36.6476 12.958C36.3116 13.098 35.9336 13.168 35.5136 13.168ZM39.6862 13C39.6675 13 39.6582 12.972 39.6582 12.916C39.6582 12.86 39.6675 12.832 39.6862 12.832C40.0595 12.832 40.2975 12.7713 40.4002 12.65C40.5028 12.5287 40.5542 12.2673 40.5542 11.866V8.758C40.5542 8.394 40.5168 8.15133 40.4422 8.03C40.3675 7.89933 40.2042 7.834 39.9522 7.834C39.6162 7.834 39.3408 7.946 39.1262 8.17C38.9208 8.394 38.7715 8.80933 38.6782 9.416C38.6782 9.444 38.6502 9.458 38.5942 9.458C38.5382 9.458 38.5102 9.444 38.5102 9.416C38.5102 9.28533 38.5102 9.08933 38.5102 8.828C38.5102 8.56667 38.5055 8.296 38.4962 8.016C38.4962 7.736 38.4962 7.50733 38.4962 7.33C38.4962 7.28333 38.5242 7.26 38.5802 7.26C38.6362 7.26 38.6642 7.28333 38.6642 7.33C38.6642 7.46067 38.8695 7.54 39.2802 7.568C39.7002 7.596 40.2882 7.61 41.0442 7.61C41.5295 7.61 41.9448 7.60533 42.2902 7.596C42.6355 7.58667 42.9015 7.56333 43.0882 7.526C43.2748 7.47933 43.3682 7.414 43.3682 7.33C43.3682 7.28333 43.3962 7.26 43.4522 7.26C43.5082 7.26 43.5362 7.28333 43.5362 7.33C43.5362 7.50733 43.5362 7.736 43.5362 8.016C43.5362 8.296 43.5315 8.56667 43.5222 8.828C43.5222 9.08933 43.5222 9.28533 43.5222 9.416C43.5222 9.444 43.4942 9.458 43.4382 9.458C43.3915 9.458 43.3635 9.444 43.3542 9.416C43.2795 8.80933 43.1302 8.394 42.9062 8.17C42.6822 7.946 42.4022 7.834 42.0662 7.834C41.8235 7.834 41.6695 7.89933 41.6042 8.03C41.5388 8.15133 41.5062 8.394 41.5062 8.758V11.866C41.5062 12.2673 41.5528 12.5287 41.6462 12.65C41.7488 12.7713 41.9822 12.832 42.3462 12.832C42.3742 12.832 42.3882 12.86 42.3882 12.916C42.3882 12.972 42.3742 13 42.3462 13C42.1595 13 41.9542 12.9953 41.7302 12.986C41.5062 12.9767 41.2775 12.972 41.0442 12.972C40.8015 12.972 40.5635 12.9767 40.3302 12.986C40.0968 12.9953 39.8822 13 39.6862 13ZM48.3928 13.084C48.3554 13.1027 48.3134 13.112 48.2668 13.112C48.1268 13.112 47.9914 13.0093 47.8608 12.804C47.7394 12.5893 47.6788 12.286 47.6788 11.894V9.43C47.6788 9.01933 47.6414 8.69267 47.5667 8.45C47.5014 8.20733 47.4034 8.03467 47.2728 7.932C47.1514 7.82 47.0068 7.764 46.8388 7.764C46.6334 7.764 46.4608 7.81533 46.3208 7.918C46.1808 8.02067 46.0734 8.16067 45.9988 8.338C45.9334 8.506 45.8868 8.69267 45.8588 8.898C45.8401 9.07533 45.7841 9.22467 45.6908 9.346C45.6068 9.458 45.4574 9.514 45.2428 9.514C45.0748 9.514 44.9441 9.472 44.8508 9.388C44.7574 9.304 44.7108 9.18733 44.7108 9.038C44.7108 8.86067 44.7994 8.68333 44.9768 8.506C45.1541 8.31933 45.3781 8.14667 45.6488 7.988C45.9194 7.82933 46.1994 7.70333 46.4888 7.61C46.7874 7.51667 47.0628 7.47 47.3148 7.47C47.6881 7.47 48.0008 7.596 48.2528 7.848C48.5048 8.09067 48.6308 8.478 48.6308 9.01V11.488C48.6308 11.796 48.6728 12.0247 48.7568 12.174C48.8408 12.3233 48.9761 12.398 49.1628 12.398C49.3214 12.398 49.5268 12.3467 49.7788 12.244C49.8161 12.2253 49.8441 12.244 49.8628 12.3C49.8908 12.3467 49.8814 12.3793 49.8348 12.398L48.3928 13.084ZM45.5788 13.098C45.2801 13.098 45.0514 13.0187 44.8927 12.86C44.7341 12.7013 44.6548 12.5007 44.6548 12.258C44.6548 11.9687 44.7668 11.7493 44.9908 11.6C45.2148 11.4507 45.5741 11.292 46.0688 11.124L47.8188 10.522L47.8608 10.69L46.4328 11.236C46.2088 11.32 46.0501 11.4133 45.9568 11.516C45.8634 11.6187 45.8167 11.7493 45.8167 11.908C45.8167 12.104 45.8728 12.258 45.9848 12.37C46.0968 12.482 46.2414 12.538 46.4188 12.538C46.5121 12.538 46.6101 12.524 46.7128 12.496C46.8154 12.468 46.9228 12.4307 47.0348 12.384L48.0988 11.824L48.1128 12.02L46.9088 12.678C46.6381 12.818 46.3954 12.9253 46.1808 13C45.9754 13.0653 45.7748 13.098 45.5788 13.098Z" fill="white"/>
<path d="M11.7 41C11.6813 41 11.672 40.972 11.672 40.916C11.672 40.86 11.6813 40.832 11.7 40.832C12.0827 40.832 12.3673 40.8087 12.554 40.762C12.75 40.7153 12.8807 40.622 12.946 40.482C13.0113 40.342 13.044 40.1367 13.044 39.866V37.304C13.044 36.9493 13.0113 36.702 12.946 36.562C12.89 36.422 12.764 36.366 12.568 36.394C12.372 36.422 12.078 36.5247 11.686 36.702C11.6487 36.7207 11.616 36.7067 11.588 36.66C11.5693 36.604 11.5787 36.5667 11.616 36.548L13.87 35.47C13.9073 35.4513 13.94 35.456 13.968 35.484C13.996 35.512 14.01 35.54 14.01 35.568V39.866C14.01 40.1367 14.038 40.342 14.094 40.482C14.1593 40.622 14.2853 40.7153 14.472 40.762C14.6587 40.8087 14.9433 40.832 15.326 40.832C15.354 40.832 15.368 40.86 15.368 40.916C15.368 40.972 15.354 41 15.326 41C15.074 41 14.794 40.9953 14.486 40.986C14.1873 40.9767 13.8653 40.972 13.52 40.972C13.1747 40.972 12.848 40.9767 12.54 40.986C12.232 40.9953 11.952 41 11.7 41ZM19.8764 37.01C20.3244 37.01 20.6791 37.0987 20.9404 37.276C21.2111 37.4533 21.4071 37.6773 21.5284 37.948C21.6498 38.2093 21.7104 38.4847 21.7104 38.774C21.7104 39.2127 21.5798 39.6187 21.3184 39.992C21.0664 40.356 20.7258 40.6453 20.2964 40.86C19.8671 41.0747 19.3911 41.182 18.8684 41.182C18.0751 41.182 17.4404 40.916 16.9644 40.384C16.4978 39.8427 16.2644 39.0773 16.2644 38.088C16.2644 37.22 16.4604 36.3707 16.8524 35.54C17.2444 34.7 17.8138 33.9487 18.5604 33.286C19.3164 32.614 20.2124 32.1007 21.2484 31.746C21.2858 31.7367 21.3138 31.7553 21.3324 31.802C21.3511 31.8487 21.3464 31.8813 21.3184 31.9C20.4318 32.3107 19.6898 32.8473 19.0924 33.51C18.5044 34.1633 18.0611 34.868 17.7624 35.624C17.4731 36.38 17.3284 37.1267 17.3284 37.864C17.3284 38.4147 17.4031 38.9233 17.5524 39.39C17.7111 39.8473 17.9304 40.2113 18.2104 40.482C18.4998 40.7527 18.8498 40.888 19.2604 40.888C19.6711 40.888 20.0024 40.7387 20.2544 40.44C20.5158 40.132 20.6464 39.7027 20.6464 39.152C20.6464 38.676 20.5391 38.2793 20.3244 37.962C20.1098 37.6353 19.7738 37.472 19.3164 37.472C19.0924 37.472 18.8824 37.5187 18.6864 37.612C18.4904 37.696 18.2758 37.8407 18.0424 38.046C18.0144 38.074 17.9771 38.074 17.9304 38.046C17.8931 38.0087 17.8791 37.976 17.8884 37.948C18.1404 37.6493 18.4298 37.4207 18.7564 37.262C19.0831 37.094 19.4564 37.01 19.8764 37.01ZM23.5703 41.154C23.3649 41.154 23.1969 41.0933 23.0663 40.972C22.9449 40.8507 22.8843 40.6827 22.8843 40.468C22.8843 40.272 22.9449 40.118 23.0663 40.006C23.1969 39.8847 23.3649 39.824 23.5703 39.824C23.7943 39.824 23.9623 39.8847 24.0743 40.006C24.1863 40.118 24.2423 40.272 24.2423 40.468C24.2423 40.6827 24.1863 40.8507 24.0743 40.972C23.9623 41.0933 23.7943 41.154 23.5703 41.154ZM23.5703 37.22C23.3649 37.22 23.1969 37.1593 23.0663 37.038C22.9449 36.9167 22.8843 36.7487 22.8843 36.534C22.8843 36.338 22.9449 36.184 23.0663 36.072C23.1969 35.9507 23.3649 35.89 23.5703 35.89C23.7943 35.89 23.9623 35.9507 24.0743 36.072C24.1863 36.184 24.2423 36.338 24.2423 36.534C24.2423 36.7487 24.1863 36.9167 24.0743 37.038C23.9623 37.1593 23.7943 37.22 23.5703 37.22ZM28.319 41.182C27.759 41.182 27.255 41.056 26.807 40.804C26.3683 40.552 26.023 40.2067 25.771 39.768C25.5283 39.3293 25.407 38.8253 25.407 38.256C25.407 37.696 25.5283 37.206 25.771 36.786C26.023 36.3567 26.3683 36.0207 26.807 35.778C27.255 35.5353 27.7637 35.414 28.333 35.414C28.893 35.414 29.3877 35.54 29.817 35.792C30.2463 36.0347 30.5823 36.3753 30.825 36.814C31.0677 37.2433 31.189 37.738 31.189 38.298C31.189 38.858 31.0677 39.3573 30.825 39.796C30.5823 40.2253 30.2417 40.566 29.803 40.818C29.3737 41.0607 28.879 41.182 28.319 41.182ZM28.473 40.958C29.005 40.958 29.397 40.7293 29.649 40.272C29.9103 39.8147 30.041 39.2173 30.041 38.48C30.041 37.808 29.9523 37.2667 29.775 36.856C29.607 36.436 29.383 36.128 29.103 35.932C28.823 35.736 28.5197 35.638 28.193 35.638C27.661 35.638 27.2503 35.8713 26.961 36.338C26.681 36.8047 26.541 37.402 26.541 38.13C26.541 38.6807 26.6203 39.1707 26.779 39.6C26.9377 40.02 27.1617 40.3513 27.451 40.594C27.7403 40.8367 28.081 40.958 28.473 40.958ZM34.9909 41.182C34.4309 41.182 33.9269 41.056 33.4789 40.804C33.0402 40.552 32.6949 40.2067 32.4429 39.768C32.2002 39.3293 32.0789 38.8253 32.0789 38.256C32.0789 37.696 32.2002 37.206 32.4429 36.786C32.6949 36.3567 33.0402 36.0207 33.4789 35.778C33.9269 35.5353 34.4355 35.414 35.0049 35.414C35.5649 35.414 36.0595 35.54 36.4889 35.792C36.9182 36.0347 37.2542 36.3753 37.4969 36.814C37.7395 37.2433 37.8609 37.738 37.8609 38.298C37.8609 38.858 37.7395 39.3573 37.4969 39.796C37.2542 40.2253 36.9135 40.566 36.4749 40.818C36.0455 41.0607 35.5509 41.182 34.9909 41.182ZM35.1449 40.958C35.6769 40.958 36.0689 40.7293 36.3209 40.272C36.5822 39.8147 36.7129 39.2173 36.7129 38.48C36.7129 37.808 36.6242 37.2667 36.4469 36.856C36.2789 36.436 36.0549 36.128 35.7749 35.932C35.4949 35.736 35.1915 35.638 34.8649 35.638C34.3329 35.638 33.9222 35.8713 33.6329 36.338C33.3529 36.8047 33.2129 37.402 33.2129 38.13C33.2129 38.6807 33.2922 39.1707 33.4509 39.6C33.6095 40.02 33.8335 40.3513 34.1229 40.594C34.4122 40.8367 34.7529 40.958 35.1449 40.958Z" fill="white"/>
<line x1="9" y1="22.5" x2="44" y2="22.5" stroke="white"/>
</svg>
