<svg width="50" height="48" viewBox="0 0 50 48" fill="none" xmlns="http://www.w3.org/2000/svg">
<path d="M0.518 12.734C1.106 12.2487 1.59133 11.8287 1.974 11.474C2.366 11.11 2.67867 10.7927 2.912 10.522C3.14533 10.242 3.31333 9.98533 3.416 9.752C3.51867 9.51867 3.57 9.28067 3.57 9.038C3.57 8.674 3.46267 8.37067 3.248 8.128C3.04267 7.88533 2.76267 7.764 2.408 7.764C2.03467 7.764 1.722 7.918 1.47 8.226C1.218 8.534 1.00333 8.968 0.826 9.528C0.816667 9.54667 0.784 9.55133 0.728 9.542C0.672 9.53267 0.648667 9.51867 0.658 9.5L1.232 7.288C1.24133 7.26 1.274 7.25533 1.33 7.274C1.386 7.28333 1.40467 7.29733 1.386 7.316C1.34867 7.47467 1.35333 7.57733 1.4 7.624C1.456 7.67067 1.51667 7.694 1.582 7.694C1.73133 7.694 1.92267 7.64733 2.156 7.554C2.38933 7.46067 2.688 7.414 3.052 7.414C3.54667 7.414 3.92933 7.54467 4.2 7.806C4.48 8.058 4.62 8.38467 4.62 8.786C4.62 9.066 4.55 9.33667 4.41 9.598C4.27 9.85933 4.06933 10.1207 3.808 10.382C3.556 10.634 3.25267 10.9 2.898 11.18C2.55267 11.46 2.17467 11.7587 1.764 12.076C1.72667 12.104 1.71733 12.1273 1.736 12.146C1.75467 12.1647 1.78267 12.174 1.82 12.174C2.436 12.174 2.94467 12.1693 3.346 12.16C3.74733 12.1507 4.06467 12.1227 4.298 12.076C4.54067 12.02 4.718 11.936 4.83 11.824C4.95133 11.7027 5.03533 11.5393 5.082 11.334C5.09133 11.306 5.11933 11.2967 5.166 11.306C5.222 11.3153 5.25 11.3293 5.25 11.348L5.012 12.846C5.012 12.8833 4.998 12.9207 4.97 12.958C4.95133 12.986 4.92333 13 4.886 13C4.22333 13 3.51867 13 2.772 13C2.02533 13 1.30667 13 0.616 13C0.569333 13 0.532 12.9673 0.504 12.902C0.476 12.8273 0.480667 12.7713 0.518 12.734ZM13.3381 13.084C13.3007 13.1027 13.2587 13.112 13.2121 13.112C13.0721 13.112 12.9367 13.0093 12.8061 12.804C12.6847 12.5893 12.6241 12.286 12.6241 11.894V9.43C12.6241 9.01933 12.5867 8.69267 12.5121 8.45C12.4467 8.20733 12.3487 8.03467 12.2181 7.932C12.0967 7.82 11.9521 7.764 11.7841 7.764C11.5787 7.764 11.4061 7.81533 11.2661 7.918C11.1261 8.02067 11.0187 8.16067 10.9441 8.338C10.8787 8.506 10.8321 8.69267 10.8041 8.898C10.7854 9.07533 10.7294 9.22467 10.6361 9.346C10.5521 9.458 10.4027 9.514 10.1881 9.514C10.0201 9.514 9.8894 9.472 9.79606 9.388C9.70273 9.304 9.65606 9.18733 9.65606 9.038C9.65606 8.86067 9.74473 8.68333 9.92206 8.506C10.0994 8.31933 10.3234 8.14667 10.5941 7.988C10.8647 7.82933 11.1447 7.70333 11.4341 7.61C11.7327 7.51667 12.0081 7.47 12.2601 7.47C12.6334 7.47 12.9461 7.596 13.1981 7.848C13.4501 8.09067 13.5761 8.478 13.5761 9.01V11.488C13.5761 11.796 13.6181 12.0247 13.7021 12.174C13.7861 12.3233 13.9214 12.398 14.1081 12.398C14.2667 12.398 14.4721 12.3467 14.7241 12.244C14.7614 12.2253 14.7894 12.244 14.8081 12.3C14.8361 12.3467 14.8267 12.3793 14.7801 12.398L13.3381 13.084ZM10.5241 13.098C10.2254 13.098 9.99673 13.0187 9.83806 12.86C9.6794 12.7013 9.60006 12.5007 9.60006 12.258C9.60006 11.9687 9.71206 11.7493 9.93606 11.6C10.1601 11.4507 10.5194 11.292 11.0141 11.124L12.7641 10.522L12.8061 10.69L11.3781 11.236C11.1541 11.32 10.9954 11.4133 10.9021 11.516C10.8087 11.6187 10.7621 11.7493 10.7621 11.908C10.7621 12.104 10.8181 12.258 10.9301 12.37C11.0421 12.482 11.1867 12.538 11.3641 12.538C11.4574 12.538 11.5554 12.524 11.6581 12.496C11.7607 12.468 11.8681 12.4307 11.9801 12.384L13.0441 11.824L13.0581 12.02L11.8541 12.678C11.5834 12.818 11.3407 12.9253 11.1261 13C10.9207 13.0653 10.7201 13.098 10.5241 13.098ZM16.585 7.61C16.8276 7.61 17.0796 7.60533 17.341 7.596C17.6116 7.57733 17.873 7.568 18.125 7.568C18.7036 7.568 19.147 7.65667 19.455 7.834C19.763 8.01133 19.917 8.27733 19.917 8.632C19.917 9.136 19.511 9.64 18.699 10.144L18.517 10.06C18.629 9.92933 18.713 9.78 18.769 9.612C18.8343 9.43467 18.867 9.22467 18.867 8.982C18.867 8.55267 18.7736 8.24933 18.587 8.072C18.4096 7.88533 18.139 7.792 17.775 7.792C17.4856 7.792 17.2896 7.85267 17.187 7.974C17.0936 8.086 17.047 8.34733 17.047 8.758V11.866C17.047 12.1833 17.1123 12.4167 17.243 12.566C17.383 12.706 17.663 12.776 18.083 12.776C18.5496 12.776 18.8903 12.678 19.105 12.482C19.3196 12.2767 19.427 11.9827 19.427 11.6C19.427 11.1987 19.3103 10.872 19.077 10.62C18.853 10.368 18.4703 10.242 17.929 10.242H16.641L16.627 10.004H18.419C19.8096 10.004 20.505 10.4333 20.505 11.292C20.505 11.796 20.2996 12.2113 19.889 12.538C19.4783 12.8647 18.9603 13.028 18.335 13.028C18.111 13.028 17.8263 13.0187 17.481 13C17.145 12.9813 16.8463 12.972 16.585 12.972C16.3423 12.972 16.1043 12.9767 15.871 12.986C15.6376 12.9953 15.4276 13 15.241 13C15.213 13 15.199 12.972 15.199 12.916C15.199 12.86 15.213 12.832 15.241 12.832C15.605 12.832 15.8383 12.7713 15.941 12.65C16.0436 12.5287 16.095 12.2673 16.095 11.866V8.73C16.095 8.31933 16.0436 8.058 15.941 7.946C15.8383 7.82467 15.6096 7.764 15.255 7.764C15.227 7.764 15.213 7.736 15.213 7.68C15.213 7.624 15.227 7.596 15.255 7.596C15.4323 7.596 15.6376 7.60067 15.871 7.61C16.1043 7.61 16.3423 7.61 16.585 7.61ZM25.676 7.596C25.732 7.596 25.7647 7.60533 25.774 7.624C25.7833 7.63333 25.788 7.666 25.788 7.722C25.7787 8.002 25.7647 8.31 25.746 8.646C25.7273 8.97267 25.718 9.22933 25.718 9.416C25.718 9.43467 25.69 9.444 25.634 9.444C25.5873 9.444 25.5593 9.43467 25.55 9.416C25.466 8.828 25.3073 8.41267 25.074 8.17C24.8407 7.92733 24.514 7.806 24.094 7.806C23.7393 7.806 23.5107 7.876 23.408 8.016C23.3053 8.14667 23.254 8.394 23.254 8.758V11.866C23.254 12.2673 23.3007 12.5287 23.394 12.65C23.4967 12.7713 23.73 12.832 24.094 12.832C24.1127 12.832 24.122 12.86 24.122 12.916C24.122 12.972 24.1127 13 24.094 13C23.9073 13 23.702 12.9953 23.478 12.986C23.254 12.9767 23.0253 12.972 22.792 12.972C22.5493 12.972 22.3113 12.9767 22.078 12.986C21.8447 12.9953 21.6347 13 21.448 13C21.42 13 21.406 12.972 21.406 12.916C21.406 12.86 21.42 12.832 21.448 12.832C21.812 12.832 22.0453 12.7713 22.148 12.65C22.2507 12.5287 22.302 12.2673 22.302 11.866V8.73C22.302 8.31933 22.2507 8.058 22.148 7.946C22.0453 7.82467 21.8167 7.764 21.462 7.764C21.434 7.764 21.42 7.736 21.42 7.68C21.42 7.624 21.434 7.596 21.462 7.596H25.676ZM32.2987 7.596C32.3267 7.596 32.3407 7.624 32.3407 7.68C32.3407 7.736 32.3267 7.764 32.2987 7.764C32.0373 7.764 31.8133 7.862 31.6267 8.058C31.4493 8.254 31.286 8.55733 31.1367 8.968L29.4707 13.392C29.1347 14.288 28.8127 14.9927 28.5047 15.506C28.1967 16.0287 27.8793 16.3973 27.5527 16.612C27.226 16.8267 26.8667 16.934 26.4747 16.934C26.26 16.934 26.0827 16.8827 25.9427 16.78C25.7933 16.6867 25.7187 16.542 25.7187 16.346C25.7187 16.178 25.77 16.052 25.8727 15.968C25.9753 15.8933 26.092 15.856 26.2227 15.856C26.4 15.856 26.5353 15.884 26.6287 15.94C26.722 15.996 26.8153 16.052 26.9087 16.108C27.002 16.164 27.1233 16.192 27.2727 16.192C27.4967 16.192 27.7113 16.0893 27.9167 15.884C28.122 15.6787 28.3413 15.3287 28.5747 14.834C28.808 14.3487 29.0787 13.6813 29.3867 12.832L29.3727 13.35L27.1047 8.758C26.8993 8.34733 26.736 8.08133 26.6147 7.96C26.5027 7.82933 26.3627 7.764 26.1947 7.764C26.1667 7.764 26.1527 7.736 26.1527 7.68C26.1527 7.624 26.1667 7.596 26.1947 7.596C26.3533 7.596 26.5213 7.60067 26.6987 7.61C26.876 7.61933 27.044 7.624 27.2027 7.624C27.52 7.624 27.7953 7.61933 28.0287 7.61C28.2713 7.60067 28.4907 7.596 28.6867 7.596C28.7053 7.596 28.7147 7.624 28.7147 7.68C28.7147 7.736 28.7053 7.764 28.6867 7.764C28.3787 7.764 28.1547 7.80133 28.0147 7.876C27.884 7.95067 27.87 8.09533 27.9727 8.31L29.8627 12.16L29.4707 12.818L30.8007 8.996C30.95 8.56667 30.95 8.254 30.8007 8.058C30.6607 7.862 30.362 7.764 29.9047 7.764C29.886 7.764 29.8767 7.736 29.8767 7.68C29.8767 7.624 29.886 7.596 29.9047 7.596C30.1287 7.596 30.3387 7.60067 30.5347 7.61C30.74 7.61933 31.0013 7.624 31.3187 7.624C31.524 7.624 31.692 7.61933 31.8227 7.61C31.9627 7.60067 32.1213 7.596 32.2987 7.596ZM35.5136 13.168C34.8696 13.168 34.3423 13.0327 33.9316 12.762C33.5303 12.482 33.2316 12.132 33.0356 11.712C32.849 11.2827 32.7556 10.8487 32.7556 10.41C32.7556 9.94333 32.849 9.528 33.0356 9.164C33.2223 8.8 33.465 8.492 33.7636 8.24C34.0716 7.988 34.4123 7.79667 34.7856 7.666C35.159 7.53533 35.5276 7.47 35.8916 7.47C36.153 7.47 36.4096 7.50733 36.6616 7.582C36.923 7.65667 37.1376 7.764 37.3056 7.904C37.4736 8.03467 37.5576 8.19333 37.5576 8.38C37.5576 8.51067 37.5063 8.632 37.4036 8.744C37.3103 8.84667 37.1703 8.898 36.9836 8.898C36.8063 8.898 36.6616 8.84667 36.5496 8.744C36.4376 8.64133 36.349 8.51067 36.2836 8.352C36.1996 8.16533 36.097 8.02067 35.9756 7.918C35.8543 7.806 35.663 7.75 35.4016 7.75C34.907 7.75 34.5196 7.95533 34.2396 8.366C33.969 8.77667 33.8336 9.31333 33.8336 9.976C33.8336 10.4427 33.913 10.8813 34.0716 11.292C34.2303 11.6933 34.4776 12.0153 34.8136 12.258C35.1496 12.5007 35.5883 12.622 36.1296 12.622C36.391 12.622 36.6336 12.5893 36.8576 12.524C37.091 12.4493 37.315 12.3373 37.5296 12.188C37.5576 12.1693 37.5856 12.1787 37.6136 12.216C37.651 12.2533 37.6556 12.2813 37.6276 12.3C37.3103 12.5893 36.9836 12.8087 36.6476 12.958C36.3116 13.098 35.9336 13.168 35.5136 13.168ZM39.6862 13C39.6675 13 39.6582 12.972 39.6582 12.916C39.6582 12.86 39.6675 12.832 39.6862 12.832C40.0595 12.832 40.2975 12.7713 40.4002 12.65C40.5028 12.5287 40.5542 12.2673 40.5542 11.866V8.758C40.5542 8.394 40.5168 8.15133 40.4422 8.03C40.3675 7.89933 40.2042 7.834 39.9522 7.834C39.6162 7.834 39.3408 7.946 39.1262 8.17C38.9208 8.394 38.7715 8.80933 38.6782 9.416C38.6782 9.444 38.6502 9.458 38.5942 9.458C38.5382 9.458 38.5102 9.444 38.5102 9.416C38.5102 9.28533 38.5102 9.08933 38.5102 8.828C38.5102 8.56667 38.5055 8.296 38.4962 8.016C38.4962 7.736 38.4962 7.50733 38.4962 7.33C38.4962 7.28333 38.5242 7.26 38.5802 7.26C38.6362 7.26 38.6642 7.28333 38.6642 7.33C38.6642 7.46067 38.8695 7.54 39.2802 7.568C39.7002 7.596 40.2882 7.61 41.0442 7.61C41.5295 7.61 41.9448 7.60533 42.2902 7.596C42.6355 7.58667 42.9015 7.56333 43.0882 7.526C43.2748 7.47933 43.3682 7.414 43.3682 7.33C43.3682 7.28333 43.3962 7.26 43.4522 7.26C43.5082 7.26 43.5362 7.28333 43.5362 7.33C43.5362 7.50733 43.5362 7.736 43.5362 8.016C43.5362 8.296 43.5315 8.56667 43.5222 8.828C43.5222 9.08933 43.5222 9.28533 43.5222 9.416C43.5222 9.444 43.4942 9.458 43.4382 9.458C43.3915 9.458 43.3635 9.444 43.3542 9.416C43.2795 8.80933 43.1302 8.394 42.9062 8.17C42.6822 7.946 42.4022 7.834 42.0662 7.834C41.8235 7.834 41.6695 7.89933 41.6042 8.03C41.5388 8.15133 41.5062 8.394 41.5062 8.758V11.866C41.5062 12.2673 41.5528 12.5287 41.6462 12.65C41.7488 12.7713 41.9822 12.832 42.3462 12.832C42.3742 12.832 42.3882 12.86 42.3882 12.916C42.3882 12.972 42.3742 13 42.3462 13C42.1595 13 41.9542 12.9953 41.7302 12.986C41.5062 12.9767 41.2775 12.972 41.0442 12.972C40.8015 12.972 40.5635 12.9767 40.3302 12.986C40.0968 12.9953 39.8822 13 39.6862 13ZM48.3928 13.084C48.3554 13.1027 48.3134 13.112 48.2668 13.112C48.1268 13.112 47.9914 13.0093 47.8608 12.804C47.7394 12.5893 47.6788 12.286 47.6788 11.894V9.43C47.6788 9.01933 47.6414 8.69267 47.5667 8.45C47.5014 8.20733 47.4034 8.03467 47.2728 7.932C47.1514 7.82 47.0068 7.764 46.8388 7.764C46.6334 7.764 46.4608 7.81533 46.3208 7.918C46.1808 8.02067 46.0734 8.16067 45.9988 8.338C45.9334 8.506 45.8868 8.69267 45.8588 8.898C45.8401 9.07533 45.7841 9.22467 45.6908 9.346C45.6068 9.458 45.4574 9.514 45.2428 9.514C45.0748 9.514 44.9441 9.472 44.8508 9.388C44.7574 9.304 44.7108 9.18733 44.7108 9.038C44.7108 8.86067 44.7994 8.68333 44.9768 8.506C45.1541 8.31933 45.3781 8.14667 45.6488 7.988C45.9194 7.82933 46.1994 7.70333 46.4888 7.61C46.7874 7.51667 47.0628 7.47 47.3148 7.47C47.6881 7.47 48.0008 7.596 48.2528 7.848C48.5048 8.09067 48.6308 8.478 48.6308 9.01V11.488C48.6308 11.796 48.6728 12.0247 48.7568 12.174C48.8408 12.3233 48.9761 12.398 49.1628 12.398C49.3214 12.398 49.5268 12.3467 49.7788 12.244C49.8161 12.2253 49.8441 12.244 49.8628 12.3C49.8908 12.3467 49.8814 12.3793 49.8348 12.398L48.3928 13.084ZM45.5788 13.098C45.2801 13.098 45.0514 13.0187 44.8927 12.86C44.7341 12.7013 44.6548 12.5007 44.6548 12.258C44.6548 11.9687 44.7668 11.7493 44.9908 11.6C45.2148 11.4507 45.5741 11.292 46.0688 11.124L47.8188 10.522L47.8608 10.69L46.4328 11.236C46.2088 11.32 46.0501 11.4133 45.9568 11.516C45.8634 11.6187 45.8167 11.7493 45.8167 11.908C45.8167 12.104 45.8728 12.258 45.9848 12.37C46.0968 12.482 46.2414 12.538 46.4188 12.538C46.5121 12.538 46.6101 12.524 46.7128 12.496C46.8154 12.468 46.9228 12.4307 47.0348 12.384L48.0988 11.824L48.1128 12.02L46.9088 12.678C46.6381 12.818 46.3954 12.9253 46.1808 13C45.9754 13.0653 45.7748 13.098 45.5788 13.098Z" fill="white"/>
<path d="M11.7 41C11.6813 41 11.672 40.972 11.672 40.916C11.672 40.86 11.6813 40.832 11.7 40.832C12.0827 40.832 12.3673 40.8087 12.554 40.762C12.75 40.7153 12.8807 40.622 12.946 40.482C13.0113 40.342 13.044 40.1367 13.044 39.866V37.304C13.044 36.9493 13.0113 36.702 12.946 36.562C12.89 36.422 12.764 36.366 12.568 36.394C12.372 36.422 12.078 36.5247 11.686 36.702C11.6487 36.7207 11.616 36.7067 11.588 36.66C11.5693 36.604 11.5787 36.5667 11.616 36.548L13.87 35.47C13.9073 35.4513 13.94 35.456 13.968 35.484C13.996 35.512 14.01 35.54 14.01 35.568V39.866C14.01 40.1367 14.038 40.342 14.094 40.482C14.1593 40.622 14.2853 40.7153 14.472 40.762C14.6587 40.8087 14.9433 40.832 15.326 40.832C15.354 40.832 15.368 40.86 15.368 40.916C15.368 40.972 15.354 41 15.326 41C15.074 41 14.794 40.9953 14.486 40.986C14.1873 40.9767 13.8653 40.972 13.52 40.972C13.1747 40.972 12.848 40.9767 12.54 40.986C12.232 40.9953 11.952 41 11.7 41ZM16.7404 38.256C17.6738 38.256 18.4204 38.368 18.9804 38.592C19.5498 38.816 19.9604 39.124 20.2124 39.516C20.4738 39.908 20.6044 40.3607 20.6044 40.874C20.6044 41.406 20.4644 41.8867 20.1844 42.316C19.9138 42.7547 19.4844 43.1747 18.8964 43.576C18.3178 43.9867 17.5524 44.4113 16.6004 44.85C16.5631 44.8593 16.5304 44.8407 16.5024 44.794C16.4744 44.7473 16.4791 44.7147 16.5164 44.696C17.3004 44.2947 17.9071 43.8933 18.3364 43.492C18.7751 43.1 19.0784 42.7033 19.2464 42.302C19.4238 41.91 19.5124 41.5133 19.5124 41.112C19.5124 40.3467 19.2651 39.7493 18.7704 39.32C18.2758 38.8813 17.5524 38.662 16.6004 38.662C16.4884 38.662 16.4418 38.606 16.4604 38.494L16.9084 36.002C16.9178 35.9367 16.9318 35.8993 16.9504 35.89C16.9691 35.8713 17.0158 35.8573 17.0904 35.848C17.8931 35.7547 18.5184 35.68 18.9664 35.624C19.4144 35.5587 19.7411 35.5073 19.9464 35.47C20.1518 35.4233 20.2824 35.372 20.3384 35.316C20.4038 35.2507 20.4504 35.1713 20.4784 35.078C20.4878 35.05 20.5158 35.0407 20.5624 35.05C20.6184 35.05 20.6418 35.0687 20.6324 35.106L20.3524 36.296C20.3151 36.4173 20.2684 36.492 20.2124 36.52C20.1564 36.5387 20.0724 36.548 19.9604 36.548L17.3144 36.604C17.1931 36.604 17.1231 36.674 17.1044 36.814L16.7824 38.564L16.7404 38.256ZM22.791 41.154C22.5856 41.154 22.4176 41.0933 22.287 40.972C22.1656 40.8507 22.105 40.6827 22.105 40.468C22.105 40.272 22.1656 40.118 22.287 40.006C22.4176 39.8847 22.5856 39.824 22.791 39.824C23.015 39.824 23.183 39.8847 23.295 40.006C23.407 40.118 23.463 40.272 23.463 40.468C23.463 40.6827 23.407 40.8507 23.295 40.972C23.183 41.0933 23.015 41.154 22.791 41.154ZM22.791 37.22C22.5856 37.22 22.4176 37.1593 22.287 37.038C22.1656 36.9167 22.105 36.7487 22.105 36.534C22.105 36.338 22.1656 36.184 22.287 36.072C22.4176 35.9507 22.5856 35.89 22.791 35.89C23.015 35.89 23.183 35.9507 23.295 36.072C23.407 36.184 23.463 36.338 23.463 36.534C23.463 36.7487 23.407 36.9167 23.295 37.038C23.183 37.1593 23.015 37.22 22.791 37.22ZM24.9777 44.85C24.9404 44.8593 24.9077 44.836 24.8797 44.78C24.861 44.7333 24.8704 44.7053 24.9077 44.696C25.5144 44.4907 26.0137 44.248 26.4057 43.968C26.7977 43.6973 27.1057 43.4033 27.3297 43.086C27.563 42.778 27.7264 42.47 27.8197 42.162C27.913 41.854 27.9597 41.5693 27.9597 41.308C27.9597 40.9813 27.9037 40.6827 27.7917 40.412C27.6797 40.132 27.507 39.9127 27.2737 39.754C27.0497 39.586 26.7557 39.502 26.3917 39.502C26.289 39.502 26.1817 39.5067 26.0697 39.516C25.967 39.5253 25.855 39.5487 25.7337 39.586C25.7057 39.5953 25.6824 39.572 25.6637 39.516C25.645 39.46 25.6544 39.4273 25.6917 39.418C26.401 39.2313 26.905 38.97 27.2037 38.634C27.5024 38.298 27.6517 37.836 27.6517 37.248C27.6517 36.7907 27.563 36.4267 27.3857 36.156C27.2177 35.8853 26.9424 35.75 26.5597 35.75C26.1584 35.75 25.8084 35.8807 25.5097 36.142C25.211 36.4033 24.9684 36.8187 24.7817 37.388C24.7724 37.4067 24.7397 37.4113 24.6837 37.402C24.6277 37.3927 24.6044 37.374 24.6137 37.346L25.1317 35.302C25.1504 35.274 25.183 35.2693 25.2297 35.288C25.2857 35.2973 25.309 35.3113 25.2997 35.33C25.2624 35.4887 25.2717 35.596 25.3277 35.652C25.3837 35.6987 25.4444 35.722 25.5097 35.722C25.659 35.722 25.8597 35.6707 26.1117 35.568C26.3637 35.4653 26.667 35.414 27.0217 35.414C27.5724 35.414 27.9924 35.5773 28.2817 35.904C28.571 36.2307 28.7157 36.5993 28.7157 37.01C28.7157 37.3553 28.6317 37.6913 28.4637 38.018C28.305 38.3353 28.0717 38.6153 27.7637 38.858C27.465 39.0913 27.101 39.25 26.6717 39.334L26.8117 39.138C27.3437 39.1473 27.7777 39.25 28.1137 39.446C28.459 39.6327 28.711 39.88 28.8697 40.188C29.0377 40.4867 29.1217 40.804 29.1217 41.14C29.1217 41.5693 28.977 42.0173 28.6877 42.484C28.3984 42.96 27.9457 43.4033 27.3297 43.814C26.723 44.234 25.939 44.5793 24.9777 44.85ZM33.0084 41.182C32.4484 41.182 31.9444 41.056 31.4964 40.804C31.0578 40.552 30.7124 40.2067 30.4604 39.768C30.2178 39.3293 30.0964 38.8253 30.0964 38.256C30.0964 37.696 30.2178 37.206 30.4604 36.786C30.7124 36.3567 31.0578 36.0207 31.4964 35.778C31.9444 35.5353 32.4531 35.414 33.0224 35.414C33.5824 35.414 34.0771 35.54 34.5064 35.792C34.9358 36.0347 35.2718 36.3753 35.5144 36.814C35.7571 37.2433 35.8784 37.738 35.8784 38.298C35.8784 38.858 35.7571 39.3573 35.5144 39.796C35.2718 40.2253 34.9311 40.566 34.4924 40.818C34.0631 41.0607 33.5684 41.182 33.0084 41.182ZM33.1624 40.958C33.6944 40.958 34.0864 40.7293 34.3384 40.272C34.5998 39.8147 34.7304 39.2173 34.7304 38.48C34.7304 37.808 34.6418 37.2667 34.4644 36.856C34.2964 36.436 34.0724 36.128 33.7924 35.932C33.5124 35.736 33.2091 35.638 32.8824 35.638C32.3504 35.638 31.9398 35.8713 31.6504 36.338C31.3704 36.8047 31.2304 37.402 31.2304 38.13C31.2304 38.6807 31.3098 39.1707 31.4684 39.6C31.6271 40.02 31.8511 40.3513 32.1404 40.594C32.4298 40.8367 32.7704 40.958 33.1624 40.958Z" fill="white"/>
<line x1="9" y1="22.5" x2="44" y2="22.5" stroke="white"/>
</svg>
