<svg width="355" height="83" viewBox="0 0 355 83" fill="none" xmlns="http://www.w3.org/2000/svg">
<path d="M143.95 23.8976C139.718 23.8976 137.602 26.4576 137.602 31.5776C137.602 32.9088 137.772 34.3595 138.114 35.9296C139.65 34.5984 140.913 33.4379 141.902 32.448C142.926 31.424 143.985 30.1952 145.077 28.7616C147.193 25.9627 148.251 22.7712 148.251 19.1872C148.729 19.2896 149.122 19.5627 149.429 20.0064C149.77 20.416 149.941 20.9963 149.941 21.7472C149.941 22.4981 149.821 23.3344 149.582 24.256C149.343 25.1776 149.087 25.9797 148.814 26.6624C148.541 27.3451 148.046 28.1643 147.33 29.12C146.647 30.0416 146.135 30.7243 145.794 31.168C145.452 31.6117 144.77 32.3285 143.746 33.3184C141.288 35.6395 139.906 36.9024 139.598 37.1072C139.291 37.312 139.103 37.4485 139.035 37.5168C138.967 37.5851 138.899 37.6533 138.83 37.7216C138.762 37.7557 138.694 37.8069 138.626 37.8752C140.059 43.0976 142.551 47.7397 146.101 51.8016C147.773 49.856 148.934 47.5349 149.582 44.8384C149.992 43.2683 150.197 41.92 150.197 40.7936C150.197 39.6672 150.094 38.7115 149.89 37.9264C149.412 36.0149 148.49 35.0592 147.125 35.0592C147.33 34.3424 147.91 33.984 148.866 33.984C150.197 33.984 151.084 35.0763 151.528 37.2608C151.699 38.0459 151.784 39.0699 151.784 40.3328C151.784 41.5616 151.545 43.1317 151.067 45.0432C150.282 48.1152 148.934 50.7264 147.022 52.8768C150.538 56.4949 154.02 58.304 157.467 58.304C159.549 58.304 160.915 57.6555 161.563 56.3584C161.905 55.6416 161.887 55.1808 161.512 54.976C161.478 54.9419 161.427 54.9248 161.358 54.9248C161.358 54.72 161.461 54.4981 161.666 54.2592C161.973 53.8837 162.382 53.696 162.894 53.696C163.679 53.696 164.072 54.2251 164.072 55.2832C164.072 56.3413 163.389 57.3483 162.024 58.304C160.625 59.2597 158.85 59.7376 156.699 59.7376C152.808 59.7376 148.951 58.0309 145.128 54.6176C142.67 56.4949 140.025 57.4336 137.192 57.4336C134.393 57.4336 132.072 56.7851 130.229 55.488C128.42 54.1909 127.515 52.4331 127.515 50.2144C127.515 47.9957 128.147 46.016 129.41 44.2752C130.673 42.5344 132.55 40.5888 135.042 38.4384C134.359 36.1173 134.018 34.0523 134.018 32.2432C134.018 30.4 134.274 28.7616 134.786 27.328C135.298 25.8944 136.219 24.7509 137.55 23.8976C138.882 23.0443 140.554 22.6176 142.568 22.6176C143.046 22.6176 143.353 22.7541 143.49 23.0272C143.66 23.3003 143.814 23.5904 143.95 23.8976ZM136.885 56.0512C139.581 56.0512 141.988 55.2661 144.104 53.696C140.452 50.0437 137.67 45.6405 135.758 40.4864C132.004 43.9339 130.126 47.2277 130.126 50.368C130.126 52.1429 130.792 53.5424 132.123 54.5664C133.454 55.5563 135.042 56.0512 136.885 56.0512Z" fill="#DADADA" fill-opacity="0.5"/>
<g filter="url(#filter0_d_32_316)">
<path d="M30.48 36.52C30.72 36.52 30.8533 36.5467 30.88 36.6C30.9333 36.6267 30.96 36.76 30.96 37C30.96 37.3733 30.92 37.8 30.84 38.28C30.7867 38.76 30.7333 39.4133 30.68 40.24C30.6267 41.0667 30.6 42.24 30.6 43.76C30.6 43.8667 30.52 43.92 30.36 43.92C30.2 43.92 30.12 43.8667 30.12 43.76C30.12 41.4933 29.56 39.8 28.44 38.68C27.3467 37.56 25.6 37 23.2 37H11.44C10.2133 37 9.17333 37.2 8.32 37.6C7.46667 38.0267 6.81333 38.7333 6.36 39.72C5.90667 40.7067 5.68 42.0533 5.68 43.76C5.68 43.8667 5.6 43.92 5.44 43.92C5.28 43.92 5.2 43.8667 5.2 43.76C5.2 42.64 5.17333 41.7067 5.12 40.96C5.06667 40.2133 5 39.5867 4.92 39.08C4.86667 38.6 4.81333 38.1867 4.76 37.84C4.70667 37.52 4.68 37.2 4.68 36.88C4.68 36.6667 4.69333 36.5333 4.72 36.48C4.77333 36.4267 4.90667 36.4 5.12 36.4C6.24 36.4 7.24 36.04 8.12 35.32C9.02667 34.5733 9.82667 33.5867 10.52 32.36C11.24 31.1067 11.8533 29.7333 12.36 28.24C12.8933 26.72 13.32 25.1867 13.64 23.64C13.9867 22.0667 14.24 20.5867 14.4 19.2C14.56 17.8133 14.64 16.64 14.64 15.68C14.64 15.04 14.5333 14.48 14.32 14C14.1333 13.52 13.7333 13.1467 13.12 12.88C12.5333 12.6133 11.6533 12.48 10.48 12.48C10.4267 12.48 10.4 12.4 10.4 12.24C10.4 12.08 10.4267 12 10.48 12C10.64 12 11.0933 12 11.84 12C12.5867 12 13.52 12 14.64 12C15.7867 12 17.0133 12 18.32 12C19.6267 12 20.9333 12 22.24 12C23.5467 12 24.7467 12 25.84 12C26.9333 12 27.8267 12 28.52 12C29.24 12 29.6533 12 29.76 12C29.8133 12 29.84 12.08 29.84 12.24C29.84 12.4 29.8133 12.48 29.76 12.48C28.8 12.48 28.08 12.56 27.6 12.72C27.12 12.8533 26.7867 13.12 26.6 13.52C26.44 13.8933 26.36 14.4667 26.36 15.24V33.76C26.36 34.4267 26.3733 34.96 26.4 35.36C26.4533 35.7333 26.6 36 26.84 36.16C27.08 36.32 27.48 36.4267 28.04 36.48C28.6267 36.5067 29.44 36.52 30.48 36.52ZM23.2 33.68V15.32C23.2 14.52 23.16 13.96 23.08 13.64C23 13.2933 22.76 13.0933 22.36 13.04C21.9867 12.96 21.3467 12.92 20.44 12.92H18.36C17.5867 12.92 17.04 13.04 16.72 13.28C16.4 13.4933 16.1867 13.92 16.08 14.56C16 15.1733 15.9067 16.1067 15.8 17.36C15.7467 17.9467 15.64 18.76 15.48 19.8C15.32 20.84 15.1067 22 14.84 23.28C14.6 24.56 14.2933 25.88 13.92 27.24C13.5467 28.5733 13.1067 29.8667 12.6 31.12C12.0933 32.3467 11.4933 33.44 10.8 34.4C10.1333 35.36 9.37333 36.08 8.52 36.56L8.44 36.04H20.24C21.2267 36.04 21.92 36.0133 22.32 35.96C22.7467 35.9067 23 35.72 23.08 35.4C23.16 35.0533 23.2 34.48 23.2 33.68ZM50.7288 37H33.6888C33.6088 37 33.5688 36.92 33.5688 36.76C33.5688 36.6 33.6088 36.52 33.6888 36.52C34.5954 36.52 35.2754 36.4533 35.7288 36.32C36.2088 36.1867 36.5288 35.92 36.6888 35.52C36.8488 35.12 36.9288 34.5333 36.9288 33.76V15.24C36.9288 14.4667 36.8488 13.8933 36.6888 13.52C36.5288 13.12 36.2088 12.8533 35.7288 12.72C35.2754 12.56 34.5954 12.48 33.6888 12.48C33.6088 12.48 33.5688 12.4 33.5688 12.24C33.5688 12.08 33.6088 12 33.6888 12H50.0088C50.2754 12 50.4088 12.12 50.4088 12.36L50.4888 17.4C50.4888 17.48 50.4088 17.5333 50.2488 17.56C50.1154 17.56 50.0354 17.52 50.0088 17.44C49.8221 15.9733 49.3021 14.8667 48.4488 14.12C47.5954 13.3467 46.4754 12.96 45.0888 12.96H43.0488C42.2488 12.96 41.6354 13.0267 41.2088 13.16C40.7821 13.2933 40.4888 13.5467 40.3288 13.92C40.1688 14.2667 40.0888 14.76 40.0888 15.4V33.6C40.0888 34.24 40.1554 34.7467 40.2888 35.12C40.4488 35.4667 40.7288 35.72 41.1288 35.88C41.5288 36.0133 42.0888 36.08 42.8088 36.08H45.4488C46.9688 36.08 48.2221 35.64 49.2088 34.76C50.1954 33.8533 50.8754 32.5733 51.2488 30.92C51.2488 30.84 51.3288 30.8133 51.4888 30.84C51.6488 30.8667 51.7288 30.92 51.7288 31C51.6221 31.72 51.5288 32.5867 51.4488 33.6C51.3688 34.6133 51.3288 35.5467 51.3288 36.4C51.3288 36.8 51.1288 37 50.7288 37ZM48.4888 27.8C48.4888 26.6533 48.1554 25.8133 47.4888 25.28C46.8488 24.72 45.8088 24.44 44.3688 24.44H38.5688V23.52H44.4888C45.8488 23.52 46.8488 23.2933 47.4888 22.84C48.1288 22.36 48.4488 21.6267 48.4488 20.64C48.4488 20.5867 48.5154 20.56 48.6488 20.56C48.8088 20.56 48.8888 20.5867 48.8888 20.64C48.8888 21.4667 48.8754 22.1067 48.8488 22.56C48.8488 23.0133 48.8488 23.4933 48.8488 24C48.8488 24.6133 48.8621 25.2267 48.8888 25.84C48.9421 26.4533 48.9688 27.1067 48.9688 27.8C48.9688 27.8533 48.8888 27.88 48.7288 27.88C48.5688 27.88 48.4888 27.8533 48.4888 27.8ZM61.6084 12.8C59.9551 12.8 58.6618 13.2667 57.7284 14.2C56.7951 15.1067 56.1018 16.5733 55.6484 18.6C55.6218 18.6533 55.5284 18.68 55.3684 18.68C55.2351 18.68 55.1684 18.64 55.1684 18.56C55.2218 18.2133 55.2751 17.72 55.3284 17.08C55.4084 16.44 55.4751 15.7467 55.5284 15C55.5818 14.2533 55.6218 13.5333 55.6484 12.84C55.7018 12.1467 55.7284 11.5733 55.7284 11.12C55.7284 10.9867 55.8084 10.92 55.9684 10.92C56.1284 10.92 56.2084 10.9867 56.2084 11.12C56.2084 11.3867 56.3418 11.5867 56.6084 11.72C56.8751 11.8267 57.1818 11.9067 57.5284 11.96C57.8751 11.9867 58.1684 12 58.4084 12C60.7018 12.08 63.3818 12.12 66.4484 12.12C68.3151 12.12 69.8084 12.1067 70.9284 12.08C72.0484 12.0267 73.1284 12 74.1684 12C75.0751 12 75.7684 11.9467 76.2484 11.84C76.7551 11.7067 77.0751 11.4267 77.2084 11C77.2351 10.8933 77.3151 10.84 77.4484 10.84C77.6084 10.84 77.6884 10.8933 77.6884 11C77.6351 11.4 77.5818 11.96 77.5284 12.68C77.5018 13.4 77.4618 14.1467 77.4084 14.92C77.3818 15.6933 77.3551 16.4133 77.3284 17.08C77.3018 17.7467 77.2884 18.24 77.2884 18.56C77.2884 18.64 77.2084 18.68 77.0484 18.68C76.9151 18.68 76.8484 18.64 76.8484 18.56C76.6618 16.48 76.1284 15 75.2484 14.12C74.3684 13.24 73.0618 12.8 71.3284 12.8C70.3951 12.8 69.6884 12.8667 69.2084 13C68.7551 13.1067 68.4484 13.3333 68.2884 13.68C68.1551 14.0267 68.0884 14.5733 68.0884 15.32V33.76C68.0884 34.5333 68.1684 35.12 68.3284 35.52C68.5151 35.92 68.8618 36.1867 69.3684 36.32C69.9018 36.4533 70.7151 36.52 71.8084 36.52C71.8618 36.52 71.8884 36.6 71.8884 36.76C71.8884 36.92 71.8618 37 71.8084 37C71.0884 37 70.2751 36.9867 69.3684 36.96C68.4884 36.9333 67.5151 36.92 66.4484 36.92C65.4351 36.92 64.4751 36.9333 63.5684 36.96C62.6884 36.9867 61.8751 37 61.1284 37C61.0484 37 61.0084 36.92 61.0084 36.76C61.0084 36.6 61.0484 36.52 61.1284 36.52C62.1684 36.52 62.9551 36.4533 63.4884 36.32C64.0484 36.1867 64.4218 35.92 64.6084 35.52C64.7951 35.12 64.8884 34.5333 64.8884 33.76V15.24C64.8884 14.52 64.8084 13.9867 64.6484 13.64C64.4884 13.2667 64.1684 13.04 63.6884 12.96C63.2084 12.8533 62.5151 12.8 61.6084 12.8ZM84.9047 24.16L85.5047 23.24H93.7447L94.0247 24.16H84.9047ZM104.465 36.52C104.598 36.52 104.665 36.6 104.665 36.76C104.665 36.92 104.598 37 104.465 37C103.691 37 102.891 36.9733 102.065 36.92C101.265 36.8667 100.478 36.84 99.7047 36.84C98.8514 36.84 98.1047 36.8667 97.4647 36.92C96.8514 36.9733 96.158 37 95.3847 37C95.278 37 95.2247 36.92 95.2247 36.76C95.2247 36.6 95.278 36.52 95.3847 36.52C96.6914 36.52 97.4914 36.32 97.7847 35.92C98.078 35.4933 97.9314 34.6667 97.3447 33.44L88.7447 15.56L90.0247 13.64L82.2247 31.72C81.5314 33.3467 81.4914 34.56 82.1047 35.36C82.718 36.1333 83.8647 36.52 85.5447 36.52C85.678 36.52 85.7447 36.6 85.7447 36.76C85.7447 36.92 85.678 37 85.5447 37C84.7447 37 84.0114 36.9733 83.3447 36.92C82.678 36.8667 81.838 36.84 80.8247 36.84C79.838 36.84 79.038 36.8667 78.4247 36.92C77.838 36.9733 77.118 37 76.2647 37C76.158 37 76.1047 36.92 76.1047 36.76C76.1047 36.6 76.158 36.52 76.2647 36.52C76.9847 36.52 77.6114 36.3867 78.1447 36.12C78.678 35.8267 79.1847 35.3067 79.6647 34.56C80.1714 33.8133 80.718 32.7467 81.3047 31.36L89.8247 11.72C89.8514 11.64 89.9447 11.6 90.1047 11.6C90.2647 11.5733 90.358 11.6133 90.3847 11.72L99.9847 31.52C100.625 32.8267 101.171 33.8533 101.625 34.6C102.105 35.32 102.571 35.8267 103.025 36.12C103.478 36.3867 103.958 36.52 104.465 36.52ZM106.947 37.48C106.36 37.48 105.867 37.3467 105.467 37.08C105.067 36.8133 104.867 36.4 104.867 35.84C104.867 35.28 105.04 34.8933 105.387 34.68C105.76 34.4667 106.187 34.36 106.667 34.36C106.8 34.36 106.934 34.36 107.067 34.36C107.227 34.36 107.374 34.36 107.507 34.36C108.44 34.36 109.28 33.9867 110.027 33.24C110.8 32.4667 111.467 31.44 112.027 30.16C112.614 28.88 113.094 27.44 113.467 25.84C113.867 24.24 114.16 22.6 114.347 20.92C114.534 19.24 114.627 17.64 114.627 16.12C114.627 15.3467 114.534 14.6933 114.347 14.16C114.16 13.6 113.787 13.1867 113.227 12.92C112.667 12.6267 111.827 12.48 110.707 12.48C110.627 12.48 110.587 12.4 110.587 12.24C110.587 12.08 110.627 12 110.707 12C110.867 12 111.32 12 112.067 12C112.84 12 113.787 12 114.907 12C116.054 12 117.28 12 118.587 12C119.92 12 121.24 12 122.547 12C123.88 12 125.107 12 126.227 12C127.347 12 128.254 12 128.947 12C129.667 12 130.08 12 130.187 12C130.24 12 130.267 12.08 130.267 12.24C130.267 12.4 130.24 12.48 130.187 12.48C129.227 12.48 128.494 12.56 127.987 12.72C127.507 12.8533 127.187 13.12 127.027 13.52C126.867 13.8933 126.787 14.4667 126.787 15.24V33.76C126.787 34.5333 126.867 35.12 127.027 35.52C127.187 35.92 127.507 36.1867 127.987 36.32C128.494 36.4533 129.227 36.52 130.187 36.52C130.24 36.52 130.267 36.6 130.267 36.76C130.267 36.92 130.24 37 130.187 37C129.52 37 128.774 36.9867 127.947 36.96C127.12 36.9333 126.24 36.92 125.307 36.92C124.347 36.92 123.44 36.9333 122.587 36.96C121.734 36.9867 120.96 37 120.267 37C120.214 37 120.187 36.92 120.187 36.76C120.187 36.6 120.214 36.52 120.267 36.52C121.254 36.52 121.987 36.4533 122.467 36.32C122.947 36.1867 123.254 35.92 123.387 35.52C123.547 35.12 123.627 34.5333 123.627 33.76V15.52C123.627 14.6933 123.587 14.1067 123.507 13.76C123.427 13.4133 123.187 13.2133 122.787 13.16C122.414 13.08 121.76 13.04 120.827 13.04H118.627C117.907 13.04 117.32 13.1067 116.867 13.24C116.44 13.3467 116.134 13.6133 115.947 14.04C115.76 14.4667 115.667 15.16 115.667 16.12C115.667 17.1867 115.614 18.4533 115.507 19.92C115.4 21.3867 115.214 22.92 114.947 24.52C114.707 26.12 114.374 27.68 113.947 29.2C113.547 30.72 113.014 32.12 112.347 33.4C111.707 34.6533 110.947 35.6533 110.067 36.4C109.187 37.12 108.147 37.48 106.947 37.48ZM138.178 34.12L137.498 33.48L155.058 14.68L155.778 15.36L138.178 34.12ZM132.898 37C132.845 37 132.818 36.92 132.818 36.76C132.818 36.6 132.845 36.52 132.898 36.52C133.858 36.52 134.578 36.4533 135.058 36.32C135.565 36.1867 135.898 35.92 136.058 35.52C136.218 35.12 136.298 34.5333 136.298 33.76V15.24C136.298 14.4667 136.218 13.8933 136.058 13.52C135.898 13.12 135.578 12.8533 135.098 12.72C134.618 12.56 133.911 12.48 132.978 12.48C132.898 12.48 132.858 12.4 132.858 12.24C132.858 12.08 132.898 12 132.978 12C133.645 12 134.391 12.0267 135.218 12.08C136.045 12.1067 136.911 12.12 137.818 12.12C138.885 12.12 139.831 12.1067 140.658 12.08C141.511 12.0267 142.271 12 142.938 12C142.991 12 143.018 12.08 143.018 12.24C143.018 12.4 142.991 12.48 142.938 12.48C141.951 12.48 141.205 12.56 140.698 12.72C140.218 12.88 139.885 13.16 139.698 13.56C139.538 13.96 139.458 14.5467 139.458 15.32V33.76C139.458 34.5333 139.538 35.12 139.698 35.52C139.858 35.92 140.191 36.1867 140.698 36.32C141.205 36.4533 141.951 36.52 142.938 36.52C142.991 36.52 143.018 36.6 143.018 36.76C143.018 36.92 142.991 37 142.938 37C142.245 37 141.485 36.9867 140.658 36.96C139.831 36.9333 138.885 36.92 137.818 36.92C136.911 36.92 136.031 36.9333 135.178 36.96C134.325 36.9867 133.565 37 132.898 37ZM150.138 37C150.058 37 150.018 36.92 150.018 36.76C150.018 36.6 150.058 36.52 150.138 36.52C151.151 36.52 151.898 36.4533 152.378 36.32C152.885 36.1867 153.205 35.92 153.338 35.52C153.498 35.12 153.578 34.5333 153.578 33.76V15.32C153.578 14.5467 153.498 13.96 153.338 13.56C153.205 13.16 152.885 12.88 152.378 12.72C151.898 12.56 151.151 12.48 150.138 12.48C150.058 12.48 150.018 12.4 150.018 12.24C150.018 12.08 150.058 12 150.138 12C150.805 12 151.551 12.0267 152.378 12.08C153.205 12.1067 154.138 12.12 155.178 12.12C156.085 12.12 156.965 12.1067 157.818 12.08C158.698 12.0267 159.471 12 160.138 12C160.191 12 160.218 12.08 160.218 12.24C160.218 12.4 160.191 12.48 160.138 12.48C159.178 12.48 158.458 12.56 157.978 12.72C157.498 12.8533 157.165 13.12 156.978 13.52C156.818 13.8933 156.738 14.4667 156.738 15.24V33.76C156.738 34.5333 156.818 35.12 156.978 35.52C157.165 35.92 157.498 36.1867 157.978 36.32C158.458 36.4533 159.178 36.52 160.138 36.52C160.191 36.52 160.218 36.6 160.218 36.76C160.218 36.92 160.191 37 160.138 37C159.471 37 158.698 36.9867 157.818 36.96C156.965 36.9333 156.085 36.92 155.178 36.92C154.138 36.92 153.205 36.9333 152.378 36.96C151.551 36.9867 150.805 37 150.138 37Z" fill="white"/>
</g>
<g filter="url(#filter1_d_32_316)">
<path d="M113.4 73.52C113.453 73.52 113.48 73.6 113.48 73.76C113.48 73.92 113.453 74 113.4 74C112.733 74 111.987 73.9867 111.16 73.96C110.333 73.9333 109.467 73.92 108.56 73.92C107.573 73.92 106.653 73.9333 105.8 73.96C104.947 73.9867 104.173 74 103.48 74C103.427 74 103.4 73.92 103.4 73.76C103.4 73.6 103.427 73.52 103.48 73.52C104.467 73.52 105.187 73.4533 105.64 73.32C106.12 73.1867 106.44 72.92 106.6 72.52C106.76 72.12 106.84 71.5333 106.84 70.76V52.52C106.84 51.6933 106.8 51.1067 106.72 50.76C106.64 50.4133 106.4 50.2133 106 50.16C105.627 50.08 104.987 50.04 104.08 50.04H95.88C94.8933 50.04 94.1867 50.08 93.76 50.16C93.36 50.24 93.1067 50.4533 93 50.8C92.92 51.12 92.88 51.6933 92.88 52.52V70.76C92.88 71.5333 92.96 72.12 93.12 72.52C93.28 72.92 93.6 73.1867 94.08 73.32C94.56 73.4533 95.28 73.52 96.24 73.52C96.32 73.52 96.36 73.6 96.36 73.76C96.36 73.92 96.32 74 96.24 74C95.5467 74 94.7733 73.9867 93.92 73.96C93.0933 73.9333 92.1867 73.92 91.2 73.92C90.2933 73.92 89.4133 73.9333 88.56 73.96C87.7333 73.9867 86.9867 74 86.32 74C86.2667 74 86.24 73.92 86.24 73.76C86.24 73.6 86.2667 73.52 86.32 73.52C87.28 73.52 88 73.4533 88.48 73.32C88.9867 73.1867 89.32 72.92 89.48 72.52C89.64 72.12 89.72 71.5333 89.72 70.76V52.72C89.72 51.5733 89.52 50.7467 89.12 50.24C88.72 49.7333 87.8133 49.48 86.4 49.48C86.32 49.48 86.28 49.4 86.28 49.24C86.28 49.08 86.32 49 86.4 49C86.8533 49 87.76 49.0133 89.12 49.04C90.5067 49.0667 92.1467 49.0933 94.04 49.12C95.96 49.12 97.96 49.12 100.04 49.12C101.693 49.12 103.267 49.12 104.76 49.12C106.28 49.0933 107.653 49.08 108.88 49.08C110.133 49.0533 111.16 49.04 111.96 49.04C112.76 49.0133 113.24 49 113.4 49C113.453 49 113.48 49.08 113.48 49.24C113.48 49.4 113.453 49.48 113.4 49.48C111.96 49.48 111.027 49.7333 110.6 50.24C110.2 50.7467 110 51.5733 110 52.72V70.76C110 71.5333 110.08 72.12 110.24 72.52C110.427 72.92 110.76 73.1867 111.24 73.32C111.72 73.4533 112.44 73.52 113.4 73.52ZM129.406 74.48C127.486 74.48 125.739 74.1467 124.166 73.48C122.619 72.7867 121.286 71.84 120.166 70.64C119.072 69.44 118.219 68.0667 117.606 66.52C117.019 64.9467 116.726 63.28 116.726 61.52C116.726 59.36 117.139 57.4667 117.966 55.84C118.819 54.2133 119.939 52.8667 121.326 51.8C122.712 50.7067 124.232 49.8933 125.886 49.36C127.539 48.8267 129.179 48.56 130.806 48.56C132.779 48.56 134.539 48.92 136.086 49.64C137.659 50.3333 138.992 51.28 140.086 52.48C141.179 53.68 142.006 55.04 142.566 56.56C143.152 58.08 143.446 59.64 143.446 61.24C143.446 63.1067 143.072 64.84 142.326 66.44C141.579 68.04 140.552 69.44 139.246 70.64C137.966 71.84 136.472 72.7867 134.766 73.48C133.086 74.1467 131.299 74.48 129.406 74.48ZM130.806 73.6C132.486 73.6 134.006 73.1733 135.366 72.32C136.752 71.44 137.832 70.1733 138.606 68.52C139.406 66.84 139.806 64.7867 139.806 62.36C139.806 59.88 139.366 57.68 138.486 55.76C137.632 53.8133 136.406 52.2933 134.806 51.2C133.232 50.08 131.352 49.52 129.166 49.52C126.366 49.52 124.192 50.4667 122.646 52.36C121.126 54.2533 120.366 56.84 120.366 60.12C120.366 62.0133 120.606 63.7867 121.086 65.44C121.592 67.0667 122.312 68.4933 123.246 69.72C124.179 70.9467 125.286 71.9067 126.566 72.6C127.846 73.2667 129.259 73.6 130.806 73.6ZM159.024 74C158.944 74 158.904 73.92 158.904 73.76C158.904 73.6 158.944 73.52 159.024 73.52C159.984 73.52 160.704 73.4533 161.184 73.32C161.664 73.1867 161.984 72.92 162.144 72.52C162.331 72.12 162.424 71.5333 162.424 70.76V52.24C162.424 51.0933 162.171 50.3467 161.664 50C161.184 49.6533 160.224 49.48 158.784 49.48C158.731 49.48 158.704 49.4 158.704 49.24C158.704 49.08 158.731 49 158.784 49C159.451 49 160.238 49.0267 161.144 49.08C162.051 49.1067 162.944 49.12 163.824 49.12C164.811 49.12 165.771 49.1067 166.704 49.08C167.638 49.0267 168.451 49 169.144 49C169.198 49 169.224 49.08 169.224 49.24C169.224 49.4 169.198 49.48 169.144 49.48C167.704 49.48 166.731 49.6667 166.224 50.04C165.744 50.4133 165.504 51.1733 165.504 52.32V70.76C165.504 71.5333 165.571 72.12 165.704 72.52C165.864 72.92 166.184 73.1867 166.664 73.32C167.171 73.4533 167.904 73.52 168.864 73.52C168.944 73.52 168.984 73.6 168.984 73.76C168.984 73.92 168.944 74 168.864 74C168.198 74 167.438 73.9867 166.584 73.96C165.731 73.9333 164.811 73.92 163.824 73.92C162.944 73.92 162.078 73.9333 161.224 73.96C160.398 73.9867 159.664 74 159.024 74ZM144.144 74C144.064 74 144.024 73.92 144.024 73.76C144.024 73.6 144.064 73.52 144.144 73.52C145.104 73.4933 145.958 73.2267 146.704 72.72C147.478 72.1867 148.251 71.4 149.024 70.36C149.824 69.32 150.744 68.0267 151.784 66.48C152.638 65.2 153.344 64.1733 153.904 63.4C154.464 62.6267 154.998 62.0533 155.504 61.68C156.011 61.28 156.571 61.0133 157.184 60.88C157.798 60.7467 158.558 60.68 159.464 60.68C160.424 60.68 161.758 60.72 163.464 60.8L163.424 61.52C163.104 61.4933 162.798 61.4667 162.504 61.44C162.238 61.4133 161.984 61.4 161.744 61.4C160.971 61.4 160.318 61.48 159.784 61.64C159.278 61.7733 158.798 62.04 158.344 62.44C157.891 62.84 157.384 63.4267 156.824 64.2C156.264 64.9467 155.584 65.96 154.784 67.24C153.691 68.92 152.838 70.2267 152.224 71.16C151.611 72.0667 151.144 72.7333 150.824 73.16C150.504 73.56 150.264 73.8 150.104 73.88C149.944 73.96 149.744 74 149.504 74H144.144ZM157.664 61.32L152.384 53.96C151.638 52.8667 150.878 52 150.104 51.36C149.358 50.6933 148.571 50.2133 147.744 49.92C146.918 49.6267 146.024 49.48 145.064 49.48C145.011 49.48 144.984 49.4 144.984 49.24C144.984 49.08 145.011 49 145.064 49C145.651 49 146.264 49.0267 146.904 49.08C147.571 49.1067 148.451 49.12 149.544 49.12C150.638 49.12 151.571 49.1067 152.344 49.08C153.144 49.0267 153.918 49 154.664 49C154.718 49 154.744 49.08 154.744 49.24C154.744 49.4 154.718 49.48 154.664 49.48C153.704 49.48 153.064 49.6533 152.744 50C152.451 50.3467 152.438 50.8933 152.704 51.64C152.971 52.36 153.491 53.3067 154.264 54.48L158.344 60.96L157.664 61.32ZM178.344 74C178.158 74 177.971 73.96 177.784 73.88C177.598 73.8 177.344 73.56 177.024 73.16C176.704 72.76 176.238 72.1067 175.624 71.2C175.011 70.2667 174.158 68.96 173.064 67.28C172.264 66.0267 171.584 65.0133 171.024 64.24C170.491 63.4667 169.998 62.88 169.544 62.48C169.091 62.0533 168.598 61.7733 168.064 61.64C167.531 61.48 166.878 61.4 166.104 61.4C165.891 61.4 165.638 61.4133 165.344 61.44C165.078 61.4667 164.798 61.4933 164.504 61.52L164.464 60.8C166.144 60.72 167.451 60.68 168.384 60.68C169.344 60.68 170.131 60.7467 170.744 60.88C171.358 61.0133 171.904 61.28 172.384 61.68C172.891 62.0533 173.424 62.6267 173.984 63.4C174.544 64.1733 175.251 65.2 176.104 66.48C177.171 68.0267 178.091 69.32 178.864 70.36C179.638 71.4 180.398 72.1867 181.144 72.72C181.918 73.2267 182.784 73.4933 183.744 73.52C183.824 73.52 183.864 73.6 183.864 73.76C183.864 73.92 183.824 74 183.744 74H178.344ZM170.224 61.32L169.504 60.96L173.584 54.6C174.358 53.3733 174.878 52.4 175.144 51.68C175.438 50.9333 175.438 50.3867 175.144 50.04C174.851 49.6667 174.224 49.48 173.264 49.48C173.184 49.48 173.144 49.4 173.144 49.24C173.144 49.08 173.184 49 173.264 49C173.984 49 174.744 49.0267 175.544 49.08C176.344 49.1067 177.278 49.12 178.344 49.12C179.464 49.12 180.344 49.1067 180.984 49.08C181.624 49.0267 182.238 49 182.824 49C182.878 49 182.904 49.08 182.904 49.24C182.904 49.4 182.878 49.48 182.824 49.48C181.891 49.48 180.998 49.6267 180.144 49.92C179.318 50.2133 178.531 50.6933 177.784 51.36C177.038 52 176.278 52.8667 175.504 53.96L170.224 61.32ZM202.666 74H185.626C185.546 74 185.506 73.92 185.506 73.76C185.506 73.6 185.546 73.52 185.626 73.52C186.533 73.52 187.213 73.4533 187.666 73.32C188.146 73.1867 188.466 72.92 188.626 72.52C188.786 72.12 188.866 71.5333 188.866 70.76V52.24C188.866 51.4667 188.786 50.8933 188.626 50.52C188.466 50.12 188.146 49.8533 187.666 49.72C187.213 49.56 186.533 49.48 185.626 49.48C185.546 49.48 185.506 49.4 185.506 49.24C185.506 49.08 185.546 49 185.626 49H201.946C202.213 49 202.346 49.12 202.346 49.36L202.426 54.4C202.426 54.48 202.346 54.5333 202.186 54.56C202.053 54.56 201.973 54.52 201.946 54.44C201.76 52.9733 201.24 51.8667 200.386 51.12C199.533 50.3467 198.413 49.96 197.026 49.96H194.986C194.186 49.96 193.573 50.0267 193.146 50.16C192.72 50.2933 192.426 50.5467 192.266 50.92C192.106 51.2667 192.026 51.76 192.026 52.4V70.6C192.026 71.24 192.093 71.7467 192.226 72.12C192.386 72.4667 192.666 72.72 193.066 72.88C193.466 73.0133 194.026 73.08 194.746 73.08H197.386C198.906 73.08 200.16 72.64 201.146 71.76C202.133 70.8533 202.813 69.5733 203.186 67.92C203.186 67.84 203.266 67.8133 203.426 67.84C203.586 67.8667 203.666 67.92 203.666 68C203.56 68.72 203.466 69.5867 203.386 70.6C203.306 71.6133 203.266 72.5467 203.266 73.4C203.266 73.8 203.066 74 202.666 74ZM200.426 64.8C200.426 63.6533 200.093 62.8133 199.426 62.28C198.786 61.72 197.746 61.44 196.306 61.44H190.506V60.52H196.426C197.786 60.52 198.786 60.2933 199.426 59.84C200.066 59.36 200.386 58.6267 200.386 57.64C200.386 57.5867 200.453 57.56 200.586 57.56C200.746 57.56 200.826 57.5867 200.826 57.64C200.826 58.4667 200.813 59.1067 200.786 59.56C200.786 60.0133 200.786 60.4933 200.786 61C200.786 61.6133 200.8 62.2267 200.826 62.84C200.88 63.4533 200.906 64.1067 200.906 64.8C200.906 64.8533 200.826 64.88 200.666 64.88C200.506 64.88 200.426 64.8533 200.426 64.8ZM207.986 74.48C207.399 74.48 206.906 74.3467 206.506 74.08C206.106 73.8133 205.906 73.4 205.906 72.84C205.906 72.28 206.079 71.8933 206.426 71.68C206.799 71.4667 207.226 71.36 207.706 71.36C207.839 71.36 207.973 71.36 208.106 71.36C208.266 71.36 208.413 71.36 208.546 71.36C209.479 71.36 210.319 70.9867 211.066 70.24C211.839 69.4667 212.506 68.44 213.066 67.16C213.653 65.88 214.133 64.44 214.506 62.84C214.906 61.24 215.199 59.6 215.386 57.92C215.573 56.24 215.666 54.64 215.666 53.12C215.666 52.3467 215.573 51.6933 215.386 51.16C215.199 50.6 214.826 50.1867 214.266 49.92C213.706 49.6267 212.866 49.48 211.746 49.48C211.666 49.48 211.626 49.4 211.626 49.24C211.626 49.08 211.666 49 211.746 49C211.906 49 212.359 49 213.106 49C213.879 49 214.826 49 215.946 49C217.093 49 218.319 49 219.626 49C220.959 49 222.279 49 223.586 49C224.919 49 226.146 49 227.266 49C228.386 49 229.293 49 229.986 49C230.706 49 231.119 49 231.226 49C231.279 49 231.306 49.08 231.306 49.24C231.306 49.4 231.279 49.48 231.226 49.48C230.266 49.48 229.533 49.56 229.026 49.72C228.546 49.8533 228.226 50.12 228.066 50.52C227.906 50.8933 227.826 51.4667 227.826 52.24V70.76C227.826 71.5333 227.906 72.12 228.066 72.52C228.226 72.92 228.546 73.1867 229.026 73.32C229.533 73.4533 230.266 73.52 231.226 73.52C231.279 73.52 231.306 73.6 231.306 73.76C231.306 73.92 231.279 74 231.226 74C230.559 74 229.813 73.9867 228.986 73.96C228.159 73.9333 227.279 73.92 226.346 73.92C225.386 73.92 224.479 73.9333 223.626 73.96C222.773 73.9867 221.999 74 221.306 74C221.253 74 221.226 73.92 221.226 73.76C221.226 73.6 221.253 73.52 221.306 73.52C222.293 73.52 223.026 73.4533 223.506 73.32C223.986 73.1867 224.293 72.92 224.426 72.52C224.586 72.12 224.666 71.5333 224.666 70.76V52.52C224.666 51.6933 224.626 51.1067 224.546 50.76C224.466 50.4133 224.226 50.2133 223.826 50.16C223.453 50.08 222.799 50.04 221.866 50.04H219.666C218.946 50.04 218.359 50.1067 217.906 50.24C217.479 50.3467 217.173 50.6133 216.986 51.04C216.799 51.4667 216.706 52.16 216.706 53.12C216.706 54.1867 216.653 55.4533 216.546 56.92C216.439 58.3867 216.253 59.92 215.986 61.52C215.746 63.12 215.413 64.68 214.986 66.2C214.586 67.72 214.053 69.12 213.386 70.4C212.746 71.6533 211.986 72.6533 211.106 73.4C210.226 74.12 209.186 74.48 207.986 74.48ZM241.217 61.16L241.817 60.24H250.057L250.337 61.16H241.217ZM260.777 73.52C260.911 73.52 260.977 73.6 260.977 73.76C260.977 73.92 260.911 74 260.777 74C260.004 74 259.204 73.9733 258.377 73.92C257.577 73.8667 256.791 73.84 256.017 73.84C255.164 73.84 254.417 73.8667 253.777 73.92C253.164 73.9733 252.471 74 251.697 74C251.591 74 251.537 73.92 251.537 73.76C251.537 73.6 251.591 73.52 251.697 73.52C253.004 73.52 253.804 73.32 254.097 72.92C254.391 72.4933 254.244 71.6667 253.657 70.44L245.057 52.56L246.337 50.64L238.537 68.72C237.844 70.3467 237.804 71.56 238.417 72.36C239.031 73.1333 240.177 73.52 241.857 73.52C241.991 73.52 242.057 73.6 242.057 73.76C242.057 73.92 241.991 74 241.857 74C241.057 74 240.324 73.9733 239.657 73.92C238.991 73.8667 238.151 73.84 237.137 73.84C236.151 73.84 235.351 73.8667 234.737 73.92C234.151 73.9733 233.431 74 232.577 74C232.471 74 232.417 73.92 232.417 73.76C232.417 73.6 232.471 73.52 232.577 73.52C233.297 73.52 233.924 73.3867 234.457 73.12C234.991 72.8267 235.497 72.3067 235.977 71.56C236.484 70.8133 237.031 69.7467 237.617 68.36L246.137 48.72C246.164 48.64 246.257 48.6 246.417 48.6C246.577 48.5733 246.671 48.6133 246.697 48.72L256.297 68.52C256.937 69.8267 257.484 70.8533 257.937 71.6C258.417 72.32 258.884 72.8267 259.337 73.12C259.791 73.3867 260.271 73.52 260.777 73.52ZM283.339 52.32C283.339 51.5467 283.259 50.96 283.099 50.56C282.966 50.16 282.646 49.88 282.139 49.72C281.659 49.56 280.913 49.48 279.899 49.48C279.819 49.48 279.779 49.4 279.779 49.24C279.779 49.08 279.819 49 279.899 49C280.539 49 281.273 49.0267 282.099 49.08C282.953 49.1067 283.899 49.12 284.939 49.12C285.846 49.12 286.726 49.1067 287.579 49.08C288.459 49.0267 289.219 49 289.859 49C289.939 49 289.979 49.08 289.979 49.24C289.979 49.4 289.939 49.48 289.859 49.48C288.926 49.48 288.206 49.56 287.699 49.72C287.219 49.8533 286.899 50.12 286.739 50.52C286.579 50.8933 286.499 51.4667 286.499 52.24V70.76C286.499 71.5333 286.579 72.12 286.739 72.52C286.899 72.92 287.219 73.1867 287.699 73.32C288.206 73.4533 288.926 73.52 289.859 73.52C289.939 73.52 289.979 73.6 289.979 73.76C289.979 73.92 289.939 74 289.859 74C289.219 74 288.459 73.9867 287.579 73.96C286.726 73.9333 285.846 73.92 284.939 73.92C283.899 73.92 282.953 73.9333 282.099 73.96C281.273 73.9867 280.539 74 279.899 74C279.819 74 279.779 73.92 279.779 73.76C279.779 73.6 279.819 73.52 279.899 73.52C280.913 73.52 281.659 73.4533 282.139 73.32C282.646 73.1867 282.966 72.92 283.099 72.52C283.259 72.12 283.339 71.5333 283.339 70.76V52.32ZM267.059 61.44V60.52H284.739V61.44H267.059ZM265.579 70.76V52.24C265.579 51.4667 265.499 50.8933 265.339 50.52C265.179 50.12 264.859 49.8533 264.379 49.72C263.899 49.56 263.193 49.48 262.259 49.48C262.179 49.48 262.139 49.4 262.139 49.24C262.139 49.08 262.179 49 262.259 49C262.926 49 263.673 49.0267 264.499 49.08C265.326 49.1067 266.193 49.12 267.099 49.12C268.166 49.12 269.113 49.1067 269.939 49.08C270.793 49.0267 271.553 49 272.219 49C272.273 49 272.299 49.08 272.299 49.24C272.299 49.4 272.273 49.48 272.219 49.48C271.233 49.48 270.486 49.56 269.979 49.72C269.499 49.88 269.166 50.16 268.979 50.56C268.819 50.96 268.739 51.5467 268.739 52.32V70.76C268.739 71.5333 268.819 72.12 268.979 72.52C269.139 72.92 269.473 73.1867 269.979 73.32C270.486 73.4533 271.233 73.52 272.219 73.52C272.273 73.52 272.299 73.6 272.299 73.76C272.299 73.92 272.273 74 272.219 74C271.526 74 270.766 73.9867 269.939 73.96C269.113 73.9333 268.166 73.92 267.099 73.92C266.193 73.92 265.313 73.9333 264.459 73.96C263.606 73.9867 262.846 74 262.179 74C262.126 74 262.099 73.92 262.099 73.76C262.099 73.6 262.126 73.52 262.179 73.52C263.139 73.52 263.859 73.4533 264.339 73.32C264.846 73.1867 265.179 72.92 265.339 72.52C265.499 72.12 265.579 71.5333 265.579 70.76ZM297.889 71.12L297.209 70.48L314.769 51.68L315.489 52.36L297.889 71.12ZM292.609 74C292.556 74 292.529 73.92 292.529 73.76C292.529 73.6 292.556 73.52 292.609 73.52C293.569 73.52 294.289 73.4533 294.769 73.32C295.276 73.1867 295.609 72.92 295.769 72.52C295.929 72.12 296.009 71.5333 296.009 70.76V52.24C296.009 51.4667 295.929 50.8933 295.769 50.52C295.609 50.12 295.289 49.8533 294.809 49.72C294.329 49.56 293.622 49.48 292.689 49.48C292.609 49.48 292.569 49.4 292.569 49.24C292.569 49.08 292.609 49 292.689 49C293.356 49 294.102 49.0267 294.929 49.08C295.756 49.1067 296.622 49.12 297.529 49.12C298.596 49.12 299.542 49.1067 300.369 49.08C301.222 49.0267 301.982 49 302.649 49C302.702 49 302.729 49.08 302.729 49.24C302.729 49.4 302.702 49.48 302.649 49.48C301.662 49.48 300.916 49.56 300.409 49.72C299.929 49.88 299.596 50.16 299.409 50.56C299.249 50.96 299.169 51.5467 299.169 52.32V70.76C299.169 71.5333 299.249 72.12 299.409 72.52C299.569 72.92 299.902 73.1867 300.409 73.32C300.916 73.4533 301.662 73.52 302.649 73.52C302.702 73.52 302.729 73.6 302.729 73.76C302.729 73.92 302.702 74 302.649 74C301.956 74 301.196 73.9867 300.369 73.96C299.542 73.9333 298.596 73.92 297.529 73.92C296.622 73.92 295.742 73.9333 294.889 73.96C294.036 73.9867 293.276 74 292.609 74ZM309.849 74C309.769 74 309.729 73.92 309.729 73.76C309.729 73.6 309.769 73.52 309.849 73.52C310.862 73.52 311.609 73.4533 312.089 73.32C312.596 73.1867 312.916 72.92 313.049 72.52C313.209 72.12 313.289 71.5333 313.289 70.76V52.32C313.289 51.5467 313.209 50.96 313.049 50.56C312.916 50.16 312.596 49.88 312.089 49.72C311.609 49.56 310.862 49.48 309.849 49.48C309.769 49.48 309.729 49.4 309.729 49.24C309.729 49.08 309.769 49 309.849 49C310.516 49 311.262 49.0267 312.089 49.08C312.916 49.1067 313.849 49.12 314.889 49.12C315.796 49.12 316.676 49.1067 317.529 49.08C318.409 49.0267 319.182 49 319.849 49C319.902 49 319.929 49.08 319.929 49.24C319.929 49.4 319.902 49.48 319.849 49.48C318.889 49.48 318.169 49.56 317.689 49.72C317.209 49.8533 316.876 50.12 316.689 50.52C316.529 50.8933 316.449 51.4667 316.449 52.24V70.76C316.449 71.5333 316.529 72.12 316.689 72.52C316.876 72.92 317.209 73.1867 317.689 73.32C318.169 73.4533 318.889 73.52 319.849 73.52C319.902 73.52 319.929 73.6 319.929 73.76C319.929 73.92 319.902 74 319.849 74C319.182 74 318.409 73.9867 317.529 73.96C316.676 73.9333 315.796 73.92 314.889 73.92C313.849 73.92 312.916 73.9333 312.089 73.96C311.262 73.9867 310.516 74 309.849 74ZM343.97 73.52C344.023 73.52 344.05 73.6 344.05 73.76C344.05 73.92 344.023 74 343.97 74C343.303 74 342.543 73.9867 341.69 73.96C340.863 73.9333 339.97 73.92 339.01 73.92C338.077 73.92 337.197 73.9333 336.37 73.96C335.57 73.9867 334.837 74 334.17 74C334.117 74 334.09 73.92 334.09 73.76C334.09 73.6 334.117 73.52 334.17 73.52C335.13 73.52 335.837 73.4533 336.29 73.32C336.743 73.1867 337.037 72.92 337.17 72.52C337.33 72.12 337.41 71.5333 337.41 70.76V60.84L338.41 61.04C337.69 61.04 337.037 61.1067 336.45 61.24C335.863 61.3733 335.29 61.6533 334.73 62.08C334.197 62.48 333.623 63.0933 333.01 63.92C332.397 64.7467 331.69 65.8667 330.89 67.28C329.877 69.04 329.063 70.3867 328.45 71.32C327.837 72.2533 327.357 72.9067 327.01 73.28C326.69 73.6533 326.423 73.8667 326.21 73.92C326.023 73.9733 325.81 74 325.57 74H321.09C321.01 74 320.97 73.92 320.97 73.76C320.97 73.6 321.01 73.52 321.09 73.52C322.023 73.4933 322.823 73.2267 323.49 72.72C324.183 72.1867 324.863 71.4 325.53 70.36C326.223 69.32 327.037 68.0267 327.97 66.48C328.797 65.04 329.583 63.9333 330.33 63.16C331.077 62.3867 331.877 61.8267 332.73 61.48C333.583 61.1333 334.53 60.92 335.57 60.84L335.85 61.12C332.863 61.0933 330.597 60.5333 329.05 59.44C327.53 58.3467 326.77 56.88 326.77 55.04C326.77 53.8133 327.103 52.7467 327.77 51.84C328.437 50.9067 329.343 50.1867 330.49 49.68C331.637 49.1467 332.943 48.88 334.41 48.88C334.97 48.88 335.703 48.92 336.61 49C337.543 49.08 338.343 49.12 339.01 49.12C339.97 49.12 340.863 49.1067 341.69 49.08C342.517 49.0267 343.277 49 343.97 49C344.023 49 344.05 49.08 344.05 49.24C344.05 49.4 344.023 49.48 343.97 49.48C342.983 49.48 342.25 49.56 341.77 49.72C341.29 49.8533 340.97 50.12 340.81 50.52C340.65 50.8933 340.57 51.4667 340.57 52.24V70.76C340.57 71.5333 340.65 72.12 340.81 72.52C340.97 72.92 341.29 73.1867 341.77 73.32C342.25 73.4533 342.983 73.52 343.97 73.52ZM330.05 54.04C330.05 55.9067 330.557 57.44 331.57 58.64C332.61 59.8133 334.157 60.4 336.21 60.4C336.583 60.4 336.983 60.3867 337.41 60.36C337.863 60.3067 338.223 60.24 338.49 60.16L337.41 60.52V52.32C337.41 51.5467 337.25 50.9467 336.93 50.52C336.637 50.0933 336.263 49.8 335.81 49.64C335.357 49.48 334.863 49.4 334.33 49.4C331.477 49.4 330.05 50.9467 330.05 54.04Z" fill="white"/>
</g>
<defs>
<filter id="filter0_d_32_316" x="0.679993" y="10.8401" width="163.538" height="41.0798" filterUnits="userSpaceOnUse" color-interpolation-filters="sRGB">
<feFlood flood-opacity="0" result="BackgroundImageFix"/>
<feColorMatrix in="SourceAlpha" type="matrix" values="0 0 0 0 0 0 0 0 0 0 0 0 0 0 0 0 0 0 127 0" result="hardAlpha"/>
<feOffset dy="4"/>
<feGaussianBlur stdDeviation="2"/>
<feComposite in2="hardAlpha" operator="out"/>
<feColorMatrix type="matrix" values="0 0 0 0 0 0 0 0 0 0 0 0 0 0 0 0 0 0 0.25 0"/>
<feBlend mode="normal" in2="BackgroundImageFix" result="effect1_dropShadow_32_316"/>
<feBlend mode="normal" in="SourceGraphic" in2="effect1_dropShadow_32_316" result="shape"/>
</filter>
<filter id="filter1_d_32_316" x="82.24" y="48.5601" width="265.81" height="33.9199" filterUnits="userSpaceOnUse" color-interpolation-filters="sRGB">
<feFlood flood-opacity="0" result="BackgroundImageFix"/>
<feColorMatrix in="SourceAlpha" type="matrix" values="0 0 0 0 0 0 0 0 0 0 0 0 0 0 0 0 0 0 127 0" result="hardAlpha"/>
<feOffset dy="4"/>
<feGaussianBlur stdDeviation="2"/>
<feComposite in2="hardAlpha" operator="out"/>
<feColorMatrix type="matrix" values="0 0 0 0 0 0 0 0 0 0 0 0 0 0 0 0 0 0 0.25 0"/>
<feBlend mode="normal" in2="BackgroundImageFix" result="effect1_dropShadow_32_316"/>
<feBlend mode="normal" in="SourceGraphic" in2="effect1_dropShadow_32_316" result="shape"/>
</filter>
</defs>
</svg>
