<svg width="351" height="75" viewBox="0 0 351 75" fill="none" xmlns="http://www.w3.org/2000/svg">
<path d="M139.95 23.8976C135.718 23.8976 133.602 26.4576 133.602 31.5776C133.602 32.9088 133.772 34.3595 134.114 35.9296C135.65 34.5984 136.913 33.4379 137.902 32.448C138.926 31.424 139.985 30.1952 141.077 28.7616C143.193 25.9627 144.251 22.7712 144.251 19.1872C144.729 19.2896 145.122 19.5627 145.429 20.0064C145.77 20.416 145.941 20.9963 145.941 21.7472C145.941 22.4981 145.821 23.3344 145.582 24.256C145.343 25.1776 145.087 25.9797 144.814 26.6624C144.541 27.3451 144.046 28.1643 143.33 29.12C142.647 30.0416 142.135 30.7243 141.794 31.168C141.452 31.6117 140.77 32.3285 139.746 33.3184C137.288 35.6395 135.906 36.9024 135.598 37.1072C135.291 37.312 135.103 37.4485 135.035 37.5168C134.967 37.5851 134.899 37.6533 134.83 37.7216C134.762 37.7557 134.694 37.8069 134.626 37.8752C136.059 43.0976 138.551 47.7397 142.101 51.8016C143.773 49.856 144.934 47.5349 145.582 44.8384C145.992 43.2683 146.197 41.92 146.197 40.7936C146.197 39.6672 146.094 38.7115 145.89 37.9264C145.412 36.0149 144.49 35.0592 143.125 35.0592C143.33 34.3424 143.91 33.984 144.866 33.984C146.197 33.984 147.084 35.0763 147.528 37.2608C147.699 38.0459 147.784 39.0699 147.784 40.3328C147.784 41.5616 147.545 43.1317 147.067 45.0432C146.282 48.1152 144.934 50.7264 143.022 52.8768C146.538 56.4949 150.02 58.304 153.467 58.304C155.549 58.304 156.915 57.6555 157.563 56.3584C157.905 55.6416 157.887 55.1808 157.512 54.976C157.478 54.9419 157.427 54.9248 157.358 54.9248C157.358 54.72 157.461 54.4981 157.666 54.2592C157.973 53.8837 158.382 53.696 158.894 53.696C159.679 53.696 160.072 54.2251 160.072 55.2832C160.072 56.3413 159.389 57.3483 158.024 58.304C156.625 59.2597 154.85 59.7376 152.699 59.7376C148.808 59.7376 144.951 58.0309 141.128 54.6176C138.67 56.4949 136.025 57.4336 133.192 57.4336C130.393 57.4336 128.072 56.7851 126.229 55.488C124.42 54.1909 123.515 52.4331 123.515 50.2144C123.515 47.9957 124.147 46.016 125.41 44.2752C126.673 42.5344 128.55 40.5888 131.042 38.4384C130.359 36.1173 130.018 34.0523 130.018 32.2432C130.018 30.4 130.274 28.7616 130.786 27.328C131.298 25.8944 132.219 24.7509 133.55 23.8976C134.882 23.0443 136.554 22.6176 138.568 22.6176C139.046 22.6176 139.353 22.7541 139.49 23.0272C139.66 23.3003 139.814 23.5904 139.95 23.8976ZM132.885 56.0512C135.581 56.0512 137.988 55.2661 140.104 53.696C136.452 50.0437 133.67 45.6405 131.758 40.4864C128.004 43.9339 126.126 47.2277 126.126 50.368C126.126 52.1429 126.792 53.5424 128.123 54.5664C129.454 55.5563 131.042 56.0512 132.885 56.0512Z" fill="#DADADA" fill-opacity="0.5"/>
<path d="M26.48 36.52C26.72 36.52 26.8533 36.5467 26.88 36.6C26.9333 36.6267 26.96 36.76 26.96 37C26.96 37.3733 26.92 37.8 26.84 38.28C26.7867 38.76 26.7333 39.4133 26.68 40.24C26.6267 41.0667 26.6 42.24 26.6 43.76C26.6 43.8667 26.52 43.92 26.36 43.92C26.2 43.92 26.12 43.8667 26.12 43.76C26.12 41.4933 25.56 39.8 24.44 38.68C23.3467 37.56 21.6 37 19.2 37H7.44C6.21333 37 5.17333 37.2 4.32 37.6C3.46667 38.0267 2.81333 38.7333 2.36 39.72C1.90667 40.7067 1.68 42.0533 1.68 43.76C1.68 43.8667 1.6 43.92 1.44 43.92C1.28 43.92 1.2 43.8667 1.2 43.76C1.2 42.64 1.17333 41.7067 1.12 40.96C1.06667 40.2133 1 39.5867 0.92 39.08C0.866667 38.6 0.813333 38.1867 0.76 37.84C0.706667 37.52 0.68 37.2 0.68 36.88C0.68 36.6667 0.693333 36.5333 0.72 36.48C0.773333 36.4267 0.906667 36.4 1.12 36.4C2.24 36.4 3.24 36.04 4.12 35.32C5.02667 34.5733 5.82667 33.5867 6.52 32.36C7.24 31.1067 7.85333 29.7333 8.36 28.24C8.89333 26.72 9.32 25.1867 9.64 23.64C9.98667 22.0667 10.24 20.5867 10.4 19.2C10.56 17.8133 10.64 16.64 10.64 15.68C10.64 15.04 10.5333 14.48 10.32 14C10.1333 13.52 9.73333 13.1467 9.12 12.88C8.53333 12.6133 7.65333 12.48 6.48 12.48C6.42667 12.48 6.4 12.4 6.4 12.24C6.4 12.08 6.42667 12 6.48 12C6.64 12 7.09333 12 7.84 12C8.58667 12 9.52 12 10.64 12C11.7867 12 13.0133 12 14.32 12C15.6267 12 16.9333 12 18.24 12C19.5467 12 20.7467 12 21.84 12C22.9333 12 23.8267 12 24.52 12C25.24 12 25.6533 12 25.76 12C25.8133 12 25.84 12.08 25.84 12.24C25.84 12.4 25.8133 12.48 25.76 12.48C24.8 12.48 24.08 12.56 23.6 12.72C23.12 12.8533 22.7867 13.12 22.6 13.52C22.44 13.8933 22.36 14.4667 22.36 15.24V33.76C22.36 34.4267 22.3733 34.96 22.4 35.36C22.4533 35.7333 22.6 36 22.84 36.16C23.08 36.32 23.48 36.4267 24.04 36.48C24.6267 36.5067 25.44 36.52 26.48 36.52ZM19.2 33.68V15.32C19.2 14.52 19.16 13.96 19.08 13.64C19 13.2933 18.76 13.0933 18.36 13.04C17.9867 12.96 17.3467 12.92 16.44 12.92H14.36C13.5867 12.92 13.04 13.04 12.72 13.28C12.4 13.4933 12.1867 13.92 12.08 14.56C12 15.1733 11.9067 16.1067 11.8 17.36C11.7467 17.9467 11.64 18.76 11.48 19.8C11.32 20.84 11.1067 22 10.84 23.28C10.6 24.56 10.2933 25.88 9.92 27.24C9.54667 28.5733 9.10667 29.8667 8.6 31.12C8.09333 32.3467 7.49333 33.44 6.8 34.4C6.13333 35.36 5.37333 36.08 4.52 36.56L4.44 36.04H16.24C17.2267 36.04 17.92 36.0133 18.32 35.96C18.7467 35.9067 19 35.72 19.08 35.4C19.16 35.0533 19.2 34.48 19.2 33.68ZM46.7288 37H29.6888C29.6088 37 29.5688 36.92 29.5688 36.76C29.5688 36.6 29.6088 36.52 29.6888 36.52C30.5954 36.52 31.2754 36.4533 31.7288 36.32C32.2088 36.1867 32.5288 35.92 32.6888 35.52C32.8488 35.12 32.9288 34.5333 32.9288 33.76V15.24C32.9288 14.4667 32.8488 13.8933 32.6888 13.52C32.5288 13.12 32.2088 12.8533 31.7288 12.72C31.2754 12.56 30.5954 12.48 29.6888 12.48C29.6088 12.48 29.5688 12.4 29.5688 12.24C29.5688 12.08 29.6088 12 29.6888 12H46.0088C46.2754 12 46.4088 12.12 46.4088 12.36L46.4888 17.4C46.4888 17.48 46.4088 17.5333 46.2488 17.56C46.1154 17.56 46.0354 17.52 46.0088 17.44C45.8221 15.9733 45.3021 14.8667 44.4488 14.12C43.5954 13.3467 42.4754 12.96 41.0888 12.96H39.0488C38.2488 12.96 37.6354 13.0267 37.2088 13.16C36.7821 13.2933 36.4888 13.5467 36.3288 13.92C36.1688 14.2667 36.0888 14.76 36.0888 15.4V33.6C36.0888 34.24 36.1554 34.7467 36.2888 35.12C36.4488 35.4667 36.7288 35.72 37.1288 35.88C37.5288 36.0133 38.0888 36.08 38.8088 36.08H41.4488C42.9688 36.08 44.2221 35.64 45.2088 34.76C46.1954 33.8533 46.8754 32.5733 47.2488 30.92C47.2488 30.84 47.3288 30.8133 47.4888 30.84C47.6488 30.8667 47.7288 30.92 47.7288 31C47.6221 31.72 47.5288 32.5867 47.4488 33.6C47.3688 34.6133 47.3288 35.5467 47.3288 36.4C47.3288 36.8 47.1288 37 46.7288 37ZM44.4888 27.8C44.4888 26.6533 44.1554 25.8133 43.4888 25.28C42.8488 24.72 41.8088 24.44 40.3688 24.44H34.5688V23.52H40.4888C41.8488 23.52 42.8488 23.2933 43.4888 22.84C44.1288 22.36 44.4488 21.6267 44.4488 20.64C44.4488 20.5867 44.5154 20.56 44.6488 20.56C44.8088 20.56 44.8888 20.5867 44.8888 20.64C44.8888 21.4667 44.8754 22.1067 44.8488 22.56C44.8488 23.0133 44.8488 23.4933 44.8488 24C44.8488 24.6133 44.8621 25.2267 44.8888 25.84C44.9421 26.4533 44.9688 27.1067 44.9688 27.8C44.9688 27.8533 44.8888 27.88 44.7288 27.88C44.5688 27.88 44.4888 27.8533 44.4888 27.8ZM57.6084 12.8C55.9551 12.8 54.6618 13.2667 53.7284 14.2C52.7951 15.1067 52.1018 16.5733 51.6484 18.6C51.6218 18.6533 51.5284 18.68 51.3684 18.68C51.2351 18.68 51.1684 18.64 51.1684 18.56C51.2218 18.2133 51.2751 17.72 51.3284 17.08C51.4084 16.44 51.4751 15.7467 51.5284 15C51.5818 14.2533 51.6218 13.5333 51.6484 12.84C51.7018 12.1467 51.7284 11.5733 51.7284 11.12C51.7284 10.9867 51.8084 10.92 51.9684 10.92C52.1284 10.92 52.2084 10.9867 52.2084 11.12C52.2084 11.3867 52.3418 11.5867 52.6084 11.72C52.8751 11.8267 53.1818 11.9067 53.5284 11.96C53.8751 11.9867 54.1684 12 54.4084 12C56.7018 12.08 59.3818 12.12 62.4484 12.12C64.3151 12.12 65.8084 12.1067 66.9284 12.08C68.0484 12.0267 69.1284 12 70.1684 12C71.0751 12 71.7684 11.9467 72.2484 11.84C72.7551 11.7067 73.0751 11.4267 73.2084 11C73.2351 10.8933 73.3151 10.84 73.4484 10.84C73.6084 10.84 73.6884 10.8933 73.6884 11C73.6351 11.4 73.5818 11.96 73.5284 12.68C73.5018 13.4 73.4618 14.1467 73.4084 14.92C73.3818 15.6933 73.3551 16.4133 73.3284 17.08C73.3018 17.7467 73.2884 18.24 73.2884 18.56C73.2884 18.64 73.2084 18.68 73.0484 18.68C72.9151 18.68 72.8484 18.64 72.8484 18.56C72.6618 16.48 72.1284 15 71.2484 14.12C70.3684 13.24 69.0618 12.8 67.3284 12.8C66.3951 12.8 65.6884 12.8667 65.2084 13C64.7551 13.1067 64.4484 13.3333 64.2884 13.68C64.1551 14.0267 64.0884 14.5733 64.0884 15.32V33.76C64.0884 34.5333 64.1684 35.12 64.3284 35.52C64.5151 35.92 64.8618 36.1867 65.3684 36.32C65.9018 36.4533 66.7151 36.52 67.8084 36.52C67.8618 36.52 67.8884 36.6 67.8884 36.76C67.8884 36.92 67.8618 37 67.8084 37C67.0884 37 66.2751 36.9867 65.3684 36.96C64.4884 36.9333 63.5151 36.92 62.4484 36.92C61.4351 36.92 60.4751 36.9333 59.5684 36.96C58.6884 36.9867 57.8751 37 57.1284 37C57.0484 37 57.0084 36.92 57.0084 36.76C57.0084 36.6 57.0484 36.52 57.1284 36.52C58.1684 36.52 58.9551 36.4533 59.4884 36.32C60.0484 36.1867 60.4218 35.92 60.6084 35.52C60.7951 35.12 60.8884 34.5333 60.8884 33.76V15.24C60.8884 14.52 60.8084 13.9867 60.6484 13.64C60.4884 13.2667 60.1684 13.04 59.6884 12.96C59.2084 12.8533 58.5151 12.8 57.6084 12.8ZM80.9047 24.16L81.5047 23.24H89.7447L90.0247 24.16H80.9047ZM100.465 36.52C100.598 36.52 100.665 36.6 100.665 36.76C100.665 36.92 100.598 37 100.465 37C99.6914 37 98.8914 36.9733 98.0647 36.92C97.2647 36.8667 96.478 36.84 95.7047 36.84C94.8514 36.84 94.1047 36.8667 93.4647 36.92C92.8514 36.9733 92.158 37 91.3847 37C91.278 37 91.2247 36.92 91.2247 36.76C91.2247 36.6 91.278 36.52 91.3847 36.52C92.6914 36.52 93.4914 36.32 93.7847 35.92C94.078 35.4933 93.9314 34.6667 93.3447 33.44L84.7447 15.56L86.0247 13.64L78.2247 31.72C77.5314 33.3467 77.4914 34.56 78.1047 35.36C78.718 36.1333 79.8647 36.52 81.5447 36.52C81.678 36.52 81.7447 36.6 81.7447 36.76C81.7447 36.92 81.678 37 81.5447 37C80.7447 37 80.0114 36.9733 79.3447 36.92C78.678 36.8667 77.838 36.84 76.8247 36.84C75.838 36.84 75.038 36.8667 74.4247 36.92C73.838 36.9733 73.118 37 72.2647 37C72.158 37 72.1047 36.92 72.1047 36.76C72.1047 36.6 72.158 36.52 72.2647 36.52C72.9847 36.52 73.6114 36.3867 74.1447 36.12C74.678 35.8267 75.1847 35.3067 75.6647 34.56C76.1714 33.8133 76.718 32.7467 77.3047 31.36L85.8247 11.72C85.8514 11.64 85.9447 11.6 86.1047 11.6C86.2647 11.5733 86.358 11.6133 86.3847 11.72L95.9847 31.52C96.6247 32.8267 97.1714 33.8533 97.6247 34.6C98.1047 35.32 98.5714 35.8267 99.0247 36.12C99.478 36.3867 99.958 36.52 100.465 36.52ZM102.947 37.48C102.36 37.48 101.867 37.3467 101.467 37.08C101.067 36.8133 100.867 36.4 100.867 35.84C100.867 35.28 101.04 34.8933 101.387 34.68C101.76 34.4667 102.187 34.36 102.667 34.36C102.8 34.36 102.934 34.36 103.067 34.36C103.227 34.36 103.374 34.36 103.507 34.36C104.44 34.36 105.28 33.9867 106.027 33.24C106.8 32.4667 107.467 31.44 108.027 30.16C108.614 28.88 109.094 27.44 109.467 25.84C109.867 24.24 110.16 22.6 110.347 20.92C110.534 19.24 110.627 17.64 110.627 16.12C110.627 15.3467 110.534 14.6933 110.347 14.16C110.16 13.6 109.787 13.1867 109.227 12.92C108.667 12.6267 107.827 12.48 106.707 12.48C106.627 12.48 106.587 12.4 106.587 12.24C106.587 12.08 106.627 12 106.707 12C106.867 12 107.32 12 108.067 12C108.84 12 109.787 12 110.907 12C112.054 12 113.28 12 114.587 12C115.92 12 117.24 12 118.547 12C119.88 12 121.107 12 122.227 12C123.347 12 124.254 12 124.947 12C125.667 12 126.08 12 126.187 12C126.24 12 126.267 12.08 126.267 12.24C126.267 12.4 126.24 12.48 126.187 12.48C125.227 12.48 124.494 12.56 123.987 12.72C123.507 12.8533 123.187 13.12 123.027 13.52C122.867 13.8933 122.787 14.4667 122.787 15.24V33.76C122.787 34.5333 122.867 35.12 123.027 35.52C123.187 35.92 123.507 36.1867 123.987 36.32C124.494 36.4533 125.227 36.52 126.187 36.52C126.24 36.52 126.267 36.6 126.267 36.76C126.267 36.92 126.24 37 126.187 37C125.52 37 124.774 36.9867 123.947 36.96C123.12 36.9333 122.24 36.92 121.307 36.92C120.347 36.92 119.44 36.9333 118.587 36.96C117.734 36.9867 116.96 37 116.267 37C116.214 37 116.187 36.92 116.187 36.76C116.187 36.6 116.214 36.52 116.267 36.52C117.254 36.52 117.987 36.4533 118.467 36.32C118.947 36.1867 119.254 35.92 119.387 35.52C119.547 35.12 119.627 34.5333 119.627 33.76V15.52C119.627 14.6933 119.587 14.1067 119.507 13.76C119.427 13.4133 119.187 13.2133 118.787 13.16C118.414 13.08 117.76 13.04 116.827 13.04H114.627C113.907 13.04 113.32 13.1067 112.867 13.24C112.44 13.3467 112.134 13.6133 111.947 14.04C111.76 14.4667 111.667 15.16 111.667 16.12C111.667 17.1867 111.614 18.4533 111.507 19.92C111.4 21.3867 111.214 22.92 110.947 24.52C110.707 26.12 110.374 27.68 109.947 29.2C109.547 30.72 109.014 32.12 108.347 33.4C107.707 34.6533 106.947 35.6533 106.067 36.4C105.187 37.12 104.147 37.48 102.947 37.48ZM134.178 34.12L133.498 33.48L151.058 14.68L151.778 15.36L134.178 34.12ZM128.898 37C128.845 37 128.818 36.92 128.818 36.76C128.818 36.6 128.845 36.52 128.898 36.52C129.858 36.52 130.578 36.4533 131.058 36.32C131.565 36.1867 131.898 35.92 132.058 35.52C132.218 35.12 132.298 34.5333 132.298 33.76V15.24C132.298 14.4667 132.218 13.8933 132.058 13.52C131.898 13.12 131.578 12.8533 131.098 12.72C130.618 12.56 129.911 12.48 128.978 12.48C128.898 12.48 128.858 12.4 128.858 12.24C128.858 12.08 128.898 12 128.978 12C129.645 12 130.391 12.0267 131.218 12.08C132.045 12.1067 132.911 12.12 133.818 12.12C134.885 12.12 135.831 12.1067 136.658 12.08C137.511 12.0267 138.271 12 138.938 12C138.991 12 139.018 12.08 139.018 12.24C139.018 12.4 138.991 12.48 138.938 12.48C137.951 12.48 137.205 12.56 136.698 12.72C136.218 12.88 135.885 13.16 135.698 13.56C135.538 13.96 135.458 14.5467 135.458 15.32V33.76C135.458 34.5333 135.538 35.12 135.698 35.52C135.858 35.92 136.191 36.1867 136.698 36.32C137.205 36.4533 137.951 36.52 138.938 36.52C138.991 36.52 139.018 36.6 139.018 36.76C139.018 36.92 138.991 37 138.938 37C138.245 37 137.485 36.9867 136.658 36.96C135.831 36.9333 134.885 36.92 133.818 36.92C132.911 36.92 132.031 36.9333 131.178 36.96C130.325 36.9867 129.565 37 128.898 37ZM146.138 37C146.058 37 146.018 36.92 146.018 36.76C146.018 36.6 146.058 36.52 146.138 36.52C147.151 36.52 147.898 36.4533 148.378 36.32C148.885 36.1867 149.205 35.92 149.338 35.52C149.498 35.12 149.578 34.5333 149.578 33.76V15.32C149.578 14.5467 149.498 13.96 149.338 13.56C149.205 13.16 148.885 12.88 148.378 12.72C147.898 12.56 147.151 12.48 146.138 12.48C146.058 12.48 146.018 12.4 146.018 12.24C146.018 12.08 146.058 12 146.138 12C146.805 12 147.551 12.0267 148.378 12.08C149.205 12.1067 150.138 12.12 151.178 12.12C152.085 12.12 152.965 12.1067 153.818 12.08C154.698 12.0267 155.471 12 156.138 12C156.191 12 156.218 12.08 156.218 12.24C156.218 12.4 156.191 12.48 156.138 12.48C155.178 12.48 154.458 12.56 153.978 12.72C153.498 12.8533 153.165 13.12 152.978 13.52C152.818 13.8933 152.738 14.4667 152.738 15.24V33.76C152.738 34.5333 152.818 35.12 152.978 35.52C153.165 35.92 153.498 36.1867 153.978 36.32C154.458 36.4533 155.178 36.52 156.138 36.52C156.191 36.52 156.218 36.6 156.218 36.76C156.218 36.92 156.191 37 156.138 37C155.471 37 154.698 36.9867 153.818 36.96C152.965 36.9333 152.085 36.92 151.178 36.92C150.138 36.92 149.205 36.9333 148.378 36.96C147.551 36.9867 146.805 37 146.138 37Z" fill="white"/>
<path d="M109.4 73.52C109.453 73.52 109.48 73.6 109.48 73.76C109.48 73.92 109.453 74 109.4 74C108.733 74 107.987 73.9867 107.16 73.96C106.333 73.9333 105.467 73.92 104.56 73.92C103.573 73.92 102.653 73.9333 101.8 73.96C100.947 73.9867 100.173 74 99.48 74C99.4267 74 99.4 73.92 99.4 73.76C99.4 73.6 99.4267 73.52 99.48 73.52C100.467 73.52 101.187 73.4533 101.64 73.32C102.12 73.1867 102.44 72.92 102.6 72.52C102.76 72.12 102.84 71.5333 102.84 70.76V52.52C102.84 51.6933 102.8 51.1067 102.72 50.76C102.64 50.4133 102.4 50.2133 102 50.16C101.627 50.08 100.987 50.04 100.08 50.04H91.88C90.8933 50.04 90.1867 50.08 89.76 50.16C89.36 50.24 89.1067 50.4533 89 50.8C88.92 51.12 88.88 51.6933 88.88 52.52V70.76C88.88 71.5333 88.96 72.12 89.12 72.52C89.28 72.92 89.6 73.1867 90.08 73.32C90.56 73.4533 91.28 73.52 92.24 73.52C92.32 73.52 92.36 73.6 92.36 73.76C92.36 73.92 92.32 74 92.24 74C91.5467 74 90.7733 73.9867 89.92 73.96C89.0933 73.9333 88.1867 73.92 87.2 73.92C86.2933 73.92 85.4133 73.9333 84.56 73.96C83.7333 73.9867 82.9867 74 82.32 74C82.2667 74 82.24 73.92 82.24 73.76C82.24 73.6 82.2667 73.52 82.32 73.52C83.28 73.52 84 73.4533 84.48 73.32C84.9867 73.1867 85.32 72.92 85.48 72.52C85.64 72.12 85.72 71.5333 85.72 70.76V52.72C85.72 51.5733 85.52 50.7467 85.12 50.24C84.72 49.7333 83.8133 49.48 82.4 49.48C82.32 49.48 82.28 49.4 82.28 49.24C82.28 49.08 82.32 49 82.4 49C82.8533 49 83.76 49.0133 85.12 49.04C86.5067 49.0667 88.1467 49.0933 90.04 49.12C91.96 49.12 93.96 49.12 96.04 49.12C97.6933 49.12 99.2667 49.12 100.76 49.12C102.28 49.0933 103.653 49.08 104.88 49.08C106.133 49.0533 107.16 49.04 107.96 49.04C108.76 49.0133 109.24 49 109.4 49C109.453 49 109.48 49.08 109.48 49.24C109.48 49.4 109.453 49.48 109.4 49.48C107.96 49.48 107.027 49.7333 106.6 50.24C106.2 50.7467 106 51.5733 106 52.72V70.76C106 71.5333 106.08 72.12 106.24 72.52C106.427 72.92 106.76 73.1867 107.24 73.32C107.72 73.4533 108.44 73.52 109.4 73.52ZM125.406 74.48C123.486 74.48 121.739 74.1467 120.166 73.48C118.619 72.7867 117.286 71.84 116.166 70.64C115.072 69.44 114.219 68.0667 113.606 66.52C113.019 64.9467 112.726 63.28 112.726 61.52C112.726 59.36 113.139 57.4667 113.966 55.84C114.819 54.2133 115.939 52.8667 117.326 51.8C118.712 50.7067 120.232 49.8933 121.886 49.36C123.539 48.8267 125.179 48.56 126.806 48.56C128.779 48.56 130.539 48.92 132.086 49.64C133.659 50.3333 134.992 51.28 136.086 52.48C137.179 53.68 138.006 55.04 138.566 56.56C139.152 58.08 139.446 59.64 139.446 61.24C139.446 63.1067 139.072 64.84 138.326 66.44C137.579 68.04 136.552 69.44 135.246 70.64C133.966 71.84 132.472 72.7867 130.766 73.48C129.086 74.1467 127.299 74.48 125.406 74.48ZM126.806 73.6C128.486 73.6 130.006 73.1733 131.366 72.32C132.752 71.44 133.832 70.1733 134.606 68.52C135.406 66.84 135.806 64.7867 135.806 62.36C135.806 59.88 135.366 57.68 134.486 55.76C133.632 53.8133 132.406 52.2933 130.806 51.2C129.232 50.08 127.352 49.52 125.166 49.52C122.366 49.52 120.192 50.4667 118.646 52.36C117.126 54.2533 116.366 56.84 116.366 60.12C116.366 62.0133 116.606 63.7867 117.086 65.44C117.592 67.0667 118.312 68.4933 119.246 69.72C120.179 70.9467 121.286 71.9067 122.566 72.6C123.846 73.2667 125.259 73.6 126.806 73.6ZM155.024 74C154.944 74 154.904 73.92 154.904 73.76C154.904 73.6 154.944 73.52 155.024 73.52C155.984 73.52 156.704 73.4533 157.184 73.32C157.664 73.1867 157.984 72.92 158.144 72.52C158.331 72.12 158.424 71.5333 158.424 70.76V52.24C158.424 51.0933 158.171 50.3467 157.664 50C157.184 49.6533 156.224 49.48 154.784 49.48C154.731 49.48 154.704 49.4 154.704 49.24C154.704 49.08 154.731 49 154.784 49C155.451 49 156.238 49.0267 157.144 49.08C158.051 49.1067 158.944 49.12 159.824 49.12C160.811 49.12 161.771 49.1067 162.704 49.08C163.638 49.0267 164.451 49 165.144 49C165.198 49 165.224 49.08 165.224 49.24C165.224 49.4 165.198 49.48 165.144 49.48C163.704 49.48 162.731 49.6667 162.224 50.04C161.744 50.4133 161.504 51.1733 161.504 52.32V70.76C161.504 71.5333 161.571 72.12 161.704 72.52C161.864 72.92 162.184 73.1867 162.664 73.32C163.171 73.4533 163.904 73.52 164.864 73.52C164.944 73.52 164.984 73.6 164.984 73.76C164.984 73.92 164.944 74 164.864 74C164.198 74 163.438 73.9867 162.584 73.96C161.731 73.9333 160.811 73.92 159.824 73.92C158.944 73.92 158.078 73.9333 157.224 73.96C156.398 73.9867 155.664 74 155.024 74ZM140.144 74C140.064 74 140.024 73.92 140.024 73.76C140.024 73.6 140.064 73.52 140.144 73.52C141.104 73.4933 141.958 73.2267 142.704 72.72C143.478 72.1867 144.251 71.4 145.024 70.36C145.824 69.32 146.744 68.0267 147.784 66.48C148.638 65.2 149.344 64.1733 149.904 63.4C150.464 62.6267 150.998 62.0533 151.504 61.68C152.011 61.28 152.571 61.0133 153.184 60.88C153.798 60.7467 154.558 60.68 155.464 60.68C156.424 60.68 157.758 60.72 159.464 60.8L159.424 61.52C159.104 61.4933 158.798 61.4667 158.504 61.44C158.238 61.4133 157.984 61.4 157.744 61.4C156.971 61.4 156.318 61.48 155.784 61.64C155.278 61.7733 154.798 62.04 154.344 62.44C153.891 62.84 153.384 63.4267 152.824 64.2C152.264 64.9467 151.584 65.96 150.784 67.24C149.691 68.92 148.838 70.2267 148.224 71.16C147.611 72.0667 147.144 72.7333 146.824 73.16C146.504 73.56 146.264 73.8 146.104 73.88C145.944 73.96 145.744 74 145.504 74H140.144ZM153.664 61.32L148.384 53.96C147.638 52.8667 146.878 52 146.104 51.36C145.358 50.6933 144.571 50.2133 143.744 49.92C142.918 49.6267 142.024 49.48 141.064 49.48C141.011 49.48 140.984 49.4 140.984 49.24C140.984 49.08 141.011 49 141.064 49C141.651 49 142.264 49.0267 142.904 49.08C143.571 49.1067 144.451 49.12 145.544 49.12C146.638 49.12 147.571 49.1067 148.344 49.08C149.144 49.0267 149.918 49 150.664 49C150.718 49 150.744 49.08 150.744 49.24C150.744 49.4 150.718 49.48 150.664 49.48C149.704 49.48 149.064 49.6533 148.744 50C148.451 50.3467 148.438 50.8933 148.704 51.64C148.971 52.36 149.491 53.3067 150.264 54.48L154.344 60.96L153.664 61.32ZM174.344 74C174.158 74 173.971 73.96 173.784 73.88C173.598 73.8 173.344 73.56 173.024 73.16C172.704 72.76 172.238 72.1067 171.624 71.2C171.011 70.2667 170.158 68.96 169.064 67.28C168.264 66.0267 167.584 65.0133 167.024 64.24C166.491 63.4667 165.998 62.88 165.544 62.48C165.091 62.0533 164.598 61.7733 164.064 61.64C163.531 61.48 162.878 61.4 162.104 61.4C161.891 61.4 161.638 61.4133 161.344 61.44C161.078 61.4667 160.798 61.4933 160.504 61.52L160.464 60.8C162.144 60.72 163.451 60.68 164.384 60.68C165.344 60.68 166.131 60.7467 166.744 60.88C167.358 61.0133 167.904 61.28 168.384 61.68C168.891 62.0533 169.424 62.6267 169.984 63.4C170.544 64.1733 171.251 65.2 172.104 66.48C173.171 68.0267 174.091 69.32 174.864 70.36C175.638 71.4 176.398 72.1867 177.144 72.72C177.918 73.2267 178.784 73.4933 179.744 73.52C179.824 73.52 179.864 73.6 179.864 73.76C179.864 73.92 179.824 74 179.744 74H174.344ZM166.224 61.32L165.504 60.96L169.584 54.6C170.358 53.3733 170.878 52.4 171.144 51.68C171.438 50.9333 171.438 50.3867 171.144 50.04C170.851 49.6667 170.224 49.48 169.264 49.48C169.184 49.48 169.144 49.4 169.144 49.24C169.144 49.08 169.184 49 169.264 49C169.984 49 170.744 49.0267 171.544 49.08C172.344 49.1067 173.278 49.12 174.344 49.12C175.464 49.12 176.344 49.1067 176.984 49.08C177.624 49.0267 178.238 49 178.824 49C178.878 49 178.904 49.08 178.904 49.24C178.904 49.4 178.878 49.48 178.824 49.48C177.891 49.48 176.998 49.6267 176.144 49.92C175.318 50.2133 174.531 50.6933 173.784 51.36C173.038 52 172.278 52.8667 171.504 53.96L166.224 61.32ZM198.666 74H181.626C181.546 74 181.506 73.92 181.506 73.76C181.506 73.6 181.546 73.52 181.626 73.52C182.533 73.52 183.213 73.4533 183.666 73.32C184.146 73.1867 184.466 72.92 184.626 72.52C184.786 72.12 184.866 71.5333 184.866 70.76V52.24C184.866 51.4667 184.786 50.8933 184.626 50.52C184.466 50.12 184.146 49.8533 183.666 49.72C183.213 49.56 182.533 49.48 181.626 49.48C181.546 49.48 181.506 49.4 181.506 49.24C181.506 49.08 181.546 49 181.626 49H197.946C198.213 49 198.346 49.12 198.346 49.36L198.426 54.4C198.426 54.48 198.346 54.5333 198.186 54.56C198.053 54.56 197.973 54.52 197.946 54.44C197.76 52.9733 197.24 51.8667 196.386 51.12C195.533 50.3467 194.413 49.96 193.026 49.96H190.986C190.186 49.96 189.573 50.0267 189.146 50.16C188.72 50.2933 188.426 50.5467 188.266 50.92C188.106 51.2667 188.026 51.76 188.026 52.4V70.6C188.026 71.24 188.093 71.7467 188.226 72.12C188.386 72.4667 188.666 72.72 189.066 72.88C189.466 73.0133 190.026 73.08 190.746 73.08H193.386C194.906 73.08 196.16 72.64 197.146 71.76C198.133 70.8533 198.813 69.5733 199.186 67.92C199.186 67.84 199.266 67.8133 199.426 67.84C199.586 67.8667 199.666 67.92 199.666 68C199.56 68.72 199.466 69.5867 199.386 70.6C199.306 71.6133 199.266 72.5467 199.266 73.4C199.266 73.8 199.066 74 198.666 74ZM196.426 64.8C196.426 63.6533 196.093 62.8133 195.426 62.28C194.786 61.72 193.746 61.44 192.306 61.44H186.506V60.52H192.426C193.786 60.52 194.786 60.2933 195.426 59.84C196.066 59.36 196.386 58.6267 196.386 57.64C196.386 57.5867 196.453 57.56 196.586 57.56C196.746 57.56 196.826 57.5867 196.826 57.64C196.826 58.4667 196.813 59.1067 196.786 59.56C196.786 60.0133 196.786 60.4933 196.786 61C196.786 61.6133 196.8 62.2267 196.826 62.84C196.88 63.4533 196.906 64.1067 196.906 64.8C196.906 64.8533 196.826 64.88 196.666 64.88C196.506 64.88 196.426 64.8533 196.426 64.8ZM203.986 74.48C203.399 74.48 202.906 74.3467 202.506 74.08C202.106 73.8133 201.906 73.4 201.906 72.84C201.906 72.28 202.079 71.8933 202.426 71.68C202.799 71.4667 203.226 71.36 203.706 71.36C203.839 71.36 203.973 71.36 204.106 71.36C204.266 71.36 204.413 71.36 204.546 71.36C205.479 71.36 206.319 70.9867 207.066 70.24C207.839 69.4667 208.506 68.44 209.066 67.16C209.653 65.88 210.133 64.44 210.506 62.84C210.906 61.24 211.199 59.6 211.386 57.92C211.573 56.24 211.666 54.64 211.666 53.12C211.666 52.3467 211.573 51.6933 211.386 51.16C211.199 50.6 210.826 50.1867 210.266 49.92C209.706 49.6267 208.866 49.48 207.746 49.48C207.666 49.48 207.626 49.4 207.626 49.24C207.626 49.08 207.666 49 207.746 49C207.906 49 208.359 49 209.106 49C209.879 49 210.826 49 211.946 49C213.093 49 214.319 49 215.626 49C216.959 49 218.279 49 219.586 49C220.919 49 222.146 49 223.266 49C224.386 49 225.293 49 225.986 49C226.706 49 227.119 49 227.226 49C227.279 49 227.306 49.08 227.306 49.24C227.306 49.4 227.279 49.48 227.226 49.48C226.266 49.48 225.533 49.56 225.026 49.72C224.546 49.8533 224.226 50.12 224.066 50.52C223.906 50.8933 223.826 51.4667 223.826 52.24V70.76C223.826 71.5333 223.906 72.12 224.066 72.52C224.226 72.92 224.546 73.1867 225.026 73.32C225.533 73.4533 226.266 73.52 227.226 73.52C227.279 73.52 227.306 73.6 227.306 73.76C227.306 73.92 227.279 74 227.226 74C226.559 74 225.813 73.9867 224.986 73.96C224.159 73.9333 223.279 73.92 222.346 73.92C221.386 73.92 220.479 73.9333 219.626 73.96C218.773 73.9867 217.999 74 217.306 74C217.253 74 217.226 73.92 217.226 73.76C217.226 73.6 217.253 73.52 217.306 73.52C218.293 73.52 219.026 73.4533 219.506 73.32C219.986 73.1867 220.293 72.92 220.426 72.52C220.586 72.12 220.666 71.5333 220.666 70.76V52.52C220.666 51.6933 220.626 51.1067 220.546 50.76C220.466 50.4133 220.226 50.2133 219.826 50.16C219.453 50.08 218.799 50.04 217.866 50.04H215.666C214.946 50.04 214.359 50.1067 213.906 50.24C213.479 50.3467 213.173 50.6133 212.986 51.04C212.799 51.4667 212.706 52.16 212.706 53.12C212.706 54.1867 212.653 55.4533 212.546 56.92C212.439 58.3867 212.253 59.92 211.986 61.52C211.746 63.12 211.413 64.68 210.986 66.2C210.586 67.72 210.053 69.12 209.386 70.4C208.746 71.6533 207.986 72.6533 207.106 73.4C206.226 74.12 205.186 74.48 203.986 74.48ZM237.217 61.16L237.817 60.24H246.057L246.337 61.16H237.217ZM256.777 73.52C256.911 73.52 256.977 73.6 256.977 73.76C256.977 73.92 256.911 74 256.777 74C256.004 74 255.204 73.9733 254.377 73.92C253.577 73.8667 252.791 73.84 252.017 73.84C251.164 73.84 250.417 73.8667 249.777 73.92C249.164 73.9733 248.471 74 247.697 74C247.591 74 247.537 73.92 247.537 73.76C247.537 73.6 247.591 73.52 247.697 73.52C249.004 73.52 249.804 73.32 250.097 72.92C250.391 72.4933 250.244 71.6667 249.657 70.44L241.057 52.56L242.337 50.64L234.537 68.72C233.844 70.3467 233.804 71.56 234.417 72.36C235.031 73.1333 236.177 73.52 237.857 73.52C237.991 73.52 238.057 73.6 238.057 73.76C238.057 73.92 237.991 74 237.857 74C237.057 74 236.324 73.9733 235.657 73.92C234.991 73.8667 234.151 73.84 233.137 73.84C232.151 73.84 231.351 73.8667 230.737 73.92C230.151 73.9733 229.431 74 228.577 74C228.471 74 228.417 73.92 228.417 73.76C228.417 73.6 228.471 73.52 228.577 73.52C229.297 73.52 229.924 73.3867 230.457 73.12C230.991 72.8267 231.497 72.3067 231.977 71.56C232.484 70.8133 233.031 69.7467 233.617 68.36L242.137 48.72C242.164 48.64 242.257 48.6 242.417 48.6C242.577 48.5733 242.671 48.6133 242.697 48.72L252.297 68.52C252.937 69.8267 253.484 70.8533 253.937 71.6C254.417 72.32 254.884 72.8267 255.337 73.12C255.791 73.3867 256.271 73.52 256.777 73.52ZM279.339 52.32C279.339 51.5467 279.259 50.96 279.099 50.56C278.966 50.16 278.646 49.88 278.139 49.72C277.659 49.56 276.913 49.48 275.899 49.48C275.819 49.48 275.779 49.4 275.779 49.24C275.779 49.08 275.819 49 275.899 49C276.539 49 277.273 49.0267 278.099 49.08C278.953 49.1067 279.899 49.12 280.939 49.12C281.846 49.12 282.726 49.1067 283.579 49.08C284.459 49.0267 285.219 49 285.859 49C285.939 49 285.979 49.08 285.979 49.24C285.979 49.4 285.939 49.48 285.859 49.48C284.926 49.48 284.206 49.56 283.699 49.72C283.219 49.8533 282.899 50.12 282.739 50.52C282.579 50.8933 282.499 51.4667 282.499 52.24V70.76C282.499 71.5333 282.579 72.12 282.739 72.52C282.899 72.92 283.219 73.1867 283.699 73.32C284.206 73.4533 284.926 73.52 285.859 73.52C285.939 73.52 285.979 73.6 285.979 73.76C285.979 73.92 285.939 74 285.859 74C285.219 74 284.459 73.9867 283.579 73.96C282.726 73.9333 281.846 73.92 280.939 73.92C279.899 73.92 278.953 73.9333 278.099 73.96C277.273 73.9867 276.539 74 275.899 74C275.819 74 275.779 73.92 275.779 73.76C275.779 73.6 275.819 73.52 275.899 73.52C276.913 73.52 277.659 73.4533 278.139 73.32C278.646 73.1867 278.966 72.92 279.099 72.52C279.259 72.12 279.339 71.5333 279.339 70.76V52.32ZM263.059 61.44V60.52H280.739V61.44H263.059ZM261.579 70.76V52.24C261.579 51.4667 261.499 50.8933 261.339 50.52C261.179 50.12 260.859 49.8533 260.379 49.72C259.899 49.56 259.193 49.48 258.259 49.48C258.179 49.48 258.139 49.4 258.139 49.24C258.139 49.08 258.179 49 258.259 49C258.926 49 259.673 49.0267 260.499 49.08C261.326 49.1067 262.193 49.12 263.099 49.12C264.166 49.12 265.113 49.1067 265.939 49.08C266.793 49.0267 267.553 49 268.219 49C268.273 49 268.299 49.08 268.299 49.24C268.299 49.4 268.273 49.48 268.219 49.48C267.233 49.48 266.486 49.56 265.979 49.72C265.499 49.88 265.166 50.16 264.979 50.56C264.819 50.96 264.739 51.5467 264.739 52.32V70.76C264.739 71.5333 264.819 72.12 264.979 72.52C265.139 72.92 265.473 73.1867 265.979 73.32C266.486 73.4533 267.233 73.52 268.219 73.52C268.273 73.52 268.299 73.6 268.299 73.76C268.299 73.92 268.273 74 268.219 74C267.526 74 266.766 73.9867 265.939 73.96C265.113 73.9333 264.166 73.92 263.099 73.92C262.193 73.92 261.313 73.9333 260.459 73.96C259.606 73.9867 258.846 74 258.179 74C258.126 74 258.099 73.92 258.099 73.76C258.099 73.6 258.126 73.52 258.179 73.52C259.139 73.52 259.859 73.4533 260.339 73.32C260.846 73.1867 261.179 72.92 261.339 72.52C261.499 72.12 261.579 71.5333 261.579 70.76ZM293.889 71.12L293.209 70.48L310.769 51.68L311.489 52.36L293.889 71.12ZM288.609 74C288.556 74 288.529 73.92 288.529 73.76C288.529 73.6 288.556 73.52 288.609 73.52C289.569 73.52 290.289 73.4533 290.769 73.32C291.276 73.1867 291.609 72.92 291.769 72.52C291.929 72.12 292.009 71.5333 292.009 70.76V52.24C292.009 51.4667 291.929 50.8933 291.769 50.52C291.609 50.12 291.289 49.8533 290.809 49.72C290.329 49.56 289.622 49.48 288.689 49.48C288.609 49.48 288.569 49.4 288.569 49.24C288.569 49.08 288.609 49 288.689 49C289.356 49 290.102 49.0267 290.929 49.08C291.756 49.1067 292.622 49.12 293.529 49.12C294.596 49.12 295.542 49.1067 296.369 49.08C297.222 49.0267 297.982 49 298.649 49C298.702 49 298.729 49.08 298.729 49.24C298.729 49.4 298.702 49.48 298.649 49.48C297.662 49.48 296.916 49.56 296.409 49.72C295.929 49.88 295.596 50.16 295.409 50.56C295.249 50.96 295.169 51.5467 295.169 52.32V70.76C295.169 71.5333 295.249 72.12 295.409 72.52C295.569 72.92 295.902 73.1867 296.409 73.32C296.916 73.4533 297.662 73.52 298.649 73.52C298.702 73.52 298.729 73.6 298.729 73.76C298.729 73.92 298.702 74 298.649 74C297.956 74 297.196 73.9867 296.369 73.96C295.542 73.9333 294.596 73.92 293.529 73.92C292.622 73.92 291.742 73.9333 290.889 73.96C290.036 73.9867 289.276 74 288.609 74ZM305.849 74C305.769 74 305.729 73.92 305.729 73.76C305.729 73.6 305.769 73.52 305.849 73.52C306.862 73.52 307.609 73.4533 308.089 73.32C308.596 73.1867 308.916 72.92 309.049 72.52C309.209 72.12 309.289 71.5333 309.289 70.76V52.32C309.289 51.5467 309.209 50.96 309.049 50.56C308.916 50.16 308.596 49.88 308.089 49.72C307.609 49.56 306.862 49.48 305.849 49.48C305.769 49.48 305.729 49.4 305.729 49.24C305.729 49.08 305.769 49 305.849 49C306.516 49 307.262 49.0267 308.089 49.08C308.916 49.1067 309.849 49.12 310.889 49.12C311.796 49.12 312.676 49.1067 313.529 49.08C314.409 49.0267 315.182 49 315.849 49C315.902 49 315.929 49.08 315.929 49.24C315.929 49.4 315.902 49.48 315.849 49.48C314.889 49.48 314.169 49.56 313.689 49.72C313.209 49.8533 312.876 50.12 312.689 50.52C312.529 50.8933 312.449 51.4667 312.449 52.24V70.76C312.449 71.5333 312.529 72.12 312.689 72.52C312.876 72.92 313.209 73.1867 313.689 73.32C314.169 73.4533 314.889 73.52 315.849 73.52C315.902 73.52 315.929 73.6 315.929 73.76C315.929 73.92 315.902 74 315.849 74C315.182 74 314.409 73.9867 313.529 73.96C312.676 73.9333 311.796 73.92 310.889 73.92C309.849 73.92 308.916 73.9333 308.089 73.96C307.262 73.9867 306.516 74 305.849 74ZM339.97 73.52C340.023 73.52 340.05 73.6 340.05 73.76C340.05 73.92 340.023 74 339.97 74C339.303 74 338.543 73.9867 337.69 73.96C336.863 73.9333 335.97 73.92 335.01 73.92C334.077 73.92 333.197 73.9333 332.37 73.96C331.57 73.9867 330.837 74 330.17 74C330.117 74 330.09 73.92 330.09 73.76C330.09 73.6 330.117 73.52 330.17 73.52C331.13 73.52 331.837 73.4533 332.29 73.32C332.743 73.1867 333.037 72.92 333.17 72.52C333.33 72.12 333.41 71.5333 333.41 70.76V60.84L334.41 61.04C333.69 61.04 333.037 61.1067 332.45 61.24C331.863 61.3733 331.29 61.6533 330.73 62.08C330.197 62.48 329.623 63.0933 329.01 63.92C328.397 64.7467 327.69 65.8667 326.89 67.28C325.877 69.04 325.063 70.3867 324.45 71.32C323.837 72.2533 323.357 72.9067 323.01 73.28C322.69 73.6533 322.423 73.8667 322.21 73.92C322.023 73.9733 321.81 74 321.57 74H317.09C317.01 74 316.97 73.92 316.97 73.76C316.97 73.6 317.01 73.52 317.09 73.52C318.023 73.4933 318.823 73.2267 319.49 72.72C320.183 72.1867 320.863 71.4 321.53 70.36C322.223 69.32 323.037 68.0267 323.97 66.48C324.797 65.04 325.583 63.9333 326.33 63.16C327.077 62.3867 327.877 61.8267 328.73 61.48C329.583 61.1333 330.53 60.92 331.57 60.84L331.85 61.12C328.863 61.0933 326.597 60.5333 325.05 59.44C323.53 58.3467 322.77 56.88 322.77 55.04C322.77 53.8133 323.103 52.7467 323.77 51.84C324.437 50.9067 325.343 50.1867 326.49 49.68C327.637 49.1467 328.943 48.88 330.41 48.88C330.97 48.88 331.703 48.92 332.61 49C333.543 49.08 334.343 49.12 335.01 49.12C335.97 49.12 336.863 49.1067 337.69 49.08C338.517 49.0267 339.277 49 339.97 49C340.023 49 340.05 49.08 340.05 49.24C340.05 49.4 340.023 49.48 339.97 49.48C338.983 49.48 338.25 49.56 337.77 49.72C337.29 49.8533 336.97 50.12 336.81 50.52C336.65 50.8933 336.57 51.4667 336.57 52.24V70.76C336.57 71.5333 336.65 72.12 336.81 72.52C336.97 72.92 337.29 73.1867 337.77 73.32C338.25 73.4533 338.983 73.52 339.97 73.52ZM326.05 54.04C326.05 55.9067 326.557 57.44 327.57 58.64C328.61 59.8133 330.157 60.4 332.21 60.4C332.583 60.4 332.983 60.3867 333.41 60.36C333.863 60.3067 334.223 60.24 334.49 60.16L333.41 60.52V52.32C333.41 51.5467 333.25 50.9467 332.93 50.52C332.637 50.0933 332.263 49.8 331.81 49.64C331.357 49.48 330.863 49.4 330.33 49.4C327.477 49.4 326.05 50.9467 326.05 54.04Z" fill="white"/>
</svg>
