<svg width="122" height="65" viewBox="0 0 122 65" fill="none" xmlns="http://www.w3.org/2000/svg">
<g filter="url(#filter0_d_29_106)">
<path d="M15.4 37.16C14.6 37.16 13.6133 37.12 12.44 37.04C11.2667 36.96 10.1867 36.92 9.2 36.92C8.29333 36.92 7.41333 36.9333 6.56 36.96C5.73333 36.9867 4.98667 37 4.32 37C4.26667 37 4.24 36.92 4.24 36.76C4.24 36.6 4.26667 36.52 4.32 36.52C5.25333 36.52 5.96 36.4533 6.44 36.32C6.92 36.1867 7.24 35.92 7.4 35.52C7.56 35.12 7.64 34.5333 7.64 33.76V15.24C7.64 14.4667 7.56 13.8933 7.4 13.52C7.24 13.12 6.92 12.8533 6.44 12.72C5.98667 12.56 5.30667 12.48 4.4 12.48C4.32 12.48 4.28 12.4 4.28 12.24C4.28 12.08 4.32 12 4.4 12C5.06667 12 5.8 12.0267 6.6 12.08C7.42667 12.1067 8.29333 12.12 9.2 12.12C10.1067 12.12 11.08 12.0933 12.12 12.04C13.1867 11.96 14.0933 11.92 14.84 11.92C17.6667 11.92 20.12 12.4533 22.2 13.52C24.3067 14.5867 25.9467 16.04 27.12 17.88C28.2933 19.72 28.88 21.7867 28.88 24.08C28.88 26.08 28.52 27.8933 27.8 29.52C27.1067 31.12 26.1333 32.4933 24.88 33.64C23.6267 34.76 22.1867 35.6267 20.56 36.24C18.9333 36.8533 17.2133 37.16 15.4 37.16ZM15 36.44C17 36.44 18.76 36 20.28 35.12C21.8267 34.24 23.04 32.9467 23.92 31.24C24.8 29.5067 25.24 27.4133 25.24 24.96C25.24 22.64 24.8267 20.56 24 18.72C23.1733 16.8533 22.0133 15.3733 20.52 14.28C19.0533 13.16 17.2933 12.6 15.24 12.6C13.64 12.6 12.4933 12.76 11.8 13.08C11.1333 13.4 10.8 14.1467 10.8 15.32V33.32C10.8 34.3867 11.0667 35.1733 11.6 35.68C12.1333 36.1867 13.2667 36.44 15 36.44ZM52.6916 37C52.2649 37 51.5582 36.4667 50.5716 35.4C49.6116 34.3333 48.4516 32.8133 47.0916 30.84C45.7316 28.8667 44.1982 26.52 42.4916 23.8L45.1716 22.92C47.4116 26.28 49.3049 28.96 50.8516 30.96C52.4249 32.9333 53.8116 34.36 55.0116 35.24C56.2116 36.0933 57.3582 36.52 58.4516 36.52C58.5316 36.52 58.5716 36.6 58.5716 36.76C58.5716 36.92 58.5316 37 58.4516 37C56.9582 37 55.7316 37 54.7716 37C53.8382 37 53.1449 37 52.6916 37ZM42.3716 11.88C44.6649 11.88 46.4116 12.3333 47.6116 13.24C48.8382 14.12 49.4516 15.3467 49.4516 16.92C49.4516 17.9067 49.2116 18.8533 48.7316 19.76C48.2782 20.6667 47.6516 21.4667 46.8516 22.16C46.0782 22.8533 45.1716 23.4 44.1316 23.8C43.1182 24.2 42.0649 24.4 40.9716 24.4C40.6516 24.4 40.3182 24.4 39.9716 24.4C39.6249 24.3733 39.3049 24.3467 39.0116 24.32V33.76C39.0116 34.5333 39.0782 35.12 39.2116 35.52C39.3716 35.92 39.6782 36.1867 40.1316 36.32C40.6116 36.4533 41.3182 36.52 42.2516 36.52C42.3316 36.52 42.3716 36.6 42.3716 36.76C42.3716 36.92 42.3316 37 42.2516 37C41.5849 37 40.8516 36.9867 40.0516 36.96C39.2516 36.9333 38.3716 36.92 37.4116 36.92C36.5049 36.92 35.6382 36.9333 34.8116 36.96C33.9849 36.9867 33.2382 37 32.5716 37C32.4916 37 32.4516 36.92 32.4516 36.76C32.4516 36.6 32.4916 36.52 32.5716 36.52C33.4782 36.52 34.1582 36.4533 34.6116 36.32C35.0916 36.1867 35.4116 35.92 35.5716 35.52C35.7582 35.12 35.8516 34.5333 35.8516 33.76V15.24C35.8516 14.4667 35.7716 13.8933 35.6116 13.52C35.4516 13.12 35.1449 12.8533 34.6916 12.72C34.2382 12.56 33.5449 12.48 32.6116 12.48C32.5582 12.48 32.5316 12.4 32.5316 12.24C32.5316 12.08 32.5582 12 32.6116 12C33.2782 12 34.0116 12.0267 34.8116 12.08C35.6382 12.1067 36.5049 12.12 37.4116 12.12C38.1316 12.12 38.9582 12.08 39.8916 12C40.8249 11.92 41.6516 11.88 42.3716 11.88ZM46.1316 18.36C46.1316 16.84 45.9316 15.6667 45.5316 14.84C45.1316 13.9867 44.5849 13.4 43.8916 13.08C43.2249 12.7333 42.4649 12.56 41.6116 12.56C40.9716 12.56 40.4649 12.6267 40.0916 12.76C39.7182 12.8667 39.4382 13.12 39.2516 13.52C39.0916 13.92 39.0116 14.52 39.0116 15.32V23.28C39.3849 23.3067 39.7849 23.3467 40.2116 23.4C40.6649 23.4267 41.0516 23.44 41.3716 23.44C43.0782 23.44 44.2916 23.0667 45.0116 22.32C45.7582 21.5467 46.1316 20.2267 46.1316 18.36ZM76.8381 37H59.7981C59.7181 37 59.6781 36.92 59.6781 36.76C59.6781 36.6 59.7181 36.52 59.7981 36.52C60.7048 36.52 61.3848 36.4533 61.8381 36.32C62.3181 36.1867 62.6381 35.92 62.7981 35.52C62.9581 35.12 63.0381 34.5333 63.0381 33.76V15.24C63.0381 14.4667 62.9581 13.8933 62.7981 13.52C62.6381 13.12 62.3181 12.8533 61.8381 12.72C61.3848 12.56 60.7048 12.48 59.7981 12.48C59.7181 12.48 59.6781 12.4 59.6781 12.24C59.6781 12.08 59.7181 12 59.7981 12H76.1181C76.3848 12 76.5181 12.12 76.5181 12.36L76.5981 17.4C76.5981 17.48 76.5181 17.5333 76.3581 17.56C76.2248 17.56 76.1448 17.52 76.1181 17.44C75.9315 15.9733 75.4115 14.8667 74.5581 14.12C73.7048 13.3467 72.5848 12.96 71.1981 12.96H69.1581C68.3581 12.96 67.7448 13.0267 67.3181 13.16C66.8915 13.2933 66.5981 13.5467 66.4381 13.92C66.2781 14.2667 66.1981 14.76 66.1981 15.4V33.6C66.1981 34.24 66.2648 34.7467 66.3981 35.12C66.5581 35.4667 66.8381 35.72 67.2381 35.88C67.6381 36.0133 68.1981 36.08 68.9181 36.08H71.5581C73.0781 36.08 74.3315 35.64 75.3181 34.76C76.3048 33.8533 76.9848 32.5733 77.3581 30.92C77.3581 30.84 77.4381 30.8133 77.5981 30.84C77.7581 30.8667 77.8381 30.92 77.8381 31C77.7315 31.72 77.6381 32.5867 77.5581 33.6C77.4781 34.6133 77.4381 35.5467 77.4381 36.4C77.4381 36.8 77.2381 37 76.8381 37ZM74.5981 27.8C74.5981 26.6533 74.2648 25.8133 73.5981 25.28C72.9581 24.72 71.9181 24.44 70.4781 24.44H64.6781V23.52H70.5981C71.9581 23.52 72.9581 23.2933 73.5981 22.84C74.2381 22.36 74.5581 21.6267 74.5581 20.64C74.5581 20.5867 74.6248 20.56 74.7581 20.56C74.9181 20.56 74.9981 20.5867 74.9981 20.64C74.9981 21.4667 74.9848 22.1067 74.9581 22.56C74.9581 23.0133 74.9581 23.4933 74.9581 24C74.9581 24.6133 74.9715 25.2267 74.9981 25.84C75.0515 26.4533 75.0781 27.1067 75.0781 27.8C75.0781 27.8533 74.9981 27.88 74.8381 27.88C74.6781 27.88 74.5981 27.8533 74.5981 27.8ZM85.9178 16.48C85.9178 17.5467 86.1845 18.4667 86.7178 19.24C87.2511 20.0133 87.9445 20.7067 88.7978 21.32C89.6511 21.9067 90.5578 22.4933 91.5178 23.08C92.5045 23.6667 93.4511 24.2933 94.3578 24.96C95.2911 25.6267 96.0511 26.4133 96.6378 27.32C97.2511 28.2 97.5578 29.28 97.5578 30.56C97.5578 31.8667 97.2111 33.04 96.5178 34.08C95.8511 35.12 94.8911 35.9467 93.6378 36.56C92.4111 37.1733 90.9311 37.48 89.1978 37.48C88.5045 37.48 87.7978 37.4133 87.0778 37.28C86.3845 37.1733 85.7178 37.0133 85.0778 36.8C84.4378 36.5867 83.8511 36.32 83.3178 36C83.2111 35.92 83.1178 35.8267 83.0378 35.72C82.9845 35.6133 82.9578 35.4533 82.9578 35.24L82.5578 29.52C82.5311 29.3867 82.5845 29.32 82.7178 29.32C82.8778 29.2933 82.9711 29.3333 82.9978 29.44C83.2378 30.2667 83.5578 31.1067 83.9578 31.96C84.3578 32.8133 84.8378 33.6 85.3978 34.32C85.9578 35.0133 86.6245 35.5867 87.3978 36.04C88.1978 36.4933 89.1178 36.72 90.1578 36.72C90.8778 36.72 91.5711 36.5867 92.2378 36.32C92.9311 36.0533 93.4911 35.6133 93.9178 35C94.3445 34.36 94.5578 33.48 94.5578 32.36C94.5578 31.08 94.2778 30 93.7178 29.12C93.1578 28.24 92.4378 27.48 91.5578 26.84C90.6778 26.2 89.7445 25.5867 88.7578 25C87.8245 24.4133 86.9178 23.8 86.0378 23.16C85.1845 22.52 84.4911 21.7867 83.9578 20.96C83.4245 20.1067 83.1578 19.08 83.1578 17.88C83.1578 16.44 83.5311 15.2533 84.2778 14.32C85.0511 13.3867 86.0245 12.6933 87.1978 12.24C88.3978 11.7867 89.6245 11.56 90.8778 11.56C91.7045 11.56 92.5445 11.64 93.3978 11.8C94.2511 11.96 95.0245 12.1867 95.7178 12.48C95.9578 12.5867 96.1178 12.7067 96.1978 12.84C96.2778 12.9467 96.3178 13.0667 96.3178 13.2L96.5178 18.2C96.5178 18.28 96.4511 18.3333 96.3178 18.36C96.1845 18.3867 96.0911 18.3467 96.0378 18.24C95.9578 17.7867 95.7845 17.2267 95.5178 16.56C95.2511 15.8667 94.8911 15.2 94.4378 14.56C93.9845 13.8933 93.3978 13.3467 92.6778 12.92C91.9845 12.4667 91.1311 12.24 90.1178 12.24C89.1845 12.24 88.4111 12.44 87.7978 12.84C87.1845 13.2133 86.7178 13.72 86.3978 14.36C86.0778 14.9733 85.9178 15.68 85.9178 16.48ZM105.879 16.48C105.879 17.5467 106.145 18.4667 106.679 19.24C107.212 20.0133 107.905 20.7067 108.759 21.32C109.612 21.9067 110.519 22.4933 111.479 23.08C112.465 23.6667 113.412 24.2933 114.319 24.96C115.252 25.6267 116.012 26.4133 116.599 27.32C117.212 28.2 117.519 29.28 117.519 30.56C117.519 31.8667 117.172 33.04 116.479 34.08C115.812 35.12 114.852 35.9467 113.599 36.56C112.372 37.1733 110.892 37.48 109.159 37.48C108.465 37.48 107.759 37.4133 107.039 37.28C106.345 37.1733 105.679 37.0133 105.039 36.8C104.399 36.5867 103.812 36.32 103.279 36C103.172 35.92 103.079 35.8267 102.999 35.72C102.945 35.6133 102.919 35.4533 102.919 35.24L102.519 29.52C102.492 29.3867 102.545 29.32 102.679 29.32C102.839 29.2933 102.932 29.3333 102.959 29.44C103.199 30.2667 103.519 31.1067 103.919 31.96C104.319 32.8133 104.799 33.6 105.359 34.32C105.919 35.0133 106.585 35.5867 107.359 36.04C108.159 36.4933 109.079 36.72 110.119 36.72C110.839 36.72 111.532 36.5867 112.199 36.32C112.892 36.0533 113.452 35.6133 113.879 35C114.305 34.36 114.519 33.48 114.519 32.36C114.519 31.08 114.239 30 113.679 29.12C113.119 28.24 112.399 27.48 111.519 26.84C110.639 26.2 109.705 25.5867 108.719 25C107.785 24.4133 106.879 23.8 105.999 23.16C105.145 22.52 104.452 21.7867 103.919 20.96C103.385 20.1067 103.119 19.08 103.119 17.88C103.119 16.44 103.492 15.2533 104.239 14.32C105.012 13.3867 105.985 12.6933 107.159 12.24C108.359 11.7867 109.585 11.56 110.839 11.56C111.665 11.56 112.505 11.64 113.359 11.8C114.212 11.96 114.985 12.1867 115.679 12.48C115.919 12.5867 116.079 12.7067 116.159 12.84C116.239 12.9467 116.279 13.0667 116.279 13.2L116.479 18.2C116.479 18.28 116.412 18.3333 116.279 18.36C116.145 18.3867 116.052 18.3467 115.999 18.24C115.919 17.7867 115.745 17.2267 115.479 16.56C115.212 15.8667 114.852 15.2 114.399 14.56C113.945 13.8933 113.359 13.3467 112.639 12.92C111.945 12.4667 111.092 12.24 110.079 12.24C109.145 12.24 108.372 12.44 107.759 12.84C107.145 13.2133 106.679 13.72 106.359 14.36C106.039 14.9733 105.879 15.68 105.879 16.48Z" fill="#EFEEEB"/>
<path d="M23.7997 30.56C24.9731 30.56 26.2131 30.68 27.5197 30.92C28.8531 31.1333 29.9197 31.44 30.7197 31.84C30.9331 31.9733 31.0797 32.0933 31.1597 32.2C31.2397 32.3067 31.2931 32.5067 31.3197 32.8L31.7597 37.6C31.7597 37.68 31.6931 37.7333 31.5597 37.76C31.4264 37.7867 31.3464 37.7467 31.3197 37.64C30.6264 35.5333 29.4797 33.9867 27.8797 33C26.3064 31.9867 24.4264 31.48 22.2397 31.48C20.2664 31.48 18.5597 31.9333 17.1197 32.84C15.7064 33.72 14.6131 34.9733 13.8397 36.6C13.0931 38.2 12.7197 40.08 12.7197 42.24C12.7197 44.1067 12.9864 45.8667 13.5197 47.52C14.0797 49.1733 14.8531 50.6267 15.8397 51.88C16.8264 53.1067 17.9597 54.08 19.2397 54.8C20.5464 55.4933 21.9464 55.84 23.4397 55.84C25.2531 55.84 26.8664 55.3067 28.2797 54.24C29.6931 53.1733 30.8264 51.52 31.6797 49.28C31.7064 49.1733 31.7864 49.1333 31.9197 49.16C32.0797 49.1867 32.1597 49.24 32.1597 49.32L31.5997 54.12C31.5464 54.44 31.4797 54.6533 31.3997 54.76C31.3464 54.84 31.1997 54.9333 30.9597 55.04C29.6797 55.5467 28.4131 55.9067 27.1597 56.12C25.9064 56.36 24.6664 56.48 23.4397 56.48C20.8797 56.48 18.6797 56.0933 16.8397 55.32C15.0264 54.52 13.5464 53.48 12.3997 52.2C11.2531 50.8933 10.4131 49.4667 9.87972 47.92C9.34639 46.3733 9.07972 44.84 9.07972 43.32C9.07972 41.3733 9.47972 39.6267 10.2797 38.08C11.0797 36.5333 12.1731 35.2 13.5597 34.08C14.9464 32.96 16.5197 32.0933 18.2797 31.48C20.0397 30.8667 21.8797 30.56 23.7997 30.56ZM48.5175 56.48C46.5975 56.48 44.8509 56.1467 43.2775 55.48C41.7309 54.7867 40.3975 53.84 39.2775 52.64C38.1842 51.44 37.3309 50.0667 36.7175 48.52C36.1309 46.9467 35.8375 45.28 35.8375 43.52C35.8375 41.36 36.2509 39.4667 37.0775 37.84C37.9309 36.2133 39.0509 34.8667 40.4375 33.8C41.8242 32.7067 43.3442 31.8933 44.9975 31.36C46.6509 30.8267 48.2909 30.56 49.9175 30.56C51.8909 30.56 53.6509 30.92 55.1975 31.64C56.7709 32.3333 58.1042 33.28 59.1975 34.48C60.2909 35.68 61.1175 37.04 61.6775 38.56C62.2642 40.08 62.5575 41.64 62.5575 43.24C62.5575 45.1067 62.1842 46.84 61.4375 48.44C60.6909 50.04 59.6642 51.44 58.3575 52.64C57.0775 53.84 55.5842 54.7867 53.8775 55.48C52.1975 56.1467 50.4109 56.48 48.5175 56.48ZM49.9175 55.6C51.5975 55.6 53.1175 55.1733 54.4775 54.32C55.8642 53.44 56.9442 52.1733 57.7175 50.52C58.5175 48.84 58.9175 46.7867 58.9175 44.36C58.9175 41.88 58.4775 39.68 57.5975 37.76C56.7442 35.8133 55.5175 34.2933 53.9175 33.2C52.3442 32.08 50.4642 31.52 48.2775 31.52C45.4775 31.52 43.3042 32.4667 41.7575 34.36C40.2375 36.2533 39.4775 38.84 39.4775 42.12C39.4775 44.0133 39.7175 45.7867 40.1975 47.44C40.7042 49.0667 41.4242 50.4933 42.3575 51.72C43.2909 52.9467 44.3975 53.9067 45.6775 54.6C46.9575 55.2667 48.3709 55.6 49.9175 55.6ZM76.9025 56.16C76.1025 56.16 75.1159 56.12 73.9425 56.04C72.7692 55.96 71.6892 55.92 70.7025 55.92C69.7959 55.92 68.9159 55.9333 68.0625 55.96C67.2359 55.9867 66.4892 56 65.8225 56C65.7692 56 65.7425 55.92 65.7425 55.76C65.7425 55.6 65.7692 55.52 65.8225 55.52C66.7559 55.52 67.4625 55.4533 67.9425 55.32C68.4225 55.1867 68.7425 54.92 68.9025 54.52C69.0625 54.12 69.1425 53.5333 69.1425 52.76V34.24C69.1425 33.4667 69.0625 32.8933 68.9025 32.52C68.7425 32.12 68.4225 31.8533 67.9425 31.72C67.4892 31.56 66.8092 31.48 65.9025 31.48C65.8225 31.48 65.7825 31.4 65.7825 31.24C65.7825 31.08 65.8225 31 65.9025 31C66.5692 31 67.3025 31.0267 68.1025 31.08C68.9292 31.1067 69.7959 31.12 70.7025 31.12C71.6092 31.12 72.5825 31.0933 73.6225 31.04C74.6892 30.96 75.5959 30.92 76.3425 30.92C79.1692 30.92 81.6225 31.4533 83.7025 32.52C85.8092 33.5867 87.4492 35.04 88.6225 36.88C89.7959 38.72 90.3825 40.7867 90.3825 43.08C90.3825 45.08 90.0225 46.8933 89.3025 48.52C88.6092 50.12 87.6359 51.4933 86.3825 52.64C85.1292 53.76 83.6892 54.6267 82.0625 55.24C80.4359 55.8533 78.7159 56.16 76.9025 56.16ZM76.5025 55.44C78.5025 55.44 80.2625 55 81.7825 54.12C83.3292 53.24 84.5425 51.9467 85.4225 50.24C86.3025 48.5067 86.7425 46.4133 86.7425 43.96C86.7425 41.64 86.3292 39.56 85.5025 37.72C84.6759 35.8533 83.5159 34.3733 82.0225 33.28C80.5559 32.16 78.7959 31.6 76.7425 31.6C75.1425 31.6 73.9959 31.76 73.3025 32.08C72.6359 32.4 72.3025 33.1467 72.3025 34.32V52.32C72.3025 53.3867 72.5692 54.1733 73.1025 54.68C73.6359 55.1867 74.7692 55.44 76.5025 55.44ZM111.114 56H94.0741C93.9941 56 93.9541 55.92 93.9541 55.76C93.9541 55.6 93.9941 55.52 94.0741 55.52C94.9808 55.52 95.6608 55.4533 96.1141 55.32C96.5941 55.1867 96.9141 54.92 97.0741 54.52C97.2341 54.12 97.3141 53.5333 97.3141 52.76V34.24C97.3141 33.4667 97.2341 32.8933 97.0741 32.52C96.9141 32.12 96.5941 31.8533 96.1141 31.72C95.6608 31.56 94.9808 31.48 94.0741 31.48C93.9941 31.48 93.9541 31.4 93.9541 31.24C93.9541 31.08 93.9941 31 94.0741 31H110.394C110.661 31 110.794 31.12 110.794 31.36L110.874 36.4C110.874 36.48 110.794 36.5333 110.634 36.56C110.501 36.56 110.421 36.52 110.394 36.44C110.207 34.9733 109.687 33.8667 108.834 33.12C107.981 32.3467 106.861 31.96 105.474 31.96H103.434C102.634 31.96 102.021 32.0267 101.594 32.16C101.167 32.2933 100.874 32.5467 100.714 32.92C100.554 33.2667 100.474 33.76 100.474 34.4V52.6C100.474 53.24 100.541 53.7467 100.674 54.12C100.834 54.4667 101.114 54.72 101.514 54.88C101.914 55.0133 102.474 55.08 103.194 55.08H105.834C107.354 55.08 108.607 54.64 109.594 53.76C110.581 52.8533 111.261 51.5733 111.634 49.92C111.634 49.84 111.714 49.8133 111.874 49.84C112.034 49.8667 112.114 49.92 112.114 50C112.007 50.72 111.914 51.5867 111.834 52.6C111.754 53.6133 111.714 54.5467 111.714 55.4C111.714 55.8 111.514 56 111.114 56ZM108.874 46.8C108.874 45.6533 108.541 44.8133 107.874 44.28C107.234 43.72 106.194 43.44 104.754 43.44H98.9541V42.52H104.874C106.234 42.52 107.234 42.2933 107.874 41.84C108.514 41.36 108.834 40.6267 108.834 39.64C108.834 39.5867 108.901 39.56 109.034 39.56C109.194 39.56 109.274 39.5867 109.274 39.64C109.274 40.4667 109.261 41.1067 109.234 41.56C109.234 42.0133 109.234 42.4933 109.234 43C109.234 43.6133 109.247 44.2267 109.274 44.84C109.327 45.4533 109.354 46.1067 109.354 46.8C109.354 46.8533 109.274 46.88 109.114 46.88C108.954 46.88 108.874 46.8533 108.874 46.8Z" fill="#EFEEEB"/>
</g>
<defs>
<filter id="filter0_d_29_106" x="0.240005" y="11.5601" width="121.279" height="52.9199" filterUnits="userSpaceOnUse" color-interpolation-filters="sRGB">
<feFlood flood-opacity="0" result="BackgroundImageFix"/>
<feColorMatrix in="SourceAlpha" type="matrix" values="0 0 0 0 0 0 0 0 0 0 0 0 0 0 0 0 0 0 127 0" result="hardAlpha"/>
<feOffset dy="4"/>
<feGaussianBlur stdDeviation="2"/>
<feComposite in2="hardAlpha" operator="out"/>
<feColorMatrix type="matrix" values="0 0 0 0 0 0 0 0 0 0 0 0 0 0 0 0 0 0 0.25 0"/>
<feBlend mode="normal" in2="BackgroundImageFix" result="effect1_dropShadow_29_106"/>
<feBlend mode="normal" in="SourceGraphic" in2="effect1_dropShadow_29_106" result="shape"/>
</filter>
</defs>
</svg>
