<svg width="22" height="24" viewBox="0 0 22 24" fill="none" xmlns="http://www.w3.org/2000/svg">
<path d="M3.01561 15.7394C1.50417 13.2703 0.318266 10.2482 0.0568796 7.29648C-0.259647 3.72162 2.23588 -1.45473 6.24278 0.397184C8.6258 1.49814 10.4174 4.17335 10.902 6.84667C10.4924 4.57915 14.2013 1.08713 15.9592 0.400209C18.3393 -0.529453 20.5997 0.515921 21.4249 3.11607C23.6749 10.193 18.7857 17.9225 14.1668 22.5794C11.0044 25.7694 8.82208 22.8602 6.51049 20.3083C5.22831 18.8928 4.02576 17.3899 3.01561 15.7394Z" fill="#880002"/>
<path d="M10.8162 10.3607C10.6808 10.3607 10.5538 10.3861 10.4354 10.4369C10.3211 10.4877 10.2217 10.5596 10.137 10.6527C10.0524 10.7458 9.98467 10.858 9.93389 10.9891C9.88734 11.1203 9.86407 11.2642 9.86407 11.4208C9.86407 11.4758 9.86618 11.5287 9.87042 11.5795C9.87888 11.626 9.88946 11.6789 9.90215 11.7382C9.80059 11.8143 9.67575 11.8757 9.52764 11.9222C9.38376 11.9646 9.24411 11.9857 9.1087 11.9857C8.97328 11.9857 8.8421 11.9646 8.71514 11.9222C8.59242 11.8799 8.4824 11.8164 8.38506 11.7318C8.29197 11.6472 8.21579 11.5414 8.15655 11.4144C8.10154 11.2832 8.07403 11.1309 8.07403 10.9574C8.07403 10.5977 8.15655 10.2782 8.32159 9.9989C8.48663 9.7196 8.7088 9.48474 8.98809 9.29431C9.26739 9.09965 9.59112 8.95365 9.95928 8.85632C10.3274 8.75476 10.7125 8.70398 11.1146 8.70398C11.5504 8.70398 11.9482 8.75688 12.3079 8.86267C12.6718 8.96847 12.985 9.12504 13.2474 9.3324C13.5097 9.53975 13.7129 9.79789 13.8567 10.1068C14.0049 10.4115 14.0789 10.7649 14.0789 11.1669C14.0789 11.5562 13.9858 11.9434 13.7996 12.3285C13.6176 12.7094 13.3574 13.1008 13.0189 13.5028C12.6845 13.9006 12.2804 14.3132 11.8065 14.7406C11.3325 15.168 10.8078 15.6187 10.2322 16.0927H11.6097C11.8932 16.0927 12.126 16.0588 12.3079 15.9911C12.4941 15.9234 12.6465 15.8366 12.7649 15.7308C12.8877 15.6208 12.985 15.5002 13.0569 15.369C13.1289 15.2378 13.1966 15.1066 13.2601 14.9755L13.4378 14.5819L14.4915 14.7533C14.4534 14.9945 14.4153 15.2611 14.3773 15.5531C14.3434 15.8409 14.3117 16.1244 14.282 16.4037C14.2524 16.683 14.2228 16.9454 14.1932 17.1908C14.1678 17.4362 14.1466 17.6372 14.1297 17.7938H8.35967L7.91534 16.5878C8.19887 16.2915 8.49086 15.9932 8.79131 15.6927C9.096 15.3881 9.39011 15.0834 9.67364 14.7787C9.9614 14.474 10.2322 14.1735 10.4861 13.8773C10.74 13.5811 10.9622 13.2933 11.1526 13.014C11.3431 12.7305 11.4933 12.4597 11.6033 12.2015C11.7176 11.9392 11.7747 11.6937 11.7747 11.4652C11.7747 11.1309 11.6943 10.8643 11.5335 10.6654C11.3727 10.4623 11.1336 10.3607 10.8162 10.3607Z" fill="white"/>
</svg>
