<svg width="153" height="104" viewBox="0 0 153 104" fill="none" xmlns="http://www.w3.org/2000/svg">
<path d="M35.9114 8.408L34.1334 12.986C34.1241 13.0233 34.0727 13.042 33.9794 13.042C33.8954 13.042 33.8441 13.0233 33.8254 12.986L30.3114 5.412C30.1994 5.15067 30.0874 4.95 29.9754 4.81C29.8727 4.67 29.7561 4.572 29.6254 4.516C29.5041 4.45067 29.3501 4.418 29.1634 4.418C29.1354 4.418 29.1214 4.39 29.1214 4.334C29.1214 4.278 29.1354 4.25 29.1634 4.25C29.2847 4.25 29.3967 4.25467 29.4994 4.264C29.6021 4.27333 29.7141 4.28267 29.8354 4.292C29.9567 4.292 30.1061 4.292 30.2834 4.292C30.5914 4.292 30.8527 4.292 31.0674 4.292C31.2821 4.28267 31.4687 4.27333 31.6274 4.264C31.7861 4.25467 31.9307 4.25 32.0614 4.25C32.0894 4.25 32.1034 4.278 32.1034 4.334C32.1034 4.39 32.0894 4.418 32.0614 4.418C31.6881 4.418 31.4501 4.488 31.3474 4.628C31.2541 4.75867 31.3007 5.034 31.4874 5.454L34.4554 11.796L33.9234 12.566L35.6874 8.086L35.9114 8.408ZM42.1554 4.25C42.1834 4.25 42.1974 4.278 42.1974 4.334C42.1974 4.39 42.1834 4.418 42.1554 4.418C41.8381 4.418 41.5487 4.52067 41.2874 4.726C41.0354 4.922 40.8207 5.244 40.6434 5.692L37.7874 12.986C37.7781 13.0233 37.7267 13.042 37.6334 13.042C37.5494 13.042 37.4981 13.0233 37.4794 12.986L33.9654 5.412C33.8161 5.076 33.6574 4.82867 33.4894 4.67C33.3307 4.502 33.1301 4.418 32.8874 4.418C32.8594 4.418 32.8454 4.39 32.8454 4.334C32.8454 4.278 32.8594 4.25 32.8874 4.25C33.0087 4.25 33.1161 4.25467 33.2094 4.264C33.3121 4.27333 33.4194 4.28267 33.5314 4.292C33.6434 4.292 33.7787 4.292 33.9374 4.292C34.3107 4.292 34.5907 4.28733 34.7774 4.278C34.9734 4.25933 35.1461 4.25 35.2954 4.25C35.3234 4.25 35.3374 4.278 35.3374 4.334C35.3374 4.39 35.3234 4.418 35.2954 4.418C35.0154 4.418 34.8661 4.47867 34.8474 4.6C34.8381 4.72133 34.9361 5.006 35.1414 5.454L38.1094 11.796L37.5774 12.566L40.2794 5.692C40.4381 5.28133 40.4474 4.96867 40.3074 4.754C40.1767 4.53 39.8874 4.418 39.4394 4.418C39.4114 4.418 39.3974 4.39 39.3974 4.334C39.3974 4.278 39.4114 4.25 39.4394 4.25C39.6634 4.25 39.8827 4.25933 40.0974 4.278C40.3121 4.28733 40.5827 4.292 40.9094 4.292C41.1801 4.292 41.3947 4.28733 41.5534 4.278C41.7214 4.25933 41.9221 4.25 42.1554 4.25ZM35.7574 8.086L36.7234 5.622C36.8914 5.202 36.9521 4.89867 36.9054 4.712C36.8587 4.516 36.6907 4.418 36.4014 4.418C36.3827 4.418 36.3734 4.39 36.3734 4.334C36.3734 4.278 36.3827 4.25 36.4014 4.25C36.5041 4.25 36.5834 4.25467 36.6394 4.264C36.7047 4.27333 36.7841 4.28267 36.8774 4.292C36.9707 4.292 37.1201 4.292 37.3254 4.292C37.5681 4.292 37.7687 4.28733 37.9274 4.278C38.0861 4.25933 38.2774 4.25 38.5014 4.25C38.5201 4.25 38.5294 4.278 38.5294 4.334C38.5294 4.39 38.5201 4.418 38.5014 4.418C38.1934 4.418 37.9227 4.51133 37.6894 4.698C37.4561 4.88467 37.2461 5.216 37.0594 5.692L35.9814 8.408L35.7574 8.086ZM48.6626 13H42.6986C42.6706 13 42.6566 12.972 42.6566 12.916C42.6566 12.86 42.6706 12.832 42.6986 12.832C43.016 12.832 43.254 12.8087 43.4126 12.762C43.5806 12.7153 43.6926 12.622 43.7486 12.482C43.8046 12.342 43.8326 12.1367 43.8326 11.866V5.384C43.8326 5.11333 43.8046 4.91267 43.7486 4.782C43.6926 4.642 43.5806 4.54867 43.4126 4.502C43.254 4.446 43.016 4.418 42.6986 4.418C42.6706 4.418 42.6566 4.39 42.6566 4.334C42.6566 4.278 42.6706 4.25 42.6986 4.25H48.4106C48.504 4.25 48.5506 4.292 48.5506 4.376L48.5786 6.14C48.5786 6.168 48.5506 6.18667 48.4946 6.196C48.448 6.196 48.42 6.182 48.4106 6.154C48.3453 5.64067 48.1633 5.25333 47.8646 4.992C47.566 4.72133 47.174 4.586 46.6886 4.586H45.9746C45.6946 4.586 45.48 4.60933 45.3306 4.656C45.1813 4.70267 45.0786 4.79133 45.0226 4.922C44.9666 5.04333 44.9386 5.216 44.9386 5.44V11.81C44.9386 12.034 44.962 12.2113 45.0086 12.342C45.0646 12.4633 45.1626 12.552 45.3026 12.608C45.4426 12.6547 45.6386 12.678 45.8906 12.678H46.8146C47.3466 12.678 47.7853 12.524 48.1306 12.216C48.476 11.8987 48.714 11.4507 48.8446 10.872C48.8446 10.844 48.8726 10.8347 48.9286 10.844C48.9846 10.8533 49.0126 10.872 49.0126 10.9C48.9753 11.152 48.9426 11.4553 48.9146 11.81C48.8866 12.1647 48.8726 12.4913 48.8726 12.79C48.8726 12.93 48.8026 13 48.6626 13ZM47.8786 9.78C47.8786 9.37867 47.762 9.08467 47.5286 8.898C47.3046 8.702 46.9406 8.604 46.4366 8.604H44.4066V8.282H46.4786C46.9546 8.282 47.3046 8.20267 47.5286 8.044C47.7526 7.876 47.8646 7.61933 47.8646 7.274C47.8646 7.25533 47.888 7.246 47.9346 7.246C47.9906 7.246 48.0186 7.25533 48.0186 7.274C48.0186 7.56333 48.014 7.78733 48.0046 7.946C48.0046 8.10467 48.0046 8.27267 48.0046 8.45C48.0046 8.66467 48.0093 8.87933 48.0186 9.094C48.0373 9.30867 48.0466 9.53733 48.0466 9.78C48.0466 9.79867 48.0186 9.808 47.9626 9.808C47.9066 9.808 47.8786 9.79867 47.8786 9.78ZM54.0245 13.056C53.7445 13.056 53.3992 13.042 52.9885 13.014C52.5779 12.986 52.1999 12.972 51.8545 12.972C51.5372 12.972 51.2292 12.9767 50.9305 12.986C50.6412 12.9953 50.3799 13 50.1465 13C50.1279 13 50.1185 12.972 50.1185 12.916C50.1185 12.86 50.1279 12.832 50.1465 12.832C50.4732 12.832 50.7205 12.8087 50.8885 12.762C51.0565 12.7153 51.1685 12.622 51.2245 12.482C51.2805 12.342 51.3085 12.1367 51.3085 11.866V5.384C51.3085 5.11333 51.2805 4.91267 51.2245 4.782C51.1685 4.642 51.0565 4.54867 50.8885 4.502C50.7299 4.446 50.4919 4.418 50.1745 4.418C50.1465 4.418 50.1325 4.39 50.1325 4.334C50.1325 4.278 50.1465 4.25 50.1745 4.25C50.4079 4.25 50.6645 4.25933 50.9445 4.278C51.2339 4.28733 51.5372 4.292 51.8545 4.292C52.1719 4.292 52.5125 4.28267 52.8765 4.264C53.2499 4.236 53.5672 4.222 53.8285 4.222C54.8179 4.222 55.6765 4.40867 56.4045 4.782C57.1419 5.15533 57.7159 5.664 58.1265 6.308C58.5372 6.952 58.7425 7.67533 58.7425 8.478C58.7425 9.178 58.6165 9.81267 58.3645 10.382C58.1219 10.942 57.7812 11.4227 57.3425 11.824C56.9039 12.216 56.3999 12.5193 55.8305 12.734C55.2612 12.9487 54.6592 13.056 54.0245 13.056ZM53.8845 12.804C54.5845 12.804 55.2005 12.65 55.7325 12.342C56.2739 12.034 56.6985 11.5813 57.0065 10.984C57.3145 10.3773 57.4685 9.64467 57.4685 8.786C57.4685 7.974 57.3239 7.246 57.0345 6.602C56.7452 5.94867 56.3392 5.43067 55.8165 5.048C55.3032 4.656 54.6872 4.46 53.9685 4.46C53.4085 4.46 53.0072 4.516 52.7645 4.628C52.5312 4.74 52.4145 5.00133 52.4145 5.412V11.712C52.4145 12.0853 52.5079 12.3607 52.6945 12.538C52.8812 12.7153 53.2779 12.804 53.8845 12.804ZM63.7726 13.056C63.4926 13.056 63.1473 13.042 62.7366 13.014C62.3259 12.986 61.9479 12.972 61.6026 12.972C61.2853 12.972 60.9773 12.9767 60.6786 12.986C60.3893 12.9953 60.1279 13 59.8946 13C59.8759 13 59.8666 12.972 59.8666 12.916C59.8666 12.86 59.8759 12.832 59.8946 12.832C60.2213 12.832 60.4686 12.8087 60.6366 12.762C60.8046 12.7153 60.9166 12.622 60.9726 12.482C61.0286 12.342 61.0566 12.1367 61.0566 11.866V5.384C61.0566 5.11333 61.0286 4.91267 60.9726 4.782C60.9166 4.642 60.8046 4.54867 60.6366 4.502C60.4779 4.446 60.2399 4.418 59.9226 4.418C59.8946 4.418 59.8806 4.39 59.8806 4.334C59.8806 4.278 59.8946 4.25 59.9226 4.25C60.1559 4.25 60.4126 4.25933 60.6926 4.278C60.9819 4.28733 61.2853 4.292 61.6026 4.292C61.9199 4.292 62.2606 4.28267 62.6246 4.264C62.9979 4.236 63.3153 4.222 63.5766 4.222C64.5659 4.222 65.4246 4.40867 66.1526 4.782C66.8899 5.15533 67.4639 5.664 67.8746 6.308C68.2853 6.952 68.4906 7.67533 68.4906 8.478C68.4906 9.178 68.3646 9.81267 68.1126 10.382C67.8699 10.942 67.5293 11.4227 67.0906 11.824C66.6519 12.216 66.1479 12.5193 65.5786 12.734C65.0093 12.9487 64.4073 13.056 63.7726 13.056ZM63.6326 12.804C64.3326 12.804 64.9486 12.65 65.4806 12.342C66.0219 12.034 66.4466 11.5813 66.7546 10.984C67.0626 10.3773 67.2166 9.64467 67.2166 8.786C67.2166 7.974 67.0719 7.246 66.7826 6.602C66.4933 5.94867 66.0873 5.43067 65.5646 5.048C65.0513 4.656 64.4353 4.46 63.7166 4.46C63.1566 4.46 62.7553 4.516 62.5126 4.628C62.2793 4.74 62.1626 5.00133 62.1626 5.412V11.712C62.1626 12.0853 62.2559 12.3607 62.4426 12.538C62.6293 12.7153 63.0259 12.804 63.6326 12.804ZM72.0926 11.866C72.0926 12.1367 72.116 12.342 72.1626 12.482C72.2186 12.622 72.326 12.7153 72.4846 12.762C72.6526 12.8087 72.9 12.832 73.2266 12.832C73.2453 12.832 73.2546 12.86 73.2546 12.916C73.2546 12.972 73.2453 13 73.2266 13C72.9933 13 72.732 12.9953 72.4426 12.986C72.1626 12.9767 71.8546 12.972 71.5186 12.972C71.192 12.972 70.884 12.9767 70.5946 12.986C70.3053 12.9953 70.044 13 69.8106 13C69.792 13 69.7826 12.972 69.7826 12.916C69.7826 12.86 69.792 12.832 69.8106 12.832C70.1373 12.832 70.3846 12.8087 70.5526 12.762C70.7206 12.7153 70.8326 12.622 70.8886 12.482C70.9446 12.342 70.9726 12.1367 70.9726 11.866V5.384C70.9726 5.11333 70.9446 4.91267 70.8886 4.782C70.8326 4.642 70.7206 4.54867 70.5526 4.502C70.3846 4.446 70.1373 4.418 69.8106 4.418C69.792 4.418 69.7826 4.39 69.7826 4.334C69.7826 4.278 69.792 4.25 69.8106 4.25C70.044 4.25 70.3053 4.25933 70.5946 4.278C70.884 4.28733 71.192 4.292 71.5186 4.292C71.8546 4.292 72.1673 4.28733 72.4566 4.278C72.746 4.25933 73.0026 4.25 73.2266 4.25C73.2453 4.25 73.2546 4.278 73.2546 4.334C73.2546 4.39 73.2453 4.418 73.2266 4.418C72.9 4.418 72.6573 4.446 72.4986 4.502C72.34 4.558 72.2326 4.656 72.1766 4.796C72.1206 4.936 72.0926 5.14133 72.0926 5.412V11.866ZM75.5781 11.404V4.572L75.9421 4.6V11.404C75.9421 11.8893 76.0308 12.2487 76.2081 12.482C76.3854 12.7153 76.6654 12.832 77.0481 12.832C77.0668 12.832 77.0761 12.86 77.0761 12.916C77.0761 12.972 77.0668 13 77.0481 13C76.8521 13 76.6514 12.9953 76.4461 12.986C76.2501 12.9767 76.0261 12.972 75.7741 12.972C75.5314 12.972 75.2934 12.9767 75.0601 12.986C74.8268 12.9953 74.6074 13 74.4021 13C74.3834 13 74.3741 12.972 74.3741 12.916C74.3741 12.86 74.3834 12.832 74.4021 12.832C74.8128 12.832 75.1114 12.7153 75.2981 12.482C75.4848 12.2487 75.5781 11.8893 75.5781 11.404ZM82.6621 13.182C82.6621 13.2007 82.6388 13.21 82.5921 13.21C82.5548 13.2193 82.5268 13.2193 82.5081 13.21L75.9141 5.398C75.5874 5.01533 75.3028 4.75867 75.0601 4.628C74.8268 4.488 74.5934 4.418 74.3601 4.418C74.3414 4.418 74.3321 4.39 74.3321 4.334C74.3321 4.278 74.3414 4.25 74.3601 4.25C74.5374 4.25 74.7148 4.25467 74.8921 4.264C75.0694 4.27333 75.2328 4.278 75.3821 4.278C75.6061 4.278 75.8114 4.27333 75.9981 4.264C76.1848 4.25467 76.3248 4.25 76.4181 4.25C76.5394 4.25 76.6281 4.306 76.6841 4.418C76.7401 4.52067 76.8754 4.70733 77.0901 4.978L82.5501 11.558L82.6621 13.182ZM82.6621 5.86V13.182L82.3121 12.748V5.86C82.3121 5.37467 82.2234 5.01533 82.0461 4.782C81.8781 4.53933 81.6028 4.418 81.2201 4.418C81.2014 4.418 81.1921 4.39 81.1921 4.334C81.1921 4.278 81.2014 4.25 81.2201 4.25C81.4161 4.25 81.6168 4.25933 81.8221 4.278C82.0274 4.28733 82.2514 4.292 82.4941 4.292C82.7274 4.292 82.9561 4.28733 83.1801 4.278C83.4041 4.25933 83.6141 4.25 83.8101 4.25C83.8288 4.25 83.8381 4.278 83.8381 4.334C83.8381 4.39 83.8288 4.418 83.8101 4.418C83.4181 4.418 83.1288 4.53933 82.9421 4.782C82.7554 5.01533 82.6621 5.37467 82.6621 5.86ZM89.7806 13.168C88.7353 13.168 87.8393 12.972 87.0926 12.58C86.346 12.1787 85.772 11.642 85.3706 10.97C84.9786 10.298 84.7826 9.55133 84.7826 8.73C84.7826 8.03933 84.9133 7.414 85.1746 6.854C85.4453 6.28467 85.8186 5.79467 86.2946 5.384C86.78 4.97333 87.3446 4.656 87.9886 4.432C88.6326 4.208 89.3373 4.096 90.1026 4.096C90.5413 4.096 90.9753 4.138 91.4046 4.222C91.834 4.29667 92.184 4.40867 92.4546 4.558C92.5386 4.60467 92.5853 4.65133 92.5946 4.698C92.6133 4.73533 92.6273 4.796 92.6366 4.88L92.8186 6.574C92.8186 6.59267 92.7906 6.60667 92.7346 6.616C92.688 6.62533 92.66 6.61133 92.6506 6.574C92.408 5.89267 92.0113 5.36533 91.4606 4.992C90.9193 4.61867 90.2566 4.432 89.4726 4.432C88.362 4.432 87.508 4.77267 86.9106 5.454C86.3226 6.13533 86.0286 7.05467 86.0286 8.212C86.0286 9.14533 86.206 9.96667 86.5606 10.676C86.9153 11.376 87.4006 11.9267 88.0166 12.328C88.642 12.7293 89.3466 12.93 90.1306 12.93C90.5506 12.93 90.8866 12.888 91.1386 12.804C91.3906 12.72 91.5726 12.5567 91.6846 12.314C91.806 12.0713 91.8666 11.712 91.8666 11.236C91.8666 10.788 91.8386 10.4613 91.7826 10.256C91.7266 10.0413 91.5913 9.90133 91.3766 9.836C91.162 9.77067 90.8166 9.738 90.3406 9.738C90.2846 9.738 90.2566 9.70067 90.2566 9.626C90.2566 9.55133 90.28 9.514 90.3266 9.514C90.9333 9.55133 91.484 9.57467 91.9786 9.584C92.4826 9.584 93.0053 9.57 93.5466 9.542C93.5933 9.542 93.6166 9.57467 93.6166 9.64C93.6166 9.70533 93.5933 9.738 93.5466 9.738C93.3506 9.72867 93.206 9.76133 93.1126 9.836C93.0286 9.90133 92.9726 10.0507 92.9446 10.284C92.926 10.5173 92.9166 10.8813 92.9166 11.376C92.9166 11.684 92.926 11.9127 92.9446 12.062C92.9633 12.2113 92.9773 12.3233 92.9866 12.398C93.0053 12.4633 93.0146 12.5333 93.0146 12.608C93.0146 12.664 93.0006 12.7013 92.9726 12.72C92.954 12.7387 92.912 12.7573 92.8466 12.776C92.3613 12.888 91.8526 12.9813 91.3206 13.056C90.7886 13.1307 90.2753 13.168 89.7806 13.168ZM101.739 13.056C101.459 13.056 101.114 13.042 100.703 13.014C100.293 12.986 99.9147 12.972 99.5694 12.972C99.2521 12.972 98.9441 12.9767 98.6454 12.986C98.3561 12.9953 98.0947 13 97.8614 13C97.8427 13 97.8334 12.972 97.8334 12.916C97.8334 12.86 97.8427 12.832 97.8614 12.832C98.1881 12.832 98.4354 12.8087 98.6034 12.762C98.7714 12.7153 98.8834 12.622 98.9394 12.482C98.9954 12.342 99.0234 12.1367 99.0234 11.866V5.384C99.0234 5.11333 98.9954 4.91267 98.9394 4.782C98.8834 4.642 98.7714 4.54867 98.6034 4.502C98.4447 4.446 98.2067 4.418 97.8894 4.418C97.8614 4.418 97.8474 4.39 97.8474 4.334C97.8474 4.278 97.8614 4.25 97.8894 4.25C98.1227 4.25 98.3794 4.25933 98.6594 4.278C98.9487 4.28733 99.2521 4.292 99.5694 4.292C99.8867 4.292 100.227 4.28267 100.591 4.264C100.965 4.236 101.282 4.222 101.543 4.222C102.533 4.222 103.391 4.40867 104.119 4.782C104.857 5.15533 105.431 5.664 105.841 6.308C106.252 6.952 106.457 7.67533 106.457 8.478C106.457 9.178 106.331 9.81267 106.079 10.382C105.837 10.942 105.496 11.4227 105.057 11.824C104.619 12.216 104.115 12.5193 103.545 12.734C102.976 12.9487 102.374 13.056 101.739 13.056ZM101.599 12.804C102.299 12.804 102.915 12.65 103.447 12.342C103.989 12.034 104.413 11.5813 104.721 10.984C105.029 10.3773 105.183 9.64467 105.183 8.786C105.183 7.974 105.039 7.246 104.749 6.602C104.46 5.94867 104.054 5.43067 103.531 5.048C103.018 4.656 102.402 4.46 101.683 4.46C101.123 4.46 100.722 4.516 100.479 4.628C100.246 4.74 100.129 5.00133 100.129 5.412V11.712C100.129 12.0853 100.223 12.3607 100.409 12.538C100.596 12.7153 100.993 12.804 101.599 12.804ZM109.993 8.506L110.203 8.184H113.087L113.185 8.506H109.993ZM116.839 12.832C116.886 12.832 116.909 12.86 116.909 12.916C116.909 12.972 116.886 13 116.839 13C116.569 13 116.289 12.9907 115.999 12.972C115.719 12.9533 115.444 12.944 115.173 12.944C114.875 12.944 114.613 12.9533 114.389 12.972C114.175 12.9907 113.932 13 113.661 13C113.624 13 113.605 12.972 113.605 12.916C113.605 12.86 113.624 12.832 113.661 12.832C114.119 12.832 114.399 12.762 114.501 12.622C114.604 12.4727 114.553 12.1833 114.347 11.754L111.337 5.496L111.785 4.824L109.055 11.152C108.813 11.7213 108.799 12.146 109.013 12.426C109.228 12.6967 109.629 12.832 110.217 12.832C110.264 12.832 110.287 12.86 110.287 12.916C110.287 12.972 110.264 13 110.217 13C109.937 13 109.681 12.9907 109.447 12.972C109.214 12.9533 108.92 12.944 108.565 12.944C108.22 12.944 107.94 12.9533 107.725 12.972C107.52 12.9907 107.268 13 106.969 13C106.932 13 106.913 12.972 106.913 12.916C106.913 12.86 106.932 12.832 106.969 12.832C107.221 12.832 107.441 12.7853 107.627 12.692C107.814 12.5893 107.991 12.4073 108.159 12.146C108.337 11.8847 108.528 11.5113 108.733 11.026L111.715 4.152C111.725 4.124 111.757 4.11 111.813 4.11C111.869 4.10067 111.902 4.11467 111.911 4.152L115.271 11.082C115.495 11.5393 115.687 11.8987 115.845 12.16C116.013 12.412 116.177 12.5893 116.335 12.692C116.494 12.7853 116.662 12.832 116.839 12.832ZM120.318 9.01L122.306 5.888C122.586 5.42133 122.689 5.062 122.614 4.81C122.539 4.54867 122.292 4.418 121.872 4.418C121.844 4.418 121.83 4.39 121.83 4.334C121.83 4.278 121.844 4.25 121.872 4.25C122.143 4.25 122.395 4.25933 122.628 4.278C122.871 4.28733 123.188 4.292 123.58 4.292C123.813 4.292 124 4.28733 124.14 4.278C124.289 4.25933 124.467 4.25 124.672 4.25C124.691 4.25 124.7 4.278 124.7 4.334C124.7 4.39 124.691 4.418 124.672 4.418C124.467 4.418 124.243 4.48333 124 4.614C123.757 4.73533 123.519 4.91267 123.286 5.146C123.062 5.37 122.852 5.64067 122.656 5.958L120.584 9.234L120.318 9.01ZM119.968 9.192L117.574 5.608C117.266 5.15067 117 4.838 116.776 4.67C116.552 4.502 116.309 4.418 116.048 4.418C116.02 4.418 116.006 4.39 116.006 4.334C116.006 4.278 116.02 4.25 116.048 4.25C116.197 4.25 116.356 4.25933 116.524 4.278C116.692 4.28733 116.851 4.292 117 4.292C117.261 4.292 117.518 4.292 117.77 4.292C118.022 4.28267 118.26 4.27333 118.484 4.264C118.717 4.25467 118.918 4.25 119.086 4.25C119.105 4.25 119.114 4.278 119.114 4.334C119.114 4.39 119.105 4.418 119.086 4.418C118.75 4.418 118.54 4.48333 118.456 4.614C118.381 4.74467 118.423 4.922 118.582 5.146L120.85 8.548L119.968 9.192ZM119.8 8.66L120.92 8.534V11.866C120.92 12.1367 120.943 12.342 120.99 12.482C121.046 12.622 121.153 12.7153 121.312 12.762C121.471 12.8087 121.713 12.832 122.04 12.832C122.068 12.832 122.082 12.86 122.082 12.916C122.082 12.972 122.068 13 122.04 13C121.816 13 121.559 12.9953 121.27 12.986C120.99 12.9767 120.682 12.972 120.346 12.972C120.029 12.972 119.721 12.9767 119.422 12.986C119.133 12.9953 118.876 13 118.652 13C118.624 13 118.61 12.972 118.61 12.916C118.61 12.86 118.624 12.832 118.652 12.832C118.979 12.832 119.221 12.8087 119.38 12.762C119.548 12.7153 119.66 12.622 119.716 12.482C119.772 12.342 119.8 12.1367 119.8 11.866V8.66Z" fill="#DADADA"/>
<path d="M29.704 96C29.512 96 29.3307 95.968 29.16 95.904C29.0107 95.84 28.7867 95.648 28.488 95.328C28.2107 95.008 27.8053 94.4853 27.272 93.76C26.7387 93.0133 26.0027 91.968 25.064 90.624C24.3813 89.664 23.816 88.8747 23.368 88.256C22.9413 87.6373 22.5573 87.168 22.216 86.848C21.8747 86.5067 21.512 86.272 21.128 86.144C20.744 85.9947 20.264 85.92 19.688 85.92C19.4747 85.92 19.2613 85.9307 19.048 85.952C18.8347 85.9733 18.6107 85.9947 18.376 86.016L18.344 85.44C19.7733 85.376 20.8933 85.344 21.704 85.344C22.472 85.344 23.1013 85.408 23.592 85.536C24.104 85.6427 24.5627 85.8667 24.968 86.208C25.3947 86.528 25.8533 86.9973 26.344 87.616C26.8347 88.2133 27.432 89.0027 28.136 89.984C28.9893 91.1573 29.736 92.16 30.376 92.992C31.016 93.824 31.6453 94.464 32.264 94.912C32.8827 95.36 33.5653 95.5947 34.312 95.616C34.376 95.616 34.408 95.68 34.408 95.808C34.408 95.936 34.376 96 34.312 96H29.704ZM13.896 96C13.832 96 13.8 95.936 13.8 95.808C13.8 95.68 13.832 95.616 13.896 95.616C14.6213 95.616 15.176 95.5627 15.56 95.456C15.944 95.3493 16.1893 95.136 16.296 94.816C16.424 94.496 16.488 94.0267 16.488 93.408V78.592C16.488 77.9733 16.424 77.5147 16.296 77.216C16.1893 76.896 15.944 76.6827 15.56 76.576C15.1973 76.448 14.6533 76.384 13.928 76.384C13.864 76.384 13.832 76.32 13.832 76.192C13.832 76.064 13.864 76 13.928 76C14.4613 76 15.0587 76.0213 15.72 76.064C16.4027 76.0853 17.1173 76.096 17.864 76.096C18.696 76.096 19.4747 76.0853 20.2 76.064C20.9253 76.0213 21.5653 76 22.12 76C22.1627 76 22.184 76.064 22.184 76.192C22.184 76.32 22.1627 76.384 22.12 76.384C21.3947 76.384 20.84 76.448 20.456 76.576C20.0933 76.704 19.848 76.928 19.72 77.248C19.592 77.568 19.528 78.0373 19.528 78.656V93.408C19.528 94.0267 19.592 94.496 19.72 94.816C19.848 95.136 20.0933 95.3493 20.456 95.456C20.8187 95.5627 21.3733 95.616 22.12 95.616C22.1627 95.616 22.184 95.68 22.184 95.808C22.184 95.936 22.1627 96 22.12 96C21.544 96 20.8933 95.9893 20.168 95.968C19.464 95.9467 18.696 95.936 17.864 95.936C17.1173 95.936 16.4027 95.9467 15.72 95.968C15.0373 95.9893 14.4293 96 13.896 96ZM22.344 85.856L21.768 85.568L25.448 80.448C26.4293 79.1253 26.8773 78.1227 26.792 77.44C26.728 76.736 26.2587 76.384 25.384 76.384C25.3413 76.384 25.32 76.32 25.32 76.192C25.32 76.064 25.3413 76 25.384 76C25.896 76 26.4507 76.0213 27.048 76.064C27.6667 76.0853 28.4027 76.096 29.256 76.096C30.1733 76.096 30.8987 76.0853 31.432 76.064C31.9867 76.0213 32.5093 76 33 76C33.064 76 33.096 76.064 33.096 76.192C33.096 76.32 33.064 76.384 33 76.384C32.3387 76.384 31.656 76.5333 30.952 76.832C30.248 77.1093 29.5653 77.5147 28.904 78.048C28.2427 78.5813 27.6133 79.2213 27.016 79.968L22.344 85.856ZM46.533 75.648C47.4503 75.648 48.4317 75.7333 49.477 75.904C50.5223 76.0533 51.3543 76.288 51.973 76.608C52.165 76.672 52.2823 76.7573 52.325 76.864C52.389 76.9493 52.4317 77.1093 52.453 77.344L52.837 81.504C52.837 81.5467 52.7837 81.5893 52.677 81.632C52.5917 81.6533 52.5277 81.6213 52.485 81.536C51.8663 79.872 50.9277 78.6027 49.669 77.728C48.4317 76.8533 46.9703 76.416 45.285 76.416C43.7703 76.416 42.4797 76.7787 41.413 77.504C40.3677 78.2293 39.557 79.2427 38.981 80.544C38.4263 81.824 38.149 83.3173 38.149 85.024C38.149 86.5173 38.3517 87.9147 38.757 89.216C39.1623 90.5173 39.7277 91.6587 40.453 92.64C41.1783 93.6213 42.0317 94.3893 43.013 94.944C43.9943 95.4987 45.061 95.776 46.213 95.776C47.621 95.776 48.869 95.3493 49.957 94.496C51.0663 93.6213 52.005 92.256 52.773 90.4C52.8157 90.3147 52.8903 90.2933 52.997 90.336C53.1037 90.3573 53.157 90.3893 53.157 90.432L52.677 94.528C52.6343 94.784 52.581 94.9547 52.517 95.04C52.4743 95.104 52.357 95.1787 52.165 95.264C51.1837 95.648 50.1917 95.9253 49.189 96.096C48.1863 96.288 47.205 96.384 46.245 96.384C44.197 96.384 42.437 96.0747 40.965 95.456C39.493 94.816 38.2983 93.984 37.381 92.96C36.4637 91.9147 35.781 90.7733 35.333 89.536C34.9063 88.2987 34.693 87.0827 34.693 85.888C34.693 84.3307 35.013 82.9227 35.653 81.664C36.3143 80.4053 37.1997 79.328 38.309 78.432C39.4183 77.536 40.677 76.8533 42.085 76.384C43.5143 75.8933 44.997 75.648 46.533 75.648ZM69.7633 96H55.8753C55.8113 96 55.7793 95.936 55.7793 95.808C55.7793 95.68 55.8113 95.616 55.8753 95.616C56.5793 95.616 57.1019 95.5627 57.4433 95.456C57.7846 95.3493 58.0086 95.136 58.1153 94.816C58.2433 94.496 58.3073 94.0267 58.3073 93.408V78.592C58.3073 77.9733 58.2433 77.5147 58.1153 77.216C58.0086 76.896 57.7846 76.6827 57.4433 76.576C57.1019 76.448 56.5793 76.384 55.8753 76.384C55.8113 76.384 55.7793 76.32 55.7793 76.192C55.7793 76.064 55.8113 76 55.8753 76H69.1873C69.4006 76 69.5073 76.096 69.5073 76.288L69.5713 80.448C69.5713 80.4907 69.5179 80.5227 69.4113 80.544C69.3046 80.544 69.2299 80.512 69.1873 80.448C68.9526 79.232 68.4619 78.3253 67.7153 77.728C66.9686 77.1307 65.9873 76.832 64.7713 76.832H63.4593C62.9259 76.832 62.4993 76.896 62.1793 77.024C61.8806 77.1307 61.6673 77.3227 61.5393 77.6C61.4113 77.856 61.3473 78.208 61.3473 78.656V93.28C61.3473 93.728 61.4006 94.1013 61.5073 94.4C61.6353 94.6773 61.8273 94.88 62.0833 95.008C62.3393 95.1147 62.7019 95.168 63.1713 95.168H64.7393C66.1899 95.168 67.3633 94.8267 68.2593 94.144C69.1553 93.44 69.7953 92.4053 70.1793 91.04C70.2006 90.976 70.2646 90.9547 70.3713 90.976C70.4993 90.9973 70.5633 91.0293 70.5633 91.072C70.4779 91.6693 70.4033 92.384 70.3393 93.216C70.2753 94.048 70.2433 94.816 70.2433 95.52C70.2433 95.84 70.0833 96 69.7633 96ZM67.9713 88.768C67.9713 87.872 67.6726 87.1893 67.0753 86.72C66.4779 86.2507 65.5819 86.016 64.3873 86.016H59.9073V85.184H64.4193C65.6139 85.184 66.4993 84.9813 67.0753 84.576C67.6513 84.1707 67.9393 83.584 67.9393 82.816C67.9393 82.752 67.9926 82.72 68.0993 82.72C68.2273 82.72 68.2913 82.752 68.2913 82.816C68.2913 83.4987 68.2806 84.032 68.2593 84.416C68.2593 84.8 68.2593 85.1947 68.2593 85.6C68.2593 86.112 68.2699 86.624 68.2913 87.136C68.3339 87.6267 68.3553 88.1707 68.3553 88.768C68.3553 88.8107 68.2913 88.832 68.1633 88.832C68.0353 88.832 67.9713 88.8107 67.9713 88.768ZM89.7273 78.656C89.7273 78.0373 89.6633 77.568 89.5353 77.248C89.4073 76.928 89.1513 76.704 88.7673 76.576C88.3832 76.448 87.7966 76.384 87.0073 76.384C86.9433 76.384 86.9113 76.32 86.9113 76.192C86.9113 76.064 86.9433 76 87.0073 76C87.5406 76 88.1486 76.0213 88.8313 76.064C89.5353 76.0853 90.3459 76.096 91.2633 76.096C92.0099 76.096 92.7459 76.0853 93.4713 76.064C94.1966 76.0213 94.8259 76 95.3593 76C95.4233 76 95.4553 76.064 95.4553 76.192C95.4553 76.32 95.4233 76.384 95.3593 76.384C94.6126 76.384 94.0473 76.448 93.6633 76.576C93.3006 76.6827 93.0553 76.896 92.9273 77.216C92.7993 77.5147 92.7353 77.9733 92.7353 78.592V93.408C92.7353 94.0267 92.7993 94.496 92.9273 94.816C93.0553 95.136 93.3006 95.3493 93.6633 95.456C94.0473 95.5627 94.6126 95.616 95.3593 95.616C95.4233 95.616 95.4553 95.68 95.4553 95.808C95.4553 95.936 95.4233 96 95.3593 96C94.8259 96 94.1966 95.9893 93.4713 95.968C92.7459 95.9467 92.0099 95.936 91.2633 95.936C90.3459 95.936 89.5353 95.9467 88.8313 95.968C88.1486 95.9893 87.5406 96 87.0073 96C86.9433 96 86.9113 95.936 86.9113 95.808C86.9113 95.68 86.9433 95.616 87.0073 95.616C87.7966 95.616 88.3832 95.5627 88.7673 95.456C89.1513 95.3493 89.4073 95.136 89.5353 94.816C89.6633 94.496 89.7273 94.0267 89.7273 93.408V78.656ZM77.0873 86.016V85.184H91.1033V86.016H77.0873ZM75.6793 93.408V78.592C75.6793 77.9733 75.6153 77.5147 75.4873 77.216C75.3593 76.896 75.1139 76.6827 74.7513 76.576C74.3886 76.448 73.8339 76.384 73.0872 76.384C73.0446 76.384 73.0233 76.32 73.0233 76.192C73.0233 76.064 73.0446 76 73.0872 76C73.6419 76 74.2606 76.0213 74.9433 76.064C75.6259 76.0853 76.3406 76.096 77.0873 76.096C78.0046 76.096 78.8153 76.0853 79.5193 76.064C80.2233 76.0213 80.8526 76 81.4073 76C81.4499 76 81.4713 76.064 81.4713 76.192C81.4713 76.32 81.4499 76.384 81.4073 76.384C80.6393 76.384 80.0633 76.448 79.6793 76.576C79.2953 76.704 79.0393 76.928 78.9113 77.248C78.7833 77.568 78.7193 78.0373 78.7193 78.656V93.408C78.7193 94.0267 78.7833 94.496 78.9113 94.816C79.0393 95.136 79.2953 95.3493 79.6793 95.456C80.0846 95.5627 80.6606 95.616 81.4073 95.616C81.4499 95.616 81.4713 95.68 81.4713 95.808C81.4713 95.936 81.4499 96 81.4073 96C80.8313 96 80.1913 95.9893 79.4873 95.968C78.8046 95.9467 78.0046 95.936 77.0873 95.936C76.3406 95.936 75.6153 95.9467 74.9113 95.968C74.2073 95.9893 73.5886 96 73.0553 96C73.0126 96 72.9913 95.936 72.9913 95.808C72.9913 95.68 73.0126 95.616 73.0553 95.616C73.8019 95.616 74.3566 95.5627 74.7193 95.456C75.0819 95.3493 75.3273 95.136 75.4553 94.816C75.6046 94.496 75.6793 94.0267 75.6793 93.408ZM101.718 93.728L101.11 93.152L115.19 78.144L115.766 78.688L101.718 93.728ZM97.4303 96C97.3876 96 97.3663 95.936 97.3663 95.808C97.3663 95.68 97.3876 95.616 97.4303 95.616C98.1769 95.616 98.7316 95.5627 99.0943 95.456C99.4569 95.3493 99.7023 95.136 99.8303 94.816C99.9796 94.496 100.054 94.0267 100.054 93.408V78.592C100.054 77.9733 99.9903 77.5147 99.8623 77.216C99.7343 76.896 99.4889 76.6827 99.1263 76.576C98.7636 76.448 98.2089 76.384 97.4622 76.384C97.4196 76.384 97.3983 76.32 97.3983 76.192C97.3983 76.064 97.4196 76 97.4622 76C98.0169 76 98.6356 76.0213 99.3183 76.064C100.001 76.0853 100.716 76.096 101.462 76.096C102.38 76.096 103.19 76.0853 103.894 76.064C104.598 76.0213 105.228 76 105.782 76C105.825 76 105.846 76.064 105.846 76.192C105.846 76.32 105.825 76.384 105.782 76.384C105.036 76.384 104.46 76.448 104.054 76.576C103.67 76.704 103.414 76.928 103.286 77.248C103.158 77.568 103.094 78.0373 103.094 78.656V93.408C103.094 94.0267 103.158 94.496 103.286 94.816C103.414 95.136 103.67 95.3493 104.054 95.456C104.46 95.5627 105.036 95.616 105.782 95.616C105.825 95.616 105.846 95.68 105.846 95.808C105.846 95.936 105.825 96 105.782 96C105.206 96 104.566 95.9893 103.862 95.968C103.18 95.9467 102.38 95.936 101.462 95.936C100.716 95.936 99.9903 95.9467 99.2863 95.968C98.5823 95.9893 97.9636 96 97.4303 96ZM110.998 96C110.934 96 110.902 95.936 110.902 95.808C110.902 95.68 110.934 95.616 110.998 95.616C111.788 95.616 112.374 95.5627 112.758 95.456C113.142 95.3493 113.398 95.136 113.526 94.816C113.654 94.496 113.718 94.0267 113.718 93.408V78.656C113.718 78.0373 113.654 77.568 113.526 77.248C113.398 76.928 113.142 76.704 112.758 76.576C112.374 76.448 111.788 76.384 110.998 76.384C110.934 76.384 110.902 76.32 110.902 76.192C110.902 76.064 110.934 76 110.998 76C111.532 76 112.14 76.0213 112.822 76.064C113.526 76.0853 114.337 76.096 115.254 76.096C116.001 76.096 116.737 76.0853 117.462 76.064C118.188 76.0213 118.817 76 119.35 76C119.414 76 119.446 76.064 119.446 76.192C119.446 76.32 119.414 76.384 119.35 76.384C118.625 76.384 118.07 76.448 117.686 76.576C117.324 76.6827 117.078 76.896 116.95 77.216C116.822 77.5147 116.758 77.9733 116.758 78.592V93.408C116.758 94.0267 116.822 94.496 116.95 94.816C117.078 95.136 117.324 95.3493 117.686 95.456C118.07 95.5627 118.625 95.616 119.35 95.616C119.414 95.616 119.446 95.68 119.446 95.808C119.446 95.936 119.414 96 119.35 96C118.817 96 118.188 95.9893 117.462 95.968C116.737 95.9467 116.001 95.936 115.254 95.936C114.337 95.936 113.526 95.9467 112.822 95.968C112.14 95.9893 111.532 96 110.998 96ZM138.966 95.616C139.009 95.616 139.03 95.68 139.03 95.808C139.03 95.936 139.009 96 138.966 96C138.39 96 137.75 95.9893 137.046 95.968C136.364 95.9467 135.628 95.936 134.838 95.936C134.049 95.936 133.324 95.9467 132.662 95.968C132.001 95.9893 131.404 96 130.87 96C130.806 96 130.774 95.936 130.774 95.808C130.774 95.68 130.806 95.616 130.87 95.616C131.574 95.616 132.097 95.5627 132.438 95.456C132.78 95.3493 133.004 95.136 133.11 94.816C133.238 94.496 133.302 94.0267 133.302 93.408V85.472L134.358 85.632C133.782 85.632 133.26 85.6853 132.79 85.792C132.321 85.8987 131.862 86.1227 131.414 86.464C130.988 86.8053 130.518 87.3067 130.006 87.968C129.516 88.6293 128.961 89.5147 128.342 90.624C127.532 92.032 126.892 93.1093 126.422 93.856C125.974 94.6027 125.622 95.1253 125.366 95.424C125.132 95.7227 124.929 95.8933 124.758 95.936C124.609 95.9787 124.438 96 124.246 96H120.374C120.332 96 120.31 95.936 120.31 95.808C120.31 95.68 120.332 95.616 120.374 95.616C121.078 95.5947 121.665 95.3813 122.134 94.976C122.625 94.5493 123.116 93.92 123.606 93.088C124.118 92.256 124.758 91.2213 125.526 89.984C126.23 88.8107 126.902 87.9147 127.542 87.296C128.182 86.6773 128.865 86.24 129.59 85.984C130.337 85.7067 131.158 85.536 132.054 85.472L132.278 85.696C129.782 85.6747 127.894 85.2267 126.614 84.352C125.334 83.4773 124.694 82.304 124.694 80.832C124.694 79.8507 124.972 78.9973 125.526 78.272C126.102 77.5253 126.87 76.9493 127.83 76.544C128.812 76.1173 129.91 75.904 131.126 75.904C131.574 75.904 132.172 75.936 132.918 76C133.665 76.064 134.305 76.096 134.838 76.096C135.628 76.096 136.364 76.0853 137.046 76.064C137.729 76.0213 138.358 76 138.934 76C138.977 76 138.998 76.064 138.998 76.192C138.998 76.32 138.977 76.384 138.934 76.384C138.166 76.384 137.601 76.448 137.238 76.576C136.876 76.6827 136.63 76.896 136.502 77.216C136.396 77.5147 136.342 77.9733 136.342 78.592V93.408C136.342 94.0267 136.396 94.496 136.502 94.816C136.63 95.136 136.876 95.3493 137.238 95.456C137.601 95.5627 138.177 95.616 138.966 95.616ZM127.862 80.032C127.862 81.5253 128.257 82.7413 129.046 83.68C129.836 84.6187 131.02 85.088 132.598 85.088C132.876 85.088 133.196 85.0667 133.558 85.024C133.921 84.9813 134.209 84.928 134.422 84.864L133.302 85.216V78.656C133.302 78.0373 133.185 77.5573 132.95 77.216C132.737 76.8747 132.46 76.64 132.118 76.512C131.798 76.384 131.457 76.32 131.094 76.32C128.94 76.32 127.862 77.5573 127.862 80.032Z" fill="#F2F2F2"/>
<path d="M21.312 52.616C21.504 52.616 21.6107 52.6373 21.632 52.68C21.6747 52.7013 21.696 52.808 21.696 53C21.696 53.32 21.664 53.672 21.6 54.056C21.5573 54.4613 21.504 55.0053 21.44 55.688C21.376 56.3707 21.344 57.3093 21.344 58.504C21.344 58.5893 21.28 58.632 21.152 58.632C21.024 58.632 20.96 58.5893 20.96 58.504C20.96 56.712 20.4693 55.3467 19.488 54.408C18.5067 53.4693 17.0347 53 15.072 53H6.336C5.184 53 4.23467 53.1707 3.488 53.512C2.76267 53.8747 2.21867 54.4507 1.856 55.24C1.51467 56.0507 1.344 57.1387 1.344 58.504C1.344 58.5893 1.28 58.632 1.152 58.632C1.024 58.632 0.96 58.5893 0.96 58.504C0.96 57.608 0.938667 56.8507 0.896 56.232C0.853333 55.6133 0.8 55.0907 0.736 54.664C0.672 54.2373 0.618667 53.8747 0.576 53.576C0.533333 53.2987 0.512 53.064 0.512 52.872C0.512 52.68 0.522667 52.5733 0.544 52.552C0.586667 52.5093 0.693333 52.488 0.864 52.488C1.73867 52.488 2.528 52.2 3.232 51.624C3.95733 51.0267 4.59733 50.2373 5.152 49.256C5.728 48.2747 6.22933 47.1867 6.656 45.992C7.08267 44.7973 7.424 43.5813 7.68 42.344C7.95733 41.1067 8.16 39.9333 8.288 38.824C8.43733 37.7147 8.512 36.7547 8.512 35.944C8.512 35.4107 8.40533 34.9627 8.192 34.6C7.97867 34.216 7.62667 33.9173 7.136 33.704C6.64533 33.4907 5.97333 33.384 5.12 33.384C5.056 33.384 5.024 33.32 5.024 33.192C5.024 33.064 5.056 33 5.12 33C5.248 33 5.61067 33 6.208 33C6.80533 33 7.56267 33 8.48 33C9.39733 33 10.3893 33 11.456 33C12.5227 33 13.5787 33 14.624 33C15.6693 33 16.64 33 17.536 33C18.432 33 19.1573 33 19.712 33C20.288 33 20.6187 33 20.704 33C20.768 33 20.8 33.064 20.8 33.192C20.8 33.32 20.768 33.384 20.704 33.384C19.9787 33.384 19.424 33.448 19.04 33.576C18.6773 33.6827 18.432 33.896 18.304 34.216C18.176 34.5147 18.112 34.9733 18.112 35.592V50.408C18.112 50.9413 18.1227 51.368 18.144 51.688C18.1867 51.9867 18.2933 52.2 18.464 52.328C18.656 52.456 18.9653 52.5413 19.392 52.584C19.84 52.6053 20.48 52.616 21.312 52.616ZM15.072 50.344V35.656C15.072 35.016 15.04 34.5787 14.976 34.344C14.912 34.088 14.752 33.9387 14.496 33.896C14.24 33.832 13.792 33.8 13.152 33.8H11.392C10.7733 33.8 10.336 33.8853 10.08 34.056C9.84533 34.2053 9.696 34.5147 9.632 34.984C9.568 35.4533 9.49333 36.1467 9.408 37.064C9.36533 37.6613 9.28 38.3973 9.152 39.272C9.024 40.1467 8.85333 41.1067 8.64 42.152C8.42667 43.176 8.16 44.232 7.84 45.32C7.54133 46.3867 7.18933 47.4 6.784 48.36C6.37867 49.32 5.90933 50.1733 5.376 50.92C4.84267 51.6453 4.23467 52.2107 3.552 52.616L3.424 52.2H12.992C13.6747 52.2 14.1547 52.1787 14.432 52.136C14.7307 52.0933 14.912 51.944 14.976 51.688C15.04 51.432 15.072 50.984 15.072 50.344ZM29.3183 43.08L29.7983 42.248H36.3903L36.6143 43.08H29.3183ZM45.1583 52.616C45.2436 52.616 45.2863 52.68 45.2863 52.808C45.2863 52.936 45.2436 53 45.1583 53C44.5183 53 43.8569 52.9787 43.1743 52.936C42.5129 52.8933 41.8729 52.872 41.2543 52.872C40.5503 52.872 39.9316 52.8933 39.3983 52.936C38.8863 52.9787 38.3103 53 37.6703 53C37.5849 53 37.5423 52.936 37.5423 52.808C37.5423 52.68 37.5849 52.616 37.6703 52.616C38.6303 52.616 39.2063 52.4453 39.3983 52.104C39.5903 51.7627 39.4303 51.0907 38.9183 50.088L32.2303 36.488L33.5423 34.344L27.2063 48.616C26.6516 49.9173 26.6303 50.9093 27.1423 51.592C27.6756 52.2747 28.5716 52.616 29.8303 52.616C29.9369 52.616 29.9903 52.68 29.9903 52.808C29.9903 52.936 29.9369 53 29.8303 53C29.1903 53 28.6036 52.9787 28.0703 52.936C27.5369 52.8933 26.8649 52.872 26.0543 52.872C25.2436 52.872 24.5929 52.8933 24.1023 52.936C23.6329 52.9787 23.0463 53 22.3422 53C22.2569 53 22.2142 52.936 22.2142 52.808C22.2142 52.68 22.2569 52.616 22.3422 52.616C22.9183 52.616 23.4089 52.4987 23.8143 52.264C24.2409 52.0293 24.6569 51.6027 25.0623 50.984C25.4676 50.344 25.9156 49.4587 26.4062 48.328L33.2863 32.808C33.3289 32.744 33.4249 32.712 33.5743 32.712C33.7236 32.712 33.8089 32.744 33.8303 32.808L41.6703 48.616C42.1609 49.64 42.5983 50.4507 42.9823 51.048C43.3663 51.624 43.7289 52.0293 44.0703 52.264C44.4116 52.4987 44.7743 52.616 45.1583 52.616ZM62.8523 35.656C62.8523 35.0373 62.7883 34.568 62.6603 34.248C62.5323 33.928 62.2763 33.704 61.8923 33.576C61.5082 33.448 60.9216 33.384 60.1323 33.384C60.0683 33.384 60.0363 33.32 60.0363 33.192C60.0363 33.064 60.0683 33 60.1323 33C60.6656 33 61.2736 33.0213 61.9563 33.064C62.6603 33.0853 63.4709 33.096 64.3883 33.096C65.1349 33.096 65.8709 33.0853 66.5963 33.064C67.3216 33.0213 67.9509 33 68.4843 33C68.5483 33 68.5803 33.064 68.5803 33.192C68.5803 33.32 68.5483 33.384 68.4843 33.384C67.7376 33.384 67.1723 33.448 66.7883 33.576C66.4256 33.6827 66.1803 33.896 66.0523 34.216C65.9243 34.5147 65.8603 34.9733 65.8603 35.592V50.408C65.8603 51.0267 65.9243 51.496 66.0523 51.816C66.1803 52.136 66.4256 52.3493 66.7883 52.456C67.1723 52.5627 67.7376 52.616 68.4843 52.616C68.5483 52.616 68.5803 52.68 68.5803 52.808C68.5803 52.936 68.5483 53 68.4843 53C67.9509 53 67.3216 52.9893 66.5963 52.968C65.8709 52.9467 65.1349 52.936 64.3883 52.936C63.4709 52.936 62.6603 52.9467 61.9563 52.968C61.2736 52.9893 60.6656 53 60.1323 53C60.0683 53 60.0363 52.936 60.0363 52.808C60.0363 52.68 60.0683 52.616 60.1323 52.616C60.9216 52.616 61.5082 52.5627 61.8923 52.456C62.2763 52.3493 62.5323 52.136 62.6603 51.816C62.7883 51.496 62.8523 51.0267 62.8523 50.408V35.656ZM50.2123 43.016V42.184H64.2283V43.016H50.2123ZM48.8043 50.408V35.592C48.8043 34.9733 48.7403 34.5147 48.6123 34.216C48.4843 33.896 48.2389 33.6827 47.8763 33.576C47.5136 33.448 46.9589 33.384 46.2122 33.384C46.1696 33.384 46.1483 33.32 46.1483 33.192C46.1483 33.064 46.1696 33 46.2122 33C46.7669 33 47.3856 33.0213 48.0683 33.064C48.7509 33.0853 49.4656 33.096 50.2123 33.096C51.1296 33.096 51.9403 33.0853 52.6443 33.064C53.3483 33.0213 53.9776 33 54.5323 33C54.5749 33 54.5963 33.064 54.5963 33.192C54.5963 33.32 54.5749 33.384 54.5323 33.384C53.7643 33.384 53.1883 33.448 52.8043 33.576C52.4203 33.704 52.1643 33.928 52.0363 34.248C51.9083 34.568 51.8443 35.0373 51.8443 35.656V50.408C51.8443 51.0267 51.9083 51.496 52.0363 51.816C52.1643 52.136 52.4203 52.3493 52.8043 52.456C53.2096 52.5627 53.7856 52.616 54.5323 52.616C54.5749 52.616 54.5963 52.68 54.5963 52.808C54.5963 52.936 54.5749 53 54.5323 53C53.9563 53 53.3163 52.9893 52.6123 52.968C51.9296 52.9467 51.1296 52.936 50.2123 52.936C49.4656 52.936 48.7403 52.9467 48.0363 52.968C47.3323 52.9893 46.7136 53 46.1803 53C46.1376 53 46.1163 52.936 46.1163 52.808C46.1163 52.68 46.1376 52.616 46.1803 52.616C46.9269 52.616 47.4816 52.5627 47.8443 52.456C48.2069 52.3493 48.4523 52.136 48.5803 51.816C48.7296 51.496 48.8043 51.0267 48.8043 50.408ZM74.8433 50.728L74.2352 50.152L88.3153 35.144L88.8913 35.688L74.8433 50.728ZM70.5553 53C70.5126 53 70.4913 52.936 70.4913 52.808C70.4913 52.68 70.5126 52.616 70.5553 52.616C71.3019 52.616 71.8566 52.5627 72.2193 52.456C72.5819 52.3493 72.8273 52.136 72.9553 51.816C73.1046 51.496 73.1793 51.0267 73.1793 50.408V35.592C73.1793 34.9733 73.1153 34.5147 72.9873 34.216C72.8593 33.896 72.6139 33.6827 72.2513 33.576C71.8886 33.448 71.3339 33.384 70.5872 33.384C70.5446 33.384 70.5233 33.32 70.5233 33.192C70.5233 33.064 70.5446 33 70.5872 33C71.1419 33 71.7606 33.0213 72.4433 33.064C73.1259 33.0853 73.8406 33.096 74.5873 33.096C75.5046 33.096 76.3153 33.0853 77.0193 33.064C77.7233 33.0213 78.3526 33 78.9073 33C78.9499 33 78.9713 33.064 78.9713 33.192C78.9713 33.32 78.9499 33.384 78.9073 33.384C78.1606 33.384 77.5846 33.448 77.1793 33.576C76.7953 33.704 76.5393 33.928 76.4113 34.248C76.2833 34.568 76.2193 35.0373 76.2193 35.656V50.408C76.2193 51.0267 76.2833 51.496 76.4113 51.816C76.5393 52.136 76.7953 52.3493 77.1793 52.456C77.5846 52.5627 78.1606 52.616 78.9073 52.616C78.9499 52.616 78.9713 52.68 78.9713 52.808C78.9713 52.936 78.9499 53 78.9073 53C78.3313 53 77.6913 52.9893 76.9873 52.968C76.3046 52.9467 75.5046 52.936 74.5873 52.936C73.8406 52.936 73.1153 52.9467 72.4113 52.968C71.7073 52.9893 71.0886 53 70.5553 53ZM84.1233 53C84.0593 53 84.0273 52.936 84.0273 52.808C84.0273 52.68 84.0593 52.616 84.1233 52.616C84.9126 52.616 85.4993 52.5627 85.8833 52.456C86.2673 52.3493 86.5233 52.136 86.6513 51.816C86.7793 51.496 86.8433 51.0267 86.8433 50.408V35.656C86.8433 35.0373 86.7793 34.568 86.6513 34.248C86.5233 33.928 86.2673 33.704 85.8833 33.576C85.4993 33.448 84.9126 33.384 84.1233 33.384C84.0593 33.384 84.0273 33.32 84.0273 33.192C84.0273 33.064 84.0593 33 84.1233 33C84.6566 33 85.2646 33.0213 85.9473 33.064C86.6513 33.0853 87.4619 33.096 88.3793 33.096C89.1259 33.096 89.8619 33.0853 90.5873 33.064C91.3126 33.0213 91.9419 33 92.4753 33C92.5393 33 92.5713 33.064 92.5713 33.192C92.5713 33.32 92.5393 33.384 92.4753 33.384C91.7499 33.384 91.1953 33.448 90.8113 33.576C90.4486 33.6827 90.2033 33.896 90.0753 34.216C89.9473 34.5147 89.8833 34.9733 89.8833 35.592V50.408C89.8833 51.0267 89.9473 51.496 90.0753 51.816C90.2033 52.136 90.4486 52.3493 90.8113 52.456C91.1953 52.5627 91.7499 52.616 92.4753 52.616C92.5393 52.616 92.5713 52.68 92.5713 52.808C92.5713 52.936 92.5393 53 92.4753 53C91.9419 53 91.3126 52.9893 90.5873 52.968C89.8619 52.9467 89.1259 52.936 88.3793 52.936C87.4619 52.936 86.6513 52.9467 85.9473 52.968C85.2646 52.9893 84.6566 53 84.1233 53ZM101.403 53.384C100.827 53.384 100.187 53.3413 99.4833 53.256C98.7793 53.1707 98.0966 53.064 97.4353 52.936C96.7739 52.7867 96.2193 52.616 95.7713 52.424C95.6006 52.3387 95.4833 52.2427 95.4193 52.136C95.3766 52.0293 95.3446 51.8693 95.3233 51.656L94.9073 47.528C94.9073 47.464 94.9606 47.4213 95.0673 47.4C95.1953 47.3787 95.2699 47.4 95.2913 47.464C95.6966 48.552 96.2726 49.48 97.0193 50.248C97.7659 51.016 98.6086 51.592 99.5473 51.976C100.507 52.36 101.489 52.552 102.491 52.552C103.963 52.552 105.179 52.1787 106.139 51.432C107.121 50.664 107.846 49.5973 108.315 48.232C108.806 46.8453 109.051 45.2453 109.051 43.432C109.051 41.3627 108.763 39.5707 108.187 38.056C107.611 36.52 106.801 35.336 105.755 34.504C104.731 33.6507 103.526 33.224 102.139 33.224C100.795 33.224 99.5366 33.6613 98.3633 34.536C97.1899 35.3893 96.1873 36.7333 95.3553 38.568C95.3339 38.632 95.2699 38.6533 95.1633 38.632C95.0566 38.6107 95.0033 38.5787 95.0033 38.536L95.4833 34.44C95.5259 34.184 95.5686 34.0133 95.6113 33.928C95.6539 33.8427 95.7713 33.7573 95.9633 33.672C97.0299 33.3093 98.0859 33.0533 99.1313 32.904C100.198 32.7333 101.201 32.648 102.139 32.648C104.038 32.648 105.638 32.9253 106.939 33.48C108.241 34.0347 109.297 34.7813 110.107 35.72C110.939 36.6373 111.537 37.6827 111.899 38.856C112.283 40.008 112.475 41.2027 112.475 42.44C112.475 44.1253 112.177 45.64 111.579 46.984C110.982 48.328 110.161 49.48 109.115 50.44C108.091 51.4 106.907 52.136 105.563 52.648C104.241 53.1387 102.854 53.384 101.403 53.384ZM100.699 46.184C100.699 45.3733 100.699 44.744 100.699 44.296C100.721 43.848 100.731 43.3893 100.731 42.92C100.731 42.344 100.71 41.7893 100.667 41.256C100.646 40.7013 100.635 40.104 100.635 39.464C100.635 39.4213 100.699 39.4 100.827 39.4C100.955 39.4 101.019 39.4213 101.019 39.464C101.041 40.296 101.403 40.968 102.107 41.48C102.811 41.9707 103.782 42.216 105.019 42.216H111.355V43.048H104.955C103.761 43.048 102.811 43.3253 102.107 43.88C101.403 44.4347 101.051 45.2027 101.051 46.184C101.051 46.2267 100.987 46.248 100.859 46.248C100.753 46.248 100.699 46.2267 100.699 46.184ZM114.767 53.384C114.233 53.384 113.796 53.2667 113.455 53.032C113.113 52.7973 112.943 52.424 112.943 51.912C112.943 51.4 113.103 51.0587 113.423 50.888C113.743 50.696 114.095 50.6 114.479 50.6C114.585 50.6 114.692 50.6 114.799 50.6C114.927 50.6 115.044 50.6 115.151 50.6C115.897 50.6 116.569 50.3013 117.167 49.704C117.764 49.1067 118.276 48.3173 118.703 47.336C119.151 46.3333 119.524 45.2133 119.823 43.976C120.121 42.7387 120.345 41.4693 120.495 40.168C120.644 38.8453 120.719 37.5653 120.719 36.328C120.719 35.6667 120.633 35.1227 120.463 34.696C120.292 34.248 119.983 33.9173 119.535 33.704C119.087 33.4907 118.425 33.384 117.551 33.384C117.487 33.384 117.455 33.32 117.455 33.192C117.455 33.064 117.487 33 117.551 33C117.679 33 118.052 33 118.671 33C119.289 33 120.057 33 120.975 33C121.913 33 122.916 33 123.983 33C125.071 33 126.148 33 127.215 33C128.303 33 129.305 33 130.223 33C131.14 33 131.887 33 132.463 33C133.039 33 133.369 33 133.455 33C133.497 33 133.519 33.064 133.519 33.192C133.519 33.32 133.497 33.384 133.455 33.384C132.729 33.384 132.175 33.448 131.791 33.576C131.407 33.6827 131.151 33.896 131.023 34.216C130.916 34.5147 130.863 34.9733 130.863 35.592V50.408C130.863 51.0267 130.916 51.496 131.023 51.816C131.151 52.136 131.407 52.3493 131.791 52.456C132.175 52.5627 132.729 52.616 133.455 52.616C133.497 52.616 133.519 52.68 133.519 52.808C133.519 52.936 133.497 53 133.455 53C132.921 53 132.303 52.9893 131.599 52.968C130.916 52.9467 130.201 52.936 129.455 52.936C128.644 52.936 127.876 52.9467 127.151 52.968C126.447 52.9893 125.807 53 125.231 53C125.167 53 125.135 52.936 125.135 52.808C125.135 52.68 125.167 52.616 125.231 52.616C125.977 52.616 126.532 52.5627 126.895 52.456C127.257 52.3493 127.492 52.136 127.599 51.816C127.727 51.496 127.791 51.0267 127.791 50.408V35.88C127.791 35.2187 127.759 34.7493 127.695 34.472C127.652 34.1947 127.492 34.0347 127.215 33.992C126.959 33.928 126.511 33.896 125.871 33.896H123.919C123.364 33.896 122.905 33.9493 122.543 34.056C122.201 34.1627 121.956 34.3867 121.807 34.728C121.657 35.048 121.583 35.5813 121.583 36.328C121.583 37.1813 121.54 38.1947 121.455 39.368C121.391 40.5413 121.263 41.768 121.071 43.048C120.879 44.328 120.623 45.576 120.303 46.792C119.983 48.008 119.556 49.1173 119.023 50.12C118.511 51.1227 117.903 51.9227 117.199 52.52C116.516 53.096 115.705 53.384 114.767 53.384ZM144.516 53.128C144.153 53.128 143.695 53.1067 143.14 53.064C142.607 53.0427 142.041 53.0213 141.444 53C140.847 52.9573 140.26 52.936 139.684 52.936C139.065 52.936 138.404 52.9467 137.7 52.968C136.996 52.9893 136.377 53 135.844 53C135.78 53 135.748 52.936 135.748 52.808C135.748 52.68 135.78 52.616 135.844 52.616C136.527 52.5947 137.039 52.5413 137.38 52.456C137.743 52.3707 137.988 52.1787 138.116 51.88C138.244 51.56 138.308 51.0693 138.308 50.408V35.592C138.308 34.9307 138.244 34.4507 138.116 34.152C138.009 33.8533 137.775 33.6613 137.412 33.576C137.071 33.4693 136.559 33.4053 135.876 33.384C135.833 33.384 135.812 33.32 135.812 33.192C135.812 33.064 135.833 33 135.876 33C136.431 33 137.017 33.0213 137.636 33.064C138.255 33.0853 138.98 33.096 139.812 33.096C140.644 33.096 141.423 33.0853 142.148 33.064C142.873 33.0213 143.513 33 144.068 33C144.111 33 144.132 33.064 144.132 33.192C144.132 33.32 144.111 33.384 144.068 33.384C143.343 33.4053 142.777 33.4693 142.372 33.576C141.988 33.6827 141.721 33.8853 141.572 34.184C141.444 34.4827 141.38 34.9733 141.38 35.656V50.408C141.38 50.8133 141.433 51.1653 141.54 51.464C141.668 51.7627 141.913 51.9973 142.276 52.168C142.639 52.3173 143.193 52.392 143.94 52.392C145.519 52.392 146.628 51.9973 147.268 51.208C147.929 50.3973 148.26 49.1813 148.26 47.56C148.26 46.3867 148.1 45.4267 147.78 44.68C147.481 43.9333 146.991 43.3893 146.308 43.048C145.647 42.6853 144.783 42.504 143.716 42.504C143.183 42.504 142.607 42.5467 141.988 42.632C141.369 42.7173 140.729 42.8347 140.068 42.984L139.94 42.28C140.708 42.088 141.508 41.9493 142.34 41.864C143.172 41.7573 143.961 41.704 144.708 41.704C146.116 41.704 147.321 41.896 148.324 42.28C149.348 42.6427 150.127 43.208 150.66 43.976C151.215 44.744 151.492 45.736 151.492 46.952C151.492 48.1893 151.193 49.2773 150.596 50.216C149.999 51.1333 149.177 51.848 148.132 52.36C147.087 52.872 145.881 53.128 144.516 53.128Z" fill="#F2F2F2"/>
<path d="M81.8399 47.8976C77.6074 47.8976 75.4911 50.4576 75.4911 55.5776C75.4911 56.9088 75.6618 58.3595 76.0031 59.9296C77.5391 58.5984 78.8021 57.4379 79.7919 56.448C80.8159 55.424 81.8741 54.1952 82.9663 52.7616C85.0826 49.9627 86.1407 46.7712 86.1407 43.1872C86.6186 43.2896 87.0111 43.5627 87.3183 44.0064C87.6597 44.416 87.8303 44.9963 87.8303 45.7472C87.8303 46.4981 87.7109 47.3344 87.4719 48.256C87.233 49.1776 86.977 49.9797 86.7039 50.6624C86.4309 51.3451 85.9359 52.1643 85.2191 53.12C84.5365 54.0416 84.0245 54.7243 83.6831 55.168C83.3418 55.6117 82.6591 56.3285 81.6351 57.3184C79.1775 59.6395 77.7951 60.9024 77.4879 61.1072C77.1807 61.312 76.993 61.4485 76.9247 61.5168C76.8565 61.5851 76.7882 61.6533 76.7199 61.7216C76.6517 61.7557 76.5834 61.8069 76.5151 61.8752C77.9487 67.0976 80.4405 71.7397 83.9903 75.8016C85.6629 73.856 86.8234 71.5349 87.4719 68.8384C87.8815 67.2683 88.0863 65.92 88.0863 64.7936C88.0863 63.6672 87.9839 62.7115 87.7791 61.9264C87.3013 60.0149 86.3797 59.0592 85.0143 59.0592C85.2191 58.3424 85.7994 57.984 86.7551 57.984C88.0863 57.984 88.9738 59.0763 89.4175 61.2608C89.5882 62.0459 89.6735 63.0699 89.6735 64.3328C89.6735 65.5616 89.4346 67.1317 88.9567 69.0432C88.1717 72.1152 86.8234 74.7264 84.9119 76.8768C88.4277 80.4949 91.9093 82.304 95.3567 82.304C97.4389 82.304 98.8042 81.6555 99.4527 80.3584C99.7941 79.6416 99.777 79.1808 99.4015 78.976C99.3674 78.9419 99.3162 78.9248 99.2479 78.9248C99.2479 78.72 99.3503 78.4981 99.5551 78.2592C99.8623 77.8837 100.272 77.696 100.784 77.696C101.569 77.696 101.962 78.2251 101.962 79.2832C101.962 80.3413 101.279 81.3483 99.9135 82.304C98.5141 83.2597 96.7391 83.7376 94.5887 83.7376C90.6975 83.7376 86.8405 82.0309 83.0175 78.6176C80.5599 80.4949 77.9146 81.4336 75.0815 81.4336C72.2826 81.4336 69.9615 80.7851 68.1183 79.488C66.3093 78.1909 65.4047 76.4331 65.4047 74.2144C65.4047 71.9957 66.0362 70.016 67.2991 68.2752C68.5621 66.5344 70.4394 64.5888 72.9311 62.4384C72.2485 60.1173 71.9071 58.0523 71.9071 56.2432C71.9071 54.4 72.1631 52.7616 72.6751 51.328C73.1871 49.8944 74.1087 48.7509 75.4399 47.8976C76.7711 47.0443 78.4437 46.6176 80.4575 46.6176C80.9354 46.6176 81.2426 46.7541 81.3791 47.0272C81.5498 47.3003 81.7034 47.5904 81.8399 47.8976ZM74.7743 80.0512C77.4709 80.0512 79.8773 79.2661 81.9935 77.696C78.3413 74.0437 75.5594 69.6405 73.6479 64.4864C69.8933 67.9339 68.0159 71.2277 68.0159 74.368C68.0159 76.1429 68.6815 77.5424 70.0127 78.5664C71.3439 79.5563 72.9311 80.0512 74.7743 80.0512Z" fill="#DADADA" fill-opacity="0.5"/>
</svg>
