<svg width="136" height="12" viewBox="0 0 136 12" fill="none" xmlns="http://www.w3.org/2000/svg">
<path d="M4.5 5.87L4.665 5.705C5.255 5.705 5.77 5.815 6.21 6.035C6.66 6.255 7.005 6.555 7.245 6.935C7.495 7.315 7.62 7.75 7.62 8.24C7.62 8.77 7.49 9.25 7.23 9.68C6.97 10.11 6.61 10.45 6.15 10.7C5.7 10.94 5.195 11.06 4.635 11.06C4.315 11.06 3.95 11.045 3.54 11.015C3.14 10.985 2.77 10.97 2.43 10.97C2.1 10.97 1.78 10.975 1.47 10.985C1.17 10.995 0.895 11 0.645 11C0.625 11 0.615 10.97 0.615 10.91C0.615 10.85 0.625 10.82 0.645 10.82C1.005 10.82 1.28 10.795 1.47 10.745C1.66 10.695 1.79 10.595 1.86 10.445C1.93 10.295 1.965 10.075 1.965 9.785V2.84C1.965 2.55 1.93 2.335 1.86 2.195C1.8 2.045 1.675 1.945 1.485 1.895C1.305 1.835 1.035 1.805 0.675 1.805C0.645 1.805 0.63 1.775 0.63 1.715C0.63 1.655 0.645 1.625 0.675 1.625C0.915 1.625 1.185 1.635 1.485 1.655C1.785 1.665 2.1 1.67 2.43 1.67C2.69 1.67 2.99 1.655 3.33 1.625C3.67 1.595 3.96 1.58 4.2 1.58C4.79 1.58 5.27 1.67 5.64 1.85C6.01 2.02 6.28 2.255 6.45 2.555C6.63 2.855 6.72 3.19 6.72 3.56C6.72 4.13 6.51 4.615 6.09 5.015C5.68 5.415 5.15 5.7 4.5 5.87ZM3.87 1.805C3.64 1.805 3.455 1.825 3.315 1.865C3.175 1.905 3.075 2 3.015 2.15C2.955 2.29 2.925 2.53 2.925 2.87V5.81L2.445 5.69C2.765 5.71 3.03 5.725 3.24 5.735C3.45 5.735 3.57 5.735 3.6 5.735C4.37 5.735 4.92 5.54 5.25 5.15C5.58 4.75 5.745 4.26 5.745 3.68C5.745 3.33 5.68 3.015 5.55 2.735C5.43 2.445 5.235 2.22 4.965 2.06C4.695 1.89 4.33 1.805 3.87 1.805ZM4.41 10.79C5.16 10.79 5.705 10.6 6.045 10.22C6.395 9.83 6.57 9.295 6.57 8.615C6.57 7.865 6.35 7.25 5.91 6.77C5.47 6.29 4.855 6.05 4.065 6.05C3.815 6.04 3.555 6.04 3.285 6.05C3.025 6.06 2.76 6.085 2.49 6.125L2.925 5.96V9.785C2.925 10.025 2.96 10.22 3.03 10.37C3.1 10.52 3.24 10.63 3.45 10.7C3.67 10.76 3.99 10.79 4.41 10.79ZM13.0743 11.09C13.0343 11.11 12.9943 11.12 12.9543 11.12C12.8243 11.12 12.6993 11.015 12.5793 10.805C12.4593 10.585 12.3993 10.27 12.3993 9.86V7.175C12.3993 6.705 12.3543 6.34 12.2643 6.08C12.1843 5.82 12.0693 5.64 11.9193 5.54C11.7793 5.44 11.6193 5.39 11.4393 5.39C11.1893 5.39 10.9843 5.455 10.8243 5.585C10.6643 5.705 10.5443 5.86 10.4643 6.05C10.3843 6.24 10.3293 6.43 10.2993 6.62C10.2893 6.76 10.2443 6.89 10.1643 7.01C10.0943 7.13 9.95426 7.19 9.74426 7.19C9.58426 7.19 9.45926 7.15 9.36926 7.07C9.27926 6.99 9.23426 6.88 9.23426 6.74C9.23426 6.56 9.32426 6.375 9.50426 6.185C9.68426 5.985 9.90926 5.805 10.1793 5.645C10.4593 5.475 10.7493 5.34 11.0493 5.24C11.3593 5.13 11.6493 5.075 11.9193 5.075C12.2993 5.075 12.6143 5.21 12.8643 5.48C13.1143 5.74 13.2393 6.155 13.2393 6.725V9.38C13.2393 9.73 13.2843 9.985 13.3743 10.145C13.4643 10.305 13.6093 10.385 13.8093 10.385C13.9893 10.385 14.2393 10.32 14.5593 10.19C14.6093 10.17 14.6443 10.19 14.6643 10.25C14.6843 10.3 14.6693 10.335 14.6193 10.355L13.0743 11.09ZM10.1343 11.105C9.81426 11.105 9.57426 11.02 9.41426 10.85C9.25426 10.67 9.17426 10.465 9.17426 10.235C9.17426 9.955 9.28426 9.735 9.50426 9.575C9.72426 9.405 10.0843 9.235 10.5843 9.065L12.5493 8.36L12.5943 8.525L10.8543 9.185C10.6243 9.275 10.4593 9.375 10.3593 9.485C10.2693 9.595 10.2243 9.735 10.2243 9.905C10.2243 10.115 10.2843 10.28 10.4043 10.4C10.5243 10.51 10.6793 10.565 10.8693 10.565C10.9793 10.565 11.0843 10.555 11.1843 10.535C11.2843 10.505 11.3843 10.465 11.4843 10.415L12.7593 9.77L12.7893 9.95L11.4843 10.655C11.1843 10.805 10.9343 10.92 10.7343 11C10.5343 11.07 10.3343 11.105 10.1343 11.105ZM15.1284 11C15.0984 11 15.0834 10.97 15.0834 10.91C15.0834 10.85 15.0984 10.82 15.1284 10.82C15.5284 10.82 15.7834 10.75 15.8934 10.61C16.0134 10.47 16.0734 10.185 16.0734 9.755V6.425C16.0734 5.985 16.0134 5.705 15.8934 5.585C15.7834 5.455 15.5284 5.39 15.1284 5.39C15.0984 5.39 15.0834 5.36 15.0834 5.3C15.0834 5.24 15.0984 5.21 15.1284 5.21C15.3184 5.21 15.5284 5.215 15.7584 5.225C15.9984 5.235 16.2334 5.24 16.4634 5.24C16.7034 5.24 16.9334 5.235 17.1534 5.225C17.3834 5.215 17.5884 5.21 17.7684 5.21C17.7984 5.21 17.8134 5.24 17.8134 5.3C17.8134 5.36 17.7984 5.39 17.7684 5.39C17.4084 5.39 17.1734 5.455 17.0634 5.585C16.9634 5.705 16.9134 5.985 16.9134 6.425V9.785C16.9134 10.075 16.9234 10.285 16.9434 10.415C16.9634 10.545 17.0234 10.625 17.1234 10.655C17.2234 10.685 17.3884 10.7 17.6184 10.7H19.0284C19.2584 10.7 19.4234 10.685 19.5234 10.655C19.6334 10.625 19.6984 10.55 19.7184 10.43C19.7484 10.3 19.7634 10.095 19.7634 9.815V6.425C19.7634 5.985 19.7084 5.705 19.5984 5.585C19.4984 5.455 19.2584 5.39 18.8784 5.39C18.8584 5.39 18.8484 5.36 18.8484 5.3C18.8484 5.24 18.8584 5.21 18.8784 5.21C19.0584 5.21 19.2584 5.215 19.4784 5.225C19.7084 5.235 19.9384 5.24 20.1684 5.24C20.3984 5.24 20.6234 5.235 20.8434 5.225C21.0734 5.215 21.2784 5.21 21.4584 5.21C21.4884 5.21 21.5034 5.24 21.5034 5.3C21.5034 5.36 21.4884 5.39 21.4584 5.39C21.0984 5.39 20.8634 5.455 20.7534 5.585C20.6534 5.705 20.6034 5.985 20.6034 6.425V9.785C20.6034 10.075 20.6084 10.285 20.6184 10.415C20.6384 10.545 20.6984 10.625 20.7984 10.655C20.9084 10.685 21.0834 10.7 21.3234 10.7H22.7184C22.9684 10.7 23.1434 10.685 23.2434 10.655C23.3434 10.625 23.4034 10.545 23.4234 10.415C23.4434 10.275 23.4534 10.055 23.4534 9.755V6.425C23.4534 5.985 23.4034 5.705 23.3034 5.585C23.2034 5.455 22.9734 5.39 22.6134 5.39C22.5834 5.39 22.5684 5.36 22.5684 5.3C22.5684 5.24 22.5834 5.21 22.6134 5.21C22.7834 5.21 22.9784 5.215 23.1984 5.225C23.4184 5.235 23.6384 5.24 23.8584 5.24C24.1084 5.24 24.3534 5.235 24.5934 5.225C24.8434 5.215 25.0684 5.21 25.2684 5.21C25.2884 5.21 25.2984 5.24 25.2984 5.3C25.2984 5.36 25.2884 5.39 25.2684 5.39C24.8484 5.39 24.5784 5.455 24.4584 5.585C24.3484 5.705 24.2934 5.985 24.2934 6.425V9.755C24.2934 10.185 24.3484 10.47 24.4584 10.61C24.5684 10.75 24.8334 10.82 25.2534 10.82C25.2734 10.82 25.2834 10.85 25.2834 10.91C25.2834 10.97 25.2734 11 25.2534 11H15.1284ZM27.6423 10.28L27.4323 10.07L31.4973 5.99L31.7073 6.2L27.6423 10.28ZM27.1773 9.785V6.425C27.1773 5.985 27.1173 5.705 26.9973 5.585C26.8873 5.455 26.6323 5.39 26.2323 5.39C26.2023 5.39 26.1873 5.36 26.1873 5.3C26.1873 5.24 26.2023 5.21 26.2323 5.21C26.4223 5.21 26.6373 5.215 26.8773 5.225C27.1173 5.235 27.3623 5.24 27.6123 5.24C27.8523 5.24 28.0923 5.235 28.3323 5.225C28.5723 5.215 28.7873 5.21 28.9773 5.21C28.9973 5.21 29.0073 5.24 29.0073 5.3C29.0073 5.36 28.9973 5.39 28.9773 5.39C28.5573 5.39 28.2923 5.46 28.1823 5.6C28.0723 5.74 28.0173 6.025 28.0173 6.455V9.785C28.0173 10.215 28.0723 10.495 28.1823 10.625C28.2923 10.755 28.5573 10.82 28.9773 10.82C28.9973 10.82 29.0073 10.85 29.0073 10.91C29.0073 10.97 28.9973 11 28.9773 11C28.7773 11 28.5573 10.995 28.3173 10.985C28.0873 10.975 27.8523 10.97 27.6123 10.97C27.3623 10.97 27.1173 10.975 26.8773 10.985C26.6373 10.995 26.4173 11 26.2173 11C26.1873 11 26.1723 10.97 26.1723 10.91C26.1723 10.85 26.1873 10.82 26.2173 10.82C26.6273 10.82 26.8873 10.755 26.9973 10.625C27.1173 10.495 27.1773 10.215 27.1773 9.785ZM31.2123 9.785V6.425C31.2123 5.985 31.1523 5.705 31.0323 5.585C30.9223 5.455 30.6673 5.39 30.2673 5.39C30.2373 5.39 30.2223 5.36 30.2223 5.3C30.2223 5.24 30.2373 5.21 30.2673 5.21C30.4573 5.21 30.6723 5.215 30.9123 5.225C31.1523 5.235 31.3973 5.24 31.6473 5.24C31.8873 5.24 32.1273 5.235 32.3673 5.225C32.6073 5.215 32.8223 5.21 33.0123 5.21C33.0323 5.21 33.0423 5.24 33.0423 5.3C33.0423 5.36 33.0323 5.39 33.0123 5.39C32.5923 5.39 32.3273 5.46 32.2173 5.6C32.1073 5.74 32.0523 6.025 32.0523 6.455V9.785C32.0523 10.215 32.1073 10.495 32.2173 10.625C32.3273 10.755 32.5923 10.82 33.0123 10.82C33.0323 10.82 33.0423 10.85 33.0423 10.91C33.0423 10.97 33.0323 11 33.0123 11C32.8123 11 32.5923 10.995 32.3523 10.985C32.1223 10.975 31.8873 10.97 31.6473 10.97C31.3973 10.97 31.1473 10.975 30.8973 10.985C30.6573 10.995 30.4423 11 30.2523 11C30.2223 11 30.2073 10.97 30.2073 10.91C30.2073 10.85 30.2223 10.82 30.2523 10.82C30.6623 10.82 30.9223 10.755 31.0323 10.625C31.1523 10.495 31.2123 10.215 31.2123 9.785ZM39.4623 9.92L39.2073 9.68L45.8073 2.645L46.0473 2.87L39.4623 9.92ZM37.5123 11C37.4923 11 37.4823 10.97 37.4823 10.91C37.4823 10.85 37.4923 10.82 37.5123 10.82C37.8823 10.82 38.1623 10.795 38.3523 10.745C38.5423 10.695 38.6673 10.595 38.7273 10.445C38.7973 10.295 38.8323 10.075 38.8323 9.785V2.84C38.8323 2.55 38.7973 2.335 38.7273 2.195C38.6673 2.045 38.5423 1.945 38.3523 1.895C38.1723 1.835 37.8973 1.805 37.5273 1.805C37.5073 1.805 37.4973 1.775 37.4973 1.715C37.4973 1.655 37.5073 1.625 37.5273 1.625C37.7673 1.625 38.0373 1.635 38.3373 1.655C38.6473 1.665 38.9673 1.67 39.2973 1.67C39.6673 1.67 40.0023 1.665 40.3023 1.655C40.6023 1.635 40.8723 1.625 41.1123 1.625C41.1323 1.625 41.1423 1.655 41.1423 1.715C41.1423 1.775 41.1323 1.805 41.1123 1.805C40.7423 1.805 40.4623 1.835 40.2723 1.895C40.0823 1.955 39.9523 2.06 39.8823 2.21C39.8223 2.36 39.7923 2.58 39.7923 2.87V9.785C39.7923 10.075 39.8223 10.295 39.8823 10.445C39.9423 10.595 40.0673 10.695 40.2573 10.745C40.4573 10.795 40.7423 10.82 41.1123 10.82C41.1323 10.82 41.1423 10.85 41.1423 10.91C41.1423 10.97 41.1323 11 41.1123 11C40.8623 11 40.5873 10.995 40.2873 10.985C39.9973 10.975 39.6673 10.97 39.2973 10.97C38.9673 10.97 38.6473 10.975 38.3373 10.985C38.0273 10.995 37.7523 11 37.5123 11ZM44.0523 11C44.0323 11 44.0223 10.97 44.0223 10.91C44.0223 10.85 44.0323 10.82 44.0523 10.82C44.4423 10.82 44.7273 10.795 44.9073 10.745C45.0973 10.695 45.2223 10.595 45.2823 10.445C45.3423 10.295 45.3723 10.075 45.3723 9.785V2.87C45.3723 2.58 45.3423 2.36 45.2823 2.21C45.2223 2.06 45.0973 1.955 44.9073 1.895C44.7273 1.835 44.4423 1.805 44.0523 1.805C44.0323 1.805 44.0223 1.775 44.0223 1.715C44.0223 1.655 44.0323 1.625 44.0523 1.625C44.3023 1.625 44.5723 1.635 44.8623 1.655C45.1623 1.665 45.4973 1.67 45.8673 1.67C46.1973 1.67 46.5173 1.665 46.8273 1.655C47.1373 1.635 47.4123 1.625 47.6523 1.625C47.6723 1.625 47.6823 1.655 47.6823 1.715C47.6823 1.775 47.6723 1.805 47.6523 1.805C47.2823 1.805 47.0023 1.835 46.8123 1.895C46.6223 1.945 46.4973 2.045 46.4373 2.195C46.3773 2.335 46.3473 2.55 46.3473 2.84V9.785C46.3473 10.075 46.3773 10.295 46.4373 10.445C46.4973 10.595 46.6223 10.695 46.8123 10.745C47.0023 10.795 47.2823 10.82 47.6523 10.82C47.6723 10.82 47.6823 10.85 47.6823 10.91C47.6823 10.97 47.6723 11 47.6523 11C47.4123 11 47.1373 10.995 46.8273 10.985C46.5173 10.975 46.1973 10.97 45.8673 10.97C45.4973 10.97 45.1623 10.975 44.8623 10.985C44.5723 10.995 44.3023 11 44.0523 11ZM49.5134 9.44L49.7384 5.54L50.0384 5.585L49.8134 9.44C49.7834 9.94 49.8434 10.295 49.9934 10.505C50.1534 10.715 50.4084 10.82 50.7584 10.82C50.7784 10.82 50.7884 10.85 50.7884 10.91C50.7884 10.97 50.7784 11 50.7584 11C50.5984 11 50.4234 10.995 50.2334 10.985C50.0534 10.975 49.8584 10.97 49.6484 10.97C49.4484 10.97 49.2484 10.975 49.0484 10.985C48.8584 10.995 48.6784 11 48.5084 11C48.4884 11 48.4784 10.97 48.4784 10.91C48.4784 10.85 48.4884 10.82 48.5084 10.82C48.8684 10.82 49.1184 10.715 49.2584 10.505C49.3984 10.295 49.4834 9.94 49.5134 9.44ZM56.3834 10.82C56.4034 10.82 56.4134 10.85 56.4134 10.91C56.4134 10.97 56.4034 11 56.3834 11C56.1834 11 55.9634 10.995 55.7234 10.985C55.4834 10.975 55.2434 10.97 55.0034 10.97C54.7634 10.97 54.5434 10.975 54.3434 10.985C54.1534 10.995 53.9734 11 53.8034 11C53.7734 11 53.7584 10.97 53.7584 10.91C53.7584 10.85 53.7734 10.82 53.8034 10.82C54.1334 10.82 54.3484 10.755 54.4484 10.625C54.5584 10.495 54.5984 10.215 54.5684 9.785L54.2984 5.555L54.5384 5.39L52.3784 10.505C52.3584 10.545 52.3184 10.565 52.2584 10.565C52.1984 10.565 52.1584 10.545 52.1384 10.505L50.0684 6.455C49.8484 6.005 49.6184 5.715 49.3784 5.585C49.1484 5.455 48.9284 5.39 48.7184 5.39C48.6984 5.39 48.6884 5.36 48.6884 5.3C48.6884 5.24 48.6984 5.21 48.7184 5.21C48.8584 5.21 48.9984 5.215 49.1384 5.225C49.2784 5.225 49.3934 5.225 49.4834 5.225C49.6234 5.225 49.7534 5.225 49.8734 5.225C49.9934 5.215 50.0834 5.21 50.1434 5.21C50.2934 5.21 50.4034 5.26 50.4734 5.36C50.5434 5.46 50.6584 5.665 50.8184 5.975L52.6634 9.575L52.2584 10.085L54.1484 5.585C54.1984 5.465 54.2634 5.375 54.3434 5.315C54.4334 5.245 54.5184 5.21 54.5984 5.21C54.6684 5.21 54.7684 5.215 54.8984 5.225C55.0284 5.225 55.1734 5.225 55.3334 5.225C55.5234 5.225 55.6734 5.225 55.7834 5.225C55.9034 5.215 56.0284 5.21 56.1584 5.21C56.1784 5.21 56.1884 5.24 56.1884 5.3C56.1884 5.36 56.1784 5.39 56.1584 5.39C55.8184 5.39 55.5534 5.45 55.3634 5.57C55.1834 5.69 55.1134 5.96 55.1534 6.38L55.4084 9.785C55.4384 10.075 55.4734 10.295 55.5134 10.445C55.5634 10.595 55.6534 10.695 55.7834 10.745C55.9134 10.795 56.1134 10.82 56.3834 10.82ZM62.5245 10.82C62.5445 10.82 62.5545 10.85 62.5545 10.91C62.5545 10.97 62.5445 11 62.5245 11C62.3545 11 62.1545 10.995 61.9245 10.985C61.7045 10.975 61.4695 10.97 61.2195 10.97C60.9495 10.97 60.6995 10.975 60.4695 10.985C60.2495 10.995 60.0395 11 59.8395 11C59.8195 11 59.8095 10.97 59.8095 10.91C59.8095 10.85 59.8195 10.82 59.8395 10.82C60.2395 10.82 60.4895 10.755 60.5895 10.625C60.6995 10.495 60.7545 10.215 60.7545 9.785V8.105L60.9945 8.135C60.7145 8.135 60.4595 8.18 60.2295 8.27C60.0095 8.35 59.7895 8.51 59.5695 8.75C59.3495 8.98 59.1145 9.325 58.8645 9.785C58.6845 10.125 58.5445 10.385 58.4445 10.565C58.3445 10.735 58.2645 10.85 58.2045 10.91C58.1445 10.97 58.0745 11 57.9945 11H56.6895C56.6695 11 56.6595 10.97 56.6595 10.91C56.6595 10.85 56.6695 10.82 56.6895 10.82C56.9495 10.82 57.1645 10.75 57.3345 10.61C57.5045 10.46 57.6445 10.285 57.7545 10.085C57.8745 9.875 57.9895 9.675 58.0995 9.485C58.3195 9.085 58.5995 8.76 58.9395 8.51C59.2795 8.25 59.6695 8.12 60.1095 8.12L60.2145 8.18C59.6245 8.18 59.1595 8.12 58.8195 8C58.4795 7.87 58.2395 7.695 58.0995 7.475C57.9595 7.255 57.8895 7.005 57.8895 6.725C57.8895 6.245 58.0645 5.865 58.4145 5.585C58.7745 5.305 59.2495 5.165 59.8395 5.165C60.0095 5.165 60.2345 5.18 60.5145 5.21C60.7945 5.23 61.0295 5.24 61.2195 5.24C61.4695 5.24 61.6995 5.235 61.9095 5.225C62.1295 5.215 62.3295 5.21 62.5095 5.21C62.5295 5.21 62.5395 5.24 62.5395 5.3C62.5395 5.36 62.5295 5.39 62.5095 5.39C62.1395 5.39 61.8945 5.455 61.7745 5.585C61.6545 5.705 61.5945 5.985 61.5945 6.425V9.785C61.5945 10.215 61.6545 10.495 61.7745 10.625C61.9045 10.755 62.1545 10.82 62.5245 10.82ZM58.7895 6.38C58.7895 6.84 58.9045 7.22 59.1345 7.52C59.3645 7.82 59.7095 7.97 60.1695 7.97C60.3095 7.97 60.4645 7.96 60.6345 7.94C60.8045 7.92 60.9395 7.9 61.0395 7.88L60.7545 8V6.455C60.7545 5.995 60.6945 5.695 60.5745 5.555C60.4545 5.415 60.2045 5.345 59.8245 5.345C59.1345 5.345 58.7895 5.69 58.7895 6.38ZM68.4236 10.28L68.2136 10.07L72.2786 5.99L72.4886 6.2L68.4236 10.28ZM67.9586 9.785V6.425C67.9586 5.985 67.8986 5.705 67.7786 5.585C67.6686 5.455 67.4136 5.39 67.0136 5.39C66.9836 5.39 66.9686 5.36 66.9686 5.3C66.9686 5.24 66.9836 5.21 67.0136 5.21C67.2036 5.21 67.4186 5.215 67.6586 5.225C67.8986 5.235 68.1436 5.24 68.3936 5.24C68.6336 5.24 68.8736 5.235 69.1136 5.225C69.3536 5.215 69.5686 5.21 69.7586 5.21C69.7786 5.21 69.7886 5.24 69.7886 5.3C69.7886 5.36 69.7786 5.39 69.7586 5.39C69.3386 5.39 69.0736 5.46 68.9636 5.6C68.8536 5.74 68.7986 6.025 68.7986 6.455V9.785C68.7986 10.215 68.8536 10.495 68.9636 10.625C69.0736 10.755 69.3386 10.82 69.7586 10.82C69.7786 10.82 69.7886 10.85 69.7886 10.91C69.7886 10.97 69.7786 11 69.7586 11C69.5586 11 69.3386 10.995 69.0986 10.985C68.8686 10.975 68.6336 10.97 68.3936 10.97C68.1436 10.97 67.8986 10.975 67.6586 10.985C67.4186 10.995 67.1986 11 66.9986 11C66.9686 11 66.9536 10.97 66.9536 10.91C66.9536 10.85 66.9686 10.82 66.9986 10.82C67.4086 10.82 67.6686 10.755 67.7786 10.625C67.8986 10.495 67.9586 10.215 67.9586 9.785ZM71.9936 9.785V6.425C71.9936 5.985 71.9336 5.705 71.8136 5.585C71.7036 5.455 71.4486 5.39 71.0486 5.39C71.0186 5.39 71.0036 5.36 71.0036 5.3C71.0036 5.24 71.0186 5.21 71.0486 5.21C71.2386 5.21 71.4536 5.215 71.6936 5.225C71.9336 5.235 72.1786 5.24 72.4286 5.24C72.6686 5.24 72.9086 5.235 73.1486 5.225C73.3886 5.215 73.6036 5.21 73.7936 5.21C73.8136 5.21 73.8236 5.24 73.8236 5.3C73.8236 5.36 73.8136 5.39 73.7936 5.39C73.3736 5.39 73.1086 5.46 72.9986 5.6C72.8886 5.74 72.8336 6.025 72.8336 6.455V9.785C72.8336 10.215 72.8886 10.495 72.9986 10.625C73.1086 10.755 73.3736 10.82 73.7936 10.82C73.8136 10.82 73.8236 10.85 73.8236 10.91C73.8236 10.97 73.8136 11 73.7936 11C73.5936 11 73.3736 10.995 73.1336 10.985C72.9036 10.975 72.6686 10.97 72.4286 10.97C72.1786 10.97 71.9286 10.975 71.6786 10.985C71.4386 10.995 71.2236 11 71.0336 11C71.0036 11 70.9886 10.97 70.9886 10.91C70.9886 10.85 71.0036 10.82 71.0336 10.82C71.4436 10.82 71.7036 10.755 71.8136 10.625C71.9336 10.495 71.9936 10.215 71.9936 9.785ZM83.3186 9.89C82.3086 9.89 81.4436 9.725 80.7236 9.395C80.0036 9.055 79.4536 8.605 79.0736 8.045C78.6936 7.475 78.5036 6.845 78.5036 6.155C78.5036 5.515 78.6486 4.96 78.9386 4.49C79.2286 4.01 79.6236 3.615 80.1236 3.305C80.6236 2.985 81.1836 2.745 81.8036 2.585C82.4336 2.425 83.0736 2.345 83.7236 2.345C84.7936 2.345 85.6886 2.525 86.4086 2.885C87.1286 3.235 87.6736 3.695 88.0436 4.265C88.4136 4.835 88.5986 5.435 88.5986 6.065C88.5986 6.775 88.3736 7.42 87.9236 8C87.4736 8.58 86.8486 9.04 86.0486 9.38C85.2586 9.72 84.3486 9.89 83.3186 9.89ZM83.5286 9.68C84.2986 9.68 84.9786 9.545 85.5686 9.275C86.1586 8.995 86.6186 8.595 86.9486 8.075C87.2886 7.545 87.4586 6.9 87.4586 6.14C87.4586 5.46 87.3136 4.845 87.0236 4.295C86.7436 3.745 86.3136 3.315 85.7336 3.005C85.1636 2.685 84.4386 2.525 83.5586 2.525C82.7186 2.525 82.0036 2.67 81.4136 2.96C80.8336 3.25 80.3936 3.66 80.0936 4.19C79.7936 4.72 79.6436 5.335 79.6436 6.035C79.6436 6.715 79.7886 7.335 80.0786 7.895C80.3686 8.445 80.7986 8.88 81.3686 9.2C81.9486 9.52 82.6686 9.68 83.5286 9.68ZM81.3836 11.6C81.3536 11.6 81.3386 11.57 81.3386 11.51C81.3386 11.45 81.3536 11.42 81.3836 11.42C81.8536 11.42 82.2036 11.385 82.4336 11.315C82.6736 11.255 82.8336 11.155 82.9136 11.015C82.9936 10.885 83.0336 10.715 83.0336 10.505V1.985C83.0336 1.715 82.9936 1.51 82.9136 1.37C82.8336 1.23 82.6736 1.135 82.4336 1.085C82.2036 1.035 81.8536 1.01 81.3836 1.01C81.3536 1.01 81.3386 0.985 81.3386 0.935C81.3386 0.875 81.3536 0.844999 81.3836 0.844999C81.6736 0.844999 81.9986 0.849999 82.3586 0.859999C82.7186 0.87 83.0986 0.875 83.4986 0.875C83.9286 0.875 84.3236 0.87 84.6836 0.859999C85.0436 0.849999 85.3636 0.844999 85.6436 0.844999C85.6736 0.844999 85.6886 0.875 85.6886 0.935C85.6886 0.985 85.6736 1.01 85.6436 1.01C85.1836 1.01 84.8336 1.04 84.5936 1.1C84.3636 1.15 84.2086 1.25 84.1286 1.4C84.0486 1.54 84.0086 1.745 84.0086 2.015V10.505C84.0086 10.715 84.0486 10.885 84.1286 11.015C84.2086 11.155 84.3636 11.255 84.5936 11.315C84.8236 11.385 85.1736 11.42 85.6436 11.42C85.6736 11.42 85.6886 11.45 85.6886 11.51C85.6886 11.57 85.6736 11.6 85.6436 11.6C85.3536 11.6 85.0286 11.595 84.6686 11.585C84.3186 11.575 83.9286 11.57 83.4986 11.57C83.0986 11.57 82.7186 11.575 82.3586 11.585C81.9986 11.595 81.6736 11.6 81.3836 11.6ZM94.0508 11.09C94.0108 11.11 93.9708 11.12 93.9308 11.12C93.8008 11.12 93.6758 11.015 93.5558 10.805C93.4358 10.585 93.3758 10.27 93.3758 9.86V7.175C93.3758 6.705 93.3308 6.34 93.2408 6.08C93.1608 5.82 93.0458 5.64 92.8958 5.54C92.7558 5.44 92.5958 5.39 92.4158 5.39C92.1658 5.39 91.9608 5.455 91.8008 5.585C91.6408 5.705 91.5208 5.86 91.4408 6.05C91.3608 6.24 91.3058 6.43 91.2758 6.62C91.2658 6.76 91.2208 6.89 91.1408 7.01C91.0708 7.13 90.9308 7.19 90.7208 7.19C90.5608 7.19 90.4358 7.15 90.3458 7.07C90.2558 6.99 90.2108 6.88 90.2108 6.74C90.2108 6.56 90.3008 6.375 90.4808 6.185C90.6608 5.985 90.8858 5.805 91.1558 5.645C91.4358 5.475 91.7258 5.34 92.0258 5.24C92.3358 5.13 92.6258 5.075 92.8958 5.075C93.2758 5.075 93.5908 5.21 93.8408 5.48C94.0908 5.74 94.2158 6.155 94.2158 6.725V9.38C94.2158 9.73 94.2608 9.985 94.3508 10.145C94.4408 10.305 94.5858 10.385 94.7858 10.385C94.9658 10.385 95.2158 10.32 95.5358 10.19C95.5858 10.17 95.6208 10.19 95.6408 10.25C95.6608 10.3 95.6458 10.335 95.5958 10.355L94.0508 11.09ZM91.1108 11.105C90.7908 11.105 90.5508 11.02 90.3908 10.85C90.2308 10.67 90.1508 10.465 90.1508 10.235C90.1508 9.955 90.2608 9.735 90.4808 9.575C90.7008 9.405 91.0608 9.235 91.5608 9.065L93.5258 8.36L93.5708 8.525L91.8308 9.185C91.6008 9.275 91.4358 9.375 91.3358 9.485C91.2458 9.595 91.2008 9.735 91.2008 9.905C91.2008 10.115 91.2608 10.28 91.3808 10.4C91.5008 10.51 91.6558 10.565 91.8458 10.565C91.9558 10.565 92.0608 10.555 92.1608 10.535C92.2608 10.505 92.3608 10.465 92.4608 10.415L93.7358 9.77L93.7658 9.95L92.4608 10.655C92.1608 10.805 91.9108 10.92 91.7108 11C91.5108 11.07 91.3108 11.105 91.1108 11.105ZM96.945 9.44L97.17 5.54L97.47 5.585L97.245 9.44C97.215 9.94 97.275 10.295 97.425 10.505C97.585 10.715 97.84 10.82 98.19 10.82C98.21 10.82 98.22 10.85 98.22 10.91C98.22 10.97 98.21 11 98.19 11C98.03 11 97.855 10.995 97.665 10.985C97.485 10.975 97.29 10.97 97.08 10.97C96.88 10.97 96.68 10.975 96.48 10.985C96.29 10.995 96.11 11 95.94 11C95.92 11 95.91 10.97 95.91 10.91C95.91 10.85 95.92 10.82 95.94 10.82C96.3 10.82 96.55 10.715 96.69 10.505C96.83 10.295 96.915 9.94 96.945 9.44ZM103.815 10.82C103.835 10.82 103.845 10.85 103.845 10.91C103.845 10.97 103.835 11 103.815 11C103.615 11 103.395 10.995 103.155 10.985C102.915 10.975 102.675 10.97 102.435 10.97C102.195 10.97 101.975 10.975 101.775 10.985C101.585 10.995 101.405 11 101.235 11C101.205 11 101.19 10.97 101.19 10.91C101.19 10.85 101.205 10.82 101.235 10.82C101.565 10.82 101.78 10.755 101.88 10.625C101.99 10.495 102.03 10.215 102 9.785L101.73 5.555L101.97 5.39L99.81 10.505C99.79 10.545 99.75 10.565 99.69 10.565C99.63 10.565 99.59 10.545 99.57 10.505L97.5 6.455C97.28 6.005 97.05 5.715 96.81 5.585C96.58 5.455 96.36 5.39 96.15 5.39C96.13 5.39 96.12 5.36 96.12 5.3C96.12 5.24 96.13 5.21 96.15 5.21C96.29 5.21 96.43 5.215 96.57 5.225C96.71 5.225 96.825 5.225 96.915 5.225C97.055 5.225 97.185 5.225 97.305 5.225C97.425 5.215 97.515 5.21 97.575 5.21C97.725 5.21 97.835 5.26 97.905 5.36C97.975 5.46 98.09 5.665 98.25 5.975L100.095 9.575L99.69 10.085L101.58 5.585C101.63 5.465 101.695 5.375 101.775 5.315C101.865 5.245 101.95 5.21 102.03 5.21C102.1 5.21 102.2 5.215 102.33 5.225C102.46 5.225 102.605 5.225 102.765 5.225C102.955 5.225 103.105 5.225 103.215 5.225C103.335 5.215 103.46 5.21 103.59 5.21C103.61 5.21 103.62 5.24 103.62 5.3C103.62 5.36 103.61 5.39 103.59 5.39C103.25 5.39 102.985 5.45 102.795 5.57C102.615 5.69 102.545 5.96 102.585 6.38L102.84 9.785C102.87 10.075 102.905 10.295 102.945 10.445C102.995 10.595 103.085 10.695 103.215 10.745C103.345 10.795 103.545 10.82 103.815 10.82ZM106.026 10.28L105.816 10.07L109.881 5.99L110.091 6.2L106.026 10.28ZM105.561 9.785V6.425C105.561 5.985 105.501 5.705 105.381 5.585C105.271 5.455 105.016 5.39 104.616 5.39C104.586 5.39 104.571 5.36 104.571 5.3C104.571 5.24 104.586 5.21 104.616 5.21C104.806 5.21 105.021 5.215 105.261 5.225C105.501 5.235 105.746 5.24 105.996 5.24C106.236 5.24 106.476 5.235 106.716 5.225C106.956 5.215 107.171 5.21 107.361 5.21C107.381 5.21 107.391 5.24 107.391 5.3C107.391 5.36 107.381 5.39 107.361 5.39C106.941 5.39 106.676 5.46 106.566 5.6C106.456 5.74 106.401 6.025 106.401 6.455V9.785C106.401 10.215 106.456 10.495 106.566 10.625C106.676 10.755 106.941 10.82 107.361 10.82C107.381 10.82 107.391 10.85 107.391 10.91C107.391 10.97 107.381 11 107.361 11C107.161 11 106.941 10.995 106.701 10.985C106.471 10.975 106.236 10.97 105.996 10.97C105.746 10.97 105.501 10.975 105.261 10.985C105.021 10.995 104.801 11 104.601 11C104.571 11 104.556 10.97 104.556 10.91C104.556 10.85 104.571 10.82 104.601 10.82C105.011 10.82 105.271 10.755 105.381 10.625C105.501 10.495 105.561 10.215 105.561 9.785ZM109.596 9.785V6.425C109.596 5.985 109.536 5.705 109.416 5.585C109.306 5.455 109.051 5.39 108.651 5.39C108.621 5.39 108.606 5.36 108.606 5.3C108.606 5.24 108.621 5.21 108.651 5.21C108.841 5.21 109.056 5.215 109.296 5.225C109.536 5.235 109.781 5.24 110.031 5.24C110.271 5.24 110.511 5.235 110.751 5.225C110.991 5.215 111.206 5.21 111.396 5.21C111.416 5.21 111.426 5.24 111.426 5.3C111.426 5.36 111.416 5.39 111.396 5.39C110.976 5.39 110.711 5.46 110.601 5.6C110.491 5.74 110.436 6.025 110.436 6.455V9.785C110.436 10.215 110.491 10.495 110.601 10.625C110.711 10.755 110.976 10.82 111.396 10.82C111.416 10.82 111.426 10.85 111.426 10.91C111.426 10.97 111.416 11 111.396 11C111.196 11 110.976 10.995 110.736 10.985C110.506 10.975 110.271 10.97 110.031 10.97C109.781 10.97 109.531 10.975 109.281 10.985C109.041 10.995 108.826 11 108.636 11C108.606 11 108.591 10.97 108.591 10.91C108.591 10.85 108.606 10.82 108.636 10.82C109.046 10.82 109.306 10.755 109.416 10.625C109.536 10.495 109.596 10.215 109.596 9.785ZM112.695 11.12C112.255 11.12 112.035 10.955 112.035 10.625C112.035 10.465 112.08 10.34 112.17 10.25C112.27 10.16 112.38 10.115 112.5 10.115C112.56 10.115 112.625 10.125 112.695 10.145C112.775 10.155 112.85 10.16 112.92 10.16C113.2 10.16 113.435 10.03 113.625 9.77C113.825 9.51 113.99 9.175 114.12 8.765C114.25 8.355 114.345 7.92 114.405 7.46C114.465 7 114.495 6.565 114.495 6.155C114.495 5.835 114.42 5.635 114.27 5.555C114.13 5.465 113.835 5.405 113.385 5.375C113.355 5.375 113.34 5.35 113.34 5.3C113.34 5.24 113.355 5.21 113.385 5.21C113.475 5.21 113.635 5.21 113.865 5.21C114.105 5.21 114.36 5.21 114.63 5.21C114.91 5.21 115.16 5.21 115.38 5.21C115.6 5.21 115.74 5.21 115.8 5.21H118.38C118.4 5.21 118.41 5.24 118.41 5.3C118.41 5.36 118.4 5.39 118.38 5.39C118.12 5.4 117.92 5.43 117.78 5.48C117.65 5.52 117.555 5.61 117.495 5.75C117.445 5.89 117.42 6.125 117.42 6.455V9.785C117.42 10.095 117.445 10.325 117.495 10.475C117.545 10.615 117.64 10.705 117.78 10.745C117.92 10.775 118.12 10.8 118.38 10.82C118.4 10.82 118.41 10.85 118.41 10.91C118.41 10.97 118.4 11 118.38 11C118.18 11 117.965 10.995 117.735 10.985C117.505 10.975 117.27 10.97 117.03 10.97C116.77 10.97 116.515 10.975 116.265 10.985C116.025 10.995 115.81 11 115.62 11C115.59 11 115.575 10.97 115.575 10.91C115.575 10.85 115.59 10.82 115.62 10.82C115.89 10.8 116.09 10.775 116.22 10.745C116.36 10.705 116.455 10.615 116.505 10.475C116.555 10.325 116.58 10.095 116.58 9.785V6.425C116.58 6.115 116.57 5.9 116.55 5.78C116.53 5.65 116.47 5.57 116.37 5.54C116.27 5.51 116.1 5.495 115.86 5.495H115.77C115.53 5.495 115.35 5.52 115.23 5.57C115.12 5.61 115.045 5.695 115.005 5.825C114.965 5.955 114.925 6.15 114.885 6.41C114.845 6.79 114.795 7.195 114.735 7.625C114.675 8.055 114.595 8.475 114.495 8.885C114.395 9.295 114.27 9.67 114.12 10.01C113.97 10.34 113.775 10.61 113.535 10.82C113.305 11.02 113.025 11.12 112.695 11.12ZM120.748 10.28L120.538 10.07L124.603 5.99L124.813 6.2L120.748 10.28ZM120.283 9.785V6.425C120.283 5.985 120.223 5.705 120.103 5.585C119.993 5.455 119.738 5.39 119.338 5.39C119.308 5.39 119.293 5.36 119.293 5.3C119.293 5.24 119.308 5.21 119.338 5.21C119.528 5.21 119.743 5.215 119.983 5.225C120.223 5.235 120.468 5.24 120.718 5.24C120.958 5.24 121.198 5.235 121.438 5.225C121.678 5.215 121.893 5.21 122.083 5.21C122.103 5.21 122.113 5.24 122.113 5.3C122.113 5.36 122.103 5.39 122.083 5.39C121.663 5.39 121.398 5.46 121.288 5.6C121.178 5.74 121.123 6.025 121.123 6.455V9.785C121.123 10.215 121.178 10.495 121.288 10.625C121.398 10.755 121.663 10.82 122.083 10.82C122.103 10.82 122.113 10.85 122.113 10.91C122.113 10.97 122.103 11 122.083 11C121.883 11 121.663 10.995 121.423 10.985C121.193 10.975 120.958 10.97 120.718 10.97C120.468 10.97 120.223 10.975 119.983 10.985C119.743 10.995 119.523 11 119.323 11C119.293 11 119.278 10.97 119.278 10.91C119.278 10.85 119.293 10.82 119.323 10.82C119.733 10.82 119.993 10.755 120.103 10.625C120.223 10.495 120.283 10.215 120.283 9.785ZM124.318 9.785V6.425C124.318 5.985 124.258 5.705 124.138 5.585C124.028 5.455 123.773 5.39 123.373 5.39C123.343 5.39 123.328 5.36 123.328 5.3C123.328 5.24 123.343 5.21 123.373 5.21C123.563 5.21 123.778 5.215 124.018 5.225C124.258 5.235 124.503 5.24 124.753 5.24C124.993 5.24 125.233 5.235 125.473 5.225C125.713 5.215 125.928 5.21 126.118 5.21C126.138 5.21 126.148 5.24 126.148 5.3C126.148 5.36 126.138 5.39 126.118 5.39C125.698 5.39 125.433 5.46 125.323 5.6C125.213 5.74 125.158 6.025 125.158 6.455V9.785C125.158 10.215 125.213 10.495 125.323 10.625C125.433 10.755 125.698 10.82 126.118 10.82C126.138 10.82 126.148 10.85 126.148 10.91C126.148 10.97 126.138 11 126.118 11C125.918 11 125.698 10.995 125.458 10.985C125.228 10.975 124.993 10.97 124.753 10.97C124.503 10.97 124.253 10.975 124.003 10.985C123.763 10.995 123.548 11 123.358 11C123.328 11 123.313 10.97 123.313 10.91C123.313 10.85 123.328 10.82 123.358 10.82C123.768 10.82 124.028 10.755 124.138 10.625C124.258 10.495 124.318 10.215 124.318 9.785ZM132.412 10.82C132.432 10.82 132.442 10.85 132.442 10.91C132.442 10.97 132.432 11 132.412 11C132.242 11 132.042 10.995 131.812 10.985C131.592 10.975 131.357 10.97 131.107 10.97C130.837 10.97 130.587 10.975 130.357 10.985C130.137 10.995 129.927 11 129.727 11C129.707 11 129.697 10.97 129.697 10.91C129.697 10.85 129.707 10.82 129.727 10.82C130.127 10.82 130.377 10.755 130.477 10.625C130.587 10.495 130.642 10.215 130.642 9.785V8.105L130.882 8.135C130.602 8.135 130.347 8.18 130.117 8.27C129.897 8.35 129.677 8.51 129.457 8.75C129.237 8.98 129.002 9.325 128.752 9.785C128.572 10.125 128.432 10.385 128.332 10.565C128.232 10.735 128.152 10.85 128.092 10.91C128.032 10.97 127.962 11 127.882 11H126.577C126.557 11 126.547 10.97 126.547 10.91C126.547 10.85 126.557 10.82 126.577 10.82C126.837 10.82 127.052 10.75 127.222 10.61C127.392 10.46 127.532 10.285 127.642 10.085C127.762 9.875 127.877 9.675 127.987 9.485C128.207 9.085 128.487 8.76 128.827 8.51C129.167 8.25 129.557 8.12 129.997 8.12L130.102 8.18C129.512 8.18 129.047 8.12 128.707 8C128.367 7.87 128.127 7.695 127.987 7.475C127.847 7.255 127.777 7.005 127.777 6.725C127.777 6.245 127.952 5.865 128.302 5.585C128.662 5.305 129.137 5.165 129.727 5.165C129.897 5.165 130.122 5.18 130.402 5.21C130.682 5.23 130.917 5.24 131.107 5.24C131.357 5.24 131.587 5.235 131.797 5.225C132.017 5.215 132.217 5.21 132.397 5.21C132.417 5.21 132.427 5.24 132.427 5.3C132.427 5.36 132.417 5.39 132.397 5.39C132.027 5.39 131.782 5.455 131.662 5.585C131.542 5.705 131.482 5.985 131.482 6.425V9.785C131.482 10.215 131.542 10.495 131.662 10.625C131.792 10.755 132.042 10.82 132.412 10.82ZM128.677 6.38C128.677 6.84 128.792 7.22 129.022 7.52C129.252 7.82 129.597 7.97 130.057 7.97C130.197 7.97 130.352 7.96 130.522 7.94C130.692 7.92 130.827 7.9 130.927 7.88L130.642 8V6.455C130.642 5.995 130.582 5.695 130.462 5.555C130.342 5.415 130.092 5.345 129.712 5.345C129.022 5.345 128.677 5.69 128.677 6.38ZM134.376 11.165C134.176 11.165 134.016 11.11 133.896 11C133.776 10.88 133.716 10.72 133.716 10.52C133.716 10.33 133.776 10.18 133.896 10.07C134.016 9.95 134.176 9.89 134.376 9.89C134.586 9.89 134.746 9.95 134.856 10.07C134.966 10.18 135.021 10.33 135.021 10.52C135.021 10.72 134.966 10.88 134.856 11C134.746 11.11 134.586 11.165 134.376 11.165ZM134.376 6.95C134.176 6.95 134.016 6.895 133.896 6.785C133.776 6.665 133.716 6.505 133.716 6.305C133.716 6.115 133.776 5.965 133.896 5.855C134.016 5.735 134.176 5.675 134.376 5.675C134.586 5.675 134.746 5.735 134.856 5.855C134.966 5.965 135.021 6.115 135.021 6.305C135.021 6.505 134.966 6.665 134.856 6.785C134.746 6.895 134.586 6.95 134.376 6.95Z" fill="#282828"/>
</svg>
