<svg width="260" height="16" viewBox="0 0 260 16" fill="none" xmlns="http://www.w3.org/2000/svg">
<path d="M10.575 10.82C10.605 10.82 10.62 10.85 10.62 10.91C10.62 10.97 10.605 11 10.575 11C10.335 11 10.06 10.995 9.75 10.985C9.45 10.975 9.135 10.97 8.805 10.97C8.455 10.97 8.125 10.975 7.815 10.985C7.515 10.995 7.245 11 7.005 11C6.975 11 6.96 10.97 6.96 10.91C6.96 10.85 6.975 10.82 7.005 10.82C7.375 10.82 7.65 10.795 7.83 10.745C8.02 10.695 8.145 10.595 8.205 10.445C8.265 10.295 8.295 10.075 8.295 9.785V2.9C8.295 2.59 8.28 2.37 8.25 2.24C8.22 2.11 8.12 2.035 7.95 2.015C7.79 1.985 7.515 1.97 7.125 1.97H4.05C3.65 1.97 3.36 1.985 3.18 2.015C3.01 2.045 2.905 2.125 2.865 2.255C2.825 2.385 2.805 2.6 2.805 2.9V9.785C2.805 10.075 2.835 10.295 2.895 10.445C2.955 10.595 3.08 10.695 3.27 10.745C3.46 10.795 3.74 10.82 4.11 10.82C4.13 10.82 4.14 10.85 4.14 10.91C4.14 10.97 4.13 11 4.11 11C3.86 11 3.585 10.995 3.285 10.985C2.985 10.975 2.655 10.97 2.295 10.97C1.965 10.97 1.645 10.975 1.335 10.985C1.035 10.995 0.765 11 0.525 11C0.505 11 0.495 10.97 0.495 10.91C0.495 10.85 0.505 10.82 0.525 10.82C0.895 10.82 1.175 10.795 1.365 10.745C1.555 10.695 1.68 10.595 1.74 10.445C1.81 10.295 1.845 10.075 1.845 9.785V3.02C1.845 2.59 1.765 2.28 1.605 2.09C1.445 1.9 1.09 1.805 0.54 1.805C0.52 1.805 0.51 1.775 0.51 1.715C0.51 1.655 0.52 1.625 0.54 1.625C0.71 1.625 1.05 1.63 1.56 1.64C2.07 1.65 2.68 1.66 3.39 1.67C4.11 1.67 4.85 1.67 5.61 1.67C6.23 1.67 6.82 1.67 7.38 1.67C7.94 1.66 8.45 1.655 8.91 1.655C9.37 1.645 9.745 1.64 10.035 1.64C10.335 1.63 10.515 1.625 10.575 1.625C10.605 1.625 10.62 1.655 10.62 1.715C10.62 1.775 10.605 1.805 10.575 1.805C10.025 1.805 9.67 1.9 9.51 2.09C9.35 2.28 9.27 2.59 9.27 3.02V9.785C9.27 10.075 9.3 10.295 9.36 10.445C9.43 10.595 9.555 10.695 9.735 10.745C9.925 10.795 10.205 10.82 10.575 10.82ZM11.9582 11.12C11.5182 11.12 11.2982 10.955 11.2982 10.625C11.2982 10.465 11.3432 10.34 11.4332 10.25C11.5332 10.16 11.6432 10.115 11.7632 10.115C11.8232 10.115 11.8882 10.125 11.9582 10.145C12.0382 10.155 12.1132 10.16 12.1832 10.16C12.4632 10.16 12.6982 10.03 12.8882 9.77C13.0882 9.51 13.2532 9.175 13.3832 8.765C13.5132 8.355 13.6082 7.92 13.6682 7.46C13.7282 7 13.7582 6.565 13.7582 6.155C13.7582 5.835 13.6832 5.635 13.5332 5.555C13.3932 5.465 13.0982 5.405 12.6482 5.375C12.6182 5.375 12.6032 5.35 12.6032 5.3C12.6032 5.24 12.6182 5.21 12.6482 5.21C12.7382 5.21 12.8982 5.21 13.1282 5.21C13.3682 5.21 13.6232 5.21 13.8932 5.21C14.1732 5.21 14.4232 5.21 14.6432 5.21C14.8632 5.21 15.0032 5.21 15.0632 5.21H17.6432C17.6632 5.21 17.6732 5.24 17.6732 5.3C17.6732 5.36 17.6632 5.39 17.6432 5.39C17.3832 5.4 17.1832 5.43 17.0432 5.48C16.9132 5.52 16.8182 5.61 16.7582 5.75C16.7082 5.89 16.6832 6.125 16.6832 6.455V9.785C16.6832 10.095 16.7082 10.325 16.7582 10.475C16.8082 10.615 16.9032 10.705 17.0432 10.745C17.1832 10.775 17.3832 10.8 17.6432 10.82C17.6632 10.82 17.6732 10.85 17.6732 10.91C17.6732 10.97 17.6632 11 17.6432 11C17.4432 11 17.2282 10.995 16.9982 10.985C16.7682 10.975 16.5332 10.97 16.2932 10.97C16.0332 10.97 15.7782 10.975 15.5282 10.985C15.2882 10.995 15.0732 11 14.8832 11C14.8532 11 14.8382 10.97 14.8382 10.91C14.8382 10.85 14.8532 10.82 14.8832 10.82C15.1532 10.8 15.3532 10.775 15.4832 10.745C15.6232 10.705 15.7182 10.615 15.7682 10.475C15.8182 10.325 15.8432 10.095 15.8432 9.785V6.425C15.8432 6.115 15.8332 5.9 15.8132 5.78C15.7932 5.65 15.7332 5.57 15.6332 5.54C15.5332 5.51 15.3632 5.495 15.1232 5.495H15.0332C14.7932 5.495 14.6132 5.52 14.4932 5.57C14.3832 5.61 14.3082 5.695 14.2682 5.825C14.2282 5.955 14.1882 6.15 14.1482 6.41C14.1082 6.79 14.0582 7.195 13.9982 7.625C13.9382 8.055 13.8582 8.475 13.7582 8.885C13.6582 9.295 13.5332 9.67 13.3832 10.01C13.2332 10.34 13.0382 10.61 12.7982 10.82C12.5682 11.02 12.2882 11.12 11.9582 11.12ZM22.8155 11.09C22.7755 11.11 22.7355 11.12 22.6955 11.12C22.5655 11.12 22.4405 11.015 22.3205 10.805C22.2005 10.585 22.1405 10.27 22.1405 9.86V7.175C22.1405 6.705 22.0955 6.34 22.0055 6.08C21.9255 5.82 21.8105 5.64 21.6605 5.54C21.5205 5.44 21.3605 5.39 21.1805 5.39C20.9305 5.39 20.7255 5.455 20.5655 5.585C20.4055 5.705 20.2855 5.86 20.2055 6.05C20.1255 6.24 20.0705 6.43 20.0405 6.62C20.0305 6.76 19.9855 6.89 19.9055 7.01C19.8355 7.13 19.6955 7.19 19.4855 7.19C19.3255 7.19 19.2005 7.15 19.1105 7.07C19.0205 6.99 18.9755 6.88 18.9755 6.74C18.9755 6.56 19.0655 6.375 19.2455 6.185C19.4255 5.985 19.6505 5.805 19.9205 5.645C20.2005 5.475 20.4905 5.34 20.7905 5.24C21.1005 5.13 21.3905 5.075 21.6605 5.075C22.0405 5.075 22.3555 5.21 22.6055 5.48C22.8555 5.74 22.9805 6.155 22.9805 6.725V9.38C22.9805 9.73 23.0255 9.985 23.1155 10.145C23.2055 10.305 23.3505 10.385 23.5505 10.385C23.7305 10.385 23.9805 10.32 24.3005 10.19C24.3505 10.17 24.3855 10.19 24.4055 10.25C24.4255 10.3 24.4105 10.335 24.3605 10.355L22.8155 11.09ZM19.8755 11.105C19.5555 11.105 19.3155 11.02 19.1555 10.85C18.9955 10.67 18.9155 10.465 18.9155 10.235C18.9155 9.955 19.0255 9.735 19.2455 9.575C19.4655 9.405 19.8255 9.235 20.3255 9.065L22.2905 8.36L22.3355 8.525L20.5955 9.185C20.3655 9.275 20.2005 9.375 20.1005 9.485C20.0105 9.595 19.9655 9.735 19.9655 9.905C19.9655 10.115 20.0255 10.28 20.1455 10.4C20.2655 10.51 20.4205 10.565 20.6105 10.565C20.7205 10.565 20.8255 10.555 20.9255 10.535C21.0255 10.505 21.1255 10.465 21.2255 10.415L22.5005 9.77L22.5305 9.95L21.2255 10.655C20.9255 10.805 20.6755 10.92 20.4755 11C20.2755 11.07 20.0755 11.105 19.8755 11.105ZM26.2196 8.255V7.955H30.2546V8.255H26.2196ZM25.8296 9.785V6.425C25.8296 5.985 25.7696 5.705 25.6496 5.585C25.5396 5.455 25.2846 5.39 24.8846 5.39C24.8546 5.39 24.8396 5.36 24.8396 5.3C24.8396 5.24 24.8546 5.21 24.8846 5.21C25.0746 5.21 25.2896 5.215 25.5296 5.225C25.7696 5.235 26.0146 5.24 26.2646 5.24C26.5046 5.24 26.7446 5.235 26.9846 5.225C27.2246 5.215 27.4396 5.21 27.6296 5.21C27.6496 5.21 27.6596 5.24 27.6596 5.3C27.6596 5.36 27.6496 5.39 27.6296 5.39C27.2096 5.39 26.9446 5.46 26.8346 5.6C26.7246 5.74 26.6696 6.025 26.6696 6.455V9.785C26.6696 10.215 26.7246 10.495 26.8346 10.625C26.9446 10.755 27.2096 10.82 27.6296 10.82C27.6496 10.82 27.6596 10.85 27.6596 10.91C27.6596 10.97 27.6496 11 27.6296 11C27.4296 11 27.2096 10.995 26.9696 10.985C26.7396 10.975 26.5046 10.97 26.2646 10.97C26.0146 10.97 25.7696 10.975 25.5296 10.985C25.2896 10.995 25.0696 11 24.8696 11C24.8396 11 24.8246 10.97 24.8246 10.91C24.8246 10.85 24.8396 10.82 24.8696 10.82C25.2796 10.82 25.5396 10.755 25.6496 10.625C25.7696 10.495 25.8296 10.215 25.8296 9.785ZM29.8646 9.785V6.425C29.8646 5.985 29.8046 5.705 29.6846 5.585C29.5746 5.455 29.3196 5.39 28.9196 5.39C28.8896 5.39 28.8746 5.36 28.8746 5.3C28.8746 5.24 28.8896 5.21 28.9196 5.21C29.1096 5.21 29.3246 5.215 29.5646 5.225C29.8046 5.235 30.0496 5.24 30.2996 5.24C30.5396 5.24 30.7796 5.235 31.0196 5.225C31.2596 5.215 31.4746 5.21 31.6646 5.21C31.6846 5.21 31.6946 5.24 31.6946 5.3C31.6946 5.36 31.6846 5.39 31.6646 5.39C31.2446 5.39 30.9796 5.46 30.8696 5.6C30.7596 5.74 30.7046 6.025 30.7046 6.455V9.785C30.7046 10.215 30.7596 10.495 30.8696 10.625C30.9796 10.755 31.2446 10.82 31.6646 10.82C31.6846 10.82 31.6946 10.85 31.6946 10.91C31.6946 10.97 31.6846 11 31.6646 11C31.4646 11 31.2446 10.995 31.0046 10.985C30.7746 10.975 30.5396 10.97 30.2996 10.97C30.0496 10.97 29.7996 10.975 29.5496 10.985C29.3096 10.995 29.0946 11 28.9046 11C28.8746 11 28.8596 10.97 28.8596 10.91C28.8596 10.85 28.8746 10.82 28.9046 10.82C29.3146 10.82 29.5746 10.755 29.6846 10.625C29.8046 10.495 29.8646 10.215 29.8646 9.785ZM34.029 10.28L33.819 10.07L37.884 5.99L38.094 6.2L34.029 10.28ZM33.564 9.785V6.425C33.564 5.985 33.504 5.705 33.384 5.585C33.274 5.455 33.019 5.39 32.619 5.39C32.589 5.39 32.574 5.36 32.574 5.3C32.574 5.24 32.589 5.21 32.619 5.21C32.809 5.21 33.024 5.215 33.264 5.225C33.504 5.235 33.749 5.24 33.999 5.24C34.239 5.24 34.479 5.235 34.719 5.225C34.959 5.215 35.174 5.21 35.364 5.21C35.384 5.21 35.394 5.24 35.394 5.3C35.394 5.36 35.384 5.39 35.364 5.39C34.944 5.39 34.679 5.46 34.569 5.6C34.459 5.74 34.404 6.025 34.404 6.455V9.785C34.404 10.215 34.459 10.495 34.569 10.625C34.679 10.755 34.944 10.82 35.364 10.82C35.384 10.82 35.394 10.85 35.394 10.91C35.394 10.97 35.384 11 35.364 11C35.164 11 34.944 10.995 34.704 10.985C34.474 10.975 34.239 10.97 33.999 10.97C33.749 10.97 33.504 10.975 33.264 10.985C33.024 10.995 32.804 11 32.604 11C32.574 11 32.559 10.97 32.559 10.91C32.559 10.85 32.574 10.82 32.604 10.82C33.014 10.82 33.274 10.755 33.384 10.625C33.504 10.495 33.564 10.215 33.564 9.785ZM37.599 9.785V6.425C37.599 5.985 37.539 5.705 37.419 5.585C37.309 5.455 37.054 5.39 36.654 5.39C36.624 5.39 36.609 5.36 36.609 5.3C36.609 5.24 36.624 5.21 36.654 5.21C36.844 5.21 37.059 5.215 37.299 5.225C37.539 5.235 37.784 5.24 38.034 5.24C38.274 5.24 38.514 5.235 38.754 5.225C38.994 5.215 39.209 5.21 39.399 5.21C39.419 5.21 39.429 5.24 39.429 5.3C39.429 5.36 39.419 5.39 39.399 5.39C38.979 5.39 38.714 5.46 38.604 5.6C38.494 5.74 38.439 6.025 38.439 6.455V9.785C38.439 10.215 38.494 10.495 38.604 10.625C38.714 10.755 38.979 10.82 39.399 10.82C39.419 10.82 39.429 10.85 39.429 10.91C39.429 10.97 39.419 11 39.399 11C39.199 11 38.979 10.995 38.739 10.985C38.509 10.975 38.274 10.97 38.034 10.97C37.784 10.97 37.534 10.975 37.284 10.985C37.044 10.995 36.829 11 36.639 11C36.609 11 36.594 10.97 36.594 10.91C36.594 10.85 36.609 10.82 36.639 10.82C37.049 10.82 37.309 10.755 37.419 10.625C37.539 10.495 37.599 10.215 37.599 9.785ZM40.1134 15.125C40.0834 15.125 40.0684 15.095 40.0684 15.035C40.0684 14.975 40.0834 14.945 40.1134 14.945C40.5734 14.945 40.8684 14.88 40.9984 14.75C41.1384 14.62 41.2084 14.34 41.2084 13.91V6.425C41.2084 6.005 41.1234 5.73 40.9534 5.6C40.7834 5.46 40.4484 5.39 39.9484 5.39C39.9184 5.39 39.9034 5.36 39.9034 5.3C39.9034 5.24 39.9184 5.21 39.9484 5.21C40.1984 5.21 40.4334 5.21 40.6534 5.21C40.8834 5.21 41.0884 5.21 41.2684 5.21C41.4584 5.21 41.6234 5.21 41.7634 5.21C41.8734 5.21 41.9484 5.235 41.9884 5.285C42.0284 5.335 42.0484 5.44 42.0484 5.6V13.91C42.0484 14.19 42.0834 14.405 42.1534 14.555C42.2334 14.705 42.3784 14.805 42.5884 14.855C42.8084 14.915 43.1284 14.945 43.5484 14.945C43.5784 14.945 43.5934 14.975 43.5934 15.035C43.5934 15.095 43.5784 15.125 43.5484 15.125C43.2784 15.125 42.9784 15.12 42.6484 15.11C42.3284 15.1 41.9884 15.095 41.6284 15.095C41.3484 15.095 41.0734 15.1 40.8034 15.11C40.5434 15.12 40.3134 15.125 40.1134 15.125ZM43.6384 11.195C43.2484 11.195 42.9084 11.15 42.6184 11.06C42.3284 10.97 42.0084 10.8 41.6584 10.55L41.8834 9.725C42.1434 10.055 42.4384 10.33 42.7684 10.55C43.1084 10.77 43.5484 10.88 44.0884 10.88C44.6084 10.88 45.0434 10.65 45.3934 10.19C45.7434 9.73 45.9184 9.08 45.9184 8.24C45.9184 7.37 45.7234 6.71 45.3334 6.26C44.9434 5.81 44.4784 5.585 43.9384 5.585C43.4884 5.585 43.0984 5.71 42.7684 5.96C42.4384 6.2 42.1184 6.49 41.8084 6.83L41.6734 6.71C42.1834 6.12 42.6684 5.69 43.1284 5.42C43.5984 5.15 44.0784 5.015 44.5684 5.015C44.9784 5.015 45.3534 5.125 45.6934 5.345C46.0434 5.555 46.3234 5.865 46.5334 6.275C46.7534 6.685 46.8634 7.185 46.8634 7.775C46.8634 8.385 46.7584 8.905 46.5484 9.335C46.3384 9.765 46.0684 10.12 45.7384 10.4C45.4084 10.67 45.0584 10.87 44.6884 11C44.3184 11.13 43.9684 11.195 43.6384 11.195ZM53.8966 5.21C53.9266 5.21 53.9416 5.24 53.9416 5.3C53.9416 5.36 53.9266 5.39 53.8966 5.39C53.6466 5.39 53.4316 5.475 53.2516 5.645C53.0716 5.815 52.9016 6.115 52.7416 6.545L50.9116 11.42C50.5516 12.38 50.2066 13.135 49.8766 13.685C49.5466 14.245 49.2016 14.64 48.8416 14.87C48.4916 15.1 48.1016 15.215 47.6716 15.215C47.4616 15.215 47.2816 15.165 47.1316 15.065C46.9816 14.975 46.9066 14.83 46.9066 14.63C46.9066 14.48 46.9566 14.365 47.0566 14.285C47.1466 14.215 47.2516 14.18 47.3716 14.18C47.5716 14.18 47.7216 14.21 47.8216 14.27C47.9216 14.33 48.0216 14.39 48.1216 14.45C48.2216 14.51 48.3516 14.54 48.5116 14.54C48.7516 14.54 48.9816 14.425 49.2016 14.195C49.4316 13.975 49.6766 13.595 49.9366 13.055C50.1966 12.515 50.5016 11.78 50.8516 10.85L50.8366 11.27L48.4666 6.455C48.2466 6.015 48.0716 5.73 47.9416 5.6C47.8216 5.46 47.6666 5.39 47.4766 5.39C47.4566 5.39 47.4466 5.36 47.4466 5.3C47.4466 5.24 47.4566 5.21 47.4766 5.21C47.6366 5.21 47.8016 5.215 47.9716 5.225C48.1516 5.235 48.3216 5.24 48.4816 5.24C48.8116 5.24 49.1016 5.235 49.3516 5.225C49.6016 5.215 49.8266 5.21 50.0266 5.21C50.0466 5.21 50.0566 5.24 50.0566 5.3C50.0566 5.36 50.0466 5.39 50.0266 5.39C49.7066 5.39 49.4616 5.43 49.2916 5.51C49.1316 5.59 49.1116 5.745 49.2316 5.975L51.2866 10.205L50.9416 10.82L52.4116 6.59C52.5616 6.14 52.5566 5.83 52.3966 5.66C52.2466 5.48 51.9066 5.39 51.3766 5.39C51.3566 5.39 51.3466 5.36 51.3466 5.3C51.3466 5.24 51.3566 5.21 51.3766 5.21C51.6166 5.21 51.8416 5.215 52.0516 5.225C52.2716 5.235 52.5516 5.24 52.8916 5.24C53.1116 5.24 53.2866 5.235 53.4166 5.225C53.5566 5.215 53.7166 5.21 53.8966 5.21ZM57.3102 11.18C56.6902 11.18 56.1702 11.045 55.7502 10.775C55.3302 10.495 55.0152 10.135 54.8052 9.695C54.5952 9.255 54.4902 8.79 54.4902 8.3C54.4902 7.69 54.6302 7.145 54.9102 6.665C55.2002 6.175 55.5852 5.79 56.0652 5.51C56.5552 5.22 57.1052 5.075 57.7152 5.075C58.2652 5.075 58.6852 5.21 58.9752 5.48C59.2752 5.74 59.4252 6.1 59.4252 6.56C59.4252 6.67 59.4152 6.755 59.3952 6.815C59.3752 6.875 59.3252 6.905 59.2452 6.905H58.3752C58.4152 6.415 58.3252 6.04 58.1052 5.78C57.8952 5.51 57.5952 5.375 57.2052 5.375C56.6452 5.375 56.2152 5.585 55.9152 6.005C55.6252 6.425 55.4802 6.995 55.4802 7.715C55.4802 8.285 55.5702 8.79 55.7502 9.23C55.9402 9.67 56.2102 10.02 56.5602 10.28C56.9202 10.53 57.3452 10.655 57.8352 10.655C58.0952 10.655 58.3602 10.615 58.6302 10.535C58.9002 10.455 59.1552 10.33 59.3952 10.16C59.4152 10.14 59.4402 10.155 59.4702 10.205C59.5102 10.245 59.5202 10.28 59.5002 10.31C59.1402 10.62 58.7802 10.845 58.4202 10.985C58.0602 11.115 57.6902 11.18 57.3102 11.18ZM55.2102 6.935L55.1952 6.74L58.6152 6.665V6.905L55.2102 6.935ZM61.8582 11C61.8382 11 61.8282 10.97 61.8282 10.91C61.8282 10.85 61.8382 10.82 61.8582 10.82C62.2682 10.82 62.5332 10.755 62.6532 10.625C62.7732 10.495 62.8332 10.215 62.8332 9.785V6.455C62.8332 6.045 62.7882 5.775 62.6982 5.645C62.6082 5.505 62.4032 5.435 62.0832 5.435C61.7032 5.435 61.3982 5.555 61.1682 5.795C60.9382 6.025 60.8032 6.485 60.7632 7.175C60.7632 7.195 60.7332 7.205 60.6732 7.205C60.6132 7.205 60.5832 7.195 60.5832 7.175C60.5832 7.035 60.5832 6.825 60.5832 6.545C60.5832 6.255 60.5782 5.96 60.5682 5.66C60.5682 5.36 60.5682 5.115 60.5682 4.925C60.5682 4.875 60.5982 4.85 60.6582 4.85C60.7182 4.85 60.7482 4.875 60.7482 4.925C60.7482 5.065 60.9782 5.15 61.4382 5.18C61.8982 5.21 62.5032 5.225 63.2532 5.225C63.7432 5.225 64.1732 5.22 64.5432 5.21C64.9232 5.2 65.2182 5.175 65.4282 5.135C65.6382 5.085 65.7432 5.015 65.7432 4.925C65.7432 4.875 65.7732 4.85 65.8332 4.85C65.8932 4.85 65.9232 4.875 65.9232 4.925C65.9232 5.115 65.9232 5.36 65.9232 5.66C65.9232 5.96 65.9182 6.255 65.9082 6.545C65.9082 6.825 65.9082 7.035 65.9082 7.175C65.9082 7.195 65.8782 7.205 65.8182 7.205C65.7582 7.205 65.7282 7.195 65.7282 7.175C65.6882 6.485 65.5432 6.025 65.2932 5.795C65.0532 5.555 64.7482 5.435 64.3782 5.435C64.0682 5.435 63.8732 5.505 63.7932 5.645C63.7132 5.775 63.6732 6.045 63.6732 6.455V9.785C63.6732 10.215 63.7282 10.495 63.8382 10.625C63.9482 10.755 64.2082 10.82 64.6182 10.82C64.6482 10.82 64.6632 10.85 64.6632 10.91C64.6632 10.97 64.6482 11 64.6182 11C64.4282 11 64.2132 10.995 63.9732 10.985C63.7432 10.975 63.5032 10.97 63.2532 10.97C63.0132 10.97 62.7682 10.975 62.5182 10.985C62.2782 10.995 62.0582 11 61.8582 11ZM69.776 11.18C69.156 11.18 68.636 11.045 68.216 10.775C67.796 10.495 67.481 10.135 67.271 9.695C67.061 9.255 66.956 8.79 66.956 8.3C66.956 7.69 67.096 7.145 67.376 6.665C67.666 6.175 68.051 5.79 68.531 5.51C69.021 5.22 69.571 5.075 70.181 5.075C70.731 5.075 71.151 5.21 71.441 5.48C71.741 5.74 71.891 6.1 71.891 6.56C71.891 6.67 71.881 6.755 71.861 6.815C71.841 6.875 71.791 6.905 71.711 6.905H70.841C70.881 6.415 70.791 6.04 70.571 5.78C70.361 5.51 70.061 5.375 69.671 5.375C69.111 5.375 68.681 5.585 68.381 6.005C68.091 6.425 67.946 6.995 67.946 7.715C67.946 8.285 68.036 8.79 68.216 9.23C68.406 9.67 68.676 10.02 69.026 10.28C69.386 10.53 69.811 10.655 70.301 10.655C70.561 10.655 70.826 10.615 71.096 10.535C71.366 10.455 71.621 10.33 71.861 10.16C71.881 10.14 71.906 10.155 71.936 10.205C71.976 10.245 71.986 10.28 71.966 10.31C71.606 10.62 71.246 10.845 70.886 10.985C70.526 11.115 70.156 11.18 69.776 11.18ZM67.676 6.935L67.661 6.74L71.081 6.665V6.905L67.676 6.935ZM76.8947 11.12C76.4547 11.12 76.2347 10.955 76.2347 10.625C76.2347 10.465 76.2797 10.34 76.3697 10.25C76.4697 10.16 76.5797 10.115 76.6997 10.115C76.7597 10.115 76.8247 10.125 76.8947 10.145C76.9747 10.155 77.0497 10.16 77.1197 10.16C77.3997 10.16 77.6347 10.03 77.8247 9.77C78.0247 9.51 78.1897 9.175 78.3197 8.765C78.4497 8.355 78.5447 7.92 78.6047 7.46C78.6647 7 78.6947 6.565 78.6947 6.155C78.6947 5.835 78.6197 5.635 78.4697 5.555C78.3297 5.465 78.0347 5.405 77.5847 5.375C77.5547 5.375 77.5397 5.35 77.5397 5.3C77.5397 5.24 77.5547 5.21 77.5847 5.21C77.6747 5.21 77.8347 5.21 78.0647 5.21C78.3047 5.21 78.5597 5.21 78.8297 5.21C79.1097 5.21 79.3597 5.21 79.5797 5.21C79.7997 5.21 79.9397 5.21 79.9997 5.21H82.5797C82.5997 5.21 82.6097 5.24 82.6097 5.3C82.6097 5.36 82.5997 5.39 82.5797 5.39C82.3197 5.4 82.1197 5.43 81.9797 5.48C81.8497 5.52 81.7547 5.61 81.6947 5.75C81.6447 5.89 81.6197 6.125 81.6197 6.455V9.785C81.6197 10.095 81.6447 10.325 81.6947 10.475C81.7447 10.615 81.8397 10.705 81.9797 10.745C82.1197 10.775 82.3197 10.8 82.5797 10.82C82.5997 10.82 82.6097 10.85 82.6097 10.91C82.6097 10.97 82.5997 11 82.5797 11C82.3797 11 82.1647 10.995 81.9347 10.985C81.7047 10.975 81.4697 10.97 81.2297 10.97C80.9697 10.97 80.7147 10.975 80.4647 10.985C80.2247 10.995 80.0097 11 79.8197 11C79.7897 11 79.7747 10.97 79.7747 10.91C79.7747 10.85 79.7897 10.82 79.8197 10.82C80.0897 10.8 80.2897 10.775 80.4197 10.745C80.5597 10.705 80.6547 10.615 80.7047 10.475C80.7547 10.325 80.7797 10.095 80.7797 9.785V6.425C80.7797 6.115 80.7697 5.9 80.7497 5.78C80.7297 5.65 80.6697 5.57 80.5697 5.54C80.4697 5.51 80.2997 5.495 80.0597 5.495H79.9697C79.7297 5.495 79.5497 5.52 79.4297 5.57C79.3197 5.61 79.2447 5.695 79.2047 5.825C79.1647 5.955 79.1247 6.15 79.0847 6.41C79.0447 6.79 78.9947 7.195 78.9347 7.625C78.8747 8.055 78.7947 8.475 78.6947 8.885C78.5947 9.295 78.4697 9.67 78.3197 10.01C78.1697 10.34 77.9747 10.61 77.7347 10.82C77.5047 11.02 77.2247 11.12 76.8947 11.12ZM84.947 10.28L84.737 10.07L88.802 5.99L89.012 6.2L84.947 10.28ZM84.482 9.785V6.425C84.482 5.985 84.422 5.705 84.302 5.585C84.192 5.455 83.937 5.39 83.537 5.39C83.507 5.39 83.492 5.36 83.492 5.3C83.492 5.24 83.507 5.21 83.537 5.21C83.727 5.21 83.942 5.215 84.182 5.225C84.422 5.235 84.667 5.24 84.917 5.24C85.157 5.24 85.397 5.235 85.637 5.225C85.877 5.215 86.092 5.21 86.282 5.21C86.302 5.21 86.312 5.24 86.312 5.3C86.312 5.36 86.302 5.39 86.282 5.39C85.862 5.39 85.597 5.46 85.487 5.6C85.377 5.74 85.322 6.025 85.322 6.455V9.785C85.322 10.215 85.377 10.495 85.487 10.625C85.597 10.755 85.862 10.82 86.282 10.82C86.302 10.82 86.312 10.85 86.312 10.91C86.312 10.97 86.302 11 86.282 11C86.082 11 85.862 10.995 85.622 10.985C85.392 10.975 85.157 10.97 84.917 10.97C84.667 10.97 84.422 10.975 84.182 10.985C83.942 10.995 83.722 11 83.522 11C83.492 11 83.477 10.97 83.477 10.91C83.477 10.85 83.492 10.82 83.522 10.82C83.932 10.82 84.192 10.755 84.302 10.625C84.422 10.495 84.482 10.215 84.482 9.785ZM88.517 9.785V6.425C88.517 5.985 88.457 5.705 88.337 5.585C88.227 5.455 87.972 5.39 87.572 5.39C87.542 5.39 87.527 5.36 87.527 5.3C87.527 5.24 87.542 5.21 87.572 5.21C87.762 5.21 87.977 5.215 88.217 5.225C88.457 5.235 88.702 5.24 88.952 5.24C89.192 5.24 89.432 5.235 89.672 5.225C89.912 5.215 90.127 5.21 90.317 5.21C90.337 5.21 90.347 5.24 90.347 5.3C90.347 5.36 90.337 5.39 90.317 5.39C89.897 5.39 89.632 5.46 89.522 5.6C89.412 5.74 89.357 6.025 89.357 6.455V9.785C89.357 10.215 89.412 10.495 89.522 10.625C89.632 10.755 89.897 10.82 90.317 10.82C90.337 10.82 90.347 10.85 90.347 10.91C90.347 10.97 90.337 11 90.317 11C90.117 11 89.897 10.995 89.657 10.985C89.427 10.975 89.192 10.97 88.952 10.97C88.702 10.97 88.452 10.975 88.202 10.985C87.962 10.995 87.747 11 87.557 11C87.527 11 87.512 10.97 87.512 10.91C87.512 10.85 87.527 10.82 87.557 10.82C87.967 10.82 88.227 10.755 88.337 10.625C88.457 10.495 88.517 10.215 88.517 9.785ZM101.567 10.82C101.587 10.82 101.597 10.85 101.597 10.91C101.597 10.97 101.587 11 101.567 11C101.367 11 101.147 10.995 100.907 10.985C100.677 10.975 100.442 10.97 100.202 10.97C99.952 10.97 99.707 10.975 99.467 10.985C99.227 10.995 99.017 11 98.837 11C98.807 11 98.792 10.97 98.792 10.91C98.792 10.85 98.807 10.82 98.837 10.82C99.227 10.82 99.477 10.755 99.587 10.625C99.707 10.495 99.767 10.215 99.767 9.785V6.425C99.767 6.115 99.757 5.9 99.737 5.78C99.717 5.65 99.657 5.57 99.557 5.54C99.457 5.51 99.287 5.495 99.047 5.495H97.307C97.067 5.495 96.897 5.51 96.797 5.54C96.697 5.57 96.632 5.65 96.602 5.78C96.582 5.91 96.572 6.135 96.572 6.455V9.785C96.572 10.215 96.622 10.495 96.722 10.625C96.832 10.755 97.087 10.82 97.487 10.82C97.507 10.82 97.517 10.85 97.517 10.91C97.517 10.97 97.507 11 97.487 11C97.297 11 97.087 10.995 96.857 10.985C96.627 10.975 96.397 10.97 96.167 10.97C95.917 10.97 95.672 10.975 95.432 10.985C95.192 10.995 94.972 11 94.772 11C94.742 11 94.727 10.97 94.727 10.91C94.727 10.85 94.742 10.82 94.772 10.82C95.182 10.82 95.442 10.755 95.552 10.625C95.672 10.495 95.732 10.215 95.732 9.785V6.425C95.732 5.985 95.672 5.705 95.552 5.585C95.442 5.455 95.187 5.39 94.787 5.39C94.757 5.39 94.742 5.36 94.742 5.3C94.742 5.24 94.757 5.21 94.787 5.21H101.567C101.587 5.21 101.597 5.24 101.597 5.3C101.597 5.36 101.587 5.39 101.567 5.39C101.147 5.39 100.882 5.46 100.772 5.6C100.662 5.74 100.607 6.025 100.607 6.455V9.785C100.607 10.215 100.662 10.495 100.772 10.625C100.882 10.755 101.147 10.82 101.567 10.82ZM102.281 15.125C102.251 15.125 102.236 15.095 102.236 15.035C102.236 14.975 102.251 14.945 102.281 14.945C102.741 14.945 103.036 14.88 103.166 14.75C103.306 14.62 103.376 14.34 103.376 13.91V6.425C103.376 6.005 103.291 5.73 103.121 5.6C102.951 5.46 102.616 5.39 102.116 5.39C102.086 5.39 102.071 5.36 102.071 5.3C102.071 5.24 102.086 5.21 102.116 5.21C102.366 5.21 102.601 5.21 102.821 5.21C103.051 5.21 103.256 5.21 103.436 5.21C103.626 5.21 103.791 5.21 103.931 5.21C104.041 5.21 104.116 5.235 104.156 5.285C104.196 5.335 104.216 5.44 104.216 5.6V13.91C104.216 14.19 104.251 14.405 104.321 14.555C104.401 14.705 104.546 14.805 104.756 14.855C104.976 14.915 105.296 14.945 105.716 14.945C105.746 14.945 105.761 14.975 105.761 15.035C105.761 15.095 105.746 15.125 105.716 15.125C105.446 15.125 105.146 15.12 104.816 15.11C104.496 15.1 104.156 15.095 103.796 15.095C103.516 15.095 103.241 15.1 102.971 15.11C102.711 15.12 102.481 15.125 102.281 15.125ZM105.806 11.195C105.416 11.195 105.076 11.15 104.786 11.06C104.496 10.97 104.176 10.8 103.826 10.55L104.051 9.725C104.311 10.055 104.606 10.33 104.936 10.55C105.276 10.77 105.716 10.88 106.256 10.88C106.776 10.88 107.211 10.65 107.561 10.19C107.911 9.73 108.086 9.08 108.086 8.24C108.086 7.37 107.891 6.71 107.501 6.26C107.111 5.81 106.646 5.585 106.106 5.585C105.656 5.585 105.266 5.71 104.936 5.96C104.606 6.2 104.286 6.49 103.976 6.83L103.841 6.71C104.351 6.12 104.836 5.69 105.296 5.42C105.766 5.15 106.246 5.015 106.736 5.015C107.146 5.015 107.521 5.125 107.861 5.345C108.211 5.555 108.491 5.865 108.701 6.275C108.921 6.685 109.031 7.185 109.031 7.775C109.031 8.385 108.926 8.905 108.716 9.335C108.506 9.765 108.236 10.12 107.906 10.4C107.576 10.67 107.226 10.87 106.856 11C106.486 11.13 106.136 11.195 105.806 11.195ZM111.505 10.28L111.295 10.07L115.36 5.99L115.57 6.2L111.505 10.28ZM111.04 9.785V6.425C111.04 5.985 110.98 5.705 110.86 5.585C110.75 5.455 110.495 5.39 110.095 5.39C110.065 5.39 110.05 5.36 110.05 5.3C110.05 5.24 110.065 5.21 110.095 5.21C110.285 5.21 110.5 5.215 110.74 5.225C110.98 5.235 111.225 5.24 111.475 5.24C111.715 5.24 111.955 5.235 112.195 5.225C112.435 5.215 112.65 5.21 112.84 5.21C112.86 5.21 112.87 5.24 112.87 5.3C112.87 5.36 112.86 5.39 112.84 5.39C112.42 5.39 112.155 5.46 112.045 5.6C111.935 5.74 111.88 6.025 111.88 6.455V9.785C111.88 10.215 111.935 10.495 112.045 10.625C112.155 10.755 112.42 10.82 112.84 10.82C112.86 10.82 112.87 10.85 112.87 10.91C112.87 10.97 112.86 11 112.84 11C112.64 11 112.42 10.995 112.18 10.985C111.95 10.975 111.715 10.97 111.475 10.97C111.225 10.97 110.98 10.975 110.74 10.985C110.5 10.995 110.28 11 110.08 11C110.05 11 110.035 10.97 110.035 10.91C110.035 10.85 110.05 10.82 110.08 10.82C110.49 10.82 110.75 10.755 110.86 10.625C110.98 10.495 111.04 10.215 111.04 9.785ZM115.075 9.785V6.425C115.075 5.985 115.015 5.705 114.895 5.585C114.785 5.455 114.53 5.39 114.13 5.39C114.1 5.39 114.085 5.36 114.085 5.3C114.085 5.24 114.1 5.21 114.13 5.21C114.32 5.21 114.535 5.215 114.775 5.225C115.015 5.235 115.26 5.24 115.51 5.24C115.75 5.24 115.99 5.235 116.23 5.225C116.47 5.215 116.685 5.21 116.875 5.21C116.895 5.21 116.905 5.24 116.905 5.3C116.905 5.36 116.895 5.39 116.875 5.39C116.455 5.39 116.19 5.46 116.08 5.6C115.97 5.74 115.915 6.025 115.915 6.455V9.785C115.915 10.215 115.97 10.495 116.08 10.625C116.19 10.755 116.455 10.82 116.875 10.82C116.895 10.82 116.905 10.85 116.905 10.91C116.905 10.97 116.895 11 116.875 11C116.675 11 116.455 10.995 116.215 10.985C115.985 10.975 115.75 10.97 115.51 10.97C115.26 10.97 115.01 10.975 114.76 10.985C114.52 10.995 114.305 11 114.115 11C114.085 11 114.07 10.97 114.07 10.91C114.07 10.85 114.085 10.82 114.115 10.82C114.525 10.82 114.785 10.755 114.895 10.625C115.015 10.495 115.075 10.215 115.075 9.785ZM120.799 11.18C120.119 11.18 119.564 11.035 119.134 10.745C118.704 10.445 118.384 10.07 118.174 9.62C117.974 9.16 117.874 8.695 117.874 8.225C117.874 7.725 117.969 7.28 118.159 6.89C118.359 6.5 118.619 6.17 118.939 5.9C119.259 5.63 119.614 5.425 120.004 5.285C120.394 5.145 120.774 5.075 121.144 5.075C121.434 5.075 121.709 5.115 121.969 5.195C122.239 5.265 122.459 5.37 122.629 5.51C122.809 5.65 122.899 5.81 122.899 5.99C122.899 6.12 122.854 6.235 122.764 6.335C122.674 6.425 122.544 6.47 122.374 6.47C122.214 6.47 122.079 6.42 121.969 6.32C121.869 6.22 121.784 6.105 121.714 5.975C121.604 5.795 121.474 5.65 121.324 5.54C121.174 5.43 120.949 5.375 120.649 5.375C120.079 5.375 119.639 5.6 119.329 6.05C119.019 6.49 118.864 7.065 118.864 7.775C118.864 8.285 118.949 8.76 119.119 9.2C119.299 9.64 119.574 9.995 119.944 10.265C120.314 10.525 120.794 10.655 121.384 10.655C121.654 10.655 121.919 10.62 122.179 10.55C122.439 10.48 122.684 10.35 122.914 10.16C122.934 10.14 122.959 10.15 122.989 10.19C123.029 10.23 123.039 10.26 123.019 10.28C122.669 10.59 122.319 10.82 121.969 10.97C121.619 11.11 121.229 11.18 120.799 11.18ZM129.966 5.21C129.996 5.21 130.011 5.24 130.011 5.3C130.011 5.36 129.996 5.39 129.966 5.39C129.716 5.39 129.501 5.475 129.321 5.645C129.141 5.815 128.971 6.115 128.811 6.545L126.981 11.42C126.621 12.38 126.276 13.135 125.946 13.685C125.616 14.245 125.271 14.64 124.911 14.87C124.561 15.1 124.171 15.215 123.741 15.215C123.531 15.215 123.351 15.165 123.201 15.065C123.051 14.975 122.976 14.83 122.976 14.63C122.976 14.48 123.026 14.365 123.126 14.285C123.216 14.215 123.321 14.18 123.441 14.18C123.641 14.18 123.791 14.21 123.891 14.27C123.991 14.33 124.091 14.39 124.191 14.45C124.291 14.51 124.421 14.54 124.581 14.54C124.821 14.54 125.051 14.425 125.271 14.195C125.501 13.975 125.746 13.595 126.006 13.055C126.266 12.515 126.571 11.78 126.921 10.85L126.906 11.27L124.536 6.455C124.316 6.015 124.141 5.73 124.011 5.6C123.891 5.46 123.736 5.39 123.546 5.39C123.526 5.39 123.516 5.36 123.516 5.3C123.516 5.24 123.526 5.21 123.546 5.21C123.706 5.21 123.871 5.215 124.041 5.225C124.221 5.235 124.391 5.24 124.551 5.24C124.881 5.24 125.171 5.235 125.421 5.225C125.671 5.215 125.896 5.21 126.096 5.21C126.116 5.21 126.126 5.24 126.126 5.3C126.126 5.36 126.116 5.39 126.096 5.39C125.776 5.39 125.531 5.43 125.361 5.51C125.201 5.59 125.181 5.745 125.301 5.975L127.356 10.205L127.011 10.82L128.481 6.59C128.631 6.14 128.626 5.83 128.466 5.66C128.316 5.48 127.976 5.39 127.446 5.39C127.426 5.39 127.416 5.36 127.416 5.3C127.416 5.24 127.426 5.21 127.446 5.21C127.686 5.21 127.911 5.215 128.121 5.225C128.341 5.235 128.621 5.24 128.961 5.24C129.181 5.24 129.356 5.235 129.486 5.225C129.626 5.215 129.786 5.21 129.966 5.21ZM131.805 11C131.785 11 131.775 10.97 131.775 10.91C131.775 10.85 131.785 10.82 131.805 10.82C132.215 10.82 132.48 10.755 132.6 10.625C132.72 10.495 132.78 10.215 132.78 9.785V6.455C132.78 6.045 132.735 5.775 132.645 5.645C132.555 5.505 132.35 5.435 132.03 5.435C131.65 5.435 131.345 5.555 131.115 5.795C130.885 6.025 130.75 6.485 130.71 7.175C130.71 7.195 130.68 7.205 130.62 7.205C130.56 7.205 130.53 7.195 130.53 7.175C130.53 7.035 130.53 6.825 130.53 6.545C130.53 6.255 130.525 5.96 130.515 5.66C130.515 5.36 130.515 5.115 130.515 4.925C130.515 4.875 130.545 4.85 130.605 4.85C130.665 4.85 130.695 4.875 130.695 4.925C130.695 5.065 130.925 5.15 131.385 5.18C131.845 5.21 132.45 5.225 133.2 5.225C133.69 5.225 134.12 5.22 134.49 5.21C134.87 5.2 135.165 5.175 135.375 5.135C135.585 5.085 135.69 5.015 135.69 4.925C135.69 4.875 135.72 4.85 135.78 4.85C135.84 4.85 135.87 4.875 135.87 4.925C135.87 5.115 135.87 5.36 135.87 5.66C135.87 5.96 135.865 6.255 135.855 6.545C135.855 6.825 135.855 7.035 135.855 7.175C135.855 7.195 135.825 7.205 135.765 7.205C135.705 7.205 135.675 7.195 135.675 7.175C135.635 6.485 135.49 6.025 135.24 5.795C135 5.555 134.695 5.435 134.325 5.435C134.015 5.435 133.82 5.505 133.74 5.645C133.66 5.775 133.62 6.045 133.62 6.455V9.785C133.62 10.215 133.675 10.495 133.785 10.625C133.895 10.755 134.155 10.82 134.565 10.82C134.595 10.82 134.61 10.85 134.61 10.91C134.61 10.97 134.595 11 134.565 11C134.375 11 134.16 10.995 133.92 10.985C133.69 10.975 133.45 10.97 133.2 10.97C132.96 10.97 132.715 10.975 132.465 10.985C132.225 10.995 132.005 11 131.805 11ZM139.827 11.18C139.147 11.18 138.592 11.035 138.162 10.745C137.732 10.445 137.412 10.07 137.202 9.62C137.002 9.16 136.902 8.695 136.902 8.225C136.902 7.725 136.997 7.28 137.187 6.89C137.387 6.5 137.647 6.17 137.967 5.9C138.287 5.63 138.642 5.425 139.032 5.285C139.422 5.145 139.802 5.075 140.172 5.075C140.462 5.075 140.737 5.115 140.997 5.195C141.267 5.265 141.487 5.37 141.657 5.51C141.837 5.65 141.927 5.81 141.927 5.99C141.927 6.12 141.882 6.235 141.792 6.335C141.702 6.425 141.572 6.47 141.402 6.47C141.242 6.47 141.107 6.42 140.997 6.32C140.897 6.22 140.812 6.105 140.742 5.975C140.632 5.795 140.502 5.65 140.352 5.54C140.202 5.43 139.977 5.375 139.677 5.375C139.107 5.375 138.667 5.6 138.357 6.05C138.047 6.49 137.892 7.065 137.892 7.775C137.892 8.285 137.977 8.76 138.147 9.2C138.327 9.64 138.602 9.995 138.972 10.265C139.342 10.525 139.822 10.655 140.412 10.655C140.682 10.655 140.947 10.62 141.207 10.55C141.467 10.48 141.712 10.35 141.942 10.16C141.962 10.14 141.987 10.15 142.017 10.19C142.057 10.23 142.067 10.26 142.047 10.28C141.697 10.59 141.347 10.82 140.997 10.97C140.647 11.11 140.257 11.18 139.827 11.18ZM144.314 11C144.294 11 144.284 10.97 144.284 10.91C144.284 10.85 144.294 10.82 144.314 10.82C144.724 10.82 144.989 10.755 145.109 10.625C145.229 10.495 145.289 10.215 145.289 9.785V6.455C145.289 6.045 145.244 5.775 145.154 5.645C145.064 5.505 144.859 5.435 144.539 5.435C144.159 5.435 143.854 5.555 143.624 5.795C143.394 6.025 143.259 6.485 143.219 7.175C143.219 7.195 143.189 7.205 143.129 7.205C143.069 7.205 143.039 7.195 143.039 7.175C143.039 7.035 143.039 6.825 143.039 6.545C143.039 6.255 143.034 5.96 143.024 5.66C143.024 5.36 143.024 5.115 143.024 4.925C143.024 4.875 143.054 4.85 143.114 4.85C143.174 4.85 143.204 4.875 143.204 4.925C143.204 5.065 143.434 5.15 143.894 5.18C144.354 5.21 144.959 5.225 145.709 5.225C146.199 5.225 146.629 5.22 146.999 5.21C147.379 5.2 147.674 5.175 147.884 5.135C148.094 5.085 148.199 5.015 148.199 4.925C148.199 4.875 148.229 4.85 148.289 4.85C148.349 4.85 148.379 4.875 148.379 4.925C148.379 5.115 148.379 5.36 148.379 5.66C148.379 5.96 148.374 6.255 148.364 6.545C148.364 6.825 148.364 7.035 148.364 7.175C148.364 7.195 148.334 7.205 148.274 7.205C148.214 7.205 148.184 7.195 148.184 7.175C148.144 6.485 147.999 6.025 147.749 5.795C147.509 5.555 147.204 5.435 146.834 5.435C146.524 5.435 146.329 5.505 146.249 5.645C146.169 5.775 146.129 6.045 146.129 6.455V9.785C146.129 10.215 146.184 10.495 146.294 10.625C146.404 10.755 146.664 10.82 147.074 10.82C147.104 10.82 147.119 10.85 147.119 10.91C147.119 10.97 147.104 11 147.074 11C146.884 11 146.669 10.995 146.429 10.985C146.199 10.975 145.959 10.97 145.709 10.97C145.469 10.97 145.224 10.975 144.974 10.985C144.734 10.995 144.514 11 144.314 11ZM150.747 5.225C151.007 5.225 151.277 5.22 151.557 5.21C151.847 5.19 152.132 5.18 152.412 5.18C152.992 5.18 153.437 5.275 153.747 5.465C154.067 5.655 154.227 5.94 154.227 6.32C154.227 6.86 153.822 7.4 153.012 7.94L152.817 7.85C152.967 7.71 153.082 7.55 153.162 7.37C153.242 7.18 153.282 6.945 153.282 6.665C153.282 6.215 153.172 5.89 152.952 5.69C152.742 5.49 152.432 5.39 152.022 5.39C151.682 5.39 151.452 5.455 151.332 5.585C151.212 5.705 151.152 5.995 151.152 6.455V9.785C151.152 10.135 151.227 10.39 151.377 10.55C151.537 10.71 151.862 10.79 152.352 10.79C152.882 10.79 153.267 10.68 153.507 10.46C153.757 10.24 153.882 9.925 153.882 9.515C153.882 9.075 153.752 8.72 153.492 8.45C153.232 8.17 152.797 8.03 152.187 8.03H150.807L150.792 7.79H152.712C154.142 7.79 154.857 8.25 154.857 9.17C154.857 9.71 154.647 10.155 154.227 10.505C153.807 10.855 153.272 11.03 152.622 11.03C152.382 11.03 152.077 11.02 151.707 11C151.347 10.98 151.027 10.97 150.747 10.97C150.497 10.97 150.252 10.975 150.012 10.985C149.772 10.995 149.552 11 149.352 11C149.322 11 149.307 10.97 149.307 10.91C149.307 10.85 149.322 10.82 149.352 10.82C149.762 10.82 150.022 10.755 150.132 10.625C150.252 10.495 150.312 10.215 150.312 9.785V6.425C150.312 5.985 150.252 5.705 150.132 5.585C150.022 5.455 149.767 5.39 149.367 5.39C149.337 5.39 149.322 5.36 149.322 5.3C149.322 5.24 149.337 5.21 149.367 5.21C149.557 5.21 149.772 5.215 150.012 5.225C150.252 5.225 150.497 5.225 150.747 5.225ZM158.885 11.195C158.295 11.195 157.78 11.05 157.34 10.76C156.9 10.47 156.56 10.085 156.32 9.605C156.08 9.115 155.96 8.59 155.96 8.03C155.96 7.51 156.055 7.06 156.245 6.68C156.435 6.3 156.69 5.99 157.01 5.75C157.33 5.5 157.675 5.315 158.045 5.195C158.425 5.075 158.795 5.015 159.155 5.015C159.765 5.015 160.285 5.165 160.715 5.465C161.155 5.765 161.49 6.15 161.72 6.62C161.95 7.09 162.065 7.585 162.065 8.105C162.065 8.745 161.92 9.295 161.63 9.755C161.34 10.215 160.955 10.57 160.475 10.82C159.995 11.07 159.465 11.195 158.885 11.195ZM159.32 10.91C159.85 10.91 160.27 10.725 160.58 10.355C160.89 9.975 161.045 9.365 161.045 8.525C161.045 7.895 160.94 7.34 160.73 6.86C160.53 6.37 160.25 5.99 159.89 5.72C159.53 5.44 159.12 5.3 158.66 5.3C158.13 5.3 157.715 5.495 157.415 5.885C157.115 6.275 156.965 6.835 156.965 7.565C156.965 8.175 157.065 8.735 157.265 9.245C157.465 9.755 157.74 10.16 158.09 10.46C158.45 10.76 158.86 10.91 159.32 10.91ZM164.473 5.225C164.733 5.225 165.003 5.22 165.283 5.21C165.573 5.19 165.858 5.18 166.138 5.18C166.718 5.18 167.163 5.275 167.473 5.465C167.793 5.655 167.953 5.94 167.953 6.32C167.953 6.86 167.548 7.4 166.738 7.94L166.543 7.85C166.693 7.71 166.808 7.55 166.888 7.37C166.968 7.18 167.008 6.945 167.008 6.665C167.008 6.215 166.898 5.89 166.678 5.69C166.468 5.49 166.158 5.39 165.748 5.39C165.408 5.39 165.178 5.455 165.058 5.585C164.938 5.705 164.878 5.995 164.878 6.455V9.785C164.878 10.135 164.953 10.39 165.103 10.55C165.263 10.71 165.588 10.79 166.078 10.79C166.608 10.79 166.993 10.68 167.233 10.46C167.483 10.24 167.608 9.925 167.608 9.515C167.608 9.075 167.478 8.72 167.218 8.45C166.958 8.17 166.523 8.03 165.913 8.03H164.533L164.518 7.79H166.438C167.868 7.79 168.583 8.25 168.583 9.17C168.583 9.71 168.373 10.155 167.953 10.505C167.533 10.855 166.998 11.03 166.348 11.03C166.108 11.03 165.803 11.02 165.433 11C165.073 10.98 164.753 10.97 164.473 10.97C164.223 10.97 163.978 10.975 163.738 10.985C163.498 10.995 163.278 11 163.078 11C163.048 11 163.033 10.97 163.033 10.91C163.033 10.85 163.048 10.82 163.078 10.82C163.488 10.82 163.748 10.755 163.858 10.625C163.978 10.495 164.038 10.215 164.038 9.785V6.425C164.038 5.985 163.978 5.705 163.858 5.585C163.748 5.455 163.493 5.39 163.093 5.39C163.063 5.39 163.048 5.36 163.048 5.3C163.048 5.24 163.063 5.21 163.093 5.21C163.283 5.21 163.498 5.215 163.738 5.225C163.978 5.225 164.223 5.225 164.473 5.225ZM173.856 11.09C173.816 11.11 173.776 11.12 173.736 11.12C173.606 11.12 173.481 11.015 173.361 10.805C173.241 10.585 173.181 10.27 173.181 9.86V7.175C173.181 6.705 173.136 6.34 173.046 6.08C172.966 5.82 172.851 5.64 172.701 5.54C172.561 5.44 172.401 5.39 172.221 5.39C171.971 5.39 171.766 5.455 171.606 5.585C171.446 5.705 171.326 5.86 171.246 6.05C171.166 6.24 171.111 6.43 171.081 6.62C171.071 6.76 171.026 6.89 170.946 7.01C170.876 7.13 170.736 7.19 170.526 7.19C170.366 7.19 170.241 7.15 170.151 7.07C170.061 6.99 170.016 6.88 170.016 6.74C170.016 6.56 170.106 6.375 170.286 6.185C170.466 5.985 170.691 5.805 170.961 5.645C171.241 5.475 171.531 5.34 171.831 5.24C172.141 5.13 172.431 5.075 172.701 5.075C173.081 5.075 173.396 5.21 173.646 5.48C173.896 5.74 174.021 6.155 174.021 6.725V9.38C174.021 9.73 174.066 9.985 174.156 10.145C174.246 10.305 174.391 10.385 174.591 10.385C174.771 10.385 175.021 10.32 175.341 10.19C175.391 10.17 175.426 10.19 175.446 10.25C175.466 10.3 175.451 10.335 175.401 10.355L173.856 11.09ZM170.916 11.105C170.596 11.105 170.356 11.02 170.196 10.85C170.036 10.67 169.956 10.465 169.956 10.235C169.956 9.955 170.066 9.735 170.286 9.575C170.506 9.405 170.866 9.235 171.366 9.065L173.331 8.36L173.376 8.525L171.636 9.185C171.406 9.275 171.241 9.375 171.141 9.485C171.051 9.595 171.006 9.735 171.006 9.905C171.006 10.115 171.066 10.28 171.186 10.4C171.306 10.51 171.461 10.565 171.651 10.565C171.761 10.565 171.866 10.555 171.966 10.535C172.066 10.505 172.166 10.465 172.266 10.415L173.541 9.77L173.571 9.95L172.266 10.655C171.966 10.805 171.716 10.92 171.516 11C171.316 11.07 171.116 11.105 170.916 11.105ZM177.215 11C177.195 11 177.185 10.97 177.185 10.91C177.185 10.85 177.195 10.82 177.215 10.82C177.625 10.82 177.89 10.755 178.01 10.625C178.13 10.495 178.19 10.215 178.19 9.785V6.455C178.19 6.045 178.145 5.775 178.055 5.645C177.965 5.505 177.76 5.435 177.44 5.435C177.06 5.435 176.755 5.555 176.525 5.795C176.295 6.025 176.16 6.485 176.12 7.175C176.12 7.195 176.09 7.205 176.03 7.205C175.97 7.205 175.94 7.195 175.94 7.175C175.94 7.035 175.94 6.825 175.94 6.545C175.94 6.255 175.935 5.96 175.925 5.66C175.925 5.36 175.925 5.115 175.925 4.925C175.925 4.875 175.955 4.85 176.015 4.85C176.075 4.85 176.105 4.875 176.105 4.925C176.105 5.065 176.335 5.15 176.795 5.18C177.255 5.21 177.86 5.225 178.61 5.225C179.1 5.225 179.53 5.22 179.9 5.21C180.28 5.2 180.575 5.175 180.785 5.135C180.995 5.085 181.1 5.015 181.1 4.925C181.1 4.875 181.13 4.85 181.19 4.85C181.25 4.85 181.28 4.875 181.28 4.925C181.28 5.115 181.28 5.36 181.28 5.66C181.28 5.96 181.275 6.255 181.265 6.545C181.265 6.825 181.265 7.035 181.265 7.175C181.265 7.195 181.235 7.205 181.175 7.205C181.115 7.205 181.085 7.195 181.085 7.175C181.045 6.485 180.9 6.025 180.65 5.795C180.41 5.555 180.105 5.435 179.735 5.435C179.425 5.435 179.23 5.505 179.15 5.645C179.07 5.775 179.03 6.045 179.03 6.455V9.785C179.03 10.215 179.085 10.495 179.195 10.625C179.305 10.755 179.565 10.82 179.975 10.82C180.005 10.82 180.02 10.85 180.02 10.91C180.02 10.97 180.005 11 179.975 11C179.785 11 179.57 10.995 179.33 10.985C179.1 10.975 178.86 10.97 178.61 10.97C178.37 10.97 178.125 10.975 177.875 10.985C177.635 10.995 177.415 11 177.215 11ZM184.052 6.455V9.785C184.052 10.145 184.127 10.405 184.277 10.565C184.437 10.725 184.757 10.805 185.237 10.805C185.717 10.805 186.067 10.695 186.287 10.475C186.517 10.245 186.632 9.92 186.632 9.5C186.632 9.02 186.512 8.63 186.272 8.33C186.032 8.02 185.632 7.865 185.072 7.865C184.852 7.865 184.637 7.885 184.427 7.925C184.227 7.965 184.012 8.04 183.782 8.15L183.692 7.955C184.012 7.815 184.332 7.72 184.652 7.67C184.982 7.62 185.297 7.595 185.597 7.595C186.917 7.595 187.577 8.115 187.577 9.155C187.577 9.705 187.382 10.155 186.992 10.505C186.602 10.855 186.112 11.03 185.522 11.03C185.362 11.03 185.172 11.025 184.952 11.015C184.732 11.005 184.507 10.995 184.277 10.985C184.047 10.975 183.837 10.97 183.647 10.97C183.397 10.97 183.152 10.975 182.912 10.985C182.672 10.995 182.452 11 182.252 11C182.222 11 182.207 10.97 182.207 10.91C182.207 10.85 182.222 10.82 182.252 10.82C182.662 10.82 182.922 10.755 183.032 10.625C183.152 10.495 183.212 10.215 183.212 9.785V6.425C183.212 5.985 183.152 5.705 183.032 5.585C182.922 5.455 182.667 5.39 182.267 5.39C182.237 5.39 182.222 5.36 182.222 5.3C182.222 5.24 182.237 5.21 182.267 5.21C182.457 5.21 182.672 5.215 182.912 5.225C183.152 5.235 183.397 5.24 183.647 5.24C183.927 5.24 184.197 5.235 184.457 5.225C184.727 5.215 184.967 5.21 185.177 5.21C185.207 5.21 185.222 5.24 185.222 5.3C185.222 5.36 185.207 5.39 185.177 5.39C184.697 5.39 184.387 5.46 184.247 5.6C184.117 5.74 184.052 6.025 184.052 6.455ZM193.27 8.255V7.955H197.305V8.255H193.27ZM192.88 9.785V6.425C192.88 5.985 192.82 5.705 192.7 5.585C192.59 5.455 192.335 5.39 191.935 5.39C191.905 5.39 191.89 5.36 191.89 5.3C191.89 5.24 191.905 5.21 191.935 5.21C192.125 5.21 192.34 5.215 192.58 5.225C192.82 5.235 193.065 5.24 193.315 5.24C193.555 5.24 193.795 5.235 194.035 5.225C194.275 5.215 194.49 5.21 194.68 5.21C194.7 5.21 194.71 5.24 194.71 5.3C194.71 5.36 194.7 5.39 194.68 5.39C194.26 5.39 193.995 5.46 193.885 5.6C193.775 5.74 193.72 6.025 193.72 6.455V9.785C193.72 10.215 193.775 10.495 193.885 10.625C193.995 10.755 194.26 10.82 194.68 10.82C194.7 10.82 194.71 10.85 194.71 10.91C194.71 10.97 194.7 11 194.68 11C194.48 11 194.26 10.995 194.02 10.985C193.79 10.975 193.555 10.97 193.315 10.97C193.065 10.97 192.82 10.975 192.58 10.985C192.34 10.995 192.12 11 191.92 11C191.89 11 191.875 10.97 191.875 10.91C191.875 10.85 191.89 10.82 191.92 10.82C192.33 10.82 192.59 10.755 192.7 10.625C192.82 10.495 192.88 10.215 192.88 9.785ZM196.915 9.785V6.425C196.915 5.985 196.855 5.705 196.735 5.585C196.625 5.455 196.37 5.39 195.97 5.39C195.94 5.39 195.925 5.36 195.925 5.3C195.925 5.24 195.94 5.21 195.97 5.21C196.16 5.21 196.375 5.215 196.615 5.225C196.855 5.235 197.1 5.24 197.35 5.24C197.59 5.24 197.83 5.235 198.07 5.225C198.31 5.215 198.525 5.21 198.715 5.21C198.735 5.21 198.745 5.24 198.745 5.3C198.745 5.36 198.735 5.39 198.715 5.39C198.295 5.39 198.03 5.46 197.92 5.6C197.81 5.74 197.755 6.025 197.755 6.455V9.785C197.755 10.215 197.81 10.495 197.92 10.625C198.03 10.755 198.295 10.82 198.715 10.82C198.735 10.82 198.745 10.85 198.745 10.91C198.745 10.97 198.735 11 198.715 11C198.515 11 198.295 10.995 198.055 10.985C197.825 10.975 197.59 10.97 197.35 10.97C197.1 10.97 196.85 10.975 196.6 10.985C196.36 10.995 196.145 11 195.955 11C195.925 11 195.91 10.97 195.91 10.91C195.91 10.85 195.925 10.82 195.955 10.82C196.365 10.82 196.625 10.755 196.735 10.625C196.855 10.495 196.915 10.215 196.915 9.785ZM203.885 11.09C203.845 11.11 203.805 11.12 203.765 11.12C203.635 11.12 203.51 11.015 203.39 10.805C203.27 10.585 203.21 10.27 203.21 9.86V7.175C203.21 6.705 203.165 6.34 203.075 6.08C202.995 5.82 202.88 5.64 202.73 5.54C202.59 5.44 202.43 5.39 202.25 5.39C202 5.39 201.795 5.455 201.635 5.585C201.475 5.705 201.355 5.86 201.275 6.05C201.195 6.24 201.14 6.43 201.11 6.62C201.1 6.76 201.055 6.89 200.975 7.01C200.905 7.13 200.765 7.19 200.555 7.19C200.395 7.19 200.27 7.15 200.18 7.07C200.09 6.99 200.045 6.88 200.045 6.74C200.045 6.56 200.135 6.375 200.315 6.185C200.495 5.985 200.72 5.805 200.99 5.645C201.27 5.475 201.56 5.34 201.86 5.24C202.17 5.13 202.46 5.075 202.73 5.075C203.11 5.075 203.425 5.21 203.675 5.48C203.925 5.74 204.05 6.155 204.05 6.725V9.38C204.05 9.73 204.095 9.985 204.185 10.145C204.275 10.305 204.42 10.385 204.62 10.385C204.8 10.385 205.05 10.32 205.37 10.19C205.42 10.17 205.455 10.19 205.475 10.25C205.495 10.3 205.48 10.335 205.43 10.355L203.885 11.09ZM200.945 11.105C200.625 11.105 200.385 11.02 200.225 10.85C200.065 10.67 199.985 10.465 199.985 10.235C199.985 9.955 200.095 9.735 200.315 9.575C200.535 9.405 200.895 9.235 201.395 9.065L203.36 8.36L203.405 8.525L201.665 9.185C201.435 9.275 201.27 9.375 201.17 9.485C201.08 9.595 201.035 9.735 201.035 9.905C201.035 10.115 201.095 10.28 201.215 10.4C201.335 10.51 201.49 10.565 201.68 10.565C201.79 10.565 201.895 10.555 201.995 10.535C202.095 10.505 202.195 10.465 202.295 10.415L203.57 9.77L203.6 9.95L202.295 10.655C201.995 10.805 201.745 10.92 201.545 11C201.345 11.07 201.145 11.105 200.945 11.105ZM212.44 11.18C211.76 11.18 211.205 11.035 210.775 10.745C210.345 10.445 210.025 10.07 209.815 9.62C209.615 9.16 209.515 8.695 209.515 8.225C209.515 7.725 209.61 7.28 209.8 6.89C210 6.5 210.26 6.17 210.58 5.9C210.9 5.63 211.255 5.425 211.645 5.285C212.035 5.145 212.415 5.075 212.785 5.075C213.075 5.075 213.35 5.115 213.61 5.195C213.88 5.265 214.1 5.37 214.27 5.51C214.45 5.65 214.54 5.81 214.54 5.99C214.54 6.12 214.495 6.235 214.405 6.335C214.315 6.425 214.185 6.47 214.015 6.47C213.855 6.47 213.72 6.42 213.61 6.32C213.51 6.22 213.425 6.105 213.355 5.975C213.245 5.795 213.115 5.65 212.965 5.54C212.815 5.43 212.59 5.375 212.29 5.375C211.72 5.375 211.28 5.6 210.97 6.05C210.66 6.49 210.505 7.065 210.505 7.775C210.505 8.285 210.59 8.76 210.76 9.2C210.94 9.64 211.215 9.995 211.585 10.265C211.955 10.525 212.435 10.655 213.025 10.655C213.295 10.655 213.56 10.62 213.82 10.55C214.08 10.48 214.325 10.35 214.555 10.16C214.575 10.14 214.6 10.15 214.63 10.19C214.67 10.23 214.68 10.26 214.66 10.28C214.31 10.59 213.96 10.82 213.61 10.97C213.26 11.11 212.87 11.18 212.44 11.18ZM217.017 5.225C217.277 5.225 217.547 5.22 217.827 5.21C218.117 5.19 218.402 5.18 218.682 5.18C219.262 5.18 219.707 5.275 220.017 5.465C220.337 5.655 220.497 5.94 220.497 6.32C220.497 6.86 220.092 7.4 219.282 7.94L219.087 7.85C219.237 7.71 219.352 7.55 219.432 7.37C219.512 7.18 219.552 6.945 219.552 6.665C219.552 6.215 219.442 5.89 219.222 5.69C219.012 5.49 218.702 5.39 218.292 5.39C217.952 5.39 217.722 5.455 217.602 5.585C217.482 5.705 217.422 5.995 217.422 6.455V9.785C217.422 10.135 217.497 10.39 217.647 10.55C217.807 10.71 218.132 10.79 218.622 10.79C219.152 10.79 219.537 10.68 219.777 10.46C220.027 10.24 220.152 9.925 220.152 9.515C220.152 9.075 220.022 8.72 219.762 8.45C219.502 8.17 219.067 8.03 218.457 8.03H217.077L217.062 7.79H218.982C220.412 7.79 221.127 8.25 221.127 9.17C221.127 9.71 220.917 10.155 220.497 10.505C220.077 10.855 219.542 11.03 218.892 11.03C218.652 11.03 218.347 11.02 217.977 11C217.617 10.98 217.297 10.97 217.017 10.97C216.767 10.97 216.522 10.975 216.282 10.985C216.042 10.995 215.822 11 215.622 11C215.592 11 215.577 10.97 215.577 10.91C215.577 10.85 215.592 10.82 215.622 10.82C216.032 10.82 216.292 10.755 216.402 10.625C216.522 10.495 216.582 10.215 216.582 9.785V6.425C216.582 5.985 216.522 5.705 216.402 5.585C216.292 5.455 216.037 5.39 215.637 5.39C215.607 5.39 215.592 5.36 215.592 5.3C215.592 5.24 215.607 5.21 215.637 5.21C215.827 5.21 216.042 5.215 216.282 5.225C216.522 5.225 216.767 5.225 217.017 5.225ZM226.399 11.09C226.359 11.11 226.319 11.12 226.279 11.12C226.149 11.12 226.024 11.015 225.904 10.805C225.784 10.585 225.724 10.27 225.724 9.86V7.175C225.724 6.705 225.679 6.34 225.589 6.08C225.509 5.82 225.394 5.64 225.244 5.54C225.104 5.44 224.944 5.39 224.764 5.39C224.514 5.39 224.309 5.455 224.149 5.585C223.989 5.705 223.869 5.86 223.789 6.05C223.709 6.24 223.654 6.43 223.624 6.62C223.614 6.76 223.569 6.89 223.489 7.01C223.419 7.13 223.279 7.19 223.069 7.19C222.909 7.19 222.784 7.15 222.694 7.07C222.604 6.99 222.559 6.88 222.559 6.74C222.559 6.56 222.649 6.375 222.829 6.185C223.009 5.985 223.234 5.805 223.504 5.645C223.784 5.475 224.074 5.34 224.374 5.24C224.684 5.13 224.974 5.075 225.244 5.075C225.624 5.075 225.939 5.21 226.189 5.48C226.439 5.74 226.564 6.155 226.564 6.725V9.38C226.564 9.73 226.609 9.985 226.699 10.145C226.789 10.305 226.934 10.385 227.134 10.385C227.314 10.385 227.564 10.32 227.884 10.19C227.934 10.17 227.969 10.19 227.989 10.25C228.009 10.3 227.994 10.335 227.944 10.355L226.399 11.09ZM223.459 11.105C223.139 11.105 222.899 11.02 222.739 10.85C222.579 10.67 222.499 10.465 222.499 10.235C222.499 9.955 222.609 9.735 222.829 9.575C223.049 9.405 223.409 9.235 223.909 9.065L225.874 8.36L225.919 8.525L224.179 9.185C223.949 9.275 223.784 9.375 223.684 9.485C223.594 9.595 223.549 9.735 223.549 9.905C223.549 10.115 223.609 10.28 223.729 10.4C223.849 10.51 224.004 10.565 224.194 10.565C224.304 10.565 224.409 10.555 224.509 10.535C224.609 10.505 224.709 10.465 224.809 10.415L226.084 9.77L226.114 9.95L224.809 10.655C224.509 10.805 224.259 10.92 224.059 11C223.859 11.07 223.659 11.105 223.459 11.105ZM228.334 12.965C228.334 12.525 228.324 12.17 228.304 11.9C228.294 11.64 228.279 11.43 228.259 11.27C228.249 11.11 228.244 10.975 228.244 10.865C228.244 10.775 228.274 10.72 228.334 10.7C228.404 10.67 228.469 10.655 228.529 10.655C228.999 10.655 229.404 10.33 229.744 9.68C230.094 9.03 230.384 8.04 230.614 6.71C230.674 6.34 230.679 6.055 230.629 5.855C230.579 5.655 230.469 5.52 230.299 5.45C230.129 5.38 229.904 5.345 229.624 5.345C229.604 5.345 229.594 5.32 229.594 5.27C229.594 5.21 229.604 5.18 229.624 5.18C229.734 5.18 229.899 5.185 230.119 5.195C230.339 5.195 230.569 5.195 230.809 5.195C231.049 5.195 231.269 5.2 231.469 5.21C231.679 5.21 231.819 5.21 231.889 5.21H234.694C234.714 5.21 234.724 5.24 234.724 5.3C234.724 5.36 234.714 5.39 234.694 5.39C234.384 5.39 234.149 5.42 233.989 5.48C233.839 5.54 233.739 5.645 233.689 5.795C233.639 5.945 233.614 6.165 233.614 6.455V9.785C233.614 10.085 233.639 10.295 233.689 10.415C233.749 10.535 233.849 10.61 233.989 10.64C234.139 10.67 234.344 10.685 234.604 10.685C234.684 10.685 234.729 10.695 234.739 10.715C234.749 10.725 234.754 10.775 234.754 10.865C234.754 10.965 234.744 11.095 234.724 11.255C234.714 11.425 234.699 11.645 234.679 11.915C234.669 12.185 234.664 12.535 234.664 12.965C234.664 13.005 234.634 13.025 234.574 13.025C234.524 13.025 234.499 13.005 234.499 12.965C234.499 12.295 234.409 11.8 234.229 11.48C234.049 11.16 233.724 11 233.254 11H229.924C229.474 11 229.124 11.16 228.874 11.48C228.624 11.8 228.499 12.295 228.499 12.965C228.499 13.005 228.469 13.025 228.409 13.025C228.359 13.025 228.334 13.005 228.334 12.965ZM228.934 10.97L228.994 10.67H231.259C231.729 10.67 232.069 10.66 232.279 10.64C232.489 10.61 232.619 10.535 232.669 10.415C232.729 10.285 232.759 10.075 232.759 9.785V6.425C232.759 6.115 232.749 5.9 232.729 5.78C232.719 5.65 232.659 5.57 232.549 5.54C232.449 5.51 232.269 5.495 232.009 5.495H231.829C231.649 5.495 231.504 5.525 231.394 5.585C231.284 5.635 231.199 5.73 231.139 5.87C231.089 6 231.044 6.18 231.004 6.41C230.864 7.18 230.724 7.83 230.584 8.36C230.444 8.89 230.294 9.325 230.134 9.665C229.984 10.005 229.809 10.28 229.609 10.49C229.419 10.69 229.194 10.85 228.934 10.97ZM237.49 6.455V9.785C237.49 10.145 237.565 10.405 237.715 10.565C237.875 10.725 238.195 10.805 238.675 10.805C239.155 10.805 239.505 10.695 239.725 10.475C239.955 10.245 240.07 9.92 240.07 9.5C240.07 9.02 239.95 8.63 239.71 8.33C239.47 8.02 239.07 7.865 238.51 7.865C238.29 7.865 238.075 7.885 237.865 7.925C237.665 7.965 237.45 8.04 237.22 8.15L237.13 7.955C237.45 7.815 237.77 7.72 238.09 7.67C238.42 7.62 238.735 7.595 239.035 7.595C240.355 7.595 241.015 8.115 241.015 9.155C241.015 9.705 240.82 10.155 240.43 10.505C240.04 10.855 239.55 11.03 238.96 11.03C238.8 11.03 238.61 11.025 238.39 11.015C238.17 11.005 237.945 10.995 237.715 10.985C237.485 10.975 237.275 10.97 237.085 10.97C236.835 10.97 236.59 10.975 236.35 10.985C236.11 10.995 235.89 11 235.69 11C235.66 11 235.645 10.97 235.645 10.91C235.645 10.85 235.66 10.82 235.69 10.82C236.1 10.82 236.36 10.755 236.47 10.625C236.59 10.495 236.65 10.215 236.65 9.785V6.425C236.65 5.985 236.59 5.705 236.47 5.585C236.36 5.455 236.105 5.39 235.705 5.39C235.675 5.39 235.66 5.36 235.66 5.3C235.66 5.24 235.675 5.21 235.705 5.21C235.895 5.21 236.11 5.215 236.35 5.225C236.59 5.235 236.835 5.24 237.085 5.24C237.365 5.24 237.635 5.235 237.895 5.225C238.165 5.215 238.405 5.21 238.615 5.21C238.645 5.21 238.66 5.24 238.66 5.3C238.66 5.36 238.645 5.39 238.615 5.39C238.135 5.39 237.825 5.46 237.685 5.6C237.555 5.74 237.49 6.025 237.49 6.455ZM244.707 11.195C244.247 11.195 243.802 11.075 243.372 10.835C242.952 10.585 242.607 10.195 242.337 9.665C242.077 9.125 241.947 8.425 241.947 7.565C241.947 6.305 242.082 5.285 242.352 4.505C242.632 3.725 243.017 3.115 243.507 2.675C244.007 2.225 244.592 1.87 245.262 1.61C245.542 1.5 245.812 1.39 246.072 1.28C246.342 1.17 246.592 1.03 246.822 0.859999C247.052 0.68 247.232 0.435 247.362 0.125C247.382 0.0849996 247.417 0.0749994 247.467 0.0949991C247.517 0.105 247.532 0.125 247.512 0.154999C247.442 0.574999 247.337 0.914999 247.197 1.175C247.067 1.425 246.907 1.63 246.717 1.79C246.527 1.94 246.307 2.07 246.057 2.18C245.807 2.29 245.532 2.405 245.232 2.525C244.752 2.715 244.322 2.95 243.942 3.23C243.572 3.51 243.257 3.87 242.997 4.31C242.737 4.75 242.537 5.295 242.397 5.945C242.257 6.585 242.187 7.36 242.187 8.27L242.067 7.58C242.197 7.03 242.392 6.595 242.652 6.275C242.912 5.955 243.197 5.72 243.507 5.57C243.817 5.41 244.107 5.31 244.377 5.27C244.647 5.22 244.842 5.195 244.962 5.195C245.522 5.195 245.987 5.285 246.357 5.465C246.737 5.635 247.037 5.865 247.257 6.155C247.487 6.445 247.652 6.76 247.752 7.1C247.852 7.43 247.902 7.755 247.902 8.075C247.902 8.725 247.752 9.285 247.452 9.755C247.162 10.215 246.772 10.57 246.282 10.82C245.802 11.07 245.277 11.195 244.707 11.195ZM245.157 10.91C245.677 10.91 246.097 10.725 246.417 10.355C246.747 9.975 246.912 9.355 246.912 8.495C246.912 7.895 246.822 7.37 246.642 6.92C246.462 6.46 246.212 6.1 245.892 5.84C245.572 5.58 245.202 5.45 244.782 5.45C244.382 5.45 244.052 5.57 243.792 5.81C243.532 6.05 243.337 6.36 243.207 6.74C243.077 7.11 243.012 7.505 243.012 7.925C243.012 8.475 243.092 8.98 243.252 9.44C243.412 9.89 243.652 10.25 243.972 10.52C244.292 10.78 244.687 10.91 245.157 10.91ZM251.798 11.18C251.178 11.18 250.658 11.045 250.238 10.775C249.818 10.495 249.503 10.135 249.293 9.695C249.083 9.255 248.978 8.79 248.978 8.3C248.978 7.69 249.118 7.145 249.398 6.665C249.688 6.175 250.073 5.79 250.553 5.51C251.043 5.22 251.593 5.075 252.203 5.075C252.753 5.075 253.173 5.21 253.463 5.48C253.763 5.74 253.913 6.1 253.913 6.56C253.913 6.67 253.903 6.755 253.883 6.815C253.863 6.875 253.813 6.905 253.733 6.905H252.863C252.903 6.415 252.813 6.04 252.593 5.78C252.383 5.51 252.083 5.375 251.693 5.375C251.133 5.375 250.703 5.585 250.403 6.005C250.113 6.425 249.968 6.995 249.968 7.715C249.968 8.285 250.058 8.79 250.238 9.23C250.428 9.67 250.698 10.02 251.048 10.28C251.408 10.53 251.833 10.655 252.323 10.655C252.583 10.655 252.848 10.615 253.118 10.535C253.388 10.455 253.643 10.33 253.883 10.16C253.903 10.14 253.928 10.155 253.958 10.205C253.998 10.245 254.008 10.28 253.988 10.31C253.628 10.62 253.268 10.845 252.908 10.985C252.548 11.115 252.178 11.18 251.798 11.18ZM249.698 6.935L249.683 6.74L253.103 6.665V6.905L249.698 6.935ZM256.946 1.82C256.676 1.82 256.501 1.895 256.421 2.045C256.351 2.195 256.306 2.355 256.286 2.525C256.276 2.625 256.251 2.73 256.211 2.84C256.171 2.94 256.111 3.025 256.031 3.095C255.961 3.155 255.856 3.185 255.716 3.185C255.546 3.185 255.416 3.13 255.326 3.02C255.246 2.91 255.206 2.795 255.206 2.675C255.206 2.385 255.381 2.14 255.731 1.94C256.081 1.73 256.501 1.625 256.991 1.625C257.361 1.625 257.701 1.69 258.011 1.82C258.321 1.95 258.566 2.15 258.746 2.42C258.926 2.68 259.016 3.015 259.016 3.425C259.016 3.745 258.956 4.025 258.836 4.265C258.726 4.495 258.581 4.705 258.401 4.895C258.231 5.075 258.056 5.25 257.876 5.42C257.536 5.76 257.291 6.07 257.141 6.35C257.001 6.62 256.931 6.93 256.931 7.28C256.931 7.4 256.936 7.525 256.946 7.655C256.966 7.785 256.991 7.935 257.021 8.105C257.031 8.135 257.006 8.155 256.946 8.165C256.886 8.175 256.851 8.165 256.841 8.135C256.721 7.855 256.626 7.54 256.556 7.19C256.486 6.84 256.451 6.56 256.451 6.35C256.451 6.06 256.501 5.82 256.601 5.63C256.711 5.43 256.841 5.255 256.991 5.105C257.151 4.945 257.306 4.785 257.456 4.625C257.616 4.465 257.746 4.275 257.846 4.055C257.956 3.835 258.011 3.565 258.011 3.245C258.011 2.815 257.911 2.47 257.711 2.21C257.511 1.95 257.256 1.82 256.946 1.82ZM256.766 11.165C256.566 11.165 256.406 11.11 256.286 11C256.166 10.88 256.106 10.72 256.106 10.52C256.106 10.33 256.166 10.18 256.286 10.07C256.406 9.95 256.566 9.89 256.766 9.89C256.976 9.89 257.136 9.95 257.246 10.07C257.356 10.18 257.411 10.33 257.411 10.52C257.411 10.72 257.356 10.88 257.246 11C257.136 11.11 256.976 11.165 256.766 11.165Z" fill="#282828"/>
</svg>
