<svg width="246" height="50" viewBox="0 0 246 50" fill="none" xmlns="http://www.w3.org/2000/svg">
<path d="M15.4058 19.712C15.5498 19.712 15.6298 19.728 15.6458 19.76C15.6778 19.776 15.6938 19.856 15.6938 20C15.6938 20.224 15.6698 20.464 15.6218 20.72C15.5898 20.992 15.5578 21.376 15.5258 21.872C15.4938 22.368 15.4778 23.072 15.4778 23.984C15.4778 24.048 15.4298 24.08 15.3338 24.08C15.2378 24.08 15.1898 24.048 15.1898 23.984C15.1898 22.624 14.8858 21.616 14.2778 20.96C13.6858 20.32 12.7018 20 11.3258 20H3.81384C3.18984 20 2.62984 20.112 2.13384 20.336C1.65384 20.576 1.27784 20.984 1.00584 21.56C0.733844 22.152 0.597844 22.96 0.597844 23.984C0.597844 24.048 0.549844 24.08 0.453844 24.08C0.357844 24.08 0.309844 24.048 0.309844 23.984C0.309844 23.312 0.293844 22.76 0.261844 22.328C0.245844 21.896 0.213844 21.544 0.165844 21.272C0.133844 21 0.101844 20.768 0.0698438 20.576C0.0538438 20.384 0.0458438 20.184 0.0458438 19.976C0.0458438 19.848 0.0538438 19.768 0.0698438 19.736C0.101844 19.704 0.173844 19.688 0.285844 19.688C0.973844 19.688 1.58184 19.464 2.10984 19.016C2.65384 18.552 3.13384 17.944 3.54984 17.192C3.98184 16.44 4.34984 15.608 4.65384 14.696C4.97384 13.784 5.22984 12.864 5.42184 11.936C5.61384 10.992 5.75784 10.112 5.85384 9.296C5.94984 8.464 5.99784 7.768 5.99784 7.208C5.99784 6.824 5.94984 6.488 5.85384 6.2C5.75784 5.912 5.53384 5.688 5.18184 5.528C4.84584 5.368 4.30184 5.288 3.54984 5.288C3.51784 5.288 3.50184 5.24 3.50184 5.144C3.50184 5.048 3.51784 5 3.54984 5C3.64584 5 3.90984 5 4.34184 5C4.78984 5 5.34984 5 6.02184 5C6.69384 5 7.41384 5 8.18184 5C8.96584 5 9.74184 5 10.5098 5C11.2778 5 11.9898 5 12.6458 5C13.3018 5 13.8378 5 14.2538 5C14.6698 5 14.9098 5 14.9738 5C15.0058 5 15.0218 5.048 15.0218 5.144C15.0218 5.24 15.0058 5.288 14.9738 5.288C14.3818 5.288 13.9338 5.336 13.6298 5.432C13.3258 5.512 13.1258 5.672 13.0298 5.912C12.9338 6.136 12.8858 6.48 12.8858 6.944V18.056C12.8858 18.456 12.8938 18.776 12.9098 19.016C12.9418 19.24 13.0298 19.4 13.1738 19.496C13.3178 19.592 13.5578 19.656 13.8938 19.688C14.2458 19.704 14.7498 19.712 15.4058 19.712ZM11.3258 18.008V6.992C11.3258 6.496 11.2938 6.152 11.2298 5.96C11.1818 5.752 11.0298 5.632 10.7738 5.6C10.5178 5.552 10.0778 5.528 9.45384 5.528H8.27784C7.81384 5.528 7.47784 5.6 7.26984 5.744C7.06184 5.888 6.92584 6.16 6.86184 6.56C6.79784 6.96 6.73384 7.552 6.66984 8.336C6.63784 8.624 6.58184 9.064 6.50184 9.656C6.42184 10.248 6.30184 10.92 6.14184 11.672C5.99784 12.424 5.81384 13.216 5.58984 14.048C5.36584 14.864 5.10184 15.656 4.79784 16.424C4.49384 17.192 4.14184 17.872 3.74184 18.464C3.34184 19.04 2.88584 19.48 2.37384 19.784V19.472H9.33384C9.98984 19.472 10.4538 19.448 10.7258 19.4C11.0138 19.352 11.1818 19.232 11.2298 19.04C11.2938 18.832 11.3258 18.488 11.3258 18.008ZM25.1082 20.288C23.9562 20.288 22.9082 20.088 21.9642 19.688C21.0362 19.272 20.2362 18.704 19.5642 17.984C18.9082 17.264 18.3962 16.44 18.0282 15.512C17.6762 14.568 17.5002 13.568 17.5002 12.512C17.5002 11.216 17.7482 10.08 18.2442 9.104C18.7562 8.128 19.4282 7.32 20.2602 6.68C21.0922 6.024 22.0042 5.536 22.9962 5.216C23.9882 4.896 24.9722 4.736 25.9482 4.736C27.1322 4.736 28.1882 4.952 29.1162 5.384C30.0602 5.8 30.8602 6.368 31.5162 7.088C32.1722 7.808 32.6682 8.624 33.0042 9.536C33.3562 10.448 33.5322 11.384 33.5322 12.344C33.5322 13.464 33.3082 14.504 32.8602 15.464C32.4122 16.424 31.7962 17.264 31.0122 17.984C30.2442 18.704 29.3482 19.272 28.3242 19.688C27.3162 20.088 26.2442 20.288 25.1082 20.288ZM25.9482 19.784C27.0362 19.784 28.0122 19.528 28.8762 19.016C29.7402 18.488 30.4282 17.72 30.9402 16.712C31.4522 15.704 31.7082 14.472 31.7082 13.016C31.7082 11.512 31.4282 10.184 30.8682 9.032C30.3242 7.864 29.5402 6.952 28.5162 6.296C27.5082 5.624 26.3162 5.288 24.9402 5.288C23.1642 5.288 21.7802 5.864 20.7882 7.016C19.8122 8.152 19.3242 9.704 19.3242 11.672C19.3242 12.808 19.4762 13.872 19.7802 14.864C20.1002 15.84 20.5562 16.704 21.1482 17.456C21.7402 18.192 22.4442 18.768 23.2602 19.184C24.0762 19.584 24.9722 19.784 25.9482 19.784ZM54.0282 6.992C54.0282 6.528 53.9802 6.176 53.8842 5.936C53.7882 5.696 53.5882 5.528 53.2842 5.432C52.9962 5.336 52.5402 5.288 51.9162 5.288C51.8682 5.288 51.8442 5.24 51.8442 5.144C51.8442 5.048 51.8682 5 51.9162 5C52.3002 5 52.7322 5.016 53.2122 5.048C53.6922 5.064 54.2282 5.072 54.8202 5.072C55.3482 5.072 55.8602 5.064 56.3562 5.048C56.8522 5.016 57.2842 5 57.6522 5C57.7002 5 57.7242 5.048 57.7242 5.144C57.7242 5.24 57.7002 5.288 57.6522 5.288C57.0602 5.288 56.6122 5.336 56.3082 5.432C56.0042 5.512 55.8042 5.672 55.7082 5.912C55.6122 6.136 55.5642 6.48 55.5642 6.944V18.056C55.5642 18.52 55.6122 18.872 55.7082 19.112C55.8042 19.352 56.0042 19.512 56.3082 19.592C56.6122 19.672 57.0602 19.712 57.6522 19.712C57.7002 19.712 57.7242 19.76 57.7242 19.856C57.7242 19.952 57.7002 20 57.6522 20C57.2842 20 56.8522 19.992 56.3562 19.976C55.8602 19.96 55.3482 19.952 54.8202 19.952C54.2282 19.952 53.6922 19.96 53.2122 19.976C52.7322 19.992 52.3002 20 51.9162 20C51.8682 20 51.8442 19.952 51.8442 19.856C51.8442 19.76 51.8682 19.712 51.9162 19.712C52.5402 19.712 52.9962 19.672 53.2842 19.592C53.5882 19.512 53.7882 19.352 53.8842 19.112C53.9802 18.872 54.0282 18.52 54.0282 18.056V6.992ZM43.9722 12.44V11.936H54.7002V12.44H43.9722ZM43.2762 18.056V6.944C43.2762 6.48 43.2202 6.136 43.1082 5.912C43.0122 5.672 42.8122 5.512 42.5082 5.432C42.2202 5.336 41.7802 5.288 41.1882 5.288C41.1562 5.288 41.1402 5.24 41.1402 5.144C41.1402 5.048 41.1562 5 41.1882 5C41.5722 5 42.0042 5.016 42.4842 5.048C42.9802 5.064 43.4922 5.072 44.0202 5.072C44.6122 5.072 45.1482 5.064 45.6282 5.048C46.1082 5.016 46.5402 5 46.9242 5C46.9562 5 46.9722 5.048 46.9722 5.144C46.9722 5.24 46.9562 5.288 46.9242 5.288C46.3322 5.288 45.8842 5.336 45.5802 5.432C45.2762 5.528 45.0682 5.696 44.9562 5.936C44.8602 6.176 44.8122 6.528 44.8122 6.992V18.056C44.8122 18.52 44.8602 18.872 44.9562 19.112C45.0522 19.352 45.2522 19.512 45.5562 19.592C45.8762 19.672 46.3322 19.712 46.9242 19.712C46.9562 19.712 46.9722 19.76 46.9722 19.856C46.9722 19.952 46.9562 20 46.9242 20C46.5242 20 46.0842 19.992 45.6042 19.976C45.1402 19.96 44.6122 19.952 44.0202 19.952C43.4922 19.952 42.9802 19.96 42.4842 19.976C41.9882 19.992 41.5482 20 41.1642 20C41.1322 20 41.1162 19.952 41.1162 19.856C41.1162 19.76 41.1322 19.712 41.1642 19.712C41.7562 19.712 42.2042 19.672 42.5082 19.592C42.8122 19.512 43.0122 19.352 43.1082 19.112C43.2202 18.872 43.2762 18.52 43.2762 18.056ZM63.6472 12.056L64.0072 11.552H68.9512L69.1192 12.056H63.6472ZM75.3112 19.712C75.3752 19.712 75.4072 19.76 75.4072 19.856C75.4072 19.952 75.3752 20 75.3112 20C74.8472 20 74.3752 19.984 73.8952 19.952C73.4152 19.92 72.9512 19.904 72.5032 19.904C72.0072 19.904 71.5752 19.92 71.2072 19.952C70.8392 19.984 70.4312 20 69.9832 20C69.9192 20 69.8872 19.952 69.8872 19.856C69.8872 19.76 69.9192 19.712 69.9832 19.712C70.8312 19.712 71.3592 19.592 71.5672 19.352C71.7752 19.096 71.7192 18.624 71.3992 17.936L66.0712 6.68L66.6712 5.936L62.0152 16.952C61.6152 17.928 61.5912 18.632 61.9432 19.064C62.2952 19.496 62.9912 19.712 64.0312 19.712C64.1112 19.712 64.1512 19.76 64.1512 19.856C64.1512 19.952 64.1112 20 64.0312 20C63.5512 20 63.1112 19.984 62.7112 19.952C62.3112 19.92 61.8072 19.904 61.1992 19.904C60.6232 19.904 60.1592 19.92 59.8072 19.952C59.4712 19.984 59.0552 20 58.5592 20C58.4952 20 58.4632 19.952 58.4632 19.856C58.4632 19.76 58.4952 19.712 58.5592 19.712C58.9912 19.712 59.3672 19.632 59.6872 19.472C60.0072 19.296 60.3032 19 60.5752 18.584C60.8632 18.152 61.1752 17.536 61.5112 16.736L66.5752 4.784C66.6072 4.736 66.6632 4.712 66.7432 4.712C66.8232 4.712 66.8712 4.736 66.8872 4.784L72.5512 16.712C72.9192 17.496 73.2472 18.112 73.5352 18.56C73.8232 18.992 74.1032 19.296 74.3752 19.472C74.6632 19.632 74.9752 19.712 75.3112 19.712ZM76.2267 20C76.1947 20 76.1787 19.952 76.1787 19.856C76.1787 19.76 76.1947 19.712 76.2267 19.712C76.8187 19.712 77.2667 19.672 77.5707 19.592C77.8747 19.512 78.0747 19.352 78.1707 19.112C78.2827 18.872 78.3387 18.52 78.3387 18.056V6.944C78.3387 6.48 78.2827 6.136 78.1707 5.912C78.0747 5.672 77.8747 5.512 77.5707 5.432C77.2667 5.336 76.8187 5.288 76.2267 5.288C76.1947 5.288 76.1787 5.24 76.1787 5.144C76.1787 5.048 76.1947 5 76.2267 5C76.6107 5 77.0427 5.016 77.5227 5.048C78.0187 5.064 78.5307 5.072 79.0587 5.072C79.5867 5.072 80.0747 5.064 80.5227 5.048C80.9707 5.016 81.3707 5 81.7227 5C81.7707 5 81.7947 5.048 81.7947 5.144C81.7947 5.24 81.7707 5.288 81.7227 5.288C81.1947 5.288 80.7947 5.336 80.5227 5.432C80.2667 5.512 80.0907 5.672 79.9947 5.912C79.9147 6.136 79.8747 6.48 79.8747 6.944V18.008C79.8747 18.504 79.9067 18.856 79.9707 19.064C80.0347 19.272 80.1947 19.4 80.4507 19.448C80.7067 19.48 81.1387 19.496 81.7467 19.496H84.9627C85.6187 19.496 86.0827 19.472 86.3547 19.424C86.6267 19.376 86.7947 19.248 86.8587 19.04C86.9227 18.832 86.9547 18.488 86.9547 18.008V6.944C86.9547 6.48 86.9067 6.136 86.8107 5.912C86.7307 5.672 86.5547 5.512 86.2827 5.432C86.0267 5.336 85.6347 5.288 85.1067 5.288C85.0587 5.288 85.0347 5.24 85.0347 5.144C85.0347 5.048 85.0587 5 85.1067 5C85.3307 5 85.5867 5.008 85.8747 5.024C86.1787 5.04 86.4907 5.056 86.8107 5.072C87.1307 5.072 87.4427 5.072 87.7467 5.072C88.2267 5.072 88.6907 5.064 89.1387 5.048C89.6027 5.016 90.0187 5 90.3867 5C90.4187 5 90.4347 5.048 90.4347 5.144C90.4347 5.24 90.4187 5.288 90.3867 5.288C89.8587 5.288 89.4587 5.336 89.1867 5.432C88.9147 5.512 88.7307 5.672 88.6347 5.912C88.5387 6.136 88.4907 6.48 88.4907 6.944V18.056C88.4907 18.52 88.5547 18.856 88.6827 19.064C88.8267 19.256 89.0507 19.376 89.3547 19.424C89.6747 19.472 90.1147 19.496 90.6747 19.496H93.5787C94.2507 19.496 94.7227 19.472 94.9947 19.424C95.2667 19.376 95.4267 19.248 95.4747 19.04C95.5387 18.832 95.5707 18.488 95.5707 18.008V6.944C95.5707 6.48 95.5227 6.136 95.4267 5.912C95.3467 5.672 95.1707 5.512 94.8987 5.432C94.6427 5.336 94.2507 5.288 93.7227 5.288C93.6747 5.288 93.6507 5.24 93.6507 5.144C93.6507 5.048 93.6747 5 93.7227 5C94.0907 5 94.4907 5.016 94.9227 5.048C95.3707 5.064 95.8587 5.072 96.3867 5.072C96.9147 5.072 97.4187 5.064 97.8987 5.048C98.3947 5.016 98.8347 5 99.2187 5C99.2667 5 99.2907 5.048 99.2907 5.144C99.2907 5.24 99.2667 5.288 99.2187 5.288C98.6267 5.288 98.1787 5.336 97.8747 5.432C97.5707 5.512 97.3627 5.672 97.2507 5.912C97.1547 6.136 97.1067 6.48 97.1067 6.944V18.056C97.1067 18.52 97.1547 18.872 97.2507 19.112C97.3627 19.352 97.5707 19.512 97.8747 19.592C98.1787 19.672 98.6267 19.712 99.2187 19.712C99.2667 19.712 99.2907 19.76 99.2907 19.856C99.2907 19.952 99.2667 20 99.2187 20H76.2267ZM111.178 20H101.122C101.09 20 101.074 19.952 101.074 19.856C101.074 19.76 101.09 19.712 101.122 19.712C101.714 19.712 102.154 19.672 102.442 19.592C102.73 19.512 102.922 19.352 103.018 19.112C103.13 18.872 103.186 18.52 103.186 18.056V6.944C103.186 6.48 103.13 6.136 103.018 5.912C102.922 5.672 102.73 5.512 102.442 5.432C102.154 5.336 101.714 5.288 101.122 5.288C101.09 5.288 101.074 5.24 101.074 5.144C101.074 5.048 101.09 5 101.122 5H110.77C110.914 5 110.986 5.072 110.986 5.216L111.034 8.168C111.034 8.216 110.986 8.248 110.89 8.264C110.81 8.264 110.77 8.24 110.77 8.192C110.722 7.328 110.458 6.664 109.978 6.2C109.514 5.736 108.906 5.504 108.154 5.504H106.69C106.146 5.504 105.73 5.544 105.442 5.624C105.17 5.704 104.978 5.856 104.866 6.08C104.77 6.304 104.722 6.632 104.722 7.064V17.96C104.722 18.376 104.77 18.696 104.866 18.92C104.978 19.144 105.162 19.296 105.418 19.376C105.69 19.456 106.09 19.496 106.618 19.496H108.538C109.306 19.496 109.946 19.224 110.458 18.68C110.986 18.12 111.33 17.368 111.49 16.424C111.49 16.376 111.538 16.36 111.634 16.376C111.73 16.392 111.778 16.424 111.778 16.472C111.714 16.888 111.658 17.392 111.61 17.984C111.578 18.576 111.562 19.128 111.562 19.64C111.562 19.88 111.434 20 111.178 20ZM109.834 14.408C109.834 13.704 109.658 13.2 109.306 12.896C108.97 12.592 108.402 12.44 107.602 12.44H104.002V11.936H107.674C108.442 11.936 108.986 11.808 109.306 11.552C109.642 11.28 109.81 10.848 109.81 10.256C109.81 10.224 109.858 10.208 109.954 10.208C110.05 10.208 110.098 10.224 110.098 10.256C110.098 10.736 110.09 11.112 110.074 11.384C110.074 11.64 110.074 11.912 110.074 12.2C110.074 12.568 110.082 12.928 110.098 13.28C110.114 13.632 110.122 14.008 110.122 14.408C110.122 14.44 110.074 14.456 109.978 14.456C109.882 14.456 109.834 14.44 109.834 14.408ZM116.94 18.272L116.532 17.888L127.092 6.632L127.476 6.992L116.94 18.272ZM113.82 20C113.788 20 113.772 19.952 113.772 19.856C113.772 19.76 113.788 19.712 113.82 19.712C114.412 19.712 114.86 19.672 115.164 19.592C115.468 19.512 115.668 19.352 115.764 19.112C115.876 18.872 115.932 18.52 115.932 18.056V6.944C115.932 6.48 115.876 6.136 115.764 5.912C115.668 5.672 115.468 5.512 115.164 5.432C114.876 5.336 114.436 5.288 113.844 5.288C113.812 5.288 113.796 5.24 113.796 5.144C113.796 5.048 113.812 5 113.844 5C114.228 5 114.66 5.016 115.14 5.048C115.636 5.064 116.148 5.072 116.676 5.072C117.268 5.072 117.804 5.064 118.284 5.048C118.764 5.016 119.196 5 119.58 5C119.612 5 119.628 5.048 119.628 5.144C119.628 5.24 119.612 5.288 119.58 5.288C118.988 5.288 118.54 5.336 118.236 5.432C117.932 5.528 117.724 5.696 117.612 5.936C117.516 6.176 117.468 6.528 117.468 6.992V18.056C117.468 18.52 117.516 18.872 117.612 19.112C117.708 19.352 117.908 19.512 118.212 19.592C118.532 19.672 118.988 19.712 119.58 19.712C119.612 19.712 119.628 19.76 119.628 19.856C119.628 19.952 119.612 20 119.58 20C119.18 20 118.74 19.992 118.26 19.976C117.796 19.96 117.268 19.952 116.676 19.952C116.148 19.952 115.636 19.96 115.14 19.976C114.644 19.992 114.204 20 113.82 20ZM124.284 20C124.252 20 124.236 19.952 124.236 19.856C124.236 19.76 124.252 19.712 124.284 19.712C124.908 19.712 125.364 19.672 125.652 19.592C125.956 19.512 126.156 19.352 126.252 19.112C126.348 18.872 126.396 18.52 126.396 18.056V6.992C126.396 6.528 126.348 6.176 126.252 5.936C126.156 5.696 125.956 5.528 125.652 5.432C125.364 5.336 124.908 5.288 124.284 5.288C124.252 5.288 124.236 5.24 124.236 5.144C124.236 5.048 124.252 5 124.284 5C124.684 5 125.116 5.016 125.58 5.048C126.06 5.064 126.596 5.072 127.188 5.072C127.716 5.072 128.228 5.064 128.724 5.048C129.22 5.016 129.66 5 130.044 5C130.076 5 130.092 5.048 130.092 5.144C130.092 5.24 130.076 5.288 130.044 5.288C129.452 5.288 129.004 5.336 128.7 5.432C128.396 5.512 128.196 5.672 128.1 5.912C128.004 6.136 127.956 6.48 127.956 6.944V18.056C127.956 18.52 128.004 18.872 128.1 19.112C128.196 19.352 128.396 19.512 128.7 19.592C129.004 19.672 129.452 19.712 130.044 19.712C130.076 19.712 130.092 19.76 130.092 19.856C130.092 19.952 130.076 20 130.044 20C129.66 20 129.22 19.992 128.724 19.976C128.228 19.96 127.716 19.952 127.188 19.952C126.596 19.952 126.06 19.96 125.58 19.976C125.116 19.992 124.684 20 124.284 20ZM121.932 3.56C122.412 3.56 122.788 3.416 123.06 3.128C123.332 2.824 123.524 2.48 123.636 2.096C123.716 1.792 123.82 1.528 123.948 1.304C124.076 1.064 124.3 0.943999 124.62 0.943999C124.844 0.943999 125.012 1.016 125.124 1.16C125.236 1.288 125.292 1.464 125.292 1.688C125.292 2.072 125.132 2.432 124.812 2.768C124.492 3.088 124.076 3.352 123.564 3.56C123.068 3.752 122.532 3.848 121.956 3.848C121.38 3.848 120.836 3.744 120.324 3.536C119.812 3.328 119.404 3.056 119.1 2.72C118.796 2.384 118.644 2.032 118.644 1.664C118.644 1.44 118.7 1.264 118.812 1.136C118.924 1.008 119.092 0.943999 119.316 0.943999C119.668 0.943999 119.9 1.064 120.012 1.304C120.124 1.528 120.22 1.792 120.3 2.096C120.412 2.448 120.588 2.784 120.828 3.104C121.084 3.408 121.452 3.56 121.932 3.56ZM146.495 4.736C147.231 4.736 147.991 4.808 148.775 4.952C149.575 5.096 150.215 5.304 150.695 5.576C150.839 5.656 150.927 5.728 150.959 5.792C151.007 5.856 151.039 5.976 151.055 6.152L151.319 8.84C151.319 8.872 151.279 8.904 151.199 8.936C151.119 8.952 151.071 8.928 151.055 8.864C150.687 7.568 150.015 6.648 149.039 6.104C148.063 5.544 146.903 5.264 145.559 5.264C144.327 5.264 143.255 5.536 142.343 6.08C141.447 6.608 140.751 7.36 140.255 8.336C139.759 9.296 139.511 10.424 139.511 11.72C139.511 12.856 139.687 13.928 140.039 14.936C140.391 15.928 140.879 16.8 141.503 17.552C142.143 18.304 142.871 18.896 143.687 19.328C144.519 19.744 145.399 19.952 146.327 19.952C147.447 19.952 148.431 19.648 149.279 19.04C150.143 18.416 150.807 17.432 151.271 16.088C151.287 16.024 151.335 16.008 151.415 16.04C151.511 16.056 151.559 16.08 151.559 16.112L151.223 18.824C151.191 19.016 151.151 19.144 151.103 19.208C151.071 19.256 150.983 19.312 150.839 19.376C150.071 19.696 149.311 19.928 148.559 20.072C147.807 20.216 147.047 20.288 146.279 20.288C144.759 20.288 143.455 20.056 142.367 19.592C141.279 19.112 140.391 18.488 139.703 17.72C139.015 16.936 138.511 16.08 138.191 15.152C137.871 14.208 137.711 13.28 137.711 12.368C137.711 11.216 137.951 10.176 138.431 9.248C138.911 8.32 139.567 7.52 140.399 6.848C141.231 6.176 142.167 5.656 143.207 5.288C144.263 4.92 145.359 4.736 146.495 4.736ZM159.79 11.792L160.054 11.528C160.998 11.528 161.822 11.704 162.526 12.056C163.246 12.408 163.798 12.888 164.182 13.496C164.582 14.104 164.782 14.8 164.782 15.584C164.782 16.432 164.574 17.2 164.158 17.888C163.742 18.576 163.166 19.12 162.43 19.52C161.71 19.904 160.902 20.096 160.006 20.096C159.494 20.096 158.91 20.072 158.254 20.024C157.614 19.976 157.022 19.952 156.478 19.952C155.95 19.952 155.438 19.96 154.942 19.976C154.462 19.992 154.022 20 153.622 20C153.59 20 153.574 19.952 153.574 19.856C153.574 19.76 153.59 19.712 153.622 19.712C154.198 19.712 154.638 19.672 154.942 19.592C155.246 19.512 155.454 19.352 155.566 19.112C155.678 18.872 155.734 18.52 155.734 18.056V6.944C155.734 6.48 155.678 6.136 155.566 5.912C155.47 5.672 155.27 5.512 154.966 5.432C154.678 5.336 154.246 5.288 153.67 5.288C153.622 5.288 153.598 5.24 153.598 5.144C153.598 5.048 153.622 5 153.67 5C154.054 5 154.486 5.016 154.966 5.048C155.446 5.064 155.95 5.072 156.478 5.072C156.894 5.072 157.374 5.048 157.918 5C158.462 4.952 158.926 4.928 159.31 4.928C160.254 4.928 161.022 5.072 161.614 5.36C162.206 5.632 162.638 6.008 162.91 6.488C163.198 6.968 163.342 7.504 163.342 8.096C163.342 9.008 163.006 9.784 162.334 10.424C161.678 11.064 160.83 11.52 159.79 11.792ZM158.782 5.288C158.414 5.288 158.118 5.32 157.894 5.384C157.67 5.448 157.51 5.6 157.414 5.84C157.318 6.064 157.27 6.448 157.27 6.992V11.696L156.502 11.504C157.014 11.536 157.438 11.56 157.774 11.576C158.11 11.576 158.302 11.576 158.35 11.576C159.582 11.576 160.462 11.264 160.99 10.64C161.518 10 161.782 9.216 161.782 8.288C161.782 7.728 161.678 7.224 161.47 6.776C161.278 6.312 160.966 5.952 160.534 5.696C160.102 5.424 159.518 5.288 158.782 5.288ZM159.646 19.664C160.846 19.664 161.718 19.36 162.262 18.752C162.822 18.128 163.102 17.272 163.102 16.184C163.102 14.984 162.75 14 162.046 13.232C161.342 12.464 160.358 12.08 159.094 12.08C158.694 12.064 158.278 12.064 157.846 12.08C157.43 12.096 157.006 12.136 156.574 12.2L157.27 11.936V18.056C157.27 18.44 157.326 18.752 157.438 18.992C157.55 19.232 157.774 19.408 158.11 19.52C158.462 19.616 158.974 19.664 159.646 19.664ZM171.085 12.056L171.445 11.552H176.389L176.557 12.056H171.085ZM182.749 19.712C182.813 19.712 182.845 19.76 182.845 19.856C182.845 19.952 182.813 20 182.749 20C182.285 20 181.813 19.984 181.333 19.952C180.853 19.92 180.389 19.904 179.941 19.904C179.445 19.904 179.013 19.92 178.645 19.952C178.277 19.984 177.869 20 177.421 20C177.357 20 177.325 19.952 177.325 19.856C177.325 19.76 177.357 19.712 177.421 19.712C178.269 19.712 178.797 19.592 179.005 19.352C179.213 19.096 179.157 18.624 178.837 17.936L173.509 6.68L174.109 5.936L169.453 16.952C169.053 17.928 169.029 18.632 169.381 19.064C169.733 19.496 170.429 19.712 171.469 19.712C171.549 19.712 171.589 19.76 171.589 19.856C171.589 19.952 171.549 20 171.469 20C170.989 20 170.549 19.984 170.149 19.952C169.749 19.92 169.245 19.904 168.637 19.904C168.061 19.904 167.597 19.92 167.245 19.952C166.909 19.984 166.493 20 165.997 20C165.933 20 165.901 19.952 165.901 19.856C165.901 19.76 165.933 19.712 165.997 19.712C166.429 19.712 166.805 19.632 167.125 19.472C167.445 19.296 167.741 19 168.013 18.584C168.301 18.152 168.613 17.536 168.949 16.736L174.013 4.784C174.045 4.736 174.101 4.712 174.181 4.712C174.261 4.712 174.309 4.736 174.325 4.784L179.989 16.712C180.357 17.496 180.685 18.112 180.973 18.56C181.261 18.992 181.541 19.296 181.813 19.472C182.101 19.632 182.413 19.712 182.749 19.712ZM198.64 19.712C198.784 19.712 198.864 19.728 198.88 19.76C198.912 19.776 198.928 19.856 198.928 20C198.928 20.224 198.904 20.464 198.856 20.72C198.824 20.992 198.792 21.376 198.76 21.872C198.728 22.368 198.712 23.072 198.712 23.984C198.712 24.048 198.664 24.08 198.568 24.08C198.472 24.08 198.424 24.048 198.424 23.984C198.424 22.624 198.12 21.616 197.512 20.96C196.92 20.32 195.936 20 194.56 20H187.048C186.424 20 185.864 20.112 185.368 20.336C184.888 20.576 184.512 20.984 184.24 21.56C183.968 22.152 183.832 22.96 183.832 23.984C183.832 24.048 183.784 24.08 183.688 24.08C183.592 24.08 183.544 24.048 183.544 23.984C183.544 23.312 183.528 22.76 183.496 22.328C183.48 21.896 183.448 21.544 183.4 21.272C183.368 21 183.336 20.768 183.304 20.576C183.288 20.384 183.28 20.184 183.28 19.976C183.28 19.848 183.288 19.768 183.304 19.736C183.336 19.704 183.408 19.688 183.52 19.688C184.208 19.688 184.816 19.464 185.344 19.016C185.888 18.552 186.368 17.944 186.784 17.192C187.216 16.44 187.584 15.608 187.888 14.696C188.208 13.784 188.464 12.864 188.656 11.936C188.848 10.992 188.992 10.112 189.088 9.296C189.184 8.464 189.232 7.768 189.232 7.208C189.232 6.824 189.184 6.488 189.088 6.2C188.992 5.912 188.768 5.688 188.416 5.528C188.08 5.368 187.536 5.288 186.784 5.288C186.752 5.288 186.736 5.24 186.736 5.144C186.736 5.048 186.752 5 186.784 5C186.88 5 187.144 5 187.576 5C188.024 5 188.584 5 189.256 5C189.928 5 190.648 5 191.416 5C192.2 5 192.976 5 193.744 5C194.512 5 195.224 5 195.88 5C196.536 5 197.072 5 197.488 5C197.904 5 198.144 5 198.208 5C198.24 5 198.256 5.048 198.256 5.144C198.256 5.24 198.24 5.288 198.208 5.288C197.616 5.288 197.168 5.336 196.864 5.432C196.56 5.512 196.36 5.672 196.264 5.912C196.168 6.136 196.12 6.48 196.12 6.944V18.056C196.12 18.456 196.128 18.776 196.144 19.016C196.176 19.24 196.264 19.4 196.408 19.496C196.552 19.592 196.792 19.656 197.128 19.688C197.48 19.704 197.984 19.712 198.64 19.712ZM194.56 18.008V6.992C194.56 6.496 194.528 6.152 194.464 5.96C194.416 5.752 194.264 5.632 194.008 5.6C193.752 5.552 193.312 5.528 192.688 5.528H191.512C191.048 5.528 190.712 5.6 190.504 5.744C190.296 5.888 190.16 6.16 190.096 6.56C190.032 6.96 189.968 7.552 189.904 8.336C189.872 8.624 189.816 9.064 189.736 9.656C189.656 10.248 189.536 10.92 189.376 11.672C189.232 12.424 189.048 13.216 188.824 14.048C188.6 14.864 188.336 15.656 188.032 16.424C187.728 17.192 187.376 17.872 186.976 18.464C186.576 19.04 186.12 19.48 185.608 19.784V19.472H192.568C193.224 19.472 193.688 19.448 193.96 19.4C194.248 19.352 194.416 19.232 194.464 19.04C194.528 18.832 194.56 18.488 194.56 18.008ZM206.903 20.096C206.631 20.096 206.287 20.08 205.871 20.048C205.471 20.032 205.055 20.016 204.623 20C204.191 19.968 203.791 19.952 203.423 19.952C202.911 19.952 202.407 19.96 201.911 19.976C201.431 19.992 200.991 20 200.591 20C200.559 20 200.543 19.952 200.543 19.856C200.543 19.76 200.559 19.712 200.591 19.712C201.183 19.712 201.623 19.672 201.911 19.592C202.215 19.512 202.423 19.36 202.535 19.136C202.647 18.896 202.703 18.536 202.703 18.056V6.944C202.703 6.464 202.647 6.112 202.535 5.888C202.439 5.664 202.247 5.512 201.959 5.432C201.671 5.336 201.231 5.288 200.639 5.288C200.591 5.288 200.567 5.24 200.567 5.144C200.567 5.048 200.591 5 200.639 5C201.023 5 201.447 5.016 201.911 5.048C202.375 5.064 202.879 5.072 203.423 5.072C203.999 5.072 204.535 5.064 205.031 5.048C205.527 5.016 205.959 5 206.327 5C206.375 5 206.399 5.048 206.399 5.144C206.399 5.24 206.375 5.288 206.327 5.288C205.735 5.288 205.287 5.336 204.983 5.432C204.695 5.528 204.495 5.696 204.383 5.936C204.287 6.16 204.239 6.512 204.239 6.992V18.056C204.239 18.392 204.287 18.68 204.383 18.92C204.495 19.16 204.703 19.344 205.007 19.472C205.327 19.6 205.799 19.664 206.423 19.664C207.735 19.664 208.671 19.368 209.231 18.776C209.791 18.168 210.071 17.256 210.071 16.04C210.071 15.032 209.919 14.232 209.615 13.64C209.311 13.048 208.879 12.632 208.319 12.392C207.759 12.136 207.095 12.008 206.327 12.008C205.879 12.008 205.423 12.048 204.959 12.128C204.495 12.192 204.039 12.288 203.591 12.416L203.543 11.936C204.087 11.808 204.639 11.712 205.199 11.648C205.759 11.568 206.335 11.528 206.927 11.528C207.855 11.528 208.679 11.656 209.399 11.912C210.135 12.152 210.711 12.56 211.127 13.136C211.543 13.696 211.751 14.472 211.751 15.464C211.751 16.376 211.543 17.184 211.127 17.888C210.727 18.576 210.159 19.12 209.423 19.52C208.703 19.904 207.863 20.096 206.903 20.096ZM219.957 20.096C219.701 20.096 219.365 20.08 218.949 20.048C218.533 20.032 218.109 20.016 217.677 20C217.245 19.968 216.853 19.952 216.501 19.952C215.973 19.952 215.461 19.96 214.965 19.976C214.485 19.992 214.045 20 213.645 20C213.613 20 213.597 19.952 213.597 19.856C213.597 19.76 213.613 19.712 213.645 19.712C214.237 19.712 214.677 19.672 214.965 19.592C215.269 19.512 215.477 19.352 215.589 19.112C215.701 18.872 215.757 18.52 215.757 18.056V6.944C215.757 6.48 215.701 6.136 215.589 5.912C215.493 5.672 215.301 5.512 215.013 5.432C214.725 5.336 214.285 5.288 213.693 5.288C213.645 5.288 213.621 5.24 213.621 5.144C213.621 5.048 213.645 5 213.693 5H223.149C223.245 5 223.309 5.024 223.341 5.072C223.373 5.104 223.397 5.176 223.413 5.288L223.725 8.336C223.725 8.384 223.685 8.416 223.605 8.432C223.525 8.432 223.469 8.408 223.437 8.36C223.277 7.464 222.949 6.76 222.453 6.248C221.957 5.736 221.333 5.48 220.581 5.48H219.213C218.669 5.48 218.261 5.52 217.989 5.6C217.717 5.68 217.533 5.84 217.437 6.08C217.341 6.304 217.293 6.64 217.293 7.088V18.056C217.293 18.392 217.341 18.68 217.437 18.92C217.549 19.16 217.757 19.344 218.061 19.472C218.381 19.6 218.853 19.664 219.477 19.664C220.773 19.664 221.701 19.368 222.261 18.776C222.837 18.184 223.125 17.296 223.125 16.112C223.125 15.088 222.941 14.28 222.573 13.688C222.205 13.08 221.685 12.648 221.013 12.392C220.357 12.136 219.573 12.008 218.661 12.008C218.357 12.008 218.029 12.032 217.677 12.08C217.341 12.112 216.997 12.144 216.645 12.176L216.597 11.72C217.045 11.656 217.485 11.608 217.917 11.576C218.365 11.544 218.797 11.528 219.213 11.528C220.285 11.528 221.237 11.656 222.069 11.912C222.917 12.152 223.581 12.56 224.061 13.136C224.557 13.696 224.805 14.48 224.805 15.488C224.805 16.4 224.597 17.2 224.181 17.888C223.781 18.576 223.213 19.12 222.477 19.52C221.757 19.904 220.917 20.096 219.957 20.096ZM233.34 20.096C233.068 20.096 232.724 20.08 232.308 20.048C231.908 20.032 231.492 20.016 231.06 20C230.628 19.968 230.228 19.952 229.86 19.952C229.348 19.952 228.844 19.96 228.348 19.976C227.868 19.992 227.428 20 227.028 20C226.996 20 226.98 19.952 226.98 19.856C226.98 19.76 226.996 19.712 227.028 19.712C227.62 19.712 228.06 19.672 228.348 19.592C228.652 19.512 228.86 19.36 228.972 19.136C229.084 18.896 229.14 18.536 229.14 18.056V6.944C229.14 6.464 229.084 6.112 228.972 5.888C228.876 5.664 228.684 5.512 228.396 5.432C228.108 5.336 227.668 5.288 227.076 5.288C227.028 5.288 227.004 5.24 227.004 5.144C227.004 5.048 227.028 5 227.076 5C227.46 5 227.884 5.016 228.348 5.048C228.812 5.064 229.316 5.072 229.86 5.072C230.436 5.072 230.972 5.064 231.468 5.048C231.964 5.016 232.396 5 232.764 5C232.812 5 232.836 5.048 232.836 5.144C232.836 5.24 232.812 5.288 232.764 5.288C232.172 5.288 231.724 5.336 231.42 5.432C231.132 5.528 230.932 5.696 230.82 5.936C230.724 6.16 230.676 6.512 230.676 6.992V18.056C230.676 18.392 230.724 18.68 230.82 18.92C230.932 19.16 231.14 19.344 231.444 19.472C231.764 19.6 232.236 19.664 232.86 19.664C234.172 19.664 235.108 19.368 235.668 18.776C236.228 18.168 236.508 17.256 236.508 16.04C236.508 15.032 236.356 14.232 236.052 13.64C235.748 13.048 235.316 12.632 234.756 12.392C234.196 12.136 233.532 12.008 232.764 12.008C232.316 12.008 231.86 12.048 231.396 12.128C230.932 12.192 230.476 12.288 230.028 12.416L229.98 11.936C230.524 11.808 231.076 11.712 231.636 11.648C232.196 11.568 232.772 11.528 233.364 11.528C234.292 11.528 235.116 11.656 235.836 11.912C236.572 12.152 237.148 12.56 237.564 13.136C237.98 13.696 238.188 14.472 238.188 15.464C238.188 16.376 237.98 17.184 237.564 17.888C237.164 18.576 236.596 19.12 235.86 19.52C235.14 19.904 234.3 20.096 233.34 20.096ZM243.204 18.056C243.204 18.52 243.252 18.872 243.348 19.112C243.444 19.352 243.636 19.512 243.924 19.592C244.228 19.672 244.668 19.712 245.244 19.712C245.292 19.712 245.316 19.76 245.316 19.856C245.316 19.952 245.292 20 245.244 20C244.86 20 244.428 19.992 243.948 19.976C243.484 19.96 242.964 19.952 242.388 19.952C241.86 19.952 241.348 19.96 240.852 19.976C240.372 19.992 239.94 20 239.556 20C239.508 20 239.484 19.952 239.484 19.856C239.484 19.76 239.508 19.712 239.556 19.712C240.132 19.712 240.572 19.672 240.876 19.592C241.18 19.512 241.38 19.352 241.476 19.112C241.572 18.872 241.62 18.52 241.62 18.056V6.944C241.62 6.48 241.572 6.136 241.476 5.912C241.38 5.672 241.18 5.512 240.876 5.432C240.572 5.336 240.132 5.288 239.556 5.288C239.508 5.288 239.484 5.24 239.484 5.144C239.484 5.048 239.508 5 239.556 5C239.94 5 240.372 5.016 240.852 5.048C241.348 5.064 241.86 5.072 242.388 5.072C242.964 5.072 243.492 5.064 243.972 5.048C244.452 5.016 244.876 5 245.244 5C245.292 5 245.316 5.048 245.316 5.144C245.316 5.24 245.292 5.288 245.244 5.288C244.668 5.288 244.228 5.336 243.924 5.432C243.636 5.528 243.444 5.696 243.348 5.936C243.252 6.176 243.204 6.528 243.204 6.992V18.056ZM65.2215 49.288C64.0695 49.288 63.0215 49.088 62.0775 48.688C61.1495 48.272 60.3495 47.704 59.6775 46.984C59.0215 46.264 58.5095 45.44 58.1415 44.512C57.7895 43.568 57.6135 42.568 57.6135 41.512C57.6135 40.216 57.8615 39.08 58.3575 38.104C58.8695 37.128 59.5415 36.32 60.3735 35.68C61.2055 35.024 62.1175 34.536 63.1095 34.216C64.1015 33.896 65.0855 33.736 66.0615 33.736C67.2455 33.736 68.3015 33.952 69.2295 34.384C70.1735 34.8 70.9735 35.368 71.6295 36.088C72.2855 36.808 72.7815 37.624 73.1175 38.536C73.4695 39.448 73.6455 40.384 73.6455 41.344C73.6455 42.464 73.4215 43.504 72.9735 44.464C72.5255 45.424 71.9095 46.264 71.1255 46.984C70.3575 47.704 69.4615 48.272 68.4375 48.688C67.4295 49.088 66.3575 49.288 65.2215 49.288ZM66.0615 48.784C67.1495 48.784 68.1255 48.528 68.9895 48.016C69.8535 47.488 70.5415 46.72 71.0535 45.712C71.5655 44.704 71.8215 43.472 71.8215 42.016C71.8215 40.512 71.5415 39.184 70.9815 38.032C70.4375 36.864 69.6535 35.952 68.6295 35.296C67.6215 34.624 66.4295 34.288 65.0535 34.288C63.2775 34.288 61.8935 34.864 60.9015 36.016C59.9255 37.152 59.4375 38.704 59.4375 40.672C59.4375 41.808 59.5895 42.872 59.8935 43.864C60.2135 44.84 60.6695 45.704 61.2615 46.456C61.8535 47.192 62.5575 47.768 63.3735 48.184C64.1895 48.584 65.0855 48.784 66.0615 48.784ZM84.7725 33.736C85.5085 33.736 86.2685 33.808 87.0525 33.952C87.8525 34.096 88.4925 34.304 88.9725 34.576C89.1165 34.656 89.2045 34.728 89.2365 34.792C89.2845 34.856 89.3165 34.976 89.3325 35.152L89.5965 37.84C89.5965 37.872 89.5565 37.904 89.4765 37.936C89.3965 37.952 89.3485 37.928 89.3325 37.864C88.9645 36.568 88.2925 35.648 87.3165 35.104C86.3405 34.544 85.1805 34.264 83.8365 34.264C82.6045 34.264 81.5325 34.536 80.6205 35.08C79.7245 35.608 79.0285 36.36 78.5325 37.336C78.0365 38.296 77.7885 39.424 77.7885 40.72C77.7885 41.856 77.9645 42.928 78.3165 43.936C78.6685 44.928 79.1565 45.8 79.7805 46.552C80.4205 47.304 81.1485 47.896 81.9645 48.328C82.7965 48.744 83.6765 48.952 84.6045 48.952C85.7245 48.952 86.7085 48.648 87.5565 48.04C88.4205 47.416 89.0845 46.432 89.5485 45.088C89.5645 45.024 89.6125 45.008 89.6925 45.04C89.7885 45.056 89.8365 45.08 89.8365 45.112L89.5005 47.824C89.4685 48.016 89.4285 48.144 89.3805 48.208C89.3485 48.256 89.2605 48.312 89.1165 48.376C88.3485 48.696 87.5885 48.928 86.8365 49.072C86.0845 49.216 85.3245 49.288 84.5565 49.288C83.0365 49.288 81.7325 49.056 80.6445 48.592C79.5565 48.112 78.6685 47.488 77.9805 46.72C77.2925 45.936 76.7885 45.08 76.4685 44.152C76.1485 43.208 75.9885 42.28 75.9885 41.368C75.9885 40.216 76.2285 39.176 76.7085 38.248C77.1885 37.32 77.8445 36.52 78.6765 35.848C79.5085 35.176 80.4445 34.656 81.4845 34.288C82.5405 33.92 83.6365 33.736 84.7725 33.736ZM95.3792 34.432C94.3872 34.432 93.6352 34.688 93.1232 35.2C92.6272 35.712 92.2672 36.584 92.0432 37.816C92.0432 37.848 91.9952 37.864 91.8992 37.864C91.8192 37.864 91.7792 37.848 91.7792 37.816C91.8112 37.608 91.8432 37.32 91.8752 36.952C91.9072 36.568 91.9392 36.16 91.9712 35.728C92.0192 35.296 92.0512 34.88 92.0672 34.48C92.0992 34.064 92.1152 33.728 92.1152 33.472C92.1152 33.392 92.1552 33.352 92.2352 33.352C92.3312 33.352 92.3792 33.392 92.3792 33.472C92.3792 33.632 92.4592 33.752 92.6192 33.832C92.7792 33.896 92.9552 33.944 93.1472 33.976C93.3552 33.992 93.5312 34 93.6752 34C95.0512 34.048 96.6592 34.072 98.4992 34.072C99.6352 34.072 100.531 34.064 101.187 34.048C101.859 34.016 102.507 34 103.131 34C103.675 34 104.091 33.968 104.379 33.904C104.683 33.824 104.875 33.656 104.955 33.4C104.971 33.336 105.019 33.304 105.099 33.304C105.179 33.304 105.219 33.336 105.219 33.4C105.203 33.64 105.179 33.968 105.147 34.384C105.115 34.8 105.091 35.232 105.075 35.68C105.059 36.128 105.043 36.544 105.027 36.928C105.011 37.312 105.003 37.608 105.003 37.816C105.003 37.848 104.955 37.864 104.859 37.864C104.763 37.864 104.715 37.848 104.715 37.816C104.667 36.568 104.411 35.696 103.947 35.2C103.483 34.688 102.715 34.432 101.643 34.432C100.971 34.432 100.467 34.464 100.131 34.528C99.7952 34.592 99.5712 34.736 99.4592 34.96C99.3632 35.168 99.3152 35.512 99.3152 35.992V47.056C99.3152 47.52 99.3712 47.872 99.4832 48.112C99.5952 48.352 99.8112 48.512 100.131 48.592C100.467 48.672 100.971 48.712 101.643 48.712C101.691 48.712 101.715 48.76 101.715 48.856C101.715 48.952 101.691 49 101.643 49C101.227 49 100.755 48.992 100.227 48.976C99.6992 48.96 99.1232 48.952 98.4992 48.952C97.9072 48.952 97.3472 48.96 96.8192 48.976C96.2912 48.992 95.8112 49 95.3792 49C95.3472 49 95.3312 48.952 95.3312 48.856C95.3312 48.76 95.3472 48.712 95.3792 48.712C96.0352 48.712 96.5312 48.672 96.8672 48.592C97.2192 48.512 97.4512 48.352 97.5632 48.112C97.6752 47.872 97.7312 47.52 97.7312 47.056V35.944C97.7312 35.464 97.6752 35.12 97.5632 34.912C97.4512 34.688 97.2272 34.552 96.8912 34.504C96.5552 34.456 96.0512 34.432 95.3792 34.432ZM109.503 41.056L109.863 40.552H114.807L114.975 41.056H109.503ZM121.167 48.712C121.231 48.712 121.263 48.76 121.263 48.856C121.263 48.952 121.231 49 121.167 49C120.703 49 120.231 48.984 119.751 48.952C119.271 48.92 118.807 48.904 118.359 48.904C117.863 48.904 117.431 48.92 117.063 48.952C116.695 48.984 116.287 49 115.839 49C115.775 49 115.743 48.952 115.743 48.856C115.743 48.76 115.775 48.712 115.839 48.712C116.687 48.712 117.215 48.592 117.423 48.352C117.631 48.096 117.575 47.624 117.255 46.936L111.927 35.68L112.527 34.936L107.871 45.952C107.471 46.928 107.447 47.632 107.799 48.064C108.151 48.496 108.847 48.712 109.887 48.712C109.967 48.712 110.007 48.76 110.007 48.856C110.007 48.952 109.967 49 109.887 49C109.407 49 108.967 48.984 108.567 48.952C108.167 48.92 107.663 48.904 107.055 48.904C106.479 48.904 106.015 48.92 105.663 48.952C105.327 48.984 104.911 49 104.415 49C104.351 49 104.319 48.952 104.319 48.856C104.319 48.76 104.351 48.712 104.415 48.712C104.847 48.712 105.223 48.632 105.543 48.472C105.863 48.296 106.159 48 106.431 47.584C106.719 47.152 107.031 46.536 107.367 45.736L112.431 33.784C112.463 33.736 112.519 33.712 112.599 33.712C112.679 33.712 112.727 33.736 112.743 33.784L118.407 45.712C118.775 46.496 119.103 47.112 119.391 47.56C119.679 47.992 119.959 48.296 120.231 48.472C120.519 48.632 120.831 48.712 121.167 48.712ZM122.61 49.288C122.274 49.288 121.994 49.216 121.77 49.072C121.546 48.928 121.434 48.704 121.434 48.4C121.434 48.112 121.538 47.912 121.746 47.8C121.954 47.688 122.194 47.632 122.466 47.632C122.546 47.632 122.626 47.632 122.706 47.632C122.802 47.632 122.89 47.632 122.97 47.632C123.546 47.632 124.066 47.4 124.53 46.936C124.994 46.456 125.402 45.824 125.754 45.04C126.106 44.24 126.402 43.352 126.642 42.376C126.882 41.384 127.058 40.376 127.17 39.352C127.298 38.328 127.362 37.352 127.362 36.424C127.362 35.992 127.306 35.616 127.194 35.296C127.082 34.96 126.858 34.712 126.522 34.552C126.186 34.376 125.674 34.288 124.986 34.288C124.938 34.288 124.914 34.24 124.914 34.144C124.914 34.048 124.938 34 124.986 34C125.082 34 125.354 34 125.802 34C126.25 34 126.81 34 127.482 34C128.154 34 128.874 34 129.642 34C130.426 34 131.202 34 131.97 34C132.754 34 133.474 34 134.13 34C134.786 34 135.322 34 135.738 34C136.154 34 136.394 34 136.458 34C136.506 34 136.53 34.048 136.53 34.144C136.53 34.24 136.506 34.288 136.458 34.288C135.866 34.288 135.418 34.336 135.114 34.432C134.81 34.512 134.61 34.672 134.514 34.912C134.418 35.136 134.37 35.48 134.37 35.944V47.056C134.37 47.52 134.418 47.872 134.514 48.112C134.61 48.352 134.81 48.512 135.114 48.592C135.418 48.672 135.866 48.712 136.458 48.712C136.506 48.712 136.53 48.76 136.53 48.856C136.53 48.952 136.506 49 136.458 49C136.09 49 135.658 48.992 135.162 48.976C134.666 48.96 134.154 48.952 133.626 48.952C133.066 48.952 132.538 48.96 132.042 48.976C131.562 48.992 131.13 49 130.746 49C130.698 49 130.674 48.952 130.674 48.856C130.674 48.76 130.698 48.712 130.746 48.712C131.354 48.712 131.802 48.672 132.09 48.592C132.394 48.512 132.594 48.352 132.69 48.112C132.786 47.872 132.834 47.52 132.834 47.056V36.04C132.834 35.544 132.802 35.192 132.738 34.984C132.674 34.776 132.506 34.656 132.234 34.624C131.978 34.576 131.546 34.552 130.938 34.552H129.714C129.282 34.552 128.93 34.592 128.658 34.672C128.402 34.752 128.218 34.928 128.106 35.2C127.994 35.456 127.938 35.864 127.938 36.424C127.938 37.064 127.906 37.824 127.842 38.704C127.778 39.584 127.666 40.512 127.506 41.488C127.346 42.448 127.138 43.392 126.882 44.32C126.626 45.232 126.298 46.064 125.898 46.816C125.514 47.568 125.05 48.168 124.506 48.616C123.962 49.064 123.33 49.288 122.61 49.288ZM146.128 49.288C144.976 49.288 143.928 49.088 142.984 48.688C142.056 48.272 141.256 47.704 140.584 46.984C139.928 46.264 139.416 45.44 139.048 44.512C138.696 43.568 138.52 42.568 138.52 41.512C138.52 40.216 138.768 39.08 139.264 38.104C139.776 37.128 140.448 36.32 141.28 35.68C142.112 35.024 143.024 34.536 144.016 34.216C145.008 33.896 145.992 33.736 146.968 33.736C148.152 33.736 149.208 33.952 150.136 34.384C151.08 34.8 151.88 35.368 152.536 36.088C153.192 36.808 153.688 37.624 154.024 38.536C154.376 39.448 154.552 40.384 154.552 41.344C154.552 42.464 154.328 43.504 153.88 44.464C153.432 45.424 152.816 46.264 152.032 46.984C151.264 47.704 150.368 48.272 149.344 48.688C148.336 49.088 147.264 49.288 146.128 49.288ZM146.968 48.784C148.056 48.784 149.032 48.528 149.896 48.016C150.76 47.488 151.448 46.72 151.96 45.712C152.472 44.704 152.728 43.472 152.728 42.016C152.728 40.512 152.448 39.184 151.888 38.032C151.344 36.864 150.56 35.952 149.536 35.296C148.528 34.624 147.336 34.288 145.96 34.288C144.184 34.288 142.8 34.864 141.808 36.016C140.832 37.152 140.344 38.704 140.344 40.672C140.344 41.808 140.496 42.872 140.8 43.864C141.12 44.84 141.576 45.704 142.168 46.456C142.76 47.192 143.464 47.768 144.28 48.184C145.096 48.584 145.992 48.784 146.968 48.784ZM165.679 33.736C166.415 33.736 167.175 33.808 167.959 33.952C168.759 34.096 169.399 34.304 169.879 34.576C170.023 34.656 170.111 34.728 170.143 34.792C170.191 34.856 170.223 34.976 170.239 35.152L170.503 37.84C170.503 37.872 170.463 37.904 170.383 37.936C170.303 37.952 170.255 37.928 170.239 37.864C169.871 36.568 169.199 35.648 168.223 35.104C167.247 34.544 166.087 34.264 164.743 34.264C163.511 34.264 162.439 34.536 161.527 35.08C160.631 35.608 159.935 36.36 159.439 37.336C158.943 38.296 158.695 39.424 158.695 40.72C158.695 41.856 158.871 42.928 159.223 43.936C159.575 44.928 160.063 45.8 160.687 46.552C161.327 47.304 162.055 47.896 162.871 48.328C163.703 48.744 164.583 48.952 165.511 48.952C166.631 48.952 167.615 48.648 168.463 48.04C169.327 47.416 169.991 46.432 170.455 45.088C170.471 45.024 170.519 45.008 170.599 45.04C170.695 45.056 170.743 45.08 170.743 45.112L170.407 47.824C170.375 48.016 170.335 48.144 170.287 48.208C170.255 48.256 170.167 48.312 170.023 48.376C169.255 48.696 168.495 48.928 167.743 49.072C166.991 49.216 166.231 49.288 165.463 49.288C163.943 49.288 162.639 49.056 161.551 48.592C160.463 48.112 159.575 47.488 158.887 46.72C158.199 45.936 157.695 45.08 157.375 44.152C157.055 43.208 156.895 42.28 156.895 41.368C156.895 40.216 157.135 39.176 157.615 38.248C158.095 37.32 158.751 36.52 159.583 35.848C160.415 35.176 161.351 34.656 162.391 34.288C163.447 33.92 164.543 33.736 165.679 33.736ZM179.117 49.096C178.845 49.096 178.501 49.08 178.085 49.048C177.685 49.032 177.269 49.016 176.837 49C176.405 48.968 176.005 48.952 175.637 48.952C175.125 48.952 174.621 48.96 174.125 48.976C173.645 48.992 173.205 49 172.805 49C172.773 49 172.757 48.952 172.757 48.856C172.757 48.76 172.773 48.712 172.805 48.712C173.397 48.712 173.837 48.672 174.125 48.592C174.429 48.512 174.637 48.36 174.749 48.136C174.861 47.896 174.917 47.536 174.917 47.056V35.944C174.917 35.464 174.861 35.112 174.749 34.888C174.653 34.664 174.461 34.512 174.173 34.432C173.885 34.336 173.445 34.288 172.853 34.288C172.805 34.288 172.781 34.24 172.781 34.144C172.781 34.048 172.805 34 172.853 34C173.237 34 173.661 34.016 174.125 34.048C174.589 34.064 175.093 34.072 175.637 34.072C176.213 34.072 176.749 34.064 177.245 34.048C177.741 34.016 178.173 34 178.541 34C178.589 34 178.613 34.048 178.613 34.144C178.613 34.24 178.589 34.288 178.541 34.288C177.949 34.288 177.501 34.336 177.197 34.432C176.909 34.528 176.709 34.696 176.597 34.936C176.501 35.16 176.453 35.512 176.453 35.992V47.056C176.453 47.392 176.501 47.68 176.597 47.92C176.709 48.16 176.917 48.344 177.221 48.472C177.541 48.6 178.013 48.664 178.637 48.664C179.949 48.664 180.885 48.368 181.445 47.776C182.005 47.168 182.285 46.256 182.285 45.04C182.285 44.032 182.133 43.232 181.829 42.64C181.525 42.048 181.093 41.632 180.533 41.392C179.973 41.136 179.309 41.008 178.541 41.008C178.093 41.008 177.637 41.048 177.173 41.128C176.709 41.192 176.253 41.288 175.805 41.416L175.757 40.936C176.301 40.808 176.853 40.712 177.413 40.648C177.973 40.568 178.549 40.528 179.141 40.528C180.069 40.528 180.893 40.656 181.613 40.912C182.349 41.152 182.925 41.56 183.341 42.136C183.757 42.696 183.965 43.472 183.965 44.464C183.965 45.376 183.757 46.184 183.341 46.888C182.941 47.576 182.373 48.12 181.637 48.52C180.917 48.904 180.077 49.096 179.117 49.096ZM187.204 49.264C186.884 49.264 186.628 49.176 186.436 49C186.244 48.808 186.148 48.552 186.148 48.232C186.148 47.928 186.244 47.688 186.436 47.512C186.628 47.32 186.884 47.224 187.204 47.224C187.54 47.224 187.796 47.32 187.972 47.512C188.148 47.688 188.236 47.928 188.236 48.232C188.236 48.552 188.148 48.808 187.972 49C187.796 49.176 187.54 49.264 187.204 49.264ZM187.204 42.52C186.884 42.52 186.628 42.432 186.436 42.256C186.244 42.064 186.148 41.808 186.148 41.488C186.148 41.184 186.244 40.944 186.436 40.768C186.628 40.576 186.884 40.48 187.204 40.48C187.54 40.48 187.796 40.576 187.972 40.768C188.148 40.944 188.236 41.184 188.236 41.488C188.236 41.808 188.148 42.064 187.972 42.256C187.796 42.432 187.54 42.52 187.204 42.52Z" fill="#282828"/>
</svg>
