<svg width="65" height="8" viewBox="0 0 65 8" fill="none" xmlns="http://www.w3.org/2000/svg">
<path d="M0.456 7.096C0.344 7.096 0.250667 7.072 0.176 7.024C0.101333 6.976 0.064 6.90133 0.064 6.8C0.064 6.704 0.0986667 6.63733 0.168 6.6C0.237333 6.56267 0.317333 6.544 0.408 6.544C0.434667 6.544 0.461333 6.544 0.488 6.544C0.52 6.544 0.549333 6.544 0.576 6.544C0.768 6.544 0.941333 6.46667 1.096 6.312C1.25067 6.152 1.38667 5.94133 1.504 5.68C1.62133 5.41333 1.72 5.11733 1.8 4.792C1.88 4.46133 1.93867 4.12533 1.976 3.784C2.01867 3.44267 2.04 3.11733 2.04 2.808C2.04 2.664 2.02133 2.53867 1.984 2.432C1.94667 2.32 1.872 2.23733 1.76 2.184C1.648 2.12533 1.47733 2.096 1.248 2.096C1.232 2.096 1.224 2.08 1.224 2.048C1.224 2.016 1.232 2 1.248 2C1.28 2 1.37067 2 1.52 2C1.66933 2 1.856 2 2.08 2C2.304 2 2.544 2 2.8 2C3.06133 2 3.32 2 3.576 2C3.83733 2 4.07733 2 4.296 2C4.51467 2 4.69333 2 4.832 2C4.97067 2 5.05067 2 5.072 2C5.088 2 5.096 2.016 5.096 2.048C5.096 2.08 5.088 2.096 5.072 2.096C4.87467 2.096 4.72533 2.112 4.624 2.144C4.52267 2.17067 4.456 2.224 4.424 2.304C4.392 2.37867 4.376 2.49333 4.376 2.648V6.352C4.376 6.50667 4.392 6.624 4.424 6.704C4.456 6.784 4.52267 6.83733 4.624 6.864C4.72533 6.89067 4.87467 6.904 5.072 6.904C5.088 6.904 5.096 6.92 5.096 6.952C5.096 6.984 5.088 7 5.072 7C4.94933 7 4.80533 6.99733 4.64 6.992C4.47467 6.98667 4.304 6.984 4.128 6.984C3.94133 6.984 3.76533 6.98667 3.6 6.992C3.44 6.99733 3.296 7 3.168 7C3.152 7 3.144 6.984 3.144 6.952C3.144 6.92 3.152 6.904 3.168 6.904C3.37067 6.904 3.52 6.89067 3.616 6.864C3.71733 6.83733 3.784 6.784 3.816 6.704C3.848 6.624 3.864 6.50667 3.864 6.352V2.68C3.864 2.51467 3.85333 2.39733 3.832 2.328C3.81067 2.25867 3.75467 2.21867 3.664 2.208C3.57867 2.192 3.43467 2.184 3.232 2.184H2.824C2.68 2.184 2.56267 2.19733 2.472 2.224C2.38667 2.25067 2.32533 2.30933 2.288 2.4C2.25067 2.48533 2.232 2.62133 2.232 2.808C2.232 3.02133 2.22133 3.27467 2.2 3.568C2.17867 3.86133 2.14133 4.17067 2.088 4.496C2.03467 4.816 1.96533 5.13067 1.88 5.44C1.79467 5.744 1.68533 6.02133 1.552 6.272C1.424 6.52267 1.26933 6.72267 1.088 6.872C0.906667 7.02133 0.696 7.096 0.456 7.096ZM6.68719 6.424L6.55119 6.296L10.0712 2.544L10.1992 2.664L6.68719 6.424ZM5.64719 7C5.63652 7 5.63119 6.984 5.63119 6.952C5.63119 6.92 5.63652 6.904 5.64719 6.904C5.84452 6.904 5.99385 6.89067 6.09519 6.864C6.19652 6.83733 6.26319 6.784 6.29519 6.704C6.33252 6.624 6.35119 6.50667 6.35119 6.352V2.648C6.35119 2.49333 6.33252 2.37867 6.29519 2.304C6.26319 2.224 6.19652 2.17067 6.09519 2.144C5.99919 2.112 5.85252 2.096 5.65519 2.096C5.64452 2.096 5.63919 2.08 5.63919 2.048C5.63919 2.016 5.64452 2 5.65519 2C5.78319 2 5.92719 2.00533 6.08719 2.016C6.25252 2.02133 6.42319 2.024 6.59919 2.024C6.79652 2.024 6.97519 2.02133 7.13519 2.016C7.29519 2.00533 7.43919 2 7.56719 2C7.57785 2 7.58319 2.016 7.58319 2.048C7.58319 2.08 7.57785 2.096 7.56719 2.096C7.36985 2.096 7.22052 2.112 7.11919 2.144C7.01785 2.176 6.94852 2.232 6.91119 2.312C6.87919 2.392 6.86319 2.50933 6.86319 2.664V6.352C6.86319 6.50667 6.87919 6.624 6.91119 6.704C6.94319 6.784 7.00985 6.83733 7.11119 6.864C7.21785 6.89067 7.36985 6.904 7.56719 6.904C7.57785 6.904 7.58319 6.92 7.58319 6.952C7.58319 6.984 7.57785 7 7.56719 7C7.43385 7 7.28719 6.99733 7.12719 6.992C6.97252 6.98667 6.79652 6.984 6.59919 6.984C6.42319 6.984 6.25252 6.98667 6.08719 6.992C5.92185 6.99733 5.77519 7 5.64719 7ZM9.13519 7C9.12452 7 9.11919 6.984 9.11919 6.952C9.11919 6.92 9.12452 6.904 9.13519 6.904C9.34319 6.904 9.49519 6.89067 9.59119 6.864C9.69252 6.83733 9.75919 6.784 9.79119 6.704C9.82319 6.624 9.83919 6.50667 9.83919 6.352V2.664C9.83919 2.50933 9.82319 2.392 9.79119 2.312C9.75919 2.232 9.69252 2.176 9.59119 2.144C9.49519 2.112 9.34319 2.096 9.13519 2.096C9.12452 2.096 9.11919 2.08 9.11919 2.048C9.11919 2.016 9.12452 2 9.13519 2C9.26852 2 9.41252 2.00533 9.56719 2.016C9.72719 2.02133 9.90585 2.024 10.1032 2.024C10.2792 2.024 10.4499 2.02133 10.6152 2.016C10.7805 2.00533 10.9272 2 11.0552 2C11.0659 2 11.0712 2.016 11.0712 2.048C11.0712 2.08 11.0659 2.096 11.0552 2.096C10.8579 2.096 10.7085 2.112 10.6072 2.144C10.5059 2.17067 10.4392 2.224 10.4072 2.304C10.3752 2.37867 10.3592 2.49333 10.3592 2.648V6.352C10.3592 6.50667 10.3752 6.624 10.4072 6.704C10.4392 6.784 10.5059 6.83733 10.6072 6.864C10.7085 6.89067 10.8579 6.904 11.0552 6.904C11.0659 6.904 11.0712 6.92 11.0712 6.952C11.0712 6.984 11.0659 7 11.0552 7C10.9272 7 10.7805 6.99733 10.6152 6.992C10.4499 6.98667 10.2792 6.984 10.1032 6.984C9.90585 6.984 9.72719 6.98667 9.56719 6.992C9.41252 6.99733 9.26852 7 9.13519 7ZM14.6638 1.912C14.9091 1.912 15.1624 1.936 15.4238 1.984C15.6904 2.032 15.9038 2.10133 16.0638 2.192C16.1118 2.21867 16.1411 2.24267 16.1518 2.264C16.1678 2.28533 16.1784 2.32533 16.1838 2.384L16.2718 3.28C16.2718 3.29067 16.2584 3.30133 16.2318 3.312C16.2051 3.31733 16.1891 3.30933 16.1838 3.288C16.0611 2.856 15.8371 2.54933 15.5118 2.368C15.1864 2.18133 14.7998 2.088 14.3518 2.088C13.9411 2.088 13.5838 2.17867 13.2798 2.36C12.9811 2.536 12.7491 2.78667 12.5838 3.112C12.4184 3.432 12.3358 3.808 12.3358 4.24C12.3358 4.61867 12.3944 4.976 12.5118 5.312C12.6291 5.64267 12.7918 5.93333 12.9998 6.184C13.2131 6.43467 13.4558 6.632 13.7278 6.776C14.0051 6.91467 14.2984 6.984 14.6078 6.984C14.9811 6.984 15.3091 6.88267 15.5918 6.68C15.8798 6.472 16.1011 6.144 16.2558 5.696C16.2611 5.67467 16.2771 5.66933 16.3038 5.68C16.3358 5.68533 16.3518 5.69333 16.3518 5.704L16.2398 6.608C16.2291 6.672 16.2158 6.71467 16.1998 6.736C16.1891 6.752 16.1598 6.77067 16.1118 6.792C15.8558 6.89867 15.6024 6.976 15.3518 7.024C15.1011 7.072 14.8478 7.096 14.5918 7.096C14.0851 7.096 13.6504 7.01867 13.2878 6.864C12.9251 6.704 12.6291 6.496 12.3997 6.24C12.1704 5.97867 12.0024 5.69333 11.8958 5.384C11.7891 5.06933 11.7358 4.76 11.7358 4.456C11.7358 4.072 11.8158 3.72533 11.9758 3.416C12.1358 3.10667 12.3544 2.84 12.6318 2.616C12.9091 2.392 13.2211 2.21867 13.5678 2.096C13.9198 1.97333 14.2851 1.912 14.6638 1.912ZM18.1993 2.144C17.8686 2.144 17.618 2.22933 17.4473 2.4C17.282 2.57067 17.162 2.86133 17.0873 3.272C17.0873 3.28267 17.0713 3.288 17.0393 3.288C17.0126 3.288 16.9993 3.28267 16.9993 3.272C17.01 3.20267 17.0206 3.10667 17.0313 2.984C17.042 2.856 17.0526 2.72 17.0633 2.576C17.0793 2.432 17.09 2.29333 17.0953 2.16C17.106 2.02133 17.1113 1.90933 17.1113 1.824C17.1113 1.79733 17.1246 1.784 17.1513 1.784C17.1833 1.784 17.1993 1.79733 17.1993 1.824C17.1993 1.87733 17.226 1.91733 17.2793 1.944C17.3326 1.96533 17.3913 1.98133 17.4553 1.992C17.5246 1.99733 17.5833 2 17.6313 2C18.09 2.016 18.626 2.024 19.2393 2.024C19.618 2.024 19.9166 2.02133 20.1353 2.016C20.3593 2.00533 20.5753 2 20.7833 2C20.9646 2 21.1033 1.98933 21.1993 1.968C21.3006 1.94133 21.3646 1.88533 21.3913 1.8C21.3966 1.77867 21.4126 1.768 21.4393 1.768C21.466 1.768 21.4793 1.77867 21.4793 1.8C21.474 1.88 21.466 1.98933 21.4553 2.128C21.4446 2.26667 21.4366 2.41067 21.4313 2.56C21.426 2.70933 21.4206 2.848 21.4153 2.976C21.41 3.104 21.4073 3.20267 21.4073 3.272C21.4073 3.28267 21.3913 3.288 21.3593 3.288C21.3273 3.288 21.3113 3.28267 21.3113 3.272C21.2953 2.856 21.21 2.56533 21.0553 2.4C20.9006 2.22933 20.6446 2.144 20.2873 2.144C20.0633 2.144 19.8953 2.15467 19.7833 2.176C19.6713 2.19733 19.5966 2.24533 19.5593 2.32C19.5273 2.38933 19.5113 2.504 19.5113 2.664V6.352C19.5113 6.50667 19.53 6.624 19.5673 6.704C19.6046 6.784 19.6766 6.83733 19.7833 6.864C19.8953 6.89067 20.0633 6.904 20.2873 6.904C20.3033 6.904 20.3113 6.92 20.3113 6.952C20.3113 6.984 20.3033 7 20.2873 7C20.1486 7 19.9913 6.99733 19.8153 6.992C19.6393 6.98667 19.4473 6.984 19.2393 6.984C19.042 6.984 18.8553 6.98667 18.6793 6.992C18.5033 6.99733 18.3433 7 18.1993 7C18.1886 7 18.1833 6.984 18.1833 6.952C18.1833 6.92 18.1886 6.904 18.1993 6.904C18.418 6.904 18.5833 6.89067 18.6953 6.864C18.8126 6.83733 18.89 6.784 18.9273 6.704C18.9646 6.624 18.9833 6.50667 18.9833 6.352V2.648C18.9833 2.488 18.9646 2.37333 18.9273 2.304C18.89 2.22933 18.8153 2.184 18.7033 2.168C18.5913 2.152 18.4233 2.144 18.1993 2.144ZM22.9071 4.352L23.0271 4.184H24.6751L24.7311 4.352H22.9071ZM26.7951 6.904C26.8165 6.904 26.8271 6.92 26.8271 6.952C26.8271 6.984 26.8165 7 26.7951 7C26.6405 7 26.4831 6.99467 26.3231 6.984C26.1631 6.97333 26.0085 6.968 25.8591 6.968C25.6938 6.968 25.5498 6.97333 25.4271 6.984C25.3045 6.99467 25.1685 7 25.0191 7C24.9978 7 24.9871 6.984 24.9871 6.952C24.9871 6.92 24.9978 6.904 25.0191 6.904C25.3018 6.904 25.4778 6.864 25.5471 6.784C25.6165 6.69867 25.5978 6.54133 25.4911 6.312L23.7151 2.56L23.9151 2.312L22.3631 5.984C22.2298 6.30933 22.2218 6.544 22.3391 6.688C22.4565 6.832 22.6885 6.904 23.0351 6.904C23.0618 6.904 23.0751 6.92 23.0751 6.952C23.0751 6.984 23.0618 7 23.0351 7C22.8751 7 22.7285 6.99467 22.5951 6.984C22.4618 6.97333 22.2938 6.968 22.0911 6.968C21.8991 6.968 21.7445 6.97333 21.6271 6.984C21.5151 6.99467 21.3765 7 21.2111 7C21.1898 7 21.1791 6.984 21.1791 6.952C21.1791 6.92 21.1898 6.904 21.2111 6.904C21.3551 6.904 21.4805 6.87733 21.5871 6.824C21.6938 6.76533 21.7925 6.66667 21.8831 6.528C21.9791 6.384 22.0831 6.17867 22.1951 5.912L23.8831 1.928C23.8938 1.912 23.9125 1.904 23.9391 1.904C23.9658 1.904 23.9818 1.912 23.9871 1.928L25.8751 5.904C25.9978 6.16533 26.1071 6.37067 26.2031 6.52C26.2991 6.664 26.3925 6.76533 26.4831 6.824C26.5791 6.87733 26.6831 6.904 26.7951 6.904ZM28.1403 6.424L28.0043 6.296L31.5243 2.544L31.6523 2.664L28.1403 6.424ZM27.1003 7C27.0896 7 27.0843 6.984 27.0843 6.952C27.0843 6.92 27.0896 6.904 27.1003 6.904C27.2976 6.904 27.447 6.89067 27.5483 6.864C27.6496 6.83733 27.7163 6.784 27.7483 6.704C27.7856 6.624 27.8043 6.50667 27.8043 6.352V2.648C27.8043 2.49333 27.7856 2.37867 27.7483 2.304C27.7163 2.224 27.6496 2.17067 27.5483 2.144C27.4523 2.112 27.3056 2.096 27.1083 2.096C27.0976 2.096 27.0923 2.08 27.0923 2.048C27.0923 2.016 27.0976 2 27.1083 2C27.2363 2 27.3803 2.00533 27.5403 2.016C27.7056 2.02133 27.8763 2.024 28.0523 2.024C28.2496 2.024 28.4283 2.02133 28.5883 2.016C28.7483 2.00533 28.8923 2 29.0203 2C29.031 2 29.0363 2.016 29.0363 2.048C29.0363 2.08 29.031 2.096 29.0203 2.096C28.823 2.096 28.6736 2.112 28.5723 2.144C28.471 2.176 28.4016 2.232 28.3643 2.312C28.3323 2.392 28.3163 2.50933 28.3163 2.664V6.352C28.3163 6.50667 28.3323 6.624 28.3643 6.704C28.3963 6.784 28.463 6.83733 28.5643 6.864C28.671 6.89067 28.823 6.904 29.0203 6.904C29.031 6.904 29.0363 6.92 29.0363 6.952C29.0363 6.984 29.031 7 29.0203 7C28.887 7 28.7403 6.99733 28.5803 6.992C28.4256 6.98667 28.2496 6.984 28.0523 6.984C27.8763 6.984 27.7056 6.98667 27.5403 6.992C27.375 6.99733 27.2283 7 27.1003 7ZM30.5883 7C30.5776 7 30.5723 6.984 30.5723 6.952C30.5723 6.92 30.5776 6.904 30.5883 6.904C30.7963 6.904 30.9483 6.89067 31.0443 6.864C31.1456 6.83733 31.2123 6.784 31.2443 6.704C31.2763 6.624 31.2923 6.50667 31.2923 6.352V2.664C31.2923 2.50933 31.2763 2.392 31.2443 2.312C31.2123 2.232 31.1456 2.176 31.0443 2.144C30.9483 2.112 30.7963 2.096 30.5883 2.096C30.5776 2.096 30.5723 2.08 30.5723 2.048C30.5723 2.016 30.5776 2 30.5883 2C30.7216 2 30.8656 2.00533 31.0203 2.016C31.1803 2.02133 31.359 2.024 31.5563 2.024C31.7323 2.024 31.903 2.02133 32.0683 2.016C32.2336 2.00533 32.3803 2 32.5083 2C32.519 2 32.5243 2.016 32.5243 2.048C32.5243 2.08 32.519 2.096 32.5083 2.096C32.311 2.096 32.1616 2.112 32.0603 2.144C31.959 2.17067 31.8923 2.224 31.8603 2.304C31.8283 2.37867 31.8123 2.49333 31.8123 2.648V6.352C31.8123 6.50667 31.8283 6.624 31.8603 6.704C31.8923 6.784 31.959 6.83733 32.0603 6.864C32.1616 6.89067 32.311 6.904 32.5083 6.904C32.519 6.904 32.5243 6.92 32.5243 6.952C32.5243 6.984 32.519 7 32.5083 7C32.3803 7 32.2336 6.99733 32.0683 6.992C31.903 6.98667 31.7323 6.984 31.5563 6.984C31.359 6.984 31.1803 6.98667 31.0203 6.992C30.8656 6.99733 30.7216 7 30.5883 7ZM29.8043 1.52C29.9643 1.52 30.0896 1.472 30.1803 1.376C30.271 1.27467 30.335 1.16 30.3723 1.032C30.399 0.930666 30.4336 0.842666 30.4763 0.768C30.519 0.688 30.5936 0.648 30.7003 0.648C30.775 0.648 30.831 0.672 30.8683 0.72C30.9056 0.762667 30.9243 0.821333 30.9243 0.896C30.9243 1.024 30.871 1.144 30.7643 1.256C30.6576 1.36267 30.519 1.45067 30.3483 1.52C30.183 1.584 30.0043 1.616 29.8123 1.616C29.6203 1.616 29.439 1.58133 29.2683 1.512C29.0976 1.44267 28.9616 1.352 28.8603 1.24C28.759 1.128 28.7083 1.01067 28.7083 0.888C28.7083 0.813333 28.727 0.754666 28.7643 0.712C28.8016 0.669333 28.8576 0.648 28.9323 0.648C29.0496 0.648 29.127 0.688 29.1643 0.768C29.2016 0.842666 29.2336 0.930666 29.2603 1.032C29.2976 1.14933 29.3563 1.26133 29.4363 1.368C29.5216 1.46933 29.6443 1.52 29.8043 1.52ZM34.3009 2.144C33.9702 2.144 33.7195 2.22933 33.5489 2.4C33.3835 2.57067 33.2635 2.86133 33.1889 3.272C33.1889 3.28267 33.1729 3.288 33.1409 3.288C33.1142 3.288 33.1009 3.28267 33.1009 3.272C33.1115 3.20267 33.1222 3.10667 33.1329 2.984C33.1435 2.856 33.1542 2.72 33.1649 2.576C33.1809 2.432 33.1915 2.29333 33.1969 2.16C33.2075 2.02133 33.2129 1.90933 33.2129 1.824C33.2129 1.79733 33.2262 1.784 33.2529 1.784C33.2849 1.784 33.3009 1.79733 33.3009 1.824C33.3009 1.87733 33.3275 1.91733 33.3809 1.944C33.4342 1.96533 33.4929 1.98133 33.5569 1.992C33.6262 1.99733 33.6849 2 33.7329 2C34.1915 2.016 34.7275 2.024 35.3409 2.024C35.7195 2.024 36.0182 2.02133 36.2369 2.016C36.4609 2.00533 36.6769 2 36.8849 2C37.0662 2 37.2049 1.98933 37.3009 1.968C37.4022 1.94133 37.4662 1.88533 37.4929 1.8C37.4982 1.77867 37.5142 1.768 37.5409 1.768C37.5675 1.768 37.5809 1.77867 37.5809 1.8C37.5755 1.88 37.5675 1.98933 37.5569 2.128C37.5462 2.26667 37.5382 2.41067 37.5329 2.56C37.5275 2.70933 37.5222 2.848 37.5169 2.976C37.5115 3.104 37.5089 3.20267 37.5089 3.272C37.5089 3.28267 37.4929 3.288 37.4609 3.288C37.4289 3.288 37.4129 3.28267 37.4129 3.272C37.3969 2.856 37.3115 2.56533 37.1569 2.4C37.0022 2.22933 36.7462 2.144 36.3889 2.144C36.1649 2.144 35.9969 2.15467 35.8849 2.176C35.7729 2.19733 35.6982 2.24533 35.6609 2.32C35.6289 2.38933 35.6129 2.504 35.6129 2.664V6.352C35.6129 6.50667 35.6315 6.624 35.6689 6.704C35.7062 6.784 35.7782 6.83733 35.8849 6.864C35.9969 6.89067 36.1649 6.904 36.3889 6.904C36.4049 6.904 36.4129 6.92 36.4129 6.952C36.4129 6.984 36.4049 7 36.3889 7C36.2502 7 36.0929 6.99733 35.9169 6.992C35.7409 6.98667 35.5489 6.984 35.3409 6.984C35.1435 6.984 34.9569 6.98667 34.7809 6.992C34.6049 6.99733 34.4449 7 34.3009 7C34.2902 7 34.2849 6.984 34.2849 6.952C34.2849 6.92 34.2902 6.904 34.3009 6.904C34.5195 6.904 34.6849 6.89067 34.7969 6.864C34.9142 6.83733 34.9915 6.784 35.0289 6.704C35.0662 6.624 35.0849 6.50667 35.0849 6.352V2.648C35.0849 2.488 35.0662 2.37333 35.0289 2.304C34.9915 2.22933 34.9169 2.184 34.8049 2.168C34.6929 2.152 34.5249 2.144 34.3009 2.144ZM41.5632 7H38.2112C38.2005 7 38.1952 6.984 38.1952 6.952C38.1952 6.92 38.2005 6.904 38.2112 6.904C38.4085 6.904 38.5552 6.89067 38.6512 6.864C38.7472 6.83733 38.8112 6.784 38.8432 6.704C38.8805 6.624 38.8992 6.50667 38.8992 6.352V2.648C38.8992 2.49333 38.8805 2.37867 38.8432 2.304C38.8112 2.224 38.7472 2.17067 38.6512 2.144C38.5552 2.112 38.4085 2.096 38.2112 2.096C38.2005 2.096 38.1952 2.08 38.1952 2.048C38.1952 2.016 38.2005 2 38.2112 2H41.4272C41.4752 2 41.4992 2.024 41.4992 2.072L41.5152 3.056C41.5152 3.072 41.4992 3.08267 41.4672 3.088C41.4405 3.088 41.4272 3.08 41.4272 3.064C41.4112 2.776 41.3232 2.55467 41.1632 2.4C41.0085 2.24533 40.8059 2.168 40.5552 2.168H40.0672C39.8859 2.168 39.7472 2.18133 39.6512 2.208C39.5605 2.23467 39.4965 2.28533 39.4592 2.36C39.4272 2.43467 39.4112 2.544 39.4112 2.688V6.32C39.4112 6.45867 39.4272 6.56533 39.4592 6.64C39.4965 6.71467 39.5579 6.76533 39.6432 6.792C39.7339 6.81867 39.8672 6.832 40.0432 6.832H40.6832C40.9392 6.832 41.1525 6.74133 41.3232 6.56C41.4992 6.37333 41.6139 6.12267 41.6672 5.808C41.6672 5.792 41.6832 5.78667 41.7152 5.792C41.7472 5.79733 41.7632 5.808 41.7632 5.824C41.7419 5.96267 41.7232 6.13067 41.7072 6.328C41.6965 6.52533 41.6912 6.70933 41.6912 6.88C41.6912 6.96 41.6485 7 41.5632 7ZM41.1152 5.136C41.1152 4.90133 41.0565 4.73333 40.9392 4.632C40.8272 4.53067 40.6379 4.48 40.3712 4.48H39.1712V4.312H40.3952C40.6512 4.312 40.8325 4.26933 40.9392 4.184C41.0512 4.09333 41.1072 3.94933 41.1072 3.752C41.1072 3.74133 41.1232 3.736 41.1552 3.736C41.1872 3.736 41.2032 3.74133 41.2032 3.752C41.2032 3.912 41.2005 4.03733 41.1952 4.128C41.1952 4.21333 41.1952 4.304 41.1952 4.4C41.1952 4.52267 41.1979 4.64267 41.2032 4.76C41.2085 4.87733 41.2112 5.00267 41.2112 5.136C41.2112 5.14667 41.1952 5.152 41.1632 5.152C41.1312 5.152 41.1152 5.14667 41.1152 5.136ZM46.4391 4.264L46.5271 4.176C46.8417 4.176 47.1164 4.23467 47.3511 4.352C47.5911 4.46933 47.7751 4.62933 47.9031 4.832C48.0364 5.03467 48.1031 5.26667 48.1031 5.528C48.1031 5.81067 48.0337 6.06667 47.8951 6.296C47.7564 6.52533 47.5644 6.70667 47.3191 6.84C47.0791 6.968 46.8097 7.032 46.5111 7.032C46.3404 7.032 46.1457 7.024 45.9271 7.008C45.7137 6.992 45.5164 6.984 45.3351 6.984C45.1591 6.984 44.9884 6.98667 44.8231 6.992C44.6631 6.99733 44.5164 7 44.3831 7C44.3724 7 44.3671 6.984 44.3671 6.952C44.3671 6.92 44.3724 6.904 44.3831 6.904C44.5751 6.904 44.7217 6.89067 44.8231 6.864C44.9244 6.83733 44.9937 6.784 45.0311 6.704C45.0684 6.624 45.0871 6.50667 45.0871 6.352V2.648C45.0871 2.49333 45.0684 2.37867 45.0311 2.304C44.9991 2.224 44.9324 2.17067 44.8311 2.144C44.7351 2.112 44.5911 2.096 44.3991 2.096C44.3831 2.096 44.3751 2.08 44.3751 2.048C44.3751 2.016 44.3831 2 44.3991 2C44.5271 2 44.6711 2.00533 44.8311 2.016C44.9911 2.02133 45.1591 2.024 45.3351 2.024C45.4737 2.024 45.6337 2.016 45.8151 2C45.9964 1.984 46.1511 1.976 46.2791 1.976C46.5937 1.976 46.8497 2.024 47.0471 2.12C47.2444 2.21067 47.3884 2.336 47.4791 2.496C47.5751 2.656 47.6231 2.83467 47.6231 3.032C47.6231 3.336 47.5111 3.59467 47.2871 3.808C47.0684 4.02133 46.7857 4.17333 46.4391 4.264ZM46.1031 2.096C45.9804 2.096 45.8817 2.10667 45.8071 2.128C45.7324 2.14933 45.6791 2.2 45.6471 2.28C45.6151 2.35467 45.5991 2.48267 45.5991 2.664V4.232L45.3431 4.168C45.5137 4.17867 45.6551 4.18667 45.7671 4.192C45.8791 4.192 45.9431 4.192 45.9591 4.192C46.3697 4.192 46.6631 4.088 46.8391 3.88C47.0151 3.66667 47.1031 3.40533 47.1031 3.096C47.1031 2.90933 47.0684 2.74133 46.9991 2.592C46.9351 2.43733 46.8311 2.31733 46.6871 2.232C46.5431 2.14133 46.3484 2.096 46.1031 2.096ZM46.3911 6.888C46.7911 6.888 47.0817 6.78667 47.2631 6.584C47.4497 6.376 47.5431 6.09067 47.5431 5.728C47.5431 5.328 47.4257 5 47.1911 4.744C46.9564 4.488 46.6284 4.36 46.2071 4.36C46.0737 4.35467 45.9351 4.35467 45.7911 4.36C45.6524 4.36533 45.5111 4.37867 45.3671 4.4L45.5991 4.312V6.352C45.5991 6.48 45.6177 6.584 45.6551 6.664C45.6924 6.744 45.7671 6.80267 45.8791 6.84C45.9964 6.872 46.1671 6.888 46.3911 6.888ZM53.068 2.664C53.068 2.50933 53.052 2.392 53.02 2.312C52.988 2.232 52.9213 2.176 52.82 2.144C52.724 2.112 52.572 2.096 52.364 2.096C52.348 2.096 52.34 2.08 52.34 2.048C52.34 2.016 52.348 2 52.364 2C52.492 2 52.636 2.00533 52.796 2.016C52.956 2.02133 53.1347 2.024 53.332 2.024C53.508 2.024 53.6787 2.02133 53.844 2.016C54.0093 2.00533 54.1533 2 54.276 2C54.292 2 54.3 2.016 54.3 2.048C54.3 2.08 54.292 2.096 54.276 2.096C54.0787 2.096 53.9293 2.112 53.828 2.144C53.7267 2.17067 53.66 2.224 53.628 2.304C53.596 2.37867 53.58 2.49333 53.58 2.648V6.352C53.58 6.50667 53.596 6.624 53.628 6.704C53.66 6.784 53.7267 6.83733 53.828 6.864C53.9293 6.89067 54.0787 6.904 54.276 6.904C54.292 6.904 54.3 6.92 54.3 6.952C54.3 6.984 54.292 7 54.276 7C54.1533 7 54.0093 6.99733 53.844 6.992C53.6787 6.98667 53.508 6.984 53.332 6.984C53.1347 6.984 52.956 6.98667 52.796 6.992C52.636 6.99733 52.492 7 52.364 7C52.348 7 52.34 6.984 52.34 6.952C52.34 6.92 52.348 6.904 52.364 6.904C52.572 6.904 52.724 6.89067 52.82 6.864C52.9213 6.83733 52.988 6.784 53.02 6.704C53.052 6.624 53.068 6.50667 53.068 6.352V2.664ZM49.716 4.48V4.312H53.292V4.48H49.716ZM49.484 6.352V2.648C49.484 2.49333 49.4653 2.37867 49.428 2.304C49.396 2.224 49.3293 2.17067 49.228 2.144C49.132 2.112 48.9853 2.096 48.788 2.096C48.7773 2.096 48.772 2.08 48.772 2.048C48.772 2.016 48.7773 2 48.788 2C48.916 2 49.06 2.00533 49.22 2.016C49.3853 2.02133 49.556 2.024 49.732 2.024C49.9293 2.024 50.108 2.02133 50.268 2.016C50.428 2.00533 50.572 2 50.7 2C50.7107 2 50.716 2.016 50.716 2.048C50.716 2.08 50.7107 2.096 50.7 2.096C50.5027 2.096 50.3533 2.112 50.252 2.144C50.1507 2.176 50.0813 2.232 50.044 2.312C50.012 2.392 49.996 2.50933 49.996 2.664V6.352C49.996 6.50667 50.012 6.624 50.044 6.704C50.076 6.784 50.1427 6.83733 50.244 6.864C50.3507 6.89067 50.5027 6.904 50.7 6.904C50.7107 6.904 50.716 6.92 50.716 6.952C50.716 6.984 50.7107 7 50.7 7C50.5667 7 50.42 6.99733 50.26 6.992C50.1053 6.98667 49.9293 6.984 49.732 6.984C49.556 6.984 49.3853 6.98667 49.22 6.992C49.0547 6.99733 48.908 7 48.78 7C48.7693 7 48.764 6.984 48.764 6.952C48.764 6.92 48.7693 6.904 48.78 6.904C48.9773 6.904 49.1267 6.89067 49.228 6.864C49.3293 6.83733 49.396 6.784 49.428 6.704C49.4653 6.624 49.484 6.50667 49.484 6.352ZM55.8903 6.424L55.7543 6.296L59.2743 2.544L59.4023 2.664L55.8903 6.424ZM54.8503 7C54.8396 7 54.8343 6.984 54.8343 6.952C54.8343 6.92 54.8396 6.904 54.8503 6.904C55.0476 6.904 55.197 6.89067 55.2983 6.864C55.3996 6.83733 55.4663 6.784 55.4983 6.704C55.5356 6.624 55.5543 6.50667 55.5543 6.352V2.648C55.5543 2.49333 55.5356 2.37867 55.4983 2.304C55.4663 2.224 55.3996 2.17067 55.2983 2.144C55.2023 2.112 55.0556 2.096 54.8583 2.096C54.8476 2.096 54.8423 2.08 54.8423 2.048C54.8423 2.016 54.8476 2 54.8583 2C54.9863 2 55.1303 2.00533 55.2903 2.016C55.4556 2.02133 55.6263 2.024 55.8023 2.024C55.9996 2.024 56.1783 2.02133 56.3383 2.016C56.4983 2.00533 56.6423 2 56.7703 2C56.781 2 56.7863 2.016 56.7863 2.048C56.7863 2.08 56.781 2.096 56.7703 2.096C56.573 2.096 56.4236 2.112 56.3223 2.144C56.221 2.176 56.1516 2.232 56.1143 2.312C56.0823 2.392 56.0663 2.50933 56.0663 2.664V6.352C56.0663 6.50667 56.0823 6.624 56.1143 6.704C56.1463 6.784 56.213 6.83733 56.3143 6.864C56.421 6.89067 56.573 6.904 56.7703 6.904C56.781 6.904 56.7863 6.92 56.7863 6.952C56.7863 6.984 56.781 7 56.7703 7C56.637 7 56.4903 6.99733 56.3303 6.992C56.1756 6.98667 55.9996 6.984 55.8023 6.984C55.6263 6.984 55.4556 6.98667 55.2903 6.992C55.125 6.99733 54.9783 7 54.8503 7ZM58.3383 7C58.3276 7 58.3223 6.984 58.3223 6.952C58.3223 6.92 58.3276 6.904 58.3383 6.904C58.5463 6.904 58.6983 6.89067 58.7943 6.864C58.8956 6.83733 58.9623 6.784 58.9943 6.704C59.0263 6.624 59.0423 6.50667 59.0423 6.352V2.664C59.0423 2.50933 59.0263 2.392 58.9943 2.312C58.9623 2.232 58.8956 2.176 58.7943 2.144C58.6983 2.112 58.5463 2.096 58.3383 2.096C58.3276 2.096 58.3223 2.08 58.3223 2.048C58.3223 2.016 58.3276 2 58.3383 2C58.4716 2 58.6156 2.00533 58.7703 2.016C58.9303 2.02133 59.109 2.024 59.3063 2.024C59.4823 2.024 59.653 2.02133 59.8183 2.016C59.9836 2.00533 60.1303 2 60.2583 2C60.269 2 60.2743 2.016 60.2743 2.048C60.2743 2.08 60.269 2.096 60.2583 2.096C60.061 2.096 59.9116 2.112 59.8103 2.144C59.709 2.17067 59.6423 2.224 59.6103 2.304C59.5783 2.37867 59.5623 2.49333 59.5623 2.648V6.352C59.5623 6.50667 59.5783 6.624 59.6103 6.704C59.6423 6.784 59.709 6.83733 59.8103 6.864C59.9116 6.89067 60.061 6.904 60.2583 6.904C60.269 6.904 60.2743 6.92 60.2743 6.952C60.2743 6.984 60.269 7 60.2583 7C60.1303 7 59.9836 6.99733 59.8183 6.992C59.653 6.98667 59.4823 6.984 59.3063 6.984C59.109 6.984 58.9303 6.98667 58.7703 6.992C58.6156 6.99733 58.4716 7 58.3383 7ZM62.5149 6.968C62.7709 6.968 62.9735 6.90933 63.1229 6.792C63.2775 6.66933 63.3895 6.512 63.4589 6.32C63.5335 6.128 63.5709 5.92533 63.5709 5.712C63.5709 5.27467 63.4455 4.94667 63.1949 4.728C62.9495 4.50933 62.6029 4.4 62.1549 4.4C62.1335 4.4 62.1229 4.384 62.1229 4.352C62.1229 4.32 62.1335 4.304 62.1549 4.304C62.5869 4.304 62.9042 4.2 63.1069 3.992C63.3095 3.784 63.4109 3.50933 63.4109 3.168C63.4109 2.816 63.3202 2.536 63.1389 2.328C62.9629 2.12 62.7309 2.016 62.4429 2.016C62.2669 2.016 62.0989 2.06133 61.9389 2.152C61.7789 2.23733 61.6375 2.37067 61.5149 2.552C61.3922 2.728 61.2935 2.95467 61.2189 3.232C61.2135 3.248 61.1975 3.25333 61.1709 3.248C61.1442 3.24267 61.1309 3.232 61.1309 3.216L61.2429 2.312C61.2535 2.248 61.2642 2.20533 61.2749 2.184C61.2855 2.16267 61.3149 2.144 61.3629 2.128C61.5815 2.05333 61.7895 2 61.9869 1.968C62.1895 1.93067 62.3762 1.912 62.5469 1.912C62.8615 1.912 63.1229 1.96267 63.3309 2.064C63.5389 2.16533 63.6935 2.29867 63.7949 2.464C63.8962 2.62933 63.9469 2.808 63.9469 3C63.9469 3.18667 63.9042 3.36 63.8189 3.52C63.7389 3.68 63.6322 3.82133 63.4989 3.944C63.3709 4.06667 63.2295 4.16533 63.0749 4.24C62.9255 4.31467 62.7842 4.35733 62.6509 4.368L62.7629 4.304C63.0349 4.304 63.2749 4.35733 63.4829 4.464C63.6962 4.56533 63.8615 4.712 63.9789 4.904C64.1015 5.09067 64.1629 5.312 64.1629 5.568C64.1629 5.86667 64.0802 6.13067 63.9149 6.36C63.7549 6.58933 63.5389 6.77067 63.2669 6.904C62.9949 7.032 62.6882 7.096 62.3469 7.096C62.1442 7.096 61.9335 7.06933 61.7149 7.016C61.5015 6.968 61.3335 6.89333 61.2109 6.792C61.1629 6.76533 61.1335 6.74133 61.1229 6.72C61.1122 6.69867 61.1042 6.66133 61.0989 6.608L61.0029 5.72C61.0029 5.704 61.0162 5.69333 61.0429 5.688C61.0749 5.68267 61.0935 5.688 61.0989 5.704C61.1522 6.01867 61.2562 6.26933 61.4109 6.456C61.5655 6.63733 61.7415 6.768 61.9389 6.848C62.1362 6.928 62.3282 6.968 62.5149 6.968Z" fill="white"/>
</svg>
