<svg width="250" height="254" viewBox="0 0 250 254" fill="none" xmlns="http://www.w3.org/2000/svg">
<path d="M20.4117 160.715C18.2484 160.715 16.3601 160.183 14.7467 159.12C13.1701 158.057 11.9417 156.645 11.0617 154.885C10.2184 153.088 9.79672 151.163 9.79672 149.11C9.79672 147.203 10.1451 145.553 10.8417 144.16C11.5384 142.767 12.4551 141.63 13.5917 140.75C14.7651 139.833 16.0301 139.155 17.3867 138.715C18.7434 138.275 20.0817 138.055 21.4017 138.055C23.6017 138.055 25.4901 138.605 27.0667 139.705C28.6434 140.805 29.8534 142.217 30.6967 143.94C31.5401 145.663 31.9617 147.478 31.9617 149.385C31.9617 151.732 31.4301 153.748 30.3667 155.435C29.3034 157.122 27.8917 158.423 26.1317 159.34C24.4084 160.257 22.5017 160.715 20.4117 160.715ZM21.9517 159.725C24.0051 159.725 25.6551 159.047 26.9017 157.69C28.1484 156.297 28.7717 154.005 28.7717 150.815C28.7717 148.578 28.3867 146.58 27.6167 144.82C26.8467 143.06 25.7651 141.667 24.3717 140.64C23.0151 139.613 21.4201 139.1 19.5867 139.1C17.4967 139.1 15.8651 139.833 14.6917 141.3C13.5184 142.73 12.9317 144.802 12.9317 147.515C12.9317 149.678 13.2984 151.695 14.0317 153.565C14.8017 155.435 15.8651 156.938 17.2217 158.075C18.5784 159.175 20.1551 159.725 21.9517 159.725ZM35.7327 160C35.6227 160 35.5677 159.89 35.5677 159.67C35.5677 159.45 35.6227 159.34 35.7327 159.34C37.3093 159.34 38.2993 159.102 38.7027 158.625C39.1427 158.148 39.3627 157.122 39.3627 155.545V143.225C39.3627 141.612 39.1427 140.585 38.7027 140.145C38.2993 139.668 37.3277 139.43 35.7877 139.43C35.6777 139.43 35.6227 139.32 35.6227 139.1C35.6227 138.88 35.6777 138.77 35.7877 138.77C36.4477 138.77 37.1993 138.788 38.0427 138.825C38.9227 138.862 39.821 138.88 40.7377 138.88C41.7277 138.88 42.6993 138.862 43.6527 138.825C44.606 138.788 45.4493 138.77 46.1827 138.77C46.2927 138.77 46.3477 138.88 46.3477 139.1C46.3477 139.32 46.2927 139.43 46.1827 139.43C44.386 139.43 43.231 139.687 42.7177 140.2C42.2043 140.713 41.9477 141.758 41.9477 143.335V155.545C41.9477 157.122 42.1493 158.148 42.5527 158.625C42.9927 159.102 44.001 159.34 45.5777 159.34C45.651 159.34 45.6877 159.45 45.6877 159.67C45.6877 159.89 45.651 160 45.5777 160C44.881 160 44.111 159.982 43.2677 159.945C42.4243 159.908 41.581 159.89 40.7377 159.89C39.821 159.89 38.9227 159.908 38.0427 159.945C37.1993 159.982 36.4293 160 35.7327 160ZM53.0577 160C52.911 160 52.801 159.982 52.7277 159.945C52.6543 159.872 52.5443 159.688 52.3977 159.395C52.251 159.065 51.976 158.552 51.5727 157.855C51.206 157.122 50.6193 156.077 49.8127 154.72C48.9327 153.253 48.1627 152.153 47.5027 151.42C46.8793 150.65 46.2193 150.137 45.5227 149.88C44.8627 149.587 44.0377 149.44 43.0477 149.44C42.3877 149.44 41.5627 149.495 40.5727 149.605L40.5177 148.615C41.251 148.578 41.911 148.56 42.4977 148.56C43.121 148.523 43.671 148.487 44.1477 148.45C44.661 148.413 45.1377 148.395 45.5777 148.395C46.7143 148.395 47.6127 148.542 48.2727 148.835C48.9693 149.092 49.611 149.587 50.1977 150.32C50.821 151.053 51.591 152.153 52.5077 153.62C53.3143 154.867 53.9927 155.912 54.5427 156.755C55.0927 157.562 55.6977 158.185 56.3577 158.625C57.0177 159.065 57.8977 159.303 58.9977 159.34C59.071 159.34 59.1077 159.45 59.1077 159.67C59.1077 159.89 59.071 160 58.9977 160H53.0577ZM45.5777 149.275V148.395C45.981 148.395 46.3477 148.285 46.6777 148.065C47.0077 147.845 47.301 147.552 47.5577 147.185C47.851 146.782 48.126 146.342 48.3827 145.865C49.1893 144.362 49.8677 143.042 50.4177 141.905C51.0043 140.768 51.6093 139.888 52.2327 139.265C52.8927 138.605 53.7177 138.275 54.7077 138.275C55.4777 138.275 56.046 138.458 56.4127 138.825C56.816 139.192 57.0177 139.595 57.0177 140.035C57.0177 140.512 56.8343 140.952 56.4677 141.355C56.101 141.722 55.606 141.905 54.9827 141.905C54.6527 141.905 54.3777 141.85 54.1577 141.74C53.9377 141.593 53.736 141.465 53.5527 141.355C53.3693 141.245 53.1677 141.19 52.9477 141.19C52.6543 141.19 52.2693 141.465 51.7927 142.015C51.3527 142.565 50.8943 143.225 50.4177 143.995C49.941 144.765 49.5193 145.462 49.1527 146.085C48.676 146.965 48.1443 147.717 47.5577 148.34C47.0077 148.963 46.3477 149.275 45.5777 149.275ZM70.7389 160.715C68.5755 160.715 66.6872 160.183 65.0739 159.12C63.4972 158.057 62.2689 156.645 61.3889 154.885C60.5455 153.088 60.1239 151.163 60.1239 149.11C60.1239 147.203 60.4722 145.553 61.1689 144.16C61.8655 142.767 62.7822 141.63 63.9189 140.75C65.0922 139.833 66.3572 139.155 67.7139 138.715C69.0705 138.275 70.4089 138.055 71.7289 138.055C73.9289 138.055 75.8172 138.605 77.3939 139.705C78.9705 140.805 80.1805 142.217 81.0239 143.94C81.8672 145.663 82.2889 147.478 82.2889 149.385C82.2889 151.732 81.7572 153.748 80.6939 155.435C79.6305 157.122 78.2189 158.423 76.4589 159.34C74.7355 160.257 72.8289 160.715 70.7389 160.715ZM72.2789 159.725C74.3322 159.725 75.9822 159.047 77.2289 157.69C78.4755 156.297 79.0989 154.005 79.0989 150.815C79.0989 148.578 78.7139 146.58 77.9439 144.82C77.1739 143.06 76.0922 141.667 74.6989 140.64C73.3422 139.613 71.7472 139.1 69.9139 139.1C67.8239 139.1 66.1922 139.833 65.0189 141.3C63.8455 142.73 63.2589 144.802 63.2589 147.515C63.2589 149.678 63.6255 151.695 64.3589 153.565C65.1289 155.435 66.1922 156.938 67.5489 158.075C68.9055 159.175 70.4822 159.725 72.2789 159.725ZM90.8998 149.88V148.89H105.695V149.88H90.8998ZM89.6898 155.545V143.225C89.6898 141.612 89.4698 140.585 89.0298 140.145C88.6265 139.668 87.6548 139.43 86.1148 139.43C86.0048 139.43 85.9498 139.32 85.9498 139.1C85.9498 138.88 86.0048 138.77 86.1148 138.77C86.7748 138.77 87.5265 138.788 88.3698 138.825C89.2498 138.862 90.1481 138.88 91.0648 138.88C91.9081 138.88 92.7515 138.862 93.5948 138.825C94.4748 138.788 95.2448 138.77 95.9048 138.77C95.9781 138.77 96.0148 138.88 96.0148 139.1C96.0148 139.32 95.9781 139.43 95.9048 139.43C94.3281 139.43 93.3198 139.687 92.8798 140.2C92.4765 140.713 92.2748 141.758 92.2748 143.335V155.545C92.2748 157.122 92.4765 158.148 92.8798 158.625C93.3198 159.102 94.3281 159.34 95.9048 159.34C95.9781 159.34 96.0148 159.45 96.0148 159.67C96.0148 159.89 95.9781 160 95.9048 160C95.2081 160 94.4381 159.982 93.5948 159.945C92.7515 159.908 91.9081 159.89 91.0648 159.89C90.1481 159.89 89.2498 159.908 88.3698 159.945C87.5265 159.982 86.7565 160 86.0598 160C85.9498 160 85.8948 159.89 85.8948 159.67C85.8948 159.45 85.9498 159.34 86.0598 159.34C87.6365 159.34 88.6265 159.102 89.0298 158.625C89.4698 158.148 89.6898 157.122 89.6898 155.545ZM104.485 155.545V143.225C104.485 141.612 104.265 140.585 103.825 140.145C103.421 139.668 102.45 139.43 100.91 139.43C100.8 139.43 100.745 139.32 100.745 139.1C100.745 138.88 100.8 138.77 100.91 138.77C101.57 138.77 102.321 138.788 103.165 138.825C104.045 138.862 104.943 138.88 105.86 138.88C106.703 138.88 107.546 138.862 108.39 138.825C109.27 138.788 110.04 138.77 110.7 138.77C110.773 138.77 110.81 138.88 110.81 139.1C110.81 139.32 110.773 139.43 110.7 139.43C109.123 139.43 108.115 139.687 107.675 140.2C107.271 140.713 107.07 141.758 107.07 143.335V155.545C107.07 157.122 107.271 158.148 107.675 158.625C108.115 159.102 109.123 159.34 110.7 159.34C110.773 159.34 110.81 159.45 110.81 159.67C110.81 159.89 110.773 160 110.7 160C110.003 160 109.233 159.982 108.39 159.945C107.546 159.908 106.703 159.89 105.86 159.89C104.943 159.89 104.045 159.908 103.165 159.945C102.285 159.982 101.515 160 100.855 160C100.745 160 100.69 159.89 100.69 159.67C100.69 159.45 100.745 159.34 100.855 159.34C102.395 159.34 103.385 159.102 103.825 158.625C104.265 158.148 104.485 157.122 104.485 155.545ZM127.571 155.545V143.225C127.571 141.612 127.387 140.585 127.021 140.145C126.691 139.668 125.884 139.43 124.601 139.43C124.527 139.43 124.491 139.32 124.491 139.1C124.491 138.88 124.527 138.77 124.601 138.77C125.187 138.77 125.866 138.788 126.636 138.825C127.406 138.862 128.176 138.88 128.946 138.88C129.789 138.88 130.632 138.862 131.476 138.825C132.356 138.788 133.107 138.77 133.731 138.77C133.841 138.77 133.896 138.88 133.896 139.1C133.896 139.32 133.841 139.43 133.731 139.43C132.191 139.43 131.201 139.687 130.761 140.2C130.357 140.713 130.156 141.758 130.156 143.335V155.545C130.156 157.122 130.357 158.148 130.761 158.625C131.201 159.102 132.191 159.34 133.731 159.34C133.841 159.34 133.896 159.45 133.896 159.67C133.896 159.89 133.841 160 133.731 160C133.071 160 132.319 159.982 131.476 159.945C130.632 159.908 129.789 159.89 128.946 159.89C128.029 159.89 127.131 159.908 126.251 159.945C125.371 159.982 124.582 160 123.886 160C123.812 160 123.776 159.89 123.776 159.67C123.776 159.45 123.812 159.34 123.886 159.34C125.426 159.34 126.416 159.102 126.856 158.625C127.332 158.148 127.571 157.122 127.571 155.545ZM117.396 143.335C117.396 143.702 117.396 144.068 117.396 144.435C117.396 144.802 117.396 145.132 117.396 145.425C117.396 146.965 117.817 148.157 118.661 149C119.541 149.843 120.842 150.265 122.566 150.265C123.409 150.265 124.399 150.137 125.536 149.88C126.709 149.587 127.717 149.165 128.561 148.615L128.671 148.89C127.314 150.063 125.939 150.888 124.546 151.365C123.189 151.805 121.961 152.025 120.861 152.025C118.844 152.025 117.341 151.475 116.351 150.375C115.397 149.275 114.921 147.717 114.921 145.7V143.225C114.921 141.612 114.774 140.585 114.481 140.145C114.224 139.668 113.601 139.43 112.611 139.43C112.501 139.43 112.446 139.32 112.446 139.1C112.446 138.88 112.501 138.77 112.611 138.77C113.124 138.77 113.692 138.788 114.316 138.825C114.939 138.862 115.581 138.88 116.241 138.88C116.974 138.88 117.707 138.862 118.441 138.825C119.211 138.788 119.871 138.77 120.421 138.77C120.531 138.77 120.586 138.88 120.586 139.1C120.586 139.32 120.531 139.43 120.421 139.43C119.174 139.43 118.349 139.687 117.946 140.2C117.579 140.713 117.396 141.758 117.396 143.335ZM152.701 160.33C152.555 160.403 152.408 160.44 152.261 160.44C151.821 160.44 151.418 160.055 151.051 159.285C150.685 158.515 150.501 157.397 150.501 155.93V145.975C150.501 144.178 150.318 142.803 149.951 141.85C149.621 140.897 149.163 140.255 148.576 139.925C148.026 139.558 147.421 139.375 146.761 139.375C145.771 139.375 144.965 139.632 144.341 140.145C143.718 140.658 143.241 141.282 142.911 142.015C142.618 142.712 142.416 143.372 142.306 143.995C142.27 144.362 142.141 144.765 141.921 145.205C141.738 145.608 141.28 145.81 140.546 145.81C140.07 145.81 139.666 145.682 139.336 145.425C139.043 145.168 138.896 144.802 138.896 144.325C138.896 143.702 139.208 143.042 139.831 142.345C140.455 141.648 141.243 140.988 142.196 140.365C143.186 139.742 144.231 139.247 145.331 138.88C146.431 138.477 147.458 138.275 148.411 138.275C149.768 138.275 150.868 138.77 151.711 139.76C152.591 140.713 153.031 142.235 153.031 144.325V154.06C153.031 155.38 153.178 156.352 153.471 156.975C153.801 157.562 154.351 157.855 155.121 157.855C155.818 157.855 156.826 157.58 158.146 157.03C158.33 156.957 158.458 157.03 158.531 157.25C158.605 157.433 158.55 157.562 158.366 157.635L152.701 160.33ZM142.086 160.385C140.913 160.385 140.033 160.073 139.446 159.45C138.896 158.79 138.621 158.057 138.621 157.25C138.621 156.297 139.006 155.527 139.776 154.94C140.546 154.317 141.811 153.693 143.571 153.07L151.051 150.375L151.161 150.925L144.121 153.62C143.315 153.913 142.746 154.262 142.416 154.665C142.086 155.068 141.921 155.582 141.921 156.205C141.921 156.975 142.141 157.58 142.581 158.02C143.058 158.423 143.645 158.625 144.341 158.625C144.745 158.625 145.111 158.588 145.441 158.515C145.808 158.405 146.138 158.277 146.431 158.13L151.546 155.545L151.656 156.15L146.871 158.735C145.735 159.322 144.818 159.743 144.121 160C143.461 160.257 142.783 160.385 142.086 160.385ZM165.128 149.88V148.89H179.923V149.88H165.128ZM163.918 155.545V143.225C163.918 141.612 163.698 140.585 163.258 140.145C162.855 139.668 161.883 139.43 160.343 139.43C160.233 139.43 160.178 139.32 160.178 139.1C160.178 138.88 160.233 138.77 160.343 138.77C161.003 138.77 161.755 138.788 162.598 138.825C163.478 138.862 164.377 138.88 165.293 138.88C166.137 138.88 166.98 138.862 167.823 138.825C168.703 138.788 169.473 138.77 170.133 138.77C170.207 138.77 170.243 138.88 170.243 139.1C170.243 139.32 170.207 139.43 170.133 139.43C168.557 139.43 167.548 139.687 167.108 140.2C166.705 140.713 166.503 141.758 166.503 143.335V155.545C166.503 157.122 166.705 158.148 167.108 158.625C167.548 159.102 168.557 159.34 170.133 159.34C170.207 159.34 170.243 159.45 170.243 159.67C170.243 159.89 170.207 160 170.133 160C169.437 160 168.667 159.982 167.823 159.945C166.98 159.908 166.137 159.89 165.293 159.89C164.377 159.89 163.478 159.908 162.598 159.945C161.755 159.982 160.985 160 160.288 160C160.178 160 160.123 159.89 160.123 159.67C160.123 159.45 160.178 159.34 160.288 159.34C161.865 159.34 162.855 159.102 163.258 158.625C163.698 158.148 163.918 157.122 163.918 155.545ZM178.713 155.545V143.225C178.713 141.612 178.493 140.585 178.053 140.145C177.65 139.668 176.678 139.43 175.138 139.43C175.028 139.43 174.973 139.32 174.973 139.1C174.973 138.88 175.028 138.77 175.138 138.77C175.798 138.77 176.55 138.788 177.393 138.825C178.273 138.862 179.172 138.88 180.088 138.88C180.932 138.88 181.775 138.862 182.618 138.825C183.498 138.788 184.268 138.77 184.928 138.77C185.002 138.77 185.038 138.88 185.038 139.1C185.038 139.32 185.002 139.43 184.928 139.43C183.352 139.43 182.343 139.687 181.903 140.2C181.5 140.713 181.298 141.758 181.298 143.335V155.545C181.298 157.122 181.5 158.148 181.903 158.625C182.343 159.102 183.352 159.34 184.928 159.34C185.002 159.34 185.038 159.45 185.038 159.67C185.038 159.89 185.002 160 184.928 160C184.232 160 183.462 159.982 182.618 159.945C181.775 159.908 180.932 159.89 180.088 159.89C179.172 159.89 178.273 159.908 177.393 159.945C176.513 159.982 175.743 160 175.083 160C174.973 160 174.918 159.89 174.918 159.67C174.918 159.45 174.973 159.34 175.083 159.34C176.623 159.34 177.613 159.102 178.053 158.625C178.493 158.148 178.713 157.122 178.713 155.545ZM193.549 157.195L192.834 156.48L207.794 141.52L208.509 142.235L193.549 157.195ZM192.009 155.545V143.225C192.009 141.612 191.789 140.585 191.349 140.145C190.946 139.668 189.974 139.43 188.434 139.43C188.324 139.43 188.269 139.32 188.269 139.1C188.269 138.88 188.324 138.77 188.434 138.77C189.094 138.77 189.846 138.788 190.689 138.825C191.569 138.862 192.467 138.88 193.384 138.88C194.227 138.88 195.071 138.862 195.914 138.825C196.794 138.788 197.564 138.77 198.224 138.77C198.297 138.77 198.334 138.88 198.334 139.1C198.334 139.32 198.297 139.43 198.224 139.43C196.647 139.43 195.639 139.687 195.199 140.2C194.796 140.713 194.594 141.758 194.594 143.335V155.545C194.594 157.122 194.796 158.148 195.199 158.625C195.639 159.102 196.647 159.34 198.224 159.34C198.297 159.34 198.334 159.45 198.334 159.67C198.334 159.89 198.297 160 198.224 160C197.527 160 196.757 159.982 195.914 159.945C195.071 159.908 194.227 159.89 193.384 159.89C192.467 159.89 191.569 159.908 190.689 159.945C189.846 159.982 189.076 160 188.379 160C188.269 160 188.214 159.89 188.214 159.67C188.214 159.45 188.269 159.34 188.379 159.34C189.956 159.34 190.946 159.102 191.349 158.625C191.789 158.148 192.009 157.122 192.009 155.545ZM206.804 155.545V143.225C206.804 141.612 206.584 140.585 206.144 140.145C205.741 139.668 204.769 139.43 203.229 139.43C203.119 139.43 203.064 139.32 203.064 139.1C203.064 138.88 203.119 138.77 203.229 138.77C203.889 138.77 204.641 138.788 205.484 138.825C206.364 138.862 207.262 138.88 208.179 138.88C209.022 138.88 209.866 138.862 210.709 138.825C211.589 138.788 212.359 138.77 213.019 138.77C213.092 138.77 213.129 138.88 213.129 139.1C213.129 139.32 213.092 139.43 213.019 139.43C211.442 139.43 210.434 139.687 209.994 140.2C209.591 140.713 209.389 141.758 209.389 143.335V155.545C209.389 157.122 209.591 158.148 209.994 158.625C210.434 159.102 211.442 159.34 213.019 159.34C213.092 159.34 213.129 159.45 213.129 159.67C213.129 159.89 213.092 160 213.019 160C212.322 160 211.552 159.982 210.709 159.945C209.866 159.908 209.022 159.89 208.179 159.89C207.262 159.89 206.364 159.908 205.484 159.945C204.604 159.982 203.834 160 203.174 160C203.064 160 203.009 159.89 203.009 159.67C203.009 159.45 203.064 159.34 203.174 159.34C204.714 159.34 205.704 159.102 206.144 158.625C206.584 158.148 206.804 157.122 206.804 155.545ZM226.865 160.66C224.628 160.66 222.758 160.165 221.255 159.175C219.752 158.148 218.615 156.828 217.845 155.215C217.112 153.602 216.745 151.897 216.745 150.1C216.745 147.863 217.258 145.865 218.285 144.105C219.312 142.308 220.705 140.897 222.465 139.87C224.225 138.807 226.205 138.275 228.405 138.275C230.348 138.275 231.833 138.77 232.86 139.76C233.923 140.713 234.455 142.033 234.455 143.72C234.455 144.123 234.418 144.435 234.345 144.655C234.272 144.838 234.088 144.93 233.795 144.93H231.1C231.283 143.097 230.935 141.722 230.055 140.805C229.212 139.852 228.038 139.375 226.535 139.375C224.372 139.375 222.722 140.145 221.585 141.685C220.448 143.225 219.88 145.333 219.88 148.01C219.88 150.1 220.21 151.97 220.87 153.62C221.567 155.233 222.575 156.517 223.895 157.47C225.215 158.423 226.792 158.9 228.625 158.9C229.578 158.9 230.55 158.753 231.54 158.46C232.53 158.167 233.465 157.69 234.345 157.03C234.418 156.957 234.51 157.012 234.62 157.195C234.767 157.342 234.803 157.47 234.73 157.58C233.447 158.68 232.145 159.468 230.825 159.945C229.542 160.422 228.222 160.66 226.865 160.66ZM219.165 144.985L219.11 144.38L231.76 144.105V144.93L219.165 144.985ZM101.485 189.825C102.438 189.825 103.428 189.807 104.455 189.77C105.481 189.697 106.526 189.66 107.59 189.66C109.643 189.66 111.22 190.008 112.32 190.705C113.42 191.402 113.97 192.447 113.97 193.84C113.97 195.82 112.576 197.8 109.79 199.78L109.075 199.505C109.698 198.992 110.175 198.387 110.505 197.69C110.835 196.993 111 196.113 111 195.05C111 193.4 110.578 192.208 109.735 191.475C108.928 190.742 107.736 190.375 106.16 190.375C104.803 190.375 103.886 190.613 103.41 191.09C102.933 191.53 102.695 192.612 102.695 194.335V206.545C102.695 207.865 102.988 208.818 103.575 209.405C104.198 209.992 105.463 210.285 107.37 210.285C109.386 210.285 110.853 209.882 111.77 209.075C112.723 208.232 113.2 207.058 113.2 205.555C113.2 203.942 112.705 202.64 111.715 201.65C110.725 200.623 109.075 200.11 106.765 200.11H101.705L101.65 199.23H108.69C113.75 199.23 116.28 200.917 116.28 204.29C116.28 206.27 115.528 207.902 114.025 209.185C112.521 210.468 110.633 211.11 108.36 211.11C107.48 211.11 106.361 211.073 105.005 211C103.685 210.927 102.511 210.89 101.485 210.89C100.568 210.89 99.6697 210.908 98.7897 210.945C97.9464 210.982 97.1764 211 96.4797 211C96.3697 211 96.3147 210.89 96.3147 210.67C96.3147 210.45 96.3697 210.34 96.4797 210.34C98.0564 210.34 99.0464 210.102 99.4497 209.625C99.8897 209.148 100.11 208.122 100.11 206.545V194.225C100.11 192.612 99.8897 191.585 99.4497 191.145C99.0464 190.668 98.0747 190.43 96.5347 190.43C96.4247 190.43 96.3697 190.32 96.3697 190.1C96.3697 189.88 96.4247 189.77 96.5347 189.77C97.1947 189.77 97.9464 189.788 98.7897 189.825C99.6697 189.825 100.568 189.825 101.485 189.825ZM130.669 211.66C128.432 211.66 126.562 211.165 125.059 210.175C123.555 209.148 122.419 207.828 121.649 206.215C120.915 204.602 120.549 202.897 120.549 201.1C120.549 198.863 121.062 196.865 122.089 195.105C123.115 193.308 124.509 191.897 126.269 190.87C128.029 189.807 130.009 189.275 132.209 189.275C134.152 189.275 135.637 189.77 136.664 190.76C137.727 191.713 138.259 193.033 138.259 194.72C138.259 195.123 138.222 195.435 138.149 195.655C138.075 195.838 137.892 195.93 137.599 195.93H134.904C135.087 194.097 134.739 192.722 133.859 191.805C133.015 190.852 131.842 190.375 130.339 190.375C128.175 190.375 126.525 191.145 125.389 192.685C124.252 194.225 123.684 196.333 123.684 199.01C123.684 201.1 124.014 202.97 124.674 204.62C125.37 206.233 126.379 207.517 127.699 208.47C129.019 209.423 130.595 209.9 132.429 209.9C133.382 209.9 134.354 209.753 135.344 209.46C136.334 209.167 137.269 208.69 138.149 208.03C138.222 207.957 138.314 208.012 138.424 208.195C138.57 208.342 138.607 208.47 138.534 208.58C137.25 209.68 135.949 210.468 134.629 210.945C133.345 211.422 132.025 211.66 130.669 211.66ZM122.969 195.985L122.914 195.38L135.564 195.105V195.93L122.969 195.985ZM155.984 206.545V194.225C155.984 192.612 155.8 191.585 155.434 191.145C155.104 190.668 154.297 190.43 153.014 190.43C152.94 190.43 152.904 190.32 152.904 190.1C152.904 189.88 152.94 189.77 153.014 189.77C153.6 189.77 154.279 189.788 155.049 189.825C155.819 189.862 156.589 189.88 157.359 189.88C158.202 189.88 159.045 189.862 159.889 189.825C160.769 189.788 161.52 189.77 162.144 189.77C162.254 189.77 162.309 189.88 162.309 190.1C162.309 190.32 162.254 190.43 162.144 190.43C160.604 190.43 159.614 190.687 159.174 191.2C158.77 191.713 158.569 192.758 158.569 194.335V206.545C158.569 208.122 158.77 209.148 159.174 209.625C159.614 210.102 160.604 210.34 162.144 210.34C162.254 210.34 162.309 210.45 162.309 210.67C162.309 210.89 162.254 211 162.144 211C161.484 211 160.732 210.982 159.889 210.945C159.045 210.908 158.202 210.89 157.359 210.89C156.442 210.89 155.544 210.908 154.664 210.945C153.784 210.982 152.995 211 152.299 211C152.225 211 152.189 210.89 152.189 210.67C152.189 210.45 152.225 210.34 152.299 210.34C153.839 210.34 154.829 210.102 155.269 209.625C155.745 209.148 155.984 208.122 155.984 206.545ZM145.809 194.335C145.809 194.702 145.809 195.068 145.809 195.435C145.809 195.802 145.809 196.132 145.809 196.425C145.809 197.965 146.23 199.157 147.074 200C147.954 200.843 149.255 201.265 150.979 201.265C151.822 201.265 152.812 201.137 153.949 200.88C155.122 200.587 156.13 200.165 156.974 199.615L157.084 199.89C155.727 201.063 154.352 201.888 152.959 202.365C151.602 202.805 150.374 203.025 149.274 203.025C147.257 203.025 145.754 202.475 144.764 201.375C143.81 200.275 143.334 198.717 143.334 196.7V194.225C143.334 192.612 143.187 191.585 142.894 191.145C142.637 190.668 142.014 190.43 141.024 190.43C140.914 190.43 140.859 190.32 140.859 190.1C140.859 189.88 140.914 189.77 141.024 189.77C141.537 189.77 142.105 189.788 142.729 189.825C143.352 189.862 143.994 189.88 144.654 189.88C145.387 189.88 146.12 189.862 146.854 189.825C147.624 189.788 148.284 189.77 148.834 189.77C148.944 189.77 148.999 189.88 148.999 190.1C148.999 190.32 148.944 190.43 148.834 190.43C147.587 190.43 146.762 190.687 146.359 191.2C145.992 191.713 145.809 192.758 145.809 194.335ZM176.054 211.66C173.818 211.66 171.948 211.165 170.444 210.175C168.941 209.148 167.804 207.828 167.034 206.215C166.301 204.602 165.934 202.897 165.934 201.1C165.934 198.863 166.448 196.865 167.474 195.105C168.501 193.308 169.894 191.897 171.654 190.87C173.414 189.807 175.394 189.275 177.594 189.275C179.538 189.275 181.023 189.77 182.049 190.76C183.113 191.713 183.644 193.033 183.644 194.72C183.644 195.123 183.608 195.435 183.534 195.655C183.461 195.838 183.278 195.93 182.984 195.93H180.289C180.473 194.097 180.124 192.722 179.244 191.805C178.401 190.852 177.228 190.375 175.724 190.375C173.561 190.375 171.911 191.145 170.774 192.685C169.638 194.225 169.069 196.333 169.069 199.01C169.069 201.1 169.399 202.97 170.059 204.62C170.756 206.233 171.764 207.517 173.084 208.47C174.404 209.423 175.981 209.9 177.814 209.9C178.768 209.9 179.739 209.753 180.729 209.46C181.719 209.167 182.654 208.69 183.534 208.03C183.608 207.957 183.699 208.012 183.809 208.195C183.956 208.342 183.993 208.47 183.919 208.58C182.636 209.68 181.334 210.468 180.014 210.945C178.731 211.422 177.411 211.66 176.054 211.66ZM168.354 195.985L168.299 195.38L180.949 195.105V195.93L168.354 195.985ZM187.069 226.125C186.996 226.125 186.959 226.015 186.959 225.795C186.959 225.575 186.996 225.465 187.069 225.465C188.866 225.465 190.021 225.227 190.534 224.75C191.084 224.273 191.359 223.247 191.359 221.67V194.225C191.359 192.685 191.029 191.677 190.369 191.2C189.746 190.687 188.444 190.43 186.464 190.43C186.354 190.43 186.299 190.32 186.299 190.1C186.299 189.88 186.354 189.77 186.464 189.77C187.491 189.77 188.408 189.77 189.214 189.77C190.021 189.77 190.718 189.77 191.304 189.77C191.928 189.77 192.459 189.77 192.899 189.77C193.303 189.77 193.559 189.862 193.669 190.045C193.816 190.228 193.889 190.632 193.889 191.255V221.67C193.889 222.697 194.036 223.485 194.329 224.035C194.623 224.585 195.173 224.952 195.979 225.135C196.786 225.355 197.978 225.465 199.554 225.465C199.664 225.465 199.719 225.575 199.719 225.795C199.719 226.015 199.664 226.125 199.554 226.125C198.601 226.125 197.538 226.107 196.364 226.07C195.191 226.033 193.963 226.015 192.679 226.015C191.653 226.015 190.644 226.033 189.654 226.07C188.664 226.107 187.803 226.125 187.069 226.125ZM199.994 211.715C198.601 211.715 197.354 211.532 196.254 211.165C195.191 210.798 194.018 210.102 192.734 209.075L193.284 206.16C194.311 207.443 195.466 208.507 196.749 209.35C198.033 210.193 199.719 210.615 201.809 210.615C203.753 210.615 205.403 209.753 206.759 208.03C208.116 206.307 208.794 203.923 208.794 200.88C208.794 197.617 208.079 195.142 206.649 193.455C205.219 191.732 203.478 190.87 201.424 190.87C199.738 190.87 198.253 191.347 196.969 192.3C195.686 193.253 194.458 194.39 193.284 195.71L192.789 195.325C194.659 193.162 196.456 191.585 198.179 190.595C199.903 189.568 201.644 189.055 203.404 189.055C204.908 189.055 206.283 189.458 207.529 190.265C208.813 191.035 209.839 192.172 210.609 193.675C211.379 195.178 211.764 197.012 211.764 199.175C211.764 201.375 211.379 203.263 210.609 204.84C209.839 206.417 208.849 207.718 207.639 208.745C206.429 209.735 205.146 210.487 203.789 211C202.433 211.477 201.168 211.715 199.994 211.715ZM231.173 211.33C231.026 211.403 230.88 211.44 230.733 211.44C230.293 211.44 229.89 211.055 229.523 210.285C229.156 209.515 228.973 208.397 228.973 206.93V196.975C228.973 195.178 228.79 193.803 228.423 192.85C228.093 191.897 227.635 191.255 227.048 190.925C226.498 190.558 225.893 190.375 225.233 190.375C224.243 190.375 223.436 190.632 222.813 191.145C222.19 191.658 221.713 192.282 221.383 193.015C221.09 193.712 220.888 194.372 220.778 194.995C220.741 195.362 220.613 195.765 220.393 196.205C220.21 196.608 219.751 196.81 219.018 196.81C218.541 196.81 218.138 196.682 217.808 196.425C217.515 196.168 217.368 195.802 217.368 195.325C217.368 194.702 217.68 194.042 218.303 193.345C218.926 192.648 219.715 191.988 220.668 191.365C221.658 190.742 222.703 190.247 223.803 189.88C224.903 189.477 225.93 189.275 226.883 189.275C228.24 189.275 229.34 189.77 230.183 190.76C231.063 191.713 231.503 193.235 231.503 195.325V205.06C231.503 206.38 231.65 207.352 231.943 207.975C232.273 208.562 232.823 208.855 233.593 208.855C234.29 208.855 235.298 208.58 236.618 208.03C236.801 207.957 236.93 208.03 237.003 208.25C237.076 208.433 237.021 208.562 236.838 208.635L231.173 211.33ZM220.558 211.385C219.385 211.385 218.505 211.073 217.918 210.45C217.368 209.79 217.093 209.057 217.093 208.25C217.093 207.297 217.478 206.527 218.248 205.94C219.018 205.317 220.283 204.693 222.043 204.07L229.523 201.375L229.633 201.925L222.593 204.62C221.786 204.913 221.218 205.262 220.888 205.665C220.558 206.068 220.393 206.582 220.393 207.205C220.393 207.975 220.613 208.58 221.053 209.02C221.53 209.423 222.116 209.625 222.813 209.625C223.216 209.625 223.583 209.588 223.913 209.515C224.28 209.405 224.61 209.277 224.903 209.13L230.018 206.545L230.128 207.15L225.343 209.735C224.206 210.322 223.29 210.743 222.593 211C221.933 211.257 221.255 211.385 220.558 211.385Z" fill="#282828"/>
<path d="M54.552 87.56C58.648 84.296 62.072 81.416 64.824 78.92C67.64 76.424 69.88 74.216 71.544 72.296C73.208 70.312 74.392 68.456 75.096 66.728C75.864 65 76.248 63.272 76.248 61.544C76.248 58.92 75.448 56.808 73.848 55.208C72.312 53.608 70.296 52.808 67.8 52.808C65.24 52.808 63.064 53.832 61.272 55.88C59.48 57.864 58.008 60.808 56.856 64.712C56.792 64.84 56.568 64.872 56.184 64.808C55.8 64.744 55.64 64.616 55.704 64.424L59.448 49.832C59.512 49.64 59.736 49.608 60.12 49.736C60.504 49.8 60.632 49.896 60.504 50.024C60.248 51.112 60.28 51.816 60.6 52.136C60.984 52.456 61.4 52.616 61.848 52.616C62.808 52.616 64.088 52.296 65.688 51.656C67.352 51.016 69.368 50.696 71.736 50.696C75.064 50.696 77.656 51.592 79.512 53.384C81.368 55.112 82.296 57.384 82.296 60.2C82.296 61.928 81.88 63.656 81.048 65.384C80.216 67.048 78.968 68.808 77.304 70.664C75.64 72.456 73.528 74.408 70.968 76.52C68.472 78.632 65.528 81 62.136 83.624C61.88 83.816 61.816 83.976 61.944 84.104C62.072 84.232 62.264 84.296 62.52 84.296C67.192 84.296 70.968 84.264 73.848 84.2C76.728 84.072 78.968 83.848 80.568 83.528C82.168 83.144 83.32 82.536 84.024 81.704C84.792 80.808 85.336 79.592 85.656 78.056C85.72 77.928 85.912 77.896 86.232 77.96C86.616 77.96 86.808 78.024 86.808 78.152L85.368 87.944C85.368 88.2 85.272 88.456 85.08 88.712C84.952 88.904 84.76 89 84.504 89C79.96 89 75.128 89 70.008 89C64.888 89 59.96 89 55.224 89C54.968 89 54.744 88.84 54.552 88.52C54.36 88.136 54.36 87.816 54.552 87.56ZM95.289 115.4C95.033 115.464 94.809 115.304 94.617 114.92C94.489 114.6 94.553 114.408 94.809 114.344C99.033 113 102.521 111.4 105.273 109.544C108.025 107.688 110.201 105.672 111.801 103.496C113.465 101.32 114.617 99.144 115.257 96.968C115.897 94.856 116.217 92.84 116.217 90.92C116.217 88.872 115.865 86.92 115.161 85.064C114.457 83.144 113.305 81.608 111.705 80.456C110.169 79.24 108.089 78.632 105.465 78.632C104.697 78.632 103.929 78.664 103.161 78.728C102.393 78.792 101.593 78.952 100.761 79.208C100.569 79.272 100.409 79.112 100.281 78.728C100.153 78.344 100.185 78.12 100.377 78.056C105.497 76.712 109.049 74.888 111.033 72.584C113.081 70.28 114.105 67.176 114.105 63.272C114.105 60.136 113.433 57.608 112.089 55.688C110.809 53.768 108.697 52.808 105.753 52.808C103.001 52.808 100.633 53.704 98.649 55.496C96.665 57.288 95.097 60.2 93.945 64.232C93.881 64.36 93.657 64.392 93.273 64.328C92.889 64.264 92.729 64.136 92.793 63.944L96.345 49.928C96.473 49.736 96.697 49.704 97.017 49.832C97.401 49.896 97.561 49.992 97.497 50.12C97.241 51.208 97.305 51.944 97.689 52.328C98.073 52.648 98.489 52.808 98.937 52.808C99.897 52.808 101.209 52.456 102.873 51.752C104.537 51.048 106.553 50.696 108.921 50.696C112.633 50.696 115.449 51.816 117.369 54.056C119.289 56.296 120.249 58.824 120.249 61.64C120.249 64.008 119.705 66.312 118.617 68.552C117.529 70.728 115.961 72.648 113.913 74.312C111.865 75.912 109.401 77 106.521 77.576L107.961 76.328C111.417 76.392 114.265 77.064 116.505 78.344C118.745 79.624 120.409 81.288 121.497 83.336C122.585 85.384 123.129 87.56 123.129 89.864C123.129 92.808 122.137 95.912 120.153 99.176C118.233 102.504 115.193 105.576 111.033 108.392C106.937 111.272 101.689 113.608 95.289 115.4ZM136.442 90.056C135.162 90.056 134.138 89.704 133.37 89C132.602 88.232 132.218 87.208 132.218 85.928C132.218 84.712 132.602 83.752 133.37 83.048C134.138 82.28 135.162 81.896 136.442 81.896C137.786 81.896 138.81 82.28 139.514 83.048C140.218 83.752 140.57 84.712 140.57 85.928C140.57 87.208 140.218 88.232 139.514 89C138.81 89.704 137.786 90.056 136.442 90.056ZM136.442 63.08C135.162 63.08 134.138 62.728 133.37 62.024C132.602 61.256 132.218 60.232 132.218 58.952C132.218 57.736 132.602 56.776 133.37 56.072C134.138 55.304 135.162 54.92 136.442 54.92C137.786 54.92 138.81 55.304 139.514 56.072C140.218 56.776 140.57 57.736 140.57 58.952C140.57 60.232 140.218 61.256 139.514 62.024C138.81 62.728 137.786 63.08 136.442 63.08ZM168.915 90.248C165.075 90.248 161.651 89.384 158.643 87.656C155.699 85.928 153.395 83.56 151.731 80.552C150.067 77.544 149.235 74.088 149.235 70.184C149.235 66.344 150.067 62.984 151.731 60.104C153.395 57.16 155.731 54.856 158.739 53.192C161.747 51.528 165.171 50.696 169.011 50.696C172.851 50.696 176.211 51.56 179.091 53.288C181.971 54.952 184.211 57.288 185.811 60.296C187.475 63.24 188.307 66.632 188.307 70.472C188.307 74.312 187.475 77.736 185.811 80.744C184.211 83.688 181.939 86.024 178.995 87.752C176.115 89.416 172.755 90.248 168.915 90.248ZM169.971 88.904C173.939 88.904 176.883 87.304 178.803 84.104C180.723 80.904 181.683 76.744 181.683 71.624C181.683 67.08 181.043 63.368 179.763 60.488C178.483 57.608 176.787 55.496 174.675 54.152C172.627 52.744 170.387 52.04 167.955 52.04C164.115 52.04 161.107 53.672 158.931 56.936C156.819 60.2 155.763 64.36 155.763 69.416C155.763 73.128 156.339 76.456 157.491 79.4C158.707 82.344 160.371 84.68 162.483 86.408C164.595 88.072 167.091 88.904 169.971 88.904ZM214.665 90.248C210.825 90.248 207.401 89.384 204.393 87.656C201.449 85.928 199.145 83.56 197.481 80.552C195.817 77.544 194.985 74.088 194.985 70.184C194.985 66.344 195.817 62.984 197.481 60.104C199.145 57.16 201.481 54.856 204.489 53.192C207.497 51.528 210.921 50.696 214.761 50.696C218.601 50.696 221.961 51.56 224.841 53.288C227.721 54.952 229.961 57.288 231.561 60.296C233.225 63.24 234.057 66.632 234.057 70.472C234.057 74.312 233.225 77.736 231.561 80.744C229.961 83.688 227.689 86.024 224.745 87.752C221.865 89.416 218.505 90.248 214.665 90.248ZM215.721 88.904C219.689 88.904 222.633 87.304 224.553 84.104C226.473 80.904 227.433 76.744 227.433 71.624C227.433 67.08 226.793 63.368 225.513 60.488C224.233 57.608 222.537 55.496 220.425 54.152C218.377 52.744 216.137 52.04 213.705 52.04C209.865 52.04 206.857 53.672 204.681 56.936C202.569 60.2 201.513 64.36 201.513 69.416C201.513 73.128 202.089 76.456 203.241 79.4C204.457 82.344 206.121 84.68 208.233 86.408C210.345 88.072 212.841 88.904 215.721 88.904Z" fill="#282828"/>
</svg>
