<svg width="281" height="225" viewBox="0 0 281 225" fill="none" xmlns="http://www.w3.org/2000/svg">
<path d="M94.28 89C94.088 89 93.992 88.808 93.992 88.424C93.992 88.04 94.088 87.848 94.28 87.848C96.904 87.848 98.888 87.688 100.232 87.368C101.64 87.048 102.568 86.408 103.016 85.448C103.464 84.488 103.688 83.08 103.688 81.224V63.368C103.688 60.808 103.496 59.016 103.112 57.992C102.728 56.968 101.832 56.584 100.424 56.84C99.08 57.032 97 57.8 94.184 59.144C93.928 59.208 93.704 59.08 93.512 58.76C93.384 58.376 93.448 58.152 93.704 58.088L108.2 51.08C108.456 50.952 108.68 50.984 108.872 51.176C109.064 51.368 109.16 51.56 109.16 51.752V81.224C109.16 83.08 109.352 84.488 109.736 85.448C110.184 86.408 111.08 87.048 112.424 87.368C113.768 87.688 115.784 87.848 118.472 87.848C118.664 87.848 118.76 88.04 118.76 88.424C118.76 88.808 118.664 89 118.472 89C116.872 89 115.048 88.968 113 88.904C110.952 88.84 108.744 88.808 106.376 88.808C104.136 88.808 101.96 88.84 99.848 88.904C97.8 88.968 95.944 89 94.28 89ZM149.579 61.832C152.651 61.832 155.083 62.408 156.875 63.56C158.731 64.712 160.075 66.216 160.907 68.072C161.739 69.864 162.155 71.752 162.155 73.736C162.155 76.744 161.291 79.528 159.563 82.088C157.835 84.584 155.531 86.568 152.651 88.04C149.771 89.512 146.539 90.248 142.955 90.248C137.579 90.248 133.291 88.424 130.091 84.776C126.955 81.064 125.387 75.816 125.387 69.032C125.387 63.08 126.699 57.256 129.323 51.56C132.011 45.8 135.883 40.648 140.939 36.104C146.059 31.496 152.171 27.976 159.275 25.544C159.531 25.48 159.723 25.608 159.851 25.928C159.979 26.248 159.947 26.472 159.755 26.6C153.483 29.416 148.235 33.096 144.011 37.64C139.851 42.12 136.715 46.952 134.603 52.136C132.555 57.32 131.531 62.408 131.531 67.4C131.531 71.24 132.075 74.76 133.163 77.96C134.315 81.096 135.915 83.624 137.963 85.544C140.075 87.464 142.635 88.424 145.643 88.424C148.715 88.424 151.211 87.368 153.131 85.256C155.051 83.08 156.011 80.104 156.011 76.328C156.011 73 155.211 70.216 153.611 67.976C152.075 65.672 149.643 64.52 146.315 64.52C144.587 64.52 142.987 64.872 141.515 65.576C140.107 66.28 138.507 67.432 136.715 69.032C136.587 69.224 136.363 69.224 136.043 69.032C135.723 68.776 135.627 68.552 135.755 68.36C137.419 66.248 139.403 64.648 141.707 63.56C144.075 62.408 146.699 61.832 149.579 61.832ZM175.004 90.056C173.724 90.056 172.7 89.704 171.932 89C171.164 88.232 170.78 87.208 170.78 85.928C170.78 84.712 171.164 83.752 171.932 83.048C172.7 82.28 173.724 81.896 175.004 81.896C176.348 81.896 177.372 82.28 178.076 83.048C178.78 83.752 179.132 84.712 179.132 85.928C179.132 87.208 178.78 88.232 178.076 89C177.372 89.704 176.348 90.056 175.004 90.056ZM175.004 63.08C173.724 63.08 172.7 62.728 171.932 62.024C171.164 61.256 170.78 60.232 170.78 58.952C170.78 57.736 171.164 56.776 171.932 56.072C172.7 55.304 173.724 54.92 175.004 54.92C176.348 54.92 177.372 55.304 178.076 56.072C178.78 56.776 179.132 57.736 179.132 58.952C179.132 60.232 178.78 61.256 178.076 62.024C177.372 62.728 176.348 63.08 175.004 63.08ZM190.102 115.4C189.846 115.464 189.622 115.304 189.43 114.92C189.302 114.6 189.366 114.408 189.622 114.344C193.846 113 197.334 111.4 200.086 109.544C202.838 107.688 205.014 105.672 206.614 103.496C208.278 101.32 209.43 99.144 210.07 96.968C210.71 94.856 211.03 92.84 211.03 90.92C211.03 88.872 210.678 86.92 209.974 85.064C209.27 83.144 208.118 81.608 206.518 80.456C204.982 79.24 202.902 78.632 200.278 78.632C199.51 78.632 198.742 78.664 197.974 78.728C197.206 78.792 196.406 78.952 195.574 79.208C195.382 79.272 195.222 79.112 195.094 78.728C194.966 78.344 194.998 78.12 195.19 78.056C200.31 76.712 203.862 74.888 205.846 72.584C207.894 70.28 208.918 67.176 208.918 63.272C208.918 60.136 208.246 57.608 206.902 55.688C205.622 53.768 203.51 52.808 200.566 52.808C197.814 52.808 195.446 53.704 193.462 55.496C191.478 57.288 189.91 60.2 188.758 64.232C188.694 64.36 188.47 64.392 188.086 64.328C187.702 64.264 187.542 64.136 187.605 63.944L191.158 49.928C191.286 49.736 191.51 49.704 191.83 49.832C192.214 49.896 192.374 49.992 192.31 50.12C192.054 51.208 192.118 51.944 192.502 52.328C192.886 52.648 193.302 52.808 193.75 52.808C194.71 52.808 196.022 52.456 197.686 51.752C199.35 51.048 201.366 50.696 203.734 50.696C207.446 50.696 210.262 51.816 212.182 54.056C214.102 56.296 215.062 58.824 215.062 61.64C215.062 64.008 214.518 66.312 213.43 68.552C212.342 70.728 210.774 72.648 208.726 74.312C206.678 75.912 204.214 77 201.334 77.576L202.774 76.328C206.23 76.392 209.078 77.064 211.318 78.344C213.558 79.624 215.222 81.288 216.31 83.336C217.398 85.384 217.942 87.56 217.942 89.864C217.942 92.808 216.95 95.912 214.966 99.176C213.046 102.504 210.006 105.576 205.846 108.392C201.75 111.272 196.502 113.608 190.102 115.4ZM244.79 90.248C240.95 90.248 237.526 89.384 234.518 87.656C231.574 85.928 229.27 83.56 227.606 80.552C225.942 77.544 225.11 74.088 225.11 70.184C225.11 66.344 225.942 62.984 227.606 60.104C229.27 57.16 231.606 54.856 234.614 53.192C237.622 51.528 241.046 50.696 244.886 50.696C248.726 50.696 252.086 51.56 254.966 53.288C257.846 54.952 260.086 57.288 261.686 60.296C263.35 63.24 264.182 66.632 264.182 70.472C264.182 74.312 263.35 77.736 261.686 80.744C260.086 83.688 257.814 86.024 254.87 87.752C251.99 89.416 248.63 90.248 244.79 90.248ZM245.846 88.904C249.814 88.904 252.758 87.304 254.678 84.104C256.598 80.904 257.558 76.744 257.558 71.624C257.558 67.08 256.918 63.368 255.638 60.488C254.358 57.608 252.662 55.496 250.55 54.152C248.502 52.744 246.262 52.04 243.83 52.04C239.99 52.04 236.982 53.672 234.806 56.936C232.694 60.2 231.638 64.36 231.638 69.416C231.638 73.128 232.214 76.456 233.366 79.4C234.582 82.344 236.246 84.68 238.358 86.408C240.47 88.072 242.966 88.904 245.846 88.904Z" fill="#282828"/>
<path d="M74.2621 127.825C75.2154 127.825 76.2054 127.807 77.2321 127.77C78.2587 127.697 79.3037 127.66 80.3671 127.66C82.4204 127.66 83.9971 128.008 85.0971 128.705C86.1971 129.402 86.7471 130.447 86.7471 131.84C86.7471 133.82 85.3537 135.8 82.5671 137.78L81.8521 137.505C82.4754 136.992 82.9521 136.387 83.2821 135.69C83.6121 134.993 83.7771 134.113 83.7771 133.05C83.7771 131.4 83.3554 130.208 82.5121 129.475C81.7054 128.742 80.5137 128.375 78.9371 128.375C77.5804 128.375 76.6637 128.613 76.1871 129.09C75.7104 129.53 75.4721 130.612 75.4721 132.335V144.545C75.4721 145.865 75.7654 146.818 76.3521 147.405C76.9754 147.992 78.2404 148.285 80.1471 148.285C82.1637 148.285 83.6304 147.882 84.5471 147.075C85.5004 146.232 85.9771 145.058 85.9771 143.555C85.9771 141.942 85.4821 140.64 84.4921 139.65C83.5021 138.623 81.8521 138.11 79.5421 138.11H74.4821L74.4271 137.23H81.4671C86.5271 137.23 89.0571 138.917 89.0571 142.29C89.0571 144.27 88.3054 145.902 86.8021 147.185C85.2987 148.468 83.4104 149.11 81.1371 149.11C80.2571 149.11 79.1387 149.073 77.7821 149C76.4621 148.927 75.2887 148.89 74.2621 148.89C73.3454 148.89 72.4471 148.908 71.5671 148.945C70.7237 148.982 69.9537 149 69.2571 149C69.1471 149 69.0921 148.89 69.0921 148.67C69.0921 148.45 69.1471 148.34 69.2571 148.34C70.8337 148.34 71.8237 148.102 72.2271 147.625C72.6671 147.148 72.8871 146.122 72.8871 144.545V132.225C72.8871 130.612 72.6671 129.585 72.2271 129.145C71.8237 128.668 70.8521 128.43 69.3121 128.43C69.2021 128.43 69.1471 128.32 69.1471 128.1C69.1471 127.88 69.2021 127.77 69.3121 127.77C69.9721 127.77 70.7237 127.788 71.5671 127.825C72.4471 127.825 73.3454 127.825 74.2621 127.825ZM113.896 149C113.786 149 113.731 148.89 113.731 148.67C113.731 148.45 113.786 148.34 113.896 148.34C115.473 148.34 116.463 148.102 116.866 147.625C117.306 147.148 117.526 146.122 117.526 144.545V132.225C117.526 130.612 117.306 129.585 116.866 129.145C116.463 128.668 115.491 128.43 113.951 128.43C113.841 128.43 113.786 128.32 113.786 128.1C113.786 127.88 113.841 127.77 113.951 127.77C114.611 127.77 115.363 127.788 116.206 127.825C117.086 127.862 117.984 127.88 118.901 127.88C119.744 127.88 120.588 127.862 121.431 127.825C122.311 127.788 123.063 127.77 123.686 127.77C123.796 127.77 123.851 127.88 123.851 128.1C123.851 128.32 123.796 128.43 123.686 128.43C122.146 128.43 121.156 128.687 120.716 129.2C120.313 129.713 120.111 130.758 120.111 132.335V144.545C120.111 146.122 120.313 147.148 120.716 147.625C121.156 148.102 122.146 148.34 123.686 148.34C123.796 148.34 123.851 148.45 123.851 148.67C123.851 148.89 123.796 149 123.686 149C123.026 149 122.274 148.982 121.431 148.945C120.588 148.908 119.744 148.89 118.901 148.89C117.984 148.89 117.086 148.908 116.206 148.945C115.363 148.982 114.593 149 113.896 149ZM99.266 132.335V144.545C99.266 145.865 99.5593 146.818 100.146 147.405C100.769 147.992 102.034 148.285 103.941 148.285C105.738 148.285 107.058 147.882 107.901 147.075C108.781 146.232 109.221 145.058 109.221 143.555C109.221 141.758 108.763 140.31 107.846 139.21C106.929 138.073 105.426 137.505 103.336 137.505C102.493 137.505 101.686 137.578 100.916 137.725C100.183 137.835 99.3943 138.092 98.551 138.495L98.221 137.89C99.3943 137.377 100.568 137.028 101.741 136.845C102.951 136.662 104.124 136.57 105.261 136.57C109.881 136.57 112.191 138.477 112.191 142.29C112.191 144.27 111.494 145.902 110.101 147.185C108.744 148.468 107.021 149.11 104.931 149.11C104.344 149.11 103.648 149.092 102.841 149.055C102.034 149.018 101.209 148.982 100.366 148.945C99.5227 148.908 98.7527 148.89 98.056 148.89C97.1393 148.89 96.241 148.908 95.361 148.945C94.5177 148.982 93.7477 149 93.051 149C92.941 149 92.886 148.89 92.886 148.67C92.886 148.45 92.941 148.34 93.051 148.34C94.6277 148.34 95.6177 148.102 96.021 147.625C96.461 147.148 96.681 146.122 96.681 144.545V132.225C96.681 130.612 96.461 129.585 96.021 129.145C95.6177 128.668 94.646 128.43 93.106 128.43C92.996 128.43 92.941 128.32 92.941 128.1C92.941 127.88 92.996 127.77 93.106 127.77C93.766 127.77 94.5177 127.788 95.361 127.825C96.241 127.862 97.1393 127.88 98.056 127.88C99.046 127.88 100.018 127.862 100.971 127.825C101.924 127.788 102.768 127.77 103.501 127.77C103.611 127.77 103.666 127.88 103.666 128.1C103.666 128.32 103.611 128.43 103.501 128.43C101.704 128.43 100.549 128.687 100.036 129.2C99.5227 129.713 99.266 130.758 99.266 132.335ZM137.606 149.66C135.37 149.66 133.5 149.165 131.996 148.175C130.493 147.148 129.356 145.828 128.586 144.215C127.853 142.602 127.486 140.897 127.486 139.1C127.486 136.863 128 134.865 129.026 133.105C130.053 131.308 131.446 129.897 133.206 128.87C134.966 127.807 136.946 127.275 139.146 127.275C141.09 127.275 142.575 127.77 143.601 128.76C144.665 129.713 145.196 131.033 145.196 132.72C145.196 133.123 145.16 133.435 145.086 133.655C145.013 133.838 144.83 133.93 144.536 133.93H141.841C142.025 132.097 141.676 130.722 140.796 129.805C139.953 128.852 138.78 128.375 137.276 128.375C135.113 128.375 133.463 129.145 132.326 130.685C131.19 132.225 130.621 134.333 130.621 137.01C130.621 139.1 130.951 140.97 131.611 142.62C132.308 144.233 133.316 145.517 134.636 146.47C135.956 147.423 137.533 147.9 139.366 147.9C140.32 147.9 141.291 147.753 142.281 147.46C143.271 147.167 144.206 146.69 145.086 146.03C145.16 145.957 145.251 146.012 145.361 146.195C145.508 146.342 145.545 146.47 145.471 146.58C144.188 147.68 142.886 148.468 141.566 148.945C140.283 149.422 138.963 149.66 137.606 149.66ZM129.906 133.985L129.851 133.38L142.501 133.105V133.93L129.906 133.985ZM157.209 148.945C158.932 148.945 160.179 148.45 160.949 147.46C161.719 146.433 162.104 145.187 162.104 143.72C162.104 141.997 161.572 140.567 160.509 139.43C159.482 138.293 157.722 137.725 155.229 137.725C155.082 137.725 154.991 137.633 154.954 137.45C154.954 137.23 155.046 137.12 155.229 137.12C157.502 137.12 159.079 136.735 159.959 135.965C160.876 135.195 161.334 134.187 161.334 132.94C161.334 131.327 160.967 130.135 160.234 129.365C159.501 128.558 158.382 128.155 156.879 128.155C155.192 128.155 153.909 128.613 153.029 129.53C152.149 130.41 151.416 131.712 150.829 133.435C150.792 133.508 150.664 133.527 150.444 133.49C150.224 133.453 150.132 133.398 150.169 133.325L151.599 126.615C151.636 126.505 151.764 126.487 151.984 126.56C152.204 126.597 152.296 126.652 152.259 126.725C152.149 127.275 152.186 127.66 152.369 127.88C152.589 128.063 152.827 128.155 153.084 128.155C153.451 128.155 153.854 128.063 154.294 127.88C154.771 127.697 155.339 127.513 155.999 127.33C156.659 127.147 157.447 127.055 158.364 127.055C160.344 127.055 161.811 127.55 162.764 128.54C163.754 129.493 164.249 130.575 164.249 131.785C164.249 133.142 163.662 134.37 162.489 135.47C161.316 136.533 159.721 137.23 157.704 137.56L157.814 137.12C159.501 137.01 160.894 137.23 161.994 137.78C163.094 138.33 163.919 139.1 164.469 140.09C165.019 141.043 165.294 142.07 165.294 143.17C165.294 144.527 164.909 145.7 164.139 146.69C163.406 147.643 162.397 148.377 161.114 148.89C159.831 149.403 158.419 149.66 156.879 149.66C155.706 149.66 154.569 149.513 153.469 149.22C152.369 148.963 151.452 148.652 150.719 148.285C150.462 148.138 150.297 148.01 150.224 147.9C150.151 147.79 150.096 147.607 150.059 147.35L149.619 142.895C149.619 142.785 149.711 142.712 149.894 142.675C150.077 142.638 150.187 142.693 150.224 142.84C150.737 144.747 151.599 146.25 152.809 147.35C154.056 148.413 155.522 148.945 157.209 148.945ZM168.829 156.095C168.829 154.518 168.811 153.235 168.774 152.245C168.738 151.255 168.683 150.467 168.609 149.88C168.573 149.293 168.554 148.853 168.554 148.56C168.554 148.23 168.701 148.028 168.994 147.955C169.288 147.845 169.526 147.79 169.709 147.79C171.359 147.79 172.826 146.598 174.109 144.215C175.393 141.832 176.438 138.147 177.244 133.16C177.464 131.84 177.464 130.832 177.244 130.135C177.061 129.402 176.658 128.907 176.034 128.65C175.411 128.393 174.604 128.265 173.614 128.265C173.541 128.265 173.504 128.173 173.504 127.99C173.504 127.77 173.541 127.66 173.614 127.66C173.944 127.66 174.513 127.678 175.319 127.715C176.163 127.715 177.061 127.715 178.014 127.715C178.968 127.715 179.848 127.733 180.654 127.77C181.461 127.77 181.993 127.77 182.249 127.77H192.039C192.113 127.77 192.149 127.88 192.149 128.1C192.149 128.32 192.113 128.43 192.039 128.43C190.829 128.43 189.913 128.54 189.289 128.76C188.703 128.98 188.299 129.365 188.079 129.915C187.896 130.465 187.804 131.272 187.804 132.335V144.545C187.804 145.645 187.914 146.433 188.134 146.91C188.391 147.35 188.794 147.625 189.344 147.735C189.894 147.845 190.628 147.9 191.544 147.9C191.801 147.9 191.948 147.937 191.984 148.01C192.021 148.047 192.039 148.23 192.039 148.56C192.039 148.853 192.021 149.293 191.984 149.88C191.948 150.467 191.893 151.255 191.819 152.245C191.783 153.235 191.764 154.518 191.764 156.095C191.764 156.242 191.654 156.315 191.434 156.315C191.251 156.315 191.159 156.242 191.159 156.095C191.159 153.638 190.903 151.842 190.389 150.705C189.876 149.568 188.813 149 187.199 149H174.219C172.753 149 171.579 149.568 170.699 150.705C169.856 151.842 169.434 153.638 169.434 156.095C169.434 156.242 169.324 156.315 169.104 156.315C168.921 156.315 168.829 156.242 168.829 156.095ZM171.139 148.945V147.845H179.554C181.314 147.845 182.579 147.808 183.349 147.735C184.156 147.625 184.669 147.332 184.889 146.855C185.109 146.378 185.219 145.608 185.219 144.545V132.225C185.219 131.088 185.183 130.3 185.109 129.86C185.036 129.383 184.798 129.09 184.394 128.98C183.991 128.87 183.294 128.815 182.304 128.815H181.864C181.094 128.815 180.489 128.943 180.049 129.2C179.646 129.42 179.334 129.768 179.114 130.245C178.931 130.722 178.766 131.327 178.619 132.06C178.106 134.993 177.593 137.45 177.079 139.43C176.566 141.41 176.016 143.023 175.429 144.27C174.879 145.48 174.256 146.452 173.559 147.185C172.863 147.918 172.056 148.505 171.139 148.945ZM200.479 138.88V137.89H215.274V138.88H200.479ZM199.269 144.545V132.225C199.269 130.612 199.049 129.585 198.609 129.145C198.206 128.668 197.234 128.43 195.694 128.43C195.584 128.43 195.529 128.32 195.529 128.1C195.529 127.88 195.584 127.77 195.694 127.77C196.354 127.77 197.106 127.788 197.949 127.825C198.829 127.862 199.727 127.88 200.644 127.88C201.487 127.88 202.331 127.862 203.174 127.825C204.054 127.788 204.824 127.77 205.484 127.77C205.557 127.77 205.594 127.88 205.594 128.1C205.594 128.32 205.557 128.43 205.484 128.43C203.907 128.43 202.899 128.687 202.459 129.2C202.056 129.713 201.854 130.758 201.854 132.335V144.545C201.854 146.122 202.056 147.148 202.459 147.625C202.899 148.102 203.907 148.34 205.484 148.34C205.557 148.34 205.594 148.45 205.594 148.67C205.594 148.89 205.557 149 205.484 149C204.787 149 204.017 148.982 203.174 148.945C202.331 148.908 201.487 148.89 200.644 148.89C199.727 148.89 198.829 148.908 197.949 148.945C197.106 148.982 196.336 149 195.639 149C195.529 149 195.474 148.89 195.474 148.67C195.474 148.45 195.529 148.34 195.639 148.34C197.216 148.34 198.206 148.102 198.609 147.625C199.049 147.148 199.269 146.122 199.269 144.545ZM214.064 144.545V132.225C214.064 130.612 213.844 129.585 213.404 129.145C213.001 128.668 212.029 128.43 210.489 128.43C210.379 128.43 210.324 128.32 210.324 128.1C210.324 127.88 210.379 127.77 210.489 127.77C211.149 127.77 211.901 127.788 212.744 127.825C213.624 127.862 214.522 127.88 215.439 127.88C216.282 127.88 217.126 127.862 217.969 127.825C218.849 127.788 219.619 127.77 220.279 127.77C220.352 127.77 220.389 127.88 220.389 128.1C220.389 128.32 220.352 128.43 220.279 128.43C218.702 128.43 217.694 128.687 217.254 129.2C216.851 129.713 216.649 130.758 216.649 132.335V144.545C216.649 146.122 216.851 147.148 217.254 147.625C217.694 148.102 218.702 148.34 220.279 148.34C220.352 148.34 220.389 148.45 220.389 148.67C220.389 148.89 220.352 149 220.279 149C219.582 149 218.812 148.982 217.969 148.945C217.126 148.908 216.282 148.89 215.439 148.89C214.522 148.89 213.624 148.908 212.744 148.945C211.864 148.982 211.094 149 210.434 149C210.324 149 210.269 148.89 210.269 148.67C210.269 148.45 210.324 148.34 210.434 148.34C211.974 148.34 212.964 148.102 213.404 147.625C213.844 147.148 214.064 146.122 214.064 144.545ZM239.185 149.33C239.038 149.403 238.891 149.44 238.745 149.44C238.305 149.44 237.901 149.055 237.535 148.285C237.168 147.515 236.985 146.397 236.985 144.93V134.975C236.985 133.178 236.801 131.803 236.435 130.85C236.105 129.897 235.646 129.255 235.06 128.925C234.51 128.558 233.905 128.375 233.245 128.375C232.255 128.375 231.448 128.632 230.825 129.145C230.201 129.658 229.725 130.282 229.395 131.015C229.101 131.712 228.9 132.372 228.79 132.995C228.753 133.362 228.625 133.765 228.405 134.205C228.221 134.608 227.763 134.81 227.03 134.81C226.553 134.81 226.15 134.682 225.82 134.425C225.526 134.168 225.38 133.802 225.38 133.325C225.38 132.702 225.691 132.042 226.315 131.345C226.938 130.648 227.726 129.988 228.68 129.365C229.67 128.742 230.715 128.247 231.815 127.88C232.915 127.477 233.941 127.275 234.895 127.275C236.251 127.275 237.351 127.77 238.195 128.76C239.075 129.713 239.515 131.235 239.515 133.325V143.06C239.515 144.38 239.661 145.352 239.955 145.975C240.285 146.562 240.835 146.855 241.605 146.855C242.301 146.855 243.31 146.58 244.63 146.03C244.813 145.957 244.941 146.03 245.015 146.25C245.088 146.433 245.033 146.562 244.85 146.635L239.185 149.33ZM228.57 149.385C227.396 149.385 226.516 149.073 225.93 148.45C225.38 147.79 225.105 147.057 225.105 146.25C225.105 145.297 225.49 144.527 226.26 143.94C227.03 143.317 228.295 142.693 230.055 142.07L237.535 139.375L237.645 139.925L230.605 142.62C229.798 142.913 229.23 143.262 228.9 143.665C228.57 144.068 228.405 144.582 228.405 145.205C228.405 145.975 228.625 146.58 229.065 147.02C229.541 147.423 230.128 147.625 230.825 147.625C231.228 147.625 231.595 147.588 231.925 147.515C232.291 147.405 232.621 147.277 232.915 147.13L238.03 144.545L238.14 145.15L233.355 147.735C232.218 148.322 231.301 148.743 230.605 149C229.945 149.257 229.266 149.385 228.57 149.385ZM266.242 148.34C266.315 148.34 266.352 148.45 266.352 148.67C266.352 148.89 266.315 149 266.242 149C265.618 149 264.885 148.982 264.042 148.945C263.235 148.908 262.373 148.89 261.457 148.89C260.467 148.89 259.55 148.908 258.707 148.945C257.9 148.982 257.13 149 256.397 149C256.323 149 256.287 148.89 256.287 148.67C256.287 148.45 256.323 148.34 256.397 148.34C257.973 148.34 258.963 148.102 259.367 147.625C259.807 147.148 260.027 146.122 260.027 144.545V138.385L260.632 138.495C259.605 138.495 258.67 138.66 257.827 138.99C256.983 139.283 256.158 139.87 255.352 140.75C254.545 141.593 253.665 142.858 252.712 144.545C252.015 145.792 251.465 146.745 251.062 147.405C250.695 148.028 250.402 148.45 250.182 148.67C249.962 148.89 249.723 149 249.467 149H245.122C245.048 149 245.012 148.89 245.012 148.67C245.012 148.45 245.048 148.34 245.122 148.34C246.075 148.34 246.863 148.083 247.487 147.57C248.147 147.02 248.697 146.378 249.137 145.645C249.577 144.875 249.998 144.142 250.402 143.445C251.172 142.088 252.162 140.915 253.372 139.925C254.618 138.935 255.957 138.44 257.387 138.44L257.772 138.66C255.718 138.66 254.087 138.44 252.877 138C251.703 137.523 250.86 136.882 250.347 136.075C249.87 135.268 249.632 134.352 249.632 133.325C249.632 131.565 250.237 130.172 251.447 129.145C252.693 128.118 254.343 127.605 256.397 127.605C257.02 127.605 257.845 127.66 258.872 127.77C259.898 127.843 260.76 127.88 261.457 127.88C262.373 127.88 263.217 127.862 263.987 127.825C264.793 127.788 265.527 127.77 266.187 127.77C266.26 127.77 266.297 127.88 266.297 128.1C266.297 128.32 266.26 128.43 266.187 128.43C264.72 128.43 263.748 128.668 263.272 129.145C262.795 129.585 262.557 130.612 262.557 132.225V144.545C262.557 146.122 262.795 147.148 263.272 147.625C263.785 148.102 264.775 148.34 266.242 148.34ZM252.437 132.06C252.437 133.747 252.858 135.14 253.702 136.24C254.582 137.34 255.883 137.89 257.607 137.89C258.12 137.89 258.688 137.853 259.312 137.78C259.935 137.707 260.43 137.633 260.797 137.56L260.027 137.945V132.335C260.027 130.648 259.788 129.548 259.312 129.035C258.835 128.522 257.845 128.265 256.342 128.265C253.738 128.265 252.437 129.53 252.437 132.06ZM51.9209 200H33.0559C32.9459 200 32.8909 199.89 32.8909 199.67C32.8909 199.45 32.9459 199.34 33.0559 199.34C34.5959 199.34 35.5676 199.083 35.9709 198.57C36.4109 198.057 36.6309 197.012 36.6309 195.435V183.225C36.6309 181.612 36.4109 180.585 35.9709 180.145C35.5676 179.668 34.5959 179.43 33.0559 179.43C32.9459 179.43 32.8909 179.32 32.8909 179.1C32.8909 178.88 32.9459 178.77 33.0559 178.77C33.7159 178.77 34.4676 178.788 35.3109 178.825C36.1542 178.862 36.9976 178.88 37.8409 178.88C38.7576 178.88 39.6559 178.862 40.5359 178.825C41.4159 178.788 42.2042 178.77 42.9009 178.77C42.9742 178.77 43.0109 178.88 43.0109 179.1C43.0109 179.32 42.9742 179.43 42.9009 179.43C41.3242 179.43 40.3159 179.668 39.8759 180.145C39.4359 180.585 39.2159 181.612 39.2159 183.225V195.545C39.2159 196.645 39.2526 197.433 39.3259 197.91C39.3992 198.387 39.6376 198.68 40.0409 198.79C40.4442 198.9 41.1226 198.955 42.0759 198.955H48.2909C49.2809 198.955 49.9776 198.9 50.3809 198.79C50.8209 198.68 51.0776 198.387 51.1509 197.91C51.2242 197.397 51.2609 196.572 51.2609 195.435V183.225C51.2609 181.612 51.0409 180.585 50.6009 180.145C50.1609 179.668 49.1709 179.43 47.6309 179.43C47.5576 179.43 47.5209 179.32 47.5209 179.1C47.5209 178.88 47.5576 178.77 47.6309 178.77C48.3276 178.77 49.0792 178.788 49.8859 178.825C50.7292 178.862 51.5909 178.88 52.4709 178.88C53.3876 178.88 54.2676 178.862 55.1109 178.825C55.9909 178.788 56.7792 178.77 57.4759 178.77C57.5859 178.77 57.6409 178.88 57.6409 179.1C57.6409 179.32 57.5859 179.43 57.4759 179.43C55.8992 179.43 54.8909 179.668 54.4509 180.145C54.0109 180.585 53.7909 181.612 53.7909 183.225V195.545C53.7909 196.425 53.8642 197.122 54.0109 197.635C54.1576 198.112 54.4876 198.442 55.0009 198.625C55.5509 198.808 56.3942 198.9 57.5309 198.9C57.8242 198.9 57.9892 198.937 58.0259 199.01C58.0626 199.047 58.0809 199.23 58.0809 199.56C58.0809 199.89 58.0626 200.293 58.0259 200.77C57.9892 201.283 57.9342 202.017 57.8609 202.97C57.8242 203.96 57.8059 205.335 57.8059 207.095C57.8059 207.242 57.6959 207.315 57.4759 207.315C57.2559 207.315 57.1459 207.242 57.1459 207.095C57.1459 205.225 57.0176 203.777 56.7609 202.75C56.5409 201.723 56.0459 201.008 55.2759 200.605C54.5426 200.202 53.4242 200 51.9209 200ZM71.3806 200.66C69.1439 200.66 67.2739 200.165 65.7706 199.175C64.2673 198.148 63.1306 196.828 62.3606 195.215C61.6273 193.602 61.2606 191.897 61.2606 190.1C61.2606 187.863 61.7739 185.865 62.8006 184.105C63.8273 182.308 65.2206 180.897 66.9806 179.87C68.7406 178.807 70.7206 178.275 72.9206 178.275C74.8639 178.275 76.3489 178.77 77.3756 179.76C78.4389 180.713 78.9706 182.033 78.9706 183.72C78.9706 184.123 78.9339 184.435 78.8606 184.655C78.7873 184.838 78.6039 184.93 78.3106 184.93H75.6156C75.7989 183.097 75.4506 181.722 74.5706 180.805C73.7273 179.852 72.5539 179.375 71.0506 179.375C68.8873 179.375 67.2373 180.145 66.1006 181.685C64.9639 183.225 64.3956 185.333 64.3956 188.01C64.3956 190.1 64.7256 191.97 65.3856 193.62C66.0823 195.233 67.0906 196.517 68.4106 197.47C69.7306 198.423 71.3073 198.9 73.1406 198.9C74.0939 198.9 75.0656 198.753 76.0556 198.46C77.0456 198.167 77.9806 197.69 78.8606 197.03C78.9339 196.957 79.0256 197.012 79.1356 197.195C79.2823 197.342 79.3189 197.47 79.2456 197.58C77.9623 198.68 76.6606 199.468 75.3406 199.945C74.0573 200.422 72.7373 200.66 71.3806 200.66ZM63.6806 184.985L63.6256 184.38L76.2756 184.105V184.93L63.6806 184.985ZM82.3956 215.125C82.3223 215.125 82.2856 215.015 82.2856 214.795C82.2856 214.575 82.3223 214.465 82.3956 214.465C84.1923 214.465 85.3473 214.227 85.8606 213.75C86.4106 213.273 86.6856 212.247 86.6856 210.67V183.225C86.6856 181.685 86.3556 180.677 85.6956 180.2C85.0723 179.687 83.7706 179.43 81.7906 179.43C81.6806 179.43 81.6256 179.32 81.6256 179.1C81.6256 178.88 81.6806 178.77 81.7906 178.77C82.8173 178.77 83.734 178.77 84.5406 178.77C85.3473 178.77 86.044 178.77 86.6306 178.77C87.254 178.77 87.7856 178.77 88.2256 178.77C88.629 178.77 88.8856 178.862 88.9956 179.045C89.1423 179.228 89.2156 179.632 89.2156 180.255V210.67C89.2156 211.697 89.3623 212.485 89.6556 213.035C89.949 213.585 90.499 213.952 91.3056 214.135C92.1123 214.355 93.304 214.465 94.8806 214.465C94.9906 214.465 95.0456 214.575 95.0456 214.795C95.0456 215.015 94.9906 215.125 94.8806 215.125C93.9273 215.125 92.864 215.107 91.6906 215.07C90.5173 215.033 89.289 215.015 88.0056 215.015C86.979 215.015 85.9706 215.033 84.9806 215.07C83.9906 215.107 83.129 215.125 82.3956 215.125ZM95.3206 200.715C93.9273 200.715 92.6806 200.532 91.5806 200.165C90.5173 199.798 89.344 199.102 88.0606 198.075L88.6106 195.16C89.6373 196.443 90.7923 197.507 92.0756 198.35C93.359 199.193 95.0456 199.615 97.1356 199.615C99.079 199.615 100.729 198.753 102.086 197.03C103.442 195.307 104.121 192.923 104.121 189.88C104.121 186.617 103.406 184.142 101.976 182.455C100.546 180.732 98.804 179.87 96.7506 179.87C95.064 179.87 93.579 180.347 92.2956 181.3C91.0123 182.253 89.784 183.39 88.6106 184.71L88.1156 184.325C89.9856 182.162 91.7823 180.585 93.5056 179.595C95.229 178.568 96.9706 178.055 98.7306 178.055C100.234 178.055 101.609 178.458 102.856 179.265C104.139 180.035 105.166 181.172 105.936 182.675C106.706 184.178 107.091 186.012 107.091 188.175C107.091 190.375 106.706 192.263 105.936 193.84C105.166 195.417 104.176 196.718 102.966 197.745C101.756 198.735 100.472 199.487 99.1156 200C97.759 200.477 96.494 200.715 95.3206 200.715ZM121.439 200.66C119.203 200.66 117.333 200.165 115.829 199.175C114.326 198.148 113.189 196.828 112.419 195.215C111.686 193.602 111.319 191.897 111.319 190.1C111.319 187.863 111.833 185.865 112.859 184.105C113.886 182.308 115.279 180.897 117.039 179.87C118.799 178.807 120.779 178.275 122.979 178.275C124.923 178.275 126.408 178.77 127.434 179.76C128.498 180.713 129.029 182.033 129.029 183.72C129.029 184.123 128.993 184.435 128.919 184.655C128.846 184.838 128.663 184.93 128.369 184.93H125.674C125.858 183.097 125.509 181.722 124.629 180.805C123.786 179.852 122.613 179.375 121.109 179.375C118.946 179.375 117.296 180.145 116.159 181.685C115.023 183.225 114.454 185.333 114.454 188.01C114.454 190.1 114.784 191.97 115.444 193.62C116.141 195.233 117.149 196.517 118.469 197.47C119.789 198.423 121.366 198.9 123.199 198.9C124.153 198.9 125.124 198.753 126.114 198.46C127.104 198.167 128.039 197.69 128.919 197.03C128.993 196.957 129.084 197.012 129.194 197.195C129.341 197.342 129.378 197.47 129.304 197.58C128.021 198.68 126.719 199.468 125.399 199.945C124.116 200.422 122.796 200.66 121.439 200.66ZM113.739 184.985L113.684 184.38L126.334 184.105V184.93L113.739 184.985ZM136.469 194.28L137.294 179.98L138.394 180.145L137.569 194.28C137.459 196.15 137.679 197.47 138.229 198.24C138.779 198.973 139.714 199.34 141.034 199.34C141.108 199.34 141.144 199.45 141.144 199.67C141.144 199.89 141.108 200 141.034 200C140.448 200 139.806 199.982 139.109 199.945C138.449 199.908 137.734 199.89 136.964 199.89C136.231 199.89 135.498 199.908 134.764 199.945C134.068 199.982 133.408 200 132.784 200C132.711 200 132.674 199.89 132.674 199.67C132.674 199.45 132.711 199.34 132.784 199.34C134.104 199.34 135.021 198.973 135.534 198.24C136.048 197.47 136.359 196.15 136.469 194.28ZM161.494 199.34C161.568 199.34 161.604 199.45 161.604 199.67C161.604 199.89 161.568 200 161.494 200C160.798 200 160.009 199.982 159.129 199.945C158.286 199.908 157.443 199.89 156.599 199.89C155.719 199.89 154.931 199.908 154.234 199.945C153.574 199.982 152.933 200 152.309 200C152.199 200 152.144 199.89 152.144 199.67C152.144 199.45 152.199 199.34 152.309 199.34C153.593 199.34 154.418 199.102 154.784 198.625C155.188 198.148 155.334 197.122 155.224 195.545L154.234 179.43H155.004L147.029 198.075C146.956 198.222 146.809 198.295 146.589 198.295C146.369 198.295 146.223 198.222 146.149 198.075L138.559 183.335C137.753 181.685 136.891 180.622 135.974 180.145C135.058 179.668 134.233 179.43 133.499 179.43C133.426 179.43 133.389 179.32 133.389 179.1C133.389 178.88 133.426 178.77 133.499 178.77C133.939 178.77 134.398 178.788 134.874 178.825C135.388 178.825 135.809 178.825 136.139 178.825C136.653 178.825 137.129 178.825 137.569 178.825C138.009 178.788 138.339 178.77 138.559 178.77C139.073 178.77 139.421 178.972 139.604 179.375C139.824 179.742 140.228 180.475 140.814 181.575L147.854 195.215L146.589 196.535L153.574 180.145C153.758 179.705 153.996 179.375 154.289 179.155C154.619 178.898 154.931 178.77 155.224 178.77C155.481 178.77 155.829 178.788 156.269 178.825C156.709 178.825 157.223 178.825 157.809 178.825C158.469 178.825 159.001 178.825 159.404 178.825C159.808 178.788 160.248 178.77 160.724 178.77C160.798 178.77 160.834 178.88 160.834 179.1C160.834 179.32 160.798 179.43 160.724 179.43C159.404 179.43 158.396 179.65 157.699 180.09C157.003 180.53 156.728 181.52 156.874 183.06L157.809 195.545C157.919 196.608 158.048 197.415 158.194 197.965C158.378 198.515 158.708 198.882 159.184 199.065C159.698 199.248 160.468 199.34 161.494 199.34ZM175.269 200.715C173.106 200.715 171.217 200.183 169.604 199.12C168.027 198.057 166.799 196.645 165.919 194.885C165.076 193.088 164.654 191.163 164.654 189.11C164.654 187.203 165.002 185.553 165.699 184.16C166.396 182.767 167.312 181.63 168.449 180.75C169.622 179.833 170.887 179.155 172.244 178.715C173.601 178.275 174.939 178.055 176.259 178.055C178.459 178.055 180.347 178.605 181.924 179.705C183.501 180.805 184.711 182.217 185.554 183.94C186.397 185.663 186.819 187.478 186.819 189.385C186.819 191.732 186.287 193.748 185.224 195.435C184.161 197.122 182.749 198.423 180.989 199.34C179.266 200.257 177.359 200.715 175.269 200.715ZM176.809 199.725C178.862 199.725 180.512 199.047 181.759 197.69C183.006 196.297 183.629 194.005 183.629 190.815C183.629 188.578 183.244 186.58 182.474 184.82C181.704 183.06 180.622 181.667 179.229 180.64C177.872 179.613 176.277 179.1 174.444 179.1C172.354 179.1 170.722 179.833 169.549 181.3C168.376 182.73 167.789 184.802 167.789 187.515C167.789 189.678 168.156 191.695 168.889 193.565C169.659 195.435 170.722 196.938 172.079 198.075C173.436 199.175 175.012 199.725 176.809 199.725ZM195.43 189.88V188.89H210.225V189.88H195.43ZM194.22 195.545V183.225C194.22 181.612 194 180.585 193.56 180.145C193.157 179.668 192.185 179.43 190.645 179.43C190.535 179.43 190.48 179.32 190.48 179.1C190.48 178.88 190.535 178.77 190.645 178.77C191.305 178.77 192.057 178.788 192.9 178.825C193.78 178.862 194.678 178.88 195.595 178.88C196.438 178.88 197.282 178.862 198.125 178.825C199.005 178.788 199.775 178.77 200.435 178.77C200.508 178.77 200.545 178.88 200.545 179.1C200.545 179.32 200.508 179.43 200.435 179.43C198.858 179.43 197.85 179.687 197.41 180.2C197.007 180.713 196.805 181.758 196.805 183.335V195.545C196.805 197.122 197.007 198.148 197.41 198.625C197.85 199.102 198.858 199.34 200.435 199.34C200.508 199.34 200.545 199.45 200.545 199.67C200.545 199.89 200.508 200 200.435 200C199.738 200 198.968 199.982 198.125 199.945C197.282 199.908 196.438 199.89 195.595 199.89C194.678 199.89 193.78 199.908 192.9 199.945C192.057 199.982 191.287 200 190.59 200C190.48 200 190.425 199.89 190.425 199.67C190.425 199.45 190.48 199.34 190.59 199.34C192.167 199.34 193.157 199.102 193.56 198.625C194 198.148 194.22 197.122 194.22 195.545ZM209.015 195.545V183.225C209.015 181.612 208.795 180.585 208.355 180.145C207.952 179.668 206.98 179.43 205.44 179.43C205.33 179.43 205.275 179.32 205.275 179.1C205.275 178.88 205.33 178.77 205.44 178.77C206.1 178.77 206.852 178.788 207.695 178.825C208.575 178.862 209.473 178.88 210.39 178.88C211.233 178.88 212.077 178.862 212.92 178.825C213.8 178.788 214.57 178.77 215.23 178.77C215.303 178.77 215.34 178.88 215.34 179.1C215.34 179.32 215.303 179.43 215.23 179.43C213.653 179.43 212.645 179.687 212.205 180.2C211.802 180.713 211.6 181.758 211.6 183.335V195.545C211.6 197.122 211.802 198.148 212.205 198.625C212.645 199.102 213.653 199.34 215.23 199.34C215.303 199.34 215.34 199.45 215.34 199.67C215.34 199.89 215.303 200 215.23 200C214.533 200 213.763 199.982 212.92 199.945C212.077 199.908 211.233 199.89 210.39 199.89C209.473 199.89 208.575 199.908 207.695 199.945C206.815 199.982 206.045 200 205.385 200C205.275 200 205.22 199.89 205.22 199.67C205.22 199.45 205.275 199.34 205.385 199.34C206.925 199.34 207.915 199.102 208.355 198.625C208.795 198.148 209.015 197.122 209.015 195.545ZM223.851 197.195L223.136 196.48L238.096 181.52L238.811 182.235L223.851 197.195ZM222.311 195.545V183.225C222.311 181.612 222.091 180.585 221.651 180.145C221.248 179.668 220.276 179.43 218.736 179.43C218.626 179.43 218.571 179.32 218.571 179.1C218.571 178.88 218.626 178.77 218.736 178.77C219.396 178.77 220.148 178.788 220.991 178.825C221.871 178.862 222.769 178.88 223.686 178.88C224.529 178.88 225.373 178.862 226.216 178.825C227.096 178.788 227.866 178.77 228.526 178.77C228.599 178.77 228.636 178.88 228.636 179.1C228.636 179.32 228.599 179.43 228.526 179.43C226.949 179.43 225.941 179.687 225.501 180.2C225.098 180.713 224.896 181.758 224.896 183.335V195.545C224.896 197.122 225.098 198.148 225.501 198.625C225.941 199.102 226.949 199.34 228.526 199.34C228.599 199.34 228.636 199.45 228.636 199.67C228.636 199.89 228.599 200 228.526 200C227.829 200 227.059 199.982 226.216 199.945C225.373 199.908 224.529 199.89 223.686 199.89C222.769 199.89 221.871 199.908 220.991 199.945C220.148 199.982 219.378 200 218.681 200C218.571 200 218.516 199.89 218.516 199.67C218.516 199.45 218.571 199.34 218.681 199.34C220.258 199.34 221.248 199.102 221.651 198.625C222.091 198.148 222.311 197.122 222.311 195.545ZM237.106 195.545V183.225C237.106 181.612 236.886 180.585 236.446 180.145C236.043 179.668 235.071 179.43 233.531 179.43C233.421 179.43 233.366 179.32 233.366 179.1C233.366 178.88 233.421 178.77 233.531 178.77C234.191 178.77 234.943 178.788 235.786 178.825C236.666 178.862 237.564 178.88 238.481 178.88C239.324 178.88 240.168 178.862 241.011 178.825C241.891 178.788 242.661 178.77 243.321 178.77C243.394 178.77 243.431 178.88 243.431 179.1C243.431 179.32 243.394 179.43 243.321 179.43C241.744 179.43 240.736 179.687 240.296 180.2C239.893 180.713 239.691 181.758 239.691 183.335V195.545C239.691 197.122 239.893 198.148 240.296 198.625C240.736 199.102 241.744 199.34 243.321 199.34C243.394 199.34 243.431 199.45 243.431 199.67C243.431 199.89 243.394 200 243.321 200C242.624 200 241.854 199.982 241.011 199.945C240.168 199.908 239.324 199.89 238.481 199.89C237.564 199.89 236.666 199.908 235.786 199.945C234.906 199.982 234.136 200 233.476 200C233.366 200 233.311 199.89 233.311 199.67C233.311 199.45 233.366 199.34 233.476 199.34C235.016 199.34 236.006 199.102 236.446 198.625C236.886 198.148 237.106 197.122 237.106 195.545ZM266.242 199.34C266.315 199.34 266.352 199.45 266.352 199.67C266.352 199.89 266.315 200 266.242 200C265.618 200 264.885 199.982 264.042 199.945C263.235 199.908 262.373 199.89 261.457 199.89C260.467 199.89 259.55 199.908 258.707 199.945C257.9 199.982 257.13 200 256.397 200C256.323 200 256.287 199.89 256.287 199.67C256.287 199.45 256.323 199.34 256.397 199.34C257.973 199.34 258.963 199.102 259.367 198.625C259.807 198.148 260.027 197.122 260.027 195.545V189.385L260.632 189.495C259.605 189.495 258.67 189.66 257.827 189.99C256.983 190.283 256.158 190.87 255.352 191.75C254.545 192.593 253.665 193.858 252.712 195.545C252.015 196.792 251.465 197.745 251.062 198.405C250.695 199.028 250.402 199.45 250.182 199.67C249.962 199.89 249.723 200 249.467 200H245.122C245.048 200 245.012 199.89 245.012 199.67C245.012 199.45 245.048 199.34 245.122 199.34C246.075 199.34 246.863 199.083 247.487 198.57C248.147 198.02 248.697 197.378 249.137 196.645C249.577 195.875 249.998 195.142 250.402 194.445C251.172 193.088 252.162 191.915 253.372 190.925C254.618 189.935 255.957 189.44 257.387 189.44L257.772 189.66C255.718 189.66 254.087 189.44 252.877 189C251.703 188.523 250.86 187.882 250.347 187.075C249.87 186.268 249.632 185.352 249.632 184.325C249.632 182.565 250.237 181.172 251.447 180.145C252.693 179.118 254.343 178.605 256.397 178.605C257.02 178.605 257.845 178.66 258.872 178.77C259.898 178.843 260.76 178.88 261.457 178.88C262.373 178.88 263.217 178.862 263.987 178.825C264.793 178.788 265.527 178.77 266.187 178.77C266.26 178.77 266.297 178.88 266.297 179.1C266.297 179.32 266.26 179.43 266.187 179.43C264.72 179.43 263.748 179.668 263.272 180.145C262.795 180.585 262.557 181.612 262.557 183.225V195.545C262.557 197.122 262.795 198.148 263.272 198.625C263.785 199.102 264.775 199.34 266.242 199.34ZM252.437 183.06C252.437 184.747 252.858 186.14 253.702 187.24C254.582 188.34 255.883 188.89 257.607 188.89C258.12 188.89 258.688 188.853 259.312 188.78C259.935 188.707 260.43 188.633 260.797 188.56L260.027 188.945V183.335C260.027 181.648 259.788 180.548 259.312 180.035C258.835 179.522 257.845 179.265 256.342 179.265C253.738 179.265 252.437 180.53 252.437 183.06Z" fill="#282828"/>
</svg>
