<svg width="173" height="98" viewBox="0 0 173 98" fill="none" xmlns="http://www.w3.org/2000/svg">
<path d="M3.52 59C3.392 59 3.328 58.872 3.328 58.616C3.328 58.36 3.392 58.232 3.52 58.232C5.26933 58.232 6.592 58.1253 7.488 57.912C8.42667 57.6987 9.04533 57.272 9.344 56.632C9.64267 55.992 9.792 55.0533 9.792 53.816V41.912C9.792 40.2053 9.664 39.0107 9.408 38.328C9.152 37.6453 8.55467 37.3893 7.616 37.56C6.72 37.688 5.33333 38.2 3.456 39.096C3.28533 39.1387 3.136 39.0533 3.008 38.84C2.92267 38.584 2.96533 38.4347 3.136 38.392L12.8 33.72C12.9707 33.6347 13.12 33.656 13.248 33.784C13.376 33.912 13.44 34.04 13.44 34.168V53.816C13.44 55.0533 13.568 55.992 13.824 56.632C14.1227 57.272 14.72 57.6987 15.616 57.912C16.512 58.1253 17.856 58.232 19.648 58.232C19.776 58.232 19.84 58.36 19.84 58.616C19.84 58.872 19.776 59 19.648 59C18.5813 59 17.3653 58.9787 16 58.936C14.6347 58.8933 13.1627 58.872 11.584 58.872C10.0907 58.872 8.64 58.8933 7.232 58.936C5.86667 58.9787 4.62933 59 3.52 59ZM26.242 46.456C30.466 46.456 33.858 46.968 36.418 47.992C38.978 49.016 40.834 50.424 41.986 52.216C43.138 54.008 43.714 56.0773 43.714 58.424C43.714 60.856 43.0953 63.0533 41.858 65.016C40.6207 67.0213 38.6793 68.9413 36.034 70.776C33.3887 72.6533 29.9113 74.5947 25.602 76.6C25.4313 76.6427 25.282 76.5573 25.154 76.344C25.026 76.1307 25.0473 75.9813 25.218 75.896C28.93 74.0613 31.81 72.2267 33.858 70.392C35.9487 68.6 37.3993 66.7867 38.21 64.952C39.0633 63.16 39.49 61.3467 39.49 59.512C39.49 56.0133 38.2953 53.2827 35.906 51.32C33.5593 49.3147 30.1247 48.312 25.602 48.312C25.09 48.312 24.8767 48.056 24.962 47.544L27.01 36.152C27.0527 35.8533 27.1167 35.6827 27.202 35.64C27.2873 35.5547 27.5007 35.4907 27.842 35.448C31.5113 35.0213 34.37 34.68 36.418 34.424C38.466 34.1253 39.9593 33.8907 40.898 33.72C41.8367 33.5067 42.434 33.272 42.69 33.016C42.9887 32.7173 43.202 32.3547 43.33 31.928C43.3727 31.8 43.5007 31.7573 43.714 31.8C43.97 31.8 44.0767 31.8853 44.034 32.056L42.754 36.728C42.5833 37.2827 42.37 37.624 42.114 37.752C41.858 37.8373 41.474 37.88 40.962 37.88L28.866 38.136C28.3113 38.136 27.9913 38.456 27.906 39.096L26.306 47.928L26.242 46.456ZM53.7735 59.704C52.9202 59.704 52.2375 59.4693 51.7255 59C51.2135 58.488 50.9575 57.8053 50.9575 56.952C50.9575 56.1413 51.2135 55.5013 51.7255 55.032C52.2375 54.52 52.9202 54.264 53.7735 54.264C54.6695 54.264 55.3522 54.52 55.8215 55.032C56.2908 55.5013 56.5255 56.1413 56.5255 56.952C56.5255 57.8053 56.2908 58.488 55.8215 59C55.3522 59.4693 54.6695 59.704 53.7735 59.704ZM53.7735 41.72C52.9202 41.72 52.2375 41.4853 51.7255 41.016C51.2135 40.504 50.9575 39.8213 50.9575 38.968C50.9575 38.1573 51.2135 37.5173 51.7255 37.048C52.2375 36.536 52.9202 36.28 53.7735 36.28C54.6695 36.28 55.3522 36.536 55.8215 37.048C56.2908 37.5173 56.5255 38.1573 56.5255 38.968C56.5255 39.8213 56.2908 40.504 55.8215 41.016C55.3522 41.4853 54.6695 41.72 53.7735 41.72ZM63.8385 76.6C63.6678 76.6427 63.5185 76.536 63.3905 76.28C63.3052 76.0667 63.3478 75.9387 63.5185 75.896C66.3345 75 68.6598 73.9333 70.4945 72.696C72.3292 71.4587 73.7798 70.1147 74.8465 68.664C75.9558 67.2133 76.7238 65.7627 77.1505 64.312C77.5772 62.904 77.7905 61.56 77.7905 60.28C77.7905 58.9147 77.5558 57.6133 77.0865 56.376C76.6172 55.096 75.8492 54.072 74.7825 53.304C73.7585 52.4933 72.3718 52.088 70.6225 52.088C70.1105 52.088 69.5985 52.1093 69.0865 52.152C68.5745 52.1947 68.0412 52.3013 67.4865 52.472C67.3585 52.5147 67.2518 52.408 67.1665 52.152C67.0812 51.896 67.1025 51.7467 67.2305 51.704C70.6438 50.808 73.0118 49.592 74.3345 48.056C75.6998 46.52 76.3825 44.4507 76.3825 41.848C76.3825 39.7573 75.9345 38.072 75.0385 36.792C74.1852 35.512 72.7772 34.872 70.8145 34.872C68.9798 34.872 67.4012 35.4693 66.0785 36.664C64.7558 37.8587 63.7105 39.8 62.9425 42.488C62.8998 42.5733 62.7505 42.5947 62.4945 42.552C62.2385 42.5093 62.1318 42.424 62.1745 42.296L64.5425 32.952C64.6278 32.824 64.7772 32.8027 64.9905 32.888C65.2465 32.9307 65.3532 32.9947 65.3105 33.08C65.1398 33.8053 65.1825 34.296 65.4385 34.552C65.6945 34.7653 65.9718 34.872 66.2705 34.872C66.9105 34.872 67.7852 34.6373 68.8945 34.168C70.0038 33.6987 71.3478 33.464 72.9265 33.464C75.4012 33.464 77.2785 34.2107 78.5585 35.704C79.8385 37.1973 80.4785 38.8827 80.4785 40.76C80.4785 42.3387 80.1158 43.8747 79.3905 45.368C78.6652 46.8187 77.6198 48.0987 76.2545 49.208C74.8892 50.2747 73.2465 51 71.3265 51.384L72.2865 50.552C74.5905 50.5947 76.4892 51.0427 77.9825 51.896C79.4758 52.7493 80.5852 53.8587 81.3105 55.224C82.0358 56.5893 82.3985 58.04 82.3985 59.576C82.3985 61.5387 81.7372 63.608 80.4145 65.784C79.1345 68.0027 77.1078 70.0507 74.3345 71.928C71.6038 73.848 68.1052 75.4053 63.8385 76.6ZM100.298 59.832C97.7375 59.832 95.4548 59.256 93.4495 58.104C91.4868 56.952 89.9508 55.3733 88.8415 53.368C87.7322 51.3627 87.1775 49.0587 87.1775 46.456C87.1775 43.896 87.7322 41.656 88.8415 39.736C89.9508 37.7733 91.5082 36.2373 93.5135 35.128C95.5188 34.0187 97.8015 33.464 100.362 33.464C102.922 33.464 105.162 34.04 107.082 35.192C109.002 36.3013 110.495 37.8587 111.562 39.864C112.671 41.8267 113.226 44.088 113.226 46.648C113.226 49.208 112.671 51.4907 111.562 53.496C110.495 55.4587 108.98 57.016 107.018 58.168C105.098 59.2773 102.858 59.832 100.298 59.832ZM101.002 58.936C103.647 58.936 105.61 57.8693 106.89 55.736C108.17 53.6027 108.81 50.8293 108.81 47.416C108.81 44.3867 108.383 41.912 107.53 39.992C106.676 38.072 105.546 36.664 104.138 35.768C102.772 34.8293 101.279 34.36 99.6575 34.36C97.0975 34.36 95.0922 35.448 93.6415 37.624C92.2335 39.8 91.5295 42.5733 91.5295 45.944C91.5295 48.4187 91.9135 50.6373 92.6815 52.6C93.4922 54.5627 94.6015 56.12 96.0095 57.272C97.4175 58.3813 99.0815 58.936 101.002 58.936Z" fill="#282828"/>
<path d="M5.52 91.288C4.432 91.288 3.544 91.056 2.856 90.592C2.184 90.112 1.688 89.512 1.368 88.792C1.048 88.056 0.888 87.312 0.888 86.56C0.888 85.76 1.04 85.048 1.344 84.424C1.648 83.8 2.048 83.272 2.544 82.84C3.056 82.408 3.616 82.08 4.224 81.856C4.832 81.632 5.432 81.52 6.024 81.52C6.472 81.52 6.904 81.584 7.32 81.712C7.736 81.824 8.08 81.984 8.352 82.192C8.624 82.4 8.76 82.632 8.76 82.888C8.76 83.08 8.696 83.248 8.568 83.392C8.456 83.52 8.288 83.584 8.064 83.584C7.84 83.584 7.648 83.512 7.488 83.368C7.328 83.224 7.2 83.072 7.104 82.912C6.912 82.64 6.68 82.424 6.408 82.264C6.152 82.088 5.768 82 5.256 82C4.28 82 3.536 82.36 3.024 83.08C2.512 83.784 2.256 84.712 2.256 85.864C2.256 86.68 2.4 87.448 2.688 88.168C2.976 88.872 3.416 89.448 4.008 89.896C4.616 90.328 5.4 90.544 6.36 90.544C6.776 90.544 7.2 90.488 7.632 90.376C8.08 90.248 8.48 90.024 8.832 89.704C8.88 89.672 8.928 89.688 8.976 89.752C9.04 89.816 9.048 89.864 9 89.896C8.456 90.392 7.904 90.752 7.344 90.976C6.784 91.184 6.176 91.288 5.52 91.288ZM14.9848 91.312C14.2648 91.312 13.5688 91.12 12.8968 90.736C12.2408 90.336 11.6968 89.712 11.2648 88.864C10.8488 88 10.6408 86.872 10.6408 85.48C10.6408 83.464 10.8568 81.84 11.2888 80.608C11.7208 79.36 12.3288 78.384 13.1128 77.68C13.8968 76.96 14.8168 76.384 15.8728 75.952C16.3048 75.776 16.7288 75.6 17.1448 75.424C17.5768 75.248 17.9768 75.024 18.3448 74.752C18.7128 74.464 19.0008 74.08 19.2088 73.6C19.2408 73.536 19.2968 73.52 19.3768 73.552C19.4568 73.568 19.4808 73.6 19.4488 73.648C19.3368 74.272 19.1688 74.776 18.9448 75.16C18.7208 75.528 18.4488 75.832 18.1288 76.072C17.8248 76.296 17.4728 76.496 17.0728 76.672C16.6888 76.832 16.2648 77.008 15.8008 77.2C15.0168 77.52 14.3288 77.92 13.7368 78.4C13.1448 78.88 12.6408 79.488 12.2248 80.224C11.8248 80.944 11.5208 81.832 11.3128 82.888C11.1048 83.928 11.0008 85.176 11.0008 86.632L10.8088 85.48C10.9848 84.632 11.2728 83.96 11.6728 83.464C12.0888 82.952 12.5448 82.576 13.0408 82.336C13.5368 82.08 14.0008 81.912 14.4328 81.832C14.8808 81.752 15.2088 81.712 15.4168 81.712C16.2968 81.712 17.0328 81.856 17.6248 82.144C18.2168 82.416 18.6888 82.784 19.0408 83.248C19.3928 83.712 19.6488 84.216 19.8088 84.76C19.9688 85.288 20.0488 85.808 20.0488 86.32C20.0488 87.36 19.8168 88.256 19.3528 89.008C18.8888 89.744 18.2728 90.312 17.5048 90.712C16.7368 91.112 15.8968 91.312 14.9848 91.312ZM15.6568 90.88C16.5368 90.88 17.2568 90.584 17.8168 89.992C18.3928 89.384 18.6808 88.376 18.6808 86.968C18.6808 86.04 18.5368 85.216 18.2488 84.496C17.9608 83.76 17.5448 83.176 17.0008 82.744C16.4728 82.312 15.8488 82.096 15.1288 82.096C14.4728 82.096 13.9208 82.296 13.4728 82.696C13.0248 83.08 12.6808 83.584 12.4408 84.208C12.2168 84.816 12.1048 85.464 12.1048 86.152C12.1048 87.016 12.2328 87.808 12.4888 88.528C12.7608 89.248 13.1608 89.824 13.6888 90.256C14.2168 90.672 14.8728 90.88 15.6568 90.88ZM26.4497 91.312C25.5057 91.312 24.6817 91.08 23.9777 90.616C23.2897 90.152 22.7537 89.536 22.3697 88.768C22.0017 87.984 21.8177 87.144 21.8177 86.248C21.8177 85.416 21.9697 84.696 22.2737 84.088C22.5777 83.48 22.9777 82.984 23.4737 82.6C23.9857 82.2 24.5377 81.904 25.1297 81.712C25.7217 81.52 26.3057 81.424 26.8817 81.424C27.8417 81.424 28.6657 81.664 29.3537 82.144C30.0417 82.624 30.5697 83.24 30.9377 83.992C31.3057 84.744 31.4897 85.536 31.4897 86.368C31.4897 87.392 31.2577 88.272 30.7937 89.008C30.3297 89.744 29.7137 90.312 28.9457 90.712C28.1937 91.112 27.3617 91.312 26.4497 91.312ZM27.1217 90.88C28.0177 90.88 28.7377 90.584 29.2817 89.992C29.8257 89.384 30.0977 88.384 30.0977 86.992C30.0977 86.016 29.9297 85.144 29.5937 84.376C29.2577 83.608 28.7857 83 28.1777 82.552C27.5857 82.104 26.8897 81.88 26.0897 81.88C25.1777 81.88 24.4657 82.2 23.9537 82.84C23.4417 83.464 23.1857 84.368 23.1857 85.552C23.1857 86.496 23.3457 87.376 23.6657 88.192C24.0017 89.008 24.4657 89.664 25.0577 90.16C25.6497 90.64 26.3377 90.88 27.1217 90.88ZM32.7512 97.6C32.7192 97.6 32.7032 97.552 32.7032 97.456C32.7032 97.36 32.7192 97.312 32.7512 97.312C33.5352 97.312 34.0392 97.208 34.2632 97C34.5032 96.792 34.6232 96.344 34.6232 95.656V83.68C34.6232 83.008 34.4792 82.568 34.1912 82.36C33.9192 82.136 33.3512 82.024 32.4872 82.024C32.4392 82.024 32.4152 81.976 32.4152 81.88C32.4152 81.784 32.4392 81.736 32.4872 81.736C32.9352 81.736 33.3352 81.736 33.6872 81.736C34.0392 81.736 34.3432 81.736 34.5992 81.736C34.8712 81.736 35.1032 81.736 35.2952 81.736C35.4712 81.736 35.5832 81.776 35.6312 81.856C35.6952 81.936 35.7272 82.112 35.7272 82.384V95.656C35.7272 96.104 35.7912 96.448 35.9192 96.688C36.0472 96.928 36.2872 97.088 36.6392 97.168C36.9912 97.264 37.5112 97.312 38.1992 97.312C38.2472 97.312 38.2712 97.36 38.2712 97.456C38.2712 97.552 38.2472 97.6 38.1992 97.6C37.7832 97.6 37.3192 97.592 36.8072 97.576C36.2952 97.56 35.7592 97.552 35.1992 97.552C34.7512 97.552 34.3112 97.56 33.8792 97.576C33.4472 97.592 33.0712 97.6 32.7512 97.6ZM38.3912 91.312C37.7832 91.312 37.2392 91.232 36.7592 91.072C36.2952 90.912 35.7832 90.608 35.2232 90.16L35.4632 88.888C35.9112 89.448 36.4152 89.912 36.9752 90.28C37.5352 90.648 38.2712 90.832 39.1832 90.832C40.0312 90.832 40.7512 90.456 41.3432 89.704C41.9352 88.952 42.2312 87.912 42.2312 86.584C42.2312 85.16 41.9192 84.08 41.2952 83.344C40.6712 82.592 39.9112 82.216 39.0152 82.216C38.2792 82.216 37.6312 82.424 37.0712 82.84C36.5112 83.256 35.9752 83.752 35.4632 84.328L35.2472 84.16C36.0632 83.216 36.8472 82.528 37.5992 82.096C38.3512 81.648 39.1112 81.424 39.8792 81.424C40.5352 81.424 41.1352 81.6 41.6792 81.952C42.2392 82.288 42.6872 82.784 43.0232 83.44C43.3592 84.096 43.5272 84.896 43.5272 85.84C43.5272 86.8 43.3592 87.624 43.0232 88.312C42.6872 89 42.2552 89.568 41.7272 90.016C41.1992 90.448 40.6392 90.776 40.0472 91C39.4552 91.208 38.9032 91.312 38.3912 91.312ZM58.0054 81.736C58.1014 81.736 58.1574 81.752 58.1734 81.784C58.1894 81.8 58.1974 81.856 58.1974 81.952C58.1814 82.432 58.1574 82.96 58.1254 83.536C58.0934 84.096 58.0774 84.536 58.0774 84.856C58.0774 84.888 58.0294 84.904 57.9334 84.904C57.8374 84.904 57.7894 84.888 57.7894 84.856C57.7894 83.816 57.6134 83.088 57.2614 82.672C56.9254 82.256 56.3174 82.048 55.4374 82.048C54.6534 82.048 54.1494 82.16 53.9254 82.384C53.7014 82.608 53.5894 83.056 53.5894 83.728V89.056C53.5894 89.744 53.6774 90.192 53.8534 90.4C54.0454 90.608 54.4854 90.712 55.1734 90.712C55.2054 90.712 55.2214 90.76 55.2214 90.856C55.2214 90.952 55.2054 91 55.1734 91C54.8694 91 54.5334 90.992 54.1654 90.976C53.7974 90.96 53.4294 90.952 53.0614 90.952C52.6614 90.952 52.2694 90.96 51.8854 90.976C51.5174 90.992 51.1814 91 50.8774 91C50.8294 91 50.8054 90.952 50.8054 90.856C50.8054 90.76 50.8294 90.712 50.8774 90.712C51.5654 90.712 51.9974 90.608 52.1734 90.4C52.3654 90.192 52.4614 89.744 52.4614 89.056V83.68C52.4614 82.976 52.3654 82.528 52.1734 82.336C51.9974 82.128 51.5734 82.024 50.9014 82.024C50.8534 82.024 50.8294 81.976 50.8294 81.88C50.8294 81.784 50.8534 81.736 50.9014 81.736H58.0054ZM64.5591 91.312C63.6151 91.312 62.7911 91.08 62.0871 90.616C61.3991 90.152 60.8631 89.536 60.4791 88.768C60.1111 87.984 59.9271 87.144 59.9271 86.248C59.9271 85.416 60.0791 84.696 60.3831 84.088C60.6871 83.48 61.0871 82.984 61.5831 82.6C62.0951 82.2 62.6471 81.904 63.2391 81.712C63.8311 81.52 64.4151 81.424 64.9911 81.424C65.9511 81.424 66.7751 81.664 67.4631 82.144C68.1511 82.624 68.6791 83.24 69.0471 83.992C69.4151 84.744 69.5991 85.536 69.5991 86.368C69.5991 87.392 69.3671 88.272 68.9031 89.008C68.4391 89.744 67.8231 90.312 67.0551 90.712C66.3031 91.112 65.4711 91.312 64.5591 91.312ZM65.2311 90.88C66.1271 90.88 66.8471 90.584 67.3911 89.992C67.9351 89.384 68.2071 88.384 68.2071 86.992C68.2071 86.016 68.0391 85.144 67.7031 84.376C67.3671 83.608 66.8951 83 66.2871 82.552C65.6951 82.104 64.9991 81.88 64.1991 81.88C63.2871 81.88 62.5751 82.2 62.0631 82.84C61.5511 83.464 61.2951 84.368 61.2951 85.552C61.2951 86.496 61.4551 87.376 61.7751 88.192C62.1111 89.008 62.5751 89.664 63.1671 90.16C63.7591 90.64 64.4471 90.88 65.2311 90.88ZM75.9966 91.288C74.9086 91.288 74.0206 91.056 73.3326 90.592C72.6606 90.112 72.1646 89.512 71.8446 88.792C71.5246 88.056 71.3646 87.312 71.3646 86.56C71.3646 85.76 71.5166 85.048 71.8206 84.424C72.1246 83.8 72.5246 83.272 73.0206 82.84C73.5326 82.408 74.0926 82.08 74.7006 81.856C75.3086 81.632 75.9086 81.52 76.5006 81.52C76.9486 81.52 77.3806 81.584 77.7966 81.712C78.2126 81.824 78.5566 81.984 78.8286 82.192C79.1006 82.4 79.2366 82.632 79.2366 82.888C79.2366 83.08 79.1726 83.248 79.0446 83.392C78.9326 83.52 78.7646 83.584 78.5406 83.584C78.3166 83.584 78.1246 83.512 77.9646 83.368C77.8046 83.224 77.6766 83.072 77.5806 82.912C77.3886 82.64 77.1566 82.424 76.8846 82.264C76.6286 82.088 76.2446 82 75.7326 82C74.7566 82 74.0126 82.36 73.5006 83.08C72.9886 83.784 72.7326 84.712 72.7326 85.864C72.7326 86.68 72.8766 87.448 73.1646 88.168C73.4526 88.872 73.8926 89.448 74.4846 89.896C75.0926 90.328 75.8766 90.544 76.8366 90.544C77.2526 90.544 77.6766 90.488 78.1086 90.376C78.5566 90.248 78.9566 90.024 79.3086 89.704C79.3566 89.672 79.4046 89.688 79.4526 89.752C79.5166 89.816 79.5246 89.864 79.4766 89.896C78.9326 90.392 78.3806 90.752 77.8206 90.976C77.2606 91.184 76.6526 91.288 75.9966 91.288ZM83.178 91C83.146 91 83.13 90.952 83.13 90.856C83.13 90.76 83.146 90.712 83.178 90.712C83.866 90.712 84.306 90.608 84.498 90.4C84.69 90.192 84.786 89.744 84.786 89.056V83.728C84.786 83.056 84.706 82.608 84.546 82.384C84.386 82.16 84.026 82.048 83.466 82.048C82.842 82.048 82.338 82.24 81.954 82.624C81.586 82.992 81.402 83.744 81.402 84.88C81.402 84.912 81.354 84.928 81.258 84.928C81.162 84.928 81.114 84.912 81.114 84.88C81.114 84.656 81.114 84.32 81.114 83.872C81.114 83.408 81.106 82.936 81.09 82.456C81.09 81.976 81.09 81.584 81.09 81.28C81.09 81.2 81.138 81.16 81.234 81.16C81.33 81.16 81.378 81.2 81.378 81.28C81.378 81.504 81.754 81.64 82.506 81.688C83.274 81.736 84.218 81.76 85.338 81.76C86.09 81.76 86.762 81.752 87.354 81.736C87.962 81.72 88.442 81.68 88.794 81.616C89.146 81.536 89.322 81.424 89.322 81.28C89.322 81.2 89.37 81.16 89.466 81.16C89.562 81.16 89.61 81.2 89.61 81.28C89.61 81.584 89.61 81.976 89.61 82.456C89.61 82.936 89.602 83.408 89.586 83.872C89.586 84.32 89.586 84.656 89.586 84.88C89.586 84.912 89.538 84.928 89.442 84.928C89.346 84.928 89.298 84.912 89.298 84.88C89.298 83.744 89.098 82.992 88.698 82.624C88.298 82.24 87.786 82.048 87.162 82.048C86.618 82.048 86.274 82.16 86.13 82.384C85.986 82.608 85.914 83.056 85.914 83.728V89.056C85.914 89.744 86.002 90.192 86.178 90.4C86.37 90.608 86.802 90.712 87.474 90.712C87.522 90.712 87.546 90.76 87.546 90.856C87.546 90.952 87.522 91 87.474 91C87.186 91 86.858 90.992 86.49 90.976C86.122 90.96 85.746 90.952 85.362 90.952C84.978 90.952 84.594 90.96 84.21 90.976C83.842 90.992 83.498 91 83.178 91ZM95.7493 91.288C94.7733 91.288 93.9573 91.072 93.3013 90.64C92.6453 90.192 92.1493 89.616 91.8133 88.912C91.4933 88.208 91.3333 87.464 91.3333 86.68C91.3333 85.704 91.5573 84.832 92.0053 84.064C92.4533 83.28 93.0613 82.664 93.8293 82.216C94.5973 81.752 95.4613 81.52 96.4213 81.52C97.2693 81.52 97.9173 81.736 98.3653 82.168C98.8293 82.584 99.0613 83.16 99.0613 83.896C99.0613 84.072 99.0453 84.208 99.0133 84.304C98.9813 84.384 98.9013 84.424 98.7733 84.424H97.5973C97.6773 83.624 97.5253 83.024 97.1413 82.624C96.7733 82.208 96.2613 82 95.6053 82C94.6613 82 93.9413 82.336 93.4453 83.008C92.9493 83.68 92.7013 84.6 92.7013 85.768C92.7013 86.68 92.8453 87.496 93.1333 88.216C93.4373 88.92 93.8773 89.48 94.4533 89.896C95.0293 90.312 95.7173 90.52 96.5173 90.52C96.9333 90.52 97.3573 90.456 97.7893 90.328C98.2213 90.2 98.6293 89.992 99.0133 89.704C99.0453 89.672 99.0853 89.696 99.1333 89.776C99.1973 89.84 99.2133 89.896 99.1813 89.944C98.6213 90.424 98.0533 90.768 97.4773 90.976C96.9173 91.184 96.3413 91.288 95.7493 91.288ZM92.3893 84.448L92.3653 84.184L97.8853 84.064V84.424L92.3893 84.448ZM103.196 89.776L102.884 89.464L109.412 82.936L109.724 83.248L103.196 89.776ZM102.524 89.056V83.68C102.524 82.976 102.428 82.528 102.236 82.336C102.06 82.128 101.636 82.024 100.964 82.024C100.916 82.024 100.892 81.976 100.892 81.88C100.892 81.784 100.916 81.736 100.964 81.736C101.252 81.736 101.58 81.744 101.948 81.76C102.332 81.776 102.724 81.784 103.124 81.784C103.492 81.784 103.86 81.776 104.228 81.76C104.612 81.744 104.948 81.736 105.236 81.736C105.268 81.736 105.284 81.784 105.284 81.88C105.284 81.976 105.268 82.024 105.236 82.024C104.548 82.024 104.108 82.136 103.916 82.36C103.74 82.584 103.652 83.04 103.652 83.728V89.056C103.652 89.744 103.74 90.192 103.916 90.4C104.108 90.608 104.548 90.712 105.236 90.712C105.268 90.712 105.284 90.76 105.284 90.856C105.284 90.952 105.268 91 105.236 91C104.932 91 104.596 90.992 104.228 90.976C103.86 90.96 103.492 90.952 103.124 90.952C102.724 90.952 102.332 90.96 101.948 90.976C101.58 90.992 101.244 91 100.94 91C100.892 91 100.868 90.952 100.868 90.856C100.868 90.76 100.892 90.712 100.94 90.712C101.628 90.712 102.06 90.608 102.236 90.4C102.428 90.192 102.524 89.744 102.524 89.056ZM108.98 89.056V83.68C108.98 82.976 108.884 82.528 108.692 82.336C108.516 82.128 108.092 82.024 107.42 82.024C107.372 82.024 107.348 81.976 107.348 81.88C107.348 81.784 107.372 81.736 107.42 81.736C107.708 81.736 108.036 81.744 108.404 81.76C108.788 81.776 109.18 81.784 109.58 81.784C109.948 81.784 110.316 81.776 110.684 81.76C111.068 81.744 111.404 81.736 111.692 81.736C111.724 81.736 111.74 81.784 111.74 81.88C111.74 81.976 111.724 82.024 111.692 82.024C111.004 82.024 110.564 82.136 110.372 82.36C110.196 82.584 110.108 83.04 110.108 83.728V89.056C110.108 89.744 110.196 90.192 110.372 90.4C110.564 90.608 111.004 90.712 111.692 90.712C111.724 90.712 111.74 90.76 111.74 90.856C111.74 90.952 111.724 91 111.692 91C111.388 91 111.052 90.992 110.684 90.976C110.316 90.96 109.948 90.952 109.58 90.952C109.18 90.952 108.788 90.96 108.404 90.976C108.02 90.992 107.684 91 107.396 91C107.348 91 107.324 90.952 107.324 90.856C107.324 90.76 107.348 90.712 107.396 90.712C108.068 90.712 108.5 90.608 108.692 90.4C108.884 90.192 108.98 89.744 108.98 89.056ZM106.34 79.576C106.884 79.576 107.252 79.424 107.444 79.12C107.636 78.8 107.772 78.464 107.852 78.112C107.932 77.84 108.028 77.592 108.14 77.368C108.252 77.144 108.452 77.032 108.74 77.032C108.964 77.032 109.124 77.088 109.22 77.2C109.316 77.312 109.364 77.48 109.364 77.704C109.364 78.088 109.22 78.448 108.932 78.784C108.644 79.104 108.268 79.368 107.804 79.576C107.356 79.768 106.876 79.864 106.364 79.864C105.836 79.864 105.34 79.76 104.876 79.552C104.428 79.344 104.06 79.072 103.772 78.736C103.5 78.384 103.364 78.024 103.364 77.656C103.364 77.448 103.412 77.296 103.508 77.2C103.62 77.088 103.772 77.032 103.964 77.032C104.268 77.032 104.476 77.136 104.588 77.344C104.7 77.536 104.796 77.792 104.876 78.112C104.94 78.32 105.004 78.544 105.068 78.784C105.148 79.008 105.284 79.2 105.476 79.36C105.668 79.504 105.956 79.576 106.34 79.576Z" fill="#282828"/>
</svg>
