<svg width="95" height="57" viewBox="0 0 95 57" fill="none" xmlns="http://www.w3.org/2000/svg">
<path d="M1.76 30C1.696 30 1.664 29.936 1.664 29.808C1.664 29.68 1.696 29.616 1.76 29.616C2.63467 29.616 3.296 29.5627 3.744 29.456C4.21333 29.3493 4.52267 29.136 4.672 28.816C4.82133 28.496 4.896 28.0267 4.896 27.408V21.456C4.896 20.6027 4.832 20.0053 4.704 19.664C4.576 19.3227 4.27733 19.1947 3.808 19.28C3.36 19.344 2.66667 19.6 1.728 20.048C1.64267 20.0693 1.568 20.0267 1.504 19.92C1.46133 19.792 1.48267 19.7173 1.568 19.696L6.4 17.36C6.48533 17.3173 6.56 17.328 6.624 17.392C6.688 17.456 6.72 17.52 6.72 17.584V27.408C6.72 28.0267 6.784 28.496 6.912 28.816C7.06133 29.136 7.36 29.3493 7.808 29.456C8.256 29.5627 8.928 29.616 9.824 29.616C9.888 29.616 9.92 29.68 9.92 29.808C9.92 29.936 9.888 30 9.824 30C9.29067 30 8.68267 29.9893 8 29.968C7.31733 29.9467 6.58133 29.936 5.792 29.936C5.04533 29.936 4.32 29.9467 3.616 29.968C2.93333 29.9893 2.31467 30 1.76 30ZM20.193 20.944C21.217 20.944 22.0277 21.136 22.625 21.52C23.2437 21.904 23.6917 22.4053 23.969 23.024C24.2463 23.6213 24.385 24.2507 24.385 24.912C24.385 25.9147 24.097 26.8427 23.521 27.696C22.945 28.528 22.177 29.1893 21.217 29.68C20.257 30.1707 19.1797 30.416 17.985 30.416C16.193 30.416 14.7637 29.808 13.697 28.592C12.6517 27.3547 12.129 25.6053 12.129 23.344C12.129 21.36 12.5663 19.4187 13.441 17.52C14.337 15.6 15.6277 13.8827 17.313 12.368C19.0197 10.832 21.057 9.65867 23.425 8.848C23.5103 8.82667 23.5743 8.86933 23.617 8.976C23.6597 9.08267 23.649 9.15733 23.585 9.2C21.4943 10.1387 19.745 11.3653 18.337 12.88C16.9503 14.3733 15.905 15.984 15.201 17.712C14.5183 19.44 14.177 21.136 14.177 22.8C14.177 24.08 14.3583 25.2533 14.721 26.32C15.105 27.3653 15.6383 28.208 16.321 28.848C17.025 29.488 17.8783 29.808 18.881 29.808C19.905 29.808 20.737 29.456 21.377 28.752C22.017 28.0267 22.337 27.0347 22.337 25.776C22.337 24.6667 22.0703 23.7387 21.537 22.992C21.025 22.224 20.2143 21.84 19.105 21.84C18.529 21.84 17.9957 21.9573 17.505 22.192C17.0357 22.4267 16.5023 22.8107 15.905 23.344C15.8623 23.408 15.7877 23.408 15.681 23.344C15.5743 23.2587 15.5423 23.184 15.585 23.12C16.1397 22.416 16.801 21.8827 17.569 21.52C18.3583 21.136 19.233 20.944 20.193 20.944ZM28.668 30.352C28.2413 30.352 27.9 30.2347 27.644 30C27.388 29.744 27.26 29.4027 27.26 28.976C27.26 28.5707 27.388 28.2507 27.644 28.016C27.9 27.76 28.2413 27.632 28.668 27.632C29.116 27.632 29.4573 27.76 29.692 28.016C29.9267 28.2507 30.044 28.5707 30.044 28.976C30.044 29.4027 29.9267 29.744 29.692 30C29.4573 30.2347 29.116 30.352 28.668 30.352ZM28.668 21.36C28.2413 21.36 27.9 21.2427 27.644 21.008C27.388 20.752 27.26 20.4107 27.26 19.984C27.26 19.5787 27.388 19.2587 27.644 19.024C27.9 18.768 28.2413 18.64 28.668 18.64C29.116 18.64 29.4573 18.768 29.692 19.024C29.9267 19.2587 30.044 19.5787 30.044 19.984C30.044 20.4107 29.9267 20.752 29.692 21.008C29.4573 21.2427 29.116 21.36 28.668 21.36ZM39.4925 30.416C38.2125 30.416 37.0712 30.128 36.0685 29.552C35.0872 28.976 34.3192 28.1867 33.7645 27.184C33.2098 26.1813 32.9325 25.0293 32.9325 23.728C32.9325 22.448 33.2098 21.328 33.7645 20.368C34.3192 19.3867 35.0978 18.6187 36.1005 18.064C37.1032 17.5093 38.2445 17.232 39.5245 17.232C40.8045 17.232 41.9245 17.52 42.8845 18.096C43.8445 18.6507 44.5912 19.4293 45.1245 20.432C45.6792 21.4133 45.9565 22.544 45.9565 23.824C45.9565 25.104 45.6792 26.2453 45.1245 27.248C44.5912 28.2293 43.8338 29.008 42.8525 29.584C41.8925 30.1387 40.7725 30.416 39.4925 30.416ZM39.8445 29.968C41.1672 29.968 42.1485 29.4347 42.7885 28.368C43.4285 27.3013 43.7485 25.9147 43.7485 24.208C43.7485 22.6933 43.5352 21.456 43.1085 20.496C42.6818 19.536 42.1165 18.832 41.4125 18.384C40.7298 17.9147 39.9832 17.68 39.1725 17.68C37.8925 17.68 36.8898 18.224 36.1645 19.312C35.4605 20.4 35.1085 21.7867 35.1085 23.472C35.1085 24.7093 35.3005 25.8187 35.6845 26.8C36.0898 27.7813 36.6445 28.56 37.3485 29.136C38.0525 29.6907 38.8845 29.968 39.8445 29.968ZM54.7425 30.416C53.4625 30.416 52.3212 30.128 51.3185 29.552C50.3372 28.976 49.5692 28.1867 49.0145 27.184C48.4598 26.1813 48.1825 25.0293 48.1825 23.728C48.1825 22.448 48.4598 21.328 49.0145 20.368C49.5692 19.3867 50.3478 18.6187 51.3505 18.064C52.3532 17.5093 53.4945 17.232 54.7745 17.232C56.0545 17.232 57.1745 17.52 58.1345 18.096C59.0945 18.6507 59.8412 19.4293 60.3745 20.432C60.9292 21.4133 61.2065 22.544 61.2065 23.824C61.2065 25.104 60.9292 26.2453 60.3745 27.248C59.8412 28.2293 59.0838 29.008 58.1025 29.584C57.1425 30.1387 56.0225 30.416 54.7425 30.416ZM55.0945 29.968C56.4172 29.968 57.3985 29.4347 58.0385 28.368C58.6785 27.3013 58.9985 25.9147 58.9985 24.208C58.9985 22.6933 58.7852 21.456 58.3585 20.496C57.9318 19.536 57.3665 18.832 56.6625 18.384C55.9798 17.9147 55.2332 17.68 54.4225 17.68C53.1425 17.68 52.1398 18.224 51.4145 19.312C50.7105 20.4 50.3585 21.7867 50.3585 23.472C50.3585 24.7093 50.5505 25.8187 50.9345 26.8C51.3398 27.7813 51.8945 28.56 52.5985 29.136C53.3025 29.6907 54.1345 29.968 55.0945 29.968Z" fill="#282828"/>
<path d="M4.6 51.24C3.69333 51.24 2.95333 51.0467 2.38 50.66C1.82 50.26 1.40667 49.76 1.14 49.16C0.873333 48.5467 0.74 47.9267 0.74 47.3C0.74 46.6333 0.866667 46.04 1.12 45.52C1.37333 45 1.70667 44.56 2.12 44.2C2.54667 43.84 3.01333 43.5667 3.52 43.38C4.02667 43.1933 4.52667 43.1 5.02 43.1C5.39333 43.1 5.75333 43.1533 6.1 43.26C6.44667 43.3533 6.73333 43.4867 6.96 43.66C7.18667 43.8333 7.3 44.0267 7.3 44.24C7.3 44.4 7.24667 44.54 7.14 44.66C7.04667 44.7667 6.90667 44.82 6.72 44.82C6.53333 44.82 6.37333 44.76 6.24 44.64C6.10667 44.52 6 44.3933 5.92 44.26C5.76 44.0333 5.56667 43.8533 5.34 43.72C5.12667 43.5733 4.80667 43.5 4.38 43.5C3.56667 43.5 2.94667 43.8 2.52 44.4C2.09333 44.9867 1.88 45.76 1.88 46.72C1.88 47.4 2 48.04 2.24 48.64C2.48 49.2267 2.84667 49.7067 3.34 50.08C3.84667 50.44 4.5 50.62 5.3 50.62C5.64667 50.62 6 50.5733 6.36 50.48C6.73333 50.3733 7.06667 50.1867 7.36 49.92C7.4 49.8933 7.44 49.9067 7.48 49.96C7.53333 50.0133 7.54 50.0533 7.5 50.08C7.04667 50.4933 6.58667 50.7933 6.12 50.98C5.65333 51.1533 5.14667 51.24 4.6 51.24ZM12.4873 51.26C11.8873 51.26 11.3073 51.1 10.7473 50.78C10.2007 50.4467 9.74734 49.9267 9.38734 49.22C9.04068 48.5 8.86734 47.56 8.86734 46.4C8.86734 44.72 9.04734 43.3667 9.40734 42.34C9.76734 41.3 10.274 40.4867 10.9273 39.9C11.5807 39.3 12.3473 38.82 13.2273 38.46C13.5873 38.3133 13.9407 38.1667 14.2873 38.02C14.6473 37.8733 14.9807 37.6867 15.2873 37.46C15.594 37.22 15.834 36.9 16.0073 36.5C16.034 36.4467 16.0807 36.4333 16.1473 36.46C16.214 36.4733 16.234 36.5 16.2073 36.54C16.114 37.06 15.974 37.48 15.7873 37.8C15.6007 38.1067 15.374 38.36 15.1073 38.56C14.854 38.7467 14.5607 38.9133 14.2273 39.06C13.9073 39.1933 13.554 39.34 13.1673 39.5C12.514 39.7667 11.9407 40.1 11.4473 40.5C10.954 40.9 10.534 41.4067 10.1873 42.02C9.85401 42.62 9.60068 43.36 9.42734 44.24C9.25401 45.1067 9.16734 46.1467 9.16734 47.36L9.00734 46.4C9.15401 45.6933 9.39401 45.1333 9.72734 44.72C10.074 44.2933 10.454 43.98 10.8673 43.78C11.2807 43.5667 11.6673 43.4267 12.0273 43.36C12.4007 43.2933 12.674 43.26 12.8473 43.26C13.5807 43.26 14.194 43.38 14.6873 43.62C15.1807 43.8467 15.574 44.1533 15.8673 44.54C16.1607 44.9267 16.374 45.3467 16.5073 45.8C16.6407 46.24 16.7073 46.6733 16.7073 47.1C16.7073 47.9667 16.514 48.7133 16.1273 49.34C15.7407 49.9533 15.2273 50.4267 14.5873 50.76C13.9473 51.0933 13.2473 51.26 12.4873 51.26ZM13.0473 50.9C13.7807 50.9 14.3807 50.6533 14.8473 50.16C15.3273 49.6533 15.5673 48.8133 15.5673 47.64C15.5673 46.8667 15.4473 46.18 15.2073 45.58C14.9673 44.9667 14.6207 44.48 14.1673 44.12C13.7273 43.76 13.2073 43.58 12.6073 43.58C12.0607 43.58 11.6007 43.7467 11.2273 44.08C10.854 44.4 10.5673 44.82 10.3673 45.34C10.1807 45.8467 10.0873 46.3867 10.0873 46.96C10.0873 47.68 10.194 48.34 10.4073 48.94C10.634 49.54 10.9673 50.02 11.4073 50.38C11.8473 50.7267 12.394 50.9 13.0473 50.9ZM22.0414 51.26C21.2547 51.26 20.5681 51.0667 19.9814 50.68C19.4081 50.2933 18.9614 49.78 18.6414 49.14C18.3347 48.4867 18.1814 47.7867 18.1814 47.04C18.1814 46.3467 18.3081 45.7467 18.5614 45.24C18.8147 44.7333 19.1481 44.32 19.5614 44C19.9881 43.6667 20.4481 43.42 20.9414 43.26C21.4347 43.1 21.9214 43.02 22.4014 43.02C23.2014 43.02 23.8881 43.22 24.4614 43.62C25.0347 44.02 25.4747 44.5333 25.7814 45.16C26.0881 45.7867 26.2414 46.4467 26.2414 47.14C26.2414 47.9933 26.0481 48.7267 25.6614 49.34C25.2747 49.9533 24.7614 50.4267 24.1214 50.76C23.4947 51.0933 22.8014 51.26 22.0414 51.26ZM22.6014 50.9C23.3481 50.9 23.9481 50.6533 24.4014 50.16C24.8547 49.6533 25.0814 48.82 25.0814 47.66C25.0814 46.8467 24.9414 46.12 24.6614 45.48C24.3814 44.84 23.9881 44.3333 23.4814 43.96C22.9881 43.5867 22.4081 43.4 21.7414 43.4C20.9814 43.4 20.3881 43.6667 19.9614 44.2C19.5347 44.72 19.3214 45.4733 19.3214 46.46C19.3214 47.2467 19.4547 47.98 19.7214 48.66C20.0014 49.34 20.3881 49.8867 20.8814 50.3C21.3747 50.7 21.9481 50.9 22.6014 50.9ZM27.2927 56.5C27.266 56.5 27.2527 56.46 27.2527 56.38C27.2527 56.3 27.266 56.26 27.2927 56.26C27.946 56.26 28.366 56.1733 28.5527 56C28.7527 55.8267 28.8527 55.4533 28.8527 54.88V44.9C28.8527 44.34 28.7327 43.9733 28.4927 43.8C28.266 43.6133 27.7927 43.52 27.0727 43.52C27.0327 43.52 27.0127 43.48 27.0127 43.4C27.0127 43.32 27.0327 43.28 27.0727 43.28C27.446 43.28 27.7793 43.28 28.0727 43.28C28.366 43.28 28.6193 43.28 28.8327 43.28C29.0593 43.28 29.2527 43.28 29.4127 43.28C29.5593 43.28 29.6527 43.3133 29.6927 43.38C29.746 43.4467 29.7727 43.5933 29.7727 43.82V54.88C29.7727 55.2533 29.826 55.54 29.9327 55.74C30.0393 55.94 30.2393 56.0733 30.5327 56.14C30.826 56.22 31.2593 56.26 31.8327 56.26C31.8727 56.26 31.8927 56.3 31.8927 56.38C31.8927 56.46 31.8727 56.5 31.8327 56.5C31.486 56.5 31.0993 56.4933 30.6727 56.48C30.246 56.4667 29.7993 56.46 29.3327 56.46C28.9593 56.46 28.5927 56.4667 28.2327 56.48C27.8727 56.4933 27.5593 56.5 27.2927 56.5ZM31.9927 51.26C31.486 51.26 31.0327 51.1933 30.6327 51.06C30.246 50.9267 29.8193 50.6733 29.3527 50.3L29.5527 49.24C29.926 49.7067 30.346 50.0933 30.8127 50.4C31.2793 50.7067 31.8927 50.86 32.6527 50.86C33.3593 50.86 33.9593 50.5467 34.4527 49.92C34.946 49.2933 35.1927 48.4267 35.1927 47.32C35.1927 46.1333 34.9327 45.2333 34.4127 44.62C33.8927 43.9933 33.2593 43.68 32.5127 43.68C31.8993 43.68 31.3593 43.8533 30.8927 44.2C30.426 44.5467 29.9793 44.96 29.5527 45.44L29.3727 45.3C30.0527 44.5133 30.706 43.94 31.3327 43.58C31.9593 43.2067 32.5927 43.02 33.2327 43.02C33.7793 43.02 34.2793 43.1667 34.7327 43.46C35.1993 43.74 35.5727 44.1533 35.8527 44.7C36.1327 45.2467 36.2727 45.9133 36.2727 46.7C36.2727 47.5 36.1327 48.1867 35.8527 48.76C35.5727 49.3333 35.2127 49.8067 34.7727 50.18C34.3327 50.54 33.866 50.8133 33.3727 51C32.8793 51.1733 32.4193 51.26 31.9927 51.26ZM48.3378 43.28C48.4178 43.28 48.4645 43.2933 48.4778 43.32C48.4911 43.3333 48.4978 43.38 48.4978 43.46C48.4845 43.86 48.4645 44.3 48.4378 44.78C48.4111 45.2467 48.3978 45.6133 48.3978 45.88C48.3978 45.9067 48.3578 45.92 48.2778 45.92C48.1978 45.92 48.1578 45.9067 48.1578 45.88C48.1578 45.0133 48.0111 44.4067 47.7178 44.06C47.4378 43.7133 46.9311 43.54 46.1978 43.54C45.5445 43.54 45.1245 43.6333 44.9378 43.82C44.7511 44.0067 44.6578 44.38 44.6578 44.94V49.38C44.6578 49.9533 44.7311 50.3267 44.8778 50.5C45.0378 50.6733 45.4045 50.76 45.9778 50.76C46.0045 50.76 46.0178 50.8 46.0178 50.88C46.0178 50.96 46.0045 51 45.9778 51C45.7245 51 45.4445 50.9933 45.1378 50.98C44.8311 50.9667 44.5245 50.96 44.2178 50.96C43.8845 50.96 43.5578 50.9667 43.2378 50.98C42.9311 50.9933 42.6511 51 42.3978 51C42.3578 51 42.3378 50.96 42.3378 50.88C42.3378 50.8 42.3578 50.76 42.3978 50.76C42.9711 50.76 43.3311 50.6733 43.4778 50.5C43.6378 50.3267 43.7178 49.9533 43.7178 49.38V44.9C43.7178 44.3133 43.6378 43.94 43.4778 43.78C43.3311 43.6067 42.9778 43.52 42.4178 43.52C42.3778 43.52 42.3578 43.48 42.3578 43.4C42.3578 43.32 42.3778 43.28 42.4178 43.28H48.3378ZM53.7992 51.26C53.0126 51.26 52.3259 51.0667 51.7392 50.68C51.1659 50.2933 50.7192 49.78 50.3992 49.14C50.0926 48.4867 49.9392 47.7867 49.9392 47.04C49.9392 46.3467 50.0659 45.7467 50.3192 45.24C50.5726 44.7333 50.9059 44.32 51.3192 44C51.7459 43.6667 52.2059 43.42 52.6992 43.26C53.1926 43.1 53.6792 43.02 54.1592 43.02C54.9592 43.02 55.6459 43.22 56.2192 43.62C56.7926 44.02 57.2326 44.5333 57.5392 45.16C57.8459 45.7867 57.9992 46.4467 57.9992 47.14C57.9992 47.9933 57.8059 48.7267 57.4192 49.34C57.0326 49.9533 56.5192 50.4267 55.8792 50.76C55.2526 51.0933 54.5592 51.26 53.7992 51.26ZM54.3592 50.9C55.1059 50.9 55.7059 50.6533 56.1592 50.16C56.6126 49.6533 56.8392 48.82 56.8392 47.66C56.8392 46.8467 56.6992 46.12 56.4192 45.48C56.1392 44.84 55.7459 44.3333 55.2392 43.96C54.7459 43.5867 54.1659 43.4 53.4992 43.4C52.7392 43.4 52.1459 43.6667 51.7192 44.2C51.2926 44.72 51.0792 45.4733 51.0792 46.46C51.0792 47.2467 51.2126 47.98 51.4792 48.66C51.7592 49.34 52.1459 49.8867 52.6392 50.3C53.1326 50.7 53.7059 50.9 54.3592 50.9ZM63.3305 51.24C62.4238 51.24 61.6838 51.0467 61.1105 50.66C60.5505 50.26 60.1371 49.76 59.8705 49.16C59.6038 48.5467 59.4705 47.9267 59.4705 47.3C59.4705 46.6333 59.5971 46.04 59.8505 45.52C60.1038 45 60.4371 44.56 60.8505 44.2C61.2771 43.84 61.7438 43.5667 62.2505 43.38C62.7571 43.1933 63.2571 43.1 63.7505 43.1C64.1238 43.1 64.4838 43.1533 64.8305 43.26C65.1771 43.3533 65.4638 43.4867 65.6905 43.66C65.9171 43.8333 66.0305 44.0267 66.0305 44.24C66.0305 44.4 65.9771 44.54 65.8705 44.66C65.7771 44.7667 65.6371 44.82 65.4505 44.82C65.2638 44.82 65.1038 44.76 64.9705 44.64C64.8371 44.52 64.7305 44.3933 64.6505 44.26C64.4905 44.0333 64.2971 43.8533 64.0705 43.72C63.8571 43.5733 63.5371 43.5 63.1105 43.5C62.2971 43.5 61.6771 43.8 61.2505 44.4C60.8238 44.9867 60.6105 45.76 60.6105 46.72C60.6105 47.4 60.7305 48.04 60.9705 48.64C61.2105 49.2267 61.5771 49.7067 62.0705 50.08C62.5771 50.44 63.2305 50.62 64.0305 50.62C64.3771 50.62 64.7305 50.5733 65.0905 50.48C65.4638 50.3733 65.7971 50.1867 66.0905 49.92C66.1305 49.8933 66.1705 49.9067 66.2105 49.96C66.2638 50.0133 66.2705 50.0533 66.2305 50.08C65.7771 50.4933 65.3171 50.7933 64.8505 50.98C64.3838 51.1533 63.8771 51.24 63.3305 51.24ZM69.315 51C69.2883 51 69.275 50.96 69.275 50.88C69.275 50.8 69.2883 50.76 69.315 50.76C69.8883 50.76 70.255 50.6733 70.415 50.5C70.575 50.3267 70.655 49.9533 70.655 49.38V44.94C70.655 44.38 70.5883 44.0067 70.455 43.82C70.3217 43.6333 70.0217 43.54 69.555 43.54C69.035 43.54 68.615 43.7 68.295 44.02C67.9883 44.3267 67.835 44.9533 67.835 45.9C67.835 45.9267 67.795 45.94 67.715 45.94C67.635 45.94 67.595 45.9267 67.595 45.9C67.595 45.7133 67.595 45.4333 67.595 45.06C67.595 44.6733 67.5883 44.28 67.575 43.88C67.575 43.48 67.575 43.1533 67.575 42.9C67.575 42.8333 67.615 42.8 67.695 42.8C67.775 42.8 67.815 42.8333 67.815 42.9C67.815 43.0867 68.1283 43.2 68.755 43.24C69.395 43.28 70.1817 43.3 71.115 43.3C71.7417 43.3 72.3017 43.2933 72.795 43.28C73.3017 43.2667 73.7017 43.2333 73.995 43.18C74.2883 43.1133 74.435 43.02 74.435 42.9C74.435 42.8333 74.475 42.8 74.555 42.8C74.635 42.8 74.675 42.8333 74.675 42.9C74.675 43.1533 74.675 43.48 74.675 43.88C74.675 44.28 74.6683 44.6733 74.655 45.06C74.655 45.4333 74.655 45.7133 74.655 45.9C74.655 45.9267 74.615 45.94 74.535 45.94C74.455 45.94 74.415 45.9267 74.415 45.9C74.415 44.9533 74.2483 44.3267 73.915 44.02C73.5817 43.7 73.155 43.54 72.635 43.54C72.1817 43.54 71.895 43.6333 71.775 43.82C71.655 44.0067 71.595 44.38 71.595 44.94V49.38C71.595 49.9533 71.6683 50.3267 71.815 50.5C71.975 50.6733 72.335 50.76 72.895 50.76C72.935 50.76 72.955 50.8 72.955 50.88C72.955 50.96 72.935 51 72.895 51C72.655 51 72.3817 50.9933 72.075 50.98C71.7683 50.9667 71.455 50.96 71.135 50.96C70.815 50.96 70.495 50.9667 70.175 50.98C69.8683 50.9933 69.5817 51 69.315 51ZM79.7911 51.24C78.9778 51.24 78.2978 51.06 77.7511 50.7C77.2044 50.3267 76.7911 49.8467 76.5111 49.26C76.2444 48.6733 76.1111 48.0533 76.1111 47.4C76.1111 46.5867 76.2978 45.86 76.6711 45.22C77.0444 44.5667 77.5511 44.0533 78.1911 43.68C78.8311 43.2933 79.5511 43.1 80.3511 43.1C81.0578 43.1 81.5978 43.28 81.9711 43.64C82.3578 43.9867 82.5511 44.4667 82.5511 45.08C82.5511 45.2267 82.5378 45.34 82.5111 45.42C82.4844 45.4867 82.4178 45.52 82.3111 45.52H81.3311C81.3978 44.8533 81.2711 44.3533 80.9511 44.02C80.6444 43.6733 80.2178 43.5 79.6711 43.5C78.8844 43.5 78.2844 43.78 77.8711 44.34C77.4578 44.9 77.2511 45.6667 77.2511 46.64C77.2511 47.4 77.3711 48.08 77.6111 48.68C77.8644 49.2667 78.2311 49.7333 78.7111 50.08C79.1911 50.4267 79.7644 50.6 80.4311 50.6C80.7778 50.6 81.1311 50.5467 81.4911 50.44C81.8511 50.3333 82.1911 50.16 82.5111 49.92C82.5378 49.8933 82.5711 49.9133 82.6111 49.98C82.6644 50.0333 82.6778 50.08 82.6511 50.12C82.1844 50.52 81.7111 50.8067 81.2311 50.98C80.7644 51.1533 80.2844 51.24 79.7911 51.24ZM76.9911 45.54L76.9711 45.32L81.5711 45.22V45.52L76.9911 45.54ZM85.9966 49.98L85.7366 49.72L91.1766 44.28L91.4366 44.54L85.9966 49.98ZM85.4366 49.38V44.9C85.4366 44.3133 85.3566 43.94 85.1966 43.78C85.0499 43.6067 84.6966 43.52 84.1366 43.52C84.0966 43.52 84.0766 43.48 84.0766 43.4C84.0766 43.32 84.0966 43.28 84.1366 43.28C84.3766 43.28 84.6499 43.2867 84.9566 43.3C85.2766 43.3133 85.6032 43.32 85.9366 43.32C86.2432 43.32 86.5499 43.3133 86.8566 43.3C87.1766 43.2867 87.4566 43.28 87.6966 43.28C87.7232 43.28 87.7366 43.32 87.7366 43.4C87.7366 43.48 87.7232 43.52 87.6966 43.52C87.1232 43.52 86.7566 43.6133 86.5966 43.8C86.4499 43.9867 86.3766 44.3667 86.3766 44.94V49.38C86.3766 49.9533 86.4499 50.3267 86.5966 50.5C86.7566 50.6733 87.1232 50.76 87.6966 50.76C87.7232 50.76 87.7366 50.8 87.7366 50.88C87.7366 50.96 87.7232 51 87.6966 51C87.4432 51 87.1632 50.9933 86.8566 50.98C86.5499 50.9667 86.2432 50.96 85.9366 50.96C85.6032 50.96 85.2766 50.9667 84.9566 50.98C84.6499 50.9933 84.3699 51 84.1166 51C84.0766 51 84.0566 50.96 84.0566 50.88C84.0566 50.8 84.0766 50.76 84.1166 50.76C84.6899 50.76 85.0499 50.6733 85.1966 50.5C85.3566 50.3267 85.4366 49.9533 85.4366 49.38ZM90.8166 49.38V44.9C90.8166 44.3133 90.7366 43.94 90.5766 43.78C90.4299 43.6067 90.0766 43.52 89.5166 43.52C89.4766 43.52 89.4566 43.48 89.4566 43.4C89.4566 43.32 89.4766 43.28 89.5166 43.28C89.7566 43.28 90.0299 43.2867 90.3366 43.3C90.6566 43.3133 90.9832 43.32 91.3166 43.32C91.6232 43.32 91.9299 43.3133 92.2366 43.3C92.5566 43.2867 92.8366 43.28 93.0766 43.28C93.1032 43.28 93.1166 43.32 93.1166 43.4C93.1166 43.48 93.1032 43.52 93.0766 43.52C92.5032 43.52 92.1366 43.6133 91.9766 43.8C91.8299 43.9867 91.7566 44.3667 91.7566 44.94V49.38C91.7566 49.9533 91.8299 50.3267 91.9766 50.5C92.1366 50.6733 92.5032 50.76 93.0766 50.76C93.1032 50.76 93.1166 50.8 93.1166 50.88C93.1166 50.96 93.1032 51 93.0766 51C92.8232 51 92.5432 50.9933 92.2366 50.98C91.9299 50.9667 91.6232 50.96 91.3166 50.96C90.9832 50.96 90.6566 50.9667 90.3366 50.98C90.0166 50.9933 89.7366 51 89.4966 51C89.4566 51 89.4366 50.96 89.4366 50.88C89.4366 50.8 89.4566 50.76 89.4966 50.76C90.0566 50.76 90.4166 50.6733 90.5766 50.5C90.7366 50.3267 90.8166 49.9533 90.8166 49.38ZM88.6166 41.48C89.0699 41.48 89.3766 41.3533 89.5366 41.1C89.6966 40.8333 89.8099 40.5533 89.8766 40.26C89.9432 40.0333 90.0232 39.8267 90.1166 39.64C90.2099 39.4533 90.3766 39.36 90.6166 39.36C90.8032 39.36 90.9366 39.4067 91.0166 39.5C91.0966 39.5933 91.1366 39.7333 91.1366 39.92C91.1366 40.24 91.0166 40.54 90.7766 40.82C90.5366 41.0867 90.2232 41.3067 89.8366 41.48C89.4632 41.64 89.0632 41.72 88.6366 41.72C88.1966 41.72 87.7832 41.6333 87.3966 41.46C87.0232 41.2867 86.7166 41.06 86.4766 40.78C86.2499 40.4867 86.1366 40.1867 86.1366 39.88C86.1366 39.7067 86.1766 39.58 86.2566 39.5C86.3499 39.4067 86.4766 39.36 86.6366 39.36C86.8899 39.36 87.0632 39.4467 87.1566 39.62C87.2499 39.78 87.3299 39.9933 87.3966 40.26C87.4499 40.4333 87.5032 40.62 87.5566 40.82C87.6232 41.0067 87.7366 41.1667 87.8966 41.3C88.0566 41.42 88.2966 41.48 88.6166 41.48Z" fill="#282828"/>
</svg>
