<svg width="180" height="91" viewBox="0 0 180 91" fill="none" xmlns="http://www.w3.org/2000/svg">
<path d="M3.52 59C3.392 59 3.328 58.872 3.328 58.616C3.328 58.36 3.392 58.232 3.52 58.232C5.26933 58.232 6.592 58.1253 7.488 57.912C8.42667 57.6987 9.04533 57.272 9.344 56.632C9.64267 55.992 9.792 55.0533 9.792 53.816V41.912C9.792 40.2053 9.664 39.0107 9.408 38.328C9.152 37.6453 8.55467 37.3893 7.616 37.56C6.72 37.688 5.33333 38.2 3.456 39.096C3.28533 39.1387 3.136 39.0533 3.008 38.84C2.92267 38.584 2.96533 38.4347 3.136 38.392L12.8 33.72C12.9707 33.6347 13.12 33.656 13.248 33.784C13.376 33.912 13.44 34.04 13.44 34.168V53.816C13.44 55.0533 13.568 55.992 13.824 56.632C14.1227 57.272 14.72 57.6987 15.616 57.912C16.512 58.1253 17.856 58.232 19.648 58.232C19.776 58.232 19.84 58.36 19.84 58.616C19.84 58.872 19.776 59 19.648 59C18.5813 59 17.3653 58.9787 16 58.936C14.6347 58.8933 13.1627 58.872 11.584 58.872C10.0907 58.872 8.64 58.8933 7.232 58.936C5.86667 58.9787 4.62933 59 3.52 59ZM40.386 40.888C42.434 40.888 44.0553 41.272 45.25 42.04C46.4873 42.808 47.3833 43.8107 47.938 45.048C48.4927 46.2427 48.77 47.5013 48.77 48.824C48.77 50.8293 48.194 52.6853 47.042 54.392C45.89 56.056 44.354 57.3787 42.434 58.36C40.514 59.3413 38.3593 59.832 35.97 59.832C32.386 59.832 29.5273 58.616 27.394 56.184C25.3033 53.7093 24.258 50.2107 24.258 45.688C24.258 41.72 25.1327 37.8373 26.882 34.04C28.674 30.2 31.2553 26.7653 34.626 23.736C38.0393 20.664 42.114 18.3173 46.85 16.696C47.0207 16.6533 47.1487 16.7387 47.234 16.952C47.3193 17.1653 47.298 17.3147 47.17 17.4C42.9887 19.2773 39.49 21.7307 36.674 24.76C33.9007 27.7467 31.81 30.968 30.402 34.424C29.0367 37.88 28.354 41.272 28.354 44.6C28.354 47.16 28.7167 49.5067 29.442 51.64C30.21 53.7307 31.2767 55.416 32.642 56.696C34.05 57.976 35.7567 58.616 37.762 58.616C39.81 58.616 41.474 57.912 42.754 56.504C44.034 55.0533 44.674 53.0693 44.674 50.552C44.674 48.3333 44.1407 46.4773 43.074 44.984C42.05 43.448 40.4287 42.68 38.21 42.68C37.058 42.68 35.9913 42.9147 35.01 43.384C34.0713 43.8533 33.0047 44.6213 31.81 45.688C31.7247 45.816 31.5753 45.816 31.362 45.688C31.1487 45.5173 31.0847 45.368 31.17 45.24C32.2793 43.832 33.602 42.7653 35.138 42.04C36.7167 41.272 38.466 40.888 40.386 40.888ZM57.336 59.704C56.4827 59.704 55.8 59.4693 55.288 59C54.776 58.488 54.52 57.8053 54.52 56.952C54.52 56.1413 54.776 55.5013 55.288 55.032C55.8 54.52 56.4827 54.264 57.336 54.264C58.232 54.264 58.9147 54.52 59.384 55.032C59.8533 55.5013 60.088 56.1413 60.088 56.952C60.088 57.8053 59.8533 58.488 59.384 59C58.9147 59.4693 58.232 59.704 57.336 59.704ZM57.336 41.72C56.4827 41.72 55.8 41.4853 55.288 41.016C54.776 40.504 54.52 39.8213 54.52 38.968C54.52 38.1573 54.776 37.5173 55.288 37.048C55.8 36.536 56.4827 36.28 57.336 36.28C58.232 36.28 58.9147 36.536 59.384 37.048C59.8533 37.5173 60.088 38.1573 60.088 38.968C60.088 39.8213 59.8533 40.504 59.384 41.016C58.9147 41.4853 58.232 41.72 57.336 41.72ZM78.985 59.832C76.425 59.832 74.1423 59.256 72.137 58.104C70.1743 56.952 68.6383 55.3733 67.529 53.368C66.4197 51.3627 65.865 49.0587 65.865 46.456C65.865 43.896 66.4197 41.656 67.529 39.736C68.6383 37.7733 70.1957 36.2373 72.201 35.128C74.2063 34.0187 76.489 33.464 79.049 33.464C81.609 33.464 83.849 34.04 85.769 35.192C87.689 36.3013 89.1823 37.8587 90.249 39.864C91.3583 41.8267 91.913 44.088 91.913 46.648C91.913 49.208 91.3583 51.4907 90.249 53.496C89.1823 55.4587 87.6677 57.016 85.705 58.168C83.785 59.2773 81.545 59.832 78.985 59.832ZM79.689 58.936C82.3343 58.936 84.297 57.8693 85.577 55.736C86.857 53.6027 87.497 50.8293 87.497 47.416C87.497 44.3867 87.0703 41.912 86.217 39.992C85.3637 38.072 84.233 36.664 82.825 35.768C81.4597 34.8293 79.9663 34.36 78.345 34.36C75.785 34.36 73.7797 35.448 72.329 37.624C70.921 39.8 70.217 42.5733 70.217 45.944C70.217 48.4187 70.601 50.6373 71.369 52.6C72.1797 54.5627 73.289 56.12 74.697 57.272C76.105 58.3813 77.769 58.936 79.689 58.936ZM109.485 59.832C106.925 59.832 104.642 59.256 102.637 58.104C100.674 56.952 99.1383 55.3733 98.029 53.368C96.9197 51.3627 96.365 49.0587 96.365 46.456C96.365 43.896 96.9197 41.656 98.029 39.736C99.1383 37.7733 100.696 36.2373 102.701 35.128C104.706 34.0187 106.989 33.464 109.549 33.464C112.109 33.464 114.349 34.04 116.269 35.192C118.189 36.3013 119.682 37.8587 120.749 39.864C121.858 41.8267 122.413 44.088 122.413 46.648C122.413 49.208 121.858 51.4907 120.749 53.496C119.682 55.4587 118.168 57.016 116.205 58.168C114.285 59.2773 112.045 59.832 109.485 59.832ZM110.189 58.936C112.834 58.936 114.797 57.8693 116.077 55.736C117.357 53.6027 117.997 50.8293 117.997 47.416C117.997 44.3867 117.57 41.912 116.717 39.992C115.864 38.072 114.733 36.664 113.325 35.768C111.96 34.8293 110.466 34.36 108.845 34.36C106.285 34.36 104.28 35.448 102.829 37.624C101.421 39.8 100.717 42.5733 100.717 45.944C100.717 48.4187 101.101 50.6373 101.869 52.6C102.68 54.5627 103.789 56.12 105.197 57.272C106.605 58.3813 108.269 58.936 110.189 58.936Z" fill="#282828"/>
<path d="M12.52 84.288C11.432 84.288 10.544 84.056 9.856 83.592C9.184 83.112 8.688 82.512 8.368 81.792C8.048 81.056 7.888 80.312 7.888 79.56C7.888 78.76 8.04 78.048 8.344 77.424C8.648 76.8 9.048 76.272 9.544 75.84C10.056 75.408 10.616 75.08 11.224 74.856C11.832 74.632 12.432 74.52 13.024 74.52C13.472 74.52 13.904 74.584 14.32 74.712C14.736 74.824 15.08 74.984 15.352 75.192C15.624 75.4 15.76 75.632 15.76 75.888C15.76 76.08 15.696 76.248 15.568 76.392C15.456 76.52 15.288 76.584 15.064 76.584C14.84 76.584 14.648 76.512 14.488 76.368C14.328 76.224 14.2 76.072 14.104 75.912C13.912 75.64 13.68 75.424 13.408 75.264C13.152 75.088 12.768 75 12.256 75C11.28 75 10.536 75.36 10.024 76.08C9.512 76.784 9.256 77.712 9.256 78.864C9.256 79.68 9.4 80.448 9.688 81.168C9.976 81.872 10.416 82.448 11.008 82.896C11.616 83.328 12.4 83.544 13.36 83.544C13.776 83.544 14.2 83.488 14.632 83.376C15.08 83.248 15.48 83.024 15.832 82.704C15.88 82.672 15.928 82.688 15.976 82.752C16.04 82.816 16.048 82.864 16 82.896C15.456 83.392 14.904 83.752 14.344 83.976C13.784 84.184 13.176 84.288 12.52 84.288ZM21.9848 84.312C21.2648 84.312 20.5688 84.12 19.8968 83.736C19.2408 83.336 18.6968 82.712 18.2648 81.864C17.8488 81 17.6408 79.872 17.6408 78.48C17.6408 76.464 17.8568 74.84 18.2888 73.608C18.7208 72.36 19.3288 71.384 20.1128 70.68C20.8968 69.96 21.8168 69.384 22.8728 68.952C23.3048 68.776 23.7288 68.6 24.1448 68.424C24.5768 68.248 24.9768 68.024 25.3448 67.752C25.7128 67.464 26.0008 67.08 26.2088 66.6C26.2408 66.536 26.2968 66.52 26.3768 66.552C26.4568 66.568 26.4808 66.6 26.4488 66.648C26.3368 67.272 26.1688 67.776 25.9448 68.16C25.7208 68.528 25.4488 68.832 25.1288 69.072C24.8248 69.296 24.4728 69.496 24.0728 69.672C23.6888 69.832 23.2648 70.008 22.8008 70.2C22.0168 70.52 21.3288 70.92 20.7368 71.4C20.1448 71.88 19.6408 72.488 19.2248 73.224C18.8248 73.944 18.5208 74.832 18.3128 75.888C18.1048 76.928 18.0008 78.176 18.0008 79.632L17.8088 78.48C17.9848 77.632 18.2728 76.96 18.6728 76.464C19.0888 75.952 19.5448 75.576 20.0408 75.336C20.5368 75.08 21.0008 74.912 21.4328 74.832C21.8808 74.752 22.2088 74.712 22.4168 74.712C23.2968 74.712 24.0328 74.856 24.6248 75.144C25.2168 75.416 25.6888 75.784 26.0408 76.248C26.3928 76.712 26.6488 77.216 26.8088 77.76C26.9688 78.288 27.0488 78.808 27.0488 79.32C27.0488 80.36 26.8168 81.256 26.3528 82.008C25.8888 82.744 25.2728 83.312 24.5048 83.712C23.7368 84.112 22.8968 84.312 21.9848 84.312ZM22.6568 83.88C23.5368 83.88 24.2568 83.584 24.8168 82.992C25.3928 82.384 25.6808 81.376 25.6808 79.968C25.6808 79.04 25.5368 78.216 25.2488 77.496C24.9608 76.76 24.5448 76.176 24.0008 75.744C23.4728 75.312 22.8488 75.096 22.1288 75.096C21.4728 75.096 20.9208 75.296 20.4728 75.696C20.0248 76.08 19.6808 76.584 19.4408 77.208C19.2168 77.816 19.1048 78.464 19.1048 79.152C19.1048 80.016 19.2328 80.808 19.4888 81.528C19.7608 82.248 20.1608 82.824 20.6888 83.256C21.2168 83.672 21.8728 83.88 22.6568 83.88ZM33.4497 84.312C32.5057 84.312 31.6817 84.08 30.9777 83.616C30.2897 83.152 29.7537 82.536 29.3697 81.768C29.0017 80.984 28.8177 80.144 28.8177 79.248C28.8177 78.416 28.9697 77.696 29.2737 77.088C29.5777 76.48 29.9777 75.984 30.4737 75.6C30.9857 75.2 31.5377 74.904 32.1297 74.712C32.7217 74.52 33.3057 74.424 33.8817 74.424C34.8417 74.424 35.6657 74.664 36.3537 75.144C37.0417 75.624 37.5697 76.24 37.9377 76.992C38.3057 77.744 38.4897 78.536 38.4897 79.368C38.4897 80.392 38.2577 81.272 37.7937 82.008C37.3297 82.744 36.7137 83.312 35.9457 83.712C35.1937 84.112 34.3617 84.312 33.4497 84.312ZM34.1217 83.88C35.0177 83.88 35.7377 83.584 36.2817 82.992C36.8257 82.384 37.0977 81.384 37.0977 79.992C37.0977 79.016 36.9297 78.144 36.5937 77.376C36.2577 76.608 35.7857 76 35.1777 75.552C34.5857 75.104 33.8897 74.88 33.0897 74.88C32.1777 74.88 31.4657 75.2 30.9537 75.84C30.4417 76.464 30.1857 77.368 30.1857 78.552C30.1857 79.496 30.3457 80.376 30.6657 81.192C31.0017 82.008 31.4657 82.664 32.0577 83.16C32.6497 83.64 33.3377 83.88 34.1217 83.88ZM39.7512 90.6C39.7192 90.6 39.7032 90.552 39.7032 90.456C39.7032 90.36 39.7192 90.312 39.7512 90.312C40.5352 90.312 41.0392 90.208 41.2632 90C41.5032 89.792 41.6232 89.344 41.6232 88.656V76.68C41.6232 76.008 41.4792 75.568 41.1912 75.36C40.9192 75.136 40.3512 75.024 39.4872 75.024C39.4392 75.024 39.4152 74.976 39.4152 74.88C39.4152 74.784 39.4392 74.736 39.4872 74.736C39.9352 74.736 40.3352 74.736 40.6872 74.736C41.0392 74.736 41.3432 74.736 41.5992 74.736C41.8712 74.736 42.1032 74.736 42.2952 74.736C42.4712 74.736 42.5832 74.776 42.6312 74.856C42.6952 74.936 42.7272 75.112 42.7272 75.384V88.656C42.7272 89.104 42.7912 89.448 42.9192 89.688C43.0472 89.928 43.2872 90.088 43.6392 90.168C43.9912 90.264 44.5112 90.312 45.1992 90.312C45.2472 90.312 45.2712 90.36 45.2712 90.456C45.2712 90.552 45.2472 90.6 45.1992 90.6C44.7832 90.6 44.3192 90.592 43.8072 90.576C43.2952 90.56 42.7592 90.552 42.1992 90.552C41.7512 90.552 41.3112 90.56 40.8792 90.576C40.4472 90.592 40.0712 90.6 39.7512 90.6ZM45.3912 84.312C44.7832 84.312 44.2392 84.232 43.7592 84.072C43.2952 83.912 42.7832 83.608 42.2232 83.16L42.4632 81.888C42.9112 82.448 43.4152 82.912 43.9752 83.28C44.5352 83.648 45.2712 83.832 46.1832 83.832C47.0312 83.832 47.7512 83.456 48.3432 82.704C48.9352 81.952 49.2312 80.912 49.2312 79.584C49.2312 78.16 48.9192 77.08 48.2952 76.344C47.6712 75.592 46.9112 75.216 46.0152 75.216C45.2792 75.216 44.6312 75.424 44.0712 75.84C43.5112 76.256 42.9752 76.752 42.4632 77.328L42.2472 77.16C43.0632 76.216 43.8472 75.528 44.5992 75.096C45.3512 74.648 46.1112 74.424 46.8792 74.424C47.5352 74.424 48.1352 74.6 48.6792 74.952C49.2392 75.288 49.6872 75.784 50.0232 76.44C50.3592 77.096 50.5272 77.896 50.5272 78.84C50.5272 79.8 50.3592 80.624 50.0232 81.312C49.6872 82 49.2552 82.568 48.7272 83.016C48.1992 83.448 47.6392 83.776 47.0472 84C46.4552 84.208 45.9032 84.312 45.3912 84.312ZM65.0054 74.736C65.1014 74.736 65.1574 74.752 65.1734 74.784C65.1894 74.8 65.1974 74.856 65.1974 74.952C65.1814 75.432 65.1574 75.96 65.1254 76.536C65.0934 77.096 65.0774 77.536 65.0774 77.856C65.0774 77.888 65.0294 77.904 64.9334 77.904C64.8374 77.904 64.7894 77.888 64.7894 77.856C64.7894 76.816 64.6134 76.088 64.2614 75.672C63.9254 75.256 63.3174 75.048 62.4374 75.048C61.6534 75.048 61.1494 75.16 60.9254 75.384C60.7014 75.608 60.5894 76.056 60.5894 76.728V82.056C60.5894 82.744 60.6774 83.192 60.8534 83.4C61.0454 83.608 61.4854 83.712 62.1734 83.712C62.2054 83.712 62.2214 83.76 62.2214 83.856C62.2214 83.952 62.2054 84 62.1734 84C61.8694 84 61.5334 83.992 61.1654 83.976C60.7974 83.96 60.4294 83.952 60.0614 83.952C59.6614 83.952 59.2694 83.96 58.8854 83.976C58.5174 83.992 58.1814 84 57.8774 84C57.8294 84 57.8054 83.952 57.8054 83.856C57.8054 83.76 57.8294 83.712 57.8774 83.712C58.5654 83.712 58.9974 83.608 59.1734 83.4C59.3654 83.192 59.4614 82.744 59.4614 82.056V76.68C59.4614 75.976 59.3654 75.528 59.1734 75.336C58.9974 75.128 58.5734 75.024 57.9014 75.024C57.8534 75.024 57.8294 74.976 57.8294 74.88C57.8294 74.784 57.8534 74.736 57.9014 74.736H65.0054ZM71.5591 84.312C70.6151 84.312 69.7911 84.08 69.0871 83.616C68.3991 83.152 67.8631 82.536 67.4791 81.768C67.1111 80.984 66.9271 80.144 66.9271 79.248C66.9271 78.416 67.0791 77.696 67.3831 77.088C67.6871 76.48 68.0871 75.984 68.5831 75.6C69.0951 75.2 69.6471 74.904 70.2391 74.712C70.8311 74.52 71.4151 74.424 71.9911 74.424C72.9511 74.424 73.7751 74.664 74.4631 75.144C75.1511 75.624 75.6791 76.24 76.0471 76.992C76.4151 77.744 76.5991 78.536 76.5991 79.368C76.5991 80.392 76.3671 81.272 75.9031 82.008C75.4391 82.744 74.8231 83.312 74.0551 83.712C73.3031 84.112 72.4711 84.312 71.5591 84.312ZM72.2311 83.88C73.1271 83.88 73.8471 83.584 74.3911 82.992C74.9351 82.384 75.2071 81.384 75.2071 79.992C75.2071 79.016 75.0391 78.144 74.7031 77.376C74.3671 76.608 73.8951 76 73.2871 75.552C72.6951 75.104 71.9991 74.88 71.1991 74.88C70.2871 74.88 69.5751 75.2 69.0631 75.84C68.5511 76.464 68.2951 77.368 68.2951 78.552C68.2951 79.496 68.4551 80.376 68.7751 81.192C69.1111 82.008 69.5751 82.664 70.1671 83.16C70.7591 83.64 71.4471 83.88 72.2311 83.88ZM82.9966 84.288C81.9086 84.288 81.0206 84.056 80.3326 83.592C79.6606 83.112 79.1646 82.512 78.8446 81.792C78.5246 81.056 78.3646 80.312 78.3646 79.56C78.3646 78.76 78.5166 78.048 78.8206 77.424C79.1246 76.8 79.5246 76.272 80.0206 75.84C80.5326 75.408 81.0926 75.08 81.7006 74.856C82.3086 74.632 82.9086 74.52 83.5006 74.52C83.9486 74.52 84.3806 74.584 84.7966 74.712C85.2126 74.824 85.5566 74.984 85.8286 75.192C86.1006 75.4 86.2366 75.632 86.2366 75.888C86.2366 76.08 86.1726 76.248 86.0446 76.392C85.9326 76.52 85.7646 76.584 85.5406 76.584C85.3166 76.584 85.1246 76.512 84.9646 76.368C84.8046 76.224 84.6766 76.072 84.5806 75.912C84.3886 75.64 84.1566 75.424 83.8846 75.264C83.6286 75.088 83.2446 75 82.7326 75C81.7566 75 81.0126 75.36 80.5006 76.08C79.9886 76.784 79.7326 77.712 79.7326 78.864C79.7326 79.68 79.8766 80.448 80.1646 81.168C80.4526 81.872 80.8926 82.448 81.4846 82.896C82.0926 83.328 82.8766 83.544 83.8366 83.544C84.2526 83.544 84.6766 83.488 85.1086 83.376C85.5566 83.248 85.9566 83.024 86.3086 82.704C86.3566 82.672 86.4046 82.688 86.4526 82.752C86.5166 82.816 86.5246 82.864 86.4766 82.896C85.9326 83.392 85.3806 83.752 84.8206 83.976C84.2606 84.184 83.6526 84.288 82.9966 84.288ZM90.178 84C90.146 84 90.13 83.952 90.13 83.856C90.13 83.76 90.146 83.712 90.178 83.712C90.866 83.712 91.306 83.608 91.498 83.4C91.69 83.192 91.786 82.744 91.786 82.056V76.728C91.786 76.056 91.706 75.608 91.546 75.384C91.386 75.16 91.026 75.048 90.466 75.048C89.842 75.048 89.338 75.24 88.954 75.624C88.586 75.992 88.402 76.744 88.402 77.88C88.402 77.912 88.354 77.928 88.258 77.928C88.162 77.928 88.114 77.912 88.114 77.88C88.114 77.656 88.114 77.32 88.114 76.872C88.114 76.408 88.106 75.936 88.09 75.456C88.09 74.976 88.09 74.584 88.09 74.28C88.09 74.2 88.138 74.16 88.234 74.16C88.33 74.16 88.378 74.2 88.378 74.28C88.378 74.504 88.754 74.64 89.506 74.688C90.274 74.736 91.218 74.76 92.338 74.76C93.09 74.76 93.762 74.752 94.354 74.736C94.962 74.72 95.442 74.68 95.794 74.616C96.146 74.536 96.322 74.424 96.322 74.28C96.322 74.2 96.37 74.16 96.466 74.16C96.562 74.16 96.61 74.2 96.61 74.28C96.61 74.584 96.61 74.976 96.61 75.456C96.61 75.936 96.602 76.408 96.586 76.872C96.586 77.32 96.586 77.656 96.586 77.88C96.586 77.912 96.538 77.928 96.442 77.928C96.346 77.928 96.298 77.912 96.298 77.88C96.298 76.744 96.098 75.992 95.698 75.624C95.298 75.24 94.786 75.048 94.162 75.048C93.618 75.048 93.274 75.16 93.13 75.384C92.986 75.608 92.914 76.056 92.914 76.728V82.056C92.914 82.744 93.002 83.192 93.178 83.4C93.37 83.608 93.802 83.712 94.474 83.712C94.522 83.712 94.546 83.76 94.546 83.856C94.546 83.952 94.522 84 94.474 84C94.186 84 93.858 83.992 93.49 83.976C93.122 83.96 92.746 83.952 92.362 83.952C91.978 83.952 91.594 83.96 91.21 83.976C90.842 83.992 90.498 84 90.178 84ZM102.749 84.288C101.773 84.288 100.957 84.072 100.301 83.64C99.6453 83.192 99.1493 82.616 98.8133 81.912C98.4933 81.208 98.3333 80.464 98.3333 79.68C98.3333 78.704 98.5573 77.832 99.0053 77.064C99.4533 76.28 100.061 75.664 100.829 75.216C101.597 74.752 102.461 74.52 103.421 74.52C104.269 74.52 104.917 74.736 105.365 75.168C105.829 75.584 106.061 76.16 106.061 76.896C106.061 77.072 106.045 77.208 106.013 77.304C105.981 77.384 105.901 77.424 105.773 77.424H104.597C104.677 76.624 104.525 76.024 104.141 75.624C103.773 75.208 103.261 75 102.605 75C101.661 75 100.941 75.336 100.445 76.008C99.9493 76.68 99.7013 77.6 99.7013 78.768C99.7013 79.68 99.8453 80.496 100.133 81.216C100.437 81.92 100.877 82.48 101.453 82.896C102.029 83.312 102.717 83.52 103.517 83.52C103.933 83.52 104.357 83.456 104.789 83.328C105.221 83.2 105.629 82.992 106.013 82.704C106.045 82.672 106.085 82.696 106.133 82.776C106.197 82.84 106.213 82.896 106.181 82.944C105.621 83.424 105.053 83.768 104.477 83.976C103.917 84.184 103.341 84.288 102.749 84.288ZM99.3893 77.448L99.3653 77.184L104.885 77.064V77.424L99.3893 77.448ZM110.196 82.776L109.884 82.464L116.412 75.936L116.724 76.248L110.196 82.776ZM109.524 82.056V76.68C109.524 75.976 109.428 75.528 109.236 75.336C109.06 75.128 108.636 75.024 107.964 75.024C107.916 75.024 107.892 74.976 107.892 74.88C107.892 74.784 107.916 74.736 107.964 74.736C108.252 74.736 108.58 74.744 108.948 74.76C109.332 74.776 109.724 74.784 110.124 74.784C110.492 74.784 110.86 74.776 111.228 74.76C111.612 74.744 111.948 74.736 112.236 74.736C112.268 74.736 112.284 74.784 112.284 74.88C112.284 74.976 112.268 75.024 112.236 75.024C111.548 75.024 111.108 75.136 110.916 75.36C110.74 75.584 110.652 76.04 110.652 76.728V82.056C110.652 82.744 110.74 83.192 110.916 83.4C111.108 83.608 111.548 83.712 112.236 83.712C112.268 83.712 112.284 83.76 112.284 83.856C112.284 83.952 112.268 84 112.236 84C111.932 84 111.596 83.992 111.228 83.976C110.86 83.96 110.492 83.952 110.124 83.952C109.724 83.952 109.332 83.96 108.948 83.976C108.58 83.992 108.244 84 107.94 84C107.892 84 107.868 83.952 107.868 83.856C107.868 83.76 107.892 83.712 107.94 83.712C108.628 83.712 109.06 83.608 109.236 83.4C109.428 83.192 109.524 82.744 109.524 82.056ZM115.98 82.056V76.68C115.98 75.976 115.884 75.528 115.692 75.336C115.516 75.128 115.092 75.024 114.42 75.024C114.372 75.024 114.348 74.976 114.348 74.88C114.348 74.784 114.372 74.736 114.42 74.736C114.708 74.736 115.036 74.744 115.404 74.76C115.788 74.776 116.18 74.784 116.58 74.784C116.948 74.784 117.316 74.776 117.684 74.76C118.068 74.744 118.404 74.736 118.692 74.736C118.724 74.736 118.74 74.784 118.74 74.88C118.74 74.976 118.724 75.024 118.692 75.024C118.004 75.024 117.564 75.136 117.372 75.36C117.196 75.584 117.108 76.04 117.108 76.728V82.056C117.108 82.744 117.196 83.192 117.372 83.4C117.564 83.608 118.004 83.712 118.692 83.712C118.724 83.712 118.74 83.76 118.74 83.856C118.74 83.952 118.724 84 118.692 84C118.388 84 118.052 83.992 117.684 83.976C117.316 83.96 116.948 83.952 116.58 83.952C116.18 83.952 115.788 83.96 115.404 83.976C115.02 83.992 114.684 84 114.396 84C114.348 84 114.324 83.952 114.324 83.856C114.324 83.76 114.348 83.712 114.396 83.712C115.068 83.712 115.5 83.608 115.692 83.4C115.884 83.192 115.98 82.744 115.98 82.056ZM113.34 72.576C113.884 72.576 114.252 72.424 114.444 72.12C114.636 71.8 114.772 71.464 114.852 71.112C114.932 70.84 115.028 70.592 115.14 70.368C115.252 70.144 115.452 70.032 115.74 70.032C115.964 70.032 116.124 70.088 116.22 70.2C116.316 70.312 116.364 70.48 116.364 70.704C116.364 71.088 116.22 71.448 115.932 71.784C115.644 72.104 115.268 72.368 114.804 72.576C114.356 72.768 113.876 72.864 113.364 72.864C112.836 72.864 112.34 72.76 111.876 72.552C111.428 72.344 111.06 72.072 110.772 71.736C110.5 71.384 110.364 71.024 110.364 70.656C110.364 70.448 110.412 70.296 110.508 70.2C110.62 70.088 110.772 70.032 110.964 70.032C111.268 70.032 111.476 70.136 111.588 70.344C111.7 70.536 111.796 70.792 111.876 71.112C111.94 71.32 112.004 71.544 112.068 71.784C112.148 72.008 112.284 72.2 112.476 72.36C112.668 72.504 112.956 72.576 113.34 72.576Z" fill="#282828"/>
</svg>
