<svg width="187" height="178" viewBox="0 0 187 178" fill="none" xmlns="http://www.w3.org/2000/svg">
<path d="M17.265 157.715C15.615 157.715 14.02 157.275 12.48 156.395C10.9767 155.478 9.73 154.048 8.74 152.105C7.78667 150.125 7.31 147.54 7.31 144.35C7.31 139.73 7.805 136.008 8.795 133.185C9.785 130.325 11.1783 128.088 12.975 126.475C14.7717 124.825 16.88 123.505 19.3 122.515C20.29 122.112 21.2617 121.708 22.215 121.305C23.205 120.902 24.1217 120.388 24.965 119.765C25.8083 119.105 26.4683 118.225 26.945 117.125C27.0183 116.978 27.1467 116.942 27.33 117.015C27.5133 117.052 27.5683 117.125 27.495 117.235C27.2383 118.665 26.8533 119.82 26.34 120.7C25.8267 121.543 25.2033 122.24 24.47 122.79C23.7733 123.303 22.9667 123.762 22.05 124.165C21.17 124.532 20.1983 124.935 19.135 125.375C17.3383 126.108 15.7617 127.025 14.405 128.125C13.0483 129.225 11.8933 130.618 10.94 132.305C10.0233 133.955 9.32667 135.99 8.85 138.41C8.37333 140.793 8.135 143.653 8.135 146.99L7.695 144.35C8.09833 142.407 8.75833 140.867 9.675 139.73C10.6283 138.557 11.6733 137.695 12.81 137.145C13.9467 136.558 15.01 136.173 16 135.99C17.0267 135.807 17.7783 135.715 18.255 135.715C20.2717 135.715 21.9583 136.045 23.315 136.705C24.6717 137.328 25.7533 138.172 26.56 139.235C27.3667 140.298 27.9533 141.453 28.32 142.7C28.6867 143.91 28.87 145.102 28.87 146.275C28.87 148.658 28.3383 150.712 27.275 152.435C26.2117 154.122 24.8 155.423 23.04 156.34C21.28 157.257 19.355 157.715 17.265 157.715ZM18.805 156.725C20.8217 156.725 22.4717 156.047 23.755 154.69C25.075 153.297 25.735 150.987 25.735 147.76C25.735 145.633 25.405 143.745 24.745 142.095C24.085 140.408 23.1317 139.07 21.885 138.08C20.675 137.09 19.245 136.595 17.595 136.595C16.0917 136.595 14.8267 137.053 13.8 137.97C12.7733 138.85 11.985 140.005 11.435 141.435C10.9217 142.828 10.665 144.313 10.665 145.89C10.665 147.87 10.9583 149.685 11.545 151.335C12.1683 152.985 13.085 154.305 14.295 155.295C15.505 156.248 17.0083 156.725 18.805 156.725ZM48.1037 157.33C47.957 157.403 47.8103 157.44 47.6637 157.44C47.2237 157.44 46.8203 157.055 46.4537 156.285C46.087 155.515 45.9037 154.397 45.9037 152.93V142.975C45.9037 141.178 45.7203 139.803 45.3537 138.85C45.0237 137.897 44.5653 137.255 43.9787 136.925C43.4287 136.558 42.8237 136.375 42.1637 136.375C41.1737 136.375 40.367 136.632 39.7437 137.145C39.1203 137.658 38.6437 138.282 38.3137 139.015C38.0203 139.712 37.8187 140.372 37.7087 140.995C37.672 141.362 37.5437 141.765 37.3237 142.205C37.1403 142.608 36.682 142.81 35.9487 142.81C35.472 142.81 35.0687 142.682 34.7387 142.425C34.4453 142.168 34.2987 141.802 34.2987 141.325C34.2987 140.702 34.6103 140.042 35.2337 139.345C35.857 138.648 36.6453 137.988 37.5987 137.365C38.5887 136.742 39.6337 136.247 40.7337 135.88C41.8337 135.477 42.8603 135.275 43.8137 135.275C45.1703 135.275 46.2703 135.77 47.1137 136.76C47.9937 137.713 48.4337 139.235 48.4337 141.325V151.06C48.4337 152.38 48.5803 153.352 48.8737 153.975C49.2037 154.562 49.7537 154.855 50.5237 154.855C51.2203 154.855 52.2287 154.58 53.5487 154.03C53.732 153.957 53.8603 154.03 53.9337 154.25C54.007 154.433 53.952 154.562 53.7687 154.635L48.1037 157.33ZM37.4887 157.385C36.3153 157.385 35.4353 157.073 34.8487 156.45C34.2987 155.79 34.0237 155.057 34.0237 154.25C34.0237 153.297 34.4087 152.527 35.1787 151.94C35.9487 151.317 37.2137 150.693 38.9737 150.07L46.4537 147.375L46.5637 147.925L39.5237 150.62C38.717 150.913 38.1487 151.262 37.8187 151.665C37.4887 152.068 37.3237 152.582 37.3237 153.205C37.3237 153.975 37.5437 154.58 37.9837 155.02C38.4603 155.423 39.047 155.625 39.7437 155.625C40.147 155.625 40.5137 155.588 40.8437 155.515C41.2103 155.405 41.5403 155.277 41.8337 155.13L46.9487 152.545L47.0587 153.15L42.2737 155.735C41.137 156.322 40.2203 156.743 39.5237 157C38.8637 157.257 38.1853 157.385 37.4887 157.385ZM60.5307 146.88V145.89H75.3257V146.88H60.5307ZM59.3207 152.545V140.225C59.3207 138.612 59.1007 137.585 58.6607 137.145C58.2573 136.668 57.2857 136.43 55.7457 136.43C55.6357 136.43 55.5807 136.32 55.5807 136.1C55.5807 135.88 55.6357 135.77 55.7457 135.77C56.4057 135.77 57.1573 135.788 58.0007 135.825C58.8807 135.862 59.779 135.88 60.6957 135.88C61.539 135.88 62.3823 135.862 63.2257 135.825C64.1057 135.788 64.8757 135.77 65.5357 135.77C65.609 135.77 65.6457 135.88 65.6457 136.1C65.6457 136.32 65.609 136.43 65.5357 136.43C63.959 136.43 62.9507 136.687 62.5107 137.2C62.1073 137.713 61.9057 138.758 61.9057 140.335V152.545C61.9057 154.122 62.1073 155.148 62.5107 155.625C62.9507 156.102 63.959 156.34 65.5357 156.34C65.609 156.34 65.6457 156.45 65.6457 156.67C65.6457 156.89 65.609 157 65.5357 157C64.839 157 64.069 156.982 63.2257 156.945C62.3823 156.908 61.539 156.89 60.6957 156.89C59.779 156.89 58.8807 156.908 58.0007 156.945C57.1573 156.982 56.3873 157 55.6907 157C55.5807 157 55.5257 156.89 55.5257 156.67C55.5257 156.45 55.5807 156.34 55.6907 156.34C57.2673 156.34 58.2573 156.102 58.6607 155.625C59.1007 155.148 59.3207 154.122 59.3207 152.545ZM74.1157 152.545V140.225C74.1157 138.612 73.8957 137.585 73.4557 137.145C73.0523 136.668 72.0807 136.43 70.5407 136.43C70.4307 136.43 70.3757 136.32 70.3757 136.1C70.3757 135.88 70.4307 135.77 70.5407 135.77C71.2007 135.77 71.9523 135.788 72.7957 135.825C73.6757 135.862 74.574 135.88 75.4907 135.88C76.334 135.88 77.1773 135.862 78.0207 135.825C78.9007 135.788 79.6707 135.77 80.3307 135.77C80.404 135.77 80.4407 135.88 80.4407 136.1C80.4407 136.32 80.404 136.43 80.3307 136.43C78.754 136.43 77.7457 136.687 77.3057 137.2C76.9023 137.713 76.7007 138.758 76.7007 140.335V152.545C76.7007 154.122 76.9023 155.148 77.3057 155.625C77.7457 156.102 78.754 156.34 80.3307 156.34C80.404 156.34 80.4407 156.45 80.4407 156.67C80.4407 156.89 80.404 157 80.3307 157C79.634 157 78.864 156.982 78.0207 156.945C77.1773 156.908 76.334 156.89 75.4907 156.89C74.574 156.89 73.6757 156.908 72.7957 156.945C71.9157 156.982 71.1457 157 70.4857 157C70.3757 157 70.3207 156.89 70.3207 156.67C70.3207 156.45 70.3757 156.34 70.4857 156.34C72.0257 156.34 73.0157 156.102 73.4557 155.625C73.8957 155.148 74.1157 154.122 74.1157 152.545ZM83.7815 157C83.6715 157 83.6165 156.89 83.6165 156.67C83.6165 156.45 83.6715 156.34 83.7815 156.34C85.3582 156.34 86.3482 156.102 86.7515 155.625C87.1915 155.148 87.4115 154.122 87.4115 152.545V140.225C87.4115 138.612 87.1915 137.585 86.7515 137.145C86.3482 136.668 85.3765 136.43 83.8365 136.43C83.7265 136.43 83.6715 136.32 83.6715 136.1C83.6715 135.88 83.7265 135.77 83.8365 135.77C84.4965 135.77 85.2482 135.788 86.0915 135.825C86.9715 135.862 87.8698 135.88 88.7865 135.88C89.7765 135.88 90.7482 135.862 91.7015 135.825C92.6548 135.788 93.4982 135.77 94.2315 135.77C94.3415 135.77 94.3965 135.88 94.3965 136.1C94.3965 136.32 94.3415 136.43 94.2315 136.43C92.4348 136.43 91.2798 136.687 90.7665 137.2C90.2532 137.713 89.9965 138.758 89.9965 140.335V152.545C89.9965 154.122 90.1982 155.148 90.6015 155.625C91.0415 156.102 92.0498 156.34 93.6265 156.34C93.6998 156.34 93.7365 156.45 93.7365 156.67C93.7365 156.89 93.6998 157 93.6265 157C92.9298 157 92.1598 156.982 91.3165 156.945C90.4732 156.908 89.6298 156.89 88.7865 156.89C87.8698 156.89 86.9715 156.908 86.0915 156.945C85.2482 156.982 84.4782 157 83.7815 157ZM101.106 157C100.96 157 100.85 156.982 100.776 156.945C100.703 156.872 100.593 156.688 100.446 156.395C100.3 156.065 100.025 155.552 99.6215 154.855C99.2548 154.122 98.6682 153.077 97.8615 151.72C96.9815 150.253 96.2115 149.153 95.5515 148.42C94.9282 147.65 94.2682 147.137 93.5715 146.88C92.9115 146.587 92.0865 146.44 91.0965 146.44C90.4365 146.44 89.6115 146.495 88.6215 146.605L88.5665 145.615C89.2998 145.578 89.9598 145.56 90.5465 145.56C91.1698 145.523 91.7198 145.487 92.1965 145.45C92.7098 145.413 93.1865 145.395 93.6265 145.395C94.7632 145.395 95.6615 145.542 96.3215 145.835C97.0182 146.092 97.6598 146.587 98.2465 147.32C98.8698 148.053 99.6398 149.153 100.556 150.62C101.363 151.867 102.041 152.912 102.591 153.755C103.141 154.562 103.746 155.185 104.406 155.625C105.066 156.065 105.946 156.303 107.046 156.34C107.12 156.34 107.156 156.45 107.156 156.67C107.156 156.89 107.12 157 107.046 157H101.106ZM93.6265 146.275V145.395C94.0298 145.395 94.3965 145.285 94.7265 145.065C95.0565 144.845 95.3498 144.552 95.6065 144.185C95.8998 143.782 96.1748 143.342 96.4315 142.865C97.2382 141.362 97.9165 140.042 98.4665 138.905C99.0532 137.768 99.6582 136.888 100.281 136.265C100.941 135.605 101.766 135.275 102.756 135.275C103.526 135.275 104.095 135.458 104.461 135.825C104.865 136.192 105.066 136.595 105.066 137.035C105.066 137.512 104.883 137.952 104.516 138.355C104.15 138.722 103.655 138.905 103.031 138.905C102.701 138.905 102.426 138.85 102.206 138.74C101.986 138.593 101.785 138.465 101.601 138.355C101.418 138.245 101.216 138.19 100.996 138.19C100.703 138.19 100.318 138.465 99.8415 139.015C99.4015 139.565 98.9432 140.225 98.4665 140.995C97.9898 141.765 97.5682 142.462 97.2015 143.085C96.7248 143.965 96.1932 144.717 95.6065 145.34C95.0565 145.963 94.3965 146.275 93.6265 146.275ZM118.293 157.66C116.056 157.66 114.186 157.165 112.683 156.175C111.179 155.148 110.043 153.828 109.273 152.215C108.539 150.602 108.173 148.897 108.173 147.1C108.173 144.863 108.686 142.865 109.713 141.105C110.739 139.308 112.133 137.897 113.893 136.87C115.653 135.807 117.633 135.275 119.833 135.275C121.776 135.275 123.261 135.77 124.288 136.76C125.351 137.713 125.883 139.033 125.883 140.72C125.883 141.123 125.846 141.435 125.773 141.655C125.699 141.838 125.516 141.93 125.223 141.93H122.528C122.711 140.097 122.363 138.722 121.483 137.805C120.639 136.852 119.466 136.375 117.963 136.375C115.799 136.375 114.149 137.145 113.013 138.685C111.876 140.225 111.308 142.333 111.308 145.01C111.308 147.1 111.638 148.97 112.298 150.62C112.994 152.233 114.003 153.517 115.323 154.47C116.643 155.423 118.219 155.9 120.053 155.9C121.006 155.9 121.978 155.753 122.968 155.46C123.958 155.167 124.893 154.69 125.773 154.03C125.846 153.957 125.938 154.012 126.048 154.195C126.194 154.342 126.231 154.47 126.158 154.58C124.874 155.68 123.573 156.468 122.253 156.945C120.969 157.422 119.649 157.66 118.293 157.66ZM110.593 141.985L110.538 141.38L123.188 141.105V141.93L110.593 141.985ZM135.138 157C135.064 157 135.028 156.89 135.028 156.67C135.028 156.45 135.064 156.34 135.138 156.34C136.714 156.34 137.723 156.102 138.163 155.625C138.603 155.148 138.823 154.122 138.823 152.545V140.335C138.823 138.795 138.639 137.768 138.273 137.255C137.906 136.742 137.081 136.485 135.798 136.485C134.368 136.485 133.213 136.925 132.333 137.805C131.489 138.648 131.068 140.372 131.068 142.975C131.068 143.048 130.958 143.085 130.738 143.085C130.518 143.085 130.408 143.048 130.408 142.975C130.408 142.462 130.408 141.692 130.408 140.665C130.408 139.602 130.389 138.52 130.353 137.42C130.353 136.32 130.353 135.422 130.353 134.725C130.353 134.542 130.463 134.45 130.683 134.45C130.903 134.45 131.013 134.542 131.013 134.725C131.013 135.238 131.874 135.55 133.598 135.66C135.358 135.77 137.521 135.825 140.088 135.825C141.811 135.825 143.351 135.807 144.708 135.77C146.101 135.733 147.201 135.642 148.008 135.495C148.814 135.312 149.218 135.055 149.218 134.725C149.218 134.542 149.328 134.45 149.548 134.45C149.768 134.45 149.878 134.542 149.878 134.725C149.878 135.422 149.878 136.32 149.878 137.42C149.878 138.52 149.859 139.602 149.823 140.665C149.823 141.692 149.823 142.462 149.823 142.975C149.823 143.048 149.713 143.085 149.493 143.085C149.273 143.085 149.163 143.048 149.163 142.975C149.163 140.372 148.704 138.648 147.788 137.805C146.871 136.925 145.698 136.485 144.268 136.485C143.021 136.485 142.233 136.742 141.903 137.255C141.573 137.768 141.408 138.795 141.408 140.335V152.545C141.408 154.122 141.609 155.148 142.013 155.625C142.453 156.102 143.443 156.34 144.983 156.34C145.093 156.34 145.148 156.45 145.148 156.67C145.148 156.89 145.093 157 144.983 157C144.323 157 143.571 156.982 142.728 156.945C141.884 156.908 141.023 156.89 140.143 156.89C139.263 156.89 138.383 156.908 137.503 156.945C136.659 156.982 135.871 157 135.138 157Z" fill="#282828"/>
<path d="M5.28 89C5.088 89 4.992 88.808 4.992 88.424C4.992 88.04 5.088 87.848 5.28 87.848C7.904 87.848 9.888 87.688 11.232 87.368C12.64 87.048 13.568 86.408 14.016 85.448C14.464 84.488 14.688 83.08 14.688 81.224V63.368C14.688 60.808 14.496 59.016 14.112 57.992C13.728 56.968 12.832 56.584 11.424 56.84C10.08 57.032 8 57.8 5.184 59.144C4.928 59.208 4.704 59.08 4.512 58.76C4.384 58.376 4.448 58.152 4.704 58.088L19.2 51.08C19.456 50.952 19.68 50.984 19.872 51.176C20.064 51.368 20.16 51.56 20.16 51.752V81.224C20.16 83.08 20.352 84.488 20.736 85.448C21.184 86.408 22.08 87.048 23.424 87.368C24.768 87.688 26.784 87.848 29.472 87.848C29.664 87.848 29.76 88.04 29.76 88.424C29.76 88.808 29.664 89 29.472 89C27.872 89 26.048 88.968 24 88.904C21.952 88.84 19.744 88.808 17.376 88.808C15.136 88.808 12.96 88.84 10.848 88.904C8.8 88.968 6.944 89 5.28 89ZM47.523 109.928C47.267 110.568 46.979 111.048 46.659 111.368C46.339 111.688 45.955 111.976 45.507 112.232L40.707 115.4C40.579 115.464 40.419 115.4 40.227 115.208C40.035 115.016 39.971 114.856 40.035 114.728L65.571 57.416C65.763 56.968 65.603 56.744 65.091 56.744C59.715 56.744 55.267 56.776 51.747 56.84C48.227 56.904 45.443 57.064 43.395 57.32C41.347 57.576 39.779 57.96 38.691 58.472C37.667 58.92 36.899 59.528 36.387 60.296C35.939 61.064 35.555 62.056 35.235 63.272C35.171 63.464 34.947 63.528 34.563 63.464C34.179 63.4 34.019 63.24 34.083 62.984L37.443 49.352C37.571 49.224 37.795 49.192 38.115 49.256C38.499 49.256 38.659 49.32 38.595 49.448C38.339 50.536 38.499 51.24 39.075 51.56C39.651 51.816 40.995 51.944 43.107 51.944C44.067 51.944 45.539 51.944 47.523 51.944C49.507 51.944 51.747 51.944 54.243 51.944C56.739 51.944 59.235 51.944 61.731 51.944C64.291 51.944 66.563 51.944 68.547 51.944C68.867 51.944 69.123 52.104 69.315 52.424C69.507 52.68 69.539 52.936 69.411 53.192L47.523 109.928ZM82.5353 90.056C81.2553 90.056 80.2313 89.704 79.4633 89C78.6953 88.232 78.3113 87.208 78.3113 85.928C78.3113 84.712 78.6953 83.752 79.4633 83.048C80.2313 82.28 81.2553 81.896 82.5353 81.896C83.8793 81.896 84.9033 82.28 85.6073 83.048C86.3113 83.752 86.6633 84.712 86.6633 85.928C86.6633 87.208 86.3113 88.232 85.6073 89C84.9033 89.704 83.8793 90.056 82.5353 90.056ZM82.5353 63.08C81.2553 63.08 80.2313 62.728 79.4633 62.024C78.6953 61.256 78.3113 60.232 78.3113 58.952C78.3113 57.736 78.6953 56.776 79.4633 56.072C80.2313 55.304 81.2553 54.92 82.5353 54.92C83.8793 54.92 84.9033 55.304 85.6073 56.072C86.3113 56.776 86.6633 57.736 86.6633 58.952C86.6633 60.232 86.3113 61.256 85.6073 62.024C84.9033 62.728 83.8793 63.08 82.5353 63.08ZM115.009 90.248C111.169 90.248 107.745 89.384 104.737 87.656C101.793 85.928 99.4888 83.56 97.8248 80.552C96.1608 77.544 95.3288 74.088 95.3288 70.184C95.3288 66.344 96.1608 62.984 97.8248 60.104C99.4888 57.16 101.825 54.856 104.833 53.192C107.841 51.528 111.265 50.696 115.105 50.696C118.945 50.696 122.305 51.56 125.185 53.288C128.065 54.952 130.305 57.288 131.905 60.296C133.569 63.24 134.401 66.632 134.401 70.472C134.401 74.312 133.569 77.736 131.905 80.744C130.305 83.688 128.033 86.024 125.089 87.752C122.209 89.416 118.849 90.248 115.009 90.248ZM116.065 88.904C120.033 88.904 122.977 87.304 124.897 84.104C126.817 80.904 127.777 76.744 127.777 71.624C127.777 67.08 127.137 63.368 125.857 60.488C124.577 57.608 122.881 55.496 120.769 54.152C118.721 52.744 116.481 52.04 114.049 52.04C110.209 52.04 107.201 53.672 105.025 56.936C102.913 60.2 101.857 64.36 101.857 69.416C101.857 73.128 102.433 76.456 103.585 79.4C104.801 82.344 106.465 84.68 108.577 86.408C110.689 88.072 113.185 88.904 116.065 88.904ZM160.759 90.248C156.919 90.248 153.495 89.384 150.487 87.656C147.543 85.928 145.239 83.56 143.575 80.552C141.911 77.544 141.079 74.088 141.079 70.184C141.079 66.344 141.911 62.984 143.575 60.104C145.239 57.16 147.575 54.856 150.583 53.192C153.591 51.528 157.015 50.696 160.855 50.696C164.695 50.696 168.055 51.56 170.935 53.288C173.815 54.952 176.055 57.288 177.655 60.296C179.319 63.24 180.151 66.632 180.151 70.472C180.151 74.312 179.319 77.736 177.655 80.744C176.055 83.688 173.783 86.024 170.839 87.752C167.959 89.416 164.599 90.248 160.759 90.248ZM161.815 88.904C165.783 88.904 168.727 87.304 170.647 84.104C172.567 80.904 173.527 76.744 173.527 71.624C173.527 67.08 172.887 63.368 171.607 60.488C170.327 57.608 168.631 55.496 166.519 54.152C164.471 52.744 162.231 52.04 159.799 52.04C155.959 52.04 152.951 53.672 150.775 56.936C148.663 60.2 147.607 64.36 147.607 69.416C147.607 73.128 148.183 76.456 149.335 79.4C150.551 82.344 152.215 84.68 154.327 86.408C156.439 88.072 158.935 88.904 161.815 88.904Z" fill="#282828"/>
</svg>
