<svg width="309" height="169" viewBox="0 0 309 169" fill="none" xmlns="http://www.w3.org/2000/svg">
<path d="M5.28 89C5.088 89 4.992 88.808 4.992 88.424C4.992 88.04 5.088 87.848 5.28 87.848C7.904 87.848 9.888 87.688 11.232 87.368C12.64 87.048 13.568 86.408 14.016 85.448C14.464 84.488 14.688 83.08 14.688 81.224V63.368C14.688 60.808 14.496 59.016 14.112 57.992C13.728 56.968 12.832 56.584 11.424 56.84C10.08 57.032 8 57.8 5.184 59.144C4.928 59.208 4.704 59.08 4.512 58.76C4.384 58.376 4.448 58.152 4.704 58.088L19.2 51.08C19.456 50.952 19.68 50.984 19.872 51.176C20.064 51.368 20.16 51.56 20.16 51.752V81.224C20.16 83.08 20.352 84.488 20.736 85.448C21.184 86.408 22.08 87.048 23.424 87.368C24.768 87.688 26.784 87.848 29.472 87.848C29.664 87.848 29.76 88.04 29.76 88.424C29.76 88.808 29.664 89 29.472 89C27.872 89 26.048 88.968 24 88.904C21.952 88.84 19.744 88.808 17.376 88.808C15.136 88.808 12.96 88.84 10.848 88.904C8.8 88.968 6.944 89 5.28 89ZM60.579 61.832C63.651 61.832 66.083 62.408 67.875 63.56C69.731 64.712 71.075 66.216 71.907 68.072C72.739 69.864 73.155 71.752 73.155 73.736C73.155 76.744 72.291 79.528 70.563 82.088C68.835 84.584 66.531 86.568 63.651 88.04C60.771 89.512 57.539 90.248 53.955 90.248C48.579 90.248 44.291 88.424 41.091 84.776C37.955 81.064 36.387 75.816 36.387 69.032C36.387 63.08 37.699 57.256 40.323 51.56C43.011 45.8 46.883 40.648 51.939 36.104C57.059 31.496 63.171 27.976 70.275 25.544C70.531 25.48 70.723 25.608 70.851 25.928C70.979 26.248 70.947 26.472 70.755 26.6C64.483 29.416 59.235 33.096 55.011 37.64C50.851 42.12 47.715 46.952 45.603 52.136C43.555 57.32 42.531 62.408 42.531 67.4C42.531 71.24 43.075 74.76 44.163 77.96C45.315 81.096 46.915 83.624 48.963 85.544C51.075 87.464 53.635 88.424 56.643 88.424C59.715 88.424 62.211 87.368 64.131 85.256C66.051 83.08 67.011 80.104 67.011 76.328C67.011 73 66.211 70.216 64.611 67.976C63.075 65.672 60.643 64.52 57.315 64.52C55.587 64.52 53.987 64.872 52.515 65.576C51.107 66.28 49.507 67.432 47.715 69.032C47.587 69.224 47.363 69.224 47.043 69.032C46.723 68.776 46.627 68.552 46.755 68.36C48.419 66.248 50.403 64.648 52.707 63.56C55.075 62.408 57.699 61.832 60.579 61.832ZM86.004 90.056C84.724 90.056 83.7 89.704 82.932 89C82.164 88.232 81.78 87.208 81.78 85.928C81.78 84.712 82.164 83.752 82.932 83.048C83.7 82.28 84.724 81.896 86.004 81.896C87.348 81.896 88.372 82.28 89.076 83.048C89.78 83.752 90.132 84.712 90.132 85.928C90.132 87.208 89.78 88.232 89.076 89C88.372 89.704 87.348 90.056 86.004 90.056ZM86.004 63.08C84.724 63.08 83.7 62.728 82.932 62.024C82.164 61.256 81.78 60.232 81.78 58.952C81.78 57.736 82.164 56.776 82.932 56.072C83.7 55.304 84.724 54.92 86.004 54.92C87.348 54.92 88.372 55.304 89.076 56.072C89.78 56.776 90.132 57.736 90.132 58.952C90.132 60.232 89.78 61.256 89.076 62.024C88.372 62.728 87.348 63.08 86.004 63.08ZM118.478 90.248C114.638 90.248 111.214 89.384 108.206 87.656C105.262 85.928 102.958 83.56 101.294 80.552C99.6295 77.544 98.7975 74.088 98.7975 70.184C98.7975 66.344 99.6295 62.984 101.294 60.104C102.958 57.16 105.294 54.856 108.302 53.192C111.31 51.528 114.734 50.696 118.574 50.696C122.414 50.696 125.774 51.56 128.654 53.288C131.534 54.952 133.774 57.288 135.374 60.296C137.038 63.24 137.87 66.632 137.87 70.472C137.87 74.312 137.038 77.736 135.374 80.744C133.774 83.688 131.502 86.024 128.558 87.752C125.678 89.416 122.318 90.248 118.478 90.248ZM119.534 88.904C123.502 88.904 126.446 87.304 128.366 84.104C130.286 80.904 131.246 76.744 131.246 71.624C131.246 67.08 130.606 63.368 129.326 60.488C128.046 57.608 126.35 55.496 124.238 54.152C122.19 52.744 119.95 52.04 117.518 52.04C113.678 52.04 110.67 53.672 108.494 56.936C106.382 60.2 105.326 64.36 105.326 69.416C105.326 73.128 105.902 76.456 107.054 79.4C108.27 82.344 109.934 84.68 112.046 86.408C114.158 88.072 116.654 88.904 119.534 88.904ZM164.228 90.248C160.388 90.248 156.964 89.384 153.956 87.656C151.012 85.928 148.708 83.56 147.044 80.552C145.38 77.544 144.548 74.088 144.548 70.184C144.548 66.344 145.38 62.984 147.044 60.104C148.708 57.16 151.044 54.856 154.052 53.192C157.06 51.528 160.484 50.696 164.324 50.696C168.164 50.696 171.524 51.56 174.404 53.288C177.284 54.952 179.524 57.288 181.124 60.296C182.788 63.24 183.62 66.632 183.62 70.472C183.62 74.312 182.788 77.736 181.124 80.744C179.524 83.688 177.252 86.024 174.308 87.752C171.428 89.416 168.068 90.248 164.228 90.248ZM165.284 88.904C169.252 88.904 172.196 87.304 174.116 84.104C176.036 80.904 176.996 76.744 176.996 71.624C176.996 67.08 176.356 63.368 175.076 60.488C173.796 57.608 172.1 55.496 169.988 54.152C167.94 52.744 165.7 52.04 163.268 52.04C159.428 52.04 156.42 53.672 154.244 56.936C152.132 60.2 151.076 64.36 151.076 69.416C151.076 73.128 151.652 76.456 152.804 79.4C154.02 82.344 155.684 84.68 157.796 86.408C159.908 88.072 162.404 88.904 165.284 88.904Z" fill="#282828"/>
<path d="M17.65 142.66C15.1567 142.66 13.1217 142.128 11.545 141.065C10.005 139.965 8.86833 138.59 8.135 136.94C7.40167 135.253 7.035 133.548 7.035 131.825C7.035 129.992 7.38333 128.36 8.08 126.93C8.77667 125.5 9.69333 124.29 10.83 123.3C12.0033 122.31 13.2867 121.558 14.68 121.045C16.0733 120.532 17.4483 120.275 18.805 120.275C19.8317 120.275 20.8217 120.422 21.775 120.715C22.7283 120.972 23.5167 121.338 24.14 121.815C24.7633 122.292 25.075 122.823 25.075 123.41C25.075 123.85 24.9283 124.235 24.635 124.565C24.3783 124.858 23.9933 125.005 23.48 125.005C22.9667 125.005 22.5267 124.84 22.16 124.51C21.7933 124.18 21.5 123.832 21.28 123.465C20.84 122.842 20.3083 122.347 19.685 121.98C19.0983 121.577 18.2183 121.375 17.045 121.375C14.8083 121.375 13.1033 122.2 11.93 123.85C10.7567 125.463 10.17 127.59 10.17 130.23C10.17 132.1 10.5 133.86 11.16 135.51C11.82 137.123 12.8283 138.443 14.185 139.47C15.5783 140.46 17.375 140.955 19.575 140.955C20.5283 140.955 21.5 140.827 22.49 140.57C23.5167 140.277 24.4333 139.763 25.24 139.03C25.35 138.957 25.46 138.993 25.57 139.14C25.7167 139.287 25.735 139.397 25.625 139.47C24.3783 140.607 23.1133 141.432 21.83 141.945C20.5467 142.422 19.1533 142.66 17.65 142.66ZM39.3402 142.715C37.6902 142.715 36.0952 142.275 34.5552 141.395C33.0519 140.478 31.8052 139.048 30.8152 137.105C29.8619 135.125 29.3852 132.54 29.3852 129.35C29.3852 124.73 29.8802 121.008 30.8702 118.185C31.8602 115.325 33.2535 113.088 35.0502 111.475C36.8469 109.825 38.9552 108.505 41.3752 107.515C42.3652 107.112 43.3369 106.708 44.2902 106.305C45.2802 105.902 46.1969 105.388 47.0402 104.765C47.8835 104.105 48.5435 103.225 49.0202 102.125C49.0935 101.978 49.2219 101.942 49.4052 102.015C49.5885 102.052 49.6435 102.125 49.5702 102.235C49.3135 103.665 48.9285 104.82 48.4152 105.7C47.9019 106.543 47.2785 107.24 46.5452 107.79C45.8485 108.303 45.0419 108.762 44.1252 109.165C43.2452 109.532 42.2735 109.935 41.2102 110.375C39.4135 111.108 37.8369 112.025 36.4802 113.125C35.1235 114.225 33.9685 115.618 33.0152 117.305C32.0985 118.955 31.4019 120.99 30.9252 123.41C30.4485 125.793 30.2102 128.653 30.2102 131.99L29.7702 129.35C30.1735 127.407 30.8335 125.867 31.7502 124.73C32.7035 123.557 33.7485 122.695 34.8852 122.145C36.0219 121.558 37.0852 121.173 38.0752 120.99C39.1019 120.807 39.8535 120.715 40.3302 120.715C42.3469 120.715 44.0335 121.045 45.3902 121.705C46.7469 122.328 47.8285 123.172 48.6352 124.235C49.4419 125.298 50.0285 126.453 50.3952 127.7C50.7619 128.91 50.9452 130.102 50.9452 131.275C50.9452 133.658 50.4135 135.712 49.3502 137.435C48.2869 139.122 46.8752 140.423 45.1152 141.34C43.3552 142.257 41.4302 142.715 39.3402 142.715ZM40.8802 141.725C42.8969 141.725 44.5469 141.047 45.8302 139.69C47.1502 138.297 47.8102 135.987 47.8102 132.76C47.8102 130.633 47.4802 128.745 46.8202 127.095C46.1602 125.408 45.2069 124.07 43.9602 123.08C42.7502 122.09 41.3202 121.595 39.6702 121.595C38.1669 121.595 36.9019 122.053 35.8752 122.97C34.8485 123.85 34.0602 125.005 33.5102 126.435C32.9969 127.828 32.7402 129.313 32.7402 130.89C32.7402 132.87 33.0335 134.685 33.6202 136.335C34.2435 137.985 35.1602 139.305 36.3702 140.295C37.5802 141.248 39.0835 141.725 40.8802 141.725ZM65.6139 142.715C63.4505 142.715 61.5622 142.183 59.9489 141.12C58.3722 140.057 57.1439 138.645 56.2639 136.885C55.4205 135.088 54.9989 133.163 54.9989 131.11C54.9989 129.203 55.3472 127.553 56.0439 126.16C56.7405 124.767 57.6572 123.63 58.7939 122.75C59.9672 121.833 61.2322 121.155 62.5889 120.715C63.9455 120.275 65.2839 120.055 66.6039 120.055C68.8039 120.055 70.6922 120.605 72.2689 121.705C73.8455 122.805 75.0555 124.217 75.8989 125.94C76.7422 127.663 77.1639 129.478 77.1639 131.385C77.1639 133.732 76.6322 135.748 75.5689 137.435C74.5055 139.122 73.0939 140.423 71.3339 141.34C69.6105 142.257 67.7039 142.715 65.6139 142.715ZM67.1539 141.725C69.2072 141.725 70.8572 141.047 72.1039 139.69C73.3505 138.297 73.9739 136.005 73.9739 132.815C73.9739 130.578 73.5889 128.58 72.8189 126.82C72.0489 125.06 70.9672 123.667 69.5739 122.64C68.2172 121.613 66.6222 121.1 64.7889 121.1C62.6989 121.1 61.0672 121.833 59.8939 123.3C58.7205 124.73 58.1339 126.802 58.1339 129.515C58.1339 131.678 58.5005 133.695 59.2339 135.565C60.0039 137.435 61.0672 138.938 62.4239 140.075C63.7805 141.175 65.3572 141.725 67.1539 141.725ZM80.0548 157.125C79.9815 157.125 79.9448 157.015 79.9448 156.795C79.9448 156.575 79.9815 156.465 80.0548 156.465C81.8515 156.465 83.0065 156.227 83.5198 155.75C84.0698 155.273 84.3448 154.247 84.3448 152.67V125.225C84.3448 123.685 84.0148 122.677 83.3548 122.2C82.7315 121.687 81.4298 121.43 79.4498 121.43C79.3398 121.43 79.2848 121.32 79.2848 121.1C79.2848 120.88 79.3398 120.77 79.4498 120.77C80.4765 120.77 81.3931 120.77 82.1998 120.77C83.0065 120.77 83.7031 120.77 84.2898 120.77C84.9131 120.77 85.4448 120.77 85.8848 120.77C86.2881 120.77 86.5448 120.862 86.6548 121.045C86.8015 121.228 86.8748 121.632 86.8748 122.255V152.67C86.8748 153.697 87.0215 154.485 87.3148 155.035C87.6081 155.585 88.1581 155.952 88.9648 156.135C89.7715 156.355 90.9631 156.465 92.5398 156.465C92.6498 156.465 92.7048 156.575 92.7048 156.795C92.7048 157.015 92.6498 157.125 92.5398 157.125C91.5865 157.125 90.5231 157.107 89.3498 157.07C88.1765 157.033 86.9481 157.015 85.6648 157.015C84.6381 157.015 83.6298 157.033 82.6398 157.07C81.6498 157.107 80.7881 157.125 80.0548 157.125ZM92.9798 142.715C91.5865 142.715 90.3398 142.532 89.2398 142.165C88.1765 141.798 87.0031 141.102 85.7198 140.075L86.2698 137.16C87.2965 138.443 88.4515 139.507 89.7348 140.35C91.0181 141.193 92.7048 141.615 94.7948 141.615C96.7381 141.615 98.3881 140.753 99.7448 139.03C101.101 137.307 101.78 134.923 101.78 131.88C101.78 128.617 101.065 126.142 99.6348 124.455C98.2048 122.732 96.4631 121.87 94.4098 121.87C92.7231 121.87 91.2381 122.347 89.9548 123.3C88.6715 124.253 87.4431 125.39 86.2698 126.71L85.7748 126.325C87.6448 124.162 89.4415 122.585 91.1648 121.595C92.8881 120.568 94.6298 120.055 96.3898 120.055C97.8931 120.055 99.2681 120.458 100.515 121.265C101.798 122.035 102.825 123.172 103.595 124.675C104.365 126.178 104.75 128.012 104.75 130.175C104.75 132.375 104.365 134.263 103.595 135.84C102.825 137.417 101.835 138.718 100.625 139.745C99.4148 140.735 98.1315 141.487 96.7748 142C95.4181 142.477 94.1531 142.715 92.9798 142.715ZM137.929 120.77C138.149 120.77 138.277 120.807 138.314 120.88C138.351 120.917 138.369 121.045 138.369 121.265C138.332 122.365 138.277 123.575 138.204 124.895C138.131 126.178 138.094 127.187 138.094 127.92C138.094 127.993 137.984 128.03 137.764 128.03C137.544 128.03 137.434 127.993 137.434 127.92C137.434 125.537 137.031 123.868 136.224 122.915C135.454 121.962 134.061 121.485 132.044 121.485C130.247 121.485 129.092 121.742 128.579 122.255C128.066 122.768 127.809 123.795 127.809 125.335V137.545C127.809 139.122 128.011 140.148 128.414 140.625C128.854 141.102 129.862 141.34 131.439 141.34C131.512 141.34 131.549 141.45 131.549 141.67C131.549 141.89 131.512 142 131.439 142C130.742 142 129.972 141.982 129.129 141.945C128.286 141.908 127.442 141.89 126.599 141.89C125.682 141.89 124.784 141.908 123.904 141.945C123.061 141.982 122.291 142 121.594 142C121.484 142 121.429 141.89 121.429 141.67C121.429 141.45 121.484 141.34 121.594 141.34C123.171 141.34 124.161 141.102 124.564 140.625C125.004 140.148 125.224 139.122 125.224 137.545V125.225C125.224 123.612 125.004 122.585 124.564 122.145C124.161 121.668 123.189 121.43 121.649 121.43C121.539 121.43 121.484 121.32 121.484 121.1C121.484 120.88 121.539 120.77 121.649 120.77H137.929ZM152.948 142.715C150.785 142.715 148.896 142.183 147.283 141.12C145.706 140.057 144.478 138.645 143.598 136.885C142.755 135.088 142.333 133.163 142.333 131.11C142.333 129.203 142.681 127.553 143.378 126.16C144.075 124.767 144.991 123.63 146.128 122.75C147.301 121.833 148.566 121.155 149.923 120.715C151.28 120.275 152.618 120.055 153.938 120.055C156.138 120.055 158.026 120.605 159.603 121.705C161.18 122.805 162.39 124.217 163.233 125.94C164.076 127.663 164.498 129.478 164.498 131.385C164.498 133.732 163.966 135.748 162.903 137.435C161.84 139.122 160.428 140.423 158.668 141.34C156.945 142.257 155.038 142.715 152.948 142.715ZM154.488 141.725C156.541 141.725 158.191 141.047 159.438 139.69C160.685 138.297 161.308 136.005 161.308 132.815C161.308 130.578 160.923 128.58 160.153 126.82C159.383 125.06 158.301 123.667 156.908 122.64C155.551 121.613 153.956 121.1 152.123 121.1C150.033 121.1 148.401 121.833 147.228 123.3C146.055 124.73 145.468 126.802 145.468 129.515C145.468 131.678 145.835 133.695 146.568 135.565C147.338 137.435 148.401 138.938 149.758 140.075C151.115 141.175 152.691 141.725 154.488 141.725ZM179.159 142.66C176.665 142.66 174.63 142.128 173.054 141.065C171.514 139.965 170.377 138.59 169.644 136.94C168.91 135.253 168.544 133.548 168.544 131.825C168.544 129.992 168.892 128.36 169.589 126.93C170.285 125.5 171.202 124.29 172.339 123.3C173.512 122.31 174.795 121.558 176.189 121.045C177.582 120.532 178.957 120.275 180.314 120.275C181.34 120.275 182.33 120.422 183.284 120.715C184.237 120.972 185.025 121.338 185.649 121.815C186.272 122.292 186.584 122.823 186.584 123.41C186.584 123.85 186.437 124.235 186.144 124.565C185.887 124.858 185.502 125.005 184.989 125.005C184.475 125.005 184.035 124.84 183.669 124.51C183.302 124.18 183.009 123.832 182.789 123.465C182.349 122.842 181.817 122.347 181.194 121.98C180.607 121.577 179.727 121.375 178.554 121.375C176.317 121.375 174.612 122.2 173.439 123.85C172.265 125.463 171.679 127.59 171.679 130.23C171.679 132.1 172.009 133.86 172.669 135.51C173.329 137.123 174.337 138.443 175.694 139.47C177.087 140.46 178.884 140.955 181.084 140.955C182.037 140.955 183.009 140.827 183.999 140.57C185.025 140.277 185.942 139.763 186.749 139.03C186.859 138.957 186.969 138.993 187.079 139.14C187.225 139.287 187.244 139.397 187.134 139.47C185.887 140.607 184.622 141.432 183.339 141.945C182.055 142.422 180.662 142.66 179.159 142.66ZM195.616 142C195.543 142 195.506 141.89 195.506 141.67C195.506 141.45 195.543 141.34 195.616 141.34C197.193 141.34 198.201 141.102 198.641 140.625C199.081 140.148 199.301 139.122 199.301 137.545V125.335C199.301 123.795 199.118 122.768 198.751 122.255C198.385 121.742 197.56 121.485 196.276 121.485C194.846 121.485 193.691 121.925 192.811 122.805C191.968 123.648 191.546 125.372 191.546 127.975C191.546 128.048 191.436 128.085 191.216 128.085C190.996 128.085 190.886 128.048 190.886 127.975C190.886 127.462 190.886 126.692 190.886 125.665C190.886 124.602 190.868 123.52 190.831 122.42C190.831 121.32 190.831 120.422 190.831 119.725C190.831 119.542 190.941 119.45 191.161 119.45C191.381 119.45 191.491 119.542 191.491 119.725C191.491 120.238 192.353 120.55 194.076 120.66C195.836 120.77 198 120.825 200.566 120.825C202.29 120.825 203.83 120.807 205.186 120.77C206.58 120.733 207.68 120.642 208.486 120.495C209.293 120.312 209.696 120.055 209.696 119.725C209.696 119.542 209.806 119.45 210.026 119.45C210.246 119.45 210.356 119.542 210.356 119.725C210.356 120.422 210.356 121.32 210.356 122.42C210.356 123.52 210.338 124.602 210.301 125.665C210.301 126.692 210.301 127.462 210.301 127.975C210.301 128.048 210.191 128.085 209.971 128.085C209.751 128.085 209.641 128.048 209.641 127.975C209.641 125.372 209.183 123.648 208.266 122.805C207.35 121.925 206.176 121.485 204.746 121.485C203.5 121.485 202.711 121.742 202.381 122.255C202.051 122.768 201.886 123.795 201.886 125.335V137.545C201.886 139.122 202.088 140.148 202.491 140.625C202.931 141.102 203.921 141.34 205.461 141.34C205.571 141.34 205.626 141.45 205.626 141.67C205.626 141.89 205.571 142 205.461 142C204.801 142 204.05 141.982 203.206 141.945C202.363 141.908 201.501 141.89 200.621 141.89C199.741 141.89 198.861 141.908 197.981 141.945C197.138 141.982 196.35 142 195.616 142ZM224.426 142.66C222.189 142.66 220.319 142.165 218.816 141.175C217.312 140.148 216.176 138.828 215.406 137.215C214.672 135.602 214.306 133.897 214.306 132.1C214.306 129.863 214.819 127.865 215.846 126.105C216.872 124.308 218.266 122.897 220.026 121.87C221.786 120.807 223.766 120.275 225.966 120.275C227.909 120.275 229.394 120.77 230.421 121.76C231.484 122.713 232.016 124.033 232.016 125.72C232.016 126.123 231.979 126.435 231.906 126.655C231.832 126.838 231.649 126.93 231.356 126.93H228.661C228.844 125.097 228.496 123.722 227.616 122.805C226.772 121.852 225.599 121.375 224.096 121.375C221.932 121.375 220.282 122.145 219.146 123.685C218.009 125.225 217.441 127.333 217.441 130.01C217.441 132.1 217.771 133.97 218.431 135.62C219.127 137.233 220.136 138.517 221.456 139.47C222.776 140.423 224.352 140.9 226.186 140.9C227.139 140.9 228.111 140.753 229.101 140.46C230.091 140.167 231.026 139.69 231.906 139.03C231.979 138.957 232.071 139.012 232.181 139.195C232.327 139.342 232.364 139.47 232.291 139.58C231.007 140.68 229.706 141.468 228.386 141.945C227.102 142.422 225.782 142.66 224.426 142.66ZM216.726 126.985L216.671 126.38L229.321 126.105V126.93L216.726 126.985ZM241.491 139.195L240.776 138.48L255.736 123.52L256.451 124.235L241.491 139.195ZM239.951 137.545V125.225C239.951 123.612 239.731 122.585 239.291 122.145C238.887 121.668 237.916 121.43 236.376 121.43C236.266 121.43 236.211 121.32 236.211 121.1C236.211 120.88 236.266 120.77 236.376 120.77C237.036 120.77 237.787 120.788 238.631 120.825C239.511 120.862 240.409 120.88 241.326 120.88C242.169 120.88 243.012 120.862 243.856 120.825C244.736 120.788 245.506 120.77 246.166 120.77C246.239 120.77 246.276 120.88 246.276 121.1C246.276 121.32 246.239 121.43 246.166 121.43C244.589 121.43 243.581 121.687 243.141 122.2C242.737 122.713 242.536 123.758 242.536 125.335V137.545C242.536 139.122 242.737 140.148 243.141 140.625C243.581 141.102 244.589 141.34 246.166 141.34C246.239 141.34 246.276 141.45 246.276 141.67C246.276 141.89 246.239 142 246.166 142C245.469 142 244.699 141.982 243.856 141.945C243.012 141.908 242.169 141.89 241.326 141.89C240.409 141.89 239.511 141.908 238.631 141.945C237.787 141.982 237.017 142 236.321 142C236.211 142 236.156 141.89 236.156 141.67C236.156 141.45 236.211 141.34 236.321 141.34C237.897 141.34 238.887 141.102 239.291 140.625C239.731 140.148 239.951 139.122 239.951 137.545ZM254.746 137.545V125.225C254.746 123.612 254.526 122.585 254.086 122.145C253.682 121.668 252.711 121.43 251.171 121.43C251.061 121.43 251.006 121.32 251.006 121.1C251.006 120.88 251.061 120.77 251.171 120.77C251.831 120.77 252.582 120.788 253.426 120.825C254.306 120.862 255.204 120.88 256.121 120.88C256.964 120.88 257.807 120.862 258.651 120.825C259.531 120.788 260.301 120.77 260.961 120.77C261.034 120.77 261.071 120.88 261.071 121.1C261.071 121.32 261.034 121.43 260.961 121.43C259.384 121.43 258.376 121.687 257.936 122.2C257.532 122.713 257.331 123.758 257.331 125.335V137.545C257.331 139.122 257.532 140.148 257.936 140.625C258.376 141.102 259.384 141.34 260.961 141.34C261.034 141.34 261.071 141.45 261.071 141.67C261.071 141.89 261.034 142 260.961 142C260.264 142 259.494 141.982 258.651 141.945C257.807 141.908 256.964 141.89 256.121 141.89C255.204 141.89 254.306 141.908 253.426 141.945C252.546 141.982 251.776 142 251.116 142C251.006 142 250.951 141.89 250.951 141.67C250.951 141.45 251.006 141.34 251.116 141.34C252.656 141.34 253.646 141.102 254.086 140.625C254.526 140.148 254.746 139.122 254.746 137.545ZM248.696 115.82C249.942 115.82 250.786 115.472 251.226 114.775C251.666 114.042 251.977 113.272 252.161 112.465C252.344 111.842 252.564 111.273 252.821 110.76C253.077 110.247 253.536 109.99 254.196 109.99C254.709 109.99 255.076 110.118 255.296 110.375C255.516 110.632 255.626 111.017 255.626 111.53C255.626 112.41 255.296 113.235 254.636 114.005C253.976 114.738 253.114 115.343 252.051 115.82C251.024 116.26 249.924 116.48 248.751 116.48C247.541 116.48 246.404 116.242 245.341 115.765C244.314 115.288 243.471 114.665 242.811 113.895C242.187 113.088 241.876 112.263 241.876 111.42C241.876 110.943 241.986 110.595 242.206 110.375C242.462 110.118 242.811 109.99 243.251 109.99C243.947 109.99 244.424 110.228 244.681 110.705C244.937 111.145 245.157 111.732 245.341 112.465C245.487 112.942 245.634 113.455 245.781 114.005C245.964 114.518 246.276 114.958 246.716 115.325C247.156 115.655 247.816 115.82 248.696 115.82Z" fill="#282828"/>
</svg>
