<svg width="65" height="64" viewBox="0 0 65 64" fill="none" xmlns="http://www.w3.org/2000/svg">
<path d="M4.46 59.26C3.86 59.26 3.28 59.1 2.72 58.78C2.17333 58.4467 1.72 57.9267 1.36 57.22C1.01333 56.5 0.84 55.56 0.84 54.4C0.84 52.72 1.02 51.3667 1.38 50.34C1.74 49.3 2.24667 48.4867 2.9 47.9C3.55333 47.3 4.32 46.82 5.2 46.46C5.56 46.3133 5.91333 46.1667 6.26 46.02C6.62 45.8733 6.95333 45.6867 7.26 45.46C7.56667 45.22 7.80667 44.9 7.98 44.5C8.00667 44.4467 8.05333 44.4333 8.12 44.46C8.18667 44.4733 8.20667 44.5 8.18 44.54C8.08667 45.06 7.94667 45.48 7.76 45.8C7.57333 46.1067 7.34667 46.36 7.08 46.56C6.82667 46.7467 6.53333 46.9133 6.2 47.06C5.88 47.1933 5.52667 47.34 5.14 47.5C4.48667 47.7667 3.91333 48.1 3.42 48.5C2.92667 48.9 2.50667 49.4067 2.16 50.02C1.82667 50.62 1.57333 51.36 1.4 52.24C1.22667 53.1067 1.14 54.1467 1.14 55.36L0.98 54.4C1.12667 53.6933 1.36667 53.1333 1.7 52.72C2.04667 52.2933 2.42667 51.98 2.84 51.78C3.25333 51.5667 3.64 51.4267 4 51.36C4.37333 51.2933 4.64667 51.26 4.82 51.26C5.55333 51.26 6.16667 51.38 6.66 51.62C7.15333 51.8467 7.54667 52.1533 7.84 52.54C8.13333 52.9267 8.34667 53.3467 8.48 53.8C8.61333 54.24 8.68 54.6733 8.68 55.1C8.68 55.9667 8.48667 56.7133 8.1 57.34C7.71333 57.9533 7.2 58.4267 6.56 58.76C5.92 59.0933 5.22 59.26 4.46 59.26ZM5.02 58.9C5.75333 58.9 6.35333 58.6533 6.82 58.16C7.3 57.6533 7.54 56.8133 7.54 55.64C7.54 54.8667 7.42 54.18 7.18 53.58C6.94 52.9667 6.59333 52.48 6.14 52.12C5.7 51.76 5.18 51.58 4.58 51.58C4.03333 51.58 3.57333 51.7467 3.2 52.08C2.82667 52.4 2.54 52.82 2.34 53.34C2.15333 53.8467 2.06 54.3867 2.06 54.96C2.06 55.68 2.16667 56.34 2.38 56.94C2.60667 57.54 2.94 58.02 3.38 58.38C3.82 58.7267 4.36667 58.9 5.02 58.9ZM15.6741 59.12C15.6207 59.1467 15.5674 59.16 15.5141 59.16C15.3541 59.16 15.2074 59.02 15.0741 58.74C14.9407 58.46 14.8741 58.0533 14.8741 57.52V53.9C14.8741 53.2467 14.8074 52.7467 14.6741 52.4C14.5541 52.0533 14.3874 51.82 14.1741 51.7C13.9741 51.5667 13.7541 51.5 13.5141 51.5C13.1541 51.5 12.8607 51.5933 12.6341 51.78C12.4074 51.9667 12.2341 52.1933 12.1141 52.46C12.0074 52.7133 11.9341 52.9533 11.8941 53.18C11.8807 53.3133 11.8341 53.46 11.7541 53.62C11.6874 53.7667 11.5207 53.84 11.2541 53.84C11.0807 53.84 10.9341 53.7933 10.8141 53.7C10.7074 53.6067 10.6541 53.4733 10.6541 53.3C10.6541 53.0733 10.7674 52.8333 10.9941 52.58C11.2207 52.3267 11.5074 52.0867 11.8541 51.86C12.2141 51.6333 12.5941 51.4533 12.9941 51.32C13.3941 51.1733 13.7674 51.1 14.1141 51.1C14.6074 51.1 15.0074 51.28 15.3141 51.64C15.6341 51.9867 15.7941 52.54 15.7941 53.3V56.84C15.7941 57.32 15.8474 57.6733 15.9541 57.9C16.0741 58.1133 16.2741 58.22 16.5541 58.22C16.8074 58.22 17.1741 58.12 17.6541 57.92C17.7207 57.8933 17.7674 57.92 17.7941 58C17.8207 58.0667 17.8007 58.1133 17.7341 58.14L15.6741 59.12ZM11.8141 59.14C11.3874 59.14 11.0674 59.0267 10.8541 58.8C10.6541 58.56 10.5541 58.2933 10.5541 58C10.5541 57.6533 10.6941 57.3733 10.9741 57.16C11.2541 56.9333 11.7141 56.7067 12.3541 56.48L15.0741 55.5L15.1141 55.7L12.5541 56.68C12.2607 56.7867 12.0541 56.9133 11.9341 57.06C11.8141 57.2067 11.7541 57.3933 11.7541 57.62C11.7541 57.9 11.8341 58.12 11.9941 58.28C12.1674 58.4267 12.3807 58.5 12.6341 58.5C12.7807 58.5 12.9141 58.4867 13.0341 58.46C13.1674 58.42 13.2874 58.3733 13.3941 58.32L15.2541 57.38L15.2941 57.6L13.5541 58.54C13.1407 58.7533 12.8074 58.9067 12.5541 59C12.3141 59.0933 12.0674 59.14 11.8141 59.14ZM20.193 55.32V54.96H25.573V55.32H20.193ZM19.753 57.38V52.9C19.753 52.3133 19.673 51.94 19.513 51.78C19.3663 51.6067 19.013 51.52 18.453 51.52C18.413 51.52 18.393 51.48 18.393 51.4C18.393 51.32 18.413 51.28 18.453 51.28C18.693 51.28 18.9663 51.2867 19.273 51.3C19.593 51.3133 19.9196 51.32 20.253 51.32C20.5596 51.32 20.8663 51.3133 21.173 51.3C21.493 51.2867 21.773 51.28 22.013 51.28C22.0396 51.28 22.053 51.32 22.053 51.4C22.053 51.48 22.0396 51.52 22.013 51.52C21.4396 51.52 21.073 51.6133 20.913 51.8C20.7663 51.9867 20.693 52.3667 20.693 52.94V57.38C20.693 57.9533 20.7663 58.3267 20.913 58.5C21.073 58.6733 21.4396 58.76 22.013 58.76C22.0396 58.76 22.053 58.8 22.053 58.88C22.053 58.96 22.0396 59 22.013 59C21.7596 59 21.4796 58.9933 21.173 58.98C20.8663 58.9667 20.5596 58.96 20.253 58.96C19.9196 58.96 19.593 58.9667 19.273 58.98C18.9663 58.9933 18.6863 59 18.433 59C18.393 59 18.373 58.96 18.373 58.88C18.373 58.8 18.393 58.76 18.433 58.76C19.0063 58.76 19.3663 58.6733 19.513 58.5C19.673 58.3267 19.753 57.9533 19.753 57.38ZM25.133 57.38V52.9C25.133 52.3133 25.053 51.94 24.893 51.78C24.7463 51.6067 24.393 51.52 23.833 51.52C23.793 51.52 23.773 51.48 23.773 51.4C23.773 51.32 23.793 51.28 23.833 51.28C24.073 51.28 24.3463 51.2867 24.653 51.3C24.973 51.3133 25.2996 51.32 25.633 51.32C25.9396 51.32 26.2463 51.3133 26.553 51.3C26.873 51.2867 27.153 51.28 27.393 51.28C27.4196 51.28 27.433 51.32 27.433 51.4C27.433 51.48 27.4196 51.52 27.393 51.52C26.8196 51.52 26.453 51.6133 26.293 51.8C26.1463 51.9867 26.073 52.3667 26.073 52.94V57.38C26.073 57.9533 26.1463 58.3267 26.293 58.5C26.453 58.6733 26.8196 58.76 27.393 58.76C27.4196 58.76 27.433 58.8 27.433 58.88C27.433 58.96 27.4196 59 27.393 59C27.1396 59 26.8596 58.9933 26.553 58.98C26.2463 58.9667 25.9396 58.96 25.633 58.96C25.2996 58.96 24.973 58.9667 24.653 58.98C24.333 58.9933 24.053 59 23.813 59C23.773 59 23.753 58.96 23.753 58.88C23.753 58.8 23.773 58.76 23.813 58.76C24.373 58.76 24.733 58.6733 24.893 58.5C25.053 58.3267 25.133 57.9533 25.133 57.38ZM28.6478 59C28.6078 59 28.5878 58.96 28.5878 58.88C28.5878 58.8 28.6078 58.76 28.6478 58.76C29.2211 58.76 29.5811 58.6733 29.7278 58.5C29.8878 58.3267 29.9678 57.9533 29.9678 57.38V52.9C29.9678 52.3133 29.8878 51.94 29.7278 51.78C29.5811 51.6067 29.2278 51.52 28.6678 51.52C28.6278 51.52 28.6078 51.48 28.6078 51.4C28.6078 51.32 28.6278 51.28 28.6678 51.28C28.9078 51.28 29.1811 51.2867 29.4878 51.3C29.8078 51.3133 30.1345 51.32 30.4678 51.32C30.8278 51.32 31.1811 51.3133 31.5278 51.3C31.8745 51.2867 32.1811 51.28 32.4478 51.28C32.4878 51.28 32.5078 51.32 32.5078 51.4C32.5078 51.48 32.4878 51.52 32.4478 51.52C31.7945 51.52 31.3745 51.6133 31.1878 51.8C31.0011 51.9867 30.9078 52.3667 30.9078 52.94V57.38C30.9078 57.9533 30.9811 58.3267 31.1278 58.5C31.2878 58.6733 31.6545 58.76 32.2278 58.76C32.2545 58.76 32.2678 58.8 32.2678 58.88C32.2678 58.96 32.2545 59 32.2278 59C31.9745 59 31.6945 58.9933 31.3878 58.98C31.0811 58.9667 30.7745 58.96 30.4678 58.96C30.1345 58.96 29.8078 58.9667 29.4878 58.98C29.1811 58.9933 28.9011 59 28.6478 59ZM34.9478 59C34.8945 59 34.8545 58.9933 34.8278 58.98C34.8011 58.9533 34.7611 58.8867 34.7078 58.78C34.6545 58.66 34.5545 58.4733 34.4078 58.22C34.2745 57.9533 34.0611 57.5733 33.7678 57.08C33.4478 56.5467 33.1678 56.1467 32.9278 55.88C32.7011 55.6 32.4611 55.4133 32.2078 55.32C31.9678 55.2133 31.6678 55.16 31.3078 55.16C31.0678 55.16 30.7678 55.18 30.4078 55.22L30.3878 54.86C30.6545 54.8467 30.8945 54.84 31.1078 54.84C31.3345 54.8267 31.5345 54.8133 31.7078 54.8C31.8945 54.7867 32.0678 54.78 32.2278 54.78C32.6411 54.78 32.9678 54.8333 33.2078 54.94C33.4611 55.0333 33.6945 55.2133 33.9078 55.48C34.1345 55.7467 34.4145 56.1467 34.7478 56.68C35.0411 57.1333 35.2878 57.5133 35.4878 57.82C35.6878 58.1133 35.9078 58.34 36.1478 58.5C36.3878 58.66 36.7078 58.7467 37.1078 58.76C37.1345 58.76 37.1478 58.8 37.1478 58.88C37.1478 58.96 37.1345 59 37.1078 59H34.9478ZM32.2278 55.1V54.78C32.3745 54.78 32.5078 54.74 32.6278 54.66C32.7478 54.58 32.8545 54.4733 32.9478 54.34C33.0545 54.1933 33.1545 54.0333 33.2478 53.86C33.5411 53.3133 33.7878 52.8333 33.9878 52.42C34.2011 52.0067 34.4211 51.6867 34.6478 51.46C34.8878 51.22 35.1878 51.1 35.5478 51.1C35.8278 51.1 36.0345 51.1667 36.1678 51.3C36.3145 51.4333 36.3878 51.58 36.3878 51.74C36.3878 51.9133 36.3211 52.0733 36.1878 52.22C36.0545 52.3533 35.8745 52.42 35.6478 52.42C35.5278 52.42 35.4278 52.4 35.3478 52.36C35.2678 52.3067 35.1945 52.26 35.1278 52.22C35.0611 52.18 34.9878 52.16 34.9078 52.16C34.8011 52.16 34.6611 52.26 34.4878 52.46C34.3278 52.66 34.1611 52.9 33.9878 53.18C33.8145 53.46 33.6611 53.7133 33.5278 53.94C33.3545 54.26 33.1611 54.5333 32.9478 54.76C32.7478 54.9867 32.5078 55.1 32.2278 55.1ZM41.1973 59.24C40.384 59.24 39.704 59.06 39.1573 58.7C38.6107 58.3267 38.1973 57.8467 37.9173 57.26C37.6507 56.6733 37.5173 56.0533 37.5173 55.4C37.5173 54.5867 37.704 53.86 38.0773 53.22C38.4507 52.5667 38.9573 52.0533 39.5973 51.68C40.2373 51.2933 40.9573 51.1 41.7573 51.1C42.464 51.1 43.004 51.28 43.3773 51.64C43.764 51.9867 43.9573 52.4667 43.9573 53.08C43.9573 53.2267 43.944 53.34 43.9173 53.42C43.8907 53.4867 43.824 53.52 43.7173 53.52H42.7373C42.804 52.8533 42.6773 52.3533 42.3573 52.02C42.0507 51.6733 41.624 51.5 41.0773 51.5C40.2907 51.5 39.6907 51.78 39.2773 52.34C38.864 52.9 38.6573 53.6667 38.6573 54.64C38.6573 55.4 38.7773 56.08 39.0173 56.68C39.2707 57.2667 39.6373 57.7333 40.1173 58.08C40.5973 58.4267 41.1707 58.6 41.8373 58.6C42.184 58.6 42.5373 58.5467 42.8973 58.44C43.2573 58.3333 43.5973 58.16 43.9173 57.92C43.944 57.8933 43.9773 57.9133 44.0173 57.98C44.0707 58.0333 44.084 58.08 44.0573 58.12C43.5907 58.52 43.1173 58.8067 42.6373 58.98C42.1707 59.1533 41.6907 59.24 41.1973 59.24ZM38.3973 53.54L38.3773 53.32L42.9773 53.22V53.52L38.3973 53.54ZM47.3228 59C47.2961 59 47.2828 58.96 47.2828 58.88C47.2828 58.8 47.2961 58.76 47.3228 58.76C47.8961 58.76 48.2628 58.6733 48.4228 58.5C48.5828 58.3267 48.6628 57.9533 48.6628 57.38V52.94C48.6628 52.38 48.5961 52.0067 48.4628 51.82C48.3295 51.6333 48.0295 51.54 47.5628 51.54C47.0428 51.54 46.6228 51.7 46.3028 52.02C45.9961 52.3267 45.8428 52.9533 45.8428 53.9C45.8428 53.9267 45.8028 53.94 45.7228 53.94C45.6428 53.94 45.6028 53.9267 45.6028 53.9C45.6028 53.7133 45.6028 53.4333 45.6028 53.06C45.6028 52.6733 45.5961 52.28 45.5828 51.88C45.5828 51.48 45.5828 51.1533 45.5828 50.9C45.5828 50.8333 45.6228 50.8 45.7028 50.8C45.7828 50.8 45.8228 50.8333 45.8228 50.9C45.8228 51.0867 46.1361 51.2 46.7628 51.24C47.4028 51.28 48.1895 51.3 49.1228 51.3C49.7495 51.3 50.3095 51.2933 50.8028 51.28C51.3095 51.2667 51.7095 51.2333 52.0028 51.18C52.2961 51.1133 52.4428 51.02 52.4428 50.9C52.4428 50.8333 52.4828 50.8 52.5628 50.8C52.6428 50.8 52.6828 50.8333 52.6828 50.9C52.6828 51.1533 52.6828 51.48 52.6828 51.88C52.6828 52.28 52.6761 52.6733 52.6628 53.06C52.6628 53.4333 52.6628 53.7133 52.6628 53.9C52.6628 53.9267 52.6228 53.94 52.5428 53.94C52.4628 53.94 52.4228 53.9267 52.4228 53.9C52.4228 52.9533 52.2561 52.3267 51.9228 52.02C51.5895 51.7 51.1628 51.54 50.6428 51.54C50.1895 51.54 49.9028 51.6333 49.7828 51.82C49.6628 52.0067 49.6028 52.38 49.6028 52.94V57.38C49.6028 57.9533 49.6761 58.3267 49.8228 58.5C49.9828 58.6733 50.3428 58.76 50.9028 58.76C50.9428 58.76 50.9628 58.8 50.9628 58.88C50.9628 58.96 50.9428 59 50.9028 59C50.6628 59 50.3895 58.9933 50.0828 58.98C49.7761 58.9667 49.4628 58.96 49.1428 58.96C48.8228 58.96 48.5028 58.9667 48.1828 58.98C47.8761 58.9933 47.5895 59 47.3228 59Z" fill="#282828"/>
<path d="M2.76 30C2.696 30 2.664 29.936 2.664 29.808C2.664 29.68 2.696 29.616 2.76 29.616C3.63467 29.616 4.296 29.5627 4.744 29.456C5.21333 29.3493 5.52267 29.136 5.672 28.816C5.82133 28.496 5.896 28.0267 5.896 27.408V21.456C5.896 20.6027 5.832 20.0053 5.704 19.664C5.576 19.3227 5.27733 19.1947 4.808 19.28C4.36 19.344 3.66667 19.6 2.728 20.048C2.64267 20.0693 2.568 20.0267 2.504 19.92C2.46133 19.792 2.48267 19.7173 2.568 19.696L7.4 17.36C7.48533 17.3173 7.56 17.328 7.624 17.392C7.688 17.456 7.72 17.52 7.72 17.584V27.408C7.72 28.0267 7.784 28.496 7.912 28.816C8.06133 29.136 8.36 29.3493 8.808 29.456C9.256 29.5627 9.928 29.616 10.824 29.616C10.888 29.616 10.92 29.68 10.92 29.808C10.92 29.936 10.888 30 10.824 30C10.2907 30 9.68267 29.9893 9 29.968C8.31733 29.9467 7.58133 29.936 6.792 29.936C6.04533 29.936 5.32 29.9467 4.616 29.968C3.93333 29.9893 3.31467 30 2.76 30ZM16.841 36.976C16.7557 37.1893 16.6597 37.3493 16.553 37.456C16.4463 37.5627 16.3183 37.6587 16.169 37.744L14.569 38.8C14.5263 38.8213 14.473 38.8 14.409 38.736C14.345 38.672 14.3237 38.6187 14.345 38.576L22.857 19.472C22.921 19.3227 22.8677 19.248 22.697 19.248C20.905 19.248 19.4223 19.2587 18.249 19.28C17.0757 19.3013 16.1477 19.3547 15.465 19.44C14.7823 19.5253 14.2597 19.6533 13.897 19.824C13.5557 19.9733 13.2997 20.176 13.129 20.432C12.9797 20.688 12.8517 21.0187 12.745 21.424C12.7237 21.488 12.649 21.5093 12.521 21.488C12.393 21.4667 12.3397 21.4133 12.361 21.328L13.481 16.784C13.5237 16.7413 13.5983 16.7307 13.705 16.752C13.833 16.752 13.8863 16.7733 13.865 16.816C13.7797 17.1787 13.833 17.4133 14.025 17.52C14.217 17.6053 14.665 17.648 15.369 17.648C15.689 17.648 16.1797 17.648 16.841 17.648C17.5023 17.648 18.249 17.648 19.081 17.648C19.913 17.648 20.745 17.648 21.577 17.648C22.4303 17.648 23.1877 17.648 23.849 17.648C23.9557 17.648 24.041 17.7013 24.105 17.808C24.169 17.8933 24.1797 17.9787 24.137 18.064L16.841 36.976ZM28.5118 30.352C28.0851 30.352 27.7438 30.2347 27.4878 30C27.2318 29.744 27.1038 29.4027 27.1038 28.976C27.1038 28.5707 27.2318 28.2507 27.4878 28.016C27.7438 27.76 28.0851 27.632 28.5118 27.632C28.9598 27.632 29.3011 27.76 29.5358 28.016C29.7704 28.2507 29.8878 28.5707 29.8878 28.976C29.8878 29.4027 29.7704 29.744 29.5358 30C29.3011 30.2347 28.9598 30.352 28.5118 30.352ZM28.5118 21.36C28.0851 21.36 27.7438 21.2427 27.4878 21.008C27.2318 20.752 27.1038 20.4107 27.1038 19.984C27.1038 19.5787 27.2318 19.2587 27.4878 19.024C27.7438 18.768 28.0851 18.64 28.5118 18.64C28.9598 18.64 29.3011 18.768 29.5358 19.024C29.7704 19.2587 29.8878 19.5787 29.8878 19.984C29.8878 20.4107 29.7704 20.752 29.5358 21.008C29.3011 21.2427 28.9598 21.36 28.5118 21.36ZM39.3363 30.416C38.0563 30.416 36.9149 30.128 35.9123 29.552C34.9309 28.976 34.1629 28.1867 33.6083 27.184C33.0536 26.1813 32.7763 25.0293 32.7763 23.728C32.7763 22.448 33.0536 21.328 33.6083 20.368C34.1629 19.3867 34.9416 18.6187 35.9443 18.064C36.9469 17.5093 38.0883 17.232 39.3683 17.232C40.6483 17.232 41.7683 17.52 42.7283 18.096C43.6883 18.6507 44.4349 19.4293 44.9683 20.432C45.5229 21.4133 45.8003 22.544 45.8003 23.824C45.8003 25.104 45.5229 26.2453 44.9683 27.248C44.4349 28.2293 43.6776 29.008 42.6963 29.584C41.7363 30.1387 40.6163 30.416 39.3363 30.416ZM39.6883 29.968C41.0109 29.968 41.9923 29.4347 42.6323 28.368C43.2723 27.3013 43.5923 25.9147 43.5923 24.208C43.5923 22.6933 43.3789 21.456 42.9523 20.496C42.5256 19.536 41.9603 18.832 41.2563 18.384C40.5736 17.9147 39.8269 17.68 39.0163 17.68C37.7363 17.68 36.7336 18.224 36.0083 19.312C35.3043 20.4 34.9523 21.7867 34.9523 23.472C34.9523 24.7093 35.1443 25.8187 35.5283 26.8C35.9336 27.7813 36.4883 28.56 37.1923 29.136C37.8963 29.6907 38.7283 29.968 39.6883 29.968ZM54.5863 30.416C53.3063 30.416 52.1649 30.128 51.1623 29.552C50.1809 28.976 49.4129 28.1867 48.8583 27.184C48.3036 26.1813 48.0263 25.0293 48.0263 23.728C48.0263 22.448 48.3036 21.328 48.8583 20.368C49.4129 19.3867 50.1916 18.6187 51.1943 18.064C52.1969 17.5093 53.3383 17.232 54.6183 17.232C55.8983 17.232 57.0183 17.52 57.9783 18.096C58.9383 18.6507 59.6849 19.4293 60.2183 20.432C60.7729 21.4133 61.0503 22.544 61.0503 23.824C61.0503 25.104 60.7729 26.2453 60.2183 27.248C59.6849 28.2293 58.9276 29.008 57.9463 29.584C56.9863 30.1387 55.8663 30.416 54.5863 30.416ZM54.9383 29.968C56.2609 29.968 57.2423 29.4347 57.8823 28.368C58.5223 27.3013 58.8423 25.9147 58.8423 24.208C58.8423 22.6933 58.6289 21.456 58.2023 20.496C57.7756 19.536 57.2103 18.832 56.5063 18.384C55.8236 17.9147 55.0769 17.68 54.2663 17.68C52.9863 17.68 51.9836 18.224 51.2583 19.312C50.5543 20.4 50.2023 21.7867 50.2023 23.472C50.2023 24.7093 50.3943 25.8187 50.7783 26.8C51.1836 27.7813 51.7383 28.56 52.4423 29.136C53.1463 29.6907 53.9783 29.968 54.9383 29.968Z" fill="#282828"/>
</svg>
