<svg width="141" height="129" viewBox="0 0 141 129" fill="none" xmlns="http://www.w3.org/2000/svg">
<path d="M16.52 59C16.392 59 16.328 58.872 16.328 58.616C16.328 58.36 16.392 58.232 16.52 58.232C18.2693 58.232 19.592 58.1253 20.488 57.912C21.4267 57.6987 22.0453 57.272 22.344 56.632C22.6427 55.992 22.792 55.0533 22.792 53.816V41.912C22.792 40.2053 22.664 39.0107 22.408 38.328C22.152 37.6453 21.5547 37.3893 20.616 37.56C19.72 37.688 18.3333 38.2 16.456 39.096C16.2853 39.1387 16.136 39.0533 16.008 38.84C15.9227 38.584 15.9653 38.4347 16.136 38.392L25.8 33.72C25.9707 33.6347 26.12 33.656 26.248 33.784C26.376 33.912 26.44 34.04 26.44 34.168V53.816C26.44 55.0533 26.568 55.992 26.824 56.632C27.1227 57.272 27.72 57.6987 28.616 57.912C29.512 58.1253 30.856 58.232 32.648 58.232C32.776 58.232 32.84 58.36 32.84 58.616C32.84 58.872 32.776 59 32.648 59C31.5813 59 30.3653 58.9787 29 58.936C27.6347 58.8933 26.1627 58.872 24.584 58.872C23.0907 58.872 21.64 58.8933 20.232 58.936C18.8667 58.9787 17.6293 59 16.52 59ZM53.386 40.888C55.434 40.888 57.0553 41.272 58.25 42.04C59.4873 42.808 60.3833 43.8107 60.938 45.048C61.4927 46.2427 61.77 47.5013 61.77 48.824C61.77 50.8293 61.194 52.6853 60.042 54.392C58.89 56.056 57.354 57.3787 55.434 58.36C53.514 59.3413 51.3593 59.832 48.97 59.832C45.386 59.832 42.5273 58.616 40.394 56.184C38.3033 53.7093 37.258 50.2107 37.258 45.688C37.258 41.72 38.1327 37.8373 39.882 34.04C41.674 30.2 44.2553 26.7653 47.626 23.736C51.0393 20.664 55.114 18.3173 59.85 16.696C60.0207 16.6533 60.1487 16.7387 60.234 16.952C60.3193 17.1653 60.298 17.3147 60.17 17.4C55.9887 19.2773 52.49 21.7307 49.674 24.76C46.9007 27.7467 44.81 30.968 43.402 34.424C42.0367 37.88 41.354 41.272 41.354 44.6C41.354 47.16 41.7167 49.5067 42.442 51.64C43.21 53.7307 44.2767 55.416 45.642 56.696C47.05 57.976 48.7567 58.616 50.762 58.616C52.81 58.616 54.474 57.912 55.754 56.504C57.034 55.0533 57.674 53.0693 57.674 50.552C57.674 48.3333 57.1407 46.4773 56.074 44.984C55.05 43.448 53.4287 42.68 51.21 42.68C50.058 42.68 48.9913 42.9147 48.01 43.384C47.0713 43.8533 46.0047 44.6213 44.81 45.688C44.7247 45.816 44.5753 45.816 44.362 45.688C44.1487 45.5173 44.0847 45.368 44.17 45.24C45.2793 43.832 46.602 42.7653 48.138 42.04C49.7167 41.272 51.466 40.888 53.386 40.888ZM70.336 59.704C69.4827 59.704 68.8 59.4693 68.288 59C67.776 58.488 67.52 57.8053 67.52 56.952C67.52 56.1413 67.776 55.5013 68.288 55.032C68.8 54.52 69.4827 54.264 70.336 54.264C71.232 54.264 71.9147 54.52 72.384 55.032C72.8533 55.5013 73.088 56.1413 73.088 56.952C73.088 57.8053 72.8533 58.488 72.384 59C71.9147 59.4693 71.232 59.704 70.336 59.704ZM70.336 41.72C69.4827 41.72 68.8 41.4853 68.288 41.016C67.776 40.504 67.52 39.8213 67.52 38.968C67.52 38.1573 67.776 37.5173 68.288 37.048C68.8 36.536 69.4827 36.28 70.336 36.28C71.232 36.28 71.9147 36.536 72.384 37.048C72.8533 37.5173 73.088 38.1573 73.088 38.968C73.088 39.8213 72.8533 40.504 72.384 41.016C71.9147 41.4853 71.232 41.72 70.336 41.72ZM91.985 59.832C89.425 59.832 87.1423 59.256 85.137 58.104C83.1743 56.952 81.6383 55.3733 80.529 53.368C79.4197 51.3627 78.865 49.0587 78.865 46.456C78.865 43.896 79.4197 41.656 80.529 39.736C81.6383 37.7733 83.1957 36.2373 85.201 35.128C87.2063 34.0187 89.489 33.464 92.049 33.464C94.609 33.464 96.849 34.04 98.769 35.192C100.689 36.3013 102.182 37.8587 103.249 39.864C104.358 41.8267 104.913 44.088 104.913 46.648C104.913 49.208 104.358 51.4907 103.249 53.496C102.182 55.4587 100.668 57.016 98.705 58.168C96.785 59.2773 94.545 59.832 91.985 59.832ZM92.689 58.936C95.3343 58.936 97.297 57.8693 98.577 55.736C99.857 53.6027 100.497 50.8293 100.497 47.416C100.497 44.3867 100.07 41.912 99.217 39.992C98.3637 38.072 97.233 36.664 95.825 35.768C94.4597 34.8293 92.9663 34.36 91.345 34.36C88.785 34.36 86.7797 35.448 85.329 37.624C83.921 39.8 83.217 42.5733 83.217 45.944C83.217 48.4187 83.601 50.6373 84.369 52.6C85.1797 54.5627 86.289 56.12 87.697 57.272C89.105 58.3813 90.769 58.936 92.689 58.936ZM122.485 59.832C119.925 59.832 117.642 59.256 115.637 58.104C113.674 56.952 112.138 55.3733 111.029 53.368C109.92 51.3627 109.365 49.0587 109.365 46.456C109.365 43.896 109.92 41.656 111.029 39.736C112.138 37.7733 113.696 36.2373 115.701 35.128C117.706 34.0187 119.989 33.464 122.549 33.464C125.109 33.464 127.349 34.04 129.269 35.192C131.189 36.3013 132.682 37.8587 133.749 39.864C134.858 41.8267 135.413 44.088 135.413 46.648C135.413 49.208 134.858 51.4907 133.749 53.496C132.682 55.4587 131.168 57.016 129.205 58.168C127.285 59.2773 125.045 59.832 122.485 59.832ZM123.189 58.936C125.834 58.936 127.797 57.8693 129.077 55.736C130.357 53.6027 130.997 50.8293 130.997 47.416C130.997 44.3867 130.57 41.912 129.717 39.992C128.864 38.072 127.733 36.664 126.325 35.768C124.96 34.8293 123.466 34.36 121.845 34.36C119.285 34.36 117.28 35.448 115.829 37.624C114.421 39.8 113.717 42.5733 113.717 45.944C113.717 48.4187 114.101 50.6373 114.869 52.6C115.68 54.5627 116.789 56.12 118.197 57.272C119.605 58.3813 121.269 58.936 123.189 58.936Z" fill="#282828"/>
<path d="M53.4598 83.76C53.8758 83.76 54.3078 83.752 54.7558 83.736C55.2038 83.704 55.6598 83.688 56.1238 83.688C57.0198 83.688 57.7078 83.84 58.1878 84.144C58.6678 84.448 58.9078 84.904 58.9078 85.512C58.9078 86.376 58.2998 87.24 57.0838 88.104L56.7718 87.984C57.0438 87.76 57.2518 87.496 57.3958 87.192C57.5398 86.888 57.6118 86.504 57.6118 86.04C57.6118 85.32 57.4278 84.8 57.0598 84.48C56.7078 84.16 56.1878 84 55.4998 84C54.9078 84 54.5078 84.104 54.2998 84.312C54.0918 84.504 53.9878 84.976 53.9878 85.728V91.056C53.9878 91.632 54.1158 92.048 54.3718 92.304C54.6438 92.56 55.1958 92.688 56.0278 92.688C56.9078 92.688 57.5478 92.512 57.9478 92.16C58.3638 91.792 58.5718 91.28 58.5718 90.624C58.5718 89.92 58.3558 89.352 57.9238 88.92C57.4918 88.472 56.7718 88.248 55.7638 88.248H53.5558L53.5318 87.864H56.6038C58.8118 87.864 59.9158 88.6 59.9158 90.072C59.9158 90.936 59.5878 91.648 58.9318 92.208C58.2758 92.768 57.4518 93.048 56.4598 93.048C56.0758 93.048 55.5878 93.032 54.9958 93C54.4198 92.968 53.9078 92.952 53.4598 92.952C53.0598 92.952 52.6678 92.96 52.2838 92.976C51.9158 92.992 51.5798 93 51.2758 93C51.2278 93 51.2038 92.952 51.2038 92.856C51.2038 92.76 51.2278 92.712 51.2758 92.712C51.9638 92.712 52.3958 92.608 52.5718 92.4C52.7638 92.192 52.8598 91.744 52.8598 91.056V85.68C52.8598 84.976 52.7638 84.528 52.5718 84.336C52.3958 84.128 51.9718 84.024 51.2998 84.024C51.2518 84.024 51.2278 83.976 51.2278 83.88C51.2278 83.784 51.2518 83.736 51.2998 83.736C51.5878 83.736 51.9158 83.744 52.2838 83.76C52.6678 83.76 53.0598 83.76 53.4598 83.76ZM70.7546 93C70.7066 93 70.6826 92.952 70.6826 92.856C70.6826 92.76 70.7066 92.712 70.7546 92.712C71.4426 92.712 71.8746 92.608 72.0506 92.4C72.2426 92.192 72.3386 91.744 72.3386 91.056V85.68C72.3386 84.976 72.2426 84.528 72.0506 84.336C71.8746 84.128 71.4506 84.024 70.7786 84.024C70.7306 84.024 70.7066 83.976 70.7066 83.88C70.7066 83.784 70.7306 83.736 70.7786 83.736C71.0666 83.736 71.3946 83.744 71.7626 83.76C72.1466 83.776 72.5386 83.784 72.9386 83.784C73.3066 83.784 73.6746 83.776 74.0426 83.76C74.4266 83.744 74.7546 83.736 75.0266 83.736C75.0746 83.736 75.0986 83.784 75.0986 83.88C75.0986 83.976 75.0746 84.024 75.0266 84.024C74.3546 84.024 73.9226 84.136 73.7306 84.36C73.5546 84.584 73.4666 85.04 73.4666 85.728V91.056C73.4666 91.744 73.5546 92.192 73.7306 92.4C73.9226 92.608 74.3546 92.712 75.0266 92.712C75.0746 92.712 75.0986 92.76 75.0986 92.856C75.0986 92.952 75.0746 93 75.0266 93C74.7386 93 74.4106 92.992 74.0426 92.976C73.6746 92.96 73.3066 92.952 72.9386 92.952C72.5386 92.952 72.1466 92.96 71.7626 92.976C71.3946 92.992 71.0586 93 70.7546 93ZM64.3706 85.728V91.056C64.3706 91.632 64.4986 92.048 64.7546 92.304C65.0266 92.56 65.5786 92.688 66.4106 92.688C67.1946 92.688 67.7706 92.512 68.1386 92.16C68.5226 91.792 68.7146 91.28 68.7146 90.624C68.7146 89.84 68.5146 89.208 68.1146 88.728C67.7146 88.232 67.0586 87.984 66.1466 87.984C65.7786 87.984 65.4266 88.016 65.0906 88.08C64.7706 88.128 64.4266 88.24 64.0586 88.416L63.9146 88.152C64.4266 87.928 64.9386 87.776 65.4506 87.696C65.9786 87.616 66.4906 87.576 66.9866 87.576C69.0026 87.576 70.0106 88.408 70.0106 90.072C70.0106 90.936 69.7066 91.648 69.0986 92.208C68.5066 92.768 67.7546 93.048 66.8426 93.048C66.5866 93.048 66.2826 93.04 65.9306 93.024C65.5786 93.008 65.2186 92.992 64.8506 92.976C64.4826 92.96 64.1466 92.952 63.8426 92.952C63.4426 92.952 63.0506 92.96 62.6666 92.976C62.2986 92.992 61.9626 93 61.6586 93C61.6106 93 61.5866 92.952 61.5866 92.856C61.5866 92.76 61.6106 92.712 61.6586 92.712C62.3466 92.712 62.7786 92.608 62.9546 92.4C63.1466 92.192 63.2426 91.744 63.2426 91.056V85.68C63.2426 84.976 63.1466 84.528 62.9546 84.336C62.7786 84.128 62.3546 84.024 61.6826 84.024C61.6346 84.024 61.6106 83.976 61.6106 83.88C61.6106 83.784 61.6346 83.736 61.6826 83.736C61.9706 83.736 62.2986 83.744 62.6666 83.76C63.0506 83.776 63.4426 83.784 63.8426 83.784C64.2746 83.784 64.6986 83.776 65.1146 83.76C65.5306 83.744 65.8986 83.736 66.2186 83.736C66.2666 83.736 66.2906 83.784 66.2906 83.88C66.2906 83.976 66.2666 84.024 66.2186 84.024C65.4346 84.024 64.9306 84.136 64.7066 84.36C64.4826 84.584 64.3706 85.04 64.3706 85.728ZM81.1009 93.288C80.1249 93.288 79.3089 93.072 78.6529 92.64C77.9969 92.192 77.5009 91.616 77.1649 90.912C76.8449 90.208 76.6849 89.464 76.6849 88.68C76.6849 87.704 76.9089 86.832 77.3569 86.064C77.8049 85.28 78.4129 84.664 79.1809 84.216C79.9489 83.752 80.8129 83.52 81.7729 83.52C82.6209 83.52 83.2689 83.736 83.7169 84.168C84.1809 84.584 84.4129 85.16 84.4129 85.896C84.4129 86.072 84.3969 86.208 84.3649 86.304C84.3329 86.384 84.2529 86.424 84.1249 86.424H82.9489C83.0289 85.624 82.8769 85.024 82.4929 84.624C82.1249 84.208 81.6129 84 80.9569 84C80.0129 84 79.2929 84.336 78.7969 85.008C78.3009 85.68 78.0529 86.6 78.0529 87.768C78.0529 88.68 78.1969 89.496 78.4849 90.216C78.7889 90.92 79.2289 91.48 79.8049 91.896C80.3809 92.312 81.0689 92.52 81.8689 92.52C82.2849 92.52 82.7089 92.456 83.1409 92.328C83.5729 92.2 83.9809 91.992 84.3649 91.704C84.3969 91.672 84.4369 91.696 84.4849 91.776C84.5489 91.84 84.5649 91.896 84.5329 91.944C83.9729 92.424 83.4049 92.768 82.8289 92.976C82.2689 93.184 81.6929 93.288 81.1009 93.288ZM77.7409 86.448L77.7169 86.184L83.2369 86.064V86.424L77.7409 86.448ZM89.6548 92.976C90.4068 92.976 90.9508 92.76 91.2868 92.328C91.6228 91.88 91.7908 91.336 91.7908 90.696C91.7908 89.944 91.5588 89.32 91.0948 88.824C90.6468 88.328 89.8788 88.08 88.7908 88.08C88.7268 88.08 88.6868 88.04 88.6708 87.96C88.6708 87.864 88.7108 87.816 88.7908 87.816C89.7828 87.816 90.4708 87.648 90.8548 87.312C91.2548 86.976 91.4548 86.536 91.4548 85.992C91.4548 85.288 91.2948 84.768 90.9748 84.432C90.6548 84.08 90.1668 83.904 89.5108 83.904C88.7748 83.904 88.2148 84.104 87.8308 84.504C87.4468 84.888 87.1268 85.456 86.8708 86.208C86.8548 86.24 86.7988 86.248 86.7028 86.232C86.6068 86.216 86.5668 86.192 86.5828 86.16L87.2068 83.232C87.2228 83.184 87.2788 83.176 87.3748 83.208C87.4708 83.224 87.5108 83.248 87.4948 83.28C87.4468 83.52 87.4628 83.688 87.5428 83.784C87.6388 83.864 87.7428 83.904 87.8548 83.904C88.0148 83.904 88.1908 83.864 88.3828 83.784C88.5908 83.704 88.8388 83.624 89.1268 83.544C89.4148 83.464 89.7588 83.424 90.1588 83.424C91.0228 83.424 91.6628 83.64 92.0788 84.072C92.5108 84.488 92.7268 84.96 92.7268 85.488C92.7268 86.08 92.4708 86.616 91.9588 87.096C91.4468 87.56 90.7508 87.864 89.8708 88.008L89.9188 87.816C90.6548 87.768 91.2628 87.864 91.7428 88.104C92.2228 88.344 92.5828 88.68 92.8228 89.112C93.0628 89.528 93.1828 89.976 93.1828 90.456C93.1828 91.048 93.0148 91.56 92.6788 91.992C92.3588 92.408 91.9188 92.728 91.3588 92.952C90.7988 93.176 90.1828 93.288 89.5108 93.288C88.9988 93.288 88.5028 93.224 88.0228 93.096C87.5428 92.984 87.1428 92.848 86.8228 92.688C86.7108 92.624 86.6388 92.568 86.6068 92.52C86.5748 92.472 86.5508 92.392 86.5348 92.28L86.3428 90.336C86.3428 90.288 86.3828 90.256 86.4628 90.24C86.5428 90.224 86.5908 90.248 86.6068 90.312C86.8308 91.144 87.2068 91.8 87.7348 92.28C88.2788 92.744 88.9188 92.976 89.6548 92.976ZM94.7256 96.096C94.7256 95.408 94.7176 94.848 94.7016 94.416C94.6856 93.984 94.6616 93.64 94.6296 93.384C94.6136 93.128 94.6056 92.936 94.6056 92.808C94.6056 92.664 94.6696 92.576 94.7976 92.544C94.9256 92.496 95.0296 92.472 95.1096 92.472C95.8296 92.472 96.4696 91.952 97.0296 90.912C97.5896 89.872 98.0456 88.264 98.3976 86.088C98.4936 85.512 98.4936 85.072 98.3976 84.768C98.3176 84.448 98.1416 84.232 97.8696 84.12C97.5976 84.008 97.2456 83.952 96.8136 83.952C96.7816 83.952 96.7656 83.912 96.7656 83.832C96.7656 83.736 96.7816 83.688 96.8136 83.688C96.9576 83.688 97.2056 83.696 97.5576 83.712C97.9256 83.712 98.3176 83.712 98.7336 83.712C99.1496 83.712 99.5336 83.72 99.8856 83.736C100.238 83.736 100.47 83.736 100.582 83.736H104.854C104.886 83.736 104.902 83.784 104.902 83.88C104.902 83.976 104.886 84.024 104.854 84.024C104.326 84.024 103.926 84.072 103.654 84.168C103.398 84.264 103.222 84.432 103.126 84.672C103.046 84.912 103.006 85.264 103.006 85.728V91.056C103.006 91.536 103.054 91.88 103.15 92.088C103.262 92.28 103.438 92.4 103.678 92.448C103.918 92.496 104.238 92.52 104.638 92.52C104.75 92.52 104.814 92.536 104.83 92.568C104.846 92.584 104.854 92.664 104.854 92.808C104.854 92.936 104.846 93.128 104.83 93.384C104.814 93.64 104.79 93.984 104.758 94.416C104.742 94.848 104.734 95.408 104.734 96.096C104.734 96.16 104.686 96.192 104.59 96.192C104.51 96.192 104.47 96.16 104.47 96.096C104.47 95.024 104.358 94.24 104.134 93.744C103.91 93.248 103.446 93 102.742 93H97.0776C96.4376 93 95.9256 93.248 95.5416 93.744C95.1736 94.24 94.9896 95.024 94.9896 96.096C94.9896 96.16 94.9416 96.192 94.8456 96.192C94.7656 96.192 94.7256 96.16 94.7256 96.096ZM95.7336 92.976V92.496H99.4056C100.174 92.496 100.726 92.48 101.062 92.448C101.414 92.4 101.638 92.272 101.734 92.064C101.83 91.856 101.878 91.52 101.878 91.056V85.68C101.878 85.184 101.862 84.84 101.83 84.648C101.798 84.44 101.694 84.312 101.518 84.264C101.342 84.216 101.038 84.192 100.606 84.192H100.414C100.078 84.192 99.8136 84.248 99.6216 84.36C99.4456 84.456 99.3096 84.608 99.2136 84.816C99.1336 85.024 99.0616 85.288 98.9976 85.608C98.7736 86.888 98.5496 87.96 98.3256 88.824C98.1016 89.688 97.8616 90.392 97.6056 90.936C97.3656 91.464 97.0936 91.888 96.7896 92.208C96.4856 92.528 96.1336 92.784 95.7336 92.976ZM108.536 88.584V88.152H114.992V88.584H108.536ZM108.008 91.056V85.68C108.008 84.976 107.912 84.528 107.72 84.336C107.544 84.128 107.12 84.024 106.448 84.024C106.4 84.024 106.376 83.976 106.376 83.88C106.376 83.784 106.4 83.736 106.448 83.736C106.736 83.736 107.064 83.744 107.432 83.76C107.816 83.776 108.208 83.784 108.608 83.784C108.976 83.784 109.344 83.776 109.712 83.76C110.096 83.744 110.432 83.736 110.72 83.736C110.752 83.736 110.768 83.784 110.768 83.88C110.768 83.976 110.752 84.024 110.72 84.024C110.032 84.024 109.592 84.136 109.4 84.36C109.224 84.584 109.136 85.04 109.136 85.728V91.056C109.136 91.744 109.224 92.192 109.4 92.4C109.592 92.608 110.032 92.712 110.72 92.712C110.752 92.712 110.768 92.76 110.768 92.856C110.768 92.952 110.752 93 110.72 93C110.416 93 110.08 92.992 109.712 92.976C109.344 92.96 108.976 92.952 108.608 92.952C108.208 92.952 107.816 92.96 107.432 92.976C107.064 92.992 106.728 93 106.424 93C106.376 93 106.352 92.952 106.352 92.856C106.352 92.76 106.376 92.712 106.424 92.712C107.112 92.712 107.544 92.608 107.72 92.4C107.912 92.192 108.008 91.744 108.008 91.056ZM114.464 91.056V85.68C114.464 84.976 114.368 84.528 114.176 84.336C114 84.128 113.576 84.024 112.904 84.024C112.856 84.024 112.832 83.976 112.832 83.88C112.832 83.784 112.856 83.736 112.904 83.736C113.192 83.736 113.52 83.744 113.888 83.76C114.272 83.776 114.664 83.784 115.064 83.784C115.432 83.784 115.8 83.776 116.168 83.76C116.552 83.744 116.888 83.736 117.176 83.736C117.208 83.736 117.224 83.784 117.224 83.88C117.224 83.976 117.208 84.024 117.176 84.024C116.488 84.024 116.048 84.136 115.856 84.36C115.68 84.584 115.592 85.04 115.592 85.728V91.056C115.592 91.744 115.68 92.192 115.856 92.4C116.048 92.608 116.488 92.712 117.176 92.712C117.208 92.712 117.224 92.76 117.224 92.856C117.224 92.952 117.208 93 117.176 93C116.872 93 116.536 92.992 116.168 92.976C115.8 92.96 115.432 92.952 115.064 92.952C114.664 92.952 114.272 92.96 113.888 92.976C113.504 92.992 113.168 93 112.88 93C112.832 93 112.808 92.952 112.808 92.856C112.808 92.76 112.832 92.712 112.88 92.712C113.552 92.712 113.984 92.608 114.176 92.4C114.368 92.192 114.464 91.744 114.464 91.056ZM125.426 93.144C125.362 93.176 125.298 93.192 125.234 93.192C125.042 93.192 124.866 93.024 124.706 92.688C124.546 92.352 124.466 91.864 124.466 91.224V86.88C124.466 86.096 124.386 85.496 124.226 85.08C124.082 84.664 123.882 84.384 123.626 84.24C123.386 84.08 123.122 84 122.834 84C122.402 84 122.05 84.112 121.778 84.336C121.506 84.56 121.298 84.832 121.154 85.152C121.026 85.456 120.938 85.744 120.89 86.016C120.874 86.176 120.818 86.352 120.722 86.544C120.642 86.72 120.442 86.808 120.122 86.808C119.914 86.808 119.738 86.752 119.594 86.64C119.466 86.528 119.402 86.368 119.402 86.16C119.402 85.888 119.538 85.6 119.81 85.296C120.082 84.992 120.426 84.704 120.842 84.432C121.274 84.16 121.73 83.944 122.21 83.784C122.69 83.608 123.138 83.52 123.554 83.52C124.146 83.52 124.626 83.736 124.994 84.168C125.378 84.584 125.57 85.248 125.57 86.16V90.408C125.57 90.984 125.634 91.408 125.762 91.68C125.906 91.936 126.146 92.064 126.482 92.064C126.786 92.064 127.226 91.944 127.802 91.704C127.882 91.672 127.938 91.704 127.97 91.8C128.002 91.88 127.978 91.936 127.898 91.968L125.426 93.144ZM120.794 93.168C120.282 93.168 119.898 93.032 119.642 92.76C119.402 92.472 119.282 92.152 119.282 91.8C119.282 91.384 119.45 91.048 119.786 90.792C120.122 90.52 120.674 90.248 121.442 89.976L124.706 88.8L124.754 89.04L121.682 90.216C121.33 90.344 121.082 90.496 120.938 90.672C120.794 90.848 120.722 91.072 120.722 91.344C120.722 91.68 120.818 91.944 121.01 92.136C121.218 92.312 121.474 92.4 121.778 92.4C121.954 92.4 122.114 92.384 122.258 92.352C122.418 92.304 122.562 92.248 122.69 92.184L124.922 91.056L124.97 91.32L122.882 92.448C122.386 92.704 121.986 92.888 121.682 93C121.394 93.112 121.098 93.168 120.794 93.168ZM137.233 92.712C137.265 92.712 137.281 92.76 137.281 92.856C137.281 92.952 137.265 93 137.233 93C136.961 93 136.641 92.992 136.273 92.976C135.921 92.96 135.545 92.952 135.145 92.952C134.713 92.952 134.313 92.96 133.945 92.976C133.593 92.992 133.257 93 132.937 93C132.905 93 132.889 92.952 132.889 92.856C132.889 92.76 132.905 92.712 132.937 92.712C133.625 92.712 134.057 92.608 134.233 92.4C134.425 92.192 134.521 91.744 134.521 91.056V88.368L134.785 88.416C134.337 88.416 133.929 88.488 133.561 88.632C133.193 88.76 132.833 89.016 132.481 89.4C132.129 89.768 131.745 90.32 131.329 91.056C131.025 91.6 130.785 92.016 130.609 92.304C130.449 92.576 130.321 92.76 130.225 92.856C130.129 92.952 130.025 93 129.913 93H128.017C127.985 93 127.969 92.952 127.969 92.856C127.969 92.76 127.985 92.712 128.017 92.712C128.433 92.712 128.777 92.6 129.049 92.376C129.337 92.136 129.577 91.856 129.769 91.536C129.961 91.2 130.145 90.88 130.321 90.576C130.657 89.984 131.089 89.472 131.617 89.04C132.161 88.608 132.745 88.392 133.369 88.392L133.537 88.488C132.641 88.488 131.929 88.392 131.401 88.2C130.889 87.992 130.521 87.712 130.297 87.36C130.089 87.008 129.985 86.608 129.985 86.16C129.985 85.392 130.249 84.784 130.777 84.336C131.321 83.888 132.041 83.664 132.937 83.664C133.209 83.664 133.569 83.688 134.017 83.736C134.465 83.768 134.841 83.784 135.145 83.784C135.545 83.784 135.913 83.776 136.249 83.76C136.601 83.744 136.921 83.736 137.209 83.736C137.241 83.736 137.257 83.784 137.257 83.88C137.257 83.976 137.241 84.024 137.209 84.024C136.569 84.024 136.145 84.128 135.937 84.336C135.729 84.528 135.625 84.976 135.625 85.68V91.056C135.625 91.744 135.729 92.192 135.937 92.4C136.161 92.608 136.593 92.712 137.233 92.712ZM131.209 85.608C131.209 86.344 131.393 86.952 131.761 87.432C132.145 87.912 132.713 88.152 133.465 88.152C133.689 88.152 133.937 88.136 134.209 88.104C134.481 88.072 134.697 88.04 134.857 88.008L134.521 88.176V85.728C134.521 84.992 134.417 84.512 134.209 84.288C134.001 84.064 133.569 83.952 132.913 83.952C131.777 83.952 131.209 84.504 131.209 85.608ZM43.7109 122H35.4789C35.4309 122 35.4069 121.952 35.4069 121.856C35.4069 121.76 35.4309 121.712 35.4789 121.712C36.1509 121.712 36.5749 121.6 36.7509 121.376C36.9429 121.152 37.0389 120.696 37.0389 120.008V114.68C37.0389 113.976 36.9429 113.528 36.7509 113.336C36.5749 113.128 36.1509 113.024 35.4789 113.024C35.4309 113.024 35.4069 112.976 35.4069 112.88C35.4069 112.784 35.4309 112.736 35.4789 112.736C35.7669 112.736 36.0949 112.744 36.4629 112.76C36.8309 112.776 37.1989 112.784 37.5669 112.784C37.9669 112.784 38.3589 112.776 38.7429 112.76C39.1269 112.744 39.4709 112.736 39.7749 112.736C39.8069 112.736 39.8229 112.784 39.8229 112.88C39.8229 112.976 39.8069 113.024 39.7749 113.024C39.0869 113.024 38.6469 113.128 38.4549 113.336C38.2629 113.528 38.1669 113.976 38.1669 114.68V120.056C38.1669 120.536 38.1829 120.88 38.2149 121.088C38.2469 121.296 38.3509 121.424 38.5269 121.472C38.7029 121.52 38.9989 121.544 39.4149 121.544H42.1269C42.5589 121.544 42.8629 121.52 43.0389 121.472C43.2309 121.424 43.3429 121.296 43.3749 121.088C43.4069 120.864 43.4229 120.504 43.4229 120.008V114.68C43.4229 113.976 43.3269 113.528 43.1349 113.336C42.9429 113.128 42.5109 113.024 41.8389 113.024C41.8069 113.024 41.7909 112.976 41.7909 112.88C41.7909 112.784 41.8069 112.736 41.8389 112.736C42.1429 112.736 42.4709 112.744 42.8229 112.76C43.1909 112.776 43.5669 112.784 43.9509 112.784C44.3509 112.784 44.7349 112.776 45.1029 112.76C45.4869 112.744 45.8309 112.736 46.1349 112.736C46.1829 112.736 46.2069 112.784 46.2069 112.88C46.2069 112.976 46.1829 113.024 46.1349 113.024C45.4469 113.024 45.0069 113.128 44.8149 113.336C44.6229 113.528 44.5269 113.976 44.5269 114.68V120.056C44.5269 120.44 44.5589 120.744 44.6229 120.968C44.6869 121.176 44.8309 121.32 45.0549 121.4C45.2949 121.48 45.6629 121.52 46.1589 121.52C46.2869 121.52 46.3589 121.536 46.3749 121.568C46.3909 121.584 46.3989 121.664 46.3989 121.808C46.3989 121.952 46.3909 122.128 46.3749 122.336C46.3589 122.56 46.3349 122.88 46.3029 123.296C46.2869 123.728 46.2789 124.328 46.2789 125.096C46.2789 125.16 46.2309 125.192 46.1349 125.192C46.0389 125.192 45.9909 125.16 45.9909 125.096C45.9909 124.28 45.9349 123.648 45.8229 123.2C45.7269 122.752 45.5109 122.44 45.1749 122.264C44.8549 122.088 44.3669 122 43.7109 122ZM52.2024 122.288C51.2264 122.288 50.4104 122.072 49.7544 121.64C49.0984 121.192 48.6024 120.616 48.2664 119.912C47.9464 119.208 47.7864 118.464 47.7864 117.68C47.7864 116.704 48.0104 115.832 48.4584 115.064C48.9064 114.28 49.5144 113.664 50.2824 113.216C51.0504 112.752 51.9144 112.52 52.8744 112.52C53.7224 112.52 54.3704 112.736 54.8184 113.168C55.2824 113.584 55.5144 114.16 55.5144 114.896C55.5144 115.072 55.4984 115.208 55.4664 115.304C55.4344 115.384 55.3544 115.424 55.2264 115.424H54.0504C54.1304 114.624 53.9784 114.024 53.5944 113.624C53.2264 113.208 52.7144 113 52.0584 113C51.1144 113 50.3944 113.336 49.8984 114.008C49.4024 114.68 49.1544 115.6 49.1544 116.768C49.1544 117.68 49.2984 118.496 49.5864 119.216C49.8904 119.92 50.3304 120.48 50.9064 120.896C51.4824 121.312 52.1704 121.52 52.9704 121.52C53.3864 121.52 53.8104 121.456 54.2424 121.328C54.6744 121.2 55.0824 120.992 55.4664 120.704C55.4984 120.672 55.5384 120.696 55.5864 120.776C55.6504 120.84 55.6664 120.896 55.6344 120.944C55.0744 121.424 54.5064 121.768 53.9304 121.976C53.3704 122.184 52.7944 122.288 52.2024 122.288ZM48.8424 115.448L48.8184 115.184L54.3384 115.064V115.424L48.8424 115.448ZM57.009 128.6C56.977 128.6 56.961 128.552 56.961 128.456C56.961 128.36 56.977 128.312 57.009 128.312C57.793 128.312 58.297 128.208 58.521 128C58.761 127.792 58.881 127.344 58.881 126.656V114.68C58.881 114.008 58.737 113.568 58.449 113.36C58.177 113.136 57.609 113.024 56.745 113.024C56.697 113.024 56.673 112.976 56.673 112.88C56.673 112.784 56.697 112.736 56.745 112.736C57.193 112.736 57.593 112.736 57.945 112.736C58.297 112.736 58.601 112.736 58.857 112.736C59.129 112.736 59.361 112.736 59.553 112.736C59.729 112.736 59.841 112.776 59.889 112.856C59.953 112.936 59.985 113.112 59.985 113.384V126.656C59.985 127.104 60.049 127.448 60.177 127.688C60.305 127.928 60.545 128.088 60.897 128.168C61.249 128.264 61.769 128.312 62.457 128.312C62.505 128.312 62.529 128.36 62.529 128.456C62.529 128.552 62.505 128.6 62.457 128.6C62.041 128.6 61.577 128.592 61.065 128.576C60.553 128.56 60.017 128.552 59.457 128.552C59.009 128.552 58.569 128.56 58.137 128.576C57.705 128.592 57.329 128.6 57.009 128.6ZM62.649 122.312C62.041 122.312 61.497 122.232 61.017 122.072C60.553 121.912 60.041 121.608 59.481 121.16L59.721 119.888C60.169 120.448 60.673 120.912 61.233 121.28C61.793 121.648 62.529 121.832 63.441 121.832C64.289 121.832 65.009 121.456 65.601 120.704C66.193 119.952 66.489 118.912 66.489 117.584C66.489 116.16 66.177 115.08 65.553 114.344C64.929 113.592 64.169 113.216 63.273 113.216C62.537 113.216 61.889 113.424 61.329 113.84C60.769 114.256 60.233 114.752 59.721 115.328L59.505 115.16C60.321 114.216 61.105 113.528 61.857 113.096C62.609 112.648 63.369 112.424 64.137 112.424C64.793 112.424 65.393 112.6 65.937 112.952C66.497 113.288 66.945 113.784 67.281 114.44C67.617 115.096 67.785 115.896 67.785 116.84C67.785 117.8 67.617 118.624 67.281 119.312C66.945 120 66.513 120.568 65.985 121.016C65.457 121.448 64.897 121.776 64.305 122C63.713 122.208 63.161 122.312 62.649 122.312ZM74.0462 122.288C73.0702 122.288 72.2542 122.072 71.5982 121.64C70.9422 121.192 70.4462 120.616 70.1102 119.912C69.7902 119.208 69.6302 118.464 69.6302 117.68C69.6302 116.704 69.8542 115.832 70.3022 115.064C70.7502 114.28 71.3582 113.664 72.1262 113.216C72.8942 112.752 73.7582 112.52 74.7182 112.52C75.5662 112.52 76.2142 112.736 76.6622 113.168C77.1262 113.584 77.3582 114.16 77.3582 114.896C77.3582 115.072 77.3422 115.208 77.3102 115.304C77.2782 115.384 77.1982 115.424 77.0702 115.424H75.8942C75.9742 114.624 75.8222 114.024 75.4382 113.624C75.0702 113.208 74.5582 113 73.9022 113C72.9582 113 72.2382 113.336 71.7422 114.008C71.2462 114.68 70.9982 115.6 70.9982 116.768C70.9982 117.68 71.1422 118.496 71.4302 119.216C71.7342 119.92 72.1742 120.48 72.7502 120.896C73.3262 121.312 74.0142 121.52 74.8142 121.52C75.2302 121.52 75.6542 121.456 76.0862 121.328C76.5182 121.2 76.9262 120.992 77.3102 120.704C77.3422 120.672 77.3822 120.696 77.4302 120.776C77.4942 120.84 77.5102 120.896 77.4782 120.944C76.9182 121.424 76.3502 121.768 75.7742 121.976C75.2142 122.184 74.6382 122.288 74.0462 122.288ZM70.6862 115.448L70.6622 115.184L76.1822 115.064V115.424L70.6862 115.448ZM80.6048 119.504L80.9648 113.264L81.4448 113.336L81.0848 119.504C81.0368 120.32 81.1328 120.896 81.3728 121.232C81.6128 121.552 82.0208 121.712 82.5968 121.712C82.6288 121.712 82.6448 121.76 82.6448 121.856C82.6448 121.952 82.6288 122 82.5968 122C82.3408 122 82.0608 121.992 81.7568 121.976C81.4688 121.96 81.1568 121.952 80.8208 121.952C80.5008 121.952 80.1808 121.96 79.8608 121.976C79.5568 121.992 79.2688 122 78.9968 122C78.9648 122 78.9488 121.952 78.9488 121.856C78.9488 121.76 78.9648 121.712 78.9968 121.712C79.5728 121.712 79.9728 121.552 80.1968 121.232C80.4208 120.896 80.5568 120.32 80.6048 119.504ZM91.5248 121.712C91.5568 121.712 91.5728 121.76 91.5728 121.856C91.5728 121.952 91.5568 122 91.5248 122C91.2208 122 90.8768 121.992 90.4928 121.976C90.1248 121.96 89.7568 121.952 89.3888 121.952C89.0048 121.952 88.6608 121.96 88.3568 121.976C88.0688 121.992 87.7888 122 87.5168 122C87.4688 122 87.4448 121.952 87.4448 121.856C87.4448 121.76 87.4688 121.712 87.5168 121.712C88.0768 121.712 88.4368 121.608 88.5968 121.4C88.7728 121.192 88.8368 120.744 88.7888 120.056L88.3568 113.024H88.6928L85.2128 121.16C85.1808 121.224 85.1168 121.256 85.0208 121.256C84.9248 121.256 84.8608 121.224 84.8288 121.16L81.5168 114.728C81.1648 114.008 80.7888 113.544 80.3888 113.336C79.9888 113.128 79.6288 113.024 79.3088 113.024C79.2767 113.024 79.2607 112.976 79.2607 112.88C79.2607 112.784 79.2767 112.736 79.3088 112.736C79.5008 112.736 79.7008 112.744 79.9088 112.76C80.1328 112.76 80.3168 112.76 80.4608 112.76C80.6848 112.76 80.8928 112.76 81.0848 112.76C81.2768 112.744 81.4208 112.736 81.5168 112.736C81.7408 112.736 81.8928 112.824 81.9728 113C82.0688 113.16 82.2448 113.48 82.5008 113.96L85.5728 119.912L85.0208 120.488L88.0688 113.336C88.1488 113.144 88.2528 113 88.3808 112.904C88.5248 112.792 88.6608 112.736 88.7888 112.736C88.9008 112.736 89.0528 112.744 89.2448 112.76C89.4368 112.76 89.6608 112.76 89.9168 112.76C90.2048 112.76 90.4368 112.76 90.6128 112.76C90.7888 112.744 90.9808 112.736 91.1888 112.736C91.2208 112.736 91.2368 112.784 91.2368 112.88C91.2368 112.976 91.2208 113.024 91.1888 113.024C90.6128 113.024 90.1728 113.12 89.8688 113.312C89.5648 113.504 89.4448 113.936 89.5088 114.608L89.9168 120.056C89.9648 120.52 90.0208 120.872 90.0848 121.112C90.1648 121.352 90.3088 121.512 90.5168 121.592C90.7408 121.672 91.0768 121.712 91.5248 121.712ZM97.5356 122.312C96.5916 122.312 95.7676 122.08 95.0636 121.616C94.3756 121.152 93.8396 120.536 93.4556 119.768C93.0876 118.984 92.9036 118.144 92.9036 117.248C92.9036 116.416 93.0556 115.696 93.3596 115.088C93.6636 114.48 94.0636 113.984 94.5596 113.6C95.0716 113.2 95.6236 112.904 96.2156 112.712C96.8076 112.52 97.3916 112.424 97.9676 112.424C98.9276 112.424 99.7516 112.664 100.44 113.144C101.128 113.624 101.656 114.24 102.024 114.992C102.392 115.744 102.576 116.536 102.576 117.368C102.576 118.392 102.344 119.272 101.88 120.008C101.416 120.744 100.8 121.312 100.032 121.712C99.2796 122.112 98.4476 122.312 97.5356 122.312ZM98.2076 121.88C99.1036 121.88 99.8236 121.584 100.368 120.992C100.912 120.384 101.184 119.384 101.184 117.992C101.184 117.016 101.016 116.144 100.68 115.376C100.344 114.608 99.8716 114 99.2636 113.552C98.6716 113.104 97.9756 112.88 97.1756 112.88C96.2636 112.88 95.5516 113.2 95.0396 113.84C94.5276 114.464 94.2716 115.368 94.2716 116.552C94.2716 117.496 94.4316 118.376 94.7516 119.192C95.0876 120.008 95.5516 120.664 96.1436 121.16C96.7356 121.64 97.4236 121.88 98.2076 121.88ZM106.333 117.584V117.152H112.789V117.584H106.333ZM105.805 120.056V114.68C105.805 113.976 105.709 113.528 105.517 113.336C105.341 113.128 104.917 113.024 104.245 113.024C104.197 113.024 104.173 112.976 104.173 112.88C104.173 112.784 104.197 112.736 104.245 112.736C104.533 112.736 104.861 112.744 105.229 112.76C105.613 112.776 106.005 112.784 106.405 112.784C106.773 112.784 107.141 112.776 107.509 112.76C107.893 112.744 108.229 112.736 108.517 112.736C108.549 112.736 108.565 112.784 108.565 112.88C108.565 112.976 108.549 113.024 108.517 113.024C107.829 113.024 107.389 113.136 107.197 113.36C107.021 113.584 106.933 114.04 106.933 114.728V120.056C106.933 120.744 107.021 121.192 107.197 121.4C107.389 121.608 107.829 121.712 108.517 121.712C108.549 121.712 108.565 121.76 108.565 121.856C108.565 121.952 108.549 122 108.517 122C108.213 122 107.877 121.992 107.509 121.976C107.141 121.96 106.773 121.952 106.405 121.952C106.005 121.952 105.613 121.96 105.229 121.976C104.861 121.992 104.525 122 104.221 122C104.173 122 104.149 121.952 104.149 121.856C104.149 121.76 104.173 121.712 104.221 121.712C104.909 121.712 105.341 121.608 105.517 121.4C105.709 121.192 105.805 120.744 105.805 120.056ZM112.261 120.056V114.68C112.261 113.976 112.165 113.528 111.973 113.336C111.797 113.128 111.373 113.024 110.701 113.024C110.653 113.024 110.629 112.976 110.629 112.88C110.629 112.784 110.653 112.736 110.701 112.736C110.989 112.736 111.317 112.744 111.685 112.76C112.069 112.776 112.461 112.784 112.861 112.784C113.229 112.784 113.597 112.776 113.965 112.76C114.349 112.744 114.685 112.736 114.973 112.736C115.005 112.736 115.021 112.784 115.021 112.88C115.021 112.976 115.005 113.024 114.973 113.024C114.285 113.024 113.845 113.136 113.653 113.36C113.477 113.584 113.389 114.04 113.389 114.728V120.056C113.389 120.744 113.477 121.192 113.653 121.4C113.845 121.608 114.285 121.712 114.973 121.712C115.005 121.712 115.021 121.76 115.021 121.856C115.021 121.952 115.005 122 114.973 122C114.669 122 114.333 121.992 113.965 121.976C113.597 121.96 113.229 121.952 112.861 121.952C112.461 121.952 112.069 121.96 111.685 121.976C111.301 121.992 110.965 122 110.677 122C110.629 122 110.605 121.952 110.605 121.856C110.605 121.76 110.629 121.712 110.677 121.712C111.349 121.712 111.781 121.608 111.973 121.4C112.165 121.192 112.261 120.744 112.261 120.056ZM118.735 120.776L118.423 120.464L124.951 113.936L125.263 114.248L118.735 120.776ZM118.063 120.056V114.68C118.063 113.976 117.967 113.528 117.775 113.336C117.599 113.128 117.175 113.024 116.503 113.024C116.455 113.024 116.431 112.976 116.431 112.88C116.431 112.784 116.455 112.736 116.503 112.736C116.791 112.736 117.119 112.744 117.487 112.76C117.871 112.776 118.263 112.784 118.663 112.784C119.031 112.784 119.399 112.776 119.767 112.76C120.151 112.744 120.487 112.736 120.775 112.736C120.807 112.736 120.823 112.784 120.823 112.88C120.823 112.976 120.807 113.024 120.775 113.024C120.087 113.024 119.647 113.136 119.455 113.36C119.279 113.584 119.191 114.04 119.191 114.728V120.056C119.191 120.744 119.279 121.192 119.455 121.4C119.647 121.608 120.087 121.712 120.775 121.712C120.807 121.712 120.823 121.76 120.823 121.856C120.823 121.952 120.807 122 120.775 122C120.471 122 120.135 121.992 119.767 121.976C119.399 121.96 119.031 121.952 118.663 121.952C118.263 121.952 117.871 121.96 117.487 121.976C117.119 121.992 116.783 122 116.479 122C116.431 122 116.407 121.952 116.407 121.856C116.407 121.76 116.431 121.712 116.479 121.712C117.167 121.712 117.599 121.608 117.775 121.4C117.967 121.192 118.063 120.744 118.063 120.056ZM124.519 120.056V114.68C124.519 113.976 124.423 113.528 124.231 113.336C124.055 113.128 123.631 113.024 122.959 113.024C122.911 113.024 122.887 112.976 122.887 112.88C122.887 112.784 122.911 112.736 122.959 112.736C123.247 112.736 123.575 112.744 123.943 112.76C124.327 112.776 124.719 112.784 125.119 112.784C125.487 112.784 125.855 112.776 126.223 112.76C126.607 112.744 126.943 112.736 127.231 112.736C127.263 112.736 127.279 112.784 127.279 112.88C127.279 112.976 127.263 113.024 127.231 113.024C126.543 113.024 126.103 113.136 125.911 113.36C125.735 113.584 125.647 114.04 125.647 114.728V120.056C125.647 120.744 125.735 121.192 125.911 121.4C126.103 121.608 126.543 121.712 127.231 121.712C127.263 121.712 127.279 121.76 127.279 121.856C127.279 121.952 127.263 122 127.231 122C126.927 122 126.591 121.992 126.223 121.976C125.855 121.96 125.487 121.952 125.119 121.952C124.719 121.952 124.327 121.96 123.943 121.976C123.559 121.992 123.223 122 122.935 122C122.887 122 122.863 121.952 122.863 121.856C122.863 121.76 122.887 121.712 122.935 121.712C123.607 121.712 124.039 121.608 124.231 121.4C124.423 121.192 124.519 120.744 124.519 120.056ZM137.233 121.712C137.265 121.712 137.281 121.76 137.281 121.856C137.281 121.952 137.265 122 137.233 122C136.961 122 136.641 121.992 136.273 121.976C135.921 121.96 135.545 121.952 135.145 121.952C134.713 121.952 134.313 121.96 133.945 121.976C133.593 121.992 133.257 122 132.937 122C132.905 122 132.889 121.952 132.889 121.856C132.889 121.76 132.905 121.712 132.937 121.712C133.625 121.712 134.057 121.608 134.233 121.4C134.425 121.192 134.521 120.744 134.521 120.056V117.368L134.785 117.416C134.337 117.416 133.929 117.488 133.561 117.632C133.193 117.76 132.833 118.016 132.481 118.4C132.129 118.768 131.745 119.32 131.329 120.056C131.025 120.6 130.785 121.016 130.609 121.304C130.449 121.576 130.321 121.76 130.225 121.856C130.129 121.952 130.025 122 129.913 122H128.017C127.985 122 127.969 121.952 127.969 121.856C127.969 121.76 127.985 121.712 128.017 121.712C128.433 121.712 128.777 121.6 129.049 121.376C129.337 121.136 129.577 120.856 129.769 120.536C129.961 120.2 130.145 119.88 130.321 119.576C130.657 118.984 131.089 118.472 131.617 118.04C132.161 117.608 132.745 117.392 133.369 117.392L133.537 117.488C132.641 117.488 131.929 117.392 131.401 117.2C130.889 116.992 130.521 116.712 130.297 116.36C130.089 116.008 129.985 115.608 129.985 115.16C129.985 114.392 130.249 113.784 130.777 113.336C131.321 112.888 132.041 112.664 132.937 112.664C133.209 112.664 133.569 112.688 134.017 112.736C134.465 112.768 134.841 112.784 135.145 112.784C135.545 112.784 135.913 112.776 136.249 112.76C136.601 112.744 136.921 112.736 137.209 112.736C137.241 112.736 137.257 112.784 137.257 112.88C137.257 112.976 137.241 113.024 137.209 113.024C136.569 113.024 136.145 113.128 135.937 113.336C135.729 113.528 135.625 113.976 135.625 114.68V120.056C135.625 120.744 135.729 121.192 135.937 121.4C136.161 121.608 136.593 121.712 137.233 121.712ZM131.209 114.608C131.209 115.344 131.393 115.952 131.761 116.432C132.145 116.912 132.713 117.152 133.465 117.152C133.689 117.152 133.937 117.136 134.209 117.104C134.481 117.072 134.697 117.04 134.857 117.008L134.521 117.176V114.728C134.521 113.992 134.417 113.512 134.209 113.288C134.001 113.064 133.569 112.952 132.913 112.952C131.777 112.952 131.209 113.504 131.209 114.608Z" fill="#282828"/>
</svg>
