<svg width="87" height="87" viewBox="0 0 87 87" fill="none" xmlns="http://www.w3.org/2000/svg">
<path d="M7.24063 57.26C6.45396 57.26 5.76729 57.0667 5.18063 56.68C4.60729 56.2933 4.16063 55.78 3.84063 55.14C3.53396 54.4867 3.38063 53.7867 3.38063 53.04C3.38063 52.3467 3.50729 51.7467 3.76063 51.24C4.01396 50.7333 4.34729 50.32 4.76063 50C5.18729 49.6667 5.64729 49.42 6.14063 49.26C6.63396 49.1 7.12063 49.02 7.60063 49.02C8.40063 49.02 9.08729 49.22 9.66063 49.62C10.234 50.02 10.674 50.5333 10.9806 51.16C11.2873 51.7867 11.4406 52.4467 11.4406 53.14C11.4406 53.9933 11.2473 54.7267 10.8606 55.34C10.474 55.9533 9.96063 56.4267 9.32063 56.76C8.69396 57.0933 8.00063 57.26 7.24063 57.26ZM7.80063 56.9C8.54729 56.9 9.14729 56.6533 9.60063 56.16C10.054 55.6533 10.2806 54.82 10.2806 53.66C10.2806 52.8467 10.1406 52.12 9.86063 51.48C9.58063 50.84 9.18729 50.3333 8.68063 49.96C8.18729 49.5867 7.60729 49.4 6.94063 49.4C6.18063 49.4 5.58729 49.6667 5.16063 50.2C4.73396 50.72 4.52063 51.4733 4.52063 52.46C4.52063 53.2467 4.65396 53.98 4.92063 54.66C5.20063 55.34 5.58729 55.8867 6.08063 56.3C6.57396 56.7 7.14729 56.9 7.80063 56.9ZM12.8119 57C12.7719 57 12.7519 56.96 12.7519 56.88C12.7519 56.8 12.7719 56.76 12.8119 56.76C13.3852 56.76 13.7452 56.6733 13.8919 56.5C14.0519 56.3267 14.1319 55.9533 14.1319 55.38V50.9C14.1319 50.3133 14.0519 49.94 13.8919 49.78C13.7452 49.6067 13.3919 49.52 12.8319 49.52C12.7919 49.52 12.7719 49.48 12.7719 49.4C12.7719 49.32 12.7919 49.28 12.8319 49.28C13.0719 49.28 13.3452 49.2867 13.6519 49.3C13.9719 49.3133 14.2985 49.32 14.6319 49.32C14.9919 49.32 15.3452 49.3133 15.6919 49.3C16.0385 49.2867 16.3452 49.28 16.6119 49.28C16.6519 49.28 16.6719 49.32 16.6719 49.4C16.6719 49.48 16.6519 49.52 16.6119 49.52C15.9585 49.52 15.5385 49.6133 15.3519 49.8C15.1652 49.9867 15.0719 50.3667 15.0719 50.94V55.38C15.0719 55.9533 15.1452 56.3267 15.2919 56.5C15.4519 56.6733 15.8185 56.76 16.3919 56.76C16.4185 56.76 16.4319 56.8 16.4319 56.88C16.4319 56.96 16.4185 57 16.3919 57C16.1385 57 15.8585 56.9933 15.5519 56.98C15.2452 56.9667 14.9385 56.96 14.6319 56.96C14.2985 56.96 13.9719 56.9667 13.6519 56.98C13.3452 56.9933 13.0652 57 12.8119 57ZM19.1119 57C19.0585 57 19.0185 56.9933 18.9919 56.98C18.9652 56.9533 18.9252 56.8867 18.8719 56.78C18.8185 56.66 18.7185 56.4733 18.5719 56.22C18.4385 55.9533 18.2252 55.5733 17.9319 55.08C17.6119 54.5467 17.3319 54.1467 17.0919 53.88C16.8652 53.6 16.6252 53.4133 16.3719 53.32C16.1319 53.2133 15.8319 53.16 15.4719 53.16C15.2319 53.16 14.9319 53.18 14.5719 53.22L14.5519 52.86C14.8185 52.8467 15.0585 52.84 15.2719 52.84C15.4985 52.8267 15.6985 52.8133 15.8719 52.8C16.0585 52.7867 16.2319 52.78 16.3919 52.78C16.8052 52.78 17.1319 52.8333 17.3719 52.94C17.6252 53.0333 17.8585 53.2133 18.0719 53.48C18.2985 53.7467 18.5785 54.1467 18.9119 54.68C19.2052 55.1333 19.4519 55.5133 19.6519 55.82C19.8519 56.1133 20.0719 56.34 20.3119 56.5C20.5519 56.66 20.8719 56.7467 21.2719 56.76C21.2985 56.76 21.3119 56.8 21.3119 56.88C21.3119 56.96 21.2985 57 21.2719 57H19.1119ZM16.3919 53.1V52.78C16.5385 52.78 16.6719 52.74 16.7919 52.66C16.9119 52.58 17.0185 52.4733 17.1119 52.34C17.2185 52.1933 17.3185 52.0333 17.4119 51.86C17.7052 51.3133 17.9519 50.8333 18.1519 50.42C18.3652 50.0067 18.5852 49.6867 18.8119 49.46C19.0519 49.22 19.3519 49.1 19.7119 49.1C19.9919 49.1 20.1985 49.1667 20.3319 49.3C20.4785 49.4333 20.5519 49.58 20.5519 49.74C20.5519 49.9133 20.4852 50.0733 20.3519 50.22C20.2185 50.3533 20.0385 50.42 19.8119 50.42C19.6919 50.42 19.5919 50.4 19.5119 50.36C19.4319 50.3067 19.3585 50.26 19.2919 50.22C19.2252 50.18 19.1519 50.16 19.0719 50.16C18.9652 50.16 18.8252 50.26 18.6519 50.46C18.4919 50.66 18.3252 50.9 18.1519 51.18C17.9785 51.46 17.8252 51.7133 17.6919 51.94C17.5185 52.26 17.3252 52.5333 17.1119 52.76C16.9119 52.9867 16.6719 53.1 16.3919 53.1ZM25.5414 57.26C24.7547 57.26 24.0681 57.0667 23.4814 56.68C22.9081 56.2933 22.4614 55.78 22.1414 55.14C21.8347 54.4867 21.6814 53.7867 21.6814 53.04C21.6814 52.3467 21.8081 51.7467 22.0614 51.24C22.3147 50.7333 22.6481 50.32 23.0614 50C23.4881 49.6667 23.9481 49.42 24.4414 49.26C24.9347 49.1 25.4214 49.02 25.9014 49.02C26.7014 49.02 27.3881 49.22 27.9614 49.62C28.5347 50.02 28.9747 50.5333 29.2814 51.16C29.5881 51.7867 29.7414 52.4467 29.7414 53.14C29.7414 53.9933 29.5481 54.7267 29.1614 55.34C28.7747 55.9533 28.2614 56.4267 27.6214 56.76C26.9947 57.0933 26.3014 57.26 25.5414 57.26ZM26.1014 56.9C26.8481 56.9 27.4481 56.6533 27.9014 56.16C28.3547 55.6533 28.5814 54.82 28.5814 53.66C28.5814 52.8467 28.4414 52.12 28.1614 51.48C27.8814 50.84 27.4881 50.3333 26.9814 49.96C26.4881 49.5867 25.9081 49.4 25.2414 49.4C24.4814 49.4 23.8881 49.6667 23.4614 50.2C23.0347 50.72 22.8214 51.4733 22.8214 52.46C22.8214 53.2467 22.9547 53.98 23.2214 54.66C23.5014 55.34 23.8881 55.8867 24.3814 56.3C24.8747 56.7 25.4481 56.9 26.1014 56.9ZM32.8727 53.32V52.96H38.2527V53.32H32.8727ZM32.4327 55.38V50.9C32.4327 50.3133 32.3527 49.94 32.1927 49.78C32.046 49.6067 31.6927 49.52 31.1327 49.52C31.0927 49.52 31.0727 49.48 31.0727 49.4C31.0727 49.32 31.0927 49.28 31.1327 49.28C31.3727 49.28 31.646 49.2867 31.9527 49.3C32.2727 49.3133 32.5993 49.32 32.9327 49.32C33.2393 49.32 33.546 49.3133 33.8527 49.3C34.1727 49.2867 34.4527 49.28 34.6927 49.28C34.7193 49.28 34.7327 49.32 34.7327 49.4C34.7327 49.48 34.7193 49.52 34.6927 49.52C34.1193 49.52 33.7527 49.6133 33.5927 49.8C33.446 49.9867 33.3727 50.3667 33.3727 50.94V55.38C33.3727 55.9533 33.446 56.3267 33.5927 56.5C33.7527 56.6733 34.1193 56.76 34.6927 56.76C34.7193 56.76 34.7327 56.8 34.7327 56.88C34.7327 56.96 34.7193 57 34.6927 57C34.4393 57 34.1593 56.9933 33.8527 56.98C33.546 56.9667 33.2393 56.96 32.9327 56.96C32.5993 56.96 32.2727 56.9667 31.9527 56.98C31.646 56.9933 31.366 57 31.1127 57C31.0727 57 31.0527 56.96 31.0527 56.88C31.0527 56.8 31.0727 56.76 31.1127 56.76C31.686 56.76 32.046 56.6733 32.1927 56.5C32.3527 56.3267 32.4327 55.9533 32.4327 55.38ZM37.8127 55.38V50.9C37.8127 50.3133 37.7327 49.94 37.5727 49.78C37.426 49.6067 37.0727 49.52 36.5127 49.52C36.4727 49.52 36.4527 49.48 36.4527 49.4C36.4527 49.32 36.4727 49.28 36.5127 49.28C36.7527 49.28 37.026 49.2867 37.3327 49.3C37.6527 49.3133 37.9793 49.32 38.3127 49.32C38.6193 49.32 38.926 49.3133 39.2327 49.3C39.5527 49.2867 39.8327 49.28 40.0727 49.28C40.0993 49.28 40.1127 49.32 40.1127 49.4C40.1127 49.48 40.0993 49.52 40.0727 49.52C39.4993 49.52 39.1327 49.6133 38.9727 49.8C38.826 49.9867 38.7527 50.3667 38.7527 50.94V55.38C38.7527 55.9533 38.826 56.3267 38.9727 56.5C39.1327 56.6733 39.4993 56.76 40.0727 56.76C40.0993 56.76 40.1127 56.8 40.1127 56.88C40.1127 56.96 40.0993 57 40.0727 57C39.8193 57 39.5393 56.9933 39.2327 56.98C38.926 56.9667 38.6193 56.96 38.3127 56.96C37.9793 56.96 37.6527 56.9667 37.3327 56.98C37.0127 56.9933 36.7327 57 36.4927 57C36.4527 57 36.4327 56.96 36.4327 56.88C36.4327 56.8 36.4527 56.76 36.4927 56.76C37.0527 56.76 37.4127 56.6733 37.5727 56.5C37.7327 56.3267 37.8127 55.9533 37.8127 55.38ZM46.2075 55.38V50.9C46.2075 50.3133 46.1408 49.94 46.0075 49.78C45.8875 49.6067 45.5942 49.52 45.1275 49.52C45.1008 49.52 45.0875 49.48 45.0875 49.4C45.0875 49.32 45.1008 49.28 45.1275 49.28C45.3408 49.28 45.5875 49.2867 45.8675 49.3C46.1475 49.3133 46.4275 49.32 46.7075 49.32C47.0142 49.32 47.3208 49.3133 47.6275 49.3C47.9475 49.2867 48.2208 49.28 48.4475 49.28C48.4875 49.28 48.5075 49.32 48.5075 49.4C48.5075 49.48 48.4875 49.52 48.4475 49.52C47.8875 49.52 47.5275 49.6133 47.3675 49.8C47.2208 49.9867 47.1475 50.3667 47.1475 50.94V55.38C47.1475 55.9533 47.2208 56.3267 47.3675 56.5C47.5275 56.6733 47.8875 56.76 48.4475 56.76C48.4875 56.76 48.5075 56.8 48.5075 56.88C48.5075 56.96 48.4875 57 48.4475 57C48.2075 57 47.9342 56.9933 47.6275 56.98C47.3208 56.9667 47.0142 56.96 46.7075 56.96C46.3742 56.96 46.0475 56.9667 45.7275 56.98C45.4075 56.9933 45.1208 57 44.8675 57C44.8408 57 44.8275 56.96 44.8275 56.88C44.8275 56.8 44.8408 56.76 44.8675 56.76C45.4275 56.76 45.7875 56.6733 45.9475 56.5C46.1208 56.3267 46.2075 55.9533 46.2075 55.38ZM42.5075 50.94C42.5075 51.0733 42.5075 51.2067 42.5075 51.34C42.5075 51.4733 42.5075 51.5933 42.5075 51.7C42.5075 52.26 42.6608 52.6933 42.9675 53C43.2875 53.3067 43.7608 53.46 44.3875 53.46C44.6942 53.46 45.0542 53.4133 45.4675 53.32C45.8942 53.2133 46.2608 53.06 46.5675 52.86L46.6075 52.96C46.1142 53.3867 45.6142 53.6867 45.1075 53.86C44.6142 54.02 44.1675 54.1 43.7675 54.1C43.0342 54.1 42.4875 53.9 42.1275 53.5C41.7808 53.1 41.6075 52.5333 41.6075 51.8V50.9C41.6075 50.3133 41.5542 49.94 41.4475 49.78C41.3542 49.6067 41.1275 49.52 40.7675 49.52C40.7275 49.52 40.7075 49.48 40.7075 49.4C40.7075 49.32 40.7275 49.28 40.7675 49.28C40.9542 49.28 41.1608 49.2867 41.3875 49.3C41.6142 49.3133 41.8475 49.32 42.0875 49.32C42.3542 49.32 42.6208 49.3133 42.8875 49.3C43.1675 49.2867 43.4075 49.28 43.6075 49.28C43.6475 49.28 43.6675 49.32 43.6675 49.4C43.6675 49.48 43.6475 49.52 43.6075 49.52C43.1542 49.52 42.8542 49.6133 42.7075 49.8C42.5742 49.9867 42.5075 50.3667 42.5075 50.94ZM55.3459 57.12C55.2926 57.1467 55.2393 57.16 55.1859 57.16C55.0259 57.16 54.8793 57.02 54.7459 56.74C54.6126 56.46 54.5459 56.0533 54.5459 55.52V51.9C54.5459 51.2467 54.4793 50.7467 54.3459 50.4C54.2259 50.0533 54.0593 49.82 53.8459 49.7C53.6459 49.5667 53.4259 49.5 53.1859 49.5C52.8259 49.5 52.5326 49.5933 52.3059 49.78C52.0793 49.9667 51.9059 50.1933 51.7859 50.46C51.6793 50.7133 51.6059 50.9533 51.5659 51.18C51.5526 51.3133 51.5059 51.46 51.4259 51.62C51.3593 51.7667 51.1926 51.84 50.9259 51.84C50.7526 51.84 50.6059 51.7933 50.4859 51.7C50.3793 51.6067 50.3259 51.4733 50.3259 51.3C50.3259 51.0733 50.4393 50.8333 50.6659 50.58C50.8926 50.3267 51.1793 50.0867 51.5259 49.86C51.8859 49.6333 52.2659 49.4533 52.6659 49.32C53.0659 49.1733 53.4393 49.1 53.7859 49.1C54.2793 49.1 54.6793 49.28 54.9859 49.64C55.3059 49.9867 55.4659 50.54 55.4659 51.3V54.84C55.4659 55.32 55.5193 55.6733 55.6259 55.9C55.7459 56.1133 55.9459 56.22 56.2259 56.22C56.4793 56.22 56.8459 56.12 57.3259 55.92C57.3926 55.8933 57.4393 55.92 57.4659 56C57.4926 56.0667 57.4726 56.1133 57.4059 56.14L55.3459 57.12ZM51.4859 57.14C51.0593 57.14 50.7393 57.0267 50.5259 56.8C50.3259 56.56 50.2259 56.2933 50.2259 56C50.2259 55.6533 50.3659 55.3733 50.6459 55.16C50.9259 54.9333 51.3859 54.7067 52.0259 54.48L54.7459 53.5L54.7859 53.7L52.2259 54.68C51.9326 54.7867 51.7259 54.9133 51.6059 55.06C51.4859 55.2067 51.4259 55.3933 51.4259 55.62C51.4259 55.9 51.5059 56.12 51.6659 56.28C51.8393 56.4267 52.0526 56.5 52.3059 56.5C52.4526 56.5 52.5859 56.4867 52.7059 56.46C52.8393 56.42 52.9593 56.3733 53.0659 56.32L54.9259 55.38L54.9659 55.6L53.2259 56.54C52.8126 56.7533 52.4793 56.9067 52.2259 57C51.9859 57.0933 51.7393 57.14 51.4859 57.14ZM59.8648 53.32V52.96H65.2448V53.32H59.8648ZM59.4248 55.38V50.9C59.4248 50.3133 59.3448 49.94 59.1848 49.78C59.0382 49.6067 58.6848 49.52 58.1248 49.52C58.0848 49.52 58.0648 49.48 58.0648 49.4C58.0648 49.32 58.0848 49.28 58.1248 49.28C58.3648 49.28 58.6382 49.2867 58.9448 49.3C59.2648 49.3133 59.5915 49.32 59.9248 49.32C60.2315 49.32 60.5382 49.3133 60.8448 49.3C61.1648 49.2867 61.4448 49.28 61.6848 49.28C61.7115 49.28 61.7248 49.32 61.7248 49.4C61.7248 49.48 61.7115 49.52 61.6848 49.52C61.1115 49.52 60.7448 49.6133 60.5848 49.8C60.4382 49.9867 60.3648 50.3667 60.3648 50.94V55.38C60.3648 55.9533 60.4382 56.3267 60.5848 56.5C60.7448 56.6733 61.1115 56.76 61.6848 56.76C61.7115 56.76 61.7248 56.8 61.7248 56.88C61.7248 56.96 61.7115 57 61.6848 57C61.4315 57 61.1515 56.9933 60.8448 56.98C60.5382 56.9667 60.2315 56.96 59.9248 56.96C59.5915 56.96 59.2648 56.9667 58.9448 56.98C58.6382 56.9933 58.3582 57 58.1048 57C58.0648 57 58.0448 56.96 58.0448 56.88C58.0448 56.8 58.0648 56.76 58.1048 56.76C58.6782 56.76 59.0382 56.6733 59.1848 56.5C59.3448 56.3267 59.4248 55.9533 59.4248 55.38ZM64.8048 55.38V50.9C64.8048 50.3133 64.7248 49.94 64.5648 49.78C64.4182 49.6067 64.0648 49.52 63.5048 49.52C63.4648 49.52 63.4448 49.48 63.4448 49.4C63.4448 49.32 63.4648 49.28 63.5048 49.28C63.7448 49.28 64.0182 49.2867 64.3248 49.3C64.6448 49.3133 64.9715 49.32 65.3048 49.32C65.6115 49.32 65.9182 49.3133 66.2248 49.3C66.5448 49.2867 66.8248 49.28 67.0648 49.28C67.0915 49.28 67.1048 49.32 67.1048 49.4C67.1048 49.48 67.0915 49.52 67.0648 49.52C66.4915 49.52 66.1248 49.6133 65.9648 49.8C65.8182 49.9867 65.7448 50.3667 65.7448 50.94V55.38C65.7448 55.9533 65.8182 56.3267 65.9648 56.5C66.1248 56.6733 66.4915 56.76 67.0648 56.76C67.0915 56.76 67.1048 56.8 67.1048 56.88C67.1048 56.96 67.0915 57 67.0648 57C66.8115 57 66.5315 56.9933 66.2248 56.98C65.9182 56.9667 65.6115 56.96 65.3048 56.96C64.9715 56.96 64.6448 56.9667 64.3248 56.98C64.0048 56.9933 63.7248 57 63.4848 57C63.4448 57 63.4248 56.96 63.4248 56.88C63.4248 56.8 63.4448 56.76 63.4848 56.76C64.0448 56.76 64.4048 56.6733 64.5648 56.5C64.7248 56.3267 64.8048 55.9533 64.8048 55.38ZM70.1997 55.98L69.9397 55.72L75.3797 50.28L75.6397 50.54L70.1997 55.98ZM69.6397 55.38V50.9C69.6397 50.3133 69.5597 49.94 69.3997 49.78C69.253 49.6067 68.8997 49.52 68.3397 49.52C68.2997 49.52 68.2797 49.48 68.2797 49.4C68.2797 49.32 68.2997 49.28 68.3397 49.28C68.5797 49.28 68.853 49.2867 69.1597 49.3C69.4797 49.3133 69.8064 49.32 70.1397 49.32C70.4464 49.32 70.753 49.3133 71.0597 49.3C71.3797 49.2867 71.6597 49.28 71.8997 49.28C71.9264 49.28 71.9397 49.32 71.9397 49.4C71.9397 49.48 71.9264 49.52 71.8997 49.52C71.3264 49.52 70.9597 49.6133 70.7997 49.8C70.653 49.9867 70.5797 50.3667 70.5797 50.94V55.38C70.5797 55.9533 70.653 56.3267 70.7997 56.5C70.9597 56.6733 71.3264 56.76 71.8997 56.76C71.9264 56.76 71.9397 56.8 71.9397 56.88C71.9397 56.96 71.9264 57 71.8997 57C71.6464 57 71.3664 56.9933 71.0597 56.98C70.753 56.9667 70.4464 56.96 70.1397 56.96C69.8064 56.96 69.4797 56.9667 69.1597 56.98C68.853 56.9933 68.573 57 68.3197 57C68.2797 57 68.2597 56.96 68.2597 56.88C68.2597 56.8 68.2797 56.76 68.3197 56.76C68.893 56.76 69.253 56.6733 69.3997 56.5C69.5597 56.3267 69.6397 55.9533 69.6397 55.38ZM75.0197 55.38V50.9C75.0197 50.3133 74.9397 49.94 74.7797 49.78C74.633 49.6067 74.2797 49.52 73.7197 49.52C73.6797 49.52 73.6597 49.48 73.6597 49.4C73.6597 49.32 73.6797 49.28 73.7197 49.28C73.9597 49.28 74.233 49.2867 74.5397 49.3C74.8597 49.3133 75.1864 49.32 75.5197 49.32C75.8264 49.32 76.133 49.3133 76.4397 49.3C76.7597 49.2867 77.0397 49.28 77.2797 49.28C77.3064 49.28 77.3197 49.32 77.3197 49.4C77.3197 49.48 77.3064 49.52 77.2797 49.52C76.7064 49.52 76.3397 49.6133 76.1797 49.8C76.033 49.9867 75.9597 50.3667 75.9597 50.94V55.38C75.9597 55.9533 76.033 56.3267 76.1797 56.5C76.3397 56.6733 76.7064 56.76 77.2797 56.76C77.3064 56.76 77.3197 56.8 77.3197 56.88C77.3197 56.96 77.3064 57 77.2797 57C77.0264 57 76.7464 56.9933 76.4397 56.98C76.133 56.9667 75.8264 56.96 75.5197 56.96C75.1864 56.96 74.8597 56.9667 74.5397 56.98C74.2197 56.9933 73.9397 57 73.6997 57C73.6597 57 73.6397 56.96 73.6397 56.88C73.6397 56.8 73.6597 56.76 73.6997 56.76C74.2597 56.76 74.6197 56.6733 74.7797 56.5C74.9397 56.3267 75.0197 55.9533 75.0197 55.38ZM82.3145 57.24C81.5012 57.24 80.8212 57.06 80.2745 56.7C79.7279 56.3267 79.3145 55.8467 79.0345 55.26C78.7679 54.6733 78.6345 54.0533 78.6345 53.4C78.6345 52.5867 78.8212 51.86 79.1945 51.22C79.5679 50.5667 80.0745 50.0533 80.7145 49.68C81.3545 49.2933 82.0745 49.1 82.8745 49.1C83.5812 49.1 84.1212 49.28 84.4945 49.64C84.8812 49.9867 85.0745 50.4667 85.0745 51.08C85.0745 51.2267 85.0612 51.34 85.0345 51.42C85.0079 51.4867 84.9412 51.52 84.8345 51.52H83.8545C83.9212 50.8533 83.7945 50.3533 83.4745 50.02C83.1679 49.6733 82.7412 49.5 82.1945 49.5C81.4079 49.5 80.8079 49.78 80.3945 50.34C79.9812 50.9 79.7745 51.6667 79.7745 52.64C79.7745 53.4 79.8945 54.08 80.1345 54.68C80.3879 55.2667 80.7545 55.7333 81.2345 56.08C81.7145 56.4267 82.2879 56.6 82.9545 56.6C83.3012 56.6 83.6545 56.5467 84.0145 56.44C84.3745 56.3333 84.7145 56.16 85.0345 55.92C85.0612 55.8933 85.0945 55.9133 85.1345 55.98C85.1879 56.0333 85.2012 56.08 85.1745 56.12C84.7079 56.52 84.2345 56.8067 83.7545 56.98C83.2879 57.1533 82.8079 57.24 82.3145 57.24ZM79.5145 51.54L79.4945 51.32L84.0945 51.22V51.52L79.5145 51.54ZM36.7217 73.3C37.0684 73.3 37.4284 73.2933 37.8017 73.28C38.1751 73.2533 38.5551 73.24 38.9417 73.24C39.6884 73.24 40.2617 73.3667 40.6617 73.62C41.0617 73.8733 41.2617 74.2533 41.2617 74.76C41.2617 75.48 40.7551 76.2 39.7417 76.92L39.4817 76.82C39.7084 76.6333 39.8817 76.4133 40.0017 76.16C40.1217 75.9067 40.1817 75.5867 40.1817 75.2C40.1817 74.6 40.0284 74.1667 39.7217 73.9C39.4284 73.6333 38.9951 73.5 38.4217 73.5C37.9284 73.5 37.5951 73.5867 37.4217 73.76C37.2484 73.92 37.1617 74.3133 37.1617 74.94V79.38C37.1617 79.86 37.2684 80.2067 37.4817 80.42C37.7084 80.6333 38.1684 80.74 38.8617 80.74C39.5951 80.74 40.1284 80.5933 40.4617 80.3C40.8084 79.9933 40.9817 79.5667 40.9817 79.02C40.9817 78.4333 40.8017 77.96 40.4417 77.6C40.0817 77.2267 39.4817 77.04 38.6417 77.04H36.8017L36.7817 76.72H39.3417C41.1817 76.72 42.1017 77.3333 42.1017 78.56C42.1017 79.28 41.8284 79.8733 41.2817 80.34C40.7351 80.8067 40.0484 81.04 39.2217 81.04C38.9017 81.04 38.4951 81.0267 38.0017 81C37.5217 80.9733 37.0951 80.96 36.7217 80.96C36.3884 80.96 36.0617 80.9667 35.7417 80.98C35.4351 80.9933 35.1551 81 34.9017 81C34.8617 81 34.8417 80.96 34.8417 80.88C34.8417 80.8 34.8617 80.76 34.9017 80.76C35.4751 80.76 35.8351 80.6733 35.9817 80.5C36.1417 80.3267 36.2217 79.9533 36.2217 79.38V74.9C36.2217 74.3133 36.1417 73.94 35.9817 73.78C35.8351 73.6067 35.4817 73.52 34.9217 73.52C34.8817 73.52 34.8617 73.48 34.8617 73.4C34.8617 73.32 34.8817 73.28 34.9217 73.28C35.1617 73.28 35.4351 73.2867 35.7417 73.3C36.0617 73.3 36.3884 73.3 36.7217 73.3ZM47.3341 81.24C46.5207 81.24 45.8407 81.06 45.2941 80.7C44.7474 80.3267 44.3341 79.8467 44.0541 79.26C43.7874 78.6733 43.6541 78.0533 43.6541 77.4C43.6541 76.5867 43.8407 75.86 44.2141 75.22C44.5874 74.5667 45.0941 74.0533 45.7341 73.68C46.3741 73.2933 47.0941 73.1 47.8941 73.1C48.6007 73.1 49.1407 73.28 49.5141 73.64C49.9007 73.9867 50.0941 74.4667 50.0941 75.08C50.0941 75.2267 50.0807 75.34 50.0541 75.42C50.0274 75.4867 49.9607 75.52 49.8541 75.52H48.8741C48.9407 74.8533 48.8141 74.3533 48.4941 74.02C48.1874 73.6733 47.7607 73.5 47.2141 73.5C46.4274 73.5 45.8274 73.78 45.4141 74.34C45.0007 74.9 44.7941 75.6667 44.7941 76.64C44.7941 77.4 44.9141 78.08 45.1541 78.68C45.4074 79.2667 45.7741 79.7333 46.2541 80.08C46.7341 80.4267 47.3074 80.6 47.9741 80.6C48.3207 80.6 48.6741 80.5467 49.0341 80.44C49.3941 80.3333 49.7341 80.16 50.0541 79.92C50.0807 79.8933 50.1141 79.9133 50.1541 79.98C50.2074 80.0333 50.2207 80.08 50.1941 80.12C49.7274 80.52 49.2541 80.8067 48.7741 80.98C48.3074 81.1533 47.8274 81.24 47.3341 81.24ZM44.5341 75.54L44.5141 75.32L49.1141 75.22V75.52L44.5341 75.54ZM56.5395 79.38V74.9C56.5395 74.3133 56.4729 73.94 56.3395 73.78C56.2195 73.6067 55.9262 73.52 55.4595 73.52C55.4329 73.52 55.4195 73.48 55.4195 73.4C55.4195 73.32 55.4329 73.28 55.4595 73.28C55.6729 73.28 55.9195 73.2867 56.1995 73.3C56.4795 73.3133 56.7595 73.32 57.0395 73.32C57.3462 73.32 57.6529 73.3133 57.9595 73.3C58.2795 73.2867 58.5529 73.28 58.7795 73.28C58.8195 73.28 58.8395 73.32 58.8395 73.4C58.8395 73.48 58.8195 73.52 58.7795 73.52C58.2195 73.52 57.8595 73.6133 57.6995 73.8C57.5529 73.9867 57.4795 74.3667 57.4795 74.94V79.38C57.4795 79.9533 57.5529 80.3267 57.6995 80.5C57.8595 80.6733 58.2195 80.76 58.7795 80.76C58.8195 80.76 58.8395 80.8 58.8395 80.88C58.8395 80.96 58.8195 81 58.7795 81C58.5395 81 58.2662 80.9933 57.9595 80.98C57.6529 80.9667 57.3462 80.96 57.0395 80.96C56.7062 80.96 56.3795 80.9667 56.0595 80.98C55.7395 80.9933 55.4529 81 55.1995 81C55.1729 81 55.1595 80.96 55.1595 80.88C55.1595 80.8 55.1729 80.76 55.1995 80.76C55.7595 80.76 56.1195 80.6733 56.2795 80.5C56.4529 80.3267 56.5395 79.9533 56.5395 79.38ZM52.8395 74.94C52.8395 75.0733 52.8395 75.2067 52.8395 75.34C52.8395 75.4733 52.8395 75.5933 52.8395 75.7C52.8395 76.26 52.9929 76.6933 53.2995 77C53.6195 77.3067 54.0929 77.46 54.7195 77.46C55.0262 77.46 55.3862 77.4133 55.7995 77.32C56.2262 77.2133 56.5929 77.06 56.8995 76.86L56.9395 76.96C56.4462 77.3867 55.9462 77.6867 55.4395 77.86C54.9462 78.02 54.4995 78.1 54.0995 78.1C53.3662 78.1 52.8195 77.9 52.4595 77.5C52.1129 77.1 51.9395 76.5333 51.9395 75.8V74.9C51.9395 74.3133 51.8862 73.94 51.7795 73.78C51.6862 73.6067 51.4595 73.52 51.0995 73.52C51.0595 73.52 51.0395 73.48 51.0395 73.4C51.0395 73.32 51.0595 73.28 51.0995 73.28C51.2862 73.28 51.4929 73.2867 51.7195 73.3C51.9462 73.3133 52.1795 73.32 52.4195 73.32C52.6862 73.32 52.9529 73.3133 53.2195 73.3C53.4995 73.2867 53.7395 73.28 53.9395 73.28C53.9795 73.28 53.9995 73.32 53.9995 73.4C53.9995 73.48 53.9795 73.52 53.9395 73.52C53.4862 73.52 53.1862 73.6133 53.0395 73.8C52.9062 73.9867 52.8395 74.3667 52.8395 74.94ZM63.838 81.24C63.0246 81.24 62.3446 81.06 61.798 80.7C61.2513 80.3267 60.838 79.8467 60.558 79.26C60.2913 78.6733 60.158 78.0533 60.158 77.4C60.158 76.5867 60.3446 75.86 60.718 75.22C61.0913 74.5667 61.598 74.0533 62.238 73.68C62.878 73.2933 63.598 73.1 64.398 73.1C65.1046 73.1 65.6446 73.28 66.018 73.64C66.4046 73.9867 66.598 74.4667 66.598 75.08C66.598 75.2267 66.5846 75.34 66.558 75.42C66.5313 75.4867 66.4646 75.52 66.358 75.52H65.378C65.4446 74.8533 65.318 74.3533 64.998 74.02C64.6913 73.6733 64.2646 73.5 63.718 73.5C62.9313 73.5 62.3313 73.78 61.918 74.34C61.5046 74.9 61.298 75.6667 61.298 76.64C61.298 77.4 61.418 78.08 61.658 78.68C61.9113 79.2667 62.278 79.7333 62.758 80.08C63.238 80.4267 63.8113 80.6 64.478 80.6C64.8246 80.6 65.178 80.5467 65.538 80.44C65.898 80.3333 66.238 80.16 66.558 79.92C66.5846 79.8933 66.618 79.9133 66.658 79.98C66.7113 80.0333 66.7246 80.08 66.698 80.12C66.2313 80.52 65.758 80.8067 65.278 80.98C64.8113 81.1533 64.3313 81.24 63.838 81.24ZM61.038 75.54L61.018 75.32L65.618 75.22V75.52L61.038 75.54ZM67.8434 86.5C67.8168 86.5 67.8034 86.46 67.8034 86.38C67.8034 86.3 67.8168 86.26 67.8434 86.26C68.4968 86.26 68.9168 86.1733 69.1034 86C69.3034 85.8267 69.4034 85.4533 69.4034 84.88V74.9C69.4034 74.34 69.2834 73.9733 69.0434 73.8C68.8168 73.6133 68.3434 73.52 67.6234 73.52C67.5834 73.52 67.5634 73.48 67.5634 73.4C67.5634 73.32 67.5834 73.28 67.6234 73.28C67.9968 73.28 68.3301 73.28 68.6234 73.28C68.9168 73.28 69.1701 73.28 69.3834 73.28C69.6101 73.28 69.8034 73.28 69.9634 73.28C70.1101 73.28 70.2034 73.3133 70.2434 73.38C70.2968 73.4467 70.3234 73.5933 70.3234 73.82V84.88C70.3234 85.2533 70.3768 85.54 70.4834 85.74C70.5901 85.94 70.7901 86.0733 71.0834 86.14C71.3768 86.22 71.8101 86.26 72.3834 86.26C72.4234 86.26 72.4434 86.3 72.4434 86.38C72.4434 86.46 72.4234 86.5 72.3834 86.5C72.0368 86.5 71.6501 86.4933 71.2234 86.48C70.7968 86.4667 70.3501 86.46 69.8834 86.46C69.5101 86.46 69.1434 86.4667 68.7834 86.48C68.4234 86.4933 68.1101 86.5 67.8434 86.5ZM72.5434 81.26C72.0368 81.26 71.5834 81.1933 71.1834 81.06C70.7968 80.9267 70.3701 80.6733 69.9034 80.3L70.1034 79.24C70.4768 79.7067 70.8968 80.0933 71.3634 80.4C71.8301 80.7067 72.4434 80.86 73.2034 80.86C73.9101 80.86 74.5101 80.5467 75.0034 79.92C75.4968 79.2933 75.7434 78.4267 75.7434 77.32C75.7434 76.1333 75.4834 75.2333 74.9634 74.62C74.4434 73.9933 73.8101 73.68 73.0634 73.68C72.4501 73.68 71.9101 73.8533 71.4434 74.2C70.9768 74.5467 70.5301 74.96 70.1034 75.44L69.9234 75.3C70.6034 74.5133 71.2568 73.94 71.8834 73.58C72.5101 73.2067 73.1434 73.02 73.7834 73.02C74.3301 73.02 74.8301 73.1667 75.2834 73.46C75.7501 73.74 76.1234 74.1533 76.4034 74.7C76.6834 75.2467 76.8234 75.9133 76.8234 76.7C76.8234 77.5 76.6834 78.1867 76.4034 78.76C76.1234 79.3333 75.7634 79.8067 75.3234 80.18C74.8834 80.54 74.4168 80.8133 73.9234 81C73.4301 81.1733 72.9701 81.26 72.5434 81.26ZM83.8811 81.12C83.8278 81.1467 83.7744 81.16 83.7211 81.16C83.5611 81.16 83.4144 81.02 83.2811 80.74C83.1478 80.46 83.0811 80.0533 83.0811 79.52V75.9C83.0811 75.2467 83.0144 74.7467 82.8811 74.4C82.7611 74.0533 82.5944 73.82 82.3811 73.7C82.1811 73.5667 81.9611 73.5 81.7211 73.5C81.3611 73.5 81.0678 73.5933 80.8411 73.78C80.6144 73.9667 80.4411 74.1933 80.3211 74.46C80.2144 74.7133 80.1411 74.9533 80.1011 75.18C80.0878 75.3133 80.0411 75.46 79.9611 75.62C79.8944 75.7667 79.7278 75.84 79.4611 75.84C79.2878 75.84 79.1411 75.7933 79.0211 75.7C78.9144 75.6067 78.8611 75.4733 78.8611 75.3C78.8611 75.0733 78.9744 74.8333 79.2011 74.58C79.4278 74.3267 79.7144 74.0867 80.0611 73.86C80.4211 73.6333 80.8011 73.4533 81.2011 73.32C81.6011 73.1733 81.9744 73.1 82.3211 73.1C82.8144 73.1 83.2144 73.28 83.5211 73.64C83.8411 73.9867 84.0011 74.54 84.0011 75.3V78.84C84.0011 79.32 84.0544 79.6733 84.1611 79.9C84.2811 80.1133 84.4811 80.22 84.7611 80.22C85.0144 80.22 85.3811 80.12 85.8611 79.92C85.9278 79.8933 85.9744 79.92 86.0011 80C86.0278 80.0667 86.0078 80.1133 85.9411 80.14L83.8811 81.12ZM80.0211 81.14C79.5944 81.14 79.2744 81.0267 79.0611 80.8C78.8611 80.56 78.7611 80.2933 78.7611 80C78.7611 79.6533 78.9011 79.3733 79.1811 79.16C79.4611 78.9333 79.9211 78.7067 80.5611 78.48L83.2811 77.5L83.3211 77.7L80.7611 78.68C80.4678 78.7867 80.2611 78.9133 80.1411 79.06C80.0211 79.2067 79.9611 79.3933 79.9611 79.62C79.9611 79.9 80.0411 80.12 80.2011 80.28C80.3744 80.4267 80.5878 80.5 80.8411 80.5C80.9878 80.5 81.1211 80.4867 81.2411 80.46C81.3744 80.42 81.4944 80.3733 81.6011 80.32L83.4611 79.38L83.5011 79.6L81.7611 80.54C81.3478 80.7533 81.0144 80.9067 80.7611 81C80.5211 81.0933 80.2744 81.14 80.0211 81.14Z" fill="#282828"/>
<path d="M23.184 29.52C24.5493 28.432 25.6907 27.472 26.608 26.64C27.5467 25.808 28.2933 25.072 28.848 24.432C29.4027 23.7707 29.7973 23.152 30.032 22.576C30.288 22 30.416 21.424 30.416 20.848C30.416 19.9733 30.1493 19.2693 29.616 18.736C29.104 18.2027 28.432 17.936 27.6 17.936C26.7467 17.936 26.0213 18.2773 25.424 18.96C24.8267 19.6213 24.336 20.6027 23.952 21.904C23.9307 21.9467 23.856 21.9573 23.728 21.936C23.6 21.9147 23.5467 21.872 23.568 21.808L24.816 16.944C24.8373 16.88 24.912 16.8693 25.04 16.912C25.168 16.9333 25.2107 16.9653 25.168 17.008C25.0827 17.3707 25.0933 17.6053 25.2 17.712C25.328 17.8187 25.4667 17.872 25.616 17.872C25.936 17.872 26.3627 17.7653 26.896 17.552C27.4507 17.3387 28.1227 17.232 28.912 17.232C30.0213 17.232 30.8853 17.5307 31.504 18.128C32.1227 18.704 32.432 19.4613 32.432 20.4C32.432 20.976 32.2933 21.552 32.016 22.128C31.7387 22.6827 31.3227 23.2693 30.768 23.888C30.2133 24.4853 29.5093 25.136 28.656 25.84C27.824 26.544 26.8427 27.3333 25.712 28.208C25.6267 28.272 25.6053 28.3253 25.648 28.368C25.6907 28.4107 25.7547 28.432 25.84 28.432C27.3973 28.432 28.656 28.4213 29.616 28.4C30.576 28.3573 31.3227 28.2827 31.856 28.176C32.3893 28.048 32.7733 27.8453 33.008 27.568C33.264 27.2693 33.4453 26.864 33.552 26.352C33.5733 26.3093 33.6373 26.2987 33.744 26.32C33.872 26.32 33.936 26.3413 33.936 26.384L33.456 29.648C33.456 29.7333 33.424 29.8187 33.36 29.904C33.3173 29.968 33.2533 30 33.168 30C31.6533 30 30.0427 30 28.336 30C26.6293 30 24.9867 30 23.408 30C23.3227 30 23.248 29.9467 23.184 29.84C23.12 29.712 23.12 29.6053 23.184 29.52ZM36.763 38.8C36.6777 38.8213 36.603 38.768 36.539 38.64C36.4963 38.5333 36.5177 38.4693 36.603 38.448C38.011 38 39.1737 37.4667 40.091 36.848C41.0083 36.2293 41.7337 35.5573 42.267 34.832C42.8217 34.1067 43.2057 33.3813 43.419 32.656C43.6323 31.952 43.739 31.28 43.739 30.64C43.739 29.9573 43.6217 29.3067 43.387 28.688C43.1523 28.048 42.7683 27.536 42.235 27.152C41.723 26.7467 41.0297 26.544 40.155 26.544C39.899 26.544 39.643 26.5547 39.387 26.576C39.131 26.5973 38.8643 26.6507 38.587 26.736C38.523 26.7573 38.4697 26.704 38.427 26.576C38.3843 26.448 38.395 26.3733 38.459 26.352C40.1657 25.904 41.3497 25.296 42.011 24.528C42.6937 23.76 43.035 22.7253 43.035 21.424C43.035 20.3787 42.811 19.536 42.363 18.896C41.9363 18.256 41.2323 17.936 40.251 17.936C39.3337 17.936 38.5443 18.2347 37.883 18.832C37.2217 19.4293 36.699 20.4 36.315 21.744C36.2937 21.7867 36.219 21.7973 36.091 21.776C35.963 21.7547 35.9097 21.712 35.931 21.648L37.115 16.976C37.1577 16.912 37.2323 16.9013 37.339 16.944C37.467 16.9653 37.5203 16.9973 37.499 17.04C37.4137 17.4027 37.435 17.648 37.563 17.776C37.691 17.8827 37.8297 17.936 37.979 17.936C38.299 17.936 38.7363 17.8187 39.291 17.584C39.8457 17.3493 40.5177 17.232 41.307 17.232C42.5443 17.232 43.483 17.6053 44.123 18.352C44.763 19.0987 45.083 19.9413 45.083 20.88C45.083 21.6693 44.9017 22.4373 44.539 23.184C44.1763 23.9093 43.6537 24.5493 42.971 25.104C42.2883 25.6373 41.467 26 40.507 26.192L40.987 25.776C42.139 25.7973 43.0883 26.0213 43.835 26.448C44.5817 26.8747 45.1363 27.4293 45.499 28.112C45.8617 28.7947 46.043 29.52 46.043 30.288C46.043 31.2693 45.7123 32.304 45.051 33.392C44.411 34.5013 43.3977 35.5253 42.011 36.464C40.6457 37.424 38.8963 38.2027 36.763 38.8ZM50.4805 30.352C50.0538 30.352 49.7125 30.2347 49.4565 30C49.2005 29.744 49.0725 29.4027 49.0725 28.976C49.0725 28.5707 49.2005 28.2507 49.4565 28.016C49.7125 27.76 50.0538 27.632 50.4805 27.632C50.9285 27.632 51.2698 27.76 51.5045 28.016C51.7392 28.2507 51.8565 28.5707 51.8565 28.976C51.8565 29.4027 51.7392 29.744 51.5045 30C51.2698 30.2347 50.9285 30.352 50.4805 30.352ZM50.4805 21.36C50.0538 21.36 49.7125 21.2427 49.4565 21.008C49.2005 20.752 49.0725 20.4107 49.0725 19.984C49.0725 19.5787 49.2005 19.2587 49.4565 19.024C49.7125 18.768 50.0538 18.64 50.4805 18.64C50.9285 18.64 51.2698 18.768 51.5045 19.024C51.7392 19.2587 51.8565 19.5787 51.8565 19.984C51.8565 20.4107 51.7392 20.752 51.5045 21.008C51.2698 21.2427 50.9285 21.36 50.4805 21.36ZM61.305 30.416C60.025 30.416 58.8837 30.128 57.881 29.552C56.8997 28.976 56.1317 28.1867 55.577 27.184C55.0223 26.1813 54.745 25.0293 54.745 23.728C54.745 22.448 55.0223 21.328 55.577 20.368C56.1317 19.3867 56.9103 18.6187 57.913 18.064C58.9157 17.5093 60.057 17.232 61.337 17.232C62.617 17.232 63.737 17.52 64.697 18.096C65.657 18.6507 66.4037 19.4293 66.937 20.432C67.4917 21.4133 67.769 22.544 67.769 23.824C67.769 25.104 67.4917 26.2453 66.937 27.248C66.4037 28.2293 65.6463 29.008 64.665 29.584C63.705 30.1387 62.585 30.416 61.305 30.416ZM61.657 29.968C62.9797 29.968 63.961 29.4347 64.601 28.368C65.241 27.3013 65.561 25.9147 65.561 24.208C65.561 22.6933 65.3477 21.456 64.921 20.496C64.4943 19.536 63.929 18.832 63.225 18.384C62.5423 17.9147 61.7957 17.68 60.985 17.68C59.705 17.68 58.7023 18.224 57.977 19.312C57.273 20.4 56.921 21.7867 56.921 23.472C56.921 24.7093 57.113 25.8187 57.497 26.8C57.9023 27.7813 58.457 28.56 59.161 29.136C59.865 29.6907 60.697 29.968 61.657 29.968ZM76.555 30.416C75.275 30.416 74.1337 30.128 73.131 29.552C72.1497 28.976 71.3817 28.1867 70.827 27.184C70.2723 26.1813 69.995 25.0293 69.995 23.728C69.995 22.448 70.2723 21.328 70.827 20.368C71.3817 19.3867 72.1603 18.6187 73.163 18.064C74.1657 17.5093 75.307 17.232 76.587 17.232C77.867 17.232 78.987 17.52 79.947 18.096C80.907 18.6507 81.6537 19.4293 82.187 20.432C82.7417 21.4133 83.019 22.544 83.019 23.824C83.019 25.104 82.7417 26.2453 82.187 27.248C81.6537 28.2293 80.8963 29.008 79.915 29.584C78.955 30.1387 77.835 30.416 76.555 30.416ZM76.907 29.968C78.2297 29.968 79.211 29.4347 79.851 28.368C80.491 27.3013 80.811 25.9147 80.811 24.208C80.811 22.6933 80.5977 21.456 80.171 20.496C79.7443 19.536 79.179 18.832 78.475 18.384C77.7923 17.9147 77.0457 17.68 76.235 17.68C74.955 17.68 73.9523 18.224 73.227 19.312C72.523 20.4 72.171 21.7867 72.171 23.472C72.171 24.7093 72.363 25.8187 72.747 26.8C73.1523 27.7813 73.707 28.56 74.411 29.136C75.115 29.6907 75.947 29.968 76.907 29.968Z" fill="#282828"/>
</svg>
