<svg width="141" height="132" viewBox="0 0 141 132" fill="none" xmlns="http://www.w3.org/2000/svg">
<path d="M45.4888 96.312C44.5448 96.312 43.7208 96.08 43.0168 95.616C42.3288 95.152 41.7928 94.536 41.4088 93.768C41.0408 92.984 40.8568 92.144 40.8568 91.248C40.8568 90.416 41.0088 89.696 41.3128 89.088C41.6168 88.48 42.0168 87.984 42.5128 87.6C43.0248 87.2 43.5768 86.904 44.1688 86.712C44.7608 86.52 45.3448 86.424 45.9208 86.424C46.8808 86.424 47.7048 86.664 48.3928 87.144C49.0808 87.624 49.6088 88.24 49.9768 88.992C50.3448 89.744 50.5288 90.536 50.5288 91.368C50.5288 92.392 50.2968 93.272 49.8328 94.008C49.3688 94.744 48.7528 95.312 47.9848 95.712C47.2328 96.112 46.4008 96.312 45.4888 96.312ZM46.1608 95.88C47.0568 95.88 47.7768 95.584 48.3208 94.992C48.8648 94.384 49.1368 93.384 49.1368 91.992C49.1368 91.016 48.9688 90.144 48.6328 89.376C48.2968 88.608 47.8248 88 47.2168 87.552C46.6248 87.104 45.9288 86.88 45.1288 86.88C44.2168 86.88 43.5048 87.2 42.9928 87.84C42.4808 88.464 42.2248 89.368 42.2248 90.552C42.2248 91.496 42.3848 92.376 42.7048 93.192C43.0408 94.008 43.5048 94.664 44.0968 95.16C44.6888 95.64 45.3768 95.88 46.1608 95.88ZM52.1743 96C52.1263 96 52.1023 95.952 52.1023 95.856C52.1023 95.76 52.1263 95.712 52.1743 95.712C52.8623 95.712 53.2943 95.608 53.4703 95.4C53.6623 95.192 53.7583 94.744 53.7583 94.056V88.68C53.7583 87.976 53.6623 87.528 53.4703 87.336C53.2943 87.128 52.8703 87.024 52.1982 87.024C52.1503 87.024 52.1263 86.976 52.1263 86.88C52.1263 86.784 52.1503 86.736 52.1982 86.736C52.4863 86.736 52.8143 86.744 53.1823 86.76C53.5663 86.776 53.9583 86.784 54.3583 86.784C54.7903 86.784 55.2143 86.776 55.6303 86.76C56.0463 86.744 56.4143 86.736 56.7343 86.736C56.7823 86.736 56.8063 86.784 56.8063 86.88C56.8063 86.976 56.7823 87.024 56.7343 87.024C55.9503 87.024 55.4463 87.136 55.2223 87.36C54.9983 87.584 54.8863 88.04 54.8863 88.728V94.056C54.8863 94.744 54.9743 95.192 55.1503 95.4C55.3423 95.608 55.7823 95.712 56.4703 95.712C56.5023 95.712 56.5183 95.76 56.5183 95.856C56.5183 95.952 56.5023 96 56.4703 96C56.1663 96 55.8303 95.992 55.4623 95.976C55.0943 95.96 54.7263 95.952 54.3583 95.952C53.9583 95.952 53.5663 95.96 53.1823 95.976C52.8143 95.992 52.4783 96 52.1743 96ZM59.7343 96C59.6703 96 59.6223 95.992 59.5903 95.976C59.5583 95.944 59.5103 95.864 59.4463 95.736C59.3823 95.592 59.2623 95.368 59.0863 95.064C58.9263 94.744 58.6703 94.288 58.3183 93.696C57.9343 93.056 57.5983 92.576 57.3103 92.256C57.0383 91.92 56.7503 91.696 56.4463 91.584C56.1583 91.456 55.7983 91.392 55.3663 91.392C55.0783 91.392 54.7183 91.416 54.2863 91.464L54.2623 91.032C54.5823 91.016 54.8703 91.008 55.1263 91.008C55.3983 90.992 55.6383 90.976 55.8463 90.96C56.0703 90.944 56.2783 90.936 56.4703 90.936C56.9663 90.936 57.3583 91 57.6463 91.128C57.9503 91.24 58.2303 91.456 58.4863 91.776C58.7583 92.096 59.0943 92.576 59.4943 93.216C59.8463 93.76 60.1423 94.216 60.3823 94.584C60.6223 94.936 60.8863 95.208 61.1743 95.4C61.4623 95.592 61.8463 95.696 62.3263 95.712C62.3583 95.712 62.3743 95.76 62.3743 95.856C62.3743 95.952 62.3583 96 62.3263 96H59.7343ZM56.4703 91.32V90.936C56.6463 90.936 56.8063 90.888 56.9503 90.792C57.0943 90.696 57.2223 90.568 57.3343 90.408C57.4623 90.232 57.5823 90.04 57.6943 89.832C58.0463 89.176 58.3423 88.6 58.5823 88.104C58.8383 87.608 59.1023 87.224 59.3743 86.952C59.6623 86.664 60.0223 86.52 60.4543 86.52C60.7903 86.52 61.0383 86.6 61.1983 86.76C61.3743 86.92 61.4623 87.096 61.4623 87.288C61.4623 87.496 61.3823 87.688 61.2223 87.864C61.0623 88.024 60.8463 88.104 60.5743 88.104C60.4303 88.104 60.3103 88.08 60.2143 88.032C60.1183 87.968 60.0303 87.912 59.9503 87.864C59.8703 87.816 59.7823 87.792 59.6863 87.792C59.5583 87.792 59.3903 87.912 59.1823 88.152C58.9903 88.392 58.7903 88.68 58.5823 89.016C58.3743 89.352 58.1903 89.656 58.0303 89.928C57.8223 90.312 57.5903 90.64 57.3343 90.912C57.0943 91.184 56.8063 91.32 56.4703 91.32ZM67.4497 96.312C66.5057 96.312 65.6817 96.08 64.9777 95.616C64.2897 95.152 63.7537 94.536 63.3697 93.768C63.0017 92.984 62.8177 92.144 62.8177 91.248C62.8177 90.416 62.9697 89.696 63.2737 89.088C63.5777 88.48 63.9777 87.984 64.4737 87.6C64.9857 87.2 65.5377 86.904 66.1297 86.712C66.7217 86.52 67.3057 86.424 67.8817 86.424C68.8417 86.424 69.6657 86.664 70.3537 87.144C71.0417 87.624 71.5697 88.24 71.9377 88.992C72.3057 89.744 72.4897 90.536 72.4897 91.368C72.4897 92.392 72.2577 93.272 71.7937 94.008C71.3297 94.744 70.7137 95.312 69.9457 95.712C69.1937 96.112 68.3617 96.312 67.4497 96.312ZM68.1217 95.88C69.0177 95.88 69.7377 95.584 70.2817 94.992C70.8257 94.384 71.0977 93.384 71.0977 91.992C71.0977 91.016 70.9297 90.144 70.5937 89.376C70.2577 88.608 69.7857 88 69.1777 87.552C68.5857 87.104 67.8897 86.88 67.0897 86.88C66.1777 86.88 65.4657 87.2 64.9537 87.84C64.4417 88.464 64.1857 89.368 64.1857 90.552C64.1857 91.496 64.3457 92.376 64.6657 93.192C65.0017 94.008 65.4657 94.664 66.0577 95.16C66.6497 95.64 67.3377 95.88 68.1217 95.88ZM76.2472 91.584V91.152H82.7032V91.584H76.2472ZM75.7192 94.056V88.68C75.7192 87.976 75.6232 87.528 75.4312 87.336C75.2552 87.128 74.8312 87.024 74.1592 87.024C74.1112 87.024 74.0872 86.976 74.0872 86.88C74.0872 86.784 74.1112 86.736 74.1592 86.736C74.4472 86.736 74.7752 86.744 75.1432 86.76C75.5272 86.776 75.9192 86.784 76.3192 86.784C76.6872 86.784 77.0552 86.776 77.4232 86.76C77.8072 86.744 78.1432 86.736 78.4312 86.736C78.4632 86.736 78.4792 86.784 78.4792 86.88C78.4792 86.976 78.4632 87.024 78.4312 87.024C77.7432 87.024 77.3032 87.136 77.1112 87.36C76.9352 87.584 76.8472 88.04 76.8472 88.728V94.056C76.8472 94.744 76.9352 95.192 77.1112 95.4C77.3032 95.608 77.7432 95.712 78.4312 95.712C78.4632 95.712 78.4792 95.76 78.4792 95.856C78.4792 95.952 78.4632 96 78.4312 96C78.1272 96 77.7912 95.992 77.4232 95.976C77.0552 95.96 76.6872 95.952 76.3192 95.952C75.9192 95.952 75.5272 95.96 75.1432 95.976C74.7752 95.992 74.4392 96 74.1352 96C74.0872 96 74.0632 95.952 74.0632 95.856C74.0632 95.76 74.0872 95.712 74.1352 95.712C74.8232 95.712 75.2552 95.608 75.4312 95.4C75.6232 95.192 75.7192 94.744 75.7192 94.056ZM82.1752 94.056V88.68C82.1752 87.976 82.0792 87.528 81.8872 87.336C81.7112 87.128 81.2872 87.024 80.6152 87.024C80.5672 87.024 80.5432 86.976 80.5432 86.88C80.5432 86.784 80.5672 86.736 80.6152 86.736C80.9032 86.736 81.2312 86.744 81.5992 86.76C81.9832 86.776 82.3752 86.784 82.7752 86.784C83.1432 86.784 83.5112 86.776 83.8792 86.76C84.2632 86.744 84.5992 86.736 84.8872 86.736C84.9192 86.736 84.9352 86.784 84.9352 86.88C84.9352 86.976 84.9192 87.024 84.8872 87.024C84.1992 87.024 83.7592 87.136 83.5672 87.36C83.3912 87.584 83.3032 88.04 83.3032 88.728V94.056C83.3032 94.744 83.3912 95.192 83.5672 95.4C83.7592 95.608 84.1992 95.712 84.8872 95.712C84.9192 95.712 84.9352 95.76 84.9352 95.856C84.9352 95.952 84.9192 96 84.8872 96C84.5832 96 84.2472 95.992 83.8792 95.976C83.5112 95.96 83.1432 95.952 82.7752 95.952C82.3752 95.952 81.9832 95.96 81.5992 95.976C81.2152 95.992 80.8792 96 80.5912 96C80.5432 96 80.5192 95.952 80.5192 95.856C80.5192 95.76 80.5432 95.712 80.5912 95.712C81.2632 95.712 81.6952 95.608 81.8872 95.4C82.0792 95.192 82.1752 94.744 82.1752 94.056ZM92.249 94.056V88.68C92.249 87.976 92.169 87.528 92.009 87.336C91.865 87.128 91.513 87.024 90.953 87.024C90.921 87.024 90.905 86.976 90.905 86.88C90.905 86.784 90.921 86.736 90.953 86.736C91.209 86.736 91.505 86.744 91.841 86.76C92.177 86.776 92.513 86.784 92.849 86.784C93.217 86.784 93.585 86.776 93.953 86.76C94.337 86.744 94.665 86.736 94.937 86.736C94.985 86.736 95.009 86.784 95.009 86.88C95.009 86.976 94.985 87.024 94.937 87.024C94.265 87.024 93.833 87.136 93.641 87.36C93.465 87.584 93.377 88.04 93.377 88.728V94.056C93.377 94.744 93.465 95.192 93.641 95.4C93.833 95.608 94.265 95.712 94.937 95.712C94.985 95.712 95.009 95.76 95.009 95.856C95.009 95.952 94.985 96 94.937 96C94.649 96 94.321 95.992 93.953 95.976C93.585 95.96 93.217 95.952 92.849 95.952C92.449 95.952 92.057 95.96 91.673 95.976C91.289 95.992 90.945 96 90.641 96C90.609 96 90.593 95.952 90.593 95.856C90.593 95.76 90.609 95.712 90.641 95.712C91.313 95.712 91.745 95.608 91.937 95.4C92.145 95.192 92.249 94.744 92.249 94.056ZM87.809 88.728C87.809 88.888 87.809 89.048 87.809 89.208C87.809 89.368 87.809 89.512 87.809 89.64C87.809 90.312 87.993 90.832 88.361 91.2C88.745 91.568 89.313 91.752 90.065 91.752C90.433 91.752 90.865 91.696 91.361 91.584C91.873 91.456 92.313 91.272 92.681 91.032L92.729 91.152C92.137 91.664 91.537 92.024 90.929 92.232C90.337 92.424 89.801 92.52 89.321 92.52C88.441 92.52 87.785 92.28 87.353 91.8C86.937 91.32 86.729 90.64 86.729 89.76V88.68C86.729 87.976 86.665 87.528 86.537 87.336C86.425 87.128 86.153 87.024 85.721 87.024C85.673 87.024 85.649 86.976 85.649 86.88C85.649 86.784 85.673 86.736 85.721 86.736C85.945 86.736 86.193 86.744 86.465 86.76C86.737 86.776 87.017 86.784 87.305 86.784C87.625 86.784 87.945 86.776 88.265 86.76C88.601 86.744 88.889 86.736 89.129 86.736C89.177 86.736 89.201 86.784 89.201 86.88C89.201 86.976 89.177 87.024 89.129 87.024C88.585 87.024 88.225 87.136 88.049 87.36C87.889 87.584 87.809 88.04 87.809 88.728ZM103.215 96.144C103.151 96.176 103.087 96.192 103.023 96.192C102.831 96.192 102.655 96.024 102.495 95.688C102.335 95.352 102.255 94.864 102.255 94.224V89.88C102.255 89.096 102.175 88.496 102.015 88.08C101.871 87.664 101.671 87.384 101.415 87.24C101.175 87.08 100.911 87 100.623 87C100.191 87 99.8391 87.112 99.5671 87.336C99.2951 87.56 99.0871 87.832 98.9431 88.152C98.8151 88.456 98.7271 88.744 98.6791 89.016C98.6631 89.176 98.6071 89.352 98.5111 89.544C98.4311 89.72 98.2311 89.808 97.9111 89.808C97.7031 89.808 97.5271 89.752 97.3831 89.64C97.2551 89.528 97.1911 89.368 97.1911 89.16C97.1911 88.888 97.3271 88.6 97.5991 88.296C97.8711 87.992 98.2151 87.704 98.6311 87.432C99.0631 87.16 99.5191 86.944 99.9991 86.784C100.479 86.608 100.927 86.52 101.343 86.52C101.935 86.52 102.415 86.736 102.783 87.168C103.167 87.584 103.359 88.248 103.359 89.16V93.408C103.359 93.984 103.423 94.408 103.551 94.68C103.695 94.936 103.935 95.064 104.271 95.064C104.575 95.064 105.015 94.944 105.591 94.704C105.671 94.672 105.727 94.704 105.759 94.8C105.791 94.88 105.767 94.936 105.687 94.968L103.215 96.144ZM98.5831 96.168C98.0711 96.168 97.6871 96.032 97.4311 95.76C97.1911 95.472 97.0711 95.152 97.0711 94.8C97.0711 94.384 97.2391 94.048 97.5751 93.792C97.9111 93.52 98.4631 93.248 99.2311 92.976L102.495 91.8L102.543 92.04L99.4711 93.216C99.1191 93.344 98.8711 93.496 98.7271 93.672C98.5831 93.848 98.5111 94.072 98.5111 94.344C98.5111 94.68 98.6071 94.944 98.7991 95.136C99.0071 95.312 99.2631 95.4 99.5671 95.4C99.7431 95.4 99.9031 95.384 100.047 95.352C100.207 95.304 100.351 95.248 100.479 95.184L102.711 94.056L102.759 94.32L100.671 95.448C100.175 95.704 99.7751 95.888 99.4711 96C99.1831 96.112 98.8871 96.168 98.5831 96.168ZM108.638 91.584V91.152H115.094V91.584H108.638ZM108.11 94.056V88.68C108.11 87.976 108.014 87.528 107.822 87.336C107.646 87.128 107.222 87.024 106.55 87.024C106.502 87.024 106.478 86.976 106.478 86.88C106.478 86.784 106.502 86.736 106.55 86.736C106.838 86.736 107.166 86.744 107.534 86.76C107.918 86.776 108.31 86.784 108.71 86.784C109.078 86.784 109.446 86.776 109.814 86.76C110.198 86.744 110.534 86.736 110.822 86.736C110.854 86.736 110.87 86.784 110.87 86.88C110.87 86.976 110.854 87.024 110.822 87.024C110.134 87.024 109.694 87.136 109.502 87.36C109.326 87.584 109.238 88.04 109.238 88.728V94.056C109.238 94.744 109.326 95.192 109.502 95.4C109.694 95.608 110.134 95.712 110.822 95.712C110.854 95.712 110.87 95.76 110.87 95.856C110.87 95.952 110.854 96 110.822 96C110.518 96 110.182 95.992 109.814 95.976C109.446 95.96 109.078 95.952 108.71 95.952C108.31 95.952 107.918 95.96 107.534 95.976C107.166 95.992 106.83 96 106.526 96C106.478 96 106.454 95.952 106.454 95.856C106.454 95.76 106.478 95.712 106.526 95.712C107.214 95.712 107.646 95.608 107.822 95.4C108.014 95.192 108.11 94.744 108.11 94.056ZM114.566 94.056V88.68C114.566 87.976 114.47 87.528 114.278 87.336C114.102 87.128 113.678 87.024 113.006 87.024C112.958 87.024 112.934 86.976 112.934 86.88C112.934 86.784 112.958 86.736 113.006 86.736C113.294 86.736 113.622 86.744 113.99 86.76C114.374 86.776 114.766 86.784 115.166 86.784C115.534 86.784 115.902 86.776 116.27 86.76C116.654 86.744 116.99 86.736 117.278 86.736C117.31 86.736 117.326 86.784 117.326 86.88C117.326 86.976 117.31 87.024 117.278 87.024C116.59 87.024 116.15 87.136 115.958 87.36C115.782 87.584 115.694 88.04 115.694 88.728V94.056C115.694 94.744 115.782 95.192 115.958 95.4C116.15 95.608 116.59 95.712 117.278 95.712C117.31 95.712 117.326 95.76 117.326 95.856C117.326 95.952 117.31 96 117.278 96C116.974 96 116.638 95.992 116.27 95.976C115.902 95.96 115.534 95.952 115.166 95.952C114.766 95.952 114.374 95.96 113.99 95.976C113.606 95.992 113.27 96 112.982 96C112.934 96 112.91 95.952 112.91 95.856C112.91 95.76 112.934 95.712 112.982 95.712C113.654 95.712 114.086 95.608 114.278 95.4C114.47 95.192 114.566 94.744 114.566 94.056ZM121.04 94.776L120.728 94.464L127.256 87.936L127.568 88.248L121.04 94.776ZM120.368 94.056V88.68C120.368 87.976 120.272 87.528 120.08 87.336C119.904 87.128 119.48 87.024 118.808 87.024C118.76 87.024 118.736 86.976 118.736 86.88C118.736 86.784 118.76 86.736 118.808 86.736C119.096 86.736 119.424 86.744 119.792 86.76C120.176 86.776 120.568 86.784 120.968 86.784C121.336 86.784 121.704 86.776 122.072 86.76C122.456 86.744 122.792 86.736 123.08 86.736C123.112 86.736 123.128 86.784 123.128 86.88C123.128 86.976 123.112 87.024 123.08 87.024C122.392 87.024 121.952 87.136 121.76 87.36C121.584 87.584 121.496 88.04 121.496 88.728V94.056C121.496 94.744 121.584 95.192 121.76 95.4C121.952 95.608 122.392 95.712 123.08 95.712C123.112 95.712 123.128 95.76 123.128 95.856C123.128 95.952 123.112 96 123.08 96C122.776 96 122.44 95.992 122.072 95.976C121.704 95.96 121.336 95.952 120.968 95.952C120.568 95.952 120.176 95.96 119.792 95.976C119.424 95.992 119.088 96 118.784 96C118.736 96 118.712 95.952 118.712 95.856C118.712 95.76 118.736 95.712 118.784 95.712C119.472 95.712 119.904 95.608 120.08 95.4C120.272 95.192 120.368 94.744 120.368 94.056ZM126.824 94.056V88.68C126.824 87.976 126.728 87.528 126.536 87.336C126.36 87.128 125.936 87.024 125.264 87.024C125.216 87.024 125.192 86.976 125.192 86.88C125.192 86.784 125.216 86.736 125.264 86.736C125.552 86.736 125.88 86.744 126.248 86.76C126.632 86.776 127.024 86.784 127.424 86.784C127.792 86.784 128.16 86.776 128.528 86.76C128.912 86.744 129.248 86.736 129.536 86.736C129.568 86.736 129.584 86.784 129.584 86.88C129.584 86.976 129.568 87.024 129.536 87.024C128.848 87.024 128.408 87.136 128.216 87.36C128.04 87.584 127.952 88.04 127.952 88.728V94.056C127.952 94.744 128.04 95.192 128.216 95.4C128.408 95.608 128.848 95.712 129.536 95.712C129.568 95.712 129.584 95.76 129.584 95.856C129.584 95.952 129.568 96 129.536 96C129.232 96 128.896 95.992 128.528 95.976C128.16 95.96 127.792 95.952 127.424 95.952C127.024 95.952 126.632 95.96 126.248 95.976C125.864 95.992 125.528 96 125.24 96C125.192 96 125.168 95.952 125.168 95.856C125.168 95.76 125.192 95.712 125.24 95.712C125.912 95.712 126.344 95.608 126.536 95.4C126.728 95.192 126.824 94.744 126.824 94.056ZM135.577 96.288C134.601 96.288 133.785 96.072 133.129 95.64C132.473 95.192 131.977 94.616 131.641 93.912C131.321 93.208 131.161 92.464 131.161 91.68C131.161 90.704 131.385 89.832 131.833 89.064C132.281 88.28 132.889 87.664 133.657 87.216C134.425 86.752 135.289 86.52 136.249 86.52C137.097 86.52 137.745 86.736 138.193 87.168C138.657 87.584 138.889 88.16 138.889 88.896C138.889 89.072 138.873 89.208 138.841 89.304C138.809 89.384 138.729 89.424 138.601 89.424H137.425C137.505 88.624 137.353 88.024 136.969 87.624C136.601 87.208 136.089 87 135.433 87C134.489 87 133.769 87.336 133.273 88.008C132.777 88.68 132.529 89.6 132.529 90.768C132.529 91.68 132.673 92.496 132.961 93.216C133.265 93.92 133.705 94.48 134.281 94.896C134.857 95.312 135.545 95.52 136.345 95.52C136.761 95.52 137.185 95.456 137.617 95.328C138.049 95.2 138.457 94.992 138.841 94.704C138.873 94.672 138.913 94.696 138.961 94.776C139.025 94.84 139.041 94.896 139.009 94.944C138.449 95.424 137.881 95.768 137.305 95.976C136.745 96.184 136.169 96.288 135.577 96.288ZM132.217 89.448L132.193 89.184L137.713 89.064V89.424L132.217 89.448ZM80.8661 115.76C81.2821 115.76 81.7141 115.752 82.1621 115.736C82.6101 115.704 83.0661 115.688 83.5301 115.688C84.4261 115.688 85.1141 115.84 85.5941 116.144C86.0741 116.448 86.3141 116.904 86.3141 117.512C86.3141 118.376 85.7061 119.24 84.4901 120.104L84.1781 119.984C84.4501 119.76 84.6581 119.496 84.8021 119.192C84.9461 118.888 85.0181 118.504 85.0181 118.04C85.0181 117.32 84.8341 116.8 84.4661 116.48C84.1141 116.16 83.5941 116 82.9061 116C82.3141 116 81.9141 116.104 81.7061 116.312C81.4981 116.504 81.3941 116.976 81.3941 117.728V123.056C81.3941 123.632 81.5221 124.048 81.7781 124.304C82.0501 124.56 82.6021 124.688 83.4341 124.688C84.3141 124.688 84.9541 124.512 85.3541 124.16C85.7701 123.792 85.9781 123.28 85.9781 122.624C85.9781 121.92 85.7621 121.352 85.3301 120.92C84.8981 120.472 84.1781 120.248 83.1701 120.248H80.9621L80.9381 119.864H84.0101C86.2181 119.864 87.3221 120.6 87.3221 122.072C87.3221 122.936 86.9941 123.648 86.3381 124.208C85.6821 124.768 84.8581 125.048 83.8661 125.048C83.4821 125.048 82.9941 125.032 82.4021 125C81.8261 124.968 81.3141 124.952 80.8661 124.952C80.4661 124.952 80.0741 124.96 79.6901 124.976C79.3221 124.992 78.9861 125 78.6821 125C78.6341 125 78.6101 124.952 78.6101 124.856C78.6101 124.76 78.6341 124.712 78.6821 124.712C79.3701 124.712 79.8021 124.608 79.9781 124.4C80.1701 124.192 80.2661 123.744 80.2661 123.056V117.68C80.2661 116.976 80.1701 116.528 79.9781 116.336C79.8021 116.128 79.3781 116.024 78.7061 116.024C78.6581 116.024 78.6341 115.976 78.6341 115.88C78.6341 115.784 78.6581 115.736 78.7061 115.736C78.9941 115.736 79.3221 115.744 79.6901 115.76C80.0741 115.76 80.4661 115.76 80.8661 115.76ZM93.6009 125.288C92.6249 125.288 91.8089 125.072 91.1529 124.64C90.4969 124.192 90.0009 123.616 89.6649 122.912C89.3449 122.208 89.1849 121.464 89.1849 120.68C89.1849 119.704 89.4089 118.832 89.8569 118.064C90.3049 117.28 90.9129 116.664 91.6809 116.216C92.4489 115.752 93.3129 115.52 94.2729 115.52C95.1209 115.52 95.7689 115.736 96.2169 116.168C96.6809 116.584 96.9129 117.16 96.9129 117.896C96.9129 118.072 96.8969 118.208 96.8649 118.304C96.8329 118.384 96.7529 118.424 96.6249 118.424H95.4489C95.5289 117.624 95.3769 117.024 94.9929 116.624C94.6249 116.208 94.1129 116 93.4569 116C92.5129 116 91.7929 116.336 91.2969 117.008C90.8009 117.68 90.5529 118.6 90.5529 119.768C90.5529 120.68 90.6969 121.496 90.9849 122.216C91.2889 122.92 91.7289 123.48 92.3049 123.896C92.8809 124.312 93.5689 124.52 94.3689 124.52C94.7849 124.52 95.2089 124.456 95.6409 124.328C96.0729 124.2 96.4809 123.992 96.8649 123.704C96.8969 123.672 96.9369 123.696 96.9849 123.776C97.0489 123.84 97.0649 123.896 97.0329 123.944C96.4729 124.424 95.9049 124.768 95.3289 124.976C94.7689 125.184 94.1929 125.288 93.6009 125.288ZM90.2409 118.448L90.2169 118.184L95.7369 118.064V118.424L90.2409 118.448ZM104.647 123.056V117.68C104.647 116.976 104.567 116.528 104.407 116.336C104.263 116.128 103.911 116.024 103.351 116.024C103.319 116.024 103.303 115.976 103.303 115.88C103.303 115.784 103.319 115.736 103.351 115.736C103.607 115.736 103.903 115.744 104.239 115.76C104.575 115.776 104.911 115.784 105.247 115.784C105.615 115.784 105.983 115.776 106.351 115.76C106.735 115.744 107.063 115.736 107.335 115.736C107.383 115.736 107.407 115.784 107.407 115.88C107.407 115.976 107.383 116.024 107.335 116.024C106.663 116.024 106.231 116.136 106.039 116.36C105.863 116.584 105.775 117.04 105.775 117.728V123.056C105.775 123.744 105.863 124.192 106.039 124.4C106.231 124.608 106.663 124.712 107.335 124.712C107.383 124.712 107.407 124.76 107.407 124.856C107.407 124.952 107.383 125 107.335 125C107.047 125 106.719 124.992 106.351 124.976C105.983 124.96 105.615 124.952 105.247 124.952C104.847 124.952 104.455 124.96 104.071 124.976C103.687 124.992 103.343 125 103.039 125C103.007 125 102.991 124.952 102.991 124.856C102.991 124.76 103.007 124.712 103.039 124.712C103.711 124.712 104.143 124.608 104.335 124.4C104.543 124.192 104.647 123.744 104.647 123.056ZM100.207 117.728C100.207 117.888 100.207 118.048 100.207 118.208C100.207 118.368 100.207 118.512 100.207 118.64C100.207 119.312 100.391 119.832 100.759 120.2C101.143 120.568 101.711 120.752 102.463 120.752C102.831 120.752 103.263 120.696 103.759 120.584C104.271 120.456 104.711 120.272 105.079 120.032L105.127 120.152C104.535 120.664 103.935 121.024 103.327 121.232C102.735 121.424 102.199 121.52 101.719 121.52C100.839 121.52 100.183 121.28 99.7514 120.8C99.3354 120.32 99.1274 119.64 99.1274 118.76V117.68C99.1274 116.976 99.0634 116.528 98.9354 116.336C98.8234 116.128 98.5514 116.024 98.1194 116.024C98.0714 116.024 98.0474 115.976 98.0474 115.88C98.0474 115.784 98.0714 115.736 98.1194 115.736C98.3434 115.736 98.5914 115.744 98.8634 115.76C99.1354 115.776 99.4154 115.784 99.7034 115.784C100.023 115.784 100.343 115.776 100.663 115.76C100.999 115.744 101.287 115.736 101.527 115.736C101.575 115.736 101.599 115.784 101.599 115.88C101.599 115.976 101.575 116.024 101.527 116.024C100.983 116.024 100.623 116.136 100.447 116.36C100.287 116.584 100.207 117.04 100.207 117.728ZM113.406 125.288C112.43 125.288 111.614 125.072 110.958 124.64C110.302 124.192 109.806 123.616 109.47 122.912C109.15 122.208 108.99 121.464 108.99 120.68C108.99 119.704 109.214 118.832 109.662 118.064C110.11 117.28 110.718 116.664 111.486 116.216C112.254 115.752 113.118 115.52 114.078 115.52C114.926 115.52 115.574 115.736 116.022 116.168C116.486 116.584 116.718 117.16 116.718 117.896C116.718 118.072 116.702 118.208 116.67 118.304C116.638 118.384 116.558 118.424 116.43 118.424H115.254C115.334 117.624 115.182 117.024 114.798 116.624C114.43 116.208 113.918 116 113.262 116C112.318 116 111.598 116.336 111.102 117.008C110.606 117.68 110.358 118.6 110.358 119.768C110.358 120.68 110.502 121.496 110.79 122.216C111.094 122.92 111.534 123.48 112.11 123.896C112.686 124.312 113.374 124.52 114.174 124.52C114.59 124.52 115.014 124.456 115.446 124.328C115.878 124.2 116.286 123.992 116.67 123.704C116.702 123.672 116.742 123.696 116.79 123.776C116.854 123.84 116.87 123.896 116.838 123.944C116.278 124.424 115.71 124.768 115.134 124.976C114.574 125.184 113.998 125.288 113.406 125.288ZM110.046 118.448L110.022 118.184L115.542 118.064V118.424L110.046 118.448ZM118.212 131.6C118.18 131.6 118.164 131.552 118.164 131.456C118.164 131.36 118.18 131.312 118.212 131.312C118.996 131.312 119.5 131.208 119.724 131C119.964 130.792 120.084 130.344 120.084 129.656V117.68C120.084 117.008 119.94 116.568 119.652 116.36C119.38 116.136 118.812 116.024 117.948 116.024C117.9 116.024 117.876 115.976 117.876 115.88C117.876 115.784 117.9 115.736 117.948 115.736C118.396 115.736 118.796 115.736 119.148 115.736C119.5 115.736 119.804 115.736 120.06 115.736C120.332 115.736 120.564 115.736 120.756 115.736C120.932 115.736 121.044 115.776 121.092 115.856C121.156 115.936 121.188 116.112 121.188 116.384V129.656C121.188 130.104 121.252 130.448 121.38 130.688C121.508 130.928 121.748 131.088 122.1 131.168C122.452 131.264 122.972 131.312 123.66 131.312C123.708 131.312 123.732 131.36 123.732 131.456C123.732 131.552 123.708 131.6 123.66 131.6C123.244 131.6 122.78 131.592 122.268 131.576C121.756 131.56 121.22 131.552 120.66 131.552C120.212 131.552 119.772 131.56 119.34 131.576C118.908 131.592 118.532 131.6 118.212 131.6ZM123.852 125.312C123.244 125.312 122.7 125.232 122.22 125.072C121.756 124.912 121.244 124.608 120.684 124.16L120.924 122.888C121.372 123.448 121.876 123.912 122.436 124.28C122.996 124.648 123.732 124.832 124.644 124.832C125.492 124.832 126.212 124.456 126.804 123.704C127.396 122.952 127.692 121.912 127.692 120.584C127.692 119.16 127.38 118.08 126.756 117.344C126.132 116.592 125.372 116.216 124.476 116.216C123.74 116.216 123.092 116.424 122.532 116.84C121.972 117.256 121.436 117.752 120.924 118.328L120.708 118.16C121.524 117.216 122.308 116.528 123.06 116.096C123.812 115.648 124.572 115.424 125.34 115.424C125.996 115.424 126.596 115.6 127.14 115.952C127.7 116.288 128.148 116.784 128.484 117.44C128.82 118.096 128.988 118.896 128.988 119.84C128.988 120.8 128.82 121.624 128.484 122.312C128.148 123 127.716 123.568 127.188 124.016C126.66 124.448 126.1 124.776 125.508 125C124.916 125.208 124.364 125.312 123.852 125.312ZM137.457 125.144C137.393 125.176 137.329 125.192 137.265 125.192C137.073 125.192 136.897 125.024 136.737 124.688C136.577 124.352 136.497 123.864 136.497 123.224V118.88C136.497 118.096 136.417 117.496 136.257 117.08C136.113 116.664 135.913 116.384 135.657 116.24C135.417 116.08 135.153 116 134.865 116C134.433 116 134.081 116.112 133.809 116.336C133.537 116.56 133.329 116.832 133.185 117.152C133.057 117.456 132.969 117.744 132.921 118.016C132.905 118.176 132.849 118.352 132.753 118.544C132.673 118.72 132.473 118.808 132.153 118.808C131.945 118.808 131.769 118.752 131.625 118.64C131.497 118.528 131.433 118.368 131.433 118.16C131.433 117.888 131.569 117.6 131.841 117.296C132.113 116.992 132.457 116.704 132.873 116.432C133.305 116.16 133.761 115.944 134.241 115.784C134.721 115.608 135.169 115.52 135.585 115.52C136.177 115.52 136.657 115.736 137.025 116.168C137.409 116.584 137.601 117.248 137.601 118.16V122.408C137.601 122.984 137.665 123.408 137.793 123.68C137.937 123.936 138.177 124.064 138.513 124.064C138.817 124.064 139.257 123.944 139.833 123.704C139.913 123.672 139.969 123.704 140.001 123.8C140.033 123.88 140.009 123.936 139.929 123.968L137.457 125.144ZM132.825 125.168C132.313 125.168 131.929 125.032 131.673 124.76C131.433 124.472 131.313 124.152 131.313 123.8C131.313 123.384 131.481 123.048 131.817 122.792C132.153 122.52 132.705 122.248 133.473 121.976L136.737 120.8L136.785 121.04L133.713 122.216C133.361 122.344 133.113 122.496 132.969 122.672C132.825 122.848 132.753 123.072 132.753 123.344C132.753 123.68 132.849 123.944 133.041 124.136C133.249 124.312 133.505 124.4 133.809 124.4C133.985 124.4 134.145 124.384 134.289 124.352C134.449 124.304 134.593 124.248 134.721 124.184L136.953 123.056L137.001 123.32L134.913 124.448C134.417 124.704 134.017 124.888 133.713 125C133.425 125.112 133.129 125.168 132.825 125.168Z" fill="#282828"/>
<path d="M18.368 58.04C21.0987 55.864 23.3813 53.944 25.216 52.28C27.0933 50.616 28.5867 49.144 29.696 47.864C30.8053 46.5413 31.5947 45.304 32.064 44.152C32.576 43 32.832 41.848 32.832 40.696C32.832 38.9467 32.2987 37.5387 31.232 36.472C30.208 35.4053 28.864 34.872 27.2 34.872C25.4933 34.872 24.0427 35.5547 22.848 36.92C21.6533 38.2427 20.672 40.2053 19.904 42.808C19.8613 42.8933 19.712 42.9147 19.456 42.872C19.2 42.8293 19.0933 42.744 19.136 42.616L21.632 32.888C21.6747 32.76 21.824 32.7387 22.08 32.824C22.336 32.8667 22.4213 32.9307 22.336 33.016C22.1653 33.7413 22.1867 34.2107 22.4 34.424C22.656 34.6373 22.9333 34.744 23.232 34.744C23.872 34.744 24.7253 34.5307 25.792 34.104C26.9013 33.6773 28.2453 33.464 29.824 33.464C32.0427 33.464 33.7707 34.0613 35.008 35.256C36.2453 36.408 36.864 37.9227 36.864 39.8C36.864 40.952 36.5867 42.104 36.032 43.256C35.4773 44.3653 34.6453 45.5387 33.536 46.776C32.4267 47.9707 31.0187 49.272 29.312 50.68C27.648 52.088 25.6853 53.6667 23.424 55.416C23.2533 55.544 23.2107 55.6507 23.296 55.736C23.3813 55.8213 23.5093 55.864 23.68 55.864C26.7947 55.864 29.312 55.8427 31.232 55.8C33.152 55.7147 34.6453 55.5653 35.712 55.352C36.7787 55.096 37.5467 54.6907 38.016 54.136C38.528 53.5387 38.8907 52.728 39.104 51.704C39.1467 51.6187 39.2747 51.5973 39.488 51.64C39.744 51.64 39.872 51.6827 39.872 51.768L38.912 58.296C38.912 58.4667 38.848 58.6373 38.72 58.808C38.6347 58.936 38.5067 59 38.336 59C35.3067 59 32.0853 59 28.672 59C25.2587 59 21.9733 59 18.816 59C18.6453 59 18.496 58.8933 18.368 58.68C18.24 58.424 18.24 58.2107 18.368 58.04ZM45.526 76.6C45.3553 76.6427 45.206 76.536 45.078 76.28C44.9927 76.0667 45.0353 75.9387 45.206 75.896C48.022 75 50.3473 73.9333 52.182 72.696C54.0167 71.4587 55.4673 70.1147 56.534 68.664C57.6433 67.2133 58.4113 65.7627 58.838 64.312C59.2647 62.904 59.478 61.56 59.478 60.28C59.478 58.9147 59.2433 57.6133 58.774 56.376C58.3047 55.096 57.5367 54.072 56.47 53.304C55.446 52.4933 54.0593 52.088 52.31 52.088C51.798 52.088 51.286 52.1093 50.774 52.152C50.262 52.1947 49.7287 52.3013 49.174 52.472C49.046 52.5147 48.9393 52.408 48.854 52.152C48.7687 51.896 48.79 51.7467 48.918 51.704C52.3313 50.808 54.6993 49.592 56.022 48.056C57.3873 46.52 58.07 44.4507 58.07 41.848C58.07 39.7573 57.622 38.072 56.726 36.792C55.8727 35.512 54.4647 34.872 52.502 34.872C50.6673 34.872 49.0887 35.4693 47.766 36.664C46.4433 37.8587 45.398 39.8 44.63 42.488C44.5873 42.5733 44.438 42.5947 44.182 42.552C43.926 42.5093 43.8193 42.424 43.862 42.296L46.23 32.952C46.3153 32.824 46.4647 32.8027 46.678 32.888C46.934 32.9307 47.0407 32.9947 46.998 33.08C46.8273 33.8053 46.87 34.296 47.126 34.552C47.382 34.7653 47.6593 34.872 47.958 34.872C48.598 34.872 49.4727 34.6373 50.582 34.168C51.6913 33.6987 53.0353 33.464 54.614 33.464C57.0887 33.464 58.966 34.2107 60.246 35.704C61.526 37.1973 62.166 38.8827 62.166 40.76C62.166 42.3387 61.8033 43.8747 61.078 45.368C60.3527 46.8187 59.3073 48.0987 57.942 49.208C56.5767 50.2747 54.934 51 53.014 51.384L53.974 50.552C56.278 50.5947 58.1767 51.0427 59.67 51.896C61.1633 52.7493 62.2727 53.8587 62.998 55.224C63.7233 56.5893 64.086 58.04 64.086 59.576C64.086 61.5387 63.4247 63.608 62.102 65.784C60.822 68.0027 58.7953 70.0507 56.022 71.928C53.2913 73.848 49.7927 75.4053 45.526 76.6ZM72.961 59.704C72.1077 59.704 71.425 59.4693 70.913 59C70.401 58.488 70.145 57.8053 70.145 56.952C70.145 56.1413 70.401 55.5013 70.913 55.032C71.425 54.52 72.1077 54.264 72.961 54.264C73.857 54.264 74.5397 54.52 75.009 55.032C75.4783 55.5013 75.713 56.1413 75.713 56.952C75.713 57.8053 75.4783 58.488 75.009 59C74.5397 59.4693 73.857 59.704 72.961 59.704ZM72.961 41.72C72.1077 41.72 71.425 41.4853 70.913 41.016C70.401 40.504 70.145 39.8213 70.145 38.968C70.145 38.1573 70.401 37.5173 70.913 37.048C71.425 36.536 72.1077 36.28 72.961 36.28C73.857 36.28 74.5397 36.536 75.009 37.048C75.4783 37.5173 75.713 38.1573 75.713 38.968C75.713 39.8213 75.4783 40.504 75.009 41.016C74.5397 41.4853 73.857 41.72 72.961 41.72ZM94.61 59.832C92.05 59.832 89.7673 59.256 87.762 58.104C85.7993 56.952 84.2633 55.3733 83.154 53.368C82.0447 51.3627 81.49 49.0587 81.49 46.456C81.49 43.896 82.0447 41.656 83.154 39.736C84.2633 37.7733 85.8207 36.2373 87.826 35.128C89.8313 34.0187 92.114 33.464 94.674 33.464C97.234 33.464 99.474 34.04 101.394 35.192C103.314 36.3013 104.807 37.8587 105.874 39.864C106.983 41.8267 107.538 44.088 107.538 46.648C107.538 49.208 106.983 51.4907 105.874 53.496C104.807 55.4587 103.293 57.016 101.33 58.168C99.41 59.2773 97.17 59.832 94.61 59.832ZM95.314 58.936C97.9593 58.936 99.922 57.8693 101.202 55.736C102.482 53.6027 103.122 50.8293 103.122 47.416C103.122 44.3867 102.695 41.912 101.842 39.992C100.989 38.072 99.858 36.664 98.45 35.768C97.0847 34.8293 95.5913 34.36 93.97 34.36C91.41 34.36 89.4047 35.448 87.954 37.624C86.546 39.8 85.842 42.5733 85.842 45.944C85.842 48.4187 86.226 50.6373 86.994 52.6C87.8047 54.5627 88.914 56.12 90.322 57.272C91.73 58.3813 93.394 58.936 95.314 58.936ZM125.11 59.832C122.55 59.832 120.267 59.256 118.262 58.104C116.299 56.952 114.763 55.3733 113.654 53.368C112.545 51.3627 111.99 49.0587 111.99 46.456C111.99 43.896 112.545 41.656 113.654 39.736C114.763 37.7733 116.321 36.2373 118.326 35.128C120.331 34.0187 122.614 33.464 125.174 33.464C127.734 33.464 129.974 34.04 131.894 35.192C133.814 36.3013 135.307 37.8587 136.374 39.864C137.483 41.8267 138.038 44.088 138.038 46.648C138.038 49.208 137.483 51.4907 136.374 53.496C135.307 55.4587 133.793 57.016 131.83 58.168C129.91 59.2773 127.67 59.832 125.11 59.832ZM125.814 58.936C128.459 58.936 130.422 57.8693 131.702 55.736C132.982 53.6027 133.622 50.8293 133.622 47.416C133.622 44.3867 133.195 41.912 132.342 39.992C131.489 38.072 130.358 36.664 128.95 35.768C127.585 34.8293 126.091 34.36 124.47 34.36C121.91 34.36 119.905 35.448 118.454 37.624C117.046 39.8 116.342 42.5733 116.342 45.944C116.342 48.4187 116.726 50.6373 117.494 52.6C118.305 54.5627 119.414 56.12 120.822 57.272C122.23 58.3813 123.894 58.936 125.814 58.936Z" fill="#282828"/>
</svg>
