<svg width="126" height="102" viewBox="0 0 126 102" fill="none" xmlns="http://www.w3.org/2000/svg">
<path d="M5.352 97.312C4.632 97.312 3.936 97.12 3.264 96.736C2.608 96.336 2.064 95.712 1.632 94.864C1.216 94 1.008 92.872 1.008 91.48C1.008 89.464 1.224 87.84 1.656 86.608C2.088 85.36 2.696 84.384 3.48 83.68C4.264 82.96 5.184 82.384 6.24 81.952C6.672 81.776 7.096 81.6 7.512 81.424C7.944 81.248 8.344 81.024 8.712 80.752C9.08 80.464 9.368 80.08 9.576 79.6C9.608 79.536 9.664 79.52 9.744 79.552C9.824 79.568 9.848 79.6 9.816 79.648C9.704 80.272 9.536 80.776 9.312 81.16C9.088 81.528 8.816 81.832 8.496 82.072C8.192 82.296 7.84 82.496 7.44 82.672C7.056 82.832 6.632 83.008 6.168 83.2C5.384 83.52 4.696 83.92 4.104 84.4C3.512 84.88 3.008 85.488 2.592 86.224C2.192 86.944 1.888 87.832 1.68 88.888C1.472 89.928 1.368 91.176 1.368 92.632L1.176 91.48C1.352 90.632 1.64 89.96 2.04 89.464C2.456 88.952 2.912 88.576 3.408 88.336C3.904 88.08 4.368 87.912 4.8 87.832C5.248 87.752 5.576 87.712 5.784 87.712C6.664 87.712 7.4 87.856 7.992 88.144C8.584 88.416 9.056 88.784 9.408 89.248C9.76 89.712 10.016 90.216 10.176 90.76C10.336 91.288 10.416 91.808 10.416 92.32C10.416 93.36 10.184 94.256 9.72 95.008C9.256 95.744 8.64 96.312 7.872 96.712C7.104 97.112 6.264 97.312 5.352 97.312ZM6.024 96.88C6.904 96.88 7.624 96.584 8.184 95.992C8.76 95.384 9.048 94.376 9.048 92.968C9.048 92.04 8.904 91.216 8.616 90.496C8.328 89.76 7.912 89.176 7.368 88.744C6.84 88.312 6.216 88.096 5.496 88.096C4.84 88.096 4.288 88.296 3.84 88.696C3.392 89.08 3.048 89.584 2.808 90.208C2.584 90.816 2.472 91.464 2.472 92.152C2.472 93.016 2.6 93.808 2.856 94.528C3.128 95.248 3.528 95.824 4.056 96.256C4.584 96.672 5.24 96.88 6.024 96.88ZM18.8089 97.144C18.7449 97.176 18.6809 97.192 18.6169 97.192C18.4249 97.192 18.2489 97.024 18.0889 96.688C17.9289 96.352 17.8489 95.864 17.8489 95.224V90.88C17.8489 90.096 17.7689 89.496 17.6089 89.08C17.4649 88.664 17.2649 88.384 17.0089 88.24C16.7689 88.08 16.5049 88 16.2169 88C15.7849 88 15.4329 88.112 15.1609 88.336C14.8889 88.56 14.6809 88.832 14.5369 89.152C14.4089 89.456 14.3209 89.744 14.2729 90.016C14.2569 90.176 14.2009 90.352 14.1049 90.544C14.0249 90.72 13.8249 90.808 13.5049 90.808C13.2969 90.808 13.1209 90.752 12.9769 90.64C12.8489 90.528 12.7849 90.368 12.7849 90.16C12.7849 89.888 12.9209 89.6 13.1929 89.296C13.4649 88.992 13.8089 88.704 14.2249 88.432C14.6569 88.16 15.1129 87.944 15.5929 87.784C16.0729 87.608 16.5209 87.52 16.9369 87.52C17.5289 87.52 18.0089 87.736 18.3769 88.168C18.7609 88.584 18.9529 89.248 18.9529 90.16V94.408C18.9529 94.984 19.0169 95.408 19.1449 95.68C19.2889 95.936 19.5289 96.064 19.8649 96.064C20.1689 96.064 20.6089 95.944 21.1849 95.704C21.2649 95.672 21.3209 95.704 21.3529 95.8C21.3849 95.88 21.3609 95.936 21.2809 95.968L18.8089 97.144ZM14.1769 97.168C13.6649 97.168 13.2809 97.032 13.0249 96.76C12.7849 96.472 12.6649 96.152 12.6649 95.8C12.6649 95.384 12.8329 95.048 13.1689 94.792C13.5049 94.52 14.0569 94.248 14.8249 93.976L18.0889 92.8L18.1369 93.04L15.0649 94.216C14.7129 94.344 14.4649 94.496 14.3209 94.672C14.1769 94.848 14.1049 95.072 14.1049 95.344C14.1049 95.68 14.2009 95.944 14.3929 96.136C14.6009 96.312 14.8569 96.4 15.1609 96.4C15.3369 96.4 15.4969 96.384 15.6409 96.352C15.8009 96.304 15.9449 96.248 16.0729 96.184L18.3049 95.056L18.3529 95.32L16.2649 96.448C15.7689 96.704 15.3689 96.888 15.0649 97C14.7769 97.112 14.4809 97.168 14.1769 97.168ZM24.2316 92.584V92.152H30.6876V92.584H24.2316ZM23.7036 95.056V89.68C23.7036 88.976 23.6076 88.528 23.4156 88.336C23.2396 88.128 22.8156 88.024 22.1436 88.024C22.0956 88.024 22.0716 87.976 22.0716 87.88C22.0716 87.784 22.0956 87.736 22.1436 87.736C22.4316 87.736 22.7596 87.744 23.1276 87.76C23.5116 87.776 23.9036 87.784 24.3036 87.784C24.6716 87.784 25.0396 87.776 25.4076 87.76C25.7916 87.744 26.1276 87.736 26.4156 87.736C26.4476 87.736 26.4636 87.784 26.4636 87.88C26.4636 87.976 26.4476 88.024 26.4156 88.024C25.7276 88.024 25.2876 88.136 25.0956 88.36C24.9196 88.584 24.8316 89.04 24.8316 89.728V95.056C24.8316 95.744 24.9196 96.192 25.0956 96.4C25.2876 96.608 25.7276 96.712 26.4156 96.712C26.4476 96.712 26.4636 96.76 26.4636 96.856C26.4636 96.952 26.4476 97 26.4156 97C26.1116 97 25.7756 96.992 25.4076 96.976C25.0396 96.96 24.6716 96.952 24.3036 96.952C23.9036 96.952 23.5116 96.96 23.1276 96.976C22.7596 96.992 22.4236 97 22.1196 97C22.0716 97 22.0476 96.952 22.0476 96.856C22.0476 96.76 22.0716 96.712 22.1196 96.712C22.8076 96.712 23.2396 96.608 23.4156 96.4C23.6076 96.192 23.7036 95.744 23.7036 95.056ZM30.1596 95.056V89.68C30.1596 88.976 30.0636 88.528 29.8716 88.336C29.6956 88.128 29.2716 88.024 28.5996 88.024C28.5516 88.024 28.5276 87.976 28.5276 87.88C28.5276 87.784 28.5516 87.736 28.5996 87.736C28.8876 87.736 29.2156 87.744 29.5836 87.76C29.9676 87.776 30.3596 87.784 30.7596 87.784C31.1276 87.784 31.4956 87.776 31.8636 87.76C32.2476 87.744 32.5836 87.736 32.8716 87.736C32.9036 87.736 32.9196 87.784 32.9196 87.88C32.9196 87.976 32.9036 88.024 32.8716 88.024C32.1836 88.024 31.7436 88.136 31.5516 88.36C31.3756 88.584 31.2876 89.04 31.2876 89.728V95.056C31.2876 95.744 31.3756 96.192 31.5516 96.4C31.7436 96.608 32.1836 96.712 32.8716 96.712C32.9036 96.712 32.9196 96.76 32.9196 96.856C32.9196 96.952 32.9036 97 32.8716 97C32.5676 97 32.2316 96.992 31.8636 96.976C31.4956 96.96 31.1276 96.952 30.7596 96.952C30.3596 96.952 29.9676 96.96 29.5836 96.976C29.1996 96.992 28.8636 97 28.5756 97C28.5276 97 28.5036 96.952 28.5036 96.856C28.5036 96.76 28.5276 96.712 28.5756 96.712C29.2476 96.712 29.6796 96.608 29.8716 96.4C30.0636 96.192 30.1596 95.744 30.1596 95.056ZM34.3774 97C34.3294 97 34.3054 96.952 34.3054 96.856C34.3054 96.76 34.3294 96.712 34.3774 96.712C35.0654 96.712 35.4974 96.608 35.6734 96.4C35.8654 96.192 35.9614 95.744 35.9614 95.056V89.68C35.9614 88.976 35.8654 88.528 35.6734 88.336C35.4974 88.128 35.0734 88.024 34.4014 88.024C34.3534 88.024 34.3294 87.976 34.3294 87.88C34.3294 87.784 34.3534 87.736 34.4014 87.736C34.6894 87.736 35.0174 87.744 35.3854 87.76C35.7694 87.776 36.1614 87.784 36.5614 87.784C36.9934 87.784 37.4174 87.776 37.8334 87.76C38.2494 87.744 38.6174 87.736 38.9374 87.736C38.9854 87.736 39.0094 87.784 39.0094 87.88C39.0094 87.976 38.9854 88.024 38.9374 88.024C38.1534 88.024 37.6494 88.136 37.4254 88.36C37.2014 88.584 37.0894 89.04 37.0894 89.728V95.056C37.0894 95.744 37.1774 96.192 37.3534 96.4C37.5454 96.608 37.9854 96.712 38.6734 96.712C38.7054 96.712 38.7214 96.76 38.7214 96.856C38.7214 96.952 38.7054 97 38.6734 97C38.3694 97 38.0334 96.992 37.6654 96.976C37.2974 96.96 36.9294 96.952 36.5614 96.952C36.1614 96.952 35.7694 96.96 35.3854 96.976C35.0174 96.992 34.6814 97 34.3774 97ZM41.9374 97C41.8734 97 41.8254 96.992 41.7934 96.976C41.7614 96.944 41.7134 96.864 41.6494 96.736C41.5854 96.592 41.4654 96.368 41.2894 96.064C41.1294 95.744 40.8734 95.288 40.5214 94.696C40.1374 94.056 39.8014 93.576 39.5134 93.256C39.2414 92.92 38.9534 92.696 38.6494 92.584C38.3614 92.456 38.0014 92.392 37.5694 92.392C37.2814 92.392 36.9214 92.416 36.4894 92.464L36.4654 92.032C36.7854 92.016 37.0734 92.008 37.3294 92.008C37.6014 91.992 37.8414 91.976 38.0494 91.96C38.2734 91.944 38.4814 91.936 38.6734 91.936C39.1694 91.936 39.5614 92 39.8494 92.128C40.1534 92.24 40.4334 92.456 40.6894 92.776C40.9614 93.096 41.2974 93.576 41.6974 94.216C42.0494 94.76 42.3454 95.216 42.5854 95.584C42.8254 95.936 43.0894 96.208 43.3774 96.4C43.6654 96.592 44.0494 96.696 44.5294 96.712C44.5614 96.712 44.5774 96.76 44.5774 96.856C44.5774 96.952 44.5614 97 44.5294 97H41.9374ZM38.6734 92.32V91.936C38.8494 91.936 39.0094 91.888 39.1534 91.792C39.2974 91.696 39.4254 91.568 39.5374 91.408C39.6654 91.232 39.7854 91.04 39.8974 90.832C40.2494 90.176 40.5454 89.6 40.7854 89.104C41.0414 88.608 41.3054 88.224 41.5774 87.952C41.8654 87.664 42.2254 87.52 42.6574 87.52C42.9934 87.52 43.2414 87.6 43.4014 87.76C43.5774 87.92 43.6654 88.096 43.6654 88.288C43.6654 88.496 43.5854 88.688 43.4254 88.864C43.2654 89.024 43.0494 89.104 42.7774 89.104C42.6334 89.104 42.5134 89.08 42.4174 89.032C42.3214 88.968 42.2334 88.912 42.1534 88.864C42.0734 88.816 41.9854 88.792 41.8894 88.792C41.7614 88.792 41.5934 88.912 41.3854 89.152C41.1934 89.392 40.9934 89.68 40.7854 90.016C40.5774 90.352 40.3934 90.656 40.2334 90.928C40.0254 91.312 39.7934 91.64 39.5374 91.912C39.2974 92.184 39.0094 92.32 38.6734 92.32ZM49.4368 97.288C48.4608 97.288 47.6448 97.072 46.9888 96.64C46.3328 96.192 45.8368 95.616 45.5008 94.912C45.1808 94.208 45.0208 93.464 45.0208 92.68C45.0208 91.704 45.2448 90.832 45.6928 90.064C46.1408 89.28 46.7488 88.664 47.5168 88.216C48.2848 87.752 49.1488 87.52 50.1088 87.52C50.9568 87.52 51.6048 87.736 52.0528 88.168C52.5168 88.584 52.7488 89.16 52.7488 89.896C52.7488 90.072 52.7328 90.208 52.7008 90.304C52.6688 90.384 52.5888 90.424 52.4608 90.424H51.2848C51.3648 89.624 51.2128 89.024 50.8288 88.624C50.4608 88.208 49.9488 88 49.2928 88C48.3488 88 47.6288 88.336 47.1328 89.008C46.6368 89.68 46.3888 90.6 46.3888 91.768C46.3888 92.68 46.5328 93.496 46.8208 94.216C47.1248 94.92 47.5648 95.48 48.1408 95.896C48.7168 96.312 49.4048 96.52 50.2048 96.52C50.6208 96.52 51.0448 96.456 51.4768 96.328C51.9088 96.2 52.3168 95.992 52.7008 95.704C52.7328 95.672 52.7728 95.696 52.8208 95.776C52.8848 95.84 52.9008 95.896 52.8688 95.944C52.3088 96.424 51.7408 96.768 51.1648 96.976C50.6048 97.184 50.0288 97.288 49.4368 97.288ZM46.0768 90.448L46.0528 90.184L51.5728 90.064V90.424L46.0768 90.448ZM56.7874 97C56.7554 97 56.7394 96.952 56.7394 96.856C56.7394 96.76 56.7554 96.712 56.7874 96.712C57.4754 96.712 57.9154 96.608 58.1074 96.4C58.2994 96.192 58.3954 95.744 58.3954 95.056V89.728C58.3954 89.056 58.3154 88.608 58.1554 88.384C57.9954 88.16 57.6354 88.048 57.0754 88.048C56.4514 88.048 55.9474 88.24 55.5634 88.624C55.1954 88.992 55.0114 89.744 55.0114 90.88C55.0114 90.912 54.9634 90.928 54.8674 90.928C54.7714 90.928 54.7234 90.912 54.7234 90.88C54.7234 90.656 54.7234 90.32 54.7234 89.872C54.7234 89.408 54.7154 88.936 54.6994 88.456C54.6994 87.976 54.6994 87.584 54.6994 87.28C54.6994 87.2 54.7474 87.16 54.8434 87.16C54.9394 87.16 54.9874 87.2 54.9874 87.28C54.9874 87.504 55.3634 87.64 56.1154 87.688C56.8834 87.736 57.8274 87.76 58.9474 87.76C59.6994 87.76 60.3714 87.752 60.9634 87.736C61.5714 87.72 62.0514 87.68 62.4034 87.616C62.7554 87.536 62.9314 87.424 62.9314 87.28C62.9314 87.2 62.9794 87.16 63.0754 87.16C63.1714 87.16 63.2194 87.2 63.2194 87.28C63.2194 87.584 63.2194 87.976 63.2194 88.456C63.2194 88.936 63.2114 89.408 63.1954 89.872C63.1954 90.32 63.1954 90.656 63.1954 90.88C63.1954 90.912 63.1474 90.928 63.0514 90.928C62.9554 90.928 62.9074 90.912 62.9074 90.88C62.9074 89.744 62.7074 88.992 62.3074 88.624C61.9074 88.24 61.3954 88.048 60.7714 88.048C60.2274 88.048 59.8834 88.16 59.7394 88.384C59.5954 88.608 59.5234 89.056 59.5234 89.728V95.056C59.5234 95.744 59.6114 96.192 59.7874 96.4C59.9794 96.608 60.4114 96.712 61.0834 96.712C61.1314 96.712 61.1554 96.76 61.1554 96.856C61.1554 96.952 61.1314 97 61.0834 97C60.7954 97 60.4674 96.992 60.0994 96.976C59.7314 96.96 59.3554 96.952 58.9714 96.952C58.5874 96.952 58.2034 96.96 57.8194 96.976C57.4514 96.992 57.1074 97 56.7874 97Z" fill="#282828"/>
<path d="M3.52 59C3.392 59 3.328 58.872 3.328 58.616C3.328 58.36 3.392 58.232 3.52 58.232C5.26933 58.232 6.592 58.1253 7.488 57.912C8.42667 57.6987 9.04533 57.272 9.344 56.632C9.64267 55.992 9.792 55.0533 9.792 53.816V41.912C9.792 40.2053 9.664 39.0107 9.408 38.328C9.152 37.6453 8.55467 37.3893 7.616 37.56C6.72 37.688 5.33333 38.2 3.456 39.096C3.28533 39.1387 3.136 39.0533 3.008 38.84C2.92267 38.584 2.96533 38.4347 3.136 38.392L12.8 33.72C12.9707 33.6347 13.12 33.656 13.248 33.784C13.376 33.912 13.44 34.04 13.44 34.168V53.816C13.44 55.0533 13.568 55.992 13.824 56.632C14.1227 57.272 14.72 57.6987 15.616 57.912C16.512 58.1253 17.856 58.232 19.648 58.232C19.776 58.232 19.84 58.36 19.84 58.616C19.84 58.872 19.776 59 19.648 59C18.5813 59 17.3653 58.9787 16 58.936C14.6347 58.8933 13.1627 58.872 11.584 58.872C10.0907 58.872 8.64 58.8933 7.232 58.936C5.86667 58.9787 4.62933 59 3.52 59ZM31.682 72.952C31.5113 73.3787 31.3193 73.6987 31.106 73.912C30.8927 74.1253 30.6367 74.3173 30.338 74.488L27.138 76.6C27.0527 76.6427 26.946 76.6 26.818 76.472C26.69 76.344 26.6473 76.2373 26.69 76.152L43.714 37.944C43.842 37.6453 43.7353 37.496 43.394 37.496C39.81 37.496 36.8447 37.5173 34.498 37.56C32.1513 37.6027 30.2953 37.7093 28.93 37.88C27.5647 38.0507 26.5193 38.3067 25.794 38.648C25.1113 38.9467 24.5993 39.352 24.258 39.864C23.9593 40.376 23.7033 41.0373 23.49 41.848C23.4473 41.976 23.298 42.0187 23.042 41.976C22.786 41.9333 22.6793 41.8267 22.722 41.656L24.962 32.568C25.0473 32.4827 25.1967 32.4613 25.41 32.504C25.666 32.504 25.7727 32.5467 25.73 32.632C25.5593 33.3573 25.666 33.8267 26.05 34.04C26.434 34.2107 27.33 34.296 28.738 34.296C29.378 34.296 30.3593 34.296 31.682 34.296C33.0047 34.296 34.498 34.296 36.162 34.296C37.826 34.296 39.49 34.296 41.154 34.296C42.8607 34.296 44.3753 34.296 45.698 34.296C45.9113 34.296 46.082 34.4027 46.21 34.616C46.338 34.7867 46.3593 34.9573 46.274 35.128L31.682 72.952ZM55.0235 59.704C54.1702 59.704 53.4875 59.4693 52.9755 59C52.4635 58.488 52.2075 57.8053 52.2075 56.952C52.2075 56.1413 52.4635 55.5013 52.9755 55.032C53.4875 54.52 54.1702 54.264 55.0235 54.264C55.9195 54.264 56.6022 54.52 57.0715 55.032C57.5408 55.5013 57.7755 56.1413 57.7755 56.952C57.7755 57.8053 57.5408 58.488 57.0715 59C56.6022 59.4693 55.9195 59.704 55.0235 59.704ZM55.0235 41.72C54.1702 41.72 53.4875 41.4853 52.9755 41.016C52.4635 40.504 52.2075 39.8213 52.2075 38.968C52.2075 38.1573 52.4635 37.5173 52.9755 37.048C53.4875 36.536 54.1702 36.28 55.0235 36.28C55.9195 36.28 56.6022 36.536 57.0715 37.048C57.5408 37.5173 57.7755 38.1573 57.7755 38.968C57.7755 39.8213 57.5408 40.504 57.0715 41.016C56.6022 41.4853 55.9195 41.72 55.0235 41.72ZM76.6725 59.832C74.1125 59.832 71.8298 59.256 69.8245 58.104C67.8618 56.952 66.3258 55.3733 65.2165 53.368C64.1072 51.3627 63.5525 49.0587 63.5525 46.456C63.5525 43.896 64.1072 41.656 65.2165 39.736C66.3258 37.7733 67.8832 36.2373 69.8885 35.128C71.8938 34.0187 74.1765 33.464 76.7365 33.464C79.2965 33.464 81.5365 34.04 83.4565 35.192C85.3765 36.3013 86.8698 37.8587 87.9365 39.864C89.0458 41.8267 89.6005 44.088 89.6005 46.648C89.6005 49.208 89.0458 51.4907 87.9365 53.496C86.8698 55.4587 85.3552 57.016 83.3925 58.168C81.4725 59.2773 79.2325 59.832 76.6725 59.832ZM77.3765 58.936C80.0218 58.936 81.9845 57.8693 83.2645 55.736C84.5445 53.6027 85.1845 50.8293 85.1845 47.416C85.1845 44.3867 84.7578 41.912 83.9045 39.992C83.0512 38.072 81.9205 36.664 80.5125 35.768C79.1472 34.8293 77.6538 34.36 76.0325 34.36C73.4725 34.36 71.4672 35.448 70.0165 37.624C68.6085 39.8 67.9045 42.5733 67.9045 45.944C67.9045 48.4187 68.2885 50.6373 69.0565 52.6C69.8672 54.5627 70.9765 56.12 72.3845 57.272C73.7925 58.3813 75.4565 58.936 77.3765 58.936ZM107.173 59.832C104.613 59.832 102.33 59.256 100.325 58.104C98.3618 56.952 96.8258 55.3733 95.7165 53.368C94.6072 51.3627 94.0525 49.0587 94.0525 46.456C94.0525 43.896 94.6072 41.656 95.7165 39.736C96.8258 37.7733 98.3832 36.2373 100.389 35.128C102.394 34.0187 104.677 33.464 107.237 33.464C109.797 33.464 112.037 34.04 113.957 35.192C115.877 36.3013 117.37 37.8587 118.437 39.864C119.546 41.8267 120.101 44.088 120.101 46.648C120.101 49.208 119.546 51.4907 118.437 53.496C117.37 55.4587 115.855 57.016 113.893 58.168C111.973 59.2773 109.733 59.832 107.173 59.832ZM107.877 58.936C110.522 58.936 112.485 57.8693 113.765 55.736C115.045 53.6027 115.685 50.8293 115.685 47.416C115.685 44.3867 115.258 41.912 114.405 39.992C113.551 38.072 112.421 36.664 111.013 35.768C109.647 34.8293 108.154 34.36 106.533 34.36C103.973 34.36 101.967 35.448 100.517 37.624C99.1085 39.8 98.4045 42.5733 98.4045 45.944C98.4045 48.4187 98.7885 50.6373 99.5565 52.6C100.367 54.5627 101.477 56.12 102.885 57.272C104.293 58.3813 105.957 58.936 107.877 58.936Z" fill="#282828"/>
</svg>
