<svg width="95" height="79" viewBox="0 0 95 79" fill="none" xmlns="http://www.w3.org/2000/svg">
<path d="M32.76 30C32.696 30 32.664 29.936 32.664 29.808C32.664 29.68 32.696 29.616 32.76 29.616C33.6347 29.616 34.296 29.5627 34.744 29.456C35.2133 29.3493 35.5227 29.136 35.672 28.816C35.8213 28.496 35.896 28.0267 35.896 27.408V21.456C35.896 20.6027 35.832 20.0053 35.704 19.664C35.576 19.3227 35.2773 19.1947 34.808 19.28C34.36 19.344 33.6667 19.6 32.728 20.048C32.6427 20.0693 32.568 20.0267 32.504 19.92C32.4613 19.792 32.4827 19.7173 32.568 19.696L37.4 17.36C37.4853 17.3173 37.56 17.328 37.624 17.392C37.688 17.456 37.72 17.52 37.72 17.584V27.408C37.72 28.0267 37.784 28.496 37.912 28.816C38.0613 29.136 38.36 29.3493 38.808 29.456C39.256 29.5627 39.928 29.616 40.824 29.616C40.888 29.616 40.92 29.68 40.92 29.808C40.92 29.936 40.888 30 40.824 30C40.2907 30 39.6827 29.9893 39 29.968C38.3173 29.9467 37.5813 29.936 36.792 29.936C36.0453 29.936 35.32 29.9467 34.616 29.968C33.9333 29.9893 33.3147 30 32.76 30ZM51.193 20.944C52.217 20.944 53.0277 21.136 53.625 21.52C54.2437 21.904 54.6917 22.4053 54.969 23.024C55.2463 23.6213 55.385 24.2507 55.385 24.912C55.385 25.9147 55.097 26.8427 54.521 27.696C53.945 28.528 53.177 29.1893 52.217 29.68C51.257 30.1707 50.1797 30.416 48.985 30.416C47.193 30.416 45.7637 29.808 44.697 28.592C43.6517 27.3547 43.129 25.6053 43.129 23.344C43.129 21.36 43.5663 19.4187 44.441 17.52C45.337 15.6 46.6277 13.8827 48.313 12.368C50.0197 10.832 52.057 9.65867 54.425 8.848C54.5103 8.82667 54.5743 8.86933 54.617 8.976C54.6597 9.08267 54.649 9.15733 54.585 9.2C52.4943 10.1387 50.745 11.3653 49.337 12.88C47.9503 14.3733 46.905 15.984 46.201 17.712C45.5183 19.44 45.177 21.136 45.177 22.8C45.177 24.08 45.3583 25.2533 45.721 26.32C46.105 27.3653 46.6383 28.208 47.321 28.848C48.025 29.488 48.8783 29.808 49.881 29.808C50.905 29.808 51.737 29.456 52.377 28.752C53.017 28.0267 53.337 27.0347 53.337 25.776C53.337 24.6667 53.0703 23.7387 52.537 22.992C52.025 22.224 51.2143 21.84 50.105 21.84C49.529 21.84 48.9957 21.9573 48.505 22.192C48.0357 22.4267 47.5023 22.8107 46.905 23.344C46.8623 23.408 46.7877 23.408 46.681 23.344C46.5743 23.2587 46.5423 23.184 46.585 23.12C47.1397 22.416 47.801 21.8827 48.569 21.52C49.3583 21.136 50.233 20.944 51.193 20.944ZM59.668 30.352C59.2413 30.352 58.9 30.2347 58.644 30C58.388 29.744 58.26 29.4027 58.26 28.976C58.26 28.5707 58.388 28.2507 58.644 28.016C58.9 27.76 59.2413 27.632 59.668 27.632C60.116 27.632 60.4573 27.76 60.692 28.016C60.9267 28.2507 61.044 28.5707 61.044 28.976C61.044 29.4027 60.9267 29.744 60.692 30C60.4573 30.2347 60.116 30.352 59.668 30.352ZM59.668 21.36C59.2413 21.36 58.9 21.2427 58.644 21.008C58.388 20.752 58.26 20.4107 58.26 19.984C58.26 19.5787 58.388 19.2587 58.644 19.024C58.9 18.768 59.2413 18.64 59.668 18.64C60.116 18.64 60.4573 18.768 60.692 19.024C60.9267 19.2587 61.044 19.5787 61.044 19.984C61.044 20.4107 60.9267 20.752 60.692 21.008C60.4573 21.2427 60.116 21.36 59.668 21.36ZM64.7005 38.8C64.6152 38.8213 64.5405 38.768 64.4765 38.64C64.4338 38.5333 64.4552 38.4693 64.5405 38.448C65.9485 38 67.1112 37.4667 68.0285 36.848C68.9458 36.2293 69.6712 35.5573 70.2045 34.832C70.7592 34.1067 71.1432 33.3813 71.3565 32.656C71.5698 31.952 71.6765 31.28 71.6765 30.64C71.6765 29.9573 71.5592 29.3067 71.3245 28.688C71.0898 28.048 70.7058 27.536 70.1725 27.152C69.6605 26.7467 68.9672 26.544 68.0925 26.544C67.8365 26.544 67.5805 26.5547 67.3245 26.576C67.0685 26.5973 66.8018 26.6507 66.5245 26.736C66.4605 26.7573 66.4072 26.704 66.3645 26.576C66.3218 26.448 66.3325 26.3733 66.3965 26.352C68.1032 25.904 69.2872 25.296 69.9485 24.528C70.6312 23.76 70.9725 22.7253 70.9725 21.424C70.9725 20.3787 70.7485 19.536 70.3005 18.896C69.8738 18.256 69.1698 17.936 68.1885 17.936C67.2712 17.936 66.4818 18.2347 65.8205 18.832C65.1592 19.4293 64.6365 20.4 64.2525 21.744C64.2312 21.7867 64.1565 21.7973 64.0285 21.776C63.9005 21.7547 63.8472 21.712 63.8685 21.648L65.0525 16.976C65.0952 16.912 65.1698 16.9013 65.2765 16.944C65.4045 16.9653 65.4578 16.9973 65.4365 17.04C65.3512 17.4027 65.3725 17.648 65.5005 17.776C65.6285 17.8827 65.7672 17.936 65.9165 17.936C66.2365 17.936 66.6738 17.8187 67.2285 17.584C67.7832 17.3493 68.4552 17.232 69.2445 17.232C70.4818 17.232 71.4205 17.6053 72.0605 18.352C72.7005 19.0987 73.0205 19.9413 73.0205 20.88C73.0205 21.6693 72.8392 22.4373 72.4765 23.184C72.1138 23.9093 71.5912 24.5493 70.9085 25.104C70.2258 25.6373 69.4045 26 68.4445 26.192L68.9245 25.776C70.0765 25.7973 71.0258 26.0213 71.7725 26.448C72.5192 26.8747 73.0738 27.4293 73.4365 28.112C73.7992 28.7947 73.9805 29.52 73.9805 30.288C73.9805 31.2693 73.6498 32.304 72.9885 33.392C72.3485 34.5013 71.3352 35.5253 69.9485 36.464C68.5832 37.424 66.8338 38.2027 64.7005 38.8ZM82.93 30.416C81.65 30.416 80.5087 30.128 79.506 29.552C78.5247 28.976 77.7567 28.1867 77.202 27.184C76.6473 26.1813 76.37 25.0293 76.37 23.728C76.37 22.448 76.6473 21.328 77.202 20.368C77.7567 19.3867 78.5353 18.6187 79.538 18.064C80.5407 17.5093 81.682 17.232 82.962 17.232C84.242 17.232 85.362 17.52 86.322 18.096C87.282 18.6507 88.0287 19.4293 88.562 20.432C89.1167 21.4133 89.394 22.544 89.394 23.824C89.394 25.104 89.1167 26.2453 88.562 27.248C88.0287 28.2293 87.2713 29.008 86.29 29.584C85.33 30.1387 84.21 30.416 82.93 30.416ZM83.282 29.968C84.6047 29.968 85.586 29.4347 86.226 28.368C86.866 27.3013 87.186 25.9147 87.186 24.208C87.186 22.6933 86.9727 21.456 86.546 20.496C86.1193 19.536 85.554 18.832 84.85 18.384C84.1673 17.9147 83.4207 17.68 82.61 17.68C81.33 17.68 80.3273 18.224 79.602 19.312C78.898 20.4 78.546 21.7867 78.546 23.472C78.546 24.7093 78.738 25.8187 79.122 26.8C79.5273 27.7813 80.082 28.56 80.786 29.136C81.49 29.6907 82.322 29.968 83.282 29.968Z" fill="#282828"/>
<path d="M24.5498 41.3C24.8965 41.3 25.2565 41.2933 25.6298 41.28C26.0032 41.2533 26.3832 41.24 26.7698 41.24C27.5165 41.24 28.0898 41.3667 28.4898 41.62C28.8898 41.8733 29.0898 42.2533 29.0898 42.76C29.0898 43.48 28.5832 44.2 27.5698 44.92L27.3098 44.82C27.5365 44.6333 27.7098 44.4133 27.8298 44.16C27.9498 43.9067 28.0098 43.5867 28.0098 43.2C28.0098 42.6 27.8565 42.1667 27.5498 41.9C27.2565 41.6333 26.8232 41.5 26.2498 41.5C25.7565 41.5 25.4232 41.5867 25.2498 41.76C25.0765 41.92 24.9898 42.3133 24.9898 42.94V47.38C24.9898 47.86 25.0965 48.2067 25.3098 48.42C25.5365 48.6333 25.9965 48.74 26.6898 48.74C27.4232 48.74 27.9565 48.5933 28.2898 48.3C28.6365 47.9933 28.8098 47.5667 28.8098 47.02C28.8098 46.4333 28.6298 45.96 28.2698 45.6C27.9098 45.2267 27.3098 45.04 26.4698 45.04H24.6298L24.6098 44.72H27.1698C29.0098 44.72 29.9298 45.3333 29.9298 46.56C29.9298 47.28 29.6565 47.8733 29.1098 48.34C28.5632 48.8067 27.8765 49.04 27.0498 49.04C26.7298 49.04 26.3232 49.0267 25.8298 49C25.3498 48.9733 24.9232 48.96 24.5498 48.96C24.2165 48.96 23.8898 48.9667 23.5698 48.98C23.2632 48.9933 22.9832 49 22.7298 49C22.6898 49 22.6698 48.96 22.6698 48.88C22.6698 48.8 22.6898 48.76 22.7298 48.76C23.3032 48.76 23.6632 48.6733 23.8098 48.5C23.9698 48.3267 24.0498 47.9533 24.0498 47.38V42.9C24.0498 42.3133 23.9698 41.94 23.8098 41.78C23.6632 41.6067 23.3098 41.52 22.7498 41.52C22.7098 41.52 22.6898 41.48 22.6898 41.4C22.6898 41.32 22.7098 41.28 22.7498 41.28C22.9898 41.28 23.2632 41.2867 23.5698 41.3C23.8898 41.3 24.2165 41.3 24.5498 41.3ZM38.9622 49C38.9222 49 38.9022 48.96 38.9022 48.88C38.9022 48.8 38.9222 48.76 38.9622 48.76C39.5355 48.76 39.8955 48.6733 40.0422 48.5C40.2022 48.3267 40.2822 47.9533 40.2822 47.38V42.9C40.2822 42.3133 40.2022 41.94 40.0422 41.78C39.8955 41.6067 39.5422 41.52 38.9822 41.52C38.9422 41.52 38.9222 41.48 38.9222 41.4C38.9222 41.32 38.9422 41.28 38.9822 41.28C39.2222 41.28 39.4955 41.2867 39.8022 41.3C40.1222 41.3133 40.4489 41.32 40.7822 41.32C41.0889 41.32 41.3955 41.3133 41.7022 41.3C42.0222 41.2867 42.2955 41.28 42.5222 41.28C42.5622 41.28 42.5822 41.32 42.5822 41.4C42.5822 41.48 42.5622 41.52 42.5222 41.52C41.9622 41.52 41.6022 41.6133 41.4422 41.8C41.2955 41.9867 41.2222 42.3667 41.2222 42.94V47.38C41.2222 47.9533 41.2955 48.3267 41.4422 48.5C41.6022 48.6733 41.9622 48.76 42.5222 48.76C42.5622 48.76 42.5822 48.8 42.5822 48.88C42.5822 48.96 42.5622 49 42.5222 49C42.2822 49 42.0089 48.9933 41.7022 48.98C41.3955 48.9667 41.0889 48.96 40.7822 48.96C40.4489 48.96 40.1222 48.9667 39.8022 48.98C39.4955 48.9933 39.2155 49 38.9622 49ZM33.6422 42.94V47.38C33.6422 47.86 33.7489 48.2067 33.9622 48.42C34.1889 48.6333 34.6489 48.74 35.3422 48.74C35.9955 48.74 36.4755 48.5933 36.7822 48.3C37.1022 47.9933 37.2622 47.5667 37.2622 47.02C37.2622 46.3667 37.0955 45.84 36.7622 45.44C36.4289 45.0267 35.8822 44.82 35.1222 44.82C34.8155 44.82 34.5222 44.8467 34.2422 44.9C33.9755 44.94 33.6889 45.0333 33.3822 45.18L33.2622 44.96C33.6889 44.7733 34.1155 44.6467 34.5422 44.58C34.9822 44.5133 35.4089 44.48 35.8222 44.48C37.5022 44.48 38.3422 45.1733 38.3422 46.56C38.3422 47.28 38.0889 47.8733 37.5822 48.34C37.0889 48.8067 36.4622 49.04 35.7022 49.04C35.4889 49.04 35.2355 49.0333 34.9422 49.02C34.6489 49.0067 34.3489 48.9933 34.0422 48.98C33.7355 48.9667 33.4555 48.96 33.2022 48.96C32.8689 48.96 32.5422 48.9667 32.2222 48.98C31.9155 48.9933 31.6355 49 31.3822 49C31.3422 49 31.3222 48.96 31.3222 48.88C31.3222 48.8 31.3422 48.76 31.3822 48.76C31.9555 48.76 32.3155 48.6733 32.4622 48.5C32.6222 48.3267 32.7022 47.9533 32.7022 47.38V42.9C32.7022 42.3133 32.6222 41.94 32.4622 41.78C32.3155 41.6067 31.9622 41.52 31.4022 41.52C31.3622 41.52 31.3422 41.48 31.3422 41.4C31.3422 41.32 31.3622 41.28 31.4022 41.28C31.6422 41.28 31.9155 41.2867 32.2222 41.3C32.5422 41.3133 32.8689 41.32 33.2022 41.32C33.5622 41.32 33.9155 41.3133 34.2622 41.3C34.6089 41.2867 34.9155 41.28 35.1822 41.28C35.2222 41.28 35.2422 41.32 35.2422 41.4C35.2422 41.48 35.2222 41.52 35.1822 41.52C34.5289 41.52 34.1089 41.6133 33.9222 41.8C33.7355 41.9867 33.6422 42.3667 33.6422 42.94ZM47.5841 49.24C46.7707 49.24 46.0907 49.06 45.5441 48.7C44.9974 48.3267 44.5841 47.8467 44.3041 47.26C44.0374 46.6733 43.9041 46.0533 43.9041 45.4C43.9041 44.5867 44.0907 43.86 44.4641 43.22C44.8374 42.5667 45.3441 42.0533 45.9841 41.68C46.6241 41.2933 47.3441 41.1 48.1441 41.1C48.8507 41.1 49.3907 41.28 49.7641 41.64C50.1507 41.9867 50.3441 42.4667 50.3441 43.08C50.3441 43.2267 50.3307 43.34 50.3041 43.42C50.2774 43.4867 50.2107 43.52 50.1041 43.52H49.1241C49.1907 42.8533 49.0641 42.3533 48.7441 42.02C48.4374 41.6733 48.0107 41.5 47.4641 41.5C46.6774 41.5 46.0774 41.78 45.6641 42.34C45.2507 42.9 45.0441 43.6667 45.0441 44.64C45.0441 45.4 45.1641 46.08 45.4041 46.68C45.6574 47.2667 46.0241 47.7333 46.5041 48.08C46.9841 48.4267 47.5574 48.6 48.2241 48.6C48.5707 48.6 48.9241 48.5467 49.2841 48.44C49.6441 48.3333 49.9841 48.16 50.3041 47.92C50.3307 47.8933 50.3641 47.9133 50.4041 47.98C50.4574 48.0333 50.4707 48.08 50.4441 48.12C49.9774 48.52 49.5041 48.8067 49.0241 48.98C48.5574 49.1533 48.0774 49.24 47.5841 49.24ZM44.7841 43.54L44.7641 43.32L49.3641 43.22V43.52L44.7841 43.54ZM54.7123 48.98C55.339 48.98 55.7923 48.8 56.0723 48.44C56.3523 48.0667 56.4923 47.6133 56.4923 47.08C56.4923 46.4533 56.299 45.9333 55.9123 45.52C55.539 45.1067 54.899 44.9 53.9923 44.9C53.939 44.9 53.9057 44.8667 53.8923 44.8C53.8923 44.72 53.9257 44.68 53.9923 44.68C54.819 44.68 55.3923 44.54 55.7123 44.26C56.0457 43.98 56.2123 43.6133 56.2123 43.16C56.2123 42.5733 56.079 42.14 55.8123 41.86C55.5457 41.5667 55.139 41.42 54.5923 41.42C53.979 41.42 53.5123 41.5867 53.1923 41.92C52.8723 42.24 52.6057 42.7133 52.3923 43.34C52.379 43.3667 52.3323 43.3733 52.2523 43.36C52.1723 43.3467 52.139 43.3267 52.1523 43.3L52.6723 40.86C52.6857 40.82 52.7323 40.8133 52.8123 40.84C52.8923 40.8533 52.9257 40.8733 52.9123 40.9C52.8723 41.1 52.8857 41.24 52.9523 41.32C53.0323 41.3867 53.119 41.42 53.2123 41.42C53.3457 41.42 53.4923 41.3867 53.6523 41.32C53.8257 41.2533 54.0323 41.1867 54.2723 41.12C54.5123 41.0533 54.799 41.02 55.1323 41.02C55.8523 41.02 56.3857 41.2 56.7323 41.56C57.0923 41.9067 57.2723 42.3 57.2723 42.74C57.2723 43.2333 57.059 43.68 56.6323 44.08C56.2057 44.4667 55.6257 44.72 54.8923 44.84L54.9323 44.68C55.5457 44.64 56.0523 44.72 56.4523 44.92C56.8523 45.12 57.1523 45.4 57.3523 45.76C57.5523 46.1067 57.6523 46.48 57.6523 46.88C57.6523 47.3733 57.5123 47.8 57.2323 48.16C56.9657 48.5067 56.599 48.7733 56.1323 48.96C55.6657 49.1467 55.1523 49.24 54.5923 49.24C54.1657 49.24 53.7523 49.1867 53.3523 49.08C52.9523 48.9867 52.619 48.8733 52.3523 48.74C52.259 48.6867 52.199 48.64 52.1723 48.6C52.1457 48.56 52.1257 48.4933 52.1123 48.4L51.9523 46.78C51.9523 46.74 51.9857 46.7133 52.0523 46.7C52.119 46.6867 52.159 46.7067 52.1723 46.76C52.359 47.4533 52.6723 48 53.1123 48.4C53.5657 48.7867 54.099 48.98 54.7123 48.98ZM58.938 51.58C58.938 51.0067 58.9313 50.54 58.918 50.18C58.9046 49.82 58.8846 49.5333 58.858 49.32C58.8446 49.1067 58.838 48.9467 58.838 48.84C58.838 48.72 58.8913 48.6467 58.998 48.62C59.1046 48.58 59.1913 48.56 59.258 48.56C59.858 48.56 60.3913 48.1267 60.858 47.26C61.3246 46.3933 61.7046 45.0533 61.998 43.24C62.078 42.76 62.078 42.3933 61.998 42.14C61.9313 41.8733 61.7846 41.6933 61.558 41.6C61.3313 41.5067 61.038 41.46 60.678 41.46C60.6513 41.46 60.638 41.4267 60.638 41.36C60.638 41.28 60.6513 41.24 60.678 41.24C60.798 41.24 61.0046 41.2467 61.298 41.26C61.6046 41.26 61.9313 41.26 62.278 41.26C62.6246 41.26 62.9446 41.2667 63.238 41.28C63.5313 41.28 63.7246 41.28 63.818 41.28H67.378C67.4046 41.28 67.418 41.32 67.418 41.4C67.418 41.48 67.4046 41.52 67.378 41.52C66.938 41.52 66.6046 41.56 66.378 41.64C66.1646 41.72 66.018 41.86 65.938 42.06C65.8713 42.26 65.838 42.5533 65.838 42.94V47.38C65.838 47.78 65.878 48.0667 65.958 48.24C66.0513 48.4 66.198 48.5 66.398 48.54C66.598 48.58 66.8646 48.6 67.198 48.6C67.2913 48.6 67.3446 48.6133 67.358 48.64C67.3713 48.6533 67.378 48.72 67.378 48.84C67.378 48.9467 67.3713 49.1067 67.358 49.32C67.3446 49.5333 67.3246 49.82 67.298 50.18C67.2846 50.54 67.278 51.0067 67.278 51.58C67.278 51.6333 67.238 51.66 67.158 51.66C67.0913 51.66 67.058 51.6333 67.058 51.58C67.058 50.6867 66.9646 50.0333 66.778 49.62C66.5913 49.2067 66.2046 49 65.618 49H60.898C60.3646 49 59.938 49.2067 59.618 49.62C59.3113 50.0333 59.158 50.6867 59.158 51.58C59.158 51.6333 59.118 51.66 59.038 51.66C58.9713 51.66 58.938 51.6333 58.938 51.58ZM59.778 48.98V48.58H62.838C63.478 48.58 63.938 48.5667 64.218 48.54C64.5113 48.5 64.698 48.3933 64.778 48.22C64.858 48.0467 64.898 47.7667 64.898 47.38V42.9C64.898 42.4867 64.8846 42.2 64.858 42.04C64.8313 41.8667 64.7446 41.76 64.598 41.72C64.4513 41.68 64.198 41.66 63.838 41.66H63.678C63.398 41.66 63.178 41.7067 63.018 41.8C62.8713 41.88 62.758 42.0067 62.678 42.18C62.6113 42.3533 62.5513 42.5733 62.498 42.84C62.3113 43.9067 62.1246 44.8 61.938 45.52C61.7513 46.24 61.5513 46.8267 61.338 47.28C61.138 47.72 60.9113 48.0733 60.658 48.34C60.4046 48.6067 60.1113 48.82 59.778 48.98ZM70.4469 45.32V44.96H75.8269V45.32H70.4469ZM70.0069 47.38V42.9C70.0069 42.3133 69.9269 41.94 69.7669 41.78C69.6202 41.6067 69.2669 41.52 68.7069 41.52C68.6669 41.52 68.6469 41.48 68.6469 41.4C68.6469 41.32 68.6669 41.28 68.7069 41.28C68.9469 41.28 69.2202 41.2867 69.5269 41.3C69.8469 41.3133 70.1735 41.32 70.5069 41.32C70.8135 41.32 71.1202 41.3133 71.4269 41.3C71.7469 41.2867 72.0269 41.28 72.2669 41.28C72.2935 41.28 72.3069 41.32 72.3069 41.4C72.3069 41.48 72.2935 41.52 72.2669 41.52C71.6935 41.52 71.3269 41.6133 71.1669 41.8C71.0202 41.9867 70.9469 42.3667 70.9469 42.94V47.38C70.9469 47.9533 71.0202 48.3267 71.1669 48.5C71.3269 48.6733 71.6935 48.76 72.2669 48.76C72.2935 48.76 72.3069 48.8 72.3069 48.88C72.3069 48.96 72.2935 49 72.2669 49C72.0135 49 71.7335 48.9933 71.4269 48.98C71.1202 48.9667 70.8135 48.96 70.5069 48.96C70.1735 48.96 69.8469 48.9667 69.5269 48.98C69.2202 48.9933 68.9402 49 68.6869 49C68.6469 49 68.6269 48.96 68.6269 48.88C68.6269 48.8 68.6469 48.76 68.6869 48.76C69.2602 48.76 69.6202 48.6733 69.7669 48.5C69.9269 48.3267 70.0069 47.9533 70.0069 47.38ZM75.3869 47.38V42.9C75.3869 42.3133 75.3069 41.94 75.1469 41.78C75.0002 41.6067 74.6469 41.52 74.0869 41.52C74.0469 41.52 74.0269 41.48 74.0269 41.4C74.0269 41.32 74.0469 41.28 74.0869 41.28C74.3269 41.28 74.6002 41.2867 74.9069 41.3C75.2269 41.3133 75.5535 41.32 75.8869 41.32C76.1935 41.32 76.5002 41.3133 76.8069 41.3C77.1269 41.2867 77.4069 41.28 77.6469 41.28C77.6735 41.28 77.6869 41.32 77.6869 41.4C77.6869 41.48 77.6735 41.52 77.6469 41.52C77.0735 41.52 76.7069 41.6133 76.5469 41.8C76.4002 41.9867 76.3269 42.3667 76.3269 42.94V47.38C76.3269 47.9533 76.4002 48.3267 76.5469 48.5C76.7069 48.6733 77.0735 48.76 77.6469 48.76C77.6735 48.76 77.6869 48.8 77.6869 48.88C77.6869 48.96 77.6735 49 77.6469 49C77.3935 49 77.1135 48.9933 76.8069 48.98C76.5002 48.9667 76.1935 48.96 75.8869 48.96C75.5535 48.96 75.2269 48.9667 74.9069 48.98C74.5869 48.9933 74.3069 49 74.0669 49C74.0269 49 74.0069 48.96 74.0069 48.88C74.0069 48.8 74.0269 48.76 74.0669 48.76C74.6269 48.76 74.9869 48.6733 75.1469 48.5C75.3069 48.3267 75.3869 47.9533 75.3869 47.38ZM84.5217 49.12C84.4684 49.1467 84.4151 49.16 84.3617 49.16C84.2017 49.16 84.0551 49.02 83.9217 48.74C83.7884 48.46 83.7217 48.0533 83.7217 47.52V43.9C83.7217 43.2467 83.6551 42.7467 83.5217 42.4C83.4017 42.0533 83.2351 41.82 83.0217 41.7C82.8217 41.5667 82.6017 41.5 82.3617 41.5C82.0017 41.5 81.7084 41.5933 81.4817 41.78C81.2551 41.9667 81.0817 42.1933 80.9617 42.46C80.8551 42.7133 80.7817 42.9533 80.7417 43.18C80.7284 43.3133 80.6817 43.46 80.6017 43.62C80.5351 43.7667 80.3684 43.84 80.1017 43.84C79.9284 43.84 79.7817 43.7933 79.6617 43.7C79.5551 43.6067 79.5017 43.4733 79.5017 43.3C79.5017 43.0733 79.6151 42.8333 79.8417 42.58C80.0684 42.3267 80.3551 42.0867 80.7017 41.86C81.0617 41.6333 81.4417 41.4533 81.8417 41.32C82.2417 41.1733 82.6151 41.1 82.9617 41.1C83.4551 41.1 83.8551 41.28 84.1617 41.64C84.4817 41.9867 84.6417 42.54 84.6417 43.3V46.84C84.6417 47.32 84.6951 47.6733 84.8017 47.9C84.9217 48.1133 85.1217 48.22 85.4017 48.22C85.6551 48.22 86.0217 48.12 86.5017 47.92C86.5684 47.8933 86.6151 47.92 86.6417 48C86.6684 48.0667 86.6484 48.1133 86.5817 48.14L84.5217 49.12ZM80.6617 49.14C80.2351 49.14 79.9151 49.0267 79.7017 48.8C79.5017 48.56 79.4017 48.2933 79.4017 48C79.4017 47.6533 79.5417 47.3733 79.8217 47.16C80.1017 46.9333 80.5617 46.7067 81.2017 46.48L83.9217 45.5L83.9617 45.7L81.4017 46.68C81.1084 46.7867 80.9017 46.9133 80.7817 47.06C80.6617 47.2067 80.6017 47.3933 80.6017 47.62C80.6017 47.9 80.6817 48.12 80.8417 48.28C81.0151 48.4267 81.2284 48.5 81.4817 48.5C81.6284 48.5 81.7617 48.4867 81.8817 48.46C82.0151 48.42 82.1351 48.3733 82.2417 48.32L84.1017 47.38L84.1417 47.6L82.4017 48.54C81.9884 48.7533 81.6551 48.9067 81.4017 49C81.1617 49.0933 80.9151 49.14 80.6617 49.14ZM94.3606 48.76C94.3873 48.76 94.4006 48.8 94.4006 48.88C94.4006 48.96 94.3873 49 94.3606 49C94.134 49 93.8673 48.9933 93.5606 48.98C93.2673 48.9667 92.954 48.96 92.6206 48.96C92.2606 48.96 91.9273 48.9667 91.6206 48.98C91.3273 48.9933 91.0473 49 90.7806 49C90.754 49 90.7406 48.96 90.7406 48.88C90.7406 48.8 90.754 48.76 90.7806 48.76C91.354 48.76 91.714 48.6733 91.8606 48.5C92.0206 48.3267 92.1006 47.9533 92.1006 47.38V45.14L92.3206 45.18C91.9473 45.18 91.6073 45.24 91.3006 45.36C90.994 45.4667 90.694 45.68 90.4006 46C90.1073 46.3067 89.7873 46.7667 89.4406 47.38C89.1873 47.8333 88.9873 48.18 88.8406 48.42C88.7073 48.6467 88.6006 48.8 88.5206 48.88C88.4406 48.96 88.354 49 88.2606 49H86.6806C86.654 49 86.6406 48.96 86.6406 48.88C86.6406 48.8 86.654 48.76 86.6806 48.76C87.0273 48.76 87.314 48.6667 87.5406 48.48C87.7806 48.28 87.9806 48.0467 88.1406 47.78C88.3006 47.5 88.454 47.2333 88.6006 46.98C88.8806 46.4867 89.2406 46.06 89.6806 45.7C90.134 45.34 90.6206 45.16 91.1406 45.16L91.2806 45.24C90.534 45.24 89.9406 45.16 89.5006 45C89.074 44.8267 88.7673 44.5933 88.5806 44.3C88.4073 44.0067 88.3206 43.6733 88.3206 43.3C88.3206 42.66 88.5406 42.1533 88.9806 41.78C89.434 41.4067 90.034 41.22 90.7806 41.22C91.0073 41.22 91.3073 41.24 91.6806 41.28C92.054 41.3067 92.3673 41.32 92.6206 41.32C92.954 41.32 93.2606 41.3133 93.5406 41.3C93.834 41.2867 94.1006 41.28 94.3406 41.28C94.3673 41.28 94.3806 41.32 94.3806 41.4C94.3806 41.48 94.3673 41.52 94.3406 41.52C93.8073 41.52 93.454 41.6067 93.2806 41.78C93.1073 41.94 93.0206 42.3133 93.0206 42.9V47.38C93.0206 47.9533 93.1073 48.3267 93.2806 48.5C93.4673 48.6733 93.8273 48.76 94.3606 48.76ZM89.3406 42.84C89.3406 43.4533 89.494 43.96 89.8006 44.36C90.1206 44.76 90.594 44.96 91.2206 44.96C91.4073 44.96 91.614 44.9467 91.8406 44.92C92.0673 44.8933 92.2473 44.8667 92.3806 44.84L92.1006 44.98V42.94C92.1006 42.3267 92.014 41.9267 91.8406 41.74C91.6673 41.5533 91.3073 41.46 90.7606 41.46C89.814 41.46 89.3406 41.92 89.3406 42.84ZM16.4258 73H9.56578C9.52578 73 9.50578 72.96 9.50578 72.88C9.50578 72.8 9.52578 72.76 9.56578 72.76C10.1258 72.76 10.4791 72.6667 10.6258 72.48C10.7858 72.2933 10.8658 71.9133 10.8658 71.34V66.9C10.8658 66.3133 10.7858 65.94 10.6258 65.78C10.4791 65.6067 10.1258 65.52 9.56578 65.52C9.52578 65.52 9.50578 65.48 9.50578 65.4C9.50578 65.32 9.52578 65.28 9.56578 65.28C9.80578 65.28 10.0791 65.2867 10.3858 65.3C10.6924 65.3133 10.9991 65.32 11.3058 65.32C11.6391 65.32 11.9658 65.3133 12.2858 65.3C12.6058 65.2867 12.8924 65.28 13.1458 65.28C13.1724 65.28 13.1858 65.32 13.1858 65.4C13.1858 65.48 13.1724 65.52 13.1458 65.52C12.5724 65.52 12.2058 65.6067 12.0458 65.78C11.8858 65.94 11.8058 66.3133 11.8058 66.9V71.38C11.8058 71.78 11.8191 72.0667 11.8458 72.24C11.8724 72.4133 11.9591 72.52 12.1058 72.56C12.2524 72.6 12.4991 72.62 12.8458 72.62H15.1058C15.4658 72.62 15.7191 72.6 15.8658 72.56C16.0258 72.52 16.1191 72.4133 16.1458 72.24C16.1724 72.0533 16.1858 71.7533 16.1858 71.34V66.9C16.1858 66.3133 16.1058 65.94 15.9458 65.78C15.7858 65.6067 15.4258 65.52 14.8658 65.52C14.8391 65.52 14.8258 65.48 14.8258 65.4C14.8258 65.32 14.8391 65.28 14.8658 65.28C15.1191 65.28 15.3924 65.2867 15.6858 65.3C15.9924 65.3133 16.3058 65.32 16.6258 65.32C16.9591 65.32 17.2791 65.3133 17.5858 65.3C17.9058 65.2867 18.1924 65.28 18.4458 65.28C18.4858 65.28 18.5058 65.32 18.5058 65.4C18.5058 65.48 18.4858 65.52 18.4458 65.52C17.8724 65.52 17.5058 65.6067 17.3458 65.78C17.1858 65.94 17.1058 66.3133 17.1058 66.9V71.38C17.1058 71.7 17.1324 71.9533 17.1858 72.14C17.2391 72.3133 17.3591 72.4333 17.5458 72.5C17.7458 72.5667 18.0524 72.6 18.4658 72.6C18.5724 72.6 18.6324 72.6133 18.6458 72.64C18.6591 72.6533 18.6658 72.72 18.6658 72.84C18.6658 72.96 18.6591 73.1067 18.6458 73.28C18.6324 73.4667 18.6124 73.7333 18.5858 74.08C18.5724 74.44 18.5658 74.94 18.5658 75.58C18.5658 75.6333 18.5258 75.66 18.4458 75.66C18.3658 75.66 18.3258 75.6333 18.3258 75.58C18.3258 74.9 18.2791 74.3733 18.1858 74C18.1058 73.6267 17.9258 73.3667 17.6458 73.22C17.3791 73.0733 16.9724 73 16.4258 73ZM23.502 73.24C22.6887 73.24 22.0087 73.06 21.462 72.7C20.9154 72.3267 20.502 71.8467 20.222 71.26C19.9554 70.6733 19.822 70.0533 19.822 69.4C19.822 68.5867 20.0087 67.86 20.382 67.22C20.7554 66.5667 21.262 66.0533 21.902 65.68C22.542 65.2933 23.262 65.1 24.062 65.1C24.7687 65.1 25.3087 65.28 25.682 65.64C26.0687 65.9867 26.262 66.4667 26.262 67.08C26.262 67.2267 26.2487 67.34 26.222 67.42C26.1954 67.4867 26.1287 67.52 26.022 67.52H25.042C25.1087 66.8533 24.982 66.3533 24.662 66.02C24.3554 65.6733 23.9287 65.5 23.382 65.5C22.5954 65.5 21.9954 65.78 21.582 66.34C21.1687 66.9 20.962 67.6667 20.962 68.64C20.962 69.4 21.082 70.08 21.322 70.68C21.5754 71.2667 21.942 71.7333 22.422 72.08C22.902 72.4267 23.4754 72.6 24.142 72.6C24.4887 72.6 24.842 72.5467 25.202 72.44C25.562 72.3333 25.902 72.16 26.222 71.92C26.2487 71.8933 26.282 71.9133 26.322 71.98C26.3754 72.0333 26.3887 72.08 26.362 72.12C25.8954 72.52 25.422 72.8067 24.942 72.98C24.4754 73.1533 23.9954 73.24 23.502 73.24ZM20.702 67.54L20.682 67.32L25.282 67.22V67.52L20.702 67.54ZM27.5075 78.5C27.4808 78.5 27.4675 78.46 27.4675 78.38C27.4675 78.3 27.4808 78.26 27.5075 78.26C28.1608 78.26 28.5808 78.1733 28.7675 78C28.9675 77.8267 29.0675 77.4533 29.0675 76.88V66.9C29.0675 66.34 28.9475 65.9733 28.7075 65.8C28.4808 65.6133 28.0075 65.52 27.2875 65.52C27.2475 65.52 27.2275 65.48 27.2275 65.4C27.2275 65.32 27.2475 65.28 27.2875 65.28C27.6608 65.28 27.9942 65.28 28.2875 65.28C28.5808 65.28 28.8342 65.28 29.0475 65.28C29.2742 65.28 29.4675 65.28 29.6275 65.28C29.7742 65.28 29.8675 65.3133 29.9075 65.38C29.9608 65.4467 29.9875 65.5933 29.9875 65.82V76.88C29.9875 77.2533 30.0408 77.54 30.1475 77.74C30.2542 77.94 30.4542 78.0733 30.7475 78.14C31.0408 78.22 31.4742 78.26 32.0475 78.26C32.0875 78.26 32.1075 78.3 32.1075 78.38C32.1075 78.46 32.0875 78.5 32.0475 78.5C31.7008 78.5 31.3142 78.4933 30.8875 78.48C30.4608 78.4667 30.0142 78.46 29.5475 78.46C29.1742 78.46 28.8075 78.4667 28.4475 78.48C28.0875 78.4933 27.7742 78.5 27.5075 78.5ZM32.2075 73.26C31.7008 73.26 31.2475 73.1933 30.8475 73.06C30.4608 72.9267 30.0342 72.6733 29.5675 72.3L29.7675 71.24C30.1408 71.7067 30.5608 72.0933 31.0275 72.4C31.4942 72.7067 32.1075 72.86 32.8675 72.86C33.5742 72.86 34.1742 72.5467 34.6675 71.92C35.1608 71.2933 35.4075 70.4267 35.4075 69.32C35.4075 68.1333 35.1475 67.2333 34.6275 66.62C34.1075 65.9933 33.4742 65.68 32.7275 65.68C32.1142 65.68 31.5742 65.8533 31.1075 66.2C30.6408 66.5467 30.1942 66.96 29.7675 67.44L29.5875 67.3C30.2675 66.5133 30.9208 65.94 31.5475 65.58C32.1742 65.2067 32.8075 65.02 33.4475 65.02C33.9942 65.02 34.4942 65.1667 34.9475 65.46C35.4142 65.74 35.7875 66.1533 36.0675 66.7C36.3475 67.2467 36.4875 67.9133 36.4875 68.7C36.4875 69.5 36.3475 70.1867 36.0675 70.76C35.7875 71.3333 35.4275 71.8067 34.9875 72.18C34.5475 72.54 34.0808 72.8133 33.5875 73C33.0942 73.1733 32.6342 73.26 32.2075 73.26ZM41.7052 73.24C40.8918 73.24 40.2118 73.06 39.6652 72.7C39.1185 72.3267 38.7052 71.8467 38.4252 71.26C38.1585 70.6733 38.0252 70.0533 38.0252 69.4C38.0252 68.5867 38.2118 67.86 38.5852 67.22C38.9585 66.5667 39.4652 66.0533 40.1052 65.68C40.7452 65.2933 41.4652 65.1 42.2652 65.1C42.9718 65.1 43.5118 65.28 43.8852 65.64C44.2718 65.9867 44.4652 66.4667 44.4652 67.08C44.4652 67.2267 44.4518 67.34 44.4252 67.42C44.3985 67.4867 44.3318 67.52 44.2252 67.52H43.2452C43.3118 66.8533 43.1852 66.3533 42.8652 66.02C42.5585 65.6733 42.1318 65.5 41.5852 65.5C40.7985 65.5 40.1985 65.78 39.7852 66.34C39.3718 66.9 39.1652 67.6667 39.1652 68.64C39.1652 69.4 39.2852 70.08 39.5252 70.68C39.7785 71.2667 40.1452 71.7333 40.6252 72.08C41.1052 72.4267 41.6785 72.6 42.3452 72.6C42.6918 72.6 43.0452 72.5467 43.4052 72.44C43.7652 72.3333 44.1052 72.16 44.4252 71.92C44.4518 71.8933 44.4852 71.9133 44.5252 71.98C44.5785 72.0333 44.5918 72.08 44.5652 72.12C44.0985 72.52 43.6252 72.8067 43.1452 72.98C42.6785 73.1533 42.1985 73.24 41.7052 73.24ZM38.9052 67.54L38.8852 67.32L43.4852 67.22V67.52L38.9052 67.54ZM47.1706 70.92L47.4706 65.72L47.8706 65.78L47.5706 70.92C47.5306 71.6 47.6106 72.08 47.8106 72.36C48.0106 72.6267 48.3506 72.76 48.8306 72.76C48.8573 72.76 48.8706 72.8 48.8706 72.88C48.8706 72.96 48.8573 73 48.8306 73C48.6173 73 48.384 72.9933 48.1306 72.98C47.8906 72.9667 47.6306 72.96 47.3506 72.96C47.084 72.96 46.8173 72.9667 46.5506 72.98C46.2973 72.9933 46.0573 73 45.8306 73C45.804 73 45.7906 72.96 45.7906 72.88C45.7906 72.8 45.804 72.76 45.8306 72.76C46.3106 72.76 46.644 72.6267 46.8306 72.36C47.0173 72.08 47.1306 71.6 47.1706 70.92ZM56.2706 72.76C56.2973 72.76 56.3106 72.8 56.3106 72.88C56.3106 72.96 56.2973 73 56.2706 73C56.0173 73 55.7306 72.9933 55.4106 72.98C55.104 72.9667 54.7973 72.96 54.4906 72.96C54.1706 72.96 53.884 72.9667 53.6306 72.98C53.3906 72.9933 53.1573 73 52.9306 73C52.8906 73 52.8706 72.96 52.8706 72.88C52.8706 72.8 52.8906 72.76 52.9306 72.76C53.3973 72.76 53.6973 72.6733 53.8306 72.5C53.9773 72.3267 54.0306 71.9533 53.9906 71.38L53.6306 65.52H53.9106L51.0106 72.3C50.984 72.3533 50.9306 72.38 50.8506 72.38C50.7706 72.38 50.7173 72.3533 50.6906 72.3L47.9306 66.94C47.6373 66.34 47.324 65.9533 46.9906 65.78C46.6573 65.6067 46.3573 65.52 46.0906 65.52C46.064 65.52 46.0506 65.48 46.0506 65.4C46.0506 65.32 46.064 65.28 46.0906 65.28C46.2506 65.28 46.4173 65.2867 46.5906 65.3C46.7773 65.3 46.9306 65.3 47.0506 65.3C47.2373 65.3 47.4106 65.3 47.5706 65.3C47.7306 65.2867 47.8506 65.28 47.9306 65.28C48.1173 65.28 48.244 65.3533 48.3106 65.5C48.3906 65.6333 48.5373 65.9 48.7506 66.3L51.3106 71.26L50.8506 71.74L53.3906 65.78C53.4573 65.62 53.544 65.5 53.6506 65.42C53.7706 65.3267 53.884 65.28 53.9906 65.28C54.084 65.28 54.2106 65.2867 54.3706 65.3C54.5306 65.3 54.7173 65.3 54.9306 65.3C55.1706 65.3 55.364 65.3 55.5106 65.3C55.6573 65.2867 55.8173 65.28 55.9906 65.28C56.0173 65.28 56.0306 65.32 56.0306 65.4C56.0306 65.48 56.0173 65.52 55.9906 65.52C55.5106 65.52 55.144 65.6 54.8906 65.76C54.6373 65.92 54.5373 66.28 54.5906 66.84L54.9306 71.38C54.9706 71.7667 55.0173 72.06 55.0706 72.26C55.1373 72.46 55.2573 72.5933 55.4306 72.66C55.6173 72.7267 55.8973 72.76 56.2706 72.76ZM61.2797 73.26C60.493 73.26 59.8064 73.0667 59.2197 72.68C58.6464 72.2933 58.1997 71.78 57.8797 71.14C57.573 70.4867 57.4197 69.7867 57.4197 69.04C57.4197 68.3467 57.5464 67.7467 57.7997 67.24C58.053 66.7333 58.3864 66.32 58.7997 66C59.2264 65.6667 59.6864 65.42 60.1797 65.26C60.673 65.1 61.1597 65.02 61.6397 65.02C62.4397 65.02 63.1264 65.22 63.6997 65.62C64.273 66.02 64.713 66.5333 65.0197 67.16C65.3264 67.7867 65.4797 68.4467 65.4797 69.14C65.4797 69.9933 65.2864 70.7267 64.8997 71.34C64.513 71.9533 63.9997 72.4267 63.3597 72.76C62.733 73.0933 62.0397 73.26 61.2797 73.26ZM61.8397 72.9C62.5864 72.9 63.1864 72.6533 63.6397 72.16C64.093 71.6533 64.3197 70.82 64.3197 69.66C64.3197 68.8467 64.1797 68.12 63.8997 67.48C63.6197 66.84 63.2264 66.3333 62.7197 65.96C62.2264 65.5867 61.6464 65.4 60.9797 65.4C60.2197 65.4 59.6264 65.6667 59.1997 66.2C58.773 66.72 58.5597 67.4733 58.5597 68.46C58.5597 69.2467 58.693 69.98 58.9597 70.66C59.2397 71.34 59.6264 71.8867 60.1197 72.3C60.613 72.7 61.1864 72.9 61.8397 72.9ZM68.6109 69.32V68.96H73.9909V69.32H68.6109ZM68.1709 71.38V66.9C68.1709 66.3133 68.0909 65.94 67.9309 65.78C67.7843 65.6067 67.4309 65.52 66.8709 65.52C66.8309 65.52 66.8109 65.48 66.8109 65.4C66.8109 65.32 66.8309 65.28 66.8709 65.28C67.1109 65.28 67.3843 65.2867 67.6909 65.3C68.0109 65.3133 68.3376 65.32 68.6709 65.32C68.9776 65.32 69.2843 65.3133 69.5909 65.3C69.9109 65.2867 70.1909 65.28 70.4309 65.28C70.4576 65.28 70.4709 65.32 70.4709 65.4C70.4709 65.48 70.4576 65.52 70.4309 65.52C69.8576 65.52 69.4909 65.6133 69.3309 65.8C69.1843 65.9867 69.1109 66.3667 69.1109 66.94V71.38C69.1109 71.9533 69.1843 72.3267 69.3309 72.5C69.4909 72.6733 69.8576 72.76 70.4309 72.76C70.4576 72.76 70.4709 72.8 70.4709 72.88C70.4709 72.96 70.4576 73 70.4309 73C70.1776 73 69.8976 72.9933 69.5909 72.98C69.2843 72.9667 68.9776 72.96 68.6709 72.96C68.3376 72.96 68.0109 72.9667 67.6909 72.98C67.3843 72.9933 67.1043 73 66.8509 73C66.8109 73 66.7909 72.96 66.7909 72.88C66.7909 72.8 66.8109 72.76 66.8509 72.76C67.4243 72.76 67.7843 72.6733 67.9309 72.5C68.0909 72.3267 68.1709 71.9533 68.1709 71.38ZM73.5509 71.38V66.9C73.5509 66.3133 73.4709 65.94 73.3109 65.78C73.1643 65.6067 72.8109 65.52 72.2509 65.52C72.2109 65.52 72.1909 65.48 72.1909 65.4C72.1909 65.32 72.2109 65.28 72.2509 65.28C72.4909 65.28 72.7643 65.2867 73.0709 65.3C73.3909 65.3133 73.7176 65.32 74.0509 65.32C74.3576 65.32 74.6643 65.3133 74.9709 65.3C75.2909 65.2867 75.5709 65.28 75.8109 65.28C75.8376 65.28 75.8509 65.32 75.8509 65.4C75.8509 65.48 75.8376 65.52 75.8109 65.52C75.2376 65.52 74.8709 65.6133 74.7109 65.8C74.5643 65.9867 74.4909 66.3667 74.4909 66.94V71.38C74.4909 71.9533 74.5643 72.3267 74.7109 72.5C74.8709 72.6733 75.2376 72.76 75.8109 72.76C75.8376 72.76 75.8509 72.8 75.8509 72.88C75.8509 72.96 75.8376 73 75.8109 73C75.5576 73 75.2776 72.9933 74.9709 72.98C74.6643 72.9667 74.3576 72.96 74.0509 72.96C73.7176 72.96 73.3909 72.9667 73.0709 72.98C72.7509 72.9933 72.4709 73 72.2309 73C72.1909 73 72.1709 72.96 72.1709 72.88C72.1709 72.8 72.1909 72.76 72.2309 72.76C72.7909 72.76 73.1509 72.6733 73.3109 72.5C73.4709 72.3267 73.5509 71.9533 73.5509 71.38ZM78.9458 71.98L78.6858 71.72L84.1258 66.28L84.3858 66.54L78.9458 71.98ZM78.3858 71.38V66.9C78.3858 66.3133 78.3058 65.94 78.1458 65.78C77.9991 65.6067 77.6458 65.52 77.0858 65.52C77.0458 65.52 77.0258 65.48 77.0258 65.4C77.0258 65.32 77.0458 65.28 77.0858 65.28C77.3258 65.28 77.5991 65.2867 77.9058 65.3C78.2258 65.3133 78.5524 65.32 78.8858 65.32C79.1924 65.32 79.4991 65.3133 79.8058 65.3C80.1258 65.2867 80.4058 65.28 80.6458 65.28C80.6724 65.28 80.6858 65.32 80.6858 65.4C80.6858 65.48 80.6724 65.52 80.6458 65.52C80.0724 65.52 79.7058 65.6133 79.5458 65.8C79.3991 65.9867 79.3258 66.3667 79.3258 66.94V71.38C79.3258 71.9533 79.3991 72.3267 79.5458 72.5C79.7058 72.6733 80.0724 72.76 80.6458 72.76C80.6724 72.76 80.6858 72.8 80.6858 72.88C80.6858 72.96 80.6724 73 80.6458 73C80.3924 73 80.1124 72.9933 79.8058 72.98C79.4991 72.9667 79.1924 72.96 78.8858 72.96C78.5524 72.96 78.2258 72.9667 77.9058 72.98C77.5991 72.9933 77.3191 73 77.0658 73C77.0258 73 77.0058 72.96 77.0058 72.88C77.0058 72.8 77.0258 72.76 77.0658 72.76C77.6391 72.76 77.9991 72.6733 78.1458 72.5C78.3058 72.3267 78.3858 71.9533 78.3858 71.38ZM83.7658 71.38V66.9C83.7658 66.3133 83.6858 65.94 83.5258 65.78C83.3791 65.6067 83.0258 65.52 82.4658 65.52C82.4258 65.52 82.4058 65.48 82.4058 65.4C82.4058 65.32 82.4258 65.28 82.4658 65.28C82.7058 65.28 82.9791 65.2867 83.2858 65.3C83.6058 65.3133 83.9324 65.32 84.2658 65.32C84.5724 65.32 84.8791 65.3133 85.1858 65.3C85.5058 65.2867 85.7858 65.28 86.0258 65.28C86.0524 65.28 86.0658 65.32 86.0658 65.4C86.0658 65.48 86.0524 65.52 86.0258 65.52C85.4524 65.52 85.0858 65.6133 84.9258 65.8C84.7791 65.9867 84.7058 66.3667 84.7058 66.94V71.38C84.7058 71.9533 84.7791 72.3267 84.9258 72.5C85.0858 72.6733 85.4524 72.76 86.0258 72.76C86.0524 72.76 86.0658 72.8 86.0658 72.88C86.0658 72.96 86.0524 73 86.0258 73C85.7724 73 85.4924 72.9933 85.1858 72.98C84.8791 72.9667 84.5724 72.96 84.2658 72.96C83.9324 72.96 83.6058 72.9667 83.2858 72.98C82.9658 72.9933 82.6858 73 82.4458 73C82.4058 73 82.3858 72.96 82.3858 72.88C82.3858 72.8 82.4058 72.76 82.4458 72.76C83.0058 72.76 83.3658 72.6733 83.5258 72.5C83.6858 72.3267 83.7658 71.9533 83.7658 71.38ZM94.3606 72.76C94.3873 72.76 94.4006 72.8 94.4006 72.88C94.4006 72.96 94.3873 73 94.3606 73C94.134 73 93.8673 72.9933 93.5606 72.98C93.2673 72.9667 92.954 72.96 92.6206 72.96C92.2606 72.96 91.9273 72.9667 91.6206 72.98C91.3273 72.9933 91.0473 73 90.7806 73C90.754 73 90.7406 72.96 90.7406 72.88C90.7406 72.8 90.754 72.76 90.7806 72.76C91.354 72.76 91.714 72.6733 91.8606 72.5C92.0206 72.3267 92.1006 71.9533 92.1006 71.38V69.14L92.3206 69.18C91.9473 69.18 91.6073 69.24 91.3006 69.36C90.994 69.4667 90.694 69.68 90.4006 70C90.1073 70.3067 89.7873 70.7667 89.4406 71.38C89.1873 71.8333 88.9873 72.18 88.8406 72.42C88.7073 72.6467 88.6006 72.8 88.5206 72.88C88.4406 72.96 88.354 73 88.2606 73H86.6806C86.654 73 86.6406 72.96 86.6406 72.88C86.6406 72.8 86.654 72.76 86.6806 72.76C87.0273 72.76 87.314 72.6667 87.5406 72.48C87.7806 72.28 87.9806 72.0467 88.1406 71.78C88.3006 71.5 88.454 71.2333 88.6006 70.98C88.8806 70.4867 89.2406 70.06 89.6806 69.7C90.134 69.34 90.6206 69.16 91.1406 69.16L91.2806 69.24C90.534 69.24 89.9406 69.16 89.5006 69C89.074 68.8267 88.7673 68.5933 88.5806 68.3C88.4073 68.0067 88.3206 67.6733 88.3206 67.3C88.3206 66.66 88.5406 66.1533 88.9806 65.78C89.434 65.4067 90.034 65.22 90.7806 65.22C91.0073 65.22 91.3073 65.24 91.6806 65.28C92.054 65.3067 92.3673 65.32 92.6206 65.32C92.954 65.32 93.2606 65.3133 93.5406 65.3C93.834 65.2867 94.1006 65.28 94.3406 65.28C94.3673 65.28 94.3806 65.32 94.3806 65.4C94.3806 65.48 94.3673 65.52 94.3406 65.52C93.8073 65.52 93.454 65.6067 93.2806 65.78C93.1073 65.94 93.0206 66.3133 93.0206 66.9V71.38C93.0206 71.9533 93.1073 72.3267 93.2806 72.5C93.4673 72.6733 93.8273 72.76 94.3606 72.76ZM89.3406 66.84C89.3406 67.4533 89.494 67.96 89.8006 68.36C90.1206 68.76 90.594 68.96 91.2206 68.96C91.4073 68.96 91.614 68.9467 91.8406 68.92C92.0673 68.8933 92.2473 68.8667 92.3806 68.84L92.1006 68.98V66.94C92.1006 66.3267 92.014 65.9267 91.8406 65.74C91.6673 65.5533 91.3073 65.46 90.7606 65.46C89.814 65.46 89.3406 65.92 89.3406 66.84Z" fill="#282828"/>
</svg>
