<svg width="159" height="27" viewBox="0 0 159 27" fill="none" xmlns="http://www.w3.org/2000/svg">
<path d="M9.6 14.16L10.2 13.24H18.44L18.72 14.16H9.6ZM29.16 26.52C29.2933 26.52 29.36 26.6 29.36 26.76C29.36 26.92 29.2933 27 29.16 27C28.3867 27 27.5867 26.9733 26.76 26.92C25.96 26.8667 25.1733 26.84 24.4 26.84C23.5467 26.84 22.8 26.8667 22.16 26.92C21.5467 26.9733 20.8533 27 20.08 27C19.9733 27 19.92 26.92 19.92 26.76C19.92 26.6 19.9733 26.52 20.08 26.52C21.3867 26.52 22.1867 26.32 22.48 25.92C22.7733 25.4933 22.6267 24.6667 22.04 23.44L13.44 5.56L14.72 3.64L6.92 21.72C6.22667 23.3467 6.18667 24.56 6.8 25.36C7.41333 26.1333 8.56 26.52 10.24 26.52C10.3733 26.52 10.44 26.6 10.44 26.76C10.44 26.92 10.3733 27 10.24 27C9.44 27 8.70667 26.9733 8.04 26.92C7.37333 26.8667 6.53333 26.84 5.52 26.84C4.53333 26.84 3.73333 26.8667 3.12 26.92C2.53333 26.9733 1.81333 27 0.96 27C0.853333 27 0.8 26.92 0.8 26.76C0.8 26.6 0.853333 26.52 0.96 26.52C1.68 26.52 2.30667 26.3867 2.84 26.12C3.37333 25.8267 3.88 25.3067 4.36 24.56C4.86667 23.8133 5.41333 22.7467 6 21.36L14.52 1.72C14.5467 1.64 14.64 1.6 14.8 1.6C14.96 1.57333 15.0533 1.61333 15.08 1.72L24.68 21.52C25.32 22.8267 25.8667 23.8533 26.32 24.6C26.8 25.32 27.2667 25.8267 27.72 26.12C28.1733 26.3867 28.6533 26.52 29.16 26.52ZM51.7222 5.32C51.7222 4.54666 51.6422 3.96 51.4822 3.56C51.3489 3.16 51.0289 2.88 50.5222 2.72C50.0422 2.56 49.2955 2.48 48.2822 2.48C48.2022 2.48 48.1622 2.4 48.1622 2.24C48.1622 2.08 48.2022 2 48.2822 2C48.9222 2 49.6555 2.02667 50.4822 2.08C51.3355 2.10667 52.2822 2.12 53.3222 2.12C54.2289 2.12 55.1089 2.10667 55.9622 2.08C56.8422 2.02667 57.6022 2 58.2422 2C58.3222 2 58.3622 2.08 58.3622 2.24C58.3622 2.4 58.3222 2.48 58.2422 2.48C57.3089 2.48 56.5889 2.56 56.0822 2.72C55.6022 2.85333 55.2822 3.12 55.1222 3.52C54.9622 3.89333 54.8822 4.46667 54.8822 5.24V23.76C54.8822 24.5333 54.9622 25.12 55.1222 25.52C55.2822 25.92 55.6022 26.1867 56.0822 26.32C56.5889 26.4533 57.3089 26.52 58.2422 26.52C58.3222 26.52 58.3622 26.6 58.3622 26.76C58.3622 26.92 58.3222 27 58.2422 27C57.6022 27 56.8422 26.9867 55.9622 26.96C55.1089 26.9333 54.2289 26.92 53.3222 26.92C52.2822 26.92 51.3355 26.9333 50.4822 26.96C49.6555 26.9867 48.9222 27 48.2822 27C48.2022 27 48.1622 26.92 48.1622 26.76C48.1622 26.6 48.2022 26.52 48.2822 26.52C49.2955 26.52 50.0422 26.4533 50.5222 26.32C51.0289 26.1867 51.3489 25.92 51.4822 25.52C51.6422 25.12 51.7222 24.5333 51.7222 23.76V5.32ZM35.4422 14.44V13.52H53.1222V14.44H35.4422ZM33.9622 23.76V5.24C33.9622 4.46667 33.8822 3.89333 33.7222 3.52C33.5622 3.12 33.2422 2.85333 32.7622 2.72C32.2822 2.56 31.5755 2.48 30.6422 2.48C30.5622 2.48 30.5222 2.4 30.5222 2.24C30.5222 2.08 30.5622 2 30.6422 2C31.3089 2 32.0555 2.02667 32.8822 2.08C33.7089 2.10667 34.5755 2.12 35.4822 2.12C36.5489 2.12 37.4955 2.10667 38.3222 2.08C39.1755 2.02667 39.9355 2 40.6022 2C40.6555 2 40.6822 2.08 40.6822 2.24C40.6822 2.4 40.6555 2.48 40.6022 2.48C39.6155 2.48 38.8689 2.56 38.3622 2.72C37.8822 2.88 37.5489 3.16 37.3622 3.56C37.2022 3.96 37.1222 4.54666 37.1222 5.32V23.76C37.1222 24.5333 37.2022 25.12 37.3622 25.52C37.5222 25.92 37.8555 26.1867 38.3622 26.32C38.8689 26.4533 39.6155 26.52 40.6022 26.52C40.6555 26.52 40.6822 26.6 40.6822 26.76C40.6822 26.92 40.6555 27 40.6022 27C39.9089 27 39.1489 26.9867 38.3222 26.96C37.4955 26.9333 36.5489 26.92 35.4822 26.92C34.5755 26.92 33.6955 26.9333 32.8422 26.96C31.9889 26.9867 31.2289 27 30.5622 27C30.5089 27 30.4822 26.92 30.4822 26.76C30.4822 26.6 30.5089 26.52 30.5622 26.52C31.5222 26.52 32.2422 26.4533 32.7222 26.32C33.2289 26.1867 33.5622 25.92 33.7222 25.52C33.8822 25.12 33.9622 24.5333 33.9622 23.76ZM80.5519 27C80.3119 27 80.0852 26.96 79.8719 26.88C79.6585 26.8 79.3785 26.56 79.0319 26.16C78.6852 25.76 78.1785 25.1067 77.5119 24.2C76.8452 23.2667 75.9252 21.96 74.7519 20.28C73.9252 19.08 73.2319 18.0933 72.6719 17.32C72.1119 16.5467 71.6052 15.96 71.1519 15.56C70.6985 15.1333 70.2185 14.84 69.7119 14.68C69.2052 14.4933 68.5785 14.4 67.8319 14.4C67.5652 14.4 67.2852 14.4133 66.9919 14.44C66.7252 14.4667 66.4319 14.4933 66.1119 14.52L66.0719 13.8C67.8319 13.72 69.1919 13.68 70.1519 13.68C71.0585 13.68 71.8185 13.76 72.4319 13.92C73.0452 14.0533 73.5919 14.3333 74.0719 14.76C74.5785 15.16 75.1119 15.7467 75.6719 16.52C76.2585 17.2667 76.9919 18.2533 77.8719 19.48C78.9385 20.9733 79.8852 22.24 80.7119 23.28C81.5385 24.32 82.3652 25.12 83.1919 25.68C84.0185 26.2133 84.9385 26.4933 85.9519 26.52C86.0052 26.52 86.0319 26.6 86.0319 26.76C86.0319 26.92 86.0052 27 85.9519 27H80.5519ZM60.9119 27C60.8585 27 60.8319 26.92 60.8319 26.76C60.8319 26.6 60.8585 26.52 60.9119 26.52C61.8719 26.52 62.5919 26.4533 63.0719 26.32C63.5785 26.1867 63.9119 25.92 64.0719 25.52C64.2319 25.12 64.3119 24.5333 64.3119 23.76V5.24C64.3119 4.46667 64.2319 3.89333 64.0719 3.52C63.9119 3.12 63.5919 2.85333 63.1119 2.72C62.6319 2.56 61.9119 2.48 60.9519 2.48C60.8985 2.48 60.8719 2.4 60.8719 2.24C60.8719 2.08 60.8985 2 60.9519 2C61.6185 2 62.3519 2.02667 63.1519 2.08C63.9785 2.10667 64.8452 2.12 65.7519 2.12C66.7652 2.12 67.6985 2.10667 68.5519 2.08C69.4052 2.02667 70.1519 2 70.7919 2C70.8719 2 70.9119 2.08 70.9119 2.24C70.9119 2.4 70.8719 2.48 70.7919 2.48C69.8585 2.48 69.1519 2.56 68.6719 2.72C68.1919 2.88 67.8719 3.16 67.7119 3.56C67.5519 3.96 67.4719 4.54666 67.4719 5.32V23.76C67.4719 24.5333 67.5385 25.12 67.6719 25.52C67.8319 25.92 68.1519 26.1867 68.6319 26.32C69.1385 26.4533 69.8585 26.52 70.7919 26.52C70.8719 26.52 70.9119 26.6 70.9119 26.76C70.9119 26.92 70.8719 27 70.7919 27C70.1252 27 69.3652 26.9867 68.5119 26.96C67.6852 26.9333 66.7652 26.92 65.7519 26.92C64.8452 26.92 63.9785 26.9333 63.1519 26.96C62.3252 26.9867 61.5785 27 60.9119 27ZM71.1919 14.32L70.4719 13.96L75.3119 7.24C76.5385 5.53333 77.1119 4.32 77.0319 3.6C76.9785 2.85333 76.3519 2.48 75.1519 2.48C75.0985 2.48 75.0719 2.4 75.0719 2.24C75.0719 2.08 75.0985 2 75.1519 2C75.7919 2 76.4585 2.02667 77.1519 2.08C77.8719 2.10667 78.7652 2.12 79.8319 2.12C80.9519 2.12 81.8319 2.10667 82.4719 2.08C83.1119 2.02667 83.7252 2 84.3119 2C84.3919 2 84.4319 2.08 84.4319 2.24C84.4319 2.4 84.3919 2.48 84.3119 2.48C83.4052 2.48 82.5385 2.65333 81.7119 3C80.9119 3.32 80.1119 3.81333 79.3119 4.48C78.5385 5.14667 77.7652 5.97333 76.9919 6.96L71.1919 14.32ZM104.838 27H87.7981C87.7181 27 87.6781 26.92 87.6781 26.76C87.6781 26.6 87.7181 26.52 87.7981 26.52C88.7048 26.52 89.3848 26.4533 89.8381 26.32C90.3181 26.1867 90.6381 25.92 90.7981 25.52C90.9581 25.12 91.0381 24.5333 91.0381 23.76V5.24C91.0381 4.46667 90.9581 3.89333 90.7981 3.52C90.6381 3.12 90.3181 2.85333 89.8381 2.72C89.3848 2.56 88.7048 2.48 87.7981 2.48C87.7181 2.48 87.6781 2.4 87.6781 2.24C87.6781 2.08 87.7181 2 87.7981 2H104.118C104.385 2 104.518 2.12 104.518 2.36L104.598 7.4C104.598 7.48 104.518 7.53333 104.358 7.56C104.225 7.56 104.145 7.52 104.118 7.44C103.931 5.97333 103.411 4.86667 102.558 4.12C101.705 3.34667 100.585 2.96 99.1981 2.96H97.1581C96.3581 2.96 95.7448 3.02667 95.3181 3.16C94.8915 3.29333 94.5981 3.54667 94.4381 3.92C94.2781 4.26667 94.1981 4.76 94.1981 5.4V23.6C94.1981 24.24 94.2648 24.7467 94.3981 25.12C94.5581 25.4667 94.8381 25.72 95.2381 25.88C95.6381 26.0133 96.1981 26.08 96.9181 26.08H99.5581C101.078 26.08 102.331 25.64 103.318 24.76C104.305 23.8533 104.985 22.5733 105.358 20.92C105.358 20.84 105.438 20.8133 105.598 20.84C105.758 20.8667 105.838 20.92 105.838 21C105.731 21.72 105.638 22.5867 105.558 23.6C105.478 24.6133 105.438 25.5467 105.438 26.4C105.438 26.8 105.238 27 104.838 27ZM102.598 17.8C102.598 16.6533 102.265 15.8133 101.598 15.28C100.958 14.72 99.9181 14.44 98.4781 14.44H92.6781V13.52H98.5981C99.9581 13.52 100.958 13.2933 101.598 12.84C102.238 12.36 102.558 11.6267 102.558 10.64C102.558 10.5867 102.625 10.56 102.758 10.56C102.918 10.56 102.998 10.5867 102.998 10.64C102.998 11.4667 102.985 12.1067 102.958 12.56C102.958 13.0133 102.958 13.4933 102.958 14C102.958 14.6133 102.971 15.2267 102.998 15.84C103.051 16.4533 103.078 17.1067 103.078 17.8C103.078 17.8533 102.998 17.88 102.838 17.88C102.678 17.88 102.598 17.8533 102.598 17.8ZM115.718 2.8C114.064 2.8 112.771 3.26667 111.838 4.2C110.904 5.10667 110.211 6.57333 109.758 8.6C109.731 8.65333 109.638 8.68 109.478 8.68C109.344 8.68 109.278 8.64 109.278 8.56C109.331 8.21333 109.384 7.72 109.438 7.08C109.518 6.44 109.584 5.74667 109.638 5C109.691 4.25333 109.731 3.53333 109.758 2.84C109.811 2.14666 109.838 1.57333 109.838 1.12C109.838 0.986666 109.918 0.92 110.078 0.92C110.238 0.92 110.318 0.986666 110.318 1.12C110.318 1.38667 110.451 1.58667 110.718 1.72C110.984 1.82667 111.291 1.90667 111.638 1.96C111.984 1.98667 112.278 2 112.518 2C114.811 2.08 117.491 2.12 120.558 2.12C122.424 2.12 123.918 2.10667 125.038 2.08C126.158 2.02667 127.238 2 128.278 2C129.184 2 129.878 1.94667 130.358 1.84C130.864 1.70667 131.184 1.42667 131.318 0.999999C131.344 0.893332 131.424 0.839998 131.558 0.839998C131.718 0.839998 131.798 0.893332 131.798 0.999999C131.744 1.4 131.691 1.96 131.638 2.68C131.611 3.4 131.571 4.14667 131.518 4.92C131.491 5.69333 131.464 6.41333 131.438 7.08C131.411 7.74667 131.398 8.24 131.398 8.56C131.398 8.64 131.318 8.68 131.158 8.68C131.024 8.68 130.958 8.64 130.958 8.56C130.771 6.48 130.238 5 129.358 4.12C128.478 3.24 127.171 2.8 125.438 2.8C124.504 2.8 123.798 2.86667 123.318 3C122.864 3.10667 122.558 3.33333 122.398 3.68C122.264 4.02667 122.198 4.57333 122.198 5.32V23.76C122.198 24.5333 122.278 25.12 122.438 25.52C122.624 25.92 122.971 26.1867 123.478 26.32C124.011 26.4533 124.824 26.52 125.918 26.52C125.971 26.52 125.998 26.6 125.998 26.76C125.998 26.92 125.971 27 125.918 27C125.198 27 124.384 26.9867 123.478 26.96C122.598 26.9333 121.624 26.92 120.558 26.92C119.544 26.92 118.584 26.9333 117.678 26.96C116.798 26.9867 115.984 27 115.238 27C115.158 27 115.118 26.92 115.118 26.76C115.118 26.6 115.158 26.52 115.238 26.52C116.278 26.52 117.064 26.4533 117.598 26.32C118.158 26.1867 118.531 25.92 118.718 25.52C118.904 25.12 118.998 24.5333 118.998 23.76V5.24C118.998 4.52 118.918 3.98666 118.758 3.64C118.598 3.26666 118.278 3.04 117.798 2.96C117.318 2.85333 116.624 2.8 115.718 2.8ZM139.014 14.16L139.614 13.24H147.854L148.134 14.16H139.014ZM158.574 26.52C158.707 26.52 158.774 26.6 158.774 26.76C158.774 26.92 158.707 27 158.574 27C157.801 27 157.001 26.9733 156.174 26.92C155.374 26.8667 154.587 26.84 153.814 26.84C152.961 26.84 152.214 26.8667 151.574 26.92C150.961 26.9733 150.267 27 149.494 27C149.387 27 149.334 26.92 149.334 26.76C149.334 26.6 149.387 26.52 149.494 26.52C150.801 26.52 151.601 26.32 151.894 25.92C152.187 25.4933 152.041 24.6667 151.454 23.44L142.854 5.56L144.134 3.64L136.334 21.72C135.641 23.3467 135.601 24.56 136.214 25.36C136.827 26.1333 137.974 26.52 139.654 26.52C139.787 26.52 139.854 26.6 139.854 26.76C139.854 26.92 139.787 27 139.654 27C138.854 27 138.121 26.9733 137.454 26.92C136.787 26.8667 135.947 26.84 134.934 26.84C133.947 26.84 133.147 26.8667 132.534 26.92C131.947 26.9733 131.227 27 130.374 27C130.267 27 130.214 26.92 130.214 26.76C130.214 26.6 130.267 26.52 130.374 26.52C131.094 26.52 131.721 26.3867 132.254 26.12C132.787 25.8267 133.294 25.3067 133.774 24.56C134.281 23.8133 134.827 22.7467 135.414 21.36L143.934 1.72C143.961 1.64 144.054 1.6 144.214 1.6C144.374 1.57333 144.467 1.61333 144.494 1.72L154.094 21.52C154.734 22.8267 155.281 23.8533 155.734 24.6C156.214 25.32 156.681 25.8267 157.134 26.12C157.587 26.3867 158.067 26.52 158.574 26.52Z" fill="#282828"/>
</svg>
