<svg width="114" height="37" viewBox="0 0 114 37" fill="none" xmlns="http://www.w3.org/2000/svg">
<path d="M9.396 17C9.288 17 9.186 16.982 9.09 16.946C8.994 16.91 8.868 16.802 8.712 16.622C8.556 16.442 8.328 16.148 8.028 15.74C7.728 15.32 7.314 14.732 6.786 13.976C6.414 13.436 6.096 12.992 5.832 12.644C5.58 12.296 5.346 12.032 5.13 11.852C4.926 11.66 4.704 11.528 4.464 11.456C4.224 11.372 3.93 11.33 3.582 11.33C3.462 11.33 3.336 11.336 3.204 11.348C3.072 11.36 2.94 11.372 2.808 11.384L2.79 11.06C3.546 11.024 4.134 11.006 4.554 11.006C4.95 11.006 5.274 11.042 5.526 11.114C5.79 11.174 6.024 11.3 6.228 11.492C6.444 11.672 6.678 11.936 6.93 12.284C7.194 12.62 7.524 13.064 7.92 13.616C8.4 14.288 8.826 14.858 9.198 15.326C9.582 15.794 9.966 16.154 10.35 16.406C10.734 16.646 11.172 16.772 11.664 16.784C11.688 16.784 11.7 16.82 11.7 16.892C11.7 16.964 11.688 17 11.664 17H9.396ZM0.612 17C0.588 17 0.576 16.964 0.576 16.892C0.576 16.82 0.588 16.784 0.612 16.784C1.056 16.784 1.392 16.754 1.62 16.694C1.848 16.634 1.998 16.514 2.07 16.334C2.142 16.154 2.178 15.89 2.178 15.542V7.208C2.178 6.86 2.142 6.602 2.07 6.434C1.998 6.254 1.848 6.134 1.62 6.074C1.404 6.002 1.074 5.966 0.63 5.966C0.606 5.966 0.594 5.93 0.594 5.858C0.594 5.786 0.606 5.75 0.63 5.75C0.918 5.75 1.242 5.762 1.602 5.786C1.962 5.798 2.34 5.804 2.736 5.804C3.168 5.804 3.564 5.798 3.924 5.786C4.296 5.762 4.626 5.75 4.914 5.75C4.938 5.75 4.95 5.786 4.95 5.858C4.95 5.93 4.938 5.966 4.914 5.966C4.47 5.966 4.134 6.002 3.906 6.074C3.69 6.146 3.54 6.272 3.456 6.452C3.384 6.632 3.348 6.896 3.348 7.244V15.542C3.348 15.89 3.384 16.154 3.456 16.334C3.528 16.514 3.678 16.634 3.906 16.694C4.134 16.754 4.47 16.784 4.914 16.784C4.938 16.784 4.95 16.82 4.95 16.892C4.95 16.964 4.938 17 4.914 17C4.614 17 4.284 16.994 3.924 16.982C3.564 16.97 3.168 16.964 2.736 16.964C2.34 16.964 1.956 16.97 1.584 16.982C1.224 16.994 0.9 17 0.612 17ZM5.13 11.294L4.806 11.132L7.074 7.964C7.638 7.196 7.908 6.674 7.884 6.398C7.872 6.11 7.566 5.966 6.966 5.966C6.942 5.966 6.93 5.93 6.93 5.858C6.93 5.786 6.942 5.75 6.966 5.75C7.254 5.75 7.548 5.762 7.848 5.786C8.148 5.798 8.538 5.804 9.018 5.804C9.498 5.804 9.87 5.798 10.134 5.786C10.41 5.762 10.674 5.75 10.926 5.75C10.962 5.75 10.98 5.786 10.98 5.858C10.98 5.93 10.962 5.966 10.926 5.966C10.506 5.966 10.122 6.038 9.774 6.182C9.426 6.314 9.084 6.53 8.748 6.83C8.424 7.118 8.082 7.502 7.722 7.982L5.13 11.294ZM17.3063 17.108C17.2583 17.132 17.2103 17.144 17.1623 17.144C17.0063 17.144 16.8563 17.018 16.7123 16.766C16.5683 16.502 16.4963 16.124 16.4963 15.632V12.41C16.4963 11.846 16.4423 11.408 16.3343 11.096C16.2383 10.784 16.1003 10.568 15.9203 10.448C15.7523 10.328 15.5603 10.268 15.3443 10.268C15.0443 10.268 14.7983 10.346 14.6063 10.502C14.4143 10.646 14.2703 10.832 14.1743 11.06C14.0783 11.288 14.0123 11.516 13.9763 11.744C13.9643 11.912 13.9103 12.068 13.8143 12.212C13.7303 12.356 13.5623 12.428 13.3103 12.428C13.1183 12.428 12.9683 12.38 12.8603 12.284C12.7523 12.188 12.6983 12.056 12.6983 11.888C12.6983 11.672 12.8063 11.45 13.0223 11.222C13.2383 10.982 13.5083 10.766 13.8323 10.574C14.1683 10.37 14.5163 10.208 14.8763 10.088C15.2483 9.956 15.5963 9.89 15.9203 9.89C16.3763 9.89 16.7543 10.052 17.0543 10.376C17.3543 10.688 17.5043 11.186 17.5043 11.87V15.056C17.5043 15.476 17.5583 15.782 17.6663 15.974C17.7743 16.166 17.9483 16.262 18.1883 16.262C18.4043 16.262 18.7043 16.184 19.0883 16.028C19.1483 16.004 19.1903 16.028 19.2143 16.1C19.2383 16.16 19.2203 16.202 19.1603 16.226L17.3063 17.108ZM13.7783 17.126C13.3943 17.126 13.1063 17.024 12.9143 16.82C12.7223 16.604 12.6263 16.358 12.6263 16.082C12.6263 15.746 12.7583 15.482 13.0223 15.29C13.2863 15.086 13.7183 14.882 14.3183 14.678L16.6763 13.832L16.7303 14.03L14.6423 14.822C14.3663 14.93 14.1683 15.05 14.0483 15.182C13.9403 15.314 13.8863 15.482 13.8863 15.686C13.8863 15.938 13.9583 16.136 14.1023 16.28C14.2463 16.412 14.4323 16.478 14.6603 16.478C14.7923 16.478 14.9183 16.466 15.0383 16.442C15.1583 16.406 15.2783 16.358 15.3983 16.298L16.9283 15.524L16.9643 15.74L15.3983 16.586C15.0383 16.766 14.7383 16.904 14.4983 17C14.2583 17.084 14.0183 17.126 13.7783 17.126ZM19.7353 17C19.6993 17 19.6813 16.964 19.6813 16.892C19.6813 16.82 19.6993 16.784 19.7353 16.784C20.2273 16.784 20.5393 16.706 20.6713 16.55C20.8033 16.394 20.8693 16.058 20.8693 15.542V11.51C20.8693 10.982 20.8033 10.646 20.6713 10.502C20.5393 10.346 20.2333 10.268 19.7533 10.268C19.7173 10.268 19.6993 10.232 19.6993 10.16C19.6993 10.088 19.7173 10.052 19.7533 10.052C19.9693 10.052 20.2213 10.058 20.5093 10.07C20.7973 10.082 21.0973 10.088 21.4093 10.088C21.7453 10.088 22.0693 10.082 22.3813 10.07C22.7053 10.058 22.9873 10.052 23.2273 10.052C23.2633 10.052 23.2813 10.088 23.2813 10.16C23.2813 10.232 23.2633 10.268 23.2273 10.268C22.6633 10.268 22.2973 10.352 22.1293 10.52C21.9733 10.676 21.8953 11.018 21.8953 11.546V15.542C21.8953 16.058 21.9613 16.394 22.0933 16.55C22.2253 16.706 22.5373 16.784 23.0293 16.784C23.0533 16.784 23.0653 16.82 23.0653 16.892C23.0653 16.964 23.0533 17 23.0293 17C22.8013 17 22.5433 16.994 22.2553 16.982C21.9793 16.97 21.6973 16.964 21.4093 16.964C21.0973 16.964 20.7973 16.97 20.5093 16.982C20.2213 16.994 19.9633 17 19.7353 17ZM25.4773 17C25.4293 17 25.3873 16.994 25.3513 16.982C25.3153 16.958 25.2673 16.898 25.2073 16.802C25.1593 16.694 25.0633 16.526 24.9193 16.298C24.7873 16.058 24.5953 15.716 24.3433 15.272C24.0553 14.792 23.8033 14.432 23.5873 14.192C23.3833 13.94 23.1733 13.772 22.9573 13.688C22.7533 13.592 22.4953 13.544 22.1833 13.544C21.9673 13.544 21.7033 13.562 21.3913 13.598L21.3733 13.274C21.6013 13.262 21.8113 13.256 22.0033 13.256C22.2073 13.244 22.3933 13.232 22.5613 13.22C22.7413 13.208 22.8913 13.202 23.0113 13.202C23.4193 13.202 23.7373 13.25 23.9653 13.346C24.2053 13.43 24.4273 13.592 24.6313 13.832C24.8353 14.072 25.0873 14.432 25.3873 14.912C25.6513 15.32 25.8673 15.662 26.0353 15.938C26.2153 16.202 26.4073 16.406 26.6113 16.55C26.8273 16.694 27.1153 16.772 27.4753 16.784C27.4993 16.784 27.5113 16.82 27.5113 16.892C27.5113 16.964 27.4993 17 27.4753 17H25.4773ZM23.0113 13.508V13.202C23.1433 13.202 23.2633 13.16 23.3713 13.076C23.4793 12.992 23.5753 12.884 23.6593 12.752C23.7433 12.62 23.8273 12.482 23.9113 12.338C24.1873 11.822 24.4213 11.384 24.6133 11.024C24.8173 10.652 25.0273 10.37 25.2433 10.178C25.4593 9.986 25.7173 9.89 26.0173 9.89C26.2933 9.89 26.4973 9.956 26.6293 10.088C26.7733 10.208 26.8453 10.352 26.8453 10.52C26.8453 10.7 26.7793 10.862 26.6473 11.006C26.5273 11.138 26.3533 11.204 26.1253 11.204C26.0053 11.204 25.9033 11.18 25.8193 11.132C25.7473 11.084 25.6753 11.042 25.6033 11.006C25.5433 10.97 25.4653 10.952 25.3693 10.952C25.2733 10.952 25.1533 11.03 25.0093 11.186C24.8773 11.342 24.7393 11.534 24.5953 11.762C24.4513 11.99 24.3133 12.212 24.1813 12.428C24.0253 12.74 23.8513 12.998 23.6593 13.202C23.4673 13.406 23.2513 13.508 23.0113 13.508ZM32.1254 19.358C32.1254 18.83 32.1134 18.404 32.0894 18.08C32.0774 17.768 32.0594 17.516 32.0354 17.324C32.0234 17.132 32.0174 16.97 32.0174 16.838C32.0174 16.73 32.0534 16.664 32.1254 16.64C32.2094 16.604 32.2874 16.586 32.3594 16.586C32.9234 16.586 33.4094 16.196 33.8174 15.416C34.2374 14.636 34.5854 13.448 34.8614 11.852C34.9334 11.408 34.9394 11.066 34.8794 10.826C34.8194 10.586 34.6874 10.424 34.4834 10.34C34.2794 10.256 34.0094 10.214 33.6734 10.214C33.6494 10.214 33.6374 10.184 33.6374 10.124C33.6374 10.052 33.6494 10.016 33.6734 10.016C33.8054 10.016 34.0034 10.022 34.2674 10.034C34.5314 10.034 34.8074 10.034 35.0954 10.034C35.3834 10.034 35.6474 10.04 35.8874 10.052C36.1394 10.052 36.3074 10.052 36.3914 10.052H39.7574C39.7814 10.052 39.7934 10.088 39.7934 10.16C39.7934 10.232 39.7814 10.268 39.7574 10.268C39.3854 10.268 39.1034 10.304 38.9114 10.376C38.7314 10.448 38.6114 10.574 38.5514 10.754C38.4914 10.934 38.4614 11.198 38.4614 11.546V15.542C38.4614 15.902 38.4914 16.154 38.5514 16.298C38.6234 16.442 38.7434 16.532 38.9114 16.568C39.0914 16.604 39.3374 16.622 39.6494 16.622C39.7454 16.622 39.7994 16.634 39.8114 16.658C39.8234 16.67 39.8294 16.73 39.8294 16.838C39.8294 16.958 39.8174 17.114 39.7934 17.306C39.7814 17.51 39.7634 17.774 39.7394 18.098C39.7274 18.422 39.7214 18.842 39.7214 19.358C39.7214 19.406 39.6854 19.43 39.6134 19.43C39.5534 19.43 39.5234 19.406 39.5234 19.358C39.5234 18.554 39.4154 17.96 39.1994 17.576C38.9834 17.192 38.5934 17 38.0294 17H34.0334C33.4934 17 33.0734 17.192 32.7734 17.576C32.4734 17.96 32.3234 18.554 32.3234 19.358C32.3234 19.406 32.2874 19.43 32.2154 19.43C32.1554 19.43 32.1254 19.406 32.1254 19.358ZM32.8454 16.964L32.9174 16.604H35.6354C36.1994 16.604 36.6074 16.592 36.8594 16.568C37.1114 16.532 37.2674 16.442 37.3274 16.298C37.3994 16.142 37.4354 15.89 37.4354 15.542V11.51C37.4354 11.138 37.4234 10.88 37.3994 10.736C37.3874 10.58 37.3154 10.484 37.1834 10.448C37.0634 10.412 36.8474 10.394 36.5354 10.394H36.3194C36.1034 10.394 35.9294 10.43 35.7974 10.502C35.6654 10.562 35.5634 10.676 35.4914 10.844C35.4314 11 35.3774 11.216 35.3294 11.492C35.1614 12.416 34.9934 13.196 34.8254 13.832C34.6574 14.468 34.4774 14.99 34.2854 15.398C34.1054 15.806 33.8954 16.136 33.6554 16.388C33.4274 16.628 33.1574 16.82 32.8454 16.964ZM44.535 17.234C43.827 17.234 43.209 17.06 42.681 16.712C42.153 16.364 41.745 15.902 41.457 15.326C41.169 14.738 41.025 14.108 41.025 13.436C41.025 12.812 41.139 12.272 41.367 11.816C41.595 11.36 41.901 10.988 42.285 10.7C42.669 10.4 43.083 10.178 43.527 10.034C43.983 9.89 44.427 9.818 44.859 9.818C45.591 9.818 46.215 9.998 46.731 10.358C47.259 10.718 47.661 11.18 47.937 11.744C48.213 12.308 48.351 12.902 48.351 13.526C48.351 14.294 48.177 14.954 47.829 15.506C47.481 16.058 47.019 16.484 46.443 16.784C45.867 17.084 45.231 17.234 44.535 17.234ZM45.057 16.892C45.693 16.892 46.197 16.67 46.569 16.226C46.941 15.77 47.127 15.038 47.127 14.03C47.127 13.274 47.001 12.608 46.749 12.032C46.509 11.444 46.173 10.988 45.741 10.664C45.309 10.328 44.817 10.16 44.265 10.16C43.629 10.16 43.131 10.394 42.771 10.862C42.411 11.33 42.231 12.002 42.231 12.878C42.231 13.61 42.351 14.282 42.591 14.894C42.831 15.506 43.161 15.992 43.581 16.352C44.013 16.712 44.505 16.892 45.057 16.892ZM53.0042 17.234C52.4522 17.234 51.9182 17.09 51.4022 16.802C50.8982 16.502 50.4842 16.034 50.1602 15.398C49.8482 14.75 49.6922 13.91 49.6922 12.878C49.6922 11.366 49.8542 10.142 50.1782 9.206C50.5142 8.27 50.9762 7.538 51.5642 7.01C52.1642 6.47 52.8662 6.044 53.6702 5.732C54.0062 5.6 54.3302 5.468 54.6422 5.336C54.9662 5.204 55.2662 5.036 55.5422 4.832C55.8182 4.616 56.0342 4.322 56.1902 3.95C56.2142 3.902 56.2562 3.89 56.3162 3.914C56.3762 3.926 56.3942 3.95 56.3702 3.986C56.2862 4.49 56.1602 4.898 55.9922 5.21C55.8362 5.51 55.6442 5.756 55.4162 5.948C55.1882 6.128 54.9242 6.284 54.6242 6.416C54.3242 6.548 53.9942 6.686 53.6342 6.83C53.0582 7.058 52.5422 7.34 52.0862 7.676C51.6422 8.012 51.2642 8.444 50.9522 8.972C50.6402 9.5 50.4002 10.154 50.2322 10.934C50.0642 11.702 49.9802 12.632 49.9802 13.724L49.8362 12.896C49.9922 12.236 50.2262 11.714 50.5382 11.33C50.8502 10.946 51.1922 10.664 51.5642 10.484C51.9362 10.292 52.2842 10.172 52.6082 10.124C52.9322 10.064 53.1662 10.034 53.3102 10.034C53.9822 10.034 54.5402 10.142 54.9842 10.358C55.4402 10.562 55.8002 10.838 56.0642 11.186C56.3402 11.534 56.5382 11.912 56.6582 12.32C56.7782 12.716 56.8382 13.106 56.8382 13.49C56.8382 14.27 56.6582 14.942 56.2982 15.506C55.9502 16.058 55.4822 16.484 54.8942 16.784C54.3182 17.084 53.6882 17.234 53.0042 17.234ZM53.5442 16.892C54.1682 16.892 54.6722 16.67 55.0562 16.226C55.4522 15.77 55.6502 15.026 55.6502 13.994C55.6502 13.274 55.5422 12.644 55.3262 12.104C55.1102 11.552 54.8102 11.12 54.4262 10.808C54.0422 10.496 53.5982 10.34 53.0942 10.34C52.6142 10.34 52.2182 10.484 51.9062 10.772C51.5942 11.06 51.3602 11.432 51.2042 11.888C51.0482 12.332 50.9702 12.806 50.9702 13.31C50.9702 13.97 51.0662 14.576 51.2582 15.128C51.4502 15.668 51.7382 16.1 52.1222 16.424C52.5062 16.736 52.9802 16.892 53.5442 16.892ZM57.7865 21.95C57.7505 21.95 57.7325 21.914 57.7325 21.842C57.7325 21.77 57.7505 21.734 57.7865 21.734C58.3385 21.734 58.6925 21.656 58.8485 21.5C59.0165 21.344 59.1005 21.008 59.1005 20.492V11.51C59.1005 11.006 58.9985 10.676 58.7945 10.52C58.5905 10.352 58.1885 10.268 57.5885 10.268C57.5525 10.268 57.5345 10.232 57.5345 10.16C57.5345 10.088 57.5525 10.052 57.5885 10.052C57.8885 10.052 58.1705 10.052 58.4345 10.052C58.7105 10.052 58.9565 10.052 59.1725 10.052C59.4005 10.052 59.5985 10.052 59.7665 10.052C59.8985 10.052 59.9885 10.082 60.0365 10.142C60.0845 10.202 60.1085 10.328 60.1085 10.52V20.492C60.1085 20.828 60.1505 21.086 60.2345 21.266C60.3305 21.446 60.5045 21.566 60.7565 21.626C61.0205 21.698 61.4045 21.734 61.9085 21.734C61.9445 21.734 61.9625 21.77 61.9625 21.842C61.9625 21.914 61.9445 21.95 61.9085 21.95C61.5845 21.95 61.2245 21.944 60.8285 21.932C60.4445 21.92 60.0365 21.914 59.6045 21.914C59.2685 21.914 58.9385 21.92 58.6145 21.932C58.3025 21.944 58.0265 21.95 57.7865 21.95ZM62.0165 17.234C61.5485 17.234 61.1405 17.18 60.7925 17.072C60.4445 16.964 60.0605 16.76 59.6405 16.46L59.9105 15.47C60.2225 15.866 60.5765 16.196 60.9725 16.46C61.3805 16.724 61.9085 16.856 62.5565 16.856C63.1805 16.856 63.7025 16.58 64.1225 16.028C64.5425 15.476 64.7525 14.696 64.7525 13.688C64.7525 12.644 64.5185 11.852 64.0505 11.312C63.5825 10.772 63.0245 10.502 62.3765 10.502C61.8365 10.502 61.3685 10.652 60.9725 10.952C60.5765 11.24 60.1925 11.588 59.8205 11.996L59.6585 11.852C60.2705 11.144 60.8525 10.628 61.4045 10.304C61.9685 9.98 62.5445 9.818 63.1325 9.818C63.6245 9.818 64.0745 9.95 64.4825 10.214C64.9025 10.466 65.2385 10.838 65.4905 11.33C65.7545 11.822 65.8865 12.422 65.8865 13.13C65.8865 13.862 65.7605 14.486 65.5085 15.002C65.2565 15.518 64.9325 15.944 64.5365 16.28C64.1405 16.604 63.7205 16.844 63.2765 17C62.8325 17.156 62.4125 17.234 62.0165 17.234ZM72.2204 17.108C72.1724 17.132 72.1244 17.144 72.0764 17.144C71.9204 17.144 71.7704 17.018 71.6264 16.766C71.4824 16.502 71.4104 16.124 71.4104 15.632V12.41C71.4104 11.846 71.3564 11.408 71.2484 11.096C71.1524 10.784 71.0144 10.568 70.8344 10.448C70.6664 10.328 70.4744 10.268 70.2584 10.268C69.9584 10.268 69.7124 10.346 69.5204 10.502C69.3284 10.646 69.1844 10.832 69.0884 11.06C68.9924 11.288 68.9264 11.516 68.8904 11.744C68.8784 11.912 68.8244 12.068 68.7284 12.212C68.6444 12.356 68.4764 12.428 68.2244 12.428C68.0324 12.428 67.8824 12.38 67.7744 12.284C67.6664 12.188 67.6124 12.056 67.6124 11.888C67.6124 11.672 67.7204 11.45 67.9364 11.222C68.1524 10.982 68.4224 10.766 68.7464 10.574C69.0824 10.37 69.4304 10.208 69.7904 10.088C70.1624 9.956 70.5104 9.89 70.8344 9.89C71.2904 9.89 71.6684 10.052 71.9684 10.376C72.2684 10.688 72.4184 11.186 72.4184 11.87V15.056C72.4184 15.476 72.4724 15.782 72.5804 15.974C72.6884 16.166 72.8624 16.262 73.1024 16.262C73.3184 16.262 73.6184 16.184 74.0024 16.028C74.0624 16.004 74.1044 16.028 74.1284 16.1C74.1524 16.16 74.1344 16.202 74.0744 16.226L72.2204 17.108ZM68.6924 17.126C68.3084 17.126 68.0204 17.024 67.8284 16.82C67.6364 16.604 67.5404 16.358 67.5404 16.082C67.5404 15.746 67.6724 15.482 67.9364 15.29C68.2004 15.086 68.6324 14.882 69.2324 14.678L71.5904 13.832L71.6444 14.03L69.5564 14.822C69.2804 14.93 69.0824 15.05 68.9624 15.182C68.8544 15.314 68.8004 15.482 68.8004 15.686C68.8004 15.938 68.8724 16.136 69.0164 16.28C69.1604 16.412 69.3464 16.478 69.5744 16.478C69.7064 16.478 69.8324 16.466 69.9524 16.442C70.0724 16.406 70.1924 16.358 70.3124 16.298L71.8424 15.524L71.8784 15.74L70.3124 16.586C69.9524 16.766 69.6524 16.904 69.4124 17C69.1724 17.084 68.9324 17.126 68.6924 17.126ZM76.2514 17C76.2274 17 76.2154 16.964 76.2154 16.892C76.2154 16.82 76.2274 16.784 76.2514 16.784C76.7434 16.784 77.0614 16.706 77.2054 16.55C77.3494 16.394 77.4214 16.058 77.4214 15.542V11.546C77.4214 11.054 77.3674 10.73 77.2594 10.574C77.1514 10.406 76.9054 10.322 76.5214 10.322C76.0654 10.322 75.6994 10.466 75.4234 10.754C75.1474 11.03 74.9854 11.582 74.9374 12.41C74.9374 12.434 74.9014 12.446 74.8294 12.446C74.7574 12.446 74.7214 12.434 74.7214 12.41C74.7214 12.242 74.7214 11.99 74.7214 11.654C74.7214 11.306 74.7154 10.952 74.7034 10.592C74.7034 10.232 74.7034 9.938 74.7034 9.71C74.7034 9.65 74.7394 9.62 74.8114 9.62C74.8834 9.62 74.9194 9.65 74.9194 9.71C74.9194 9.878 75.1954 9.98 75.7474 10.016C76.2994 10.052 77.0254 10.07 77.9254 10.07C78.5134 10.07 79.0294 10.064 79.4734 10.052C79.9294 10.04 80.2834 10.01 80.5354 9.962C80.7874 9.902 80.9134 9.818 80.9134 9.71C80.9134 9.65 80.9494 9.62 81.0214 9.62C81.0934 9.62 81.1294 9.65 81.1294 9.71C81.1294 9.938 81.1294 10.232 81.1294 10.592C81.1294 10.952 81.1234 11.306 81.1114 11.654C81.1114 11.99 81.1114 12.242 81.1114 12.41C81.1114 12.434 81.0754 12.446 81.0034 12.446C80.9314 12.446 80.8954 12.434 80.8954 12.41C80.8474 11.582 80.6734 11.03 80.3734 10.754C80.0854 10.466 79.7194 10.322 79.2754 10.322C78.9034 10.322 78.6694 10.406 78.5734 10.574C78.4774 10.73 78.4294 11.054 78.4294 11.546V15.542C78.4294 16.058 78.4954 16.394 78.6274 16.55C78.7594 16.706 79.0714 16.784 79.5634 16.784C79.5994 16.784 79.6174 16.82 79.6174 16.892C79.6174 16.964 79.5994 17 79.5634 17C79.3354 17 79.0774 16.994 78.7894 16.982C78.5134 16.97 78.2254 16.964 77.9254 16.964C77.6374 16.964 77.3434 16.97 77.0434 16.982C76.7554 16.994 76.4914 17 76.2514 17ZM84.4567 11.546V15.542C84.4567 15.974 84.5467 16.286 84.7267 16.478C84.9187 16.67 85.3027 16.766 85.8787 16.766C86.4547 16.766 86.8747 16.634 87.1387 16.37C87.4147 16.094 87.5527 15.704 87.5527 15.2C87.5527 14.624 87.4087 14.156 87.1207 13.796C86.8327 13.424 86.3527 13.238 85.6807 13.238C85.4167 13.238 85.1587 13.262 84.9067 13.31C84.6667 13.358 84.4087 13.448 84.1327 13.58L84.0247 13.346C84.4087 13.178 84.7927 13.064 85.1767 13.004C85.5727 12.944 85.9507 12.914 86.3107 12.914C87.8947 12.914 88.6867 13.538 88.6867 14.786C88.6867 15.446 88.4527 15.986 87.9847 16.406C87.5167 16.826 86.9287 17.036 86.2207 17.036C86.0287 17.036 85.8007 17.03 85.5367 17.018C85.2727 17.006 85.0027 16.994 84.7267 16.982C84.4507 16.97 84.1987 16.964 83.9707 16.964C83.6707 16.964 83.3767 16.97 83.0887 16.982C82.8007 16.994 82.5367 17 82.2967 17C82.2607 17 82.2427 16.964 82.2427 16.892C82.2427 16.82 82.2607 16.784 82.2967 16.784C82.7887 16.784 83.1007 16.706 83.2327 16.55C83.3767 16.394 83.4487 16.058 83.4487 15.542V11.51C83.4487 10.982 83.3767 10.646 83.2327 10.502C83.1007 10.346 82.7947 10.268 82.3147 10.268C82.2787 10.268 82.2607 10.232 82.2607 10.16C82.2607 10.088 82.2787 10.052 82.3147 10.052C82.5427 10.052 82.8007 10.058 83.0887 10.07C83.3767 10.082 83.6707 10.088 83.9707 10.088C84.3067 10.088 84.6307 10.082 84.9427 10.07C85.2667 10.058 85.5547 10.052 85.8067 10.052C85.8427 10.052 85.8607 10.088 85.8607 10.16C85.8607 10.232 85.8427 10.268 85.8067 10.268C85.2307 10.268 84.8587 10.352 84.6907 10.52C84.5347 10.688 84.4567 11.03 84.4567 11.546ZM93.2615 17.216C92.4455 17.216 91.7795 17.042 91.2635 16.694C90.7475 16.334 90.3635 15.884 90.1115 15.344C89.8715 14.792 89.7515 14.234 89.7515 13.67C89.7515 13.07 89.8655 12.536 90.0935 12.068C90.3335 11.6 90.6455 11.204 91.0295 10.88C91.4135 10.556 91.8395 10.31 92.3075 10.142C92.7755 9.974 93.2315 9.89 93.6755 9.89C94.0235 9.89 94.3535 9.938 94.6655 10.034C94.9895 10.118 95.2535 10.244 95.4575 10.412C95.6735 10.58 95.7815 10.772 95.7815 10.988C95.7815 11.144 95.7275 11.282 95.6195 11.402C95.5115 11.51 95.3555 11.564 95.1515 11.564C94.9595 11.564 94.7975 11.504 94.6655 11.384C94.5455 11.264 94.4435 11.126 94.3595 10.97C94.2275 10.754 94.0715 10.58 93.8915 10.448C93.7115 10.316 93.4415 10.25 93.0815 10.25C92.3975 10.25 91.8695 10.52 91.4975 11.06C91.1255 11.588 90.9395 12.278 90.9395 13.13C90.9395 13.742 91.0415 14.312 91.2455 14.84C91.4615 15.368 91.7915 15.794 92.2355 16.118C92.6795 16.43 93.2555 16.586 93.9635 16.586C94.2875 16.586 94.6055 16.544 94.9175 16.46C95.2295 16.376 95.5235 16.22 95.7995 15.992C95.8235 15.968 95.8535 15.98 95.8895 16.028C95.9375 16.076 95.9495 16.112 95.9255 16.136C95.5055 16.508 95.0855 16.784 94.6655 16.964C94.2455 17.132 93.7775 17.216 93.2615 17.216ZM103.506 16.784C103.53 16.784 103.542 16.82 103.542 16.892C103.542 16.964 103.53 17 103.506 17C103.302 17 103.062 16.994 102.786 16.982C102.522 16.97 102.24 16.964 101.94 16.964C101.616 16.964 101.316 16.97 101.04 16.982C100.776 16.994 100.524 17 100.284 17C100.26 17 100.248 16.964 100.248 16.892C100.248 16.82 100.26 16.784 100.284 16.784C100.764 16.784 101.064 16.706 101.184 16.55C101.316 16.394 101.382 16.058 101.382 15.542V13.526L101.67 13.562C101.334 13.562 101.028 13.616 100.752 13.724C100.488 13.82 100.224 14.012 99.9599 14.3C99.6959 14.576 99.4139 14.99 99.1139 15.542C98.8979 15.95 98.7299 16.262 98.6099 16.478C98.4899 16.682 98.3939 16.82 98.3219 16.892C98.2499 16.964 98.1659 17 98.0699 17H96.5039C96.4799 17 96.4679 16.964 96.4679 16.892C96.4679 16.82 96.4799 16.784 96.5039 16.784C96.8159 16.784 97.0739 16.7 97.2779 16.532C97.4819 16.352 97.6499 16.142 97.7819 15.902C97.9259 15.65 98.0639 15.41 98.1959 15.182C98.4599 14.702 98.7959 14.312 99.2039 14.012C99.6119 13.7 100.08 13.544 100.608 13.544L100.734 13.616C100.026 13.616 99.4679 13.544 99.0599 13.4C98.6519 13.244 98.3639 13.034 98.1959 12.77C98.0279 12.506 97.9439 12.206 97.9439 11.87C97.9439 11.294 98.1539 10.838 98.5739 10.502C99.0059 10.166 99.5759 9.998 100.284 9.998C100.488 9.998 100.758 10.016 101.094 10.052C101.43 10.076 101.712 10.088 101.94 10.088C102.24 10.088 102.516 10.082 102.768 10.07C103.032 10.058 103.272 10.052 103.488 10.052C103.512 10.052 103.524 10.088 103.524 10.16C103.524 10.232 103.512 10.268 103.488 10.268C103.044 10.268 102.75 10.346 102.606 10.502C102.462 10.646 102.39 10.982 102.39 11.51V15.542C102.39 16.058 102.462 16.394 102.606 16.55C102.762 16.706 103.062 16.784 103.506 16.784ZM99.0239 11.456C99.0239 12.008 99.1619 12.464 99.4379 12.824C99.7139 13.184 100.128 13.364 100.68 13.364C100.848 13.364 101.034 13.352 101.238 13.328C101.442 13.304 101.604 13.28 101.724 13.256L101.382 13.4V11.546C101.382 10.994 101.31 10.634 101.166 10.466C101.022 10.298 100.722 10.214 100.266 10.214C99.4379 10.214 99.0239 10.628 99.0239 11.456ZM106.942 5.984C106.618 5.984 106.408 6.074 106.312 6.254C106.228 6.434 106.174 6.626 106.15 6.83C106.138 6.95 106.108 7.076 106.06 7.208C106.012 7.328 105.94 7.43 105.844 7.514C105.76 7.586 105.634 7.622 105.466 7.622C105.262 7.622 105.106 7.556 104.998 7.424C104.902 7.292 104.854 7.154 104.854 7.01C104.854 6.662 105.064 6.368 105.484 6.128C105.904 5.876 106.408 5.75 106.996 5.75C107.44 5.75 107.848 5.828 108.22 5.984C108.592 6.14 108.886 6.38 109.102 6.704C109.318 7.016 109.426 7.418 109.426 7.91C109.426 8.294 109.354 8.63 109.21 8.918C109.078 9.194 108.904 9.446 108.688 9.674C108.484 9.89 108.274 10.1 108.058 10.304C107.65 10.712 107.356 11.084 107.176 11.42C107.008 11.744 106.924 12.116 106.924 12.536C106.924 12.68 106.93 12.83 106.942 12.986C106.966 13.142 106.996 13.322 107.032 13.526C107.044 13.562 107.014 13.586 106.942 13.598C106.87 13.61 106.828 13.598 106.816 13.562C106.672 13.226 106.558 12.848 106.474 12.428C106.39 12.008 106.348 11.672 106.348 11.42C106.348 11.072 106.408 10.784 106.528 10.556C106.66 10.316 106.816 10.106 106.996 9.926C107.188 9.734 107.374 9.542 107.554 9.35C107.746 9.158 107.902 8.93 108.022 8.666C108.154 8.402 108.22 8.078 108.22 7.694C108.22 7.178 108.1 6.764 107.86 6.452C107.62 6.14 107.314 5.984 106.942 5.984ZM106.726 17.198C106.486 17.198 106.294 17.132 106.15 17C106.006 16.856 105.934 16.664 105.934 16.424C105.934 16.196 106.006 16.016 106.15 15.884C106.294 15.74 106.486 15.668 106.726 15.668C106.978 15.668 107.17 15.74 107.302 15.884C107.434 16.016 107.5 16.196 107.5 16.424C107.5 16.664 107.434 16.856 107.302 17C107.17 17.132 106.978 17.198 106.726 17.198Z" fill="#282828"/>
<path d="M57.4155 35.9528L51.0026 30.8734L63.711 30.7285L57.4155 35.9528Z" fill="#123E1A"/>
</svg>
